%
M48
M72
T01C0.02362
T02C0.03200
T03C0.06600
T04C0.11024
%
T01
X46006Y48933
X71006Y48933
X82256Y55183
X89756Y48933
X106006Y48933
X106006Y57683
X102256Y65183
X96006Y72683
X89756Y65183
X74756Y65183
X68506Y75183
X68506Y87683
X68506Y100183
X68506Y111433
X68506Y117683
X62256Y117683
X62256Y123933
X68506Y123933
X56006Y112683
X46006Y112683
X46006Y100183
X46006Y87683
X46006Y72683
X108506Y72683
X118506Y70183
X118506Y80183
X118506Y86433
X108506Y80183
X118506Y98933
X118506Y107683
X128506Y107683
X118506Y117683
X118506Y127683
X128506Y127683
X131006Y153933
X131006Y163933
X123506Y163933
X116006Y163933
X108506Y171433
X96006Y171433
X83506Y171433
X74756Y171433
X68506Y160183
X62256Y160183
X62256Y153933
X68506Y153933
X46006Y165183
X46006Y190183
X74756Y190183
X83506Y190183
X96006Y190183
X108506Y190183
X123506Y190183
X138506Y190183
X151006Y190183
X166006Y190183
X181006Y190183
X193506Y190183
X208506Y190183
X223506Y190183
X236006Y190183
X248506Y190183
X257256Y190183
X257256Y171433
X248506Y171433
X236006Y171433
X223506Y171433
X208506Y171433
X193506Y171433
X181006Y171433
X166006Y171433
X151006Y171433
X138506Y171433
X116006Y153933
X201006Y117683
X208506Y117683
X216006Y117683
X208506Y110183
X201006Y110183
X201006Y100183
X208506Y100183
X208506Y92683
X201006Y92683
X216006Y92683
X186006Y68933
X186006Y60183
X178506Y60183
X167256Y57683
X167256Y48933
X149756Y48933
X149756Y57683
X133506Y57683
X133506Y48933
X118506Y48933
X118506Y57683
X186006Y48933
X198506Y48933
X209756Y48933
X221006Y48933
X234756Y48933
X248506Y48933
X261006Y48933
X256006Y60183
X248506Y60183
X234756Y60183
X228506Y60183
X221006Y60183
X209756Y60183
X198506Y60183
X262256Y78933
X273506Y78933
X286006Y78933
X286006Y96433
X286006Y112683
X269756Y117683
X262256Y117683
X262256Y123933
X269756Y123933
X269756Y153933
X263506Y153933
X263506Y160183
X269756Y160183
X286006Y165183
X286006Y190183
X286006Y48933
T02
X238506Y90183
X238506Y120183
T03
X272256Y104233
X272256Y88633
T04
X273506Y61433
X273506Y177683
X58506Y177683
X58506Y61433
M30
