G75*
%MOIN*%
%OFA0B0*%
%FSLAX25Y25*%
%IPPOS*%
%LPD*%
%AMOC8*
5,1,8,0,0,1.08239X$1,22.5*
%
%ADD10C,0.00000*%
%ADD11C,0.00512*%
%ADD12C,0.00600*%
D10*
X0001600Y0058933D02*
X0001600Y0378884D01*
X0376521Y0378884D01*
X0376521Y0058933D01*
X0001600Y0058933D01*
D11*
X0001600Y0018933D02*
X0001600Y0001256D01*
X0001856Y0008933D02*
X0011836Y0007909D01*
X0011836Y0007676D02*
X0001856Y0008933D01*
X0011836Y0009957D01*
X0011836Y0010190D02*
X0011836Y0007676D01*
X0011836Y0008421D02*
X0001856Y0008933D01*
X0011836Y0009445D01*
X0011836Y0010190D02*
X0001856Y0008933D01*
X0376344Y0008933D01*
X0366364Y0007909D01*
X0366364Y0007676D02*
X0376344Y0008933D01*
X0366364Y0009957D01*
X0366364Y0010190D02*
X0366364Y0007676D01*
X0366364Y0008421D02*
X0376344Y0008933D01*
X0366364Y0009445D01*
X0366364Y0010190D02*
X0376344Y0008933D01*
X0376600Y0001256D02*
X0376600Y0018933D01*
X0421600Y0058933D02*
X0439277Y0058933D01*
X0431600Y0059189D02*
X0432624Y0069169D01*
X0432857Y0069169D02*
X0431600Y0059189D01*
X0430576Y0069169D01*
X0430343Y0069169D02*
X0432857Y0069169D01*
X0432112Y0069169D02*
X0431600Y0059189D01*
X0431088Y0069169D01*
X0430343Y0069169D02*
X0431600Y0059189D01*
X0431600Y0379927D01*
X0432624Y0369947D01*
X0432857Y0369947D02*
X0431600Y0379927D01*
X0430576Y0369947D01*
X0430343Y0369947D02*
X0432857Y0369947D01*
X0432112Y0369947D02*
X0431600Y0379927D01*
X0431088Y0369947D01*
X0430343Y0369947D02*
X0431600Y0379927D01*
X0439277Y0380183D02*
X0421600Y0380183D01*
D12*
X0423700Y0234212D02*
X0422633Y0233145D01*
X0422633Y0231010D01*
X0423700Y0229942D01*
X0427971Y0229942D01*
X0423700Y0234212D01*
X0427971Y0234212D01*
X0429038Y0233145D01*
X0429038Y0231010D01*
X0427971Y0229942D01*
X0427971Y0227767D02*
X0426903Y0227767D01*
X0425835Y0226699D01*
X0425835Y0223497D01*
X0427971Y0223497D01*
X0429038Y0224564D01*
X0429038Y0226699D01*
X0427971Y0227767D01*
X0423700Y0225632D02*
X0425835Y0223497D01*
X0423700Y0225632D02*
X0422633Y0227767D01*
X0427971Y0221341D02*
X0427971Y0220274D01*
X0429038Y0220274D01*
X0429038Y0221341D01*
X0427971Y0221341D01*
X0429038Y0218099D02*
X0429038Y0213828D01*
X0429038Y0215964D02*
X0422633Y0215964D01*
X0424768Y0213828D01*
X0424768Y0211653D02*
X0425835Y0210586D01*
X0425835Y0208451D01*
X0424768Y0207383D01*
X0423700Y0207383D01*
X0422633Y0208451D01*
X0422633Y0210586D01*
X0423700Y0211653D01*
X0424768Y0211653D01*
X0425835Y0210586D02*
X0426903Y0211653D01*
X0427971Y0211653D01*
X0429038Y0210586D01*
X0429038Y0208451D01*
X0427971Y0207383D01*
X0426903Y0207383D01*
X0425835Y0208451D01*
X0203754Y0017900D02*
X0199484Y0017900D01*
X0199484Y0014698D01*
X0201619Y0015765D01*
X0202687Y0015765D01*
X0203754Y0014698D01*
X0203754Y0012562D01*
X0202687Y0011495D01*
X0200552Y0011495D01*
X0199484Y0012562D01*
X0197309Y0011495D02*
X0193039Y0011495D01*
X0197309Y0015765D01*
X0197309Y0016833D01*
X0196241Y0017900D01*
X0194106Y0017900D01*
X0193039Y0016833D01*
X0190883Y0012562D02*
X0190883Y0011495D01*
X0189816Y0011495D01*
X0189816Y0012562D01*
X0190883Y0012562D01*
X0187641Y0012562D02*
X0186573Y0011495D01*
X0184438Y0011495D01*
X0183370Y0012562D01*
X0183370Y0014698D02*
X0185506Y0015765D01*
X0186573Y0015765D01*
X0187641Y0014698D01*
X0187641Y0012562D01*
X0183370Y0014698D02*
X0183370Y0017900D01*
X0187641Y0017900D01*
X0181195Y0016833D02*
X0181195Y0012562D01*
X0180128Y0011495D01*
X0177992Y0011495D01*
X0176925Y0012562D01*
X0177992Y0014698D02*
X0181195Y0014698D01*
X0181195Y0016833D02*
X0180128Y0017900D01*
X0177992Y0017900D01*
X0176925Y0016833D01*
X0176925Y0015765D01*
X0177992Y0014698D01*
M02*
