G75*
%MOIN*%
%OFA0B0*%
%FSLAX25Y25*%
%IPPOS*%
%LPD*%
%AMOC8*
5,1,8,0,0,1.08239X$1,22.5*
%
%ADD10C,0.05600*%
%ADD11OC8,0.05600*%
%ADD12C,0.06337*%
%ADD13C,0.21000*%
%ADD14R,0.20000X0.09000*%
%ADD15OC8,0.04362*%
%ADD16C,0.01000*%
%ADD17C,0.02400*%
D10*
X0192256Y0043700D02*
X0192256Y0049300D01*
X0192256Y0073700D02*
X0192256Y0079300D01*
D11*
X0202256Y0111500D03*
X0202256Y0121500D03*
D12*
X0168506Y0038419D02*
X0168506Y0032081D01*
X0158506Y0032081D02*
X0158506Y0038419D01*
D13*
X0198506Y0017750D03*
X0054756Y0017750D03*
X0054756Y0175250D03*
X0198506Y0175250D03*
D14*
X0048606Y0148900D03*
X0048606Y0114100D03*
X0048606Y0078900D03*
X0048606Y0044100D03*
D15*
X0049756Y0035250D03*
X0043506Y0035250D03*
X0057256Y0035250D03*
X0063506Y0035250D03*
X0063506Y0041500D03*
X0063506Y0046500D03*
X0062256Y0052750D03*
X0072256Y0052750D03*
X0081006Y0045250D03*
X0082256Y0052750D03*
X0083506Y0035250D03*
X0072256Y0035250D03*
X0094756Y0035250D03*
X0108506Y0035250D03*
X0122256Y0035250D03*
X0129756Y0044000D03*
X0117256Y0051500D03*
X0111006Y0052750D03*
X0106006Y0055250D03*
X0111006Y0059000D03*
X0106006Y0065250D03*
X0111006Y0071500D03*
X0107256Y0077750D03*
X0104756Y0095250D03*
X0104756Y0101500D03*
X0113506Y0097750D03*
X0123506Y0097750D03*
X0131006Y0096500D03*
X0134756Y0101500D03*
X0143506Y0097750D03*
X0154756Y0089000D03*
X0162256Y0089000D03*
X0162256Y0095250D03*
X0153506Y0079000D03*
X0139756Y0079000D03*
X0129756Y0079000D03*
X0139756Y0060250D03*
X0153506Y0060250D03*
X0158506Y0052750D03*
X0166006Y0052750D03*
X0172256Y0060250D03*
X0177256Y0050250D03*
X0191006Y0035250D03*
X0178506Y0027750D03*
X0182256Y0006500D03*
X0167256Y0006500D03*
X0154756Y0007750D03*
X0139756Y0007750D03*
X0123506Y0007750D03*
X0109756Y0007750D03*
X0094756Y0007750D03*
X0082256Y0007750D03*
X0069756Y0007750D03*
X0074756Y0070250D03*
X0086006Y0070250D03*
X0086006Y0077750D03*
X0081006Y0084000D03*
X0081006Y0089000D03*
X0086006Y0095250D03*
X0086006Y0102750D03*
X0082256Y0109000D03*
X0082256Y0115250D03*
X0089756Y0117750D03*
X0079756Y0129000D03*
X0064756Y0125250D03*
X0063506Y0116500D03*
X0063506Y0110250D03*
X0058506Y0105250D03*
X0049756Y0105250D03*
X0043506Y0105250D03*
X0043506Y0087750D03*
X0049756Y0087750D03*
X0058506Y0087750D03*
X0064756Y0087750D03*
X0064756Y0081500D03*
X0064756Y0076500D03*
X0062256Y0070250D03*
X0096006Y0095250D03*
X0109756Y0117750D03*
X0102256Y0120250D03*
X0112256Y0125250D03*
X0108506Y0131500D03*
X0129756Y0130250D03*
X0139756Y0139000D03*
X0147256Y0140250D03*
X0154756Y0145250D03*
X0154756Y0150250D03*
X0161006Y0149000D03*
X0162256Y0154000D03*
X0171006Y0157750D03*
X0158506Y0141500D03*
X0157256Y0135250D03*
X0151006Y0127750D03*
X0151006Y0117750D03*
X0144756Y0117750D03*
X0129756Y0117750D03*
X0147256Y0155250D03*
X0134756Y0156500D03*
X0122256Y0159000D03*
X0113506Y0159000D03*
X0106006Y0159000D03*
X0081006Y0157750D03*
X0066006Y0157750D03*
X0057256Y0157750D03*
X0049756Y0157750D03*
X0043506Y0157750D03*
X0071006Y0185250D03*
X0083506Y0185250D03*
X0096006Y0185250D03*
X0109756Y0185250D03*
X0122256Y0185250D03*
X0136006Y0185250D03*
X0149756Y0185250D03*
X0164756Y0185250D03*
X0179756Y0185250D03*
X0207256Y0159000D03*
X0207256Y0147750D03*
X0198506Y0139000D03*
X0192256Y0131500D03*
X0208506Y0136500D03*
X0208506Y0125250D03*
X0192256Y0106500D03*
X0182256Y0101500D03*
X0182256Y0090250D03*
X0182256Y0077750D03*
X0172256Y0071500D03*
X0199756Y0060250D03*
X0208506Y0062750D03*
X0208506Y0049000D03*
X0208506Y0036500D03*
X0209756Y0076500D03*
X0202256Y0076500D03*
X0209756Y0087750D03*
X0148506Y0044000D03*
X0148506Y0026500D03*
X0191006Y0151500D03*
D16*
X0041406Y0038100D02*
X0041406Y0004400D01*
X0211778Y0004400D01*
X0211778Y0188551D01*
X0041406Y0188551D01*
X0041406Y0154900D01*
X0048106Y0154900D01*
X0048106Y0149400D01*
X0049106Y0149400D01*
X0049106Y0154900D01*
X0058804Y0154900D01*
X0059185Y0154798D01*
X0059527Y0154600D01*
X0059807Y0154321D01*
X0060004Y0153979D01*
X0060106Y0153597D01*
X0060106Y0149400D01*
X0049106Y0149400D01*
X0049106Y0148400D01*
X0049106Y0142900D01*
X0058804Y0142900D01*
X0059185Y0143002D01*
X0059527Y0143200D01*
X0059807Y0143479D01*
X0060004Y0143821D01*
X0060106Y0144203D01*
X0060106Y0148400D01*
X0049106Y0148400D01*
X0048106Y0148400D01*
X0048106Y0142900D01*
X0041406Y0142900D01*
X0041406Y0120100D01*
X0048106Y0120100D01*
X0048106Y0114600D01*
X0049106Y0114600D01*
X0049106Y0120100D01*
X0058804Y0120100D01*
X0059185Y0119998D01*
X0059527Y0119800D01*
X0059807Y0119521D01*
X0060004Y0119179D01*
X0060106Y0118797D01*
X0060106Y0114600D01*
X0049106Y0114600D01*
X0049106Y0113600D01*
X0049106Y0108100D01*
X0058804Y0108100D01*
X0059185Y0108202D01*
X0059527Y0108400D01*
X0059807Y0108679D01*
X0060004Y0109021D01*
X0060106Y0109403D01*
X0060106Y0113600D01*
X0049106Y0113600D01*
X0048106Y0113600D01*
X0048106Y0108100D01*
X0041406Y0108100D01*
X0041406Y0084900D01*
X0048106Y0084900D01*
X0048106Y0079400D01*
X0049106Y0079400D01*
X0049106Y0084900D01*
X0058804Y0084900D01*
X0059185Y0084798D01*
X0059527Y0084600D01*
X0059807Y0084321D01*
X0060004Y0083979D01*
X0060106Y0083597D01*
X0060106Y0079400D01*
X0049106Y0079400D01*
X0049106Y0078400D01*
X0049106Y0072900D01*
X0058804Y0072900D01*
X0059185Y0073002D01*
X0059527Y0073200D01*
X0059807Y0073479D01*
X0060004Y0073821D01*
X0060106Y0074203D01*
X0060106Y0078400D01*
X0049106Y0078400D01*
X0048106Y0078400D01*
X0048106Y0072900D01*
X0041406Y0072900D01*
X0041406Y0050100D01*
X0048106Y0050100D01*
X0048106Y0044600D01*
X0049106Y0044600D01*
X0049106Y0050100D01*
X0058804Y0050100D01*
X0059185Y0049998D01*
X0059527Y0049800D01*
X0059807Y0049521D01*
X0060004Y0049179D01*
X0060106Y0048797D01*
X0060106Y0044600D01*
X0049106Y0044600D01*
X0049106Y0043600D01*
X0049106Y0038100D01*
X0058804Y0038100D01*
X0059185Y0038202D01*
X0059527Y0038400D01*
X0059807Y0038679D01*
X0060004Y0039021D01*
X0060106Y0039403D01*
X0060106Y0043600D01*
X0049106Y0043600D01*
X0048106Y0043600D01*
X0048106Y0038100D01*
X0041406Y0038100D01*
X0041406Y0037696D02*
X0153838Y0037696D01*
X0153838Y0036698D02*
X0041406Y0036698D01*
X0041406Y0035699D02*
X0158022Y0035699D01*
X0158022Y0035734D02*
X0158022Y0034766D01*
X0153838Y0034766D01*
X0153838Y0031714D01*
X0153953Y0030988D01*
X0154180Y0030289D01*
X0154513Y0029635D01*
X0154945Y0029040D01*
X0155465Y0028521D01*
X0156059Y0028089D01*
X0156714Y0027755D01*
X0157413Y0027528D01*
X0158022Y0027431D01*
X0158022Y0034766D01*
X0158991Y0034766D01*
X0158991Y0027431D01*
X0159600Y0027528D01*
X0160298Y0027755D01*
X0160953Y0028089D01*
X0161548Y0028521D01*
X0162067Y0029040D01*
X0162499Y0029635D01*
X0162749Y0030124D01*
X0163362Y0028644D01*
X0165069Y0026937D01*
X0167299Y0026013D01*
X0169713Y0026013D01*
X0171944Y0026937D01*
X0173651Y0028644D01*
X0174575Y0030874D01*
X0174575Y0039626D01*
X0173651Y0041856D01*
X0171944Y0043563D01*
X0169713Y0044487D01*
X0167299Y0044487D01*
X0165069Y0043563D01*
X0163362Y0041856D01*
X0162749Y0040376D01*
X0162499Y0040865D01*
X0162067Y0041460D01*
X0161548Y0041979D01*
X0160953Y0042411D01*
X0160298Y0042745D01*
X0159600Y0042972D01*
X0158991Y0043068D01*
X0158991Y0035734D01*
X0158022Y0035734D01*
X0153838Y0035734D01*
X0153838Y0038786D01*
X0153953Y0039512D01*
X0154180Y0040211D01*
X0154513Y0040865D01*
X0154945Y0041460D01*
X0155465Y0041979D01*
X0156059Y0042411D01*
X0156714Y0042745D01*
X0157413Y0042972D01*
X0158022Y0043068D01*
X0158022Y0035734D01*
X0158022Y0036698D02*
X0158991Y0036698D01*
X0158991Y0037696D02*
X0158022Y0037696D01*
X0158022Y0038695D02*
X0158991Y0038695D01*
X0158991Y0039693D02*
X0158022Y0039693D01*
X0158022Y0040692D02*
X0158991Y0040692D01*
X0158991Y0041690D02*
X0158022Y0041690D01*
X0158022Y0042689D02*
X0158991Y0042689D01*
X0160408Y0042689D02*
X0164195Y0042689D01*
X0163293Y0041690D02*
X0161837Y0041690D01*
X0162588Y0040692D02*
X0162879Y0040692D01*
X0165369Y0043687D02*
X0049106Y0043687D01*
X0049106Y0042689D02*
X0048106Y0042689D01*
X0048106Y0041690D02*
X0049106Y0041690D01*
X0049106Y0040692D02*
X0048106Y0040692D01*
X0048106Y0039693D02*
X0049106Y0039693D01*
X0049106Y0038695D02*
X0048106Y0038695D01*
X0048106Y0044686D02*
X0049106Y0044686D01*
X0049106Y0045684D02*
X0048106Y0045684D01*
X0048106Y0046683D02*
X0049106Y0046683D01*
X0049106Y0047681D02*
X0048106Y0047681D01*
X0048106Y0048680D02*
X0049106Y0048680D01*
X0049106Y0049678D02*
X0048106Y0049678D01*
X0041406Y0050677D02*
X0186657Y0050677D01*
X0186556Y0050434D02*
X0186556Y0042566D01*
X0187424Y0040471D01*
X0189027Y0038868D01*
X0191122Y0038000D01*
X0193390Y0038000D01*
X0195485Y0038868D01*
X0197089Y0040471D01*
X0197956Y0042566D01*
X0197956Y0050434D01*
X0197089Y0052529D01*
X0195485Y0054132D01*
X0193390Y0055000D01*
X0191122Y0055000D01*
X0189027Y0054132D01*
X0187424Y0052529D01*
X0186556Y0050434D01*
X0186556Y0049678D02*
X0059649Y0049678D01*
X0060106Y0048680D02*
X0186556Y0048680D01*
X0186556Y0047681D02*
X0060106Y0047681D01*
X0060106Y0046683D02*
X0186556Y0046683D01*
X0186556Y0045684D02*
X0060106Y0045684D01*
X0060106Y0044686D02*
X0186556Y0044686D01*
X0186556Y0043687D02*
X0171644Y0043687D01*
X0172818Y0042689D02*
X0186556Y0042689D01*
X0186919Y0041690D02*
X0173720Y0041690D01*
X0174133Y0040692D02*
X0187333Y0040692D01*
X0188202Y0039693D02*
X0174547Y0039693D01*
X0174575Y0038695D02*
X0189445Y0038695D01*
X0195068Y0038695D02*
X0211778Y0038695D01*
X0211778Y0039693D02*
X0196311Y0039693D01*
X0197180Y0040692D02*
X0211778Y0040692D01*
X0211778Y0041690D02*
X0197594Y0041690D01*
X0197956Y0042689D02*
X0211778Y0042689D01*
X0211778Y0043687D02*
X0197956Y0043687D01*
X0197956Y0044686D02*
X0211778Y0044686D01*
X0211778Y0045684D02*
X0197956Y0045684D01*
X0197956Y0046683D02*
X0211778Y0046683D01*
X0211778Y0047681D02*
X0197956Y0047681D01*
X0197956Y0048680D02*
X0211778Y0048680D01*
X0211778Y0049678D02*
X0197956Y0049678D01*
X0197856Y0050677D02*
X0211778Y0050677D01*
X0211778Y0051675D02*
X0197442Y0051675D01*
X0196943Y0052674D02*
X0211778Y0052674D01*
X0211778Y0053672D02*
X0195945Y0053672D01*
X0194184Y0054671D02*
X0211778Y0054671D01*
X0211778Y0055670D02*
X0041406Y0055670D01*
X0041406Y0056668D02*
X0211778Y0056668D01*
X0211778Y0057667D02*
X0041406Y0057667D01*
X0041406Y0058665D02*
X0211778Y0058665D01*
X0211778Y0059664D02*
X0041406Y0059664D01*
X0041406Y0060662D02*
X0211778Y0060662D01*
X0211778Y0061661D02*
X0041406Y0061661D01*
X0041406Y0062659D02*
X0211778Y0062659D01*
X0211778Y0063658D02*
X0041406Y0063658D01*
X0041406Y0064656D02*
X0211778Y0064656D01*
X0211778Y0065655D02*
X0041406Y0065655D01*
X0041406Y0066653D02*
X0211778Y0066653D01*
X0211778Y0067652D02*
X0041406Y0067652D01*
X0041406Y0068650D02*
X0189553Y0068650D01*
X0189027Y0068868D02*
X0191122Y0068000D01*
X0193390Y0068000D01*
X0195485Y0068868D01*
X0197089Y0070471D01*
X0197956Y0072566D01*
X0197956Y0080434D01*
X0197089Y0082529D01*
X0195485Y0084132D01*
X0193390Y0085000D01*
X0191122Y0085000D01*
X0189027Y0084132D01*
X0187424Y0082529D01*
X0186556Y0080434D01*
X0186556Y0072566D01*
X0187424Y0070471D01*
X0189027Y0068868D01*
X0188247Y0069649D02*
X0041406Y0069649D01*
X0041406Y0070647D02*
X0187351Y0070647D01*
X0186938Y0071646D02*
X0041406Y0071646D01*
X0041406Y0072644D02*
X0186556Y0072644D01*
X0186556Y0073643D02*
X0059901Y0073643D01*
X0060106Y0074641D02*
X0186556Y0074641D01*
X0186556Y0075640D02*
X0060106Y0075640D01*
X0060106Y0076638D02*
X0186556Y0076638D01*
X0186556Y0077637D02*
X0060106Y0077637D01*
X0060106Y0079634D02*
X0186556Y0079634D01*
X0186556Y0078635D02*
X0049106Y0078635D01*
X0049106Y0077637D02*
X0048106Y0077637D01*
X0048106Y0076638D02*
X0049106Y0076638D01*
X0049106Y0075640D02*
X0048106Y0075640D01*
X0048106Y0074641D02*
X0049106Y0074641D01*
X0049106Y0073643D02*
X0048106Y0073643D01*
X0048106Y0079634D02*
X0049106Y0079634D01*
X0049106Y0080632D02*
X0048106Y0080632D01*
X0048106Y0081631D02*
X0049106Y0081631D01*
X0049106Y0082629D02*
X0048106Y0082629D01*
X0048106Y0083628D02*
X0049106Y0083628D01*
X0049106Y0084626D02*
X0048106Y0084626D01*
X0041406Y0085625D02*
X0211778Y0085625D01*
X0211778Y0086623D02*
X0041406Y0086623D01*
X0041406Y0087622D02*
X0211778Y0087622D01*
X0211778Y0088620D02*
X0041406Y0088620D01*
X0041406Y0089619D02*
X0211778Y0089619D01*
X0211778Y0090617D02*
X0041406Y0090617D01*
X0041406Y0091616D02*
X0211778Y0091616D01*
X0211778Y0092614D02*
X0041406Y0092614D01*
X0041406Y0093613D02*
X0140458Y0093613D01*
X0141402Y0092669D02*
X0138425Y0095645D01*
X0138425Y0099855D01*
X0141402Y0102831D01*
X0145611Y0102831D01*
X0146592Y0101850D01*
X0154308Y0101850D01*
X0154406Y0101948D01*
X0154406Y0128566D01*
X0155030Y0130072D01*
X0158780Y0133822D01*
X0159934Y0134976D01*
X0161441Y0135600D01*
X0189171Y0135600D01*
X0190152Y0136581D01*
X0194361Y0136581D01*
X0197337Y0133605D01*
X0197337Y0129395D01*
X0196356Y0128414D01*
X0196356Y0109586D01*
X0196556Y0109386D01*
X0196556Y0113861D01*
X0199895Y0117200D01*
X0204617Y0117200D01*
X0207956Y0113861D01*
X0207956Y0109139D01*
X0204617Y0105800D01*
X0199895Y0105800D01*
X0197337Y0108358D01*
X0197337Y0104395D01*
X0194361Y0101419D01*
X0190152Y0101419D01*
X0187175Y0104395D01*
X0187175Y0108605D01*
X0188156Y0109586D01*
X0188156Y0127400D01*
X0163955Y0127400D01*
X0162606Y0126052D01*
X0162606Y0099434D01*
X0161982Y0097928D01*
X0160829Y0096774D01*
X0158329Y0094274D01*
X0156822Y0093650D01*
X0146592Y0093650D01*
X0145611Y0092669D01*
X0141402Y0092669D01*
X0139459Y0094611D02*
X0041406Y0094611D01*
X0041406Y0095610D02*
X0138461Y0095610D01*
X0138425Y0096608D02*
X0041406Y0096608D01*
X0041406Y0097607D02*
X0138425Y0097607D01*
X0138425Y0098605D02*
X0041406Y0098605D01*
X0041406Y0099604D02*
X0138425Y0099604D01*
X0139173Y0100603D02*
X0041406Y0100603D01*
X0041406Y0101601D02*
X0140172Y0101601D01*
X0141170Y0102600D02*
X0041406Y0102600D01*
X0041406Y0103598D02*
X0154406Y0103598D01*
X0154406Y0102600D02*
X0145842Y0102600D01*
X0154406Y0104597D02*
X0041406Y0104597D01*
X0041406Y0105595D02*
X0154406Y0105595D01*
X0154406Y0106594D02*
X0041406Y0106594D01*
X0041406Y0107592D02*
X0154406Y0107592D01*
X0154406Y0108591D02*
X0059718Y0108591D01*
X0060106Y0109589D02*
X0154406Y0109589D01*
X0154406Y0110588D02*
X0060106Y0110588D01*
X0060106Y0111586D02*
X0154406Y0111586D01*
X0154406Y0112585D02*
X0060106Y0112585D01*
X0060106Y0113583D02*
X0154406Y0113583D01*
X0154406Y0114582D02*
X0049106Y0114582D01*
X0049106Y0115580D02*
X0048106Y0115580D01*
X0048106Y0116579D02*
X0049106Y0116579D01*
X0049106Y0117577D02*
X0048106Y0117577D01*
X0048106Y0118576D02*
X0049106Y0118576D01*
X0049106Y0119574D02*
X0048106Y0119574D01*
X0048106Y0113583D02*
X0049106Y0113583D01*
X0049106Y0112585D02*
X0048106Y0112585D01*
X0048106Y0111586D02*
X0049106Y0111586D01*
X0049106Y0110588D02*
X0048106Y0110588D01*
X0048106Y0109589D02*
X0049106Y0109589D01*
X0049106Y0108591D02*
X0048106Y0108591D01*
X0060106Y0115580D02*
X0154406Y0115580D01*
X0154406Y0116579D02*
X0060106Y0116579D01*
X0060106Y0117577D02*
X0154406Y0117577D01*
X0154406Y0118576D02*
X0060106Y0118576D01*
X0059753Y0119574D02*
X0154406Y0119574D01*
X0154406Y0120573D02*
X0041406Y0120573D01*
X0041406Y0121571D02*
X0154406Y0121571D01*
X0154406Y0122570D02*
X0041406Y0122570D01*
X0041406Y0123568D02*
X0154406Y0123568D01*
X0154406Y0124567D02*
X0041406Y0124567D01*
X0041406Y0125565D02*
X0154406Y0125565D01*
X0154406Y0126564D02*
X0041406Y0126564D01*
X0041406Y0127562D02*
X0154406Y0127562D01*
X0154406Y0128561D02*
X0041406Y0128561D01*
X0041406Y0129559D02*
X0154818Y0129559D01*
X0155516Y0130558D02*
X0041406Y0130558D01*
X0041406Y0131556D02*
X0156514Y0131556D01*
X0157513Y0132555D02*
X0041406Y0132555D01*
X0041406Y0133553D02*
X0158511Y0133553D01*
X0159510Y0134552D02*
X0041406Y0134552D01*
X0041406Y0135550D02*
X0161321Y0135550D01*
X0163118Y0126564D02*
X0188156Y0126564D01*
X0188156Y0125565D02*
X0162606Y0125565D01*
X0162606Y0124567D02*
X0188156Y0124567D01*
X0188156Y0123568D02*
X0162606Y0123568D01*
X0162606Y0122570D02*
X0188156Y0122570D01*
X0188156Y0121571D02*
X0162606Y0121571D01*
X0162606Y0120573D02*
X0188156Y0120573D01*
X0188156Y0119574D02*
X0162606Y0119574D01*
X0162606Y0118576D02*
X0188156Y0118576D01*
X0188156Y0117577D02*
X0162606Y0117577D01*
X0162606Y0116579D02*
X0188156Y0116579D01*
X0188156Y0115580D02*
X0162606Y0115580D01*
X0162606Y0114582D02*
X0188156Y0114582D01*
X0188156Y0113583D02*
X0162606Y0113583D01*
X0162606Y0112585D02*
X0188156Y0112585D01*
X0188156Y0111586D02*
X0162606Y0111586D01*
X0162606Y0110588D02*
X0188156Y0110588D01*
X0188156Y0109589D02*
X0162606Y0109589D01*
X0162606Y0108591D02*
X0187175Y0108591D01*
X0187175Y0107592D02*
X0162606Y0107592D01*
X0162606Y0106594D02*
X0187175Y0106594D01*
X0187175Y0105595D02*
X0162606Y0105595D01*
X0162606Y0104597D02*
X0187175Y0104597D01*
X0187972Y0103598D02*
X0162606Y0103598D01*
X0162606Y0102600D02*
X0188971Y0102600D01*
X0189970Y0101601D02*
X0162606Y0101601D01*
X0162606Y0100603D02*
X0211778Y0100603D01*
X0211778Y0101601D02*
X0194543Y0101601D01*
X0195542Y0102600D02*
X0211778Y0102600D01*
X0211778Y0103598D02*
X0196540Y0103598D01*
X0197337Y0104597D02*
X0211778Y0104597D01*
X0211778Y0105595D02*
X0197337Y0105595D01*
X0197337Y0106594D02*
X0199102Y0106594D01*
X0198103Y0107592D02*
X0197337Y0107592D01*
X0196556Y0109589D02*
X0196356Y0109589D01*
X0196356Y0110588D02*
X0196556Y0110588D01*
X0196556Y0111586D02*
X0196356Y0111586D01*
X0196356Y0112585D02*
X0196556Y0112585D01*
X0196556Y0113583D02*
X0196356Y0113583D01*
X0196356Y0114582D02*
X0197277Y0114582D01*
X0196356Y0115580D02*
X0198275Y0115580D01*
X0199274Y0116579D02*
X0196356Y0116579D01*
X0196356Y0117577D02*
X0200098Y0117577D01*
X0200475Y0117200D02*
X0197956Y0119719D01*
X0197956Y0121200D01*
X0201956Y0121200D01*
X0201956Y0121800D01*
X0197956Y0121800D01*
X0197956Y0123281D01*
X0200475Y0125800D01*
X0201956Y0125800D01*
X0201956Y0121800D01*
X0202556Y0121800D01*
X0202556Y0125800D01*
X0204037Y0125800D01*
X0206556Y0123281D01*
X0206556Y0121800D01*
X0202556Y0121800D01*
X0202556Y0121200D01*
X0202556Y0117200D01*
X0204037Y0117200D01*
X0206556Y0119719D01*
X0206556Y0121200D01*
X0202556Y0121200D01*
X0201956Y0121200D01*
X0201956Y0117200D01*
X0200475Y0117200D01*
X0201956Y0117577D02*
X0202556Y0117577D01*
X0202556Y0118576D02*
X0201956Y0118576D01*
X0201956Y0119574D02*
X0202556Y0119574D01*
X0202556Y0120573D02*
X0201956Y0120573D01*
X0201956Y0121571D02*
X0196356Y0121571D01*
X0196356Y0120573D02*
X0197956Y0120573D01*
X0198101Y0119574D02*
X0196356Y0119574D01*
X0196356Y0118576D02*
X0199099Y0118576D01*
X0202556Y0121571D02*
X0211778Y0121571D01*
X0211778Y0120573D02*
X0206556Y0120573D01*
X0206412Y0119574D02*
X0211778Y0119574D01*
X0211778Y0118576D02*
X0205413Y0118576D01*
X0204415Y0117577D02*
X0211778Y0117577D01*
X0211778Y0116579D02*
X0205239Y0116579D01*
X0206237Y0115580D02*
X0211778Y0115580D01*
X0211778Y0114582D02*
X0207236Y0114582D01*
X0207956Y0113583D02*
X0211778Y0113583D01*
X0211778Y0112585D02*
X0207956Y0112585D01*
X0207956Y0111586D02*
X0211778Y0111586D01*
X0211778Y0110588D02*
X0207956Y0110588D01*
X0207956Y0109589D02*
X0211778Y0109589D01*
X0211778Y0108591D02*
X0207408Y0108591D01*
X0206409Y0107592D02*
X0211778Y0107592D01*
X0211778Y0106594D02*
X0205411Y0106594D01*
X0211778Y0099604D02*
X0162606Y0099604D01*
X0162263Y0098605D02*
X0211778Y0098605D01*
X0211778Y0097607D02*
X0161662Y0097607D01*
X0160663Y0096608D02*
X0211778Y0096608D01*
X0211778Y0095610D02*
X0159665Y0095610D01*
X0158666Y0094611D02*
X0211778Y0094611D01*
X0211778Y0093613D02*
X0146555Y0093613D01*
X0186639Y0080632D02*
X0060106Y0080632D01*
X0060106Y0081631D02*
X0187052Y0081631D01*
X0187525Y0082629D02*
X0060106Y0082629D01*
X0060098Y0083628D02*
X0188523Y0083628D01*
X0190220Y0084626D02*
X0059482Y0084626D01*
X0041406Y0054671D02*
X0190328Y0054671D01*
X0188568Y0053672D02*
X0041406Y0053672D01*
X0041406Y0052674D02*
X0187569Y0052674D01*
X0187071Y0051675D02*
X0041406Y0051675D01*
X0060106Y0042689D02*
X0156604Y0042689D01*
X0155176Y0041690D02*
X0060106Y0041690D01*
X0060106Y0040692D02*
X0154425Y0040692D01*
X0154012Y0039693D02*
X0060106Y0039693D01*
X0059816Y0038695D02*
X0153838Y0038695D01*
X0153838Y0034701D02*
X0041406Y0034701D01*
X0041406Y0033702D02*
X0153838Y0033702D01*
X0153838Y0032704D02*
X0041406Y0032704D01*
X0041406Y0031705D02*
X0153839Y0031705D01*
X0154044Y0030707D02*
X0041406Y0030707D01*
X0041406Y0029708D02*
X0053712Y0029708D01*
X0054082Y0029750D02*
X0052743Y0029599D01*
X0051429Y0029299D01*
X0050157Y0028854D01*
X0048943Y0028269D01*
X0047801Y0027552D01*
X0046748Y0026712D01*
X0045794Y0025759D01*
X0044954Y0024705D01*
X0044237Y0023564D01*
X0043652Y0022349D01*
X0043207Y0021077D01*
X0042907Y0019763D01*
X0042756Y0018424D01*
X0042756Y0018250D01*
X0054256Y0018250D01*
X0054256Y0017250D01*
X0042756Y0017250D01*
X0042756Y0017076D01*
X0042907Y0015737D01*
X0043207Y0014423D01*
X0043652Y0013151D01*
X0044237Y0011936D01*
X0044954Y0010795D01*
X0045794Y0009741D01*
X0046748Y0008788D01*
X0047801Y0007948D01*
X0048943Y0007231D01*
X0050157Y0006646D01*
X0051429Y0006201D01*
X0052743Y0005901D01*
X0054082Y0005750D01*
X0054256Y0005750D01*
X0054256Y0017250D01*
X0055256Y0017250D01*
X0055256Y0005750D01*
X0055430Y0005750D01*
X0056770Y0005901D01*
X0058084Y0006201D01*
X0059356Y0006646D01*
X0060570Y0007231D01*
X0061711Y0007948D01*
X0062765Y0008788D01*
X0063718Y0009741D01*
X0064558Y0010795D01*
X0065276Y0011936D01*
X0065860Y0013151D01*
X0066305Y0014423D01*
X0066605Y0015737D01*
X0066756Y0017076D01*
X0066756Y0017250D01*
X0055256Y0017250D01*
X0055256Y0018250D01*
X0054256Y0018250D01*
X0054256Y0029750D01*
X0054082Y0029750D01*
X0054256Y0029708D02*
X0055256Y0029708D01*
X0055256Y0029750D02*
X0055430Y0029750D01*
X0056770Y0029599D01*
X0058084Y0029299D01*
X0059356Y0028854D01*
X0060570Y0028269D01*
X0061711Y0027552D01*
X0062765Y0026712D01*
X0063718Y0025759D01*
X0064558Y0024705D01*
X0065276Y0023564D01*
X0065860Y0022349D01*
X0066305Y0021077D01*
X0066605Y0019763D01*
X0066756Y0018424D01*
X0066756Y0018250D01*
X0055256Y0018250D01*
X0055256Y0029750D01*
X0055801Y0029708D02*
X0154476Y0029708D01*
X0155276Y0028710D02*
X0059655Y0028710D01*
X0061458Y0027711D02*
X0156849Y0027711D01*
X0158022Y0027711D02*
X0158991Y0027711D01*
X0158991Y0028710D02*
X0158022Y0028710D01*
X0158022Y0029708D02*
X0158991Y0029708D01*
X0158991Y0030707D02*
X0158022Y0030707D01*
X0158022Y0031705D02*
X0158991Y0031705D01*
X0158991Y0032704D02*
X0158022Y0032704D01*
X0158022Y0033702D02*
X0158991Y0033702D01*
X0158991Y0034701D02*
X0158022Y0034701D01*
X0162537Y0029708D02*
X0162921Y0029708D01*
X0163334Y0028710D02*
X0161737Y0028710D01*
X0160163Y0027711D02*
X0164294Y0027711D01*
X0165610Y0026713D02*
X0062764Y0026713D01*
X0063754Y0025714D02*
X0189509Y0025714D01*
X0189544Y0025759D02*
X0188704Y0024705D01*
X0187987Y0023564D01*
X0187402Y0022349D01*
X0186957Y0021077D01*
X0186657Y0019763D01*
X0186506Y0018424D01*
X0186506Y0018250D01*
X0198006Y0018250D01*
X0198006Y0017250D01*
X0186506Y0017250D01*
X0186506Y0017076D01*
X0186657Y0015737D01*
X0186957Y0014423D01*
X0187402Y0013151D01*
X0187987Y0011936D01*
X0188704Y0010795D01*
X0189544Y0009741D01*
X0190498Y0008788D01*
X0191551Y0007948D01*
X0192693Y0007231D01*
X0193907Y0006646D01*
X0195179Y0006201D01*
X0196493Y0005901D01*
X0197832Y0005750D01*
X0198006Y0005750D01*
X0198006Y0017250D01*
X0199006Y0017250D01*
X0199006Y0005750D01*
X0199180Y0005750D01*
X0200520Y0005901D01*
X0201834Y0006201D01*
X0203106Y0006646D01*
X0204320Y0007231D01*
X0205461Y0007948D01*
X0206515Y0008788D01*
X0207468Y0009741D01*
X0208308Y0010795D01*
X0209026Y0011936D01*
X0209610Y0013151D01*
X0210055Y0014423D01*
X0210355Y0015737D01*
X0210506Y0017076D01*
X0210506Y0017250D01*
X0199006Y0017250D01*
X0199006Y0018250D01*
X0198006Y0018250D01*
X0198006Y0029750D01*
X0197832Y0029750D01*
X0196493Y0029599D01*
X0195179Y0029299D01*
X0193907Y0028854D01*
X0192693Y0028269D01*
X0191551Y0027552D01*
X0190498Y0026712D01*
X0189544Y0025759D01*
X0188713Y0024716D02*
X0064550Y0024716D01*
X0065179Y0023717D02*
X0188083Y0023717D01*
X0187580Y0022719D02*
X0065683Y0022719D01*
X0066081Y0021720D02*
X0187182Y0021720D01*
X0186876Y0020722D02*
X0066387Y0020722D01*
X0066610Y0019723D02*
X0186653Y0019723D01*
X0186540Y0018725D02*
X0066722Y0018725D01*
X0066717Y0016728D02*
X0186546Y0016728D01*
X0186659Y0015729D02*
X0066604Y0015729D01*
X0066376Y0014731D02*
X0186887Y0014731D01*
X0187199Y0013732D02*
X0066064Y0013732D01*
X0065659Y0012734D02*
X0187603Y0012734D01*
X0188113Y0011735D02*
X0065149Y0011735D01*
X0064512Y0010737D02*
X0188751Y0010737D01*
X0189548Y0009738D02*
X0063715Y0009738D01*
X0062704Y0008739D02*
X0190559Y0008739D01*
X0191881Y0007741D02*
X0061382Y0007741D01*
X0059556Y0006742D02*
X0193706Y0006742D01*
X0198006Y0006742D02*
X0199006Y0006742D01*
X0199006Y0007741D02*
X0198006Y0007741D01*
X0198006Y0008739D02*
X0199006Y0008739D01*
X0199006Y0009738D02*
X0198006Y0009738D01*
X0198006Y0010737D02*
X0199006Y0010737D01*
X0199006Y0011735D02*
X0198006Y0011735D01*
X0198006Y0012734D02*
X0199006Y0012734D01*
X0199006Y0013732D02*
X0198006Y0013732D01*
X0198006Y0014731D02*
X0199006Y0014731D01*
X0199006Y0015729D02*
X0198006Y0015729D01*
X0198006Y0016728D02*
X0199006Y0016728D01*
X0199006Y0017726D02*
X0211778Y0017726D01*
X0211778Y0016728D02*
X0210467Y0016728D01*
X0210354Y0015729D02*
X0211778Y0015729D01*
X0211778Y0014731D02*
X0210126Y0014731D01*
X0209814Y0013732D02*
X0211778Y0013732D01*
X0211778Y0012734D02*
X0209409Y0012734D01*
X0208899Y0011735D02*
X0211778Y0011735D01*
X0211778Y0010737D02*
X0208262Y0010737D01*
X0207465Y0009738D02*
X0211778Y0009738D01*
X0211778Y0008739D02*
X0206454Y0008739D01*
X0205132Y0007741D02*
X0211778Y0007741D01*
X0211778Y0006742D02*
X0203306Y0006742D01*
X0211778Y0005744D02*
X0041406Y0005744D01*
X0041406Y0006742D02*
X0049956Y0006742D01*
X0048131Y0007741D02*
X0041406Y0007741D01*
X0041406Y0008739D02*
X0046809Y0008739D01*
X0045798Y0009738D02*
X0041406Y0009738D01*
X0041406Y0010737D02*
X0045001Y0010737D01*
X0044363Y0011735D02*
X0041406Y0011735D01*
X0041406Y0012734D02*
X0043853Y0012734D01*
X0043449Y0013732D02*
X0041406Y0013732D01*
X0041406Y0014731D02*
X0043137Y0014731D01*
X0042909Y0015729D02*
X0041406Y0015729D01*
X0041406Y0016728D02*
X0042796Y0016728D01*
X0041406Y0017726D02*
X0054256Y0017726D01*
X0054256Y0016728D02*
X0055256Y0016728D01*
X0055256Y0017726D02*
X0198006Y0017726D01*
X0198006Y0018725D02*
X0199006Y0018725D01*
X0199006Y0018250D02*
X0199006Y0029750D01*
X0199180Y0029750D01*
X0200520Y0029599D01*
X0201834Y0029299D01*
X0203106Y0028854D01*
X0204320Y0028269D01*
X0205461Y0027552D01*
X0206515Y0026712D01*
X0207468Y0025759D01*
X0208308Y0024705D01*
X0209026Y0023564D01*
X0209610Y0022349D01*
X0210055Y0021077D01*
X0210355Y0019763D01*
X0210506Y0018424D01*
X0210506Y0018250D01*
X0199006Y0018250D01*
X0199006Y0019723D02*
X0198006Y0019723D01*
X0198006Y0020722D02*
X0199006Y0020722D01*
X0199006Y0021720D02*
X0198006Y0021720D01*
X0198006Y0022719D02*
X0199006Y0022719D01*
X0199006Y0023717D02*
X0198006Y0023717D01*
X0198006Y0024716D02*
X0199006Y0024716D01*
X0199006Y0025714D02*
X0198006Y0025714D01*
X0198006Y0026713D02*
X0199006Y0026713D01*
X0199006Y0027711D02*
X0198006Y0027711D01*
X0198006Y0028710D02*
X0199006Y0028710D01*
X0199006Y0029708D02*
X0198006Y0029708D01*
X0197462Y0029708D02*
X0174092Y0029708D01*
X0173678Y0028710D02*
X0193607Y0028710D01*
X0191804Y0027711D02*
X0172718Y0027711D01*
X0171403Y0026713D02*
X0190499Y0026713D01*
X0199551Y0029708D02*
X0211778Y0029708D01*
X0211778Y0028710D02*
X0203405Y0028710D01*
X0205208Y0027711D02*
X0211778Y0027711D01*
X0211778Y0026713D02*
X0206514Y0026713D01*
X0207504Y0025714D02*
X0211778Y0025714D01*
X0211778Y0024716D02*
X0208300Y0024716D01*
X0208929Y0023717D02*
X0211778Y0023717D01*
X0211778Y0022719D02*
X0209433Y0022719D01*
X0209831Y0021720D02*
X0211778Y0021720D01*
X0211778Y0020722D02*
X0210137Y0020722D01*
X0210360Y0019723D02*
X0211778Y0019723D01*
X0211778Y0018725D02*
X0210472Y0018725D01*
X0211778Y0030707D02*
X0174505Y0030707D01*
X0174575Y0031705D02*
X0211778Y0031705D01*
X0211778Y0032704D02*
X0174575Y0032704D01*
X0174575Y0033702D02*
X0211778Y0033702D01*
X0211778Y0034701D02*
X0174575Y0034701D01*
X0174575Y0035699D02*
X0211778Y0035699D01*
X0211778Y0036698D02*
X0174575Y0036698D01*
X0174575Y0037696D02*
X0211778Y0037696D01*
X0211778Y0068650D02*
X0194960Y0068650D01*
X0196266Y0069649D02*
X0211778Y0069649D01*
X0211778Y0070647D02*
X0197161Y0070647D01*
X0197575Y0071646D02*
X0211778Y0071646D01*
X0211778Y0072644D02*
X0197956Y0072644D01*
X0197956Y0073643D02*
X0211778Y0073643D01*
X0211778Y0074641D02*
X0197956Y0074641D01*
X0197956Y0075640D02*
X0211778Y0075640D01*
X0211778Y0076638D02*
X0197956Y0076638D01*
X0197956Y0077637D02*
X0211778Y0077637D01*
X0211778Y0078635D02*
X0197956Y0078635D01*
X0197956Y0079634D02*
X0211778Y0079634D01*
X0211778Y0080632D02*
X0197874Y0080632D01*
X0197460Y0081631D02*
X0211778Y0081631D01*
X0211778Y0082629D02*
X0196988Y0082629D01*
X0195989Y0083628D02*
X0211778Y0083628D01*
X0211778Y0084626D02*
X0194292Y0084626D01*
X0196356Y0122570D02*
X0197956Y0122570D01*
X0198243Y0123568D02*
X0196356Y0123568D01*
X0196356Y0124567D02*
X0199242Y0124567D01*
X0200241Y0125565D02*
X0196356Y0125565D01*
X0196356Y0126564D02*
X0211778Y0126564D01*
X0211778Y0127562D02*
X0196356Y0127562D01*
X0196503Y0128561D02*
X0211778Y0128561D01*
X0211778Y0129559D02*
X0197337Y0129559D01*
X0197337Y0130558D02*
X0211778Y0130558D01*
X0211778Y0131556D02*
X0197337Y0131556D01*
X0197337Y0132555D02*
X0211778Y0132555D01*
X0211778Y0133553D02*
X0197337Y0133553D01*
X0196390Y0134552D02*
X0211778Y0134552D01*
X0211778Y0135550D02*
X0195392Y0135550D01*
X0194393Y0136549D02*
X0211778Y0136549D01*
X0211778Y0137547D02*
X0041406Y0137547D01*
X0041406Y0136549D02*
X0190119Y0136549D01*
X0201956Y0125565D02*
X0202556Y0125565D01*
X0202556Y0124567D02*
X0201956Y0124567D01*
X0201956Y0123568D02*
X0202556Y0123568D01*
X0202556Y0122570D02*
X0201956Y0122570D01*
X0205271Y0124567D02*
X0211778Y0124567D01*
X0211778Y0125565D02*
X0204272Y0125565D01*
X0206269Y0123568D02*
X0211778Y0123568D01*
X0211778Y0122570D02*
X0206556Y0122570D01*
X0211778Y0138546D02*
X0041406Y0138546D01*
X0041406Y0139544D02*
X0211778Y0139544D01*
X0211778Y0140543D02*
X0041406Y0140543D01*
X0041406Y0141541D02*
X0211778Y0141541D01*
X0211778Y0142540D02*
X0041406Y0142540D01*
X0048106Y0143539D02*
X0049106Y0143539D01*
X0049106Y0144537D02*
X0048106Y0144537D01*
X0048106Y0145536D02*
X0049106Y0145536D01*
X0049106Y0146534D02*
X0048106Y0146534D01*
X0048106Y0147533D02*
X0049106Y0147533D01*
X0049106Y0148531D02*
X0211778Y0148531D01*
X0211778Y0147533D02*
X0060106Y0147533D01*
X0060106Y0146534D02*
X0211778Y0146534D01*
X0211778Y0145536D02*
X0060106Y0145536D01*
X0060106Y0144537D02*
X0211778Y0144537D01*
X0211778Y0143539D02*
X0059841Y0143539D01*
X0060106Y0149530D02*
X0211778Y0149530D01*
X0211778Y0150528D02*
X0060106Y0150528D01*
X0060106Y0151527D02*
X0211778Y0151527D01*
X0211778Y0152525D02*
X0060106Y0152525D01*
X0060106Y0153524D02*
X0211778Y0153524D01*
X0211778Y0154522D02*
X0059605Y0154522D01*
X0057242Y0163509D02*
X0196021Y0163509D01*
X0196493Y0163401D02*
X0197832Y0163250D01*
X0198006Y0163250D01*
X0198006Y0174750D01*
X0186506Y0174750D01*
X0186506Y0174576D01*
X0186657Y0173237D01*
X0186957Y0171923D01*
X0187402Y0170651D01*
X0187987Y0169436D01*
X0188704Y0168295D01*
X0189544Y0167241D01*
X0190498Y0166288D01*
X0191551Y0165448D01*
X0192693Y0164731D01*
X0193907Y0164146D01*
X0195179Y0163701D01*
X0196493Y0163401D01*
X0198006Y0163509D02*
X0199006Y0163509D01*
X0199006Y0163250D02*
X0199180Y0163250D01*
X0200520Y0163401D01*
X0201834Y0163701D01*
X0203106Y0164146D01*
X0204320Y0164731D01*
X0205461Y0165448D01*
X0206515Y0166288D01*
X0207468Y0167241D01*
X0208308Y0168295D01*
X0209026Y0169436D01*
X0209610Y0170651D01*
X0210055Y0171923D01*
X0210355Y0173237D01*
X0210506Y0174576D01*
X0210506Y0174750D01*
X0199006Y0174750D01*
X0199006Y0163250D01*
X0199006Y0164507D02*
X0198006Y0164507D01*
X0198006Y0165506D02*
X0199006Y0165506D01*
X0199006Y0166504D02*
X0198006Y0166504D01*
X0198006Y0167503D02*
X0199006Y0167503D01*
X0199006Y0168501D02*
X0198006Y0168501D01*
X0198006Y0169500D02*
X0199006Y0169500D01*
X0199006Y0170498D02*
X0198006Y0170498D01*
X0198006Y0171497D02*
X0199006Y0171497D01*
X0199006Y0172495D02*
X0198006Y0172495D01*
X0198006Y0173494D02*
X0199006Y0173494D01*
X0199006Y0174492D02*
X0198006Y0174492D01*
X0198006Y0174750D02*
X0199006Y0174750D01*
X0199006Y0175750D01*
X0198006Y0175750D01*
X0198006Y0174750D01*
X0198006Y0175491D02*
X0055256Y0175491D01*
X0055256Y0175750D02*
X0055256Y0174750D01*
X0055256Y0163250D01*
X0055430Y0163250D01*
X0056770Y0163401D01*
X0058084Y0163701D01*
X0059356Y0164146D01*
X0060570Y0164731D01*
X0061711Y0165448D01*
X0062765Y0166288D01*
X0063718Y0167241D01*
X0064558Y0168295D01*
X0065276Y0169436D01*
X0065860Y0170651D01*
X0066305Y0171923D01*
X0066605Y0173237D01*
X0066756Y0174576D01*
X0066756Y0174750D01*
X0055256Y0174750D01*
X0054256Y0174750D01*
X0042756Y0174750D01*
X0042756Y0174576D01*
X0042907Y0173237D01*
X0043207Y0171923D01*
X0043652Y0170651D01*
X0044237Y0169436D01*
X0044954Y0168295D01*
X0045794Y0167241D01*
X0046748Y0166288D01*
X0047801Y0165448D01*
X0048943Y0164731D01*
X0050157Y0164146D01*
X0051429Y0163701D01*
X0052743Y0163401D01*
X0054082Y0163250D01*
X0054256Y0163250D01*
X0054256Y0174750D01*
X0054256Y0175750D01*
X0042756Y0175750D01*
X0042756Y0175924D01*
X0042907Y0177263D01*
X0043207Y0178577D01*
X0043652Y0179849D01*
X0044237Y0181064D01*
X0044954Y0182205D01*
X0045794Y0183259D01*
X0046748Y0184212D01*
X0047801Y0185052D01*
X0048943Y0185769D01*
X0050157Y0186354D01*
X0051429Y0186799D01*
X0052743Y0187099D01*
X0054082Y0187250D01*
X0054256Y0187250D01*
X0054256Y0175750D01*
X0055256Y0175750D01*
X0055256Y0187250D01*
X0055430Y0187250D01*
X0056770Y0187099D01*
X0058084Y0186799D01*
X0059356Y0186354D01*
X0060570Y0185769D01*
X0061711Y0185052D01*
X0062765Y0184212D01*
X0063718Y0183259D01*
X0064558Y0182205D01*
X0065276Y0181064D01*
X0065860Y0179849D01*
X0066305Y0178577D01*
X0066605Y0177263D01*
X0066756Y0175924D01*
X0066756Y0175750D01*
X0055256Y0175750D01*
X0055256Y0176489D02*
X0054256Y0176489D01*
X0054256Y0175491D02*
X0041406Y0175491D01*
X0041406Y0176489D02*
X0042820Y0176489D01*
X0042958Y0177488D02*
X0041406Y0177488D01*
X0041406Y0178486D02*
X0043186Y0178486D01*
X0043525Y0179485D02*
X0041406Y0179485D01*
X0041406Y0180483D02*
X0043958Y0180483D01*
X0044500Y0181482D02*
X0041406Y0181482D01*
X0041406Y0182480D02*
X0045174Y0182480D01*
X0046015Y0183479D02*
X0041406Y0183479D01*
X0041406Y0184477D02*
X0047081Y0184477D01*
X0048476Y0185476D02*
X0041406Y0185476D01*
X0041406Y0186474D02*
X0050501Y0186474D01*
X0054256Y0186474D02*
X0055256Y0186474D01*
X0055256Y0185476D02*
X0054256Y0185476D01*
X0054256Y0184477D02*
X0055256Y0184477D01*
X0055256Y0183479D02*
X0054256Y0183479D01*
X0054256Y0182480D02*
X0055256Y0182480D01*
X0055256Y0181482D02*
X0054256Y0181482D01*
X0054256Y0180483D02*
X0055256Y0180483D01*
X0055256Y0179485D02*
X0054256Y0179485D01*
X0054256Y0178486D02*
X0055256Y0178486D01*
X0055256Y0177488D02*
X0054256Y0177488D01*
X0054256Y0174492D02*
X0055256Y0174492D01*
X0055256Y0173494D02*
X0054256Y0173494D01*
X0054256Y0172495D02*
X0055256Y0172495D01*
X0055256Y0171497D02*
X0054256Y0171497D01*
X0054256Y0170498D02*
X0055256Y0170498D01*
X0055256Y0169500D02*
X0054256Y0169500D01*
X0054256Y0168501D02*
X0055256Y0168501D01*
X0055256Y0167503D02*
X0054256Y0167503D01*
X0054256Y0166504D02*
X0055256Y0166504D01*
X0055256Y0165506D02*
X0054256Y0165506D01*
X0054256Y0164507D02*
X0055256Y0164507D01*
X0055256Y0163509D02*
X0054256Y0163509D01*
X0052271Y0163509D02*
X0041406Y0163509D01*
X0041406Y0164507D02*
X0049407Y0164507D01*
X0047729Y0165506D02*
X0041406Y0165506D01*
X0041406Y0166504D02*
X0046531Y0166504D01*
X0045586Y0167503D02*
X0041406Y0167503D01*
X0041406Y0168501D02*
X0044825Y0168501D01*
X0044206Y0169500D02*
X0041406Y0169500D01*
X0041406Y0170498D02*
X0043726Y0170498D01*
X0043356Y0171497D02*
X0041406Y0171497D01*
X0041406Y0172495D02*
X0043076Y0172495D01*
X0042878Y0173494D02*
X0041406Y0173494D01*
X0041406Y0174492D02*
X0042766Y0174492D01*
X0041406Y0162510D02*
X0211778Y0162510D01*
X0211778Y0161512D02*
X0041406Y0161512D01*
X0041406Y0160513D02*
X0211778Y0160513D01*
X0211778Y0159515D02*
X0041406Y0159515D01*
X0041406Y0158516D02*
X0211778Y0158516D01*
X0211778Y0157518D02*
X0041406Y0157518D01*
X0041406Y0156519D02*
X0211778Y0156519D01*
X0211778Y0155521D02*
X0041406Y0155521D01*
X0048106Y0154522D02*
X0049106Y0154522D01*
X0049106Y0153524D02*
X0048106Y0153524D01*
X0048106Y0152525D02*
X0049106Y0152525D01*
X0049106Y0151527D02*
X0048106Y0151527D01*
X0048106Y0150528D02*
X0049106Y0150528D01*
X0049106Y0149530D02*
X0048106Y0149530D01*
X0060106Y0164507D02*
X0193157Y0164507D01*
X0191479Y0165506D02*
X0061784Y0165506D01*
X0062981Y0166504D02*
X0190281Y0166504D01*
X0189336Y0167503D02*
X0063927Y0167503D01*
X0064688Y0168501D02*
X0188575Y0168501D01*
X0187956Y0169500D02*
X0065306Y0169500D01*
X0065787Y0170498D02*
X0187476Y0170498D01*
X0187106Y0171497D02*
X0066156Y0171497D01*
X0066436Y0172495D02*
X0186826Y0172495D01*
X0186628Y0173494D02*
X0066634Y0173494D01*
X0066747Y0174492D02*
X0186516Y0174492D01*
X0186506Y0175750D02*
X0198006Y0175750D01*
X0198006Y0187250D01*
X0197832Y0187250D01*
X0196493Y0187099D01*
X0195179Y0186799D01*
X0193907Y0186354D01*
X0192693Y0185769D01*
X0191551Y0185052D01*
X0190498Y0184212D01*
X0189544Y0183259D01*
X0188704Y0182205D01*
X0187987Y0181064D01*
X0187402Y0179849D01*
X0186957Y0178577D01*
X0186657Y0177263D01*
X0186506Y0175924D01*
X0186506Y0175750D01*
X0186570Y0176489D02*
X0066693Y0176489D01*
X0066554Y0177488D02*
X0186708Y0177488D01*
X0186936Y0178486D02*
X0066326Y0178486D01*
X0065988Y0179485D02*
X0187275Y0179485D01*
X0187708Y0180483D02*
X0065555Y0180483D01*
X0065013Y0181482D02*
X0188250Y0181482D01*
X0188924Y0182480D02*
X0064339Y0182480D01*
X0063498Y0183479D02*
X0189765Y0183479D01*
X0190831Y0184477D02*
X0062432Y0184477D01*
X0061037Y0185476D02*
X0192226Y0185476D01*
X0194251Y0186474D02*
X0059011Y0186474D01*
X0041406Y0187473D02*
X0211778Y0187473D01*
X0211778Y0186474D02*
X0202761Y0186474D01*
X0203106Y0186354D02*
X0201834Y0186799D01*
X0200520Y0187099D01*
X0199180Y0187250D01*
X0199006Y0187250D01*
X0199006Y0175750D01*
X0210506Y0175750D01*
X0210506Y0175924D01*
X0210355Y0177263D01*
X0210055Y0178577D01*
X0209610Y0179849D01*
X0209026Y0181064D01*
X0208308Y0182205D01*
X0207468Y0183259D01*
X0206515Y0184212D01*
X0205461Y0185052D01*
X0204320Y0185769D01*
X0203106Y0186354D01*
X0204787Y0185476D02*
X0211778Y0185476D01*
X0211778Y0184477D02*
X0206182Y0184477D01*
X0207248Y0183479D02*
X0211778Y0183479D01*
X0211778Y0182480D02*
X0208089Y0182480D01*
X0208763Y0181482D02*
X0211778Y0181482D01*
X0211778Y0180483D02*
X0209305Y0180483D01*
X0209738Y0179485D02*
X0211778Y0179485D01*
X0211778Y0178486D02*
X0210076Y0178486D01*
X0210304Y0177488D02*
X0211778Y0177488D01*
X0211778Y0176489D02*
X0210443Y0176489D01*
X0211778Y0175491D02*
X0199006Y0175491D01*
X0199006Y0176489D02*
X0198006Y0176489D01*
X0198006Y0177488D02*
X0199006Y0177488D01*
X0199006Y0178486D02*
X0198006Y0178486D01*
X0198006Y0179485D02*
X0199006Y0179485D01*
X0199006Y0180483D02*
X0198006Y0180483D01*
X0198006Y0181482D02*
X0199006Y0181482D01*
X0199006Y0182480D02*
X0198006Y0182480D01*
X0198006Y0183479D02*
X0199006Y0183479D01*
X0199006Y0184477D02*
X0198006Y0184477D01*
X0198006Y0185476D02*
X0199006Y0185476D01*
X0199006Y0186474D02*
X0198006Y0186474D01*
X0211778Y0188472D02*
X0041406Y0188472D01*
X0200992Y0163509D02*
X0211778Y0163509D01*
X0211778Y0164507D02*
X0203856Y0164507D01*
X0205534Y0165506D02*
X0211778Y0165506D01*
X0211778Y0166504D02*
X0206731Y0166504D01*
X0207677Y0167503D02*
X0211778Y0167503D01*
X0211778Y0168501D02*
X0208438Y0168501D01*
X0209056Y0169500D02*
X0211778Y0169500D01*
X0211778Y0170498D02*
X0209537Y0170498D01*
X0209906Y0171497D02*
X0211778Y0171497D01*
X0211778Y0172495D02*
X0210186Y0172495D01*
X0210384Y0173494D02*
X0211778Y0173494D01*
X0211778Y0174492D02*
X0210497Y0174492D01*
X0055256Y0028710D02*
X0054256Y0028710D01*
X0054256Y0027711D02*
X0055256Y0027711D01*
X0055256Y0026713D02*
X0054256Y0026713D01*
X0054256Y0025714D02*
X0055256Y0025714D01*
X0055256Y0024716D02*
X0054256Y0024716D01*
X0054256Y0023717D02*
X0055256Y0023717D01*
X0055256Y0022719D02*
X0054256Y0022719D01*
X0054256Y0021720D02*
X0055256Y0021720D01*
X0055256Y0020722D02*
X0054256Y0020722D01*
X0054256Y0019723D02*
X0055256Y0019723D01*
X0055256Y0018725D02*
X0054256Y0018725D01*
X0054256Y0015729D02*
X0055256Y0015729D01*
X0055256Y0014731D02*
X0054256Y0014731D01*
X0054256Y0013732D02*
X0055256Y0013732D01*
X0055256Y0012734D02*
X0054256Y0012734D01*
X0054256Y0011735D02*
X0055256Y0011735D01*
X0055256Y0010737D02*
X0054256Y0010737D01*
X0054256Y0009738D02*
X0055256Y0009738D01*
X0055256Y0008739D02*
X0054256Y0008739D01*
X0054256Y0007741D02*
X0055256Y0007741D01*
X0055256Y0006742D02*
X0054256Y0006742D01*
X0041406Y0004745D02*
X0211778Y0004745D01*
X0049857Y0028710D02*
X0041406Y0028710D01*
X0041406Y0027711D02*
X0048054Y0027711D01*
X0046749Y0026713D02*
X0041406Y0026713D01*
X0041406Y0025714D02*
X0045759Y0025714D01*
X0044963Y0024716D02*
X0041406Y0024716D01*
X0041406Y0023717D02*
X0044333Y0023717D01*
X0043830Y0022719D02*
X0041406Y0022719D01*
X0041406Y0021720D02*
X0043432Y0021720D01*
X0043126Y0020722D02*
X0041406Y0020722D01*
X0041406Y0019723D02*
X0042903Y0019723D01*
X0042790Y0018725D02*
X0041406Y0018725D01*
D17*
X0143506Y0097750D02*
X0156006Y0097750D01*
X0158506Y0100250D01*
X0158506Y0127750D01*
X0162256Y0131500D01*
X0192256Y0131500D01*
X0192256Y0106500D01*
M02*
