%
M48
M72
T01C0.02362
T02C0.03200
T03C0.03937
T04C0.11024
%
T01
X43506Y35250
X49756Y35250
X57256Y35250
X63506Y35250
X63506Y41500
X63506Y46500
X62256Y52750
X72256Y52750
X81006Y45250
X82256Y52750
X83506Y35250
X72256Y35250
X94756Y35250
X108506Y35250
X122256Y35250
X129756Y44000
X117256Y51500
X111006Y52750
X106006Y55250
X111006Y59000
X106006Y65250
X111006Y71500
X107256Y77750
X104756Y95250
X104756Y101500
X113506Y97750
X123506Y97750
X131006Y96500
X134756Y101500
X143506Y97750
X154756Y89000
X162256Y89000
X162256Y95250
X153506Y79000
X139756Y79000
X129756Y79000
X139756Y60250
X153506Y60250
X158506Y52750
X166006Y52750
X172256Y60250
X177256Y50250
X191006Y35250
X178506Y27750
X182256Y6500
X167256Y6500
X154756Y7750
X139756Y7750
X123506Y7750
X109756Y7750
X94756Y7750
X82256Y7750
X69756Y7750
X74756Y70250
X86006Y70250
X86006Y77750
X81006Y84000
X81006Y89000
X86006Y95250
X86006Y102750
X82256Y109000
X82256Y115250
X89756Y117750
X79756Y129000
X64756Y125250
X63506Y116500
X63506Y110250
X58506Y105250
X49756Y105250
X43506Y105250
X43506Y87750
X49756Y87750
X58506Y87750
X64756Y87750
X64756Y81500
X64756Y76500
X62256Y70250
X96006Y95250
X109756Y117750
X102256Y120250
X112256Y125250
X108506Y131500
X129756Y130250
X139756Y139000
X147256Y140250
X154756Y145250
X154756Y150250
X161006Y149000
X162256Y154000
X171006Y157750
X158506Y141500
X157256Y135250
X151006Y127750
X151006Y117750
X144756Y117750
X129756Y117750
X147256Y155250
X134756Y156500
X122256Y159000
X113506Y159000
X106006Y159000
X81006Y157750
X66006Y157750
X57256Y157750
X49756Y157750
X43506Y157750
X71006Y185250
X83506Y185250
X96006Y185250
X109756Y185250
X122256Y185250
X136006Y185250
X149756Y185250
X164756Y185250
X179756Y185250
X207256Y159000
X207256Y147750
X198506Y139000
X192256Y131500
X208506Y136500
X208506Y125250
X192256Y106500
X182256Y101500
X182256Y90250
X182256Y77750
X172256Y71500
X199756Y60250
X208506Y62750
X208506Y49000
X208506Y36500
X209756Y76500
X202256Y76500
X209756Y87750
X148506Y44000
X148506Y26500
X191006Y151500
T02
X202256Y121500
X202256Y111500
X192256Y76500
X192256Y46500
T03
X168506Y35250
X158506Y35250
T04
X198506Y17750
X54756Y17750
X54756Y175250
X198506Y175250
M30
