G75*
%MOIN*%
%OFA0B0*%
%FSLAX25Y25*%
%IPPOS*%
%LPD*%
%AMOC8*
5,1,8,0,0,1.08239X$1,22.5*
%
%ADD10OC8,0.06600*%
%ADD11OC8,0.07000*%
%ADD12R,0.07000X0.07000*%
%ADD13C,0.06400*%
%ADD14C,0.08858*%
%ADD15R,0.20000X0.09000*%
%ADD16OC8,0.04362*%
%ADD17C,0.03200*%
%ADD18C,0.01000*%
%ADD19C,0.02400*%
D10*
X0071250Y0033750D03*
X0081250Y0033750D03*
X0115000Y0015000D03*
X0125000Y0015000D03*
X0135000Y0015000D03*
X0145000Y0015000D03*
X0155000Y0015000D03*
X0165000Y0015000D03*
X0175000Y0015000D03*
X0185000Y0015000D03*
X0205000Y0015000D03*
X0215000Y0015000D03*
X0225000Y0015000D03*
X0235000Y0015000D03*
X0245000Y0015000D03*
X0255000Y0015000D03*
X0107500Y0178750D03*
X0097500Y0178750D03*
X0099000Y0205000D03*
X0089000Y0205000D03*
X0079000Y0205000D03*
X0109000Y0205000D03*
X0119000Y0205000D03*
X0129000Y0205000D03*
X0139000Y0205000D03*
X0149000Y0205000D03*
X0159000Y0205000D03*
X0169000Y0205000D03*
X0185000Y0205000D03*
X0195000Y0205000D03*
X0205000Y0205000D03*
X0215000Y0205000D03*
X0225000Y0205000D03*
X0235000Y0205000D03*
X0245000Y0205000D03*
X0255000Y0205000D03*
D11*
X0265500Y0125000D03*
X0265500Y0115000D03*
X0255500Y0115000D03*
X0255500Y0105000D03*
X0265500Y0105000D03*
D12*
X0255500Y0125000D03*
D13*
X0086250Y0083200D02*
X0086250Y0076800D01*
X0066250Y0076800D02*
X0066250Y0083200D01*
X0073050Y0060000D02*
X0079450Y0060000D01*
X0047250Y0031400D02*
X0040850Y0031400D01*
X0021650Y0031400D02*
X0015250Y0031400D01*
X0015250Y0013600D02*
X0021650Y0013600D01*
X0040850Y0013600D02*
X0047250Y0013600D01*
D14*
X0207500Y0035000D03*
X0217500Y0045000D03*
X0207500Y0055000D03*
X0227500Y0055000D03*
X0227500Y0035000D03*
D15*
X0264900Y0055100D03*
X0264900Y0089900D03*
D16*
X0266250Y0091250D03*
X0261250Y0087500D03*
X0257500Y0091250D03*
X0251250Y0092500D03*
X0247500Y0090000D03*
X0251250Y0087500D03*
X0242500Y0093750D03*
X0235000Y0093750D03*
X0227500Y0093750D03*
X0231250Y0103750D03*
X0240000Y0103750D03*
X0242500Y0112500D03*
X0235000Y0112500D03*
X0227500Y0112500D03*
X0231250Y0121250D03*
X0240000Y0121250D03*
X0242500Y0128750D03*
X0235000Y0128750D03*
X0227500Y0128750D03*
X0223750Y0136250D03*
X0215000Y0136250D03*
X0207500Y0136250D03*
X0200000Y0136250D03*
X0191250Y0136250D03*
X0182500Y0136250D03*
X0173750Y0136250D03*
X0165000Y0136250D03*
X0158750Y0136250D03*
X0151250Y0133750D03*
X0151250Y0126250D03*
X0151250Y0118750D03*
X0151250Y0111250D03*
X0151250Y0103750D03*
X0151250Y0096250D03*
X0151250Y0090000D03*
X0147500Y0085000D03*
X0136250Y0085000D03*
X0131250Y0090000D03*
X0122500Y0088750D03*
X0112500Y0088750D03*
X0103750Y0088750D03*
X0103750Y0096250D03*
X0103750Y0103750D03*
X0103750Y0111250D03*
X0103750Y0118750D03*
X0103750Y0126250D03*
X0103750Y0133750D03*
X0112500Y0133750D03*
X0121250Y0133750D03*
X0128750Y0133750D03*
X0135000Y0133750D03*
X0133750Y0126250D03*
X0133750Y0118750D03*
X0133750Y0111250D03*
X0133750Y0103750D03*
X0133750Y0096250D03*
X0165000Y0096250D03*
X0165000Y0103750D03*
X0165000Y0111250D03*
X0165000Y0118750D03*
X0173750Y0125000D03*
X0182500Y0125000D03*
X0191250Y0125000D03*
X0200000Y0125000D03*
X0207500Y0125000D03*
X0215000Y0125000D03*
X0216250Y0093750D03*
X0208750Y0093750D03*
X0208750Y0088750D03*
X0216250Y0088750D03*
X0200000Y0088750D03*
X0191250Y0088750D03*
X0182500Y0088750D03*
X0173750Y0088750D03*
X0165000Y0088750D03*
X0165000Y0062500D03*
X0165000Y0055000D03*
X0156250Y0046250D03*
X0150000Y0055000D03*
X0150000Y0062500D03*
X0126250Y0052500D03*
X0126250Y0047500D03*
X0120000Y0047500D03*
X0120000Y0052500D03*
X0166250Y0041250D03*
X0173750Y0041250D03*
X0173750Y0036250D03*
X0173750Y0031250D03*
X0173750Y0026250D03*
X0180000Y0026250D03*
X0180000Y0031250D03*
X0180000Y0036250D03*
X0180000Y0041250D03*
X0166250Y0026250D03*
X0245000Y0046250D03*
X0251250Y0046250D03*
X0257500Y0046250D03*
X0265000Y0046250D03*
X0265000Y0053750D03*
X0261250Y0057500D03*
X0257500Y0053750D03*
X0251250Y0052500D03*
X0245000Y0052500D03*
X0245000Y0058750D03*
X0251250Y0058750D03*
X0268750Y0057500D03*
X0270000Y0087500D03*
X0166250Y0166250D03*
X0161250Y0166250D03*
X0161250Y0172500D03*
X0161250Y0178750D03*
X0152500Y0178750D03*
X0152500Y0172500D03*
X0152500Y0166250D03*
X0133750Y0170000D03*
X0130000Y0165000D03*
X0121250Y0162500D03*
X0112500Y0162500D03*
X0102500Y0162500D03*
X0096250Y0156250D03*
X0091250Y0148750D03*
X0091250Y0141250D03*
X0081250Y0141250D03*
X0081250Y0148750D03*
X0083750Y0157500D03*
X0090000Y0163750D03*
X0096250Y0170000D03*
X0102500Y0172500D03*
X0112500Y0172500D03*
X0121250Y0172500D03*
X0133750Y0177500D03*
X0133750Y0187500D03*
X0133750Y0196250D03*
X0141250Y0196250D03*
X0188750Y0191250D03*
X0195000Y0191250D03*
X0201250Y0191250D03*
X0201250Y0182500D03*
X0195000Y0182500D03*
X0188750Y0182500D03*
X0218750Y0182500D03*
X0223750Y0182500D03*
X0228750Y0182500D03*
X0235000Y0182500D03*
X0240000Y0182500D03*
X0245000Y0182500D03*
X0250000Y0182500D03*
X0255000Y0182500D03*
X0255000Y0191250D03*
X0250000Y0191250D03*
X0240000Y0191250D03*
X0235000Y0191250D03*
X0223750Y0191250D03*
X0218750Y0191250D03*
X0091250Y0126250D03*
X0081250Y0126250D03*
X0081250Y0111250D03*
X0091250Y0111250D03*
X0091250Y0096250D03*
X0081250Y0096250D03*
D17*
X0156250Y0046250D02*
X0157500Y0047500D01*
X0157500Y0126250D01*
X0162500Y0131250D01*
X0218750Y0131250D01*
X0223750Y0136250D01*
D18*
X0007100Y0127650D02*
X0007100Y0007100D01*
X0262900Y0007100D01*
X0262900Y0015870D01*
X0272900Y0025870D01*
X0272900Y0049100D01*
X0265400Y0049100D01*
X0265400Y0054600D01*
X0265400Y0055600D01*
X0264400Y0055600D01*
X0264400Y0061100D01*
X0254703Y0061100D01*
X0254321Y0060998D01*
X0253979Y0060800D01*
X0253700Y0060521D01*
X0253502Y0060179D01*
X0253400Y0059797D01*
X0253400Y0055600D01*
X0264400Y0055600D01*
X0264400Y0054600D01*
X0253400Y0054600D01*
X0253400Y0050403D01*
X0253502Y0050021D01*
X0253700Y0049679D01*
X0253979Y0049400D01*
X0254321Y0049202D01*
X0254703Y0049100D01*
X0264400Y0049100D01*
X0264400Y0054600D01*
X0265400Y0054600D01*
X0272900Y0054600D01*
X0272900Y0055600D01*
X0265400Y0055600D01*
X0265400Y0061100D01*
X0272900Y0061100D01*
X0272900Y0083900D01*
X0265400Y0083900D01*
X0265400Y0089400D01*
X0265400Y0090400D01*
X0264400Y0090400D01*
X0264400Y0095900D01*
X0254703Y0095900D01*
X0254321Y0095798D01*
X0253979Y0095600D01*
X0253700Y0095321D01*
X0253502Y0094979D01*
X0253400Y0094597D01*
X0253400Y0090400D01*
X0264400Y0090400D01*
X0264400Y0089400D01*
X0265400Y0089400D01*
X0272900Y0089400D01*
X0272900Y0090400D01*
X0265400Y0090400D01*
X0265400Y0095900D01*
X0272900Y0095900D01*
X0272900Y0153130D01*
X0264130Y0161900D01*
X0262900Y0163130D01*
X0262900Y0208130D01*
X0258130Y0212900D01*
X0007100Y0212900D01*
X0007100Y0182350D01*
X0045973Y0182350D01*
X0047350Y0180973D01*
X0047350Y0129027D01*
X0045973Y0127650D01*
X0007100Y0127650D01*
X0007100Y0127631D02*
X0136700Y0127631D01*
X0136700Y0128629D02*
X0046953Y0128629D01*
X0047350Y0129628D02*
X0136700Y0129628D01*
X0136700Y0130626D02*
X0047350Y0130626D01*
X0047350Y0131625D02*
X0136700Y0131625D01*
X0136700Y0132623D02*
X0047350Y0132623D01*
X0047350Y0133622D02*
X0136700Y0133622D01*
X0136700Y0134620D02*
X0047350Y0134620D01*
X0047350Y0135619D02*
X0136700Y0135619D01*
X0136700Y0136617D02*
X0047350Y0136617D01*
X0047350Y0137616D02*
X0136700Y0137616D01*
X0136700Y0138614D02*
X0047350Y0138614D01*
X0047350Y0139613D02*
X0136700Y0139613D01*
X0136700Y0140611D02*
X0047350Y0140611D01*
X0047350Y0141610D02*
X0136700Y0141610D01*
X0136700Y0142608D02*
X0047350Y0142608D01*
X0047350Y0143607D02*
X0136700Y0143607D01*
X0136700Y0144605D02*
X0047350Y0144605D01*
X0047350Y0145604D02*
X0136700Y0145604D01*
X0136700Y0146603D02*
X0047350Y0146603D01*
X0047350Y0147601D02*
X0136700Y0147601D01*
X0136700Y0148600D02*
X0047350Y0148600D01*
X0047350Y0149598D02*
X0136700Y0149598D01*
X0136700Y0150597D02*
X0047350Y0150597D01*
X0047350Y0151595D02*
X0136700Y0151595D01*
X0136700Y0152594D02*
X0047350Y0152594D01*
X0047350Y0153592D02*
X0136700Y0153592D01*
X0136700Y0154591D02*
X0047350Y0154591D01*
X0047350Y0155589D02*
X0136700Y0155589D01*
X0136700Y0156588D02*
X0047350Y0156588D01*
X0047350Y0157586D02*
X0136700Y0157586D01*
X0136700Y0158585D02*
X0047350Y0158585D01*
X0047350Y0159583D02*
X0136700Y0159583D01*
X0136700Y0160582D02*
X0047350Y0160582D01*
X0047350Y0161580D02*
X0136700Y0161580D01*
X0136700Y0162579D02*
X0047350Y0162579D01*
X0047350Y0163577D02*
X0136700Y0163577D01*
X0136700Y0164576D02*
X0047350Y0164576D01*
X0047350Y0165574D02*
X0136700Y0165574D01*
X0136700Y0166573D02*
X0047350Y0166573D01*
X0047350Y0167571D02*
X0136700Y0167571D01*
X0136700Y0168570D02*
X0047350Y0168570D01*
X0047350Y0169568D02*
X0136700Y0169568D01*
X0136700Y0170567D02*
X0047350Y0170567D01*
X0047350Y0171565D02*
X0136700Y0171565D01*
X0136700Y0172564D02*
X0047350Y0172564D01*
X0047350Y0173562D02*
X0105051Y0173562D01*
X0105263Y0173350D02*
X0109737Y0173350D01*
X0112900Y0176513D01*
X0112900Y0180987D01*
X0109737Y0184150D01*
X0105263Y0184150D01*
X0102100Y0180987D01*
X0102100Y0180938D01*
X0099488Y0183550D01*
X0097800Y0183550D01*
X0097800Y0179050D01*
X0097200Y0179050D01*
X0097200Y0183550D01*
X0095512Y0183550D01*
X0092700Y0180738D01*
X0092700Y0179050D01*
X0097200Y0179050D01*
X0097200Y0178450D01*
X0097800Y0178450D01*
X0097800Y0173950D01*
X0099488Y0173950D01*
X0102100Y0176562D01*
X0102100Y0176513D01*
X0105263Y0173350D01*
X0104052Y0174561D02*
X0100099Y0174561D01*
X0101098Y0175559D02*
X0103054Y0175559D01*
X0102100Y0176558D02*
X0102096Y0176558D01*
X0097800Y0176558D02*
X0097200Y0176558D01*
X0097200Y0177556D02*
X0097800Y0177556D01*
X0097200Y0178450D02*
X0097200Y0173950D01*
X0095512Y0173950D01*
X0092700Y0176762D01*
X0092700Y0178450D01*
X0097200Y0178450D01*
X0097200Y0178555D02*
X0047350Y0178555D01*
X0047350Y0179553D02*
X0092700Y0179553D01*
X0092700Y0180552D02*
X0047350Y0180552D01*
X0046773Y0181550D02*
X0093512Y0181550D01*
X0094511Y0182549D02*
X0007100Y0182549D01*
X0007100Y0183547D02*
X0095509Y0183547D01*
X0097200Y0183547D02*
X0097800Y0183547D01*
X0097800Y0182549D02*
X0097200Y0182549D01*
X0097200Y0181550D02*
X0097800Y0181550D01*
X0097800Y0180552D02*
X0097200Y0180552D01*
X0097200Y0179553D02*
X0097800Y0179553D01*
X0097800Y0175559D02*
X0097200Y0175559D01*
X0097200Y0174561D02*
X0097800Y0174561D01*
X0094901Y0174561D02*
X0047350Y0174561D01*
X0047350Y0175559D02*
X0093902Y0175559D01*
X0092904Y0176558D02*
X0047350Y0176558D01*
X0047350Y0177556D02*
X0092700Y0177556D01*
X0099491Y0183547D02*
X0104661Y0183547D01*
X0103662Y0182549D02*
X0100489Y0182549D01*
X0101488Y0181550D02*
X0102664Y0181550D01*
X0110339Y0183547D02*
X0136700Y0183547D01*
X0136700Y0182549D02*
X0111338Y0182549D01*
X0112336Y0181550D02*
X0136700Y0181550D01*
X0136700Y0180552D02*
X0112900Y0180552D01*
X0112900Y0179553D02*
X0136700Y0179553D01*
X0136700Y0178555D02*
X0112900Y0178555D01*
X0112900Y0177556D02*
X0136700Y0177556D01*
X0136700Y0176558D02*
X0112900Y0176558D01*
X0111946Y0175559D02*
X0136700Y0175559D01*
X0136700Y0174561D02*
X0110948Y0174561D01*
X0109949Y0173562D02*
X0136700Y0173562D01*
X0136700Y0184546D02*
X0007100Y0184546D01*
X0007100Y0185544D02*
X0136700Y0185544D01*
X0136700Y0186543D02*
X0007100Y0186543D01*
X0007100Y0187541D02*
X0137067Y0187541D01*
X0137202Y0187869D02*
X0136700Y0186656D01*
X0136700Y0089281D01*
X0134477Y0089281D01*
X0131969Y0086773D01*
X0131969Y0083227D01*
X0134477Y0080719D01*
X0138023Y0080719D01*
X0140531Y0083227D01*
X0140531Y0083364D01*
X0141869Y0084702D01*
X0142500Y0085333D01*
X0143131Y0084702D01*
X0143219Y0084614D01*
X0143219Y0083227D01*
X0145727Y0080719D01*
X0149273Y0080719D01*
X0151781Y0083227D01*
X0151781Y0086773D01*
X0149273Y0089281D01*
X0148300Y0089281D01*
X0148300Y0179633D01*
X0168267Y0199600D01*
X0171237Y0199600D01*
X0174400Y0202763D01*
X0174400Y0207237D01*
X0171237Y0210400D01*
X0166763Y0210400D01*
X0164000Y0207637D01*
X0161237Y0210400D01*
X0156763Y0210400D01*
X0154000Y0207637D01*
X0151237Y0210400D01*
X0146763Y0210400D01*
X0144000Y0207637D01*
X0141237Y0210400D01*
X0136763Y0210400D01*
X0134000Y0207637D01*
X0131237Y0210400D01*
X0126763Y0210400D01*
X0124000Y0207637D01*
X0121237Y0210400D01*
X0116763Y0210400D01*
X0113600Y0207237D01*
X0113600Y0207188D01*
X0110988Y0209800D01*
X0109484Y0209800D01*
X0109484Y0205484D01*
X0108516Y0205484D01*
X0108516Y0209800D01*
X0107012Y0209800D01*
X0104400Y0207188D01*
X0104400Y0207237D01*
X0101237Y0210400D01*
X0096763Y0210400D01*
X0094000Y0207637D01*
X0091237Y0210400D01*
X0086763Y0210400D01*
X0084000Y0207637D01*
X0081237Y0210400D01*
X0076763Y0210400D01*
X0073600Y0207237D01*
X0073600Y0202763D01*
X0076763Y0199600D01*
X0081237Y0199600D01*
X0084000Y0202363D01*
X0086763Y0199600D01*
X0091237Y0199600D01*
X0094000Y0202363D01*
X0096763Y0199600D01*
X0101237Y0199600D01*
X0104400Y0202763D01*
X0104400Y0202812D01*
X0107012Y0200200D01*
X0108516Y0200200D01*
X0108516Y0204516D01*
X0109484Y0204516D01*
X0109484Y0200200D01*
X0110988Y0200200D01*
X0113600Y0202812D01*
X0113600Y0202763D01*
X0116763Y0199600D01*
X0121237Y0199600D01*
X0124000Y0202363D01*
X0126763Y0199600D01*
X0131237Y0199600D01*
X0134000Y0202363D01*
X0136763Y0199600D01*
X0141237Y0199600D01*
X0144000Y0202363D01*
X0146763Y0199600D01*
X0148933Y0199600D01*
X0137202Y0187869D01*
X0137873Y0188540D02*
X0007100Y0188540D01*
X0007100Y0189539D02*
X0138872Y0189539D01*
X0139870Y0190537D02*
X0007100Y0190537D01*
X0007100Y0191536D02*
X0140869Y0191536D01*
X0141867Y0192534D02*
X0007100Y0192534D01*
X0007100Y0193533D02*
X0142866Y0193533D01*
X0143864Y0194531D02*
X0007100Y0194531D01*
X0007100Y0195530D02*
X0144863Y0195530D01*
X0145861Y0196528D02*
X0007100Y0196528D01*
X0007100Y0197527D02*
X0146860Y0197527D01*
X0147858Y0198525D02*
X0007100Y0198525D01*
X0007100Y0199524D02*
X0148857Y0199524D01*
X0145841Y0200522D02*
X0142159Y0200522D01*
X0143157Y0201521D02*
X0144843Y0201521D01*
X0144873Y0208510D02*
X0143127Y0208510D01*
X0142128Y0209509D02*
X0145872Y0209509D01*
X0152128Y0209509D02*
X0155872Y0209509D01*
X0154873Y0208510D02*
X0153127Y0208510D01*
X0162128Y0209509D02*
X0165872Y0209509D01*
X0164873Y0208510D02*
X0163127Y0208510D01*
X0172128Y0209509D02*
X0181872Y0209509D01*
X0182763Y0210400D02*
X0179600Y0207237D01*
X0179600Y0202763D01*
X0182763Y0199600D01*
X0187237Y0199600D01*
X0190000Y0202363D01*
X0192763Y0199600D01*
X0197237Y0199600D01*
X0200000Y0202363D01*
X0202763Y0199600D01*
X0207237Y0199600D01*
X0210000Y0202363D01*
X0212763Y0199600D01*
X0217237Y0199600D01*
X0220000Y0202363D01*
X0222763Y0199600D01*
X0227237Y0199600D01*
X0230000Y0202363D01*
X0232763Y0199600D01*
X0237237Y0199600D01*
X0240000Y0202363D01*
X0242763Y0199600D01*
X0247237Y0199600D01*
X0250000Y0202363D01*
X0252763Y0199600D01*
X0257237Y0199600D01*
X0260400Y0202763D01*
X0260400Y0207237D01*
X0257237Y0210400D01*
X0252763Y0210400D01*
X0250000Y0207637D01*
X0247237Y0210400D01*
X0242763Y0210400D01*
X0240000Y0207637D01*
X0237237Y0210400D01*
X0232763Y0210400D01*
X0230000Y0207637D01*
X0227237Y0210400D01*
X0222763Y0210400D01*
X0220000Y0207637D01*
X0217237Y0210400D01*
X0212763Y0210400D01*
X0210000Y0207637D01*
X0207237Y0210400D01*
X0202763Y0210400D01*
X0200000Y0207637D01*
X0197237Y0210400D01*
X0192763Y0210400D01*
X0190000Y0207637D01*
X0187237Y0210400D01*
X0182763Y0210400D01*
X0180873Y0208510D02*
X0173127Y0208510D01*
X0174125Y0207512D02*
X0179875Y0207512D01*
X0179600Y0206513D02*
X0174400Y0206513D01*
X0174400Y0205515D02*
X0179600Y0205515D01*
X0179600Y0204516D02*
X0174400Y0204516D01*
X0174400Y0203518D02*
X0179600Y0203518D01*
X0179844Y0202519D02*
X0174156Y0202519D01*
X0173157Y0201521D02*
X0180843Y0201521D01*
X0181841Y0200522D02*
X0172159Y0200522D01*
X0168191Y0199524D02*
X0262900Y0199524D01*
X0262900Y0200522D02*
X0258159Y0200522D01*
X0259157Y0201521D02*
X0262900Y0201521D01*
X0262900Y0202519D02*
X0260156Y0202519D01*
X0260400Y0203518D02*
X0262900Y0203518D01*
X0262900Y0204516D02*
X0260400Y0204516D01*
X0260400Y0205515D02*
X0262900Y0205515D01*
X0262900Y0206513D02*
X0260400Y0206513D01*
X0260125Y0207512D02*
X0262900Y0207512D01*
X0262520Y0208510D02*
X0259127Y0208510D01*
X0258128Y0209509D02*
X0261521Y0209509D01*
X0260523Y0210507D02*
X0007100Y0210507D01*
X0007100Y0209509D02*
X0075872Y0209509D01*
X0074873Y0208510D02*
X0007100Y0208510D01*
X0007100Y0207512D02*
X0073875Y0207512D01*
X0073600Y0206513D02*
X0007100Y0206513D01*
X0007100Y0205515D02*
X0073600Y0205515D01*
X0073600Y0204516D02*
X0007100Y0204516D01*
X0007100Y0203518D02*
X0073600Y0203518D01*
X0073844Y0202519D02*
X0007100Y0202519D01*
X0007100Y0201521D02*
X0074843Y0201521D01*
X0075841Y0200522D02*
X0007100Y0200522D01*
X0007100Y0211506D02*
X0259524Y0211506D01*
X0258526Y0212504D02*
X0007100Y0212504D01*
X0082128Y0209509D02*
X0085872Y0209509D01*
X0084873Y0208510D02*
X0083127Y0208510D01*
X0083157Y0201521D02*
X0084843Y0201521D01*
X0085841Y0200522D02*
X0082159Y0200522D01*
X0092159Y0200522D02*
X0095841Y0200522D01*
X0094843Y0201521D02*
X0093157Y0201521D01*
X0093127Y0208510D02*
X0094873Y0208510D01*
X0095872Y0209509D02*
X0092128Y0209509D01*
X0102128Y0209509D02*
X0106721Y0209509D01*
X0105722Y0208510D02*
X0103127Y0208510D01*
X0104125Y0207512D02*
X0104724Y0207512D01*
X0108516Y0207512D02*
X0109484Y0207512D01*
X0109484Y0208510D02*
X0108516Y0208510D01*
X0108516Y0209509D02*
X0109484Y0209509D01*
X0111279Y0209509D02*
X0115872Y0209509D01*
X0114873Y0208510D02*
X0112278Y0208510D01*
X0113276Y0207512D02*
X0113875Y0207512D01*
X0109484Y0206513D02*
X0108516Y0206513D01*
X0108516Y0205515D02*
X0109484Y0205515D01*
X0109484Y0203518D02*
X0108516Y0203518D01*
X0108516Y0202519D02*
X0109484Y0202519D01*
X0109484Y0201521D02*
X0108516Y0201521D01*
X0108516Y0200522D02*
X0109484Y0200522D01*
X0111310Y0200522D02*
X0115841Y0200522D01*
X0114843Y0201521D02*
X0112309Y0201521D01*
X0113307Y0202519D02*
X0113844Y0202519D01*
X0106690Y0200522D02*
X0102159Y0200522D01*
X0103157Y0201521D02*
X0105691Y0201521D01*
X0104693Y0202519D02*
X0104156Y0202519D01*
X0122159Y0200522D02*
X0125841Y0200522D01*
X0124843Y0201521D02*
X0123157Y0201521D01*
X0123127Y0208510D02*
X0124873Y0208510D01*
X0125872Y0209509D02*
X0122128Y0209509D01*
X0132128Y0209509D02*
X0135872Y0209509D01*
X0134873Y0208510D02*
X0133127Y0208510D01*
X0133157Y0201521D02*
X0134843Y0201521D01*
X0135841Y0200522D02*
X0132159Y0200522D01*
X0151216Y0182549D02*
X0262900Y0182549D01*
X0262900Y0183547D02*
X0152214Y0183547D01*
X0153213Y0184546D02*
X0262900Y0184546D01*
X0262900Y0185544D02*
X0154211Y0185544D01*
X0155210Y0186543D02*
X0262900Y0186543D01*
X0262900Y0187541D02*
X0156208Y0187541D01*
X0157207Y0188540D02*
X0262900Y0188540D01*
X0262900Y0189539D02*
X0158205Y0189539D01*
X0159204Y0190537D02*
X0262900Y0190537D01*
X0262900Y0191536D02*
X0160202Y0191536D01*
X0161201Y0192534D02*
X0262900Y0192534D01*
X0262900Y0193533D02*
X0162199Y0193533D01*
X0163198Y0194531D02*
X0262900Y0194531D01*
X0262900Y0195530D02*
X0164196Y0195530D01*
X0165195Y0196528D02*
X0262900Y0196528D01*
X0262900Y0197527D02*
X0166193Y0197527D01*
X0167192Y0198525D02*
X0262900Y0198525D01*
X0251841Y0200522D02*
X0248159Y0200522D01*
X0249157Y0201521D02*
X0250843Y0201521D01*
X0250873Y0208510D02*
X0249127Y0208510D01*
X0248128Y0209509D02*
X0251872Y0209509D01*
X0241872Y0209509D02*
X0238128Y0209509D01*
X0239127Y0208510D02*
X0240873Y0208510D01*
X0240843Y0201521D02*
X0239157Y0201521D01*
X0238159Y0200522D02*
X0241841Y0200522D01*
X0231841Y0200522D02*
X0228159Y0200522D01*
X0229157Y0201521D02*
X0230843Y0201521D01*
X0230873Y0208510D02*
X0229127Y0208510D01*
X0228128Y0209509D02*
X0231872Y0209509D01*
X0221872Y0209509D02*
X0218128Y0209509D01*
X0219127Y0208510D02*
X0220873Y0208510D01*
X0220843Y0201521D02*
X0219157Y0201521D01*
X0218159Y0200522D02*
X0221841Y0200522D01*
X0211841Y0200522D02*
X0208159Y0200522D01*
X0209157Y0201521D02*
X0210843Y0201521D01*
X0210873Y0208510D02*
X0209127Y0208510D01*
X0208128Y0209509D02*
X0211872Y0209509D01*
X0201872Y0209509D02*
X0198128Y0209509D01*
X0199127Y0208510D02*
X0200873Y0208510D01*
X0200843Y0201521D02*
X0199157Y0201521D01*
X0198159Y0200522D02*
X0201841Y0200522D01*
X0191841Y0200522D02*
X0188159Y0200522D01*
X0189157Y0201521D02*
X0190843Y0201521D01*
X0190873Y0208510D02*
X0189127Y0208510D01*
X0188128Y0209509D02*
X0191872Y0209509D01*
X0150217Y0181550D02*
X0262900Y0181550D01*
X0262900Y0180552D02*
X0149219Y0180552D01*
X0148300Y0179553D02*
X0262900Y0179553D01*
X0262900Y0178555D02*
X0148300Y0178555D01*
X0148300Y0177556D02*
X0262900Y0177556D01*
X0262900Y0176558D02*
X0148300Y0176558D01*
X0148300Y0175559D02*
X0262900Y0175559D01*
X0262900Y0174561D02*
X0148300Y0174561D01*
X0148300Y0173562D02*
X0262900Y0173562D01*
X0262900Y0172564D02*
X0148300Y0172564D01*
X0148300Y0171565D02*
X0262900Y0171565D01*
X0262900Y0170567D02*
X0148300Y0170567D01*
X0148300Y0169568D02*
X0262900Y0169568D01*
X0262900Y0168570D02*
X0148300Y0168570D01*
X0148300Y0167571D02*
X0262900Y0167571D01*
X0262900Y0166573D02*
X0148300Y0166573D01*
X0148300Y0165574D02*
X0262900Y0165574D01*
X0262900Y0164576D02*
X0148300Y0164576D01*
X0148300Y0163577D02*
X0262900Y0163577D01*
X0263451Y0162579D02*
X0148300Y0162579D01*
X0148300Y0161580D02*
X0264450Y0161580D01*
X0265448Y0160582D02*
X0148300Y0160582D01*
X0148300Y0159583D02*
X0266447Y0159583D01*
X0267445Y0158585D02*
X0148300Y0158585D01*
X0148300Y0157586D02*
X0268444Y0157586D01*
X0269443Y0156588D02*
X0148300Y0156588D01*
X0148300Y0155589D02*
X0270441Y0155589D01*
X0271440Y0154591D02*
X0148300Y0154591D01*
X0148300Y0153592D02*
X0272438Y0153592D01*
X0272900Y0152594D02*
X0148300Y0152594D01*
X0148300Y0151595D02*
X0272900Y0151595D01*
X0272900Y0150597D02*
X0148300Y0150597D01*
X0148300Y0149598D02*
X0272900Y0149598D01*
X0272900Y0148600D02*
X0148300Y0148600D01*
X0148300Y0147601D02*
X0272900Y0147601D01*
X0272900Y0146603D02*
X0148300Y0146603D01*
X0148300Y0145604D02*
X0272900Y0145604D01*
X0272900Y0144605D02*
X0148300Y0144605D01*
X0148300Y0143607D02*
X0272900Y0143607D01*
X0272900Y0142608D02*
X0148300Y0142608D01*
X0148300Y0141610D02*
X0272900Y0141610D01*
X0272900Y0140611D02*
X0148300Y0140611D01*
X0148300Y0139613D02*
X0221059Y0139613D01*
X0221977Y0140531D02*
X0219469Y0138023D01*
X0219469Y0137201D01*
X0217217Y0134950D01*
X0161764Y0134950D01*
X0160404Y0134387D01*
X0155404Y0129387D01*
X0154363Y0128346D01*
X0153800Y0126986D01*
X0153800Y0049854D01*
X0151969Y0048023D01*
X0151969Y0044477D01*
X0154477Y0041969D01*
X0158023Y0041969D01*
X0160531Y0044477D01*
X0160531Y0045298D01*
X0160637Y0045404D01*
X0161200Y0046764D01*
X0161200Y0124717D01*
X0164033Y0127550D01*
X0219486Y0127550D01*
X0220846Y0128113D01*
X0221887Y0129154D01*
X0224701Y0131969D01*
X0225523Y0131969D01*
X0228031Y0134477D01*
X0228031Y0138023D01*
X0225523Y0140531D01*
X0221977Y0140531D01*
X0220060Y0138614D02*
X0148300Y0138614D01*
X0148300Y0137616D02*
X0219469Y0137616D01*
X0218885Y0136617D02*
X0148300Y0136617D01*
X0148300Y0135619D02*
X0217886Y0135619D01*
X0223359Y0130626D02*
X0272900Y0130626D01*
X0272900Y0129628D02*
X0268792Y0129628D01*
X0267820Y0130600D02*
X0263180Y0130600D01*
X0261100Y0128520D01*
X0261100Y0129370D01*
X0259870Y0130600D01*
X0251130Y0130600D01*
X0249900Y0129370D01*
X0249900Y0120630D01*
X0251130Y0119400D01*
X0251980Y0119400D01*
X0249900Y0117320D01*
X0249900Y0112680D01*
X0252580Y0110000D01*
X0249900Y0107320D01*
X0249900Y0102680D01*
X0253180Y0099400D01*
X0257820Y0099400D01*
X0260924Y0102505D01*
X0263429Y0100000D01*
X0265016Y0100000D01*
X0265016Y0104516D01*
X0265984Y0104516D01*
X0265984Y0100000D01*
X0267571Y0100000D01*
X0270500Y0102929D01*
X0270500Y0104516D01*
X0265984Y0104516D01*
X0265984Y0105484D01*
X0270500Y0105484D01*
X0270500Y0107071D01*
X0267995Y0109576D01*
X0271100Y0112680D01*
X0271100Y0117320D01*
X0268420Y0120000D01*
X0271100Y0122680D01*
X0271100Y0127320D01*
X0267820Y0130600D01*
X0269790Y0128629D02*
X0272900Y0128629D01*
X0272900Y0127631D02*
X0270789Y0127631D01*
X0271100Y0126632D02*
X0272900Y0126632D01*
X0272900Y0125634D02*
X0271100Y0125634D01*
X0271100Y0124635D02*
X0272900Y0124635D01*
X0272900Y0123637D02*
X0271100Y0123637D01*
X0271058Y0122638D02*
X0272900Y0122638D01*
X0272900Y0121640D02*
X0270059Y0121640D01*
X0269061Y0120641D02*
X0272900Y0120641D01*
X0272900Y0119643D02*
X0268777Y0119643D01*
X0269775Y0118644D02*
X0272900Y0118644D01*
X0272900Y0117646D02*
X0270774Y0117646D01*
X0271100Y0116647D02*
X0272900Y0116647D01*
X0272900Y0115649D02*
X0271100Y0115649D01*
X0271100Y0114650D02*
X0272900Y0114650D01*
X0272900Y0113652D02*
X0271100Y0113652D01*
X0271073Y0112653D02*
X0272900Y0112653D01*
X0272900Y0111655D02*
X0270074Y0111655D01*
X0269076Y0110656D02*
X0272900Y0110656D01*
X0272900Y0109658D02*
X0268077Y0109658D01*
X0268912Y0108659D02*
X0272900Y0108659D01*
X0272900Y0107661D02*
X0269910Y0107661D01*
X0270500Y0106662D02*
X0272900Y0106662D01*
X0272900Y0105664D02*
X0270500Y0105664D01*
X0270500Y0103667D02*
X0272900Y0103667D01*
X0272900Y0104665D02*
X0265984Y0104665D01*
X0265984Y0103667D02*
X0265016Y0103667D01*
X0265016Y0102668D02*
X0265984Y0102668D01*
X0265984Y0101670D02*
X0265016Y0101670D01*
X0265016Y0100671D02*
X0265984Y0100671D01*
X0268242Y0100671D02*
X0272900Y0100671D01*
X0272900Y0101670D02*
X0269241Y0101670D01*
X0270239Y0102668D02*
X0272900Y0102668D01*
X0272900Y0099672D02*
X0258092Y0099672D01*
X0259091Y0100671D02*
X0262758Y0100671D01*
X0261759Y0101670D02*
X0260089Y0101670D01*
X0252908Y0099672D02*
X0161200Y0099672D01*
X0161200Y0098674D02*
X0272900Y0098674D01*
X0272900Y0097675D02*
X0161200Y0097675D01*
X0161200Y0096677D02*
X0272900Y0096677D01*
X0272900Y0089687D02*
X0265400Y0089687D01*
X0265400Y0088689D02*
X0264400Y0088689D01*
X0264400Y0089400D02*
X0264400Y0083900D01*
X0254703Y0083900D01*
X0254321Y0084002D01*
X0253979Y0084200D01*
X0253700Y0084479D01*
X0253502Y0084821D01*
X0253400Y0085203D01*
X0253400Y0089400D01*
X0264400Y0089400D01*
X0264400Y0089687D02*
X0161200Y0089687D01*
X0161200Y0088689D02*
X0253400Y0088689D01*
X0253400Y0087690D02*
X0161200Y0087690D01*
X0161200Y0086692D02*
X0253400Y0086692D01*
X0253400Y0085693D02*
X0161200Y0085693D01*
X0161200Y0084695D02*
X0253575Y0084695D01*
X0253400Y0090686D02*
X0161200Y0090686D01*
X0161200Y0091684D02*
X0253400Y0091684D01*
X0253400Y0092683D02*
X0161200Y0092683D01*
X0161200Y0093681D02*
X0253400Y0093681D01*
X0253422Y0094680D02*
X0161200Y0094680D01*
X0161200Y0095678D02*
X0254114Y0095678D01*
X0251909Y0100671D02*
X0161200Y0100671D01*
X0161200Y0101670D02*
X0250911Y0101670D01*
X0249912Y0102668D02*
X0161200Y0102668D01*
X0161200Y0103667D02*
X0249900Y0103667D01*
X0249900Y0104665D02*
X0161200Y0104665D01*
X0161200Y0105664D02*
X0249900Y0105664D01*
X0249900Y0106662D02*
X0161200Y0106662D01*
X0161200Y0107661D02*
X0250241Y0107661D01*
X0251240Y0108659D02*
X0161200Y0108659D01*
X0161200Y0109658D02*
X0252238Y0109658D01*
X0251924Y0110656D02*
X0161200Y0110656D01*
X0161200Y0111655D02*
X0250926Y0111655D01*
X0249927Y0112653D02*
X0161200Y0112653D01*
X0161200Y0113652D02*
X0249900Y0113652D01*
X0249900Y0114650D02*
X0161200Y0114650D01*
X0161200Y0115649D02*
X0249900Y0115649D01*
X0249900Y0116647D02*
X0161200Y0116647D01*
X0161200Y0117646D02*
X0250226Y0117646D01*
X0251225Y0118644D02*
X0161200Y0118644D01*
X0161200Y0119643D02*
X0250887Y0119643D01*
X0249900Y0120641D02*
X0161200Y0120641D01*
X0161200Y0121640D02*
X0249900Y0121640D01*
X0249900Y0122638D02*
X0161200Y0122638D01*
X0161200Y0123637D02*
X0249900Y0123637D01*
X0249900Y0124635D02*
X0161200Y0124635D01*
X0162116Y0125634D02*
X0249900Y0125634D01*
X0249900Y0126632D02*
X0163115Y0126632D01*
X0157642Y0131625D02*
X0148300Y0131625D01*
X0148300Y0132623D02*
X0158641Y0132623D01*
X0159639Y0133622D02*
X0148300Y0133622D01*
X0148300Y0134620D02*
X0160968Y0134620D01*
X0156644Y0130626D02*
X0148300Y0130626D01*
X0148300Y0129628D02*
X0155645Y0129628D01*
X0154647Y0128629D02*
X0148300Y0128629D01*
X0148300Y0127631D02*
X0154067Y0127631D01*
X0153800Y0126632D02*
X0148300Y0126632D01*
X0148300Y0125634D02*
X0153800Y0125634D01*
X0153800Y0124635D02*
X0148300Y0124635D01*
X0148300Y0123637D02*
X0153800Y0123637D01*
X0153800Y0122638D02*
X0148300Y0122638D01*
X0148300Y0121640D02*
X0153800Y0121640D01*
X0153800Y0120641D02*
X0148300Y0120641D01*
X0148300Y0119643D02*
X0153800Y0119643D01*
X0153800Y0118644D02*
X0148300Y0118644D01*
X0148300Y0117646D02*
X0153800Y0117646D01*
X0153800Y0116647D02*
X0148300Y0116647D01*
X0148300Y0115649D02*
X0153800Y0115649D01*
X0153800Y0114650D02*
X0148300Y0114650D01*
X0148300Y0113652D02*
X0153800Y0113652D01*
X0153800Y0112653D02*
X0148300Y0112653D01*
X0148300Y0111655D02*
X0153800Y0111655D01*
X0153800Y0110656D02*
X0148300Y0110656D01*
X0148300Y0109658D02*
X0153800Y0109658D01*
X0153800Y0108659D02*
X0148300Y0108659D01*
X0148300Y0107661D02*
X0153800Y0107661D01*
X0153800Y0106662D02*
X0148300Y0106662D01*
X0148300Y0105664D02*
X0153800Y0105664D01*
X0153800Y0104665D02*
X0148300Y0104665D01*
X0148300Y0103667D02*
X0153800Y0103667D01*
X0153800Y0102668D02*
X0148300Y0102668D01*
X0148300Y0101670D02*
X0153800Y0101670D01*
X0153800Y0100671D02*
X0148300Y0100671D01*
X0148300Y0099672D02*
X0153800Y0099672D01*
X0153800Y0098674D02*
X0148300Y0098674D01*
X0148300Y0097675D02*
X0153800Y0097675D01*
X0153800Y0096677D02*
X0148300Y0096677D01*
X0148300Y0095678D02*
X0153800Y0095678D01*
X0153800Y0094680D02*
X0148300Y0094680D01*
X0148300Y0093681D02*
X0153800Y0093681D01*
X0153800Y0092683D02*
X0148300Y0092683D01*
X0148300Y0091684D02*
X0153800Y0091684D01*
X0153800Y0090686D02*
X0148300Y0090686D01*
X0148300Y0089687D02*
X0153800Y0089687D01*
X0153800Y0088689D02*
X0149866Y0088689D01*
X0150864Y0087690D02*
X0153800Y0087690D01*
X0153800Y0086692D02*
X0151781Y0086692D01*
X0151781Y0085693D02*
X0153800Y0085693D01*
X0153800Y0084695D02*
X0151781Y0084695D01*
X0151781Y0083696D02*
X0153800Y0083696D01*
X0153800Y0082698D02*
X0151252Y0082698D01*
X0150254Y0081699D02*
X0153800Y0081699D01*
X0153800Y0080701D02*
X0091550Y0080701D01*
X0091550Y0081699D02*
X0133496Y0081699D01*
X0132498Y0082698D02*
X0091550Y0082698D01*
X0091550Y0083696D02*
X0131969Y0083696D01*
X0131969Y0084695D02*
X0091367Y0084695D01*
X0091550Y0084254D02*
X0090743Y0086202D01*
X0089252Y0087693D01*
X0087304Y0088500D01*
X0085196Y0088500D01*
X0083248Y0087693D01*
X0081757Y0086202D01*
X0080950Y0084254D01*
X0080950Y0075746D01*
X0081757Y0073798D01*
X0083248Y0072307D01*
X0085196Y0071500D01*
X0087304Y0071500D01*
X0089252Y0072307D01*
X0090743Y0073798D01*
X0091550Y0075746D01*
X0091550Y0084254D01*
X0090954Y0085693D02*
X0131969Y0085693D01*
X0131969Y0086692D02*
X0090253Y0086692D01*
X0089255Y0087690D02*
X0132886Y0087690D01*
X0133884Y0088689D02*
X0007100Y0088689D01*
X0007100Y0089687D02*
X0136700Y0089687D01*
X0136700Y0090686D02*
X0007100Y0090686D01*
X0007100Y0091684D02*
X0136700Y0091684D01*
X0136700Y0092683D02*
X0007100Y0092683D01*
X0007100Y0093681D02*
X0136700Y0093681D01*
X0136700Y0094680D02*
X0007100Y0094680D01*
X0007100Y0095678D02*
X0136700Y0095678D01*
X0136700Y0096677D02*
X0007100Y0096677D01*
X0007100Y0097675D02*
X0136700Y0097675D01*
X0136700Y0098674D02*
X0007100Y0098674D01*
X0007100Y0099672D02*
X0136700Y0099672D01*
X0136700Y0100671D02*
X0007100Y0100671D01*
X0007100Y0101670D02*
X0136700Y0101670D01*
X0136700Y0102668D02*
X0007100Y0102668D01*
X0007100Y0103667D02*
X0136700Y0103667D01*
X0136700Y0104665D02*
X0007100Y0104665D01*
X0007100Y0105664D02*
X0136700Y0105664D01*
X0136700Y0106662D02*
X0007100Y0106662D01*
X0007100Y0107661D02*
X0136700Y0107661D01*
X0136700Y0108659D02*
X0007100Y0108659D01*
X0007100Y0109658D02*
X0136700Y0109658D01*
X0136700Y0110656D02*
X0007100Y0110656D01*
X0007100Y0111655D02*
X0136700Y0111655D01*
X0136700Y0112653D02*
X0007100Y0112653D01*
X0007100Y0113652D02*
X0136700Y0113652D01*
X0136700Y0114650D02*
X0007100Y0114650D01*
X0007100Y0115649D02*
X0136700Y0115649D01*
X0136700Y0116647D02*
X0007100Y0116647D01*
X0007100Y0117646D02*
X0136700Y0117646D01*
X0136700Y0118644D02*
X0007100Y0118644D01*
X0007100Y0119643D02*
X0136700Y0119643D01*
X0136700Y0120641D02*
X0007100Y0120641D01*
X0007100Y0121640D02*
X0136700Y0121640D01*
X0136700Y0122638D02*
X0007100Y0122638D01*
X0007100Y0123637D02*
X0136700Y0123637D01*
X0136700Y0124635D02*
X0007100Y0124635D01*
X0007100Y0125634D02*
X0136700Y0125634D01*
X0136700Y0126632D02*
X0007100Y0126632D01*
X0007100Y0087690D02*
X0064860Y0087690D01*
X0065149Y0087784D02*
X0064446Y0087556D01*
X0063787Y0087220D01*
X0063188Y0086785D01*
X0062665Y0086262D01*
X0062230Y0085663D01*
X0061894Y0085004D01*
X0061666Y0084301D01*
X0061550Y0083570D01*
X0061550Y0080500D01*
X0065750Y0080500D01*
X0065750Y0087879D01*
X0065149Y0087784D01*
X0065750Y0087690D02*
X0066750Y0087690D01*
X0066750Y0087879D02*
X0066750Y0080500D01*
X0065750Y0080500D01*
X0065750Y0079500D01*
X0061550Y0079500D01*
X0061550Y0076430D01*
X0061666Y0075699D01*
X0061894Y0074996D01*
X0062230Y0074337D01*
X0062665Y0073738D01*
X0063188Y0073215D01*
X0063787Y0072780D01*
X0064446Y0072444D01*
X0065149Y0072216D01*
X0065750Y0072121D01*
X0065750Y0079500D01*
X0066750Y0079500D01*
X0066750Y0080500D01*
X0070950Y0080500D01*
X0070950Y0083570D01*
X0070834Y0084301D01*
X0070606Y0085004D01*
X0070270Y0085663D01*
X0069835Y0086262D01*
X0069312Y0086785D01*
X0068713Y0087220D01*
X0068054Y0087556D01*
X0067351Y0087784D01*
X0066750Y0087879D01*
X0067640Y0087690D02*
X0083245Y0087690D01*
X0082247Y0086692D02*
X0069405Y0086692D01*
X0070248Y0085693D02*
X0081546Y0085693D01*
X0081133Y0084695D02*
X0070706Y0084695D01*
X0070930Y0083696D02*
X0080950Y0083696D01*
X0080950Y0082698D02*
X0070950Y0082698D01*
X0070950Y0081699D02*
X0080950Y0081699D01*
X0080950Y0080701D02*
X0070950Y0080701D01*
X0070950Y0079500D02*
X0066750Y0079500D01*
X0066750Y0072121D01*
X0067351Y0072216D01*
X0068054Y0072444D01*
X0068713Y0072780D01*
X0069312Y0073215D01*
X0069835Y0073738D01*
X0070270Y0074337D01*
X0070606Y0074996D01*
X0070834Y0075699D01*
X0070950Y0076430D01*
X0070950Y0079500D01*
X0070950Y0078704D02*
X0080950Y0078704D01*
X0080950Y0079702D02*
X0066750Y0079702D01*
X0066750Y0078704D02*
X0065750Y0078704D01*
X0065750Y0079702D02*
X0007100Y0079702D01*
X0007100Y0078704D02*
X0061550Y0078704D01*
X0061550Y0077705D02*
X0007100Y0077705D01*
X0007100Y0076707D02*
X0061550Y0076707D01*
X0061664Y0075708D02*
X0007100Y0075708D01*
X0007100Y0074710D02*
X0062040Y0074710D01*
X0062692Y0073711D02*
X0007100Y0073711D01*
X0007100Y0072713D02*
X0063919Y0072713D01*
X0065750Y0072713D02*
X0066750Y0072713D01*
X0066750Y0073711D02*
X0065750Y0073711D01*
X0065750Y0074710D02*
X0066750Y0074710D01*
X0066750Y0075708D02*
X0065750Y0075708D01*
X0065750Y0076707D02*
X0066750Y0076707D01*
X0066750Y0077705D02*
X0065750Y0077705D01*
X0065750Y0080701D02*
X0066750Y0080701D01*
X0066750Y0081699D02*
X0065750Y0081699D01*
X0065750Y0082698D02*
X0066750Y0082698D01*
X0066750Y0083696D02*
X0065750Y0083696D01*
X0065750Y0084695D02*
X0066750Y0084695D01*
X0066750Y0085693D02*
X0065750Y0085693D01*
X0065750Y0086692D02*
X0066750Y0086692D01*
X0063095Y0086692D02*
X0007100Y0086692D01*
X0007100Y0085693D02*
X0062252Y0085693D01*
X0061794Y0084695D02*
X0007100Y0084695D01*
X0007100Y0083696D02*
X0061570Y0083696D01*
X0061550Y0082698D02*
X0007100Y0082698D01*
X0007100Y0081699D02*
X0061550Y0081699D01*
X0061550Y0080701D02*
X0007100Y0080701D01*
X0007100Y0071714D02*
X0084679Y0071714D01*
X0082842Y0072713D02*
X0068581Y0072713D01*
X0069808Y0073711D02*
X0081843Y0073711D01*
X0081379Y0074710D02*
X0070460Y0074710D01*
X0070836Y0075708D02*
X0080966Y0075708D01*
X0080950Y0076707D02*
X0070950Y0076707D01*
X0070950Y0077705D02*
X0080950Y0077705D01*
X0087821Y0071714D02*
X0153800Y0071714D01*
X0153800Y0070716D02*
X0007100Y0070716D01*
X0007100Y0069717D02*
X0153800Y0069717D01*
X0153800Y0068719D02*
X0007100Y0068719D01*
X0007100Y0067720D02*
X0153800Y0067720D01*
X0153800Y0066722D02*
X0007100Y0066722D01*
X0007100Y0065723D02*
X0153800Y0065723D01*
X0153800Y0064725D02*
X0081893Y0064725D01*
X0082452Y0064493D02*
X0080504Y0065300D01*
X0071996Y0065300D01*
X0070048Y0064493D01*
X0068557Y0063002D01*
X0067750Y0061054D01*
X0067750Y0058946D01*
X0068557Y0056998D01*
X0070048Y0055507D01*
X0071996Y0054700D01*
X0080504Y0054700D01*
X0082452Y0055507D01*
X0083943Y0056998D01*
X0084750Y0058946D01*
X0084750Y0061054D01*
X0083943Y0063002D01*
X0082452Y0064493D01*
X0083219Y0063726D02*
X0153800Y0063726D01*
X0153800Y0062728D02*
X0084057Y0062728D01*
X0084470Y0061729D02*
X0153800Y0061729D01*
X0153800Y0060731D02*
X0084750Y0060731D01*
X0084750Y0059732D02*
X0153800Y0059732D01*
X0153800Y0058734D02*
X0084662Y0058734D01*
X0084248Y0057735D02*
X0153800Y0057735D01*
X0153800Y0056737D02*
X0083682Y0056737D01*
X0082683Y0055738D02*
X0153800Y0055738D01*
X0153800Y0054739D02*
X0080600Y0054739D01*
X0071900Y0054739D02*
X0007100Y0054739D01*
X0007100Y0053741D02*
X0153800Y0053741D01*
X0153800Y0052742D02*
X0007100Y0052742D01*
X0007100Y0051744D02*
X0153800Y0051744D01*
X0153800Y0050745D02*
X0007100Y0050745D01*
X0007100Y0049747D02*
X0153693Y0049747D01*
X0152694Y0048748D02*
X0007100Y0048748D01*
X0007100Y0047750D02*
X0151969Y0047750D01*
X0151969Y0046751D02*
X0007100Y0046751D01*
X0007100Y0045753D02*
X0151969Y0045753D01*
X0151969Y0044754D02*
X0007100Y0044754D01*
X0007100Y0043756D02*
X0152690Y0043756D01*
X0153688Y0042757D02*
X0007100Y0042757D01*
X0007100Y0041759D02*
X0211775Y0041759D01*
X0211965Y0041302D02*
X0213802Y0039465D01*
X0216201Y0038471D01*
X0218799Y0038471D01*
X0221198Y0039465D01*
X0223035Y0041302D01*
X0224029Y0043701D01*
X0224029Y0046299D01*
X0223035Y0048698D01*
X0221198Y0050535D01*
X0218799Y0051529D01*
X0216201Y0051529D01*
X0213802Y0050535D01*
X0211965Y0048698D01*
X0210971Y0046299D01*
X0210971Y0043701D01*
X0211965Y0041302D01*
X0212506Y0040760D02*
X0208959Y0040760D01*
X0208888Y0040783D02*
X0208000Y0040924D01*
X0208000Y0035500D01*
X0213424Y0035500D01*
X0213283Y0036388D01*
X0212995Y0037276D01*
X0212571Y0038108D01*
X0212022Y0038863D01*
X0211363Y0039522D01*
X0210608Y0040071D01*
X0209776Y0040495D01*
X0208888Y0040783D01*
X0208000Y0040760D02*
X0207000Y0040760D01*
X0207000Y0040924D02*
X0206112Y0040783D01*
X0205224Y0040495D01*
X0204392Y0040071D01*
X0203637Y0039522D01*
X0202978Y0038863D01*
X0202429Y0038108D01*
X0202005Y0037276D01*
X0201717Y0036388D01*
X0201576Y0035500D01*
X0207000Y0035500D01*
X0207000Y0040924D01*
X0206041Y0040760D02*
X0007100Y0040760D01*
X0007100Y0039762D02*
X0203967Y0039762D01*
X0202905Y0038763D02*
X0083873Y0038763D01*
X0083487Y0039150D02*
X0079013Y0039150D01*
X0075850Y0035987D01*
X0075850Y0035938D01*
X0073238Y0038550D01*
X0071550Y0038550D01*
X0071550Y0034050D01*
X0070950Y0034050D01*
X0070950Y0038550D01*
X0069262Y0038550D01*
X0066450Y0035738D01*
X0066450Y0034050D01*
X0070950Y0034050D01*
X0070950Y0033450D01*
X0071550Y0033450D01*
X0071550Y0028950D01*
X0073238Y0028950D01*
X0075850Y0031562D01*
X0075850Y0031513D01*
X0079013Y0028350D01*
X0083487Y0028350D01*
X0086650Y0031513D01*
X0086650Y0035987D01*
X0083487Y0039150D01*
X0084872Y0037765D02*
X0202254Y0037765D01*
X0201840Y0036766D02*
X0085870Y0036766D01*
X0086650Y0035768D02*
X0201619Y0035768D01*
X0201576Y0034500D02*
X0201717Y0033612D01*
X0202005Y0032724D01*
X0202429Y0031892D01*
X0202978Y0031137D01*
X0203637Y0030478D01*
X0204392Y0029929D01*
X0205224Y0029505D01*
X0206112Y0029217D01*
X0207000Y0029076D01*
X0207000Y0034500D01*
X0208000Y0034500D01*
X0208000Y0035500D01*
X0207000Y0035500D01*
X0207000Y0034500D01*
X0201576Y0034500D01*
X0201692Y0033771D02*
X0086650Y0033771D01*
X0086650Y0034769D02*
X0207000Y0034769D01*
X0207000Y0033771D02*
X0208000Y0033771D01*
X0208000Y0034500D02*
X0208000Y0029076D01*
X0208888Y0029217D01*
X0209776Y0029505D01*
X0210608Y0029929D01*
X0211363Y0030478D01*
X0212022Y0031137D01*
X0212571Y0031892D01*
X0212995Y0032724D01*
X0213283Y0033612D01*
X0213424Y0034500D01*
X0208000Y0034500D01*
X0208000Y0034769D02*
X0227000Y0034769D01*
X0227000Y0034500D02*
X0221576Y0034500D01*
X0221717Y0033612D01*
X0222005Y0032724D01*
X0222429Y0031892D01*
X0222978Y0031137D01*
X0223637Y0030478D01*
X0224392Y0029929D01*
X0225224Y0029505D01*
X0226112Y0029217D01*
X0227000Y0029076D01*
X0227000Y0034500D01*
X0228000Y0034500D01*
X0228000Y0035500D01*
X0233424Y0035500D01*
X0233283Y0036388D01*
X0232995Y0037276D01*
X0232571Y0038108D01*
X0232022Y0038863D01*
X0231363Y0039522D01*
X0230608Y0040071D01*
X0229776Y0040495D01*
X0228888Y0040783D01*
X0228000Y0040924D01*
X0228000Y0035500D01*
X0227000Y0035500D01*
X0227000Y0040924D01*
X0226112Y0040783D01*
X0225224Y0040495D01*
X0224392Y0040071D01*
X0223637Y0039522D01*
X0222978Y0038863D01*
X0222429Y0038108D01*
X0222005Y0037276D01*
X0221717Y0036388D01*
X0221576Y0035500D01*
X0227000Y0035500D01*
X0227000Y0034500D01*
X0227000Y0033771D02*
X0228000Y0033771D01*
X0228000Y0034500D02*
X0228000Y0029076D01*
X0228888Y0029217D01*
X0229776Y0029505D01*
X0230608Y0029929D01*
X0231363Y0030478D01*
X0232022Y0031137D01*
X0232571Y0031892D01*
X0232995Y0032724D01*
X0233283Y0033612D01*
X0233424Y0034500D01*
X0228000Y0034500D01*
X0228000Y0034769D02*
X0272900Y0034769D01*
X0272900Y0033771D02*
X0233308Y0033771D01*
X0233010Y0032772D02*
X0272900Y0032772D01*
X0272900Y0031774D02*
X0232485Y0031774D01*
X0231660Y0030775D02*
X0272900Y0030775D01*
X0272900Y0029777D02*
X0230309Y0029777D01*
X0228000Y0029777D02*
X0227000Y0029777D01*
X0227000Y0030775D02*
X0228000Y0030775D01*
X0228000Y0031774D02*
X0227000Y0031774D01*
X0227000Y0032772D02*
X0228000Y0032772D01*
X0228000Y0035768D02*
X0227000Y0035768D01*
X0227000Y0036766D02*
X0228000Y0036766D01*
X0228000Y0037765D02*
X0227000Y0037765D01*
X0227000Y0038763D02*
X0228000Y0038763D01*
X0228000Y0039762D02*
X0227000Y0039762D01*
X0227000Y0040760D02*
X0228000Y0040760D01*
X0228959Y0040760D02*
X0272900Y0040760D01*
X0272900Y0039762D02*
X0231033Y0039762D01*
X0232095Y0038763D02*
X0272900Y0038763D01*
X0272900Y0037765D02*
X0232746Y0037765D01*
X0233160Y0036766D02*
X0272900Y0036766D01*
X0272900Y0035768D02*
X0233381Y0035768D01*
X0226041Y0040760D02*
X0222494Y0040760D01*
X0223225Y0041759D02*
X0272900Y0041759D01*
X0272900Y0042757D02*
X0223638Y0042757D01*
X0224029Y0043756D02*
X0272900Y0043756D01*
X0272900Y0044754D02*
X0224029Y0044754D01*
X0224029Y0045753D02*
X0272900Y0045753D01*
X0272900Y0046751D02*
X0223842Y0046751D01*
X0223428Y0047750D02*
X0272900Y0047750D01*
X0272900Y0048748D02*
X0222985Y0048748D01*
X0221987Y0049747D02*
X0224750Y0049747D01*
X0224392Y0049929D02*
X0225224Y0049505D01*
X0226112Y0049217D01*
X0227000Y0049076D01*
X0227000Y0054500D01*
X0228000Y0054500D01*
X0228000Y0055500D01*
X0233424Y0055500D01*
X0233283Y0056388D01*
X0232995Y0057276D01*
X0232571Y0058108D01*
X0232022Y0058863D01*
X0231363Y0059522D01*
X0230608Y0060071D01*
X0229776Y0060495D01*
X0228888Y0060783D01*
X0228000Y0060924D01*
X0228000Y0055500D01*
X0227000Y0055500D01*
X0227000Y0060924D01*
X0226112Y0060783D01*
X0225224Y0060495D01*
X0224392Y0060071D01*
X0223637Y0059522D01*
X0222978Y0058863D01*
X0222429Y0058108D01*
X0222005Y0057276D01*
X0221717Y0056388D01*
X0221576Y0055500D01*
X0227000Y0055500D01*
X0227000Y0054500D01*
X0221576Y0054500D01*
X0221717Y0053612D01*
X0222005Y0052724D01*
X0222429Y0051892D01*
X0222978Y0051137D01*
X0223637Y0050478D01*
X0224392Y0049929D01*
X0223370Y0050745D02*
X0220691Y0050745D01*
X0222537Y0051744D02*
X0212463Y0051744D01*
X0212571Y0051892D02*
X0212995Y0052724D01*
X0213283Y0053612D01*
X0213424Y0054500D01*
X0208000Y0054500D01*
X0208000Y0055500D01*
X0213424Y0055500D01*
X0213283Y0056388D01*
X0212995Y0057276D01*
X0212571Y0058108D01*
X0212022Y0058863D01*
X0211363Y0059522D01*
X0210608Y0060071D01*
X0209776Y0060495D01*
X0208888Y0060783D01*
X0208000Y0060924D01*
X0208000Y0055500D01*
X0207000Y0055500D01*
X0207000Y0060924D01*
X0206112Y0060783D01*
X0205224Y0060495D01*
X0204392Y0060071D01*
X0203637Y0059522D01*
X0202978Y0058863D01*
X0202429Y0058108D01*
X0202005Y0057276D01*
X0201717Y0056388D01*
X0201576Y0055500D01*
X0207000Y0055500D01*
X0207000Y0054500D01*
X0208000Y0054500D01*
X0208000Y0049076D01*
X0208888Y0049217D01*
X0209776Y0049505D01*
X0210608Y0049929D01*
X0211363Y0050478D01*
X0212022Y0051137D01*
X0212571Y0051892D01*
X0213001Y0052742D02*
X0221999Y0052742D01*
X0221696Y0053741D02*
X0213304Y0053741D01*
X0213386Y0055738D02*
X0221614Y0055738D01*
X0221830Y0056737D02*
X0213170Y0056737D01*
X0212761Y0057735D02*
X0222239Y0057735D01*
X0222884Y0058734D02*
X0212116Y0058734D01*
X0211074Y0059732D02*
X0223926Y0059732D01*
X0225950Y0060731D02*
X0209050Y0060731D01*
X0208000Y0060731D02*
X0207000Y0060731D01*
X0207000Y0059732D02*
X0208000Y0059732D01*
X0208000Y0058734D02*
X0207000Y0058734D01*
X0207000Y0057735D02*
X0208000Y0057735D01*
X0208000Y0056737D02*
X0207000Y0056737D01*
X0207000Y0055738D02*
X0208000Y0055738D01*
X0208000Y0054739D02*
X0227000Y0054739D01*
X0227000Y0053741D02*
X0228000Y0053741D01*
X0228000Y0054500D02*
X0228000Y0049076D01*
X0228888Y0049217D01*
X0229776Y0049505D01*
X0230608Y0049929D01*
X0231363Y0050478D01*
X0232022Y0051137D01*
X0232571Y0051892D01*
X0232995Y0052724D01*
X0233283Y0053612D01*
X0233424Y0054500D01*
X0228000Y0054500D01*
X0228000Y0054739D02*
X0264400Y0054739D01*
X0264400Y0053741D02*
X0265400Y0053741D01*
X0265400Y0054739D02*
X0272900Y0054739D01*
X0272900Y0061729D02*
X0161200Y0061729D01*
X0161200Y0060731D02*
X0205950Y0060731D01*
X0203926Y0059732D02*
X0161200Y0059732D01*
X0161200Y0058734D02*
X0202884Y0058734D01*
X0202239Y0057735D02*
X0161200Y0057735D01*
X0161200Y0056737D02*
X0201830Y0056737D01*
X0201614Y0055738D02*
X0161200Y0055738D01*
X0161200Y0054739D02*
X0207000Y0054739D01*
X0207000Y0054500D02*
X0201576Y0054500D01*
X0201717Y0053612D01*
X0202005Y0052724D01*
X0202429Y0051892D01*
X0202978Y0051137D01*
X0203637Y0050478D01*
X0204392Y0049929D01*
X0205224Y0049505D01*
X0206112Y0049217D01*
X0207000Y0049076D01*
X0207000Y0054500D01*
X0207000Y0053741D02*
X0208000Y0053741D01*
X0208000Y0052742D02*
X0207000Y0052742D01*
X0207000Y0051744D02*
X0208000Y0051744D01*
X0208000Y0050745D02*
X0207000Y0050745D01*
X0207000Y0049747D02*
X0208000Y0049747D01*
X0210250Y0049747D02*
X0213013Y0049747D01*
X0212015Y0048748D02*
X0161200Y0048748D01*
X0161200Y0047750D02*
X0211572Y0047750D01*
X0211158Y0046751D02*
X0161195Y0046751D01*
X0160781Y0045753D02*
X0210971Y0045753D01*
X0210971Y0044754D02*
X0160531Y0044754D01*
X0159810Y0043756D02*
X0210971Y0043756D01*
X0211362Y0042757D02*
X0158812Y0042757D01*
X0161200Y0049747D02*
X0204750Y0049747D01*
X0203370Y0050745D02*
X0161200Y0050745D01*
X0161200Y0051744D02*
X0202537Y0051744D01*
X0201999Y0052742D02*
X0161200Y0052742D01*
X0161200Y0053741D02*
X0201696Y0053741D01*
X0211630Y0050745D02*
X0214309Y0050745D01*
X0227000Y0050745D02*
X0228000Y0050745D01*
X0228000Y0049747D02*
X0227000Y0049747D01*
X0227000Y0051744D02*
X0228000Y0051744D01*
X0228000Y0052742D02*
X0227000Y0052742D01*
X0227000Y0055738D02*
X0228000Y0055738D01*
X0228000Y0056737D02*
X0227000Y0056737D01*
X0227000Y0057735D02*
X0228000Y0057735D01*
X0228000Y0058734D02*
X0227000Y0058734D01*
X0227000Y0059732D02*
X0228000Y0059732D01*
X0228000Y0060731D02*
X0227000Y0060731D01*
X0229050Y0060731D02*
X0253909Y0060731D01*
X0253400Y0059732D02*
X0231074Y0059732D01*
X0232116Y0058734D02*
X0253400Y0058734D01*
X0253400Y0057735D02*
X0232761Y0057735D01*
X0233170Y0056737D02*
X0253400Y0056737D01*
X0253400Y0055738D02*
X0233386Y0055738D01*
X0233304Y0053741D02*
X0253400Y0053741D01*
X0253400Y0052742D02*
X0233001Y0052742D01*
X0232463Y0051744D02*
X0253400Y0051744D01*
X0253400Y0050745D02*
X0231630Y0050745D01*
X0230250Y0049747D02*
X0253660Y0049747D01*
X0264400Y0049747D02*
X0265400Y0049747D01*
X0265400Y0050745D02*
X0264400Y0050745D01*
X0264400Y0051744D02*
X0265400Y0051744D01*
X0265400Y0052742D02*
X0264400Y0052742D01*
X0264400Y0055738D02*
X0265400Y0055738D01*
X0265400Y0056737D02*
X0264400Y0056737D01*
X0264400Y0057735D02*
X0265400Y0057735D01*
X0265400Y0058734D02*
X0264400Y0058734D01*
X0264400Y0059732D02*
X0265400Y0059732D01*
X0265400Y0060731D02*
X0264400Y0060731D01*
X0272900Y0062728D02*
X0161200Y0062728D01*
X0161200Y0063726D02*
X0272900Y0063726D01*
X0272900Y0064725D02*
X0161200Y0064725D01*
X0161200Y0065723D02*
X0272900Y0065723D01*
X0272900Y0066722D02*
X0161200Y0066722D01*
X0161200Y0067720D02*
X0272900Y0067720D01*
X0272900Y0068719D02*
X0161200Y0068719D01*
X0161200Y0069717D02*
X0272900Y0069717D01*
X0272900Y0070716D02*
X0161200Y0070716D01*
X0161200Y0071714D02*
X0272900Y0071714D01*
X0272900Y0072713D02*
X0161200Y0072713D01*
X0161200Y0073711D02*
X0272900Y0073711D01*
X0272900Y0074710D02*
X0161200Y0074710D01*
X0161200Y0075708D02*
X0272900Y0075708D01*
X0272900Y0076707D02*
X0161200Y0076707D01*
X0161200Y0077705D02*
X0272900Y0077705D01*
X0272900Y0078704D02*
X0161200Y0078704D01*
X0161200Y0079702D02*
X0272900Y0079702D01*
X0272900Y0080701D02*
X0161200Y0080701D01*
X0161200Y0081699D02*
X0272900Y0081699D01*
X0272900Y0082698D02*
X0161200Y0082698D01*
X0161200Y0083696D02*
X0272900Y0083696D01*
X0265400Y0084695D02*
X0264400Y0084695D01*
X0264400Y0085693D02*
X0265400Y0085693D01*
X0265400Y0086692D02*
X0264400Y0086692D01*
X0264400Y0087690D02*
X0265400Y0087690D01*
X0265400Y0090686D02*
X0264400Y0090686D01*
X0264400Y0091684D02*
X0265400Y0091684D01*
X0265400Y0092683D02*
X0264400Y0092683D01*
X0264400Y0093681D02*
X0265400Y0093681D01*
X0265400Y0094680D02*
X0264400Y0094680D01*
X0264400Y0095678D02*
X0265400Y0095678D01*
X0261210Y0128629D02*
X0261100Y0128629D01*
X0260842Y0129628D02*
X0262208Y0129628D01*
X0272900Y0131625D02*
X0224357Y0131625D01*
X0226178Y0132623D02*
X0272900Y0132623D01*
X0272900Y0133622D02*
X0227176Y0133622D01*
X0228031Y0134620D02*
X0272900Y0134620D01*
X0272900Y0135619D02*
X0228031Y0135619D01*
X0228031Y0136617D02*
X0272900Y0136617D01*
X0272900Y0137616D02*
X0228031Y0137616D01*
X0227440Y0138614D02*
X0272900Y0138614D01*
X0272900Y0139613D02*
X0226441Y0139613D01*
X0222360Y0129628D02*
X0250158Y0129628D01*
X0249900Y0128629D02*
X0221362Y0128629D01*
X0219681Y0127631D02*
X0249900Y0127631D01*
X0153800Y0079702D02*
X0091550Y0079702D01*
X0091550Y0078704D02*
X0153800Y0078704D01*
X0153800Y0077705D02*
X0091550Y0077705D01*
X0091550Y0076707D02*
X0153800Y0076707D01*
X0153800Y0075708D02*
X0091534Y0075708D01*
X0091121Y0074710D02*
X0153800Y0074710D01*
X0153800Y0073711D02*
X0090657Y0073711D01*
X0089658Y0072713D02*
X0153800Y0072713D01*
X0144746Y0081699D02*
X0139004Y0081699D01*
X0140002Y0082698D02*
X0143748Y0082698D01*
X0143219Y0083696D02*
X0140863Y0083696D01*
X0141862Y0084695D02*
X0143138Y0084695D01*
X0078627Y0038763D02*
X0007100Y0038763D01*
X0007100Y0037765D02*
X0068477Y0037765D01*
X0067478Y0036766D02*
X0007100Y0036766D01*
X0007100Y0035768D02*
X0012122Y0035768D01*
X0012248Y0035893D02*
X0010757Y0034402D01*
X0009950Y0032454D01*
X0009950Y0030346D01*
X0010757Y0028398D01*
X0012248Y0026907D01*
X0014196Y0026100D01*
X0022704Y0026100D01*
X0024652Y0026907D01*
X0026143Y0028398D01*
X0026950Y0030346D01*
X0026950Y0032454D01*
X0026143Y0034402D01*
X0024652Y0035893D01*
X0022704Y0036700D01*
X0014196Y0036700D01*
X0012248Y0035893D01*
X0011124Y0034769D02*
X0007100Y0034769D01*
X0007100Y0033771D02*
X0010495Y0033771D01*
X0010082Y0032772D02*
X0007100Y0032772D01*
X0007100Y0031774D02*
X0009950Y0031774D01*
X0009950Y0030775D02*
X0007100Y0030775D01*
X0007100Y0029777D02*
X0010186Y0029777D01*
X0010599Y0028778D02*
X0007100Y0028778D01*
X0007100Y0027780D02*
X0011375Y0027780D01*
X0012551Y0026781D02*
X0007100Y0026781D01*
X0007100Y0025783D02*
X0272813Y0025783D01*
X0272900Y0026781D02*
X0049949Y0026781D01*
X0050252Y0026907D02*
X0048304Y0026100D01*
X0039796Y0026100D01*
X0037848Y0026907D01*
X0036357Y0028398D01*
X0035550Y0030346D01*
X0035550Y0032454D01*
X0036357Y0034402D01*
X0037848Y0035893D01*
X0039796Y0036700D01*
X0048304Y0036700D01*
X0050252Y0035893D01*
X0051743Y0034402D01*
X0052550Y0032454D01*
X0052550Y0030346D01*
X0051743Y0028398D01*
X0050252Y0026907D01*
X0051125Y0027780D02*
X0272900Y0027780D01*
X0272900Y0028778D02*
X0083915Y0028778D01*
X0084913Y0029777D02*
X0204691Y0029777D01*
X0203340Y0030775D02*
X0085912Y0030775D01*
X0086650Y0031774D02*
X0202515Y0031774D01*
X0201990Y0032772D02*
X0086650Y0032772D01*
X0078585Y0028778D02*
X0051901Y0028778D01*
X0052314Y0029777D02*
X0068435Y0029777D01*
X0069262Y0028950D02*
X0066450Y0031762D01*
X0066450Y0033450D01*
X0070950Y0033450D01*
X0070950Y0028950D01*
X0069262Y0028950D01*
X0070950Y0029777D02*
X0071550Y0029777D01*
X0071550Y0030775D02*
X0070950Y0030775D01*
X0070950Y0031774D02*
X0071550Y0031774D01*
X0071550Y0032772D02*
X0070950Y0032772D01*
X0070950Y0033771D02*
X0052005Y0033771D01*
X0052418Y0032772D02*
X0066450Y0032772D01*
X0066450Y0031774D02*
X0052550Y0031774D01*
X0052550Y0030775D02*
X0067437Y0030775D01*
X0066450Y0034769D02*
X0051376Y0034769D01*
X0050378Y0035768D02*
X0066480Y0035768D01*
X0070950Y0035768D02*
X0071550Y0035768D01*
X0071550Y0036766D02*
X0070950Y0036766D01*
X0070950Y0037765D02*
X0071550Y0037765D01*
X0074023Y0037765D02*
X0077628Y0037765D01*
X0076630Y0036766D02*
X0075022Y0036766D01*
X0071550Y0034769D02*
X0070950Y0034769D01*
X0075063Y0030775D02*
X0076588Y0030775D01*
X0077587Y0029777D02*
X0074065Y0029777D01*
X0051270Y0016063D02*
X0050835Y0016662D01*
X0050312Y0017185D01*
X0049713Y0017620D01*
X0049054Y0017956D01*
X0048351Y0018184D01*
X0047620Y0018300D01*
X0044550Y0018300D01*
X0044550Y0014100D01*
X0043550Y0014100D01*
X0043550Y0018300D01*
X0040480Y0018300D01*
X0039749Y0018184D01*
X0039046Y0017956D01*
X0038387Y0017620D01*
X0037788Y0017185D01*
X0037265Y0016662D01*
X0036830Y0016063D01*
X0036494Y0015404D01*
X0036266Y0014701D01*
X0036171Y0014100D01*
X0043550Y0014100D01*
X0043550Y0013100D01*
X0044550Y0013100D01*
X0044550Y0014100D01*
X0051929Y0014100D01*
X0051834Y0014701D01*
X0051606Y0015404D01*
X0051270Y0016063D01*
X0051405Y0015798D02*
X0109600Y0015798D01*
X0109600Y0016796D02*
X0050701Y0016796D01*
X0049370Y0017795D02*
X0110158Y0017795D01*
X0109600Y0017237D02*
X0112763Y0020400D01*
X0117237Y0020400D01*
X0120000Y0017637D01*
X0122763Y0020400D01*
X0127237Y0020400D01*
X0130000Y0017637D01*
X0132763Y0020400D01*
X0137237Y0020400D01*
X0140000Y0017637D01*
X0142763Y0020400D01*
X0147237Y0020400D01*
X0150000Y0017637D01*
X0152763Y0020400D01*
X0157237Y0020400D01*
X0160400Y0017237D01*
X0160400Y0017188D01*
X0163012Y0019800D01*
X0164516Y0019800D01*
X0164516Y0015484D01*
X0165484Y0015484D01*
X0169800Y0015484D01*
X0169800Y0016988D01*
X0166988Y0019800D01*
X0165484Y0019800D01*
X0165484Y0015484D01*
X0165484Y0014516D01*
X0165484Y0010200D01*
X0166988Y0010200D01*
X0169800Y0013012D01*
X0169800Y0014516D01*
X0165484Y0014516D01*
X0164516Y0014516D01*
X0164516Y0010200D01*
X0163012Y0010200D01*
X0160400Y0012812D01*
X0160400Y0012763D01*
X0157237Y0009600D01*
X0152763Y0009600D01*
X0150000Y0012363D01*
X0147237Y0009600D01*
X0142763Y0009600D01*
X0140000Y0012363D01*
X0137237Y0009600D01*
X0132763Y0009600D01*
X0130000Y0012363D01*
X0127237Y0009600D01*
X0122763Y0009600D01*
X0120000Y0012363D01*
X0117237Y0009600D01*
X0112763Y0009600D01*
X0109600Y0012763D01*
X0109600Y0017237D01*
X0111156Y0018793D02*
X0007100Y0018793D01*
X0007100Y0017795D02*
X0013130Y0017795D01*
X0013446Y0017956D02*
X0012787Y0017620D01*
X0012188Y0017185D01*
X0011665Y0016662D01*
X0011230Y0016063D01*
X0010894Y0015404D01*
X0010666Y0014701D01*
X0010571Y0014100D01*
X0017950Y0014100D01*
X0017950Y0018300D01*
X0014880Y0018300D01*
X0014149Y0018184D01*
X0013446Y0017956D01*
X0011799Y0016796D02*
X0007100Y0016796D01*
X0007100Y0015798D02*
X0011095Y0015798D01*
X0010698Y0014799D02*
X0007100Y0014799D01*
X0007100Y0013801D02*
X0017950Y0013801D01*
X0017950Y0014100D02*
X0017950Y0013100D01*
X0018950Y0013100D01*
X0018950Y0014100D01*
X0017950Y0014100D01*
X0017950Y0014799D02*
X0018950Y0014799D01*
X0018950Y0014100D02*
X0018950Y0018300D01*
X0022020Y0018300D01*
X0022751Y0018184D01*
X0023454Y0017956D01*
X0024113Y0017620D01*
X0024712Y0017185D01*
X0025235Y0016662D01*
X0025670Y0016063D01*
X0026006Y0015404D01*
X0026234Y0014701D01*
X0026329Y0014100D01*
X0018950Y0014100D01*
X0018950Y0013801D02*
X0043550Y0013801D01*
X0043550Y0013100D02*
X0036171Y0013100D01*
X0036266Y0012499D01*
X0036494Y0011796D01*
X0036830Y0011137D01*
X0037265Y0010538D01*
X0037788Y0010015D01*
X0038387Y0009580D01*
X0039046Y0009244D01*
X0039749Y0009016D01*
X0040480Y0008900D01*
X0043550Y0008900D01*
X0043550Y0013100D01*
X0043550Y0012802D02*
X0044550Y0012802D01*
X0044550Y0013100D02*
X0044550Y0008900D01*
X0047620Y0008900D01*
X0048351Y0009016D01*
X0049054Y0009244D01*
X0049713Y0009580D01*
X0050312Y0010015D01*
X0050835Y0010538D01*
X0051270Y0011137D01*
X0051606Y0011796D01*
X0051834Y0012499D01*
X0051929Y0013100D01*
X0044550Y0013100D01*
X0044550Y0013801D02*
X0109600Y0013801D01*
X0109600Y0014799D02*
X0051802Y0014799D01*
X0051882Y0012802D02*
X0109600Y0012802D01*
X0110560Y0011803D02*
X0051608Y0011803D01*
X0051029Y0010805D02*
X0111558Y0010805D01*
X0112557Y0009806D02*
X0050025Y0009806D01*
X0044550Y0009806D02*
X0043550Y0009806D01*
X0043550Y0010805D02*
X0044550Y0010805D01*
X0044550Y0011803D02*
X0043550Y0011803D01*
X0043550Y0014799D02*
X0044550Y0014799D01*
X0044550Y0015798D02*
X0043550Y0015798D01*
X0043550Y0016796D02*
X0044550Y0016796D01*
X0044550Y0017795D02*
X0043550Y0017795D01*
X0038730Y0017795D02*
X0023770Y0017795D01*
X0025101Y0016796D02*
X0037399Y0016796D01*
X0036695Y0015798D02*
X0025805Y0015798D01*
X0026202Y0014799D02*
X0036298Y0014799D01*
X0036218Y0012802D02*
X0026282Y0012802D01*
X0026329Y0013100D02*
X0018950Y0013100D01*
X0018950Y0008900D01*
X0022020Y0008900D01*
X0022751Y0009016D01*
X0023454Y0009244D01*
X0024113Y0009580D01*
X0024712Y0010015D01*
X0025235Y0010538D01*
X0025670Y0011137D01*
X0026006Y0011796D01*
X0026234Y0012499D01*
X0026329Y0013100D01*
X0026008Y0011803D02*
X0036492Y0011803D01*
X0037071Y0010805D02*
X0025429Y0010805D01*
X0024425Y0009806D02*
X0038075Y0009806D01*
X0018950Y0009806D02*
X0017950Y0009806D01*
X0017950Y0008900D02*
X0014880Y0008900D01*
X0014149Y0009016D01*
X0013446Y0009244D01*
X0012787Y0009580D01*
X0012188Y0010015D01*
X0011665Y0010538D01*
X0011230Y0011137D01*
X0010894Y0011796D01*
X0010666Y0012499D01*
X0010571Y0013100D01*
X0017950Y0013100D01*
X0017950Y0008900D01*
X0017950Y0010805D02*
X0018950Y0010805D01*
X0018950Y0011803D02*
X0017950Y0011803D01*
X0017950Y0012802D02*
X0018950Y0012802D01*
X0018950Y0015798D02*
X0017950Y0015798D01*
X0017950Y0016796D02*
X0018950Y0016796D01*
X0018950Y0017795D02*
X0017950Y0017795D01*
X0010618Y0012802D02*
X0007100Y0012802D01*
X0007100Y0011803D02*
X0010892Y0011803D01*
X0011471Y0010805D02*
X0007100Y0010805D01*
X0007100Y0009806D02*
X0012475Y0009806D01*
X0007100Y0008808D02*
X0262900Y0008808D01*
X0262900Y0009806D02*
X0257443Y0009806D01*
X0257237Y0009600D02*
X0260400Y0012763D01*
X0260400Y0017237D01*
X0257237Y0020400D01*
X0252763Y0020400D01*
X0250000Y0017637D01*
X0247237Y0020400D01*
X0242763Y0020400D01*
X0240000Y0017637D01*
X0237237Y0020400D01*
X0232763Y0020400D01*
X0230000Y0017637D01*
X0227237Y0020400D01*
X0222763Y0020400D01*
X0220000Y0017637D01*
X0217237Y0020400D01*
X0212763Y0020400D01*
X0210000Y0017637D01*
X0207237Y0020400D01*
X0202763Y0020400D01*
X0199600Y0017237D01*
X0199600Y0012763D01*
X0202763Y0009600D01*
X0207237Y0009600D01*
X0210000Y0012363D01*
X0212763Y0009600D01*
X0217237Y0009600D01*
X0220000Y0012363D01*
X0222763Y0009600D01*
X0227237Y0009600D01*
X0230000Y0012363D01*
X0232763Y0009600D01*
X0237237Y0009600D01*
X0240000Y0012363D01*
X0242763Y0009600D01*
X0247237Y0009600D01*
X0250000Y0012363D01*
X0252763Y0009600D01*
X0257237Y0009600D01*
X0258442Y0010805D02*
X0262900Y0010805D01*
X0262900Y0011803D02*
X0259440Y0011803D01*
X0260400Y0012802D02*
X0262900Y0012802D01*
X0262900Y0013801D02*
X0260400Y0013801D01*
X0260400Y0014799D02*
X0262900Y0014799D01*
X0262900Y0015798D02*
X0260400Y0015798D01*
X0260400Y0016796D02*
X0263826Y0016796D01*
X0264825Y0017795D02*
X0259842Y0017795D01*
X0258844Y0018793D02*
X0265823Y0018793D01*
X0266822Y0019792D02*
X0257845Y0019792D01*
X0252155Y0019792D02*
X0247845Y0019792D01*
X0248844Y0018793D02*
X0251156Y0018793D01*
X0250158Y0017795D02*
X0249842Y0017795D01*
X0249440Y0011803D02*
X0250560Y0011803D01*
X0251558Y0010805D02*
X0248442Y0010805D01*
X0247443Y0009806D02*
X0252557Y0009806D01*
X0242557Y0009806D02*
X0237443Y0009806D01*
X0238442Y0010805D02*
X0241558Y0010805D01*
X0240560Y0011803D02*
X0239440Y0011803D01*
X0239842Y0017795D02*
X0240158Y0017795D01*
X0241156Y0018793D02*
X0238844Y0018793D01*
X0237845Y0019792D02*
X0242155Y0019792D01*
X0232155Y0019792D02*
X0227845Y0019792D01*
X0228844Y0018793D02*
X0231156Y0018793D01*
X0230158Y0017795D02*
X0229842Y0017795D01*
X0229440Y0011803D02*
X0230560Y0011803D01*
X0231558Y0010805D02*
X0228442Y0010805D01*
X0227443Y0009806D02*
X0232557Y0009806D01*
X0222557Y0009806D02*
X0217443Y0009806D01*
X0218442Y0010805D02*
X0221558Y0010805D01*
X0220560Y0011803D02*
X0219440Y0011803D01*
X0219842Y0017795D02*
X0220158Y0017795D01*
X0221156Y0018793D02*
X0218844Y0018793D01*
X0217845Y0019792D02*
X0222155Y0019792D01*
X0212155Y0019792D02*
X0207845Y0019792D01*
X0208844Y0018793D02*
X0211156Y0018793D01*
X0210158Y0017795D02*
X0209842Y0017795D01*
X0209440Y0011803D02*
X0210560Y0011803D01*
X0211558Y0010805D02*
X0208442Y0010805D01*
X0207443Y0009806D02*
X0212557Y0009806D01*
X0202557Y0009806D02*
X0187443Y0009806D01*
X0187237Y0009600D02*
X0190400Y0012763D01*
X0190400Y0017237D01*
X0187237Y0020400D01*
X0182763Y0020400D01*
X0179600Y0017237D01*
X0179600Y0017188D01*
X0176988Y0019800D01*
X0175484Y0019800D01*
X0175484Y0015484D01*
X0174516Y0015484D01*
X0174516Y0014516D01*
X0175484Y0014516D01*
X0175484Y0010200D01*
X0176988Y0010200D01*
X0179600Y0012812D01*
X0179600Y0012763D01*
X0182763Y0009600D01*
X0187237Y0009600D01*
X0188442Y0010805D02*
X0201558Y0010805D01*
X0200560Y0011803D02*
X0189440Y0011803D01*
X0190400Y0012802D02*
X0199600Y0012802D01*
X0199600Y0013801D02*
X0190400Y0013801D01*
X0190400Y0014799D02*
X0199600Y0014799D01*
X0199600Y0015798D02*
X0190400Y0015798D01*
X0190400Y0016796D02*
X0199600Y0016796D01*
X0200158Y0017795D02*
X0189842Y0017795D01*
X0188844Y0018793D02*
X0201156Y0018793D01*
X0202155Y0019792D02*
X0187845Y0019792D01*
X0182155Y0019792D02*
X0176997Y0019792D01*
X0177995Y0018793D02*
X0181156Y0018793D01*
X0180158Y0017795D02*
X0178994Y0017795D01*
X0175484Y0017795D02*
X0174516Y0017795D01*
X0174516Y0018793D02*
X0175484Y0018793D01*
X0175484Y0019792D02*
X0174516Y0019792D01*
X0174516Y0019800D02*
X0173012Y0019800D01*
X0170200Y0016988D01*
X0170200Y0015484D01*
X0174516Y0015484D01*
X0174516Y0019800D01*
X0173003Y0019792D02*
X0166997Y0019792D01*
X0167995Y0018793D02*
X0172005Y0018793D01*
X0171006Y0017795D02*
X0168994Y0017795D01*
X0169800Y0016796D02*
X0170200Y0016796D01*
X0170200Y0015798D02*
X0169800Y0015798D01*
X0170200Y0014516D02*
X0170200Y0013012D01*
X0173012Y0010200D01*
X0174516Y0010200D01*
X0174516Y0014516D01*
X0170200Y0014516D01*
X0170200Y0013801D02*
X0169800Y0013801D01*
X0169590Y0012802D02*
X0170410Y0012802D01*
X0171408Y0011803D02*
X0168592Y0011803D01*
X0167593Y0010805D02*
X0172407Y0010805D01*
X0174516Y0010805D02*
X0175484Y0010805D01*
X0175484Y0011803D02*
X0174516Y0011803D01*
X0174516Y0012802D02*
X0175484Y0012802D01*
X0175484Y0013801D02*
X0174516Y0013801D01*
X0174516Y0014799D02*
X0165484Y0014799D01*
X0165484Y0013801D02*
X0164516Y0013801D01*
X0164516Y0012802D02*
X0165484Y0012802D01*
X0165484Y0011803D02*
X0164516Y0011803D01*
X0164516Y0010805D02*
X0165484Y0010805D01*
X0162407Y0010805D02*
X0158442Y0010805D01*
X0159440Y0011803D02*
X0161408Y0011803D01*
X0160410Y0012802D02*
X0160400Y0012802D01*
X0157443Y0009806D02*
X0182557Y0009806D01*
X0181558Y0010805D02*
X0177593Y0010805D01*
X0178592Y0011803D02*
X0180560Y0011803D01*
X0179600Y0012802D02*
X0179590Y0012802D01*
X0175484Y0015798D02*
X0174516Y0015798D01*
X0174516Y0016796D02*
X0175484Y0016796D01*
X0165484Y0016796D02*
X0164516Y0016796D01*
X0164516Y0015798D02*
X0165484Y0015798D01*
X0165484Y0017795D02*
X0164516Y0017795D01*
X0164516Y0018793D02*
X0165484Y0018793D01*
X0165484Y0019792D02*
X0164516Y0019792D01*
X0163003Y0019792D02*
X0157845Y0019792D01*
X0158844Y0018793D02*
X0162005Y0018793D01*
X0161006Y0017795D02*
X0159842Y0017795D01*
X0152155Y0019792D02*
X0147845Y0019792D01*
X0148844Y0018793D02*
X0151156Y0018793D01*
X0150158Y0017795D02*
X0149842Y0017795D01*
X0149440Y0011803D02*
X0150560Y0011803D01*
X0151558Y0010805D02*
X0148442Y0010805D01*
X0147443Y0009806D02*
X0152557Y0009806D01*
X0142557Y0009806D02*
X0137443Y0009806D01*
X0138442Y0010805D02*
X0141558Y0010805D01*
X0140560Y0011803D02*
X0139440Y0011803D01*
X0139842Y0017795D02*
X0140158Y0017795D01*
X0141156Y0018793D02*
X0138844Y0018793D01*
X0137845Y0019792D02*
X0142155Y0019792D01*
X0132155Y0019792D02*
X0127845Y0019792D01*
X0128844Y0018793D02*
X0131156Y0018793D01*
X0130158Y0017795D02*
X0129842Y0017795D01*
X0129440Y0011803D02*
X0130560Y0011803D01*
X0131558Y0010805D02*
X0128442Y0010805D01*
X0127443Y0009806D02*
X0132557Y0009806D01*
X0122557Y0009806D02*
X0117443Y0009806D01*
X0118442Y0010805D02*
X0121558Y0010805D01*
X0120560Y0011803D02*
X0119440Y0011803D01*
X0119842Y0017795D02*
X0120158Y0017795D01*
X0121156Y0018793D02*
X0118844Y0018793D01*
X0117845Y0019792D02*
X0122155Y0019792D01*
X0112155Y0019792D02*
X0007100Y0019792D01*
X0007100Y0020790D02*
X0267820Y0020790D01*
X0268819Y0021789D02*
X0007100Y0021789D01*
X0007100Y0022787D02*
X0269817Y0022787D01*
X0270816Y0023786D02*
X0007100Y0023786D01*
X0007100Y0024784D02*
X0271814Y0024784D01*
X0262900Y0007809D02*
X0007100Y0007809D01*
X0024349Y0026781D02*
X0038151Y0026781D01*
X0036975Y0027780D02*
X0025525Y0027780D01*
X0026301Y0028778D02*
X0036199Y0028778D01*
X0035786Y0029777D02*
X0026714Y0029777D01*
X0026950Y0030775D02*
X0035550Y0030775D01*
X0035550Y0031774D02*
X0026950Y0031774D01*
X0026818Y0032772D02*
X0035682Y0032772D01*
X0036095Y0033771D02*
X0026405Y0033771D01*
X0025776Y0034769D02*
X0036724Y0034769D01*
X0037722Y0035768D02*
X0024778Y0035768D01*
X0007100Y0055738D02*
X0069817Y0055738D01*
X0068818Y0056737D02*
X0007100Y0056737D01*
X0007100Y0057735D02*
X0068252Y0057735D01*
X0067838Y0058734D02*
X0007100Y0058734D01*
X0007100Y0059732D02*
X0067750Y0059732D01*
X0067750Y0060731D02*
X0007100Y0060731D01*
X0007100Y0061729D02*
X0068030Y0061729D01*
X0068443Y0062728D02*
X0007100Y0062728D01*
X0007100Y0063726D02*
X0069281Y0063726D01*
X0070607Y0064725D02*
X0007100Y0064725D01*
X0207000Y0039762D02*
X0208000Y0039762D01*
X0208000Y0038763D02*
X0207000Y0038763D01*
X0207000Y0037765D02*
X0208000Y0037765D01*
X0208000Y0036766D02*
X0207000Y0036766D01*
X0207000Y0035768D02*
X0208000Y0035768D01*
X0208000Y0032772D02*
X0207000Y0032772D01*
X0207000Y0031774D02*
X0208000Y0031774D01*
X0208000Y0030775D02*
X0207000Y0030775D01*
X0207000Y0029777D02*
X0208000Y0029777D01*
X0210309Y0029777D02*
X0224691Y0029777D01*
X0223340Y0030775D02*
X0211660Y0030775D01*
X0212485Y0031774D02*
X0222515Y0031774D01*
X0221990Y0032772D02*
X0213010Y0032772D01*
X0213308Y0033771D02*
X0221692Y0033771D01*
X0221619Y0035768D02*
X0213381Y0035768D01*
X0213160Y0036766D02*
X0221840Y0036766D01*
X0222254Y0037765D02*
X0212746Y0037765D01*
X0212095Y0038763D02*
X0215495Y0038763D01*
X0213505Y0039762D02*
X0211033Y0039762D01*
X0219505Y0038763D02*
X0222905Y0038763D01*
X0223967Y0039762D02*
X0221495Y0039762D01*
D19*
X0147500Y0085000D02*
X0145000Y0087500D01*
X0145000Y0181000D01*
X0169000Y0205000D01*
X0159000Y0205000D02*
X0140000Y0186000D01*
X0140000Y0087500D01*
X0137500Y0085000D01*
X0136250Y0085000D01*
M02*
