G75*
%MOIN*%
%OFA0B0*%
%FSLAX25Y25*%
%IPPOS*%
%LPD*%
%AMOC8*
5,1,8,0,0,1.08239X$1,22.5*
%
%ADD10C,0.00700*%
%ADD11R,0.07887X0.07099*%
%ADD12R,0.07099X0.07887*%
%ADD13OC8,0.07400*%
%ADD14OC8,0.07800*%
%ADD15R,0.07800X0.07800*%
%ADD16R,0.07099X0.07898*%
%ADD17R,0.07898X0.07099*%
%ADD18C,0.07200*%
%ADD19R,0.08400X0.15800*%
%ADD20R,0.15800X0.08400*%
%ADD21C,0.09658*%
%ADD22R,0.20800X0.09800*%
%ADD23R,0.04737X0.06312*%
D10*
X0022946Y0051600D02*
X0020845Y0053702D01*
X0022946Y0055804D01*
X0027150Y0055804D01*
X0027150Y0058045D02*
X0020845Y0058045D01*
X0020845Y0061198D01*
X0021896Y0062249D01*
X0023997Y0062249D01*
X0025048Y0061198D01*
X0025048Y0058045D01*
X0025048Y0060147D02*
X0027150Y0062249D01*
X0027150Y0064491D02*
X0027150Y0067644D01*
X0026099Y0068695D01*
X0021896Y0068695D01*
X0020845Y0067644D01*
X0020845Y0064491D01*
X0027150Y0064491D01*
X0033745Y0063754D02*
X0039650Y0067691D01*
X0033745Y0067691D01*
X0033745Y0069832D02*
X0033745Y0072784D01*
X0034729Y0073768D01*
X0038666Y0073768D01*
X0039650Y0072784D01*
X0039650Y0069832D01*
X0033745Y0069832D01*
X0033745Y0063754D02*
X0039650Y0063754D01*
X0039650Y0061614D02*
X0035713Y0061614D01*
X0033745Y0059646D01*
X0035713Y0057677D01*
X0039650Y0057677D01*
X0039650Y0055537D02*
X0033745Y0055537D01*
X0036697Y0055537D02*
X0036697Y0051600D01*
X0033745Y0051600D02*
X0039650Y0051600D01*
X0036697Y0057677D02*
X0036697Y0061614D01*
X0046963Y0061614D02*
X0049916Y0061614D01*
X0050900Y0060630D01*
X0049916Y0059646D01*
X0050900Y0058661D01*
X0049916Y0057677D01*
X0046963Y0057677D01*
X0046963Y0055537D02*
X0049916Y0055537D01*
X0050900Y0054553D01*
X0049916Y0053568D01*
X0050900Y0052584D01*
X0049916Y0051600D01*
X0046963Y0051600D01*
X0046963Y0063754D02*
X0049916Y0063754D01*
X0050900Y0064739D01*
X0049916Y0065723D01*
X0050900Y0066707D01*
X0049916Y0067691D01*
X0046963Y0067691D01*
X0049916Y0069832D02*
X0049916Y0070816D01*
X0050900Y0070816D01*
X0050900Y0069832D01*
X0049916Y0069832D01*
X0049916Y0072870D02*
X0050900Y0073854D01*
X0050900Y0076807D01*
X0051884Y0076807D02*
X0046963Y0076807D01*
X0046963Y0073854D01*
X0047947Y0072870D01*
X0049916Y0072870D01*
X0052868Y0074839D02*
X0052868Y0075823D01*
X0051884Y0076807D01*
X0050900Y0078947D02*
X0050900Y0080916D01*
X0050900Y0079932D02*
X0046963Y0079932D01*
X0046963Y0078947D01*
X0044995Y0079932D02*
X0044011Y0079932D01*
X0046963Y0082999D02*
X0046963Y0084967D01*
X0045979Y0083983D02*
X0049916Y0083983D01*
X0050900Y0084967D01*
X0050900Y0087050D02*
X0044995Y0087050D01*
X0046963Y0088034D02*
X0046963Y0090003D01*
X0047947Y0090987D01*
X0050900Y0090987D01*
X0049916Y0093127D02*
X0050900Y0094112D01*
X0050900Y0097064D01*
X0046963Y0097064D01*
X0046963Y0099205D02*
X0046963Y0102157D01*
X0047947Y0103141D01*
X0049916Y0103141D01*
X0050900Y0102157D01*
X0050900Y0099205D01*
X0044995Y0099205D01*
X0049916Y0105282D02*
X0049916Y0106266D01*
X0050900Y0106266D01*
X0050900Y0105282D01*
X0049916Y0105282D01*
X0049916Y0108320D02*
X0050900Y0109305D01*
X0050900Y0112257D01*
X0049916Y0114398D02*
X0050900Y0115382D01*
X0050900Y0117350D01*
X0049916Y0118334D01*
X0047947Y0118334D01*
X0046963Y0117350D01*
X0046963Y0115382D01*
X0047947Y0114398D01*
X0049916Y0114398D01*
X0046963Y0112257D02*
X0046963Y0109305D01*
X0047947Y0108320D01*
X0049916Y0108320D01*
X0039650Y0112315D02*
X0036697Y0112315D01*
X0034729Y0114283D01*
X0033745Y0114283D01*
X0033745Y0116423D02*
X0033745Y0119376D01*
X0034729Y0120360D01*
X0038666Y0120360D01*
X0039650Y0119376D01*
X0039650Y0116423D01*
X0033745Y0116423D01*
X0036697Y0112315D02*
X0034729Y0110346D01*
X0033745Y0110346D01*
X0027150Y0111665D02*
X0020845Y0107461D01*
X0020845Y0105219D02*
X0020845Y0101015D01*
X0020845Y0103117D02*
X0027150Y0103117D01*
X0027150Y0107461D02*
X0020845Y0111665D01*
X0023997Y0113906D02*
X0023997Y0118110D01*
X0022946Y0120352D02*
X0021896Y0120352D01*
X0020845Y0121403D01*
X0020845Y0123505D01*
X0021896Y0124556D01*
X0022946Y0124556D01*
X0023997Y0123505D01*
X0023997Y0121403D01*
X0022946Y0120352D01*
X0023997Y0121403D02*
X0025048Y0120352D01*
X0026099Y0120352D01*
X0027150Y0121403D01*
X0027150Y0123505D01*
X0026099Y0124556D01*
X0025048Y0124556D01*
X0023997Y0123505D01*
X0022946Y0126797D02*
X0020845Y0128899D01*
X0027150Y0128899D01*
X0027150Y0126797D02*
X0027150Y0131001D01*
X0026099Y0133243D02*
X0025048Y0133243D01*
X0023997Y0134294D01*
X0023997Y0136396D01*
X0025048Y0137447D01*
X0026099Y0137447D01*
X0027150Y0136396D01*
X0027150Y0134294D01*
X0026099Y0133243D01*
X0023997Y0134294D02*
X0022946Y0133243D01*
X0021896Y0133243D01*
X0020845Y0134294D01*
X0020845Y0136396D01*
X0021896Y0137447D01*
X0022946Y0137447D01*
X0023997Y0136396D01*
X0025048Y0139688D02*
X0020845Y0139688D01*
X0025048Y0139688D02*
X0027150Y0141790D01*
X0025048Y0143892D01*
X0020845Y0143892D01*
X0021896Y0152579D02*
X0022946Y0152579D01*
X0023997Y0153630D01*
X0023997Y0155732D01*
X0025048Y0156783D01*
X0026099Y0156783D01*
X0027150Y0155732D01*
X0027150Y0153630D01*
X0026099Y0152579D01*
X0021896Y0152579D02*
X0020845Y0153630D01*
X0020845Y0155732D01*
X0021896Y0156783D01*
X0020845Y0159025D02*
X0027150Y0159025D01*
X0023997Y0159025D02*
X0023997Y0163229D01*
X0020845Y0163229D02*
X0027150Y0163229D01*
X0027150Y0165470D02*
X0027150Y0167572D01*
X0027150Y0166521D02*
X0020845Y0166521D01*
X0020845Y0165470D02*
X0020845Y0167572D01*
X0020845Y0169767D02*
X0027150Y0169767D01*
X0027150Y0173971D01*
X0027150Y0176213D02*
X0027150Y0180417D01*
X0027150Y0182658D02*
X0027150Y0185811D01*
X0026099Y0186862D01*
X0021896Y0186862D01*
X0020845Y0185811D01*
X0020845Y0182658D01*
X0027150Y0182658D01*
X0027150Y0176213D02*
X0020845Y0176213D01*
X0020845Y0173971D02*
X0020845Y0169767D01*
X0023997Y0169767D02*
X0023997Y0171869D01*
X0046963Y0169006D02*
X0046963Y0167038D01*
X0047947Y0166054D01*
X0049916Y0166054D01*
X0050900Y0167038D01*
X0050900Y0169006D01*
X0049916Y0169990D01*
X0047947Y0169990D01*
X0046963Y0169006D01*
X0046963Y0163942D02*
X0048932Y0160989D01*
X0050900Y0163942D01*
X0050900Y0160989D02*
X0044995Y0160989D01*
X0044995Y0157922D02*
X0044011Y0157922D01*
X0046963Y0157922D02*
X0050900Y0157922D01*
X0050900Y0156938D02*
X0050900Y0158906D01*
X0050900Y0154797D02*
X0050900Y0151845D01*
X0049916Y0150861D01*
X0047947Y0150861D01*
X0046963Y0151845D01*
X0046963Y0154797D01*
X0044995Y0154797D02*
X0050900Y0154797D01*
X0046963Y0156938D02*
X0046963Y0157922D01*
X0047947Y0148720D02*
X0046963Y0147736D01*
X0046963Y0144784D01*
X0050900Y0144784D01*
X0050900Y0142643D02*
X0047947Y0142643D01*
X0046963Y0141659D01*
X0046963Y0139691D01*
X0048932Y0139691D02*
X0048932Y0142643D01*
X0050900Y0142643D02*
X0050900Y0139691D01*
X0049916Y0138706D01*
X0048932Y0139691D01*
X0047947Y0136566D02*
X0050900Y0136566D01*
X0047947Y0136566D02*
X0046963Y0135582D01*
X0046963Y0133613D01*
X0047947Y0132629D01*
X0044995Y0132629D02*
X0050900Y0132629D01*
X0050900Y0126552D02*
X0044995Y0130489D01*
X0039650Y0129562D02*
X0038666Y0128578D01*
X0039650Y0129562D02*
X0039650Y0131530D01*
X0038666Y0132514D01*
X0037682Y0132514D01*
X0036697Y0131530D01*
X0036697Y0129562D01*
X0035713Y0128578D01*
X0034729Y0128578D01*
X0033745Y0129562D01*
X0033745Y0131530D01*
X0034729Y0132514D01*
X0033745Y0134655D02*
X0033745Y0137607D01*
X0034729Y0138592D01*
X0038666Y0138592D01*
X0039650Y0137607D01*
X0039650Y0134655D01*
X0033745Y0134655D01*
X0033745Y0140732D02*
X0039650Y0140732D01*
X0039650Y0144669D01*
X0047947Y0148720D02*
X0050900Y0148720D01*
X0039650Y0126437D02*
X0039650Y0122501D01*
X0039650Y0124469D02*
X0033745Y0124469D01*
X0035713Y0122501D01*
X0046963Y0123427D02*
X0047947Y0124411D01*
X0050900Y0124411D01*
X0050900Y0122443D02*
X0047947Y0122443D01*
X0046963Y0123427D01*
X0047947Y0122443D02*
X0046963Y0121459D01*
X0046963Y0120475D01*
X0050900Y0120475D01*
X0036697Y0102128D02*
X0036697Y0098192D01*
X0034729Y0089974D02*
X0033745Y0088990D01*
X0033745Y0087022D01*
X0034729Y0086037D01*
X0038666Y0086037D01*
X0039650Y0087022D01*
X0039650Y0088990D01*
X0038666Y0089974D01*
X0034729Y0089974D01*
X0033745Y0083897D02*
X0037682Y0079960D01*
X0036697Y0080944D02*
X0039650Y0083897D01*
X0039650Y0079960D02*
X0033745Y0079960D01*
X0033745Y0077877D02*
X0033745Y0075909D01*
X0033745Y0076893D02*
X0039650Y0076893D01*
X0039650Y0075909D02*
X0039650Y0077877D01*
X0047947Y0087050D02*
X0046963Y0088034D01*
X0046963Y0093127D02*
X0049916Y0093127D01*
X0027150Y0091277D02*
X0027150Y0089175D01*
X0026099Y0088124D01*
X0021896Y0088124D01*
X0020845Y0089175D01*
X0020845Y0091277D01*
X0021896Y0092328D01*
X0026099Y0092328D01*
X0027150Y0091277D01*
X0027150Y0085883D02*
X0020845Y0085883D01*
X0020845Y0081679D02*
X0027150Y0085883D01*
X0027150Y0081679D02*
X0020845Y0081679D01*
X0020845Y0079484D02*
X0020845Y0077382D01*
X0020845Y0078433D02*
X0027150Y0078433D01*
X0027150Y0077382D02*
X0027150Y0079484D01*
X0026099Y0075140D02*
X0020845Y0075140D01*
X0020845Y0070936D02*
X0026099Y0070936D01*
X0027150Y0071987D01*
X0027150Y0074089D01*
X0026099Y0075140D01*
X0023997Y0055804D02*
X0023997Y0051600D01*
X0022946Y0051600D02*
X0027150Y0051600D01*
X0023997Y0195549D02*
X0023997Y0199753D01*
X0022946Y0208440D02*
X0027150Y0210542D01*
X0022946Y0212644D01*
X0022946Y0214886D02*
X0020845Y0216988D01*
X0027150Y0216988D01*
X0027150Y0214886D02*
X0027150Y0219090D01*
X0027150Y0221331D02*
X0027150Y0222382D01*
X0026099Y0222382D01*
X0026099Y0221331D01*
X0027150Y0221331D01*
X0026099Y0224554D02*
X0021896Y0228758D01*
X0026099Y0228758D01*
X0027150Y0227707D01*
X0027150Y0225605D01*
X0026099Y0224554D01*
X0021896Y0224554D01*
X0020845Y0225605D01*
X0020845Y0227707D01*
X0021896Y0228758D01*
D11*
X0168750Y0190512D03*
X0168750Y0179488D03*
X0188750Y0174262D03*
X0201250Y0174262D03*
X0201250Y0163238D03*
X0188750Y0163238D03*
X0218750Y0163238D03*
X0218750Y0174262D03*
X0235000Y0174262D03*
X0245000Y0174262D03*
X0255000Y0174262D03*
X0255000Y0163238D03*
X0245000Y0163238D03*
X0235000Y0163238D03*
D12*
X0111762Y0060000D03*
X0100738Y0060000D03*
X0100738Y0050000D03*
X0111762Y0050000D03*
X0154488Y0033750D03*
X0165512Y0033750D03*
D13*
X0165000Y0015000D03*
X0155000Y0015000D03*
X0145000Y0015000D03*
X0135000Y0015000D03*
X0125000Y0015000D03*
X0115000Y0015000D03*
X0081250Y0033750D03*
X0071250Y0033750D03*
X0175000Y0015000D03*
X0185000Y0015000D03*
X0205000Y0015000D03*
X0215000Y0015000D03*
X0225000Y0015000D03*
X0235000Y0015000D03*
X0245000Y0015000D03*
X0255000Y0015000D03*
X0107500Y0178750D03*
X0097500Y0178750D03*
X0099000Y0205000D03*
X0089000Y0205000D03*
X0079000Y0205000D03*
X0109000Y0205000D03*
X0119000Y0205000D03*
X0129000Y0205000D03*
X0139000Y0205000D03*
X0149000Y0205000D03*
X0159000Y0205000D03*
X0169000Y0205000D03*
X0185000Y0205000D03*
X0195000Y0205000D03*
X0205000Y0205000D03*
X0215000Y0205000D03*
X0225000Y0205000D03*
X0235000Y0205000D03*
X0245000Y0205000D03*
X0255000Y0205000D03*
D14*
X0265500Y0125000D03*
X0265500Y0115000D03*
X0255500Y0115000D03*
X0255500Y0105000D03*
X0265500Y0105000D03*
D15*
X0255500Y0125000D03*
D16*
X0111848Y0033750D03*
X0100652Y0033750D03*
D17*
X0118750Y0179402D03*
X0118750Y0190598D03*
X0178750Y0190598D03*
X0178750Y0179402D03*
D18*
X0021650Y0013600D02*
X0015250Y0013600D01*
X0015250Y0031400D02*
X0021650Y0031400D01*
X0040850Y0031400D02*
X0047250Y0031400D01*
X0047250Y0013600D02*
X0040850Y0013600D01*
X0073050Y0060000D02*
X0079450Y0060000D01*
X0086250Y0076800D02*
X0086250Y0083200D01*
X0066250Y0083200D02*
X0066250Y0076800D01*
D19*
X0112835Y0074508D03*
X0130354Y0074508D03*
X0147874Y0074705D03*
X0165394Y0074508D03*
X0182913Y0074508D03*
X0200433Y0074508D03*
X0217953Y0074508D03*
X0217953Y0149705D03*
X0200433Y0149705D03*
X0182913Y0149705D03*
X0165394Y0149705D03*
X0147874Y0149705D03*
X0130354Y0149705D03*
X0112835Y0149705D03*
D20*
X0235669Y0139272D03*
X0235669Y0121161D03*
X0235669Y0103051D03*
X0235669Y0084941D03*
D21*
X0227500Y0055000D03*
X0217500Y0045000D03*
X0207500Y0055000D03*
X0207500Y0035000D03*
X0227500Y0035000D03*
D22*
X0264900Y0055100D03*
X0264900Y0072500D03*
X0264900Y0089900D03*
D23*
X0173750Y0161919D03*
X0170010Y0170581D03*
X0177490Y0170581D03*
M02*
