%
M48
M72
T01C0.01969
T02C0.03150
T03C0.03200
T04C0.03543
T05C0.03600
T06C0.03937
T07C0.04000
T08C0.05900
T09C0.07874
T10C0.11024
%
T01
X81600Y19100
X66600Y64100
X61600Y69100
X41600Y69100
X31600Y64100
X46600Y89100
X46600Y121600
X106600Y166600
X139100Y159100
X159100Y159100
X189100Y159100
X196600Y116600
X204100Y116600
X196600Y96600
X204100Y86600
X229100Y19100
X361600Y91600
X409100Y91600
X416600Y124100
X466600Y169100
X319100Y124100
X466600Y59100
T02
X357702Y231600
X376600Y243411
T03
X399100Y249100
X411600Y249100
X431600Y249100
X431600Y229100
X411600Y229100
X399100Y219100
X409100Y211600
X409100Y201600
X401600Y189100
X401600Y179100
X406600Y169100
X406600Y159100
X416600Y159100
X416600Y169100
X426600Y159100
X436600Y154100
X434100Y169100
X406600Y149100
X406600Y139100
X406600Y129100
X416600Y129100
X426600Y129100
X436600Y134100
X406600Y116600
X406600Y109100
X396600Y104100
X386600Y104100
X376600Y109100
X376600Y116600
X376600Y129100
X366600Y129100
X376600Y139100
X376600Y149100
X376600Y159100
X376600Y169100
X366600Y159100
X381600Y179100
X381600Y189100
X374100Y196600
X344100Y196600
X336600Y189100
X319100Y189100
X304100Y189100
X304100Y179100
X309100Y169100
X309100Y159100
X319100Y159100
X319100Y169100
X329100Y159100
X336600Y169100
X309100Y149100
X309100Y139100
X309100Y129100
X319100Y129100
X329100Y129100
X309100Y116600
X309100Y109100
X299100Y104100
X289100Y104100
X279100Y109100
X279100Y116600
X279100Y129100
X269100Y129100
X279100Y139100
X279100Y149100
X279100Y159100
X279100Y169100
X269100Y159100
X284100Y179100
X284100Y189100
X271600Y196600
X241600Y196600
X181600Y196600
X171600Y196600
X159100Y196600
X149100Y196600
X139100Y196600
X126600Y196600
X96600Y191600
X74100Y181600
X74100Y171600
X74100Y161600
X74100Y151600
X84100Y151600
X94100Y151600
X114100Y151600
X114100Y141600
X114100Y131600
X114100Y121600
X114100Y111600
X114100Y101600
X114100Y91600
X136600Y76600
X154100Y76600
X171600Y76600
X189100Y76600
X181600Y91600
X181600Y101600
X181600Y111600
X181600Y121600
X181600Y131600
X181600Y141600
X181600Y151600
X181600Y166600
X171600Y176600
X159100Y176600
X149100Y166600
X139100Y166600
X126600Y166600
X144100Y151600
X144100Y141600
X156600Y151600
X156600Y131600
X144100Y131600
X144100Y121600
X144100Y111600
X144100Y101600
X144100Y91600
X94100Y121600
X84100Y121600
X71600Y129100
X59100Y141600
X59100Y151600
X59100Y161600
X59100Y171600
X59100Y181600
X59100Y191600
X66600Y191600
X39100Y191600
X29100Y181600
X21600Y176600
X21600Y166600
X21600Y156600
X29100Y151600
X41600Y151600
X39100Y171600
X51600Y129100
X41600Y121600
X29100Y121600
X21600Y109100
X31600Y99100
X31600Y89100
X21600Y89100
X21600Y79100
X31600Y79100
X41600Y79100
X51600Y79100
X61600Y79100
X71600Y79100
X81600Y79100
X61600Y89100
X61600Y99100
X61600Y49100
X51600Y49100
X41600Y49100
X31600Y49100
X21600Y49100
X61600Y36600
X71600Y49100
X81600Y49100
X91600Y36600
X101600Y36600
X111600Y36600
X136600Y46600
X154100Y46600
X171600Y46600
X189100Y46600
X224100Y54100
X224100Y64100
X224100Y79100
X224100Y89100
X229100Y99100
X229100Y109100
X249100Y109100
X249100Y99100
X254100Y89100
X254100Y79100
X254100Y64100
X254100Y54100
X249100Y44100
X249100Y34100
X229100Y34100
X229100Y44100
X279100Y41600
X289100Y41600
X299100Y46600
X316600Y46600
X299100Y29100
X289100Y29100
X279100Y29100
X299100Y66600
X289100Y71600
X279100Y71600
X279100Y79100
X289100Y84100
X299100Y84100
X309100Y79100
X319100Y79100
X316600Y66600
X329100Y91600
X349100Y91600
X349100Y109100
X329100Y109100
X319100Y109100
X376600Y79100
X376600Y71600
X386600Y71600
X396600Y66600
X406600Y79100
X416600Y79100
X414100Y66600
X396600Y84100
X386600Y84100
X416600Y109100
X426600Y109100
X446600Y109100
X446600Y91600
X426600Y91600
X414100Y46600
X396600Y46600
X386600Y41600
X376600Y41600
X376600Y29100
X386600Y29100
X396600Y29100
X224100Y131600
X211600Y131600
X211600Y121600
X211600Y111600
X211600Y101600
X211600Y91600
X211600Y141600
X211600Y151600
X224100Y151600
X416600Y189100
X434100Y189100
X439100Y201600
X439100Y211600
X451600Y204100
X471600Y204100
X471600Y186600
X451600Y186600
T04
X154100Y211600
X144100Y211600
X74100Y211600
X64100Y211600
T05
X61600Y111600
X31600Y111600
T06
X376600Y219789
T07
X454100Y224100
X454100Y234100
X454100Y244100
X89100Y181600
X89100Y171600
X89100Y161600
T08
X211900Y209000
X238500Y225900
X248400Y220400
X261900Y209000
X288500Y225900
X298400Y220400
X311900Y209000
X338500Y225900
X348400Y220400
X309800Y238500
X328300Y251300
X278300Y251300
X259800Y238500
X228300Y251300
X209800Y238500
T09
X174100Y231600
X134100Y231600
X94100Y231600
X54100Y231600
T10
X24100Y24100
X24100Y241600
X481600Y241600
X481600Y24100
M30
