G75*
%MOIN*%
%OFA0B0*%
%FSLAX25Y25*%
%IPPOS*%
%LPD*%
%AMOC8*
5,1,8,0,0,1.08239X$1,22.5*
%
%ADD10C,0.05600*%
%ADD11C,0.21000*%
%ADD12C,0.09900*%
%ADD13C,0.06400*%
%ADD14R,0.09000X0.20000*%
%ADD15OC8,0.05000*%
%ADD16C,0.01000*%
%ADD17C,0.15000*%
%ADD18C,0.04000*%
D10*
X0014000Y0091133D02*
X0014000Y0096733D01*
X0014000Y0121133D02*
X0014000Y0126733D01*
X0014000Y0136133D02*
X0014000Y0141733D01*
X0014000Y0166133D02*
X0014000Y0171733D01*
X0014000Y0188633D02*
X0014000Y0194233D01*
X0014000Y0218633D02*
X0014000Y0224233D01*
X0126200Y0141433D02*
X0131800Y0141433D01*
X0156200Y0141433D02*
X0161800Y0141433D01*
X0344000Y0141733D02*
X0344000Y0136133D01*
X0344000Y0126733D02*
X0344000Y0121133D01*
X0344000Y0096733D02*
X0344000Y0091133D01*
X0344000Y0166133D02*
X0344000Y0171733D01*
X0344000Y0188633D02*
X0344000Y0194233D01*
X0344000Y0218633D02*
X0344000Y0224233D01*
D11*
X0336500Y0246433D03*
X0336500Y0063933D03*
X0021500Y0063933D03*
X0021500Y0246433D03*
D12*
X0128700Y0121383D02*
X0128700Y0111483D01*
X0144300Y0111483D02*
X0144300Y0121383D01*
D13*
X0094000Y0120733D02*
X0094000Y0127133D01*
X0094000Y0135733D02*
X0094000Y0142133D01*
X0074000Y0142133D02*
X0074000Y0135733D01*
X0074000Y0127133D02*
X0074000Y0120733D01*
X0054000Y0120733D02*
X0054000Y0127133D01*
X0054000Y0135733D02*
X0054000Y0142133D01*
X0054000Y0165733D02*
X0054000Y0172133D01*
X0074000Y0172133D02*
X0074000Y0165733D01*
X0094000Y0165733D02*
X0094000Y0172133D01*
X0094000Y0188233D02*
X0094000Y0194633D01*
X0074000Y0194633D02*
X0074000Y0188233D01*
X0054000Y0188233D02*
X0054000Y0194633D01*
X0024000Y0194633D02*
X0024000Y0188233D01*
X0024000Y0172133D02*
X0024000Y0165733D01*
X0024000Y0142133D02*
X0024000Y0135733D01*
X0024000Y0127133D02*
X0024000Y0120733D01*
X0024000Y0097133D02*
X0024000Y0090733D01*
X0054000Y0090733D02*
X0054000Y0097133D01*
X0074000Y0097133D02*
X0074000Y0090733D01*
X0094000Y0090733D02*
X0094000Y0097133D01*
X0264000Y0097133D02*
X0264000Y0090733D01*
X0284000Y0090733D02*
X0284000Y0097133D01*
X0304000Y0097133D02*
X0304000Y0090733D01*
X0334000Y0090733D02*
X0334000Y0097133D01*
X0334000Y0120733D02*
X0334000Y0127133D01*
X0334000Y0135733D02*
X0334000Y0142133D01*
X0334000Y0165733D02*
X0334000Y0172133D01*
X0334000Y0188233D02*
X0334000Y0194633D01*
X0304000Y0194633D02*
X0304000Y0188233D01*
X0284000Y0188233D02*
X0284000Y0194633D01*
X0264000Y0194633D02*
X0264000Y0188233D01*
X0264000Y0172133D02*
X0264000Y0165733D01*
X0284000Y0165733D02*
X0284000Y0172133D01*
X0304000Y0172133D02*
X0304000Y0165733D01*
X0304000Y0142133D02*
X0304000Y0135733D01*
X0304000Y0127133D02*
X0304000Y0120733D01*
X0284000Y0120733D02*
X0284000Y0127133D01*
X0284000Y0135733D02*
X0284000Y0142133D01*
X0264000Y0142133D02*
X0264000Y0135733D01*
X0264000Y0127133D02*
X0264000Y0120733D01*
X0264000Y0218233D02*
X0264000Y0224633D01*
X0284000Y0224633D02*
X0284000Y0218233D01*
X0304000Y0218233D02*
X0304000Y0224633D01*
X0334000Y0224633D02*
X0334000Y0218233D01*
X0094000Y0218233D02*
X0094000Y0224633D01*
X0074000Y0224633D02*
X0074000Y0218233D01*
X0054000Y0218233D02*
X0054000Y0224633D01*
X0024000Y0224633D02*
X0024000Y0218233D01*
D14*
X0049100Y0054033D03*
X0083900Y0054033D03*
X0274100Y0054033D03*
X0308900Y0054033D03*
D15*
X0309000Y0053933D03*
X0309000Y0048933D03*
X0316500Y0048933D03*
X0316500Y0056433D03*
X0316500Y0063933D03*
X0311500Y0068933D03*
X0316500Y0073933D03*
X0319000Y0083933D03*
X0319000Y0093933D03*
X0319000Y0103933D03*
X0306500Y0108933D03*
X0301500Y0103933D03*
X0301500Y0113933D03*
X0286500Y0108933D03*
X0281500Y0103933D03*
X0281500Y0113933D03*
X0254000Y0111433D03*
X0254000Y0103933D03*
X0254000Y0096433D03*
X0249000Y0088933D03*
X0241500Y0088933D03*
X0241500Y0081433D03*
X0231500Y0081433D03*
X0224000Y0081433D03*
X0216500Y0081433D03*
X0209000Y0081433D03*
X0201500Y0081433D03*
X0194000Y0081433D03*
X0186500Y0081433D03*
X0179000Y0081433D03*
X0171500Y0081433D03*
X0164000Y0081433D03*
X0156500Y0081433D03*
X0149000Y0081433D03*
X0141500Y0081433D03*
X0134000Y0081433D03*
X0126500Y0081433D03*
X0116500Y0081433D03*
X0116500Y0088933D03*
X0109000Y0088933D03*
X0106500Y0096433D03*
X0106500Y0106433D03*
X0106500Y0116433D03*
X0106500Y0126433D03*
X0116500Y0126433D03*
X0106500Y0136433D03*
X0106500Y0146433D03*
X0106500Y0156433D03*
X0106500Y0166433D03*
X0109000Y0173933D03*
X0104000Y0178933D03*
X0109000Y0181433D03*
X0104000Y0186433D03*
X0109000Y0188933D03*
X0104000Y0193933D03*
X0119000Y0193933D03*
X0131500Y0181433D03*
X0139000Y0178933D03*
X0139000Y0171433D03*
X0146500Y0171433D03*
X0154000Y0171433D03*
X0161500Y0171433D03*
X0169000Y0171433D03*
X0176500Y0171433D03*
X0184000Y0171433D03*
X0191500Y0171433D03*
X0191500Y0178933D03*
X0184000Y0178933D03*
X0176500Y0178933D03*
X0169000Y0178933D03*
X0161500Y0178933D03*
X0154000Y0178933D03*
X0146500Y0178933D03*
X0154000Y0186433D03*
X0161500Y0186433D03*
X0191500Y0186433D03*
X0216500Y0178933D03*
X0224000Y0178933D03*
X0224000Y0171433D03*
X0216500Y0171433D03*
X0216500Y0163933D03*
X0224000Y0163933D03*
X0231500Y0168933D03*
X0231500Y0176433D03*
X0254000Y0173933D03*
X0254000Y0181433D03*
X0254000Y0188933D03*
X0254000Y0196433D03*
X0254000Y0203933D03*
X0231500Y0201433D03*
X0229000Y0196433D03*
X0224000Y0193933D03*
X0216500Y0193933D03*
X0216500Y0201433D03*
X0224000Y0201433D03*
X0224000Y0218933D03*
X0216500Y0218933D03*
X0211500Y0223933D03*
X0201500Y0223933D03*
X0191500Y0223933D03*
X0181500Y0223933D03*
X0171500Y0223933D03*
X0161500Y0223933D03*
X0151500Y0223933D03*
X0141500Y0223933D03*
X0131500Y0223933D03*
X0124000Y0223933D03*
X0124000Y0236433D03*
X0131500Y0236433D03*
X0141500Y0236433D03*
X0151500Y0236433D03*
X0161500Y0236433D03*
X0171500Y0236433D03*
X0181500Y0236433D03*
X0191500Y0236433D03*
X0201500Y0236433D03*
X0211500Y0236433D03*
X0216500Y0231433D03*
X0224000Y0231433D03*
X0231500Y0231433D03*
X0236500Y0236433D03*
X0229000Y0238933D03*
X0219000Y0238933D03*
X0219000Y0248933D03*
X0211500Y0248933D03*
X0201500Y0248933D03*
X0191500Y0248933D03*
X0181500Y0248933D03*
X0171500Y0248933D03*
X0161500Y0248933D03*
X0151500Y0248933D03*
X0141500Y0248933D03*
X0131500Y0248933D03*
X0124000Y0248933D03*
X0111500Y0248933D03*
X0101500Y0248933D03*
X0091500Y0248933D03*
X0081500Y0248933D03*
X0071500Y0248933D03*
X0061500Y0248933D03*
X0049000Y0248933D03*
X0049000Y0241433D03*
X0044000Y0228933D03*
X0044000Y0216433D03*
X0064000Y0206433D03*
X0066500Y0196433D03*
X0066500Y0188933D03*
X0066500Y0181433D03*
X0081500Y0181433D03*
X0081500Y0188933D03*
X0081500Y0196433D03*
X0084000Y0201433D03*
X0044000Y0196433D03*
X0044000Y0186433D03*
X0044000Y0178933D03*
X0051500Y0158933D03*
X0056500Y0153933D03*
X0051500Y0148933D03*
X0071500Y0148933D03*
X0076500Y0153933D03*
X0071500Y0158933D03*
X0131500Y0173933D03*
X0184000Y0163933D03*
X0191500Y0163933D03*
X0191500Y0156433D03*
X0184000Y0156433D03*
X0184000Y0148933D03*
X0191500Y0148933D03*
X0191500Y0141433D03*
X0191500Y0133933D03*
X0184000Y0133933D03*
X0184000Y0141433D03*
X0199000Y0141433D03*
X0199000Y0133933D03*
X0206500Y0133933D03*
X0206500Y0141433D03*
X0214000Y0141433D03*
X0216500Y0133933D03*
X0216500Y0126433D03*
X0216500Y0118933D03*
X0206500Y0118933D03*
X0199000Y0118933D03*
X0191500Y0118933D03*
X0184000Y0118933D03*
X0184000Y0126433D03*
X0191500Y0126433D03*
X0199000Y0126433D03*
X0206500Y0126433D03*
X0199000Y0111433D03*
X0199000Y0103933D03*
X0199000Y0096433D03*
X0199000Y0088933D03*
X0231500Y0088933D03*
X0231500Y0096433D03*
X0241500Y0096433D03*
X0244000Y0103933D03*
X0254000Y0118933D03*
X0254000Y0126433D03*
X0254000Y0133933D03*
X0254000Y0143933D03*
X0254000Y0153933D03*
X0254000Y0163933D03*
X0274000Y0178933D03*
X0276500Y0186433D03*
X0276500Y0196433D03*
X0276500Y0206433D03*
X0284000Y0206433D03*
X0294000Y0206433D03*
X0294000Y0216433D03*
X0294000Y0226433D03*
X0276500Y0226433D03*
X0276500Y0216433D03*
X0294000Y0196433D03*
X0294000Y0186433D03*
X0316500Y0186433D03*
X0316500Y0196433D03*
X0316500Y0206433D03*
X0316500Y0216433D03*
X0316500Y0226433D03*
X0309000Y0241433D03*
X0309000Y0248933D03*
X0296500Y0248933D03*
X0286500Y0248933D03*
X0276500Y0248933D03*
X0266500Y0248933D03*
X0256500Y0248933D03*
X0246500Y0248933D03*
X0236500Y0248933D03*
X0229000Y0248933D03*
X0236500Y0223933D03*
X0231500Y0218933D03*
X0286500Y0158933D03*
X0281500Y0153933D03*
X0286500Y0148933D03*
X0301500Y0153933D03*
X0306500Y0148933D03*
X0306500Y0158933D03*
X0319000Y0121433D03*
X0319000Y0113933D03*
X0309000Y0061433D03*
X0274000Y0061433D03*
X0274000Y0053933D03*
X0274000Y0048933D03*
X0266500Y0053933D03*
X0259000Y0053933D03*
X0254000Y0051433D03*
X0246500Y0051433D03*
X0239000Y0051433D03*
X0231500Y0051433D03*
X0224000Y0051433D03*
X0216500Y0051433D03*
X0209000Y0051433D03*
X0201500Y0051433D03*
X0194000Y0051433D03*
X0186500Y0051433D03*
X0179000Y0051433D03*
X0171500Y0051433D03*
X0164000Y0051433D03*
X0156500Y0051433D03*
X0149000Y0051433D03*
X0141500Y0051433D03*
X0134000Y0051433D03*
X0126500Y0051433D03*
X0119000Y0051433D03*
X0111500Y0051433D03*
X0104000Y0051433D03*
X0099000Y0053933D03*
X0091500Y0053933D03*
X0084000Y0053933D03*
X0084000Y0048933D03*
X0084000Y0061433D03*
X0091500Y0061433D03*
X0049000Y0061433D03*
X0049000Y0053933D03*
X0049000Y0048933D03*
X0041500Y0048933D03*
X0041500Y0056433D03*
X0041500Y0063933D03*
X0046500Y0068933D03*
X0041500Y0073933D03*
X0034000Y0078933D03*
X0039000Y0083933D03*
X0039000Y0091433D03*
X0056500Y0103933D03*
X0051500Y0108933D03*
X0056500Y0113933D03*
X0071500Y0108933D03*
X0076500Y0103933D03*
X0076500Y0113933D03*
X0126500Y0088933D03*
X0134000Y0088933D03*
X0141500Y0088933D03*
X0149000Y0088933D03*
X0156500Y0088933D03*
X0164000Y0088933D03*
X0154000Y0098933D03*
X0154000Y0108933D03*
X0161500Y0118933D03*
X0161500Y0126433D03*
X0214000Y0148933D03*
X0216500Y0156433D03*
X0224000Y0156433D03*
X0266500Y0061433D03*
X0009000Y0051433D03*
X0009000Y0078933D03*
D16*
X0006000Y0048433D02*
X0006000Y0260634D01*
X0036508Y0260634D01*
X0035318Y0259443D01*
X0033490Y0257615D01*
X0032500Y0255226D01*
X0032500Y0251248D01*
X0032019Y0252247D01*
X0031302Y0253388D01*
X0030462Y0254442D01*
X0029509Y0255395D01*
X0028455Y0256235D01*
X0027314Y0256952D01*
X0026099Y0257537D01*
X0024827Y0257982D01*
X0023513Y0258282D01*
X0022174Y0258433D01*
X0022000Y0258433D01*
X0022000Y0246933D01*
X0021000Y0246933D01*
X0021000Y0245933D01*
X0022000Y0245933D01*
X0022000Y0234433D01*
X0022174Y0234433D01*
X0023513Y0234584D01*
X0024827Y0234884D01*
X0026099Y0235329D01*
X0027314Y0235914D01*
X0028455Y0236631D01*
X0029509Y0237471D01*
X0030462Y0238424D01*
X0031302Y0239478D01*
X0032019Y0240619D01*
X0032500Y0241618D01*
X0032500Y0239125D01*
X0030318Y0236943D01*
X0028490Y0235115D01*
X0027500Y0232726D01*
X0027500Y0227780D01*
X0027062Y0228218D01*
X0026463Y0228653D01*
X0025804Y0228989D01*
X0025101Y0229217D01*
X0024500Y0229312D01*
X0024500Y0221933D01*
X0023500Y0221933D01*
X0023500Y0220933D01*
X0024500Y0220933D01*
X0024500Y0213554D01*
X0025101Y0213649D01*
X0025804Y0213877D01*
X0026463Y0214213D01*
X0027062Y0214648D01*
X0027500Y0215086D01*
X0027500Y0201518D01*
X0025532Y0202333D01*
X0022468Y0202333D01*
X0019638Y0201161D01*
X0018517Y0200040D01*
X0018135Y0200422D01*
X0015452Y0201533D01*
X0012548Y0201533D01*
X0009865Y0200422D01*
X0007811Y0198368D01*
X0006700Y0195685D01*
X0006700Y0187181D01*
X0007811Y0184498D01*
X0009865Y0182444D01*
X0012548Y0181333D01*
X0015452Y0181333D01*
X0018135Y0182444D01*
X0018517Y0182826D01*
X0019638Y0181705D01*
X0022468Y0180533D01*
X0025532Y0180533D01*
X0027500Y0181348D01*
X0027500Y0175280D01*
X0027062Y0175718D01*
X0026463Y0176153D01*
X0025804Y0176489D01*
X0025101Y0176717D01*
X0024500Y0176812D01*
X0024500Y0169433D01*
X0023500Y0169433D01*
X0023500Y0168433D01*
X0024500Y0168433D01*
X0024500Y0161054D01*
X0025101Y0161149D01*
X0025804Y0161377D01*
X0026463Y0161713D01*
X0027062Y0162148D01*
X0027500Y0162586D01*
X0027500Y0149018D01*
X0025532Y0149833D01*
X0022468Y0149833D01*
X0019638Y0148661D01*
X0018517Y0147540D01*
X0018135Y0147922D01*
X0015452Y0149033D01*
X0012548Y0149033D01*
X0009865Y0147922D01*
X0007811Y0145868D01*
X0006700Y0143185D01*
X0006700Y0134681D01*
X0007811Y0131998D01*
X0009865Y0129944D01*
X0010760Y0129574D01*
X0010720Y0129534D01*
X0010322Y0128987D01*
X0010015Y0128384D01*
X0009806Y0127740D01*
X0009700Y0127071D01*
X0009700Y0124233D01*
X0013700Y0124233D01*
X0013700Y0123633D01*
X0014300Y0123633D01*
X0014300Y0116833D01*
X0014338Y0116833D01*
X0015007Y0116939D01*
X0015651Y0117148D01*
X0016254Y0117455D01*
X0016801Y0117853D01*
X0017280Y0118332D01*
X0017678Y0118879D01*
X0017985Y0119482D01*
X0018194Y0120126D01*
X0018300Y0120795D01*
X0018300Y0123633D01*
X0014300Y0123633D01*
X0014300Y0124233D01*
X0018300Y0124233D01*
X0018300Y0127071D01*
X0018194Y0127740D01*
X0017985Y0128384D01*
X0017678Y0128987D01*
X0017280Y0129534D01*
X0017240Y0129574D01*
X0018135Y0129944D01*
X0018517Y0130326D01*
X0019638Y0129205D01*
X0019756Y0129157D01*
X0019644Y0128937D01*
X0019416Y0128234D01*
X0019300Y0127503D01*
X0019300Y0124433D01*
X0023500Y0124433D01*
X0023500Y0123433D01*
X0024500Y0123433D01*
X0024500Y0116054D01*
X0025101Y0116149D01*
X0025804Y0116377D01*
X0026463Y0116713D01*
X0027062Y0117148D01*
X0027500Y0117586D01*
X0027500Y0104018D01*
X0025532Y0104833D01*
X0022468Y0104833D01*
X0019638Y0103661D01*
X0018517Y0102540D01*
X0018135Y0102922D01*
X0015452Y0104033D01*
X0012548Y0104033D01*
X0009865Y0102922D01*
X0007811Y0100868D01*
X0006700Y0098185D01*
X0006700Y0089681D01*
X0007811Y0086998D01*
X0009865Y0084944D01*
X0012548Y0083833D01*
X0015452Y0083833D01*
X0018135Y0084944D01*
X0018517Y0085326D01*
X0019638Y0084205D01*
X0022468Y0083033D01*
X0025532Y0083033D01*
X0028362Y0084205D01*
X0030528Y0086371D01*
X0031107Y0087770D01*
X0032682Y0088423D01*
X0034510Y0090251D01*
X0039510Y0095251D01*
X0040500Y0097640D01*
X0040500Y0199933D01*
X0048411Y0199933D01*
X0047472Y0198995D01*
X0046300Y0196165D01*
X0046300Y0186701D01*
X0047472Y0183871D01*
X0049638Y0181705D01*
X0051863Y0180784D01*
X0049368Y0180115D01*
X0046632Y0178535D01*
X0044398Y0176301D01*
X0042818Y0173565D01*
X0042000Y0170513D01*
X0042000Y0092353D01*
X0042818Y0089301D01*
X0044398Y0086565D01*
X0046632Y0084331D01*
X0049368Y0082751D01*
X0052420Y0081933D01*
X0055580Y0081933D01*
X0058632Y0082751D01*
X0061368Y0084331D01*
X0063602Y0086565D01*
X0064000Y0087254D01*
X0064398Y0086565D01*
X0066632Y0084331D01*
X0069368Y0082751D01*
X0072420Y0081933D01*
X0075580Y0081933D01*
X0078632Y0082751D01*
X0081368Y0084331D01*
X0083602Y0086565D01*
X0085182Y0089301D01*
X0086000Y0092353D01*
X0086000Y0170513D01*
X0085182Y0173565D01*
X0083602Y0176301D01*
X0081368Y0178535D01*
X0078632Y0180115D01*
X0075580Y0180933D01*
X0072420Y0180933D01*
X0069368Y0180115D01*
X0066632Y0178535D01*
X0064398Y0176301D01*
X0064000Y0175613D01*
X0063602Y0176301D01*
X0061368Y0178535D01*
X0058632Y0180115D01*
X0056137Y0180784D01*
X0058362Y0181705D01*
X0060528Y0183871D01*
X0061700Y0186701D01*
X0061700Y0196165D01*
X0060528Y0198995D01*
X0059589Y0199933D01*
X0060601Y0199933D01*
X0061101Y0199433D01*
X0066899Y0199433D01*
X0071000Y0203534D01*
X0071000Y0209333D01*
X0066899Y0213433D01*
X0061101Y0213433D01*
X0060601Y0212933D01*
X0059589Y0212933D01*
X0060528Y0213871D01*
X0061700Y0216701D01*
X0061700Y0226165D01*
X0060528Y0228995D01*
X0058362Y0231161D01*
X0055532Y0232333D01*
X0052468Y0232333D01*
X0049638Y0231161D01*
X0047472Y0228995D01*
X0046300Y0226165D01*
X0046300Y0216701D01*
X0047472Y0213871D01*
X0048411Y0212933D01*
X0040500Y0212933D01*
X0040500Y0228741D01*
X0044510Y0232751D01*
X0045500Y0235140D01*
X0045500Y0251241D01*
X0046692Y0252433D01*
X0311308Y0252433D01*
X0312500Y0251241D01*
X0312500Y0235140D01*
X0313490Y0232751D01*
X0315318Y0230923D01*
X0317500Y0228741D01*
X0317500Y0127640D01*
X0318490Y0125251D01*
X0320318Y0123423D01*
X0325318Y0118423D01*
X0326893Y0117770D01*
X0327472Y0116371D01*
X0329638Y0114205D01*
X0332468Y0113033D01*
X0335532Y0113033D01*
X0338362Y0114205D01*
X0339483Y0115326D01*
X0339865Y0114944D01*
X0342548Y0113833D01*
X0345452Y0113833D01*
X0348135Y0114944D01*
X0350189Y0116998D01*
X0351300Y0119681D01*
X0351300Y0128185D01*
X0350189Y0130868D01*
X0348135Y0132922D01*
X0347240Y0133292D01*
X0347280Y0133332D01*
X0347678Y0133879D01*
X0347985Y0134482D01*
X0348194Y0135126D01*
X0348300Y0135795D01*
X0348300Y0138633D01*
X0344300Y0138633D01*
X0344300Y0139233D01*
X0348300Y0139233D01*
X0348300Y0142071D01*
X0348194Y0142740D01*
X0347985Y0143384D01*
X0347678Y0143987D01*
X0347280Y0144534D01*
X0346801Y0145013D01*
X0346254Y0145411D01*
X0345651Y0145718D01*
X0345007Y0145927D01*
X0344338Y0146033D01*
X0344300Y0146033D01*
X0344300Y0139233D01*
X0343700Y0139233D01*
X0343700Y0138633D01*
X0339700Y0138633D01*
X0339700Y0135795D01*
X0339806Y0135126D01*
X0340015Y0134482D01*
X0340322Y0133879D01*
X0340720Y0133332D01*
X0340760Y0133292D01*
X0339865Y0132922D01*
X0339483Y0132540D01*
X0338362Y0133661D01*
X0338244Y0133710D01*
X0338356Y0133929D01*
X0338584Y0134632D01*
X0338700Y0135363D01*
X0338700Y0138433D01*
X0334500Y0138433D01*
X0334500Y0139433D01*
X0338700Y0139433D01*
X0338700Y0142503D01*
X0338584Y0143234D01*
X0338356Y0143937D01*
X0338020Y0144596D01*
X0337585Y0145195D01*
X0337062Y0145718D01*
X0336463Y0146153D01*
X0335804Y0146489D01*
X0335101Y0146717D01*
X0334500Y0146812D01*
X0334500Y0139433D01*
X0333500Y0139433D01*
X0333500Y0146812D01*
X0332899Y0146717D01*
X0332196Y0146489D01*
X0331537Y0146153D01*
X0330938Y0145718D01*
X0330500Y0145280D01*
X0330500Y0158848D01*
X0332468Y0158033D01*
X0335532Y0158033D01*
X0338362Y0159205D01*
X0339483Y0160326D01*
X0339865Y0159944D01*
X0342548Y0158833D01*
X0345452Y0158833D01*
X0348135Y0159944D01*
X0350189Y0161998D01*
X0351300Y0164681D01*
X0351300Y0173185D01*
X0350189Y0175868D01*
X0348135Y0177922D01*
X0345452Y0179033D01*
X0342548Y0179033D01*
X0339865Y0177922D01*
X0339483Y0177540D01*
X0338362Y0178661D01*
X0335532Y0179833D01*
X0332468Y0179833D01*
X0330500Y0179018D01*
X0330500Y0185086D01*
X0330938Y0184648D01*
X0331537Y0184213D01*
X0332196Y0183877D01*
X0332899Y0183649D01*
X0333500Y0183554D01*
X0333500Y0190933D01*
X0334500Y0190933D01*
X0334500Y0183554D01*
X0335101Y0183649D01*
X0335804Y0183877D01*
X0336463Y0184213D01*
X0337062Y0184648D01*
X0337585Y0185171D01*
X0338020Y0185770D01*
X0338356Y0186429D01*
X0338584Y0187132D01*
X0338700Y0187863D01*
X0338700Y0190933D01*
X0334500Y0190933D01*
X0334500Y0191933D01*
X0338700Y0191933D01*
X0338700Y0195003D01*
X0338584Y0195734D01*
X0338356Y0196437D01*
X0338020Y0197096D01*
X0337585Y0197695D01*
X0337062Y0198218D01*
X0336463Y0198653D01*
X0335804Y0198989D01*
X0335101Y0199217D01*
X0334500Y0199312D01*
X0334500Y0191933D01*
X0333500Y0191933D01*
X0333500Y0199312D01*
X0332899Y0199217D01*
X0332196Y0198989D01*
X0331537Y0198653D01*
X0330938Y0198218D01*
X0330500Y0197780D01*
X0330500Y0211348D01*
X0332468Y0210533D01*
X0335532Y0210533D01*
X0338362Y0211705D01*
X0339483Y0212826D01*
X0339865Y0212444D01*
X0342548Y0211333D01*
X0345452Y0211333D01*
X0348135Y0212444D01*
X0350189Y0214498D01*
X0351300Y0217181D01*
X0351300Y0225685D01*
X0350189Y0228368D01*
X0348135Y0230422D01*
X0345452Y0231533D01*
X0342548Y0231533D01*
X0339865Y0230422D01*
X0339483Y0230040D01*
X0338362Y0231161D01*
X0335532Y0232333D01*
X0332468Y0232333D01*
X0330500Y0231518D01*
X0330500Y0232726D01*
X0329510Y0235115D01*
X0325500Y0239125D01*
X0325500Y0241618D01*
X0325981Y0240619D01*
X0326698Y0239478D01*
X0327538Y0238424D01*
X0328491Y0237471D01*
X0329545Y0236631D01*
X0330686Y0235914D01*
X0331901Y0235329D01*
X0333173Y0234884D01*
X0334487Y0234584D01*
X0335826Y0234433D01*
X0336000Y0234433D01*
X0336000Y0245933D01*
X0337000Y0245933D01*
X0337000Y0234433D01*
X0337174Y0234433D01*
X0338513Y0234584D01*
X0339827Y0234884D01*
X0341099Y0235329D01*
X0342314Y0235914D01*
X0343455Y0236631D01*
X0344509Y0237471D01*
X0345462Y0238424D01*
X0346302Y0239478D01*
X0347019Y0240619D01*
X0347604Y0241834D01*
X0348049Y0243106D01*
X0348349Y0244420D01*
X0348500Y0245759D01*
X0348500Y0245933D01*
X0337000Y0245933D01*
X0337000Y0246933D01*
X0348500Y0246933D01*
X0348500Y0247107D01*
X0348349Y0248446D01*
X0348049Y0249760D01*
X0347604Y0251033D01*
X0347019Y0252247D01*
X0346302Y0253388D01*
X0345462Y0254442D01*
X0344509Y0255395D01*
X0343455Y0256235D01*
X0342314Y0256952D01*
X0341099Y0257537D01*
X0339827Y0257982D01*
X0338513Y0258282D01*
X0337174Y0258433D01*
X0337000Y0258433D01*
X0337000Y0246933D01*
X0336000Y0246933D01*
X0336000Y0258433D01*
X0335826Y0258433D01*
X0334487Y0258282D01*
X0333173Y0257982D01*
X0331901Y0257537D01*
X0330686Y0256952D01*
X0329545Y0256235D01*
X0328491Y0255395D01*
X0327538Y0254442D01*
X0326698Y0253388D01*
X0325981Y0252247D01*
X0325500Y0251248D01*
X0325500Y0255226D01*
X0324510Y0257615D01*
X0321492Y0260634D01*
X0351921Y0260634D01*
X0351921Y0048433D01*
X0314900Y0048433D01*
X0314900Y0053533D01*
X0309400Y0053533D01*
X0309400Y0048433D01*
X0308400Y0048433D01*
X0308400Y0053533D01*
X0309400Y0053533D01*
X0309400Y0054533D01*
X0314900Y0054533D01*
X0314900Y0064231D01*
X0314798Y0064612D01*
X0314600Y0064954D01*
X0314321Y0065233D01*
X0313979Y0065431D01*
X0313597Y0065533D01*
X0309400Y0065533D01*
X0309400Y0054533D01*
X0308400Y0054533D01*
X0308400Y0053533D01*
X0302900Y0053533D01*
X0302900Y0048433D01*
X0280100Y0048433D01*
X0280100Y0053533D01*
X0274600Y0053533D01*
X0274600Y0048433D01*
X0273600Y0048433D01*
X0273600Y0053533D01*
X0274600Y0053533D01*
X0274600Y0054533D01*
X0280100Y0054533D01*
X0280100Y0064231D01*
X0279998Y0064612D01*
X0279800Y0064954D01*
X0279521Y0065233D01*
X0279179Y0065431D01*
X0278797Y0065533D01*
X0274600Y0065533D01*
X0274600Y0054533D01*
X0273600Y0054533D01*
X0273600Y0053533D01*
X0268100Y0053533D01*
X0268100Y0048433D01*
X0089900Y0048433D01*
X0089900Y0053533D01*
X0084400Y0053533D01*
X0084400Y0048433D01*
X0083400Y0048433D01*
X0083400Y0053533D01*
X0084400Y0053533D01*
X0084400Y0054533D01*
X0089900Y0054533D01*
X0089900Y0064231D01*
X0089798Y0064612D01*
X0089600Y0064954D01*
X0089321Y0065233D01*
X0088979Y0065431D01*
X0088597Y0065533D01*
X0084400Y0065533D01*
X0084400Y0054533D01*
X0083400Y0054533D01*
X0083400Y0053533D01*
X0077900Y0053533D01*
X0077900Y0048433D01*
X0055100Y0048433D01*
X0055100Y0053533D01*
X0049600Y0053533D01*
X0049600Y0048433D01*
X0048600Y0048433D01*
X0048600Y0053533D01*
X0049600Y0053533D01*
X0049600Y0054533D01*
X0055100Y0054533D01*
X0055100Y0064231D01*
X0054998Y0064612D01*
X0054800Y0064954D01*
X0054521Y0065233D01*
X0054179Y0065431D01*
X0053797Y0065533D01*
X0049600Y0065533D01*
X0049600Y0054533D01*
X0048600Y0054533D01*
X0048600Y0053533D01*
X0043100Y0053533D01*
X0043100Y0048433D01*
X0006000Y0048433D01*
X0006000Y0048926D02*
X0043100Y0048926D01*
X0043100Y0049924D02*
X0006000Y0049924D01*
X0006000Y0050923D02*
X0043100Y0050923D01*
X0043100Y0051921D02*
X0006000Y0051921D01*
X0006000Y0052920D02*
X0016712Y0052920D01*
X0016901Y0052829D02*
X0018173Y0052384D01*
X0019487Y0052084D01*
X0020826Y0051933D01*
X0021000Y0051933D01*
X0021000Y0063433D01*
X0022000Y0063433D01*
X0022000Y0051933D01*
X0022174Y0051933D01*
X0023513Y0052084D01*
X0024827Y0052384D01*
X0026099Y0052829D01*
X0027314Y0053414D01*
X0028455Y0054131D01*
X0029509Y0054971D01*
X0030462Y0055924D01*
X0031302Y0056978D01*
X0032019Y0058119D01*
X0032604Y0059334D01*
X0033049Y0060606D01*
X0033349Y0061920D01*
X0033500Y0063259D01*
X0033500Y0063433D01*
X0022000Y0063433D01*
X0022000Y0064433D01*
X0033500Y0064433D01*
X0033500Y0064607D01*
X0033349Y0065946D01*
X0033049Y0067260D01*
X0032604Y0068533D01*
X0032019Y0069747D01*
X0031302Y0070888D01*
X0030462Y0071942D01*
X0029509Y0072895D01*
X0028455Y0073735D01*
X0027314Y0074452D01*
X0026099Y0075037D01*
X0024827Y0075482D01*
X0023513Y0075782D01*
X0022174Y0075933D01*
X0022000Y0075933D01*
X0022000Y0064433D01*
X0021000Y0064433D01*
X0021000Y0063433D01*
X0009500Y0063433D01*
X0009500Y0063259D01*
X0009651Y0061920D01*
X0009951Y0060606D01*
X0010396Y0059334D01*
X0010981Y0058119D01*
X0011698Y0056978D01*
X0012538Y0055924D01*
X0013491Y0054971D01*
X0014545Y0054131D01*
X0015686Y0053414D01*
X0016901Y0052829D01*
X0014884Y0053918D02*
X0006000Y0053918D01*
X0006000Y0054917D02*
X0013560Y0054917D01*
X0012547Y0055915D02*
X0006000Y0055915D01*
X0006000Y0056914D02*
X0011749Y0056914D01*
X0011111Y0057912D02*
X0006000Y0057912D01*
X0006000Y0058911D02*
X0010600Y0058911D01*
X0010195Y0059909D02*
X0006000Y0059909D01*
X0006000Y0060908D02*
X0009882Y0060908D01*
X0009654Y0061906D02*
X0006000Y0061906D01*
X0006000Y0062905D02*
X0009540Y0062905D01*
X0009500Y0064433D02*
X0021000Y0064433D01*
X0021000Y0075933D01*
X0020826Y0075933D01*
X0019487Y0075782D01*
X0018173Y0075482D01*
X0016901Y0075037D01*
X0015686Y0074452D01*
X0014545Y0073735D01*
X0013491Y0072895D01*
X0012538Y0071942D01*
X0011698Y0070888D01*
X0010981Y0069747D01*
X0010396Y0068533D01*
X0009951Y0067260D01*
X0009651Y0065946D01*
X0009500Y0064607D01*
X0009500Y0064433D01*
X0009533Y0064902D02*
X0006000Y0064902D01*
X0006000Y0065900D02*
X0009646Y0065900D01*
X0009868Y0066899D02*
X0006000Y0066899D01*
X0006000Y0067897D02*
X0010174Y0067897D01*
X0010571Y0068896D02*
X0006000Y0068896D01*
X0006000Y0069894D02*
X0011073Y0069894D01*
X0011702Y0070893D02*
X0006000Y0070893D01*
X0006000Y0071891D02*
X0012498Y0071891D01*
X0013486Y0072890D02*
X0006000Y0072890D01*
X0006000Y0073888D02*
X0014789Y0073888D01*
X0016589Y0074887D02*
X0006000Y0074887D01*
X0006000Y0075885D02*
X0020403Y0075885D01*
X0021000Y0075885D02*
X0022000Y0075885D01*
X0022597Y0075885D02*
X0335403Y0075885D01*
X0335826Y0075933D02*
X0334487Y0075782D01*
X0333173Y0075482D01*
X0331901Y0075037D01*
X0330686Y0074452D01*
X0329545Y0073735D01*
X0328491Y0072895D01*
X0327538Y0071942D01*
X0326698Y0070888D01*
X0325981Y0069747D01*
X0325396Y0068533D01*
X0324951Y0067260D01*
X0324651Y0065946D01*
X0324500Y0064607D01*
X0324500Y0064433D01*
X0336000Y0064433D01*
X0336000Y0063433D01*
X0337000Y0063433D01*
X0337000Y0051933D01*
X0337174Y0051933D01*
X0338513Y0052084D01*
X0339827Y0052384D01*
X0341099Y0052829D01*
X0342314Y0053414D01*
X0343455Y0054131D01*
X0344509Y0054971D01*
X0345462Y0055924D01*
X0346302Y0056978D01*
X0347019Y0058119D01*
X0347604Y0059334D01*
X0348049Y0060606D01*
X0348349Y0061920D01*
X0348500Y0063259D01*
X0348500Y0063433D01*
X0337000Y0063433D01*
X0337000Y0064433D01*
X0348500Y0064433D01*
X0348500Y0064607D01*
X0348349Y0065946D01*
X0348049Y0067260D01*
X0347604Y0068533D01*
X0347019Y0069747D01*
X0346302Y0070888D01*
X0345462Y0071942D01*
X0344509Y0072895D01*
X0343455Y0073735D01*
X0342314Y0074452D01*
X0341099Y0075037D01*
X0339827Y0075482D01*
X0338513Y0075782D01*
X0337174Y0075933D01*
X0337000Y0075933D01*
X0337000Y0064433D01*
X0336000Y0064433D01*
X0336000Y0075933D01*
X0335826Y0075933D01*
X0336000Y0075885D02*
X0337000Y0075885D01*
X0337597Y0075885D02*
X0351921Y0075885D01*
X0351921Y0074887D02*
X0341411Y0074887D01*
X0343211Y0073888D02*
X0351921Y0073888D01*
X0351921Y0072890D02*
X0344514Y0072890D01*
X0345502Y0071891D02*
X0351921Y0071891D01*
X0351921Y0070893D02*
X0346298Y0070893D01*
X0346927Y0069894D02*
X0351921Y0069894D01*
X0351921Y0068896D02*
X0347429Y0068896D01*
X0347826Y0067897D02*
X0351921Y0067897D01*
X0351921Y0066899D02*
X0348132Y0066899D01*
X0348354Y0065900D02*
X0351921Y0065900D01*
X0351921Y0064902D02*
X0348467Y0064902D01*
X0348460Y0062905D02*
X0351921Y0062905D01*
X0351921Y0063903D02*
X0337000Y0063903D01*
X0337000Y0062905D02*
X0336000Y0062905D01*
X0336000Y0063433D02*
X0336000Y0051933D01*
X0335826Y0051933D01*
X0334487Y0052084D01*
X0333173Y0052384D01*
X0331901Y0052829D01*
X0330686Y0053414D01*
X0329545Y0054131D01*
X0328491Y0054971D01*
X0327538Y0055924D01*
X0326698Y0056978D01*
X0325981Y0058119D01*
X0325396Y0059334D01*
X0324951Y0060606D01*
X0324651Y0061920D01*
X0324500Y0063259D01*
X0324500Y0063433D01*
X0336000Y0063433D01*
X0336000Y0063903D02*
X0314900Y0063903D01*
X0314900Y0062905D02*
X0324540Y0062905D01*
X0324654Y0061906D02*
X0314900Y0061906D01*
X0314900Y0060908D02*
X0324882Y0060908D01*
X0325195Y0059909D02*
X0314900Y0059909D01*
X0314900Y0058911D02*
X0325600Y0058911D01*
X0326111Y0057912D02*
X0314900Y0057912D01*
X0314900Y0056914D02*
X0326749Y0056914D01*
X0327547Y0055915D02*
X0314900Y0055915D01*
X0314900Y0054917D02*
X0328560Y0054917D01*
X0329884Y0053918D02*
X0309400Y0053918D01*
X0309400Y0052920D02*
X0308400Y0052920D01*
X0308400Y0053918D02*
X0274600Y0053918D01*
X0274600Y0052920D02*
X0273600Y0052920D01*
X0273600Y0053918D02*
X0084400Y0053918D01*
X0084400Y0052920D02*
X0083400Y0052920D01*
X0083400Y0053918D02*
X0049600Y0053918D01*
X0049600Y0052920D02*
X0048600Y0052920D01*
X0048600Y0053918D02*
X0028116Y0053918D01*
X0029440Y0054917D02*
X0043100Y0054917D01*
X0043100Y0054533D02*
X0048600Y0054533D01*
X0048600Y0065533D01*
X0044403Y0065533D01*
X0044021Y0065431D01*
X0043679Y0065233D01*
X0043400Y0064954D01*
X0043202Y0064612D01*
X0043100Y0064231D01*
X0043100Y0054533D01*
X0043100Y0055915D02*
X0030453Y0055915D01*
X0031251Y0056914D02*
X0043100Y0056914D01*
X0043100Y0057912D02*
X0031889Y0057912D01*
X0032400Y0058911D02*
X0043100Y0058911D01*
X0043100Y0059909D02*
X0032805Y0059909D01*
X0033118Y0060908D02*
X0043100Y0060908D01*
X0043100Y0061906D02*
X0033346Y0061906D01*
X0033460Y0062905D02*
X0043100Y0062905D01*
X0043100Y0063903D02*
X0022000Y0063903D01*
X0022000Y0062905D02*
X0021000Y0062905D01*
X0021000Y0063903D02*
X0006000Y0063903D01*
X0021000Y0064902D02*
X0022000Y0064902D01*
X0022000Y0065900D02*
X0021000Y0065900D01*
X0021000Y0066899D02*
X0022000Y0066899D01*
X0022000Y0067897D02*
X0021000Y0067897D01*
X0021000Y0068896D02*
X0022000Y0068896D01*
X0022000Y0069894D02*
X0021000Y0069894D01*
X0021000Y0070893D02*
X0022000Y0070893D01*
X0022000Y0071891D02*
X0021000Y0071891D01*
X0021000Y0072890D02*
X0022000Y0072890D01*
X0022000Y0073888D02*
X0021000Y0073888D01*
X0021000Y0074887D02*
X0022000Y0074887D01*
X0026411Y0074887D02*
X0331589Y0074887D01*
X0329789Y0073888D02*
X0028211Y0073888D01*
X0029514Y0072890D02*
X0328486Y0072890D01*
X0327498Y0071891D02*
X0030502Y0071891D01*
X0031298Y0070893D02*
X0326702Y0070893D01*
X0326073Y0069894D02*
X0031927Y0069894D01*
X0032429Y0068896D02*
X0325571Y0068896D01*
X0325174Y0067897D02*
X0032826Y0067897D01*
X0033132Y0066899D02*
X0324868Y0066899D01*
X0324646Y0065900D02*
X0033354Y0065900D01*
X0033467Y0064902D02*
X0043370Y0064902D01*
X0048600Y0064902D02*
X0049600Y0064902D01*
X0049600Y0063903D02*
X0048600Y0063903D01*
X0048600Y0062905D02*
X0049600Y0062905D01*
X0049600Y0061906D02*
X0048600Y0061906D01*
X0048600Y0060908D02*
X0049600Y0060908D01*
X0049600Y0059909D02*
X0048600Y0059909D01*
X0048600Y0058911D02*
X0049600Y0058911D01*
X0049600Y0057912D02*
X0048600Y0057912D01*
X0048600Y0056914D02*
X0049600Y0056914D01*
X0049600Y0055915D02*
X0048600Y0055915D01*
X0048600Y0054917D02*
X0049600Y0054917D01*
X0049600Y0051921D02*
X0048600Y0051921D01*
X0048600Y0050923D02*
X0049600Y0050923D01*
X0049600Y0049924D02*
X0048600Y0049924D01*
X0048600Y0048926D02*
X0049600Y0048926D01*
X0055100Y0048926D02*
X0077900Y0048926D01*
X0077900Y0049924D02*
X0055100Y0049924D01*
X0055100Y0050923D02*
X0077900Y0050923D01*
X0077900Y0051921D02*
X0055100Y0051921D01*
X0055100Y0052920D02*
X0077900Y0052920D01*
X0077900Y0054533D02*
X0083400Y0054533D01*
X0083400Y0065533D01*
X0079203Y0065533D01*
X0078821Y0065431D01*
X0078479Y0065233D01*
X0078200Y0064954D01*
X0078002Y0064612D01*
X0077900Y0064231D01*
X0077900Y0054533D01*
X0077900Y0054917D02*
X0055100Y0054917D01*
X0055100Y0055915D02*
X0077900Y0055915D01*
X0077900Y0056914D02*
X0055100Y0056914D01*
X0055100Y0057912D02*
X0077900Y0057912D01*
X0077900Y0058911D02*
X0055100Y0058911D01*
X0055100Y0059909D02*
X0077900Y0059909D01*
X0077900Y0060908D02*
X0055100Y0060908D01*
X0055100Y0061906D02*
X0077900Y0061906D01*
X0077900Y0062905D02*
X0055100Y0062905D01*
X0055100Y0063903D02*
X0077900Y0063903D01*
X0078170Y0064902D02*
X0054830Y0064902D01*
X0043100Y0052920D02*
X0026288Y0052920D01*
X0022000Y0052920D02*
X0021000Y0052920D01*
X0021000Y0053918D02*
X0022000Y0053918D01*
X0022000Y0054917D02*
X0021000Y0054917D01*
X0021000Y0055915D02*
X0022000Y0055915D01*
X0022000Y0056914D02*
X0021000Y0056914D01*
X0021000Y0057912D02*
X0022000Y0057912D01*
X0022000Y0058911D02*
X0021000Y0058911D01*
X0021000Y0059909D02*
X0022000Y0059909D01*
X0022000Y0060908D02*
X0021000Y0060908D01*
X0021000Y0061906D02*
X0022000Y0061906D01*
X0006000Y0076884D02*
X0351921Y0076884D01*
X0351921Y0077882D02*
X0006000Y0077882D01*
X0006000Y0078881D02*
X0351921Y0078881D01*
X0351921Y0079879D02*
X0006000Y0079879D01*
X0006000Y0080878D02*
X0351921Y0080878D01*
X0351921Y0081877D02*
X0006000Y0081877D01*
X0006000Y0082875D02*
X0049153Y0082875D01*
X0047424Y0083874D02*
X0027561Y0083874D01*
X0029028Y0084872D02*
X0046090Y0084872D01*
X0045092Y0085871D02*
X0030027Y0085871D01*
X0030734Y0086869D02*
X0044222Y0086869D01*
X0043646Y0087868D02*
X0031342Y0087868D01*
X0033125Y0088866D02*
X0043069Y0088866D01*
X0042667Y0089865D02*
X0034124Y0089865D01*
X0035122Y0090863D02*
X0042399Y0090863D01*
X0042132Y0091862D02*
X0036121Y0091862D01*
X0037119Y0092860D02*
X0042000Y0092860D01*
X0042000Y0093859D02*
X0038118Y0093859D01*
X0039116Y0094857D02*
X0042000Y0094857D01*
X0042000Y0095856D02*
X0039761Y0095856D01*
X0040174Y0096854D02*
X0042000Y0096854D01*
X0042000Y0097853D02*
X0040500Y0097853D01*
X0040500Y0098851D02*
X0042000Y0098851D01*
X0042000Y0099850D02*
X0040500Y0099850D01*
X0040500Y0100848D02*
X0042000Y0100848D01*
X0042000Y0101847D02*
X0040500Y0101847D01*
X0040500Y0102845D02*
X0042000Y0102845D01*
X0042000Y0103844D02*
X0040500Y0103844D01*
X0040500Y0104842D02*
X0042000Y0104842D01*
X0042000Y0105841D02*
X0040500Y0105841D01*
X0040500Y0106839D02*
X0042000Y0106839D01*
X0042000Y0107838D02*
X0040500Y0107838D01*
X0040500Y0108836D02*
X0042000Y0108836D01*
X0042000Y0109835D02*
X0040500Y0109835D01*
X0040500Y0110833D02*
X0042000Y0110833D01*
X0042000Y0111832D02*
X0040500Y0111832D01*
X0040500Y0112830D02*
X0042000Y0112830D01*
X0042000Y0113829D02*
X0040500Y0113829D01*
X0040500Y0114827D02*
X0042000Y0114827D01*
X0042000Y0115826D02*
X0040500Y0115826D01*
X0040500Y0116824D02*
X0042000Y0116824D01*
X0042000Y0117823D02*
X0040500Y0117823D01*
X0040500Y0118821D02*
X0042000Y0118821D01*
X0042000Y0119820D02*
X0040500Y0119820D01*
X0040500Y0120818D02*
X0042000Y0120818D01*
X0042000Y0121817D02*
X0040500Y0121817D01*
X0040500Y0122815D02*
X0042000Y0122815D01*
X0042000Y0123814D02*
X0040500Y0123814D01*
X0040500Y0124812D02*
X0042000Y0124812D01*
X0042000Y0125811D02*
X0040500Y0125811D01*
X0040500Y0126810D02*
X0042000Y0126810D01*
X0042000Y0127808D02*
X0040500Y0127808D01*
X0040500Y0128807D02*
X0042000Y0128807D01*
X0042000Y0129805D02*
X0040500Y0129805D01*
X0040500Y0130804D02*
X0042000Y0130804D01*
X0042000Y0131802D02*
X0040500Y0131802D01*
X0040500Y0132801D02*
X0042000Y0132801D01*
X0042000Y0133799D02*
X0040500Y0133799D01*
X0040500Y0134798D02*
X0042000Y0134798D01*
X0042000Y0135796D02*
X0040500Y0135796D01*
X0040500Y0136795D02*
X0042000Y0136795D01*
X0042000Y0137793D02*
X0040500Y0137793D01*
X0040500Y0138792D02*
X0042000Y0138792D01*
X0042000Y0139790D02*
X0040500Y0139790D01*
X0040500Y0140789D02*
X0042000Y0140789D01*
X0042000Y0141787D02*
X0040500Y0141787D01*
X0040500Y0142786D02*
X0042000Y0142786D01*
X0042000Y0143784D02*
X0040500Y0143784D01*
X0040500Y0144783D02*
X0042000Y0144783D01*
X0042000Y0145781D02*
X0040500Y0145781D01*
X0040500Y0146780D02*
X0042000Y0146780D01*
X0042000Y0147778D02*
X0040500Y0147778D01*
X0040500Y0148777D02*
X0042000Y0148777D01*
X0042000Y0149775D02*
X0040500Y0149775D01*
X0040500Y0150774D02*
X0042000Y0150774D01*
X0042000Y0151772D02*
X0040500Y0151772D01*
X0040500Y0152771D02*
X0042000Y0152771D01*
X0042000Y0153769D02*
X0040500Y0153769D01*
X0040500Y0154768D02*
X0042000Y0154768D01*
X0042000Y0155766D02*
X0040500Y0155766D01*
X0040500Y0156765D02*
X0042000Y0156765D01*
X0042000Y0157763D02*
X0040500Y0157763D01*
X0040500Y0158762D02*
X0042000Y0158762D01*
X0042000Y0159760D02*
X0040500Y0159760D01*
X0040500Y0160759D02*
X0042000Y0160759D01*
X0042000Y0161757D02*
X0040500Y0161757D01*
X0040500Y0162756D02*
X0042000Y0162756D01*
X0042000Y0163754D02*
X0040500Y0163754D01*
X0040500Y0164753D02*
X0042000Y0164753D01*
X0042000Y0165751D02*
X0040500Y0165751D01*
X0040500Y0166750D02*
X0042000Y0166750D01*
X0042000Y0167748D02*
X0040500Y0167748D01*
X0040500Y0168747D02*
X0042000Y0168747D01*
X0042000Y0169745D02*
X0040500Y0169745D01*
X0040500Y0170744D02*
X0042062Y0170744D01*
X0042329Y0171743D02*
X0040500Y0171743D01*
X0040500Y0172741D02*
X0042597Y0172741D01*
X0042919Y0173740D02*
X0040500Y0173740D01*
X0040500Y0174738D02*
X0043495Y0174738D01*
X0044072Y0175737D02*
X0040500Y0175737D01*
X0040500Y0176735D02*
X0044831Y0176735D01*
X0045830Y0177734D02*
X0040500Y0177734D01*
X0040500Y0178732D02*
X0046972Y0178732D01*
X0048702Y0179731D02*
X0040500Y0179731D01*
X0040500Y0180729D02*
X0051659Y0180729D01*
X0049616Y0181728D02*
X0040500Y0181728D01*
X0040500Y0182726D02*
X0048617Y0182726D01*
X0047619Y0183725D02*
X0040500Y0183725D01*
X0040500Y0184723D02*
X0047119Y0184723D01*
X0046706Y0185722D02*
X0040500Y0185722D01*
X0040500Y0186720D02*
X0046300Y0186720D01*
X0046300Y0187719D02*
X0040500Y0187719D01*
X0040500Y0188717D02*
X0046300Y0188717D01*
X0046300Y0189716D02*
X0040500Y0189716D01*
X0040500Y0190714D02*
X0046300Y0190714D01*
X0046300Y0191713D02*
X0040500Y0191713D01*
X0040500Y0192711D02*
X0046300Y0192711D01*
X0046300Y0193710D02*
X0040500Y0193710D01*
X0040500Y0194708D02*
X0046300Y0194708D01*
X0046300Y0195707D02*
X0040500Y0195707D01*
X0040500Y0196705D02*
X0046524Y0196705D01*
X0046938Y0197704D02*
X0040500Y0197704D01*
X0040500Y0198702D02*
X0047351Y0198702D01*
X0048178Y0199701D02*
X0040500Y0199701D01*
X0027500Y0201698D02*
X0027065Y0201698D01*
X0027500Y0202696D02*
X0006000Y0202696D01*
X0006000Y0201698D02*
X0020935Y0201698D01*
X0019177Y0200699D02*
X0017465Y0200699D01*
X0010535Y0200699D02*
X0006000Y0200699D01*
X0006000Y0199701D02*
X0009144Y0199701D01*
X0008145Y0198702D02*
X0006000Y0198702D01*
X0006000Y0197704D02*
X0007536Y0197704D01*
X0007123Y0196705D02*
X0006000Y0196705D01*
X0006000Y0195707D02*
X0006709Y0195707D01*
X0006700Y0194708D02*
X0006000Y0194708D01*
X0006000Y0193710D02*
X0006700Y0193710D01*
X0006700Y0192711D02*
X0006000Y0192711D01*
X0006000Y0191713D02*
X0006700Y0191713D01*
X0006700Y0190714D02*
X0006000Y0190714D01*
X0006000Y0189716D02*
X0006700Y0189716D01*
X0006700Y0188717D02*
X0006000Y0188717D01*
X0006000Y0187719D02*
X0006700Y0187719D01*
X0006891Y0186720D02*
X0006000Y0186720D01*
X0006000Y0185722D02*
X0007304Y0185722D01*
X0007718Y0184723D02*
X0006000Y0184723D01*
X0006000Y0183725D02*
X0008585Y0183725D01*
X0009583Y0182726D02*
X0006000Y0182726D01*
X0006000Y0181728D02*
X0011595Y0181728D01*
X0006000Y0180729D02*
X0021995Y0180729D01*
X0019616Y0181728D02*
X0016405Y0181728D01*
X0018417Y0182726D02*
X0018617Y0182726D01*
X0022196Y0176489D02*
X0022899Y0176717D01*
X0023500Y0176812D01*
X0023500Y0169433D01*
X0019300Y0169433D01*
X0019300Y0172503D01*
X0019416Y0173234D01*
X0019644Y0173937D01*
X0019980Y0174596D01*
X0020415Y0175195D01*
X0020938Y0175718D01*
X0021537Y0176153D01*
X0022196Y0176489D01*
X0023011Y0176735D02*
X0006000Y0176735D01*
X0006000Y0175737D02*
X0012406Y0175737D01*
X0012349Y0175718D02*
X0011746Y0175411D01*
X0011199Y0175013D01*
X0010720Y0174534D01*
X0010322Y0173987D01*
X0010015Y0173384D01*
X0009806Y0172740D01*
X0009700Y0172071D01*
X0009700Y0169233D01*
X0013700Y0169233D01*
X0013700Y0168633D01*
X0014300Y0168633D01*
X0014300Y0161833D01*
X0014338Y0161833D01*
X0015007Y0161939D01*
X0015651Y0162148D01*
X0016254Y0162455D01*
X0016801Y0162853D01*
X0017280Y0163332D01*
X0017678Y0163879D01*
X0017985Y0164482D01*
X0018194Y0165126D01*
X0018300Y0165795D01*
X0018300Y0168633D01*
X0014300Y0168633D01*
X0014300Y0169233D01*
X0018300Y0169233D01*
X0018300Y0172071D01*
X0018194Y0172740D01*
X0017985Y0173384D01*
X0017678Y0173987D01*
X0017280Y0174534D01*
X0016801Y0175013D01*
X0016254Y0175411D01*
X0015651Y0175718D01*
X0015007Y0175927D01*
X0014338Y0176033D01*
X0014300Y0176033D01*
X0014300Y0169233D01*
X0013700Y0169233D01*
X0013700Y0176033D01*
X0013662Y0176033D01*
X0012993Y0175927D01*
X0012349Y0175718D01*
X0013700Y0175737D02*
X0014300Y0175737D01*
X0014300Y0174738D02*
X0013700Y0174738D01*
X0013700Y0173740D02*
X0014300Y0173740D01*
X0014300Y0172741D02*
X0013700Y0172741D01*
X0013700Y0171743D02*
X0014300Y0171743D01*
X0014300Y0170744D02*
X0013700Y0170744D01*
X0013700Y0169745D02*
X0014300Y0169745D01*
X0014300Y0168747D02*
X0023500Y0168747D01*
X0023500Y0168433D02*
X0019300Y0168433D01*
X0019300Y0165363D01*
X0019416Y0164632D01*
X0019644Y0163929D01*
X0019980Y0163270D01*
X0020415Y0162671D01*
X0020938Y0162148D01*
X0021537Y0161713D01*
X0022196Y0161377D01*
X0022899Y0161149D01*
X0023500Y0161054D01*
X0023500Y0168433D01*
X0023500Y0167748D02*
X0024500Y0167748D01*
X0024500Y0166750D02*
X0023500Y0166750D01*
X0023500Y0165751D02*
X0024500Y0165751D01*
X0024500Y0164753D02*
X0023500Y0164753D01*
X0023500Y0163754D02*
X0024500Y0163754D01*
X0024500Y0162756D02*
X0023500Y0162756D01*
X0023500Y0161757D02*
X0024500Y0161757D01*
X0026524Y0161757D02*
X0027500Y0161757D01*
X0027500Y0160759D02*
X0006000Y0160759D01*
X0006000Y0161757D02*
X0021476Y0161757D01*
X0020353Y0162756D02*
X0016667Y0162756D01*
X0017587Y0163754D02*
X0019733Y0163754D01*
X0019397Y0164753D02*
X0018073Y0164753D01*
X0018293Y0165751D02*
X0019300Y0165751D01*
X0019300Y0166750D02*
X0018300Y0166750D01*
X0018300Y0167748D02*
X0019300Y0167748D01*
X0019300Y0169745D02*
X0018300Y0169745D01*
X0018300Y0170744D02*
X0019300Y0170744D01*
X0019300Y0171743D02*
X0018300Y0171743D01*
X0018194Y0172741D02*
X0019338Y0172741D01*
X0019580Y0173740D02*
X0017804Y0173740D01*
X0017076Y0174738D02*
X0020083Y0174738D01*
X0020964Y0175737D02*
X0015594Y0175737D01*
X0010924Y0174738D02*
X0006000Y0174738D01*
X0006000Y0173740D02*
X0010196Y0173740D01*
X0009806Y0172741D02*
X0006000Y0172741D01*
X0006000Y0171743D02*
X0009700Y0171743D01*
X0009700Y0170744D02*
X0006000Y0170744D01*
X0006000Y0169745D02*
X0009700Y0169745D01*
X0009700Y0168633D02*
X0009700Y0165795D01*
X0009806Y0165126D01*
X0010015Y0164482D01*
X0010322Y0163879D01*
X0010720Y0163332D01*
X0011199Y0162853D01*
X0011746Y0162455D01*
X0012349Y0162148D01*
X0012993Y0161939D01*
X0013662Y0161833D01*
X0013700Y0161833D01*
X0013700Y0168633D01*
X0009700Y0168633D01*
X0009700Y0167748D02*
X0006000Y0167748D01*
X0006000Y0166750D02*
X0009700Y0166750D01*
X0009707Y0165751D02*
X0006000Y0165751D01*
X0006000Y0164753D02*
X0009927Y0164753D01*
X0010413Y0163754D02*
X0006000Y0163754D01*
X0006000Y0162756D02*
X0011333Y0162756D01*
X0013700Y0162756D02*
X0014300Y0162756D01*
X0014300Y0163754D02*
X0013700Y0163754D01*
X0013700Y0164753D02*
X0014300Y0164753D01*
X0014300Y0165751D02*
X0013700Y0165751D01*
X0013700Y0166750D02*
X0014300Y0166750D01*
X0014300Y0167748D02*
X0013700Y0167748D01*
X0013700Y0168747D02*
X0006000Y0168747D01*
X0006000Y0177734D02*
X0027500Y0177734D01*
X0027500Y0178732D02*
X0006000Y0178732D01*
X0006000Y0179731D02*
X0027500Y0179731D01*
X0027500Y0180729D02*
X0026005Y0180729D01*
X0024989Y0176735D02*
X0027500Y0176735D01*
X0027500Y0175737D02*
X0027036Y0175737D01*
X0024500Y0175737D02*
X0023500Y0175737D01*
X0023500Y0176735D02*
X0024500Y0176735D01*
X0024500Y0174738D02*
X0023500Y0174738D01*
X0023500Y0173740D02*
X0024500Y0173740D01*
X0024500Y0172741D02*
X0023500Y0172741D01*
X0023500Y0171743D02*
X0024500Y0171743D01*
X0024500Y0170744D02*
X0023500Y0170744D01*
X0023500Y0169745D02*
X0024500Y0169745D01*
X0027500Y0159760D02*
X0006000Y0159760D01*
X0006000Y0158762D02*
X0027500Y0158762D01*
X0027500Y0157763D02*
X0006000Y0157763D01*
X0006000Y0156765D02*
X0027500Y0156765D01*
X0027500Y0155766D02*
X0006000Y0155766D01*
X0006000Y0154768D02*
X0027500Y0154768D01*
X0027500Y0153769D02*
X0006000Y0153769D01*
X0006000Y0152771D02*
X0027500Y0152771D01*
X0027500Y0151772D02*
X0006000Y0151772D01*
X0006000Y0150774D02*
X0027500Y0150774D01*
X0027500Y0149775D02*
X0025671Y0149775D01*
X0022329Y0149775D02*
X0006000Y0149775D01*
X0006000Y0148777D02*
X0011929Y0148777D01*
X0009721Y0147778D02*
X0006000Y0147778D01*
X0006000Y0146780D02*
X0008723Y0146780D01*
X0007775Y0145781D02*
X0006000Y0145781D01*
X0006000Y0144783D02*
X0007362Y0144783D01*
X0006948Y0143784D02*
X0006000Y0143784D01*
X0006000Y0142786D02*
X0006700Y0142786D01*
X0006700Y0141787D02*
X0006000Y0141787D01*
X0006000Y0140789D02*
X0006700Y0140789D01*
X0006700Y0139790D02*
X0006000Y0139790D01*
X0006000Y0138792D02*
X0006700Y0138792D01*
X0006700Y0137793D02*
X0006000Y0137793D01*
X0006000Y0136795D02*
X0006700Y0136795D01*
X0006700Y0135796D02*
X0006000Y0135796D01*
X0006000Y0134798D02*
X0006700Y0134798D01*
X0007065Y0133799D02*
X0006000Y0133799D01*
X0006000Y0132801D02*
X0007479Y0132801D01*
X0008007Y0131802D02*
X0006000Y0131802D01*
X0006000Y0130804D02*
X0009006Y0130804D01*
X0010201Y0129805D02*
X0006000Y0129805D01*
X0006000Y0128807D02*
X0010230Y0128807D01*
X0009828Y0127808D02*
X0006000Y0127808D01*
X0006000Y0126810D02*
X0009700Y0126810D01*
X0009700Y0125811D02*
X0006000Y0125811D01*
X0006000Y0124812D02*
X0009700Y0124812D01*
X0009700Y0123633D02*
X0009700Y0120795D01*
X0009806Y0120126D01*
X0010015Y0119482D01*
X0010322Y0118879D01*
X0010720Y0118332D01*
X0011199Y0117853D01*
X0011746Y0117455D01*
X0012349Y0117148D01*
X0012993Y0116939D01*
X0013662Y0116833D01*
X0013700Y0116833D01*
X0013700Y0123633D01*
X0009700Y0123633D01*
X0009700Y0122815D02*
X0006000Y0122815D01*
X0006000Y0121817D02*
X0009700Y0121817D01*
X0009700Y0120818D02*
X0006000Y0120818D01*
X0006000Y0119820D02*
X0009905Y0119820D01*
X0010364Y0118821D02*
X0006000Y0118821D01*
X0006000Y0117823D02*
X0011240Y0117823D01*
X0013700Y0117823D02*
X0014300Y0117823D01*
X0014300Y0118821D02*
X0013700Y0118821D01*
X0013700Y0119820D02*
X0014300Y0119820D01*
X0014300Y0120818D02*
X0013700Y0120818D01*
X0013700Y0121817D02*
X0014300Y0121817D01*
X0014300Y0122815D02*
X0013700Y0122815D01*
X0013700Y0123814D02*
X0006000Y0123814D01*
X0014300Y0123814D02*
X0023500Y0123814D01*
X0023500Y0123433D02*
X0019300Y0123433D01*
X0019300Y0120363D01*
X0019416Y0119632D01*
X0019644Y0118929D01*
X0019980Y0118270D01*
X0020415Y0117671D01*
X0020938Y0117148D01*
X0021537Y0116713D01*
X0022196Y0116377D01*
X0022899Y0116149D01*
X0023500Y0116054D01*
X0023500Y0123433D01*
X0023500Y0122815D02*
X0024500Y0122815D01*
X0024500Y0121817D02*
X0023500Y0121817D01*
X0023500Y0120818D02*
X0024500Y0120818D01*
X0024500Y0119820D02*
X0023500Y0119820D01*
X0023500Y0118821D02*
X0024500Y0118821D01*
X0024500Y0117823D02*
X0023500Y0117823D01*
X0023500Y0116824D02*
X0024500Y0116824D01*
X0026616Y0116824D02*
X0027500Y0116824D01*
X0027500Y0115826D02*
X0006000Y0115826D01*
X0006000Y0116824D02*
X0021384Y0116824D01*
X0020305Y0117823D02*
X0016760Y0117823D01*
X0017636Y0118821D02*
X0019699Y0118821D01*
X0019386Y0119820D02*
X0018095Y0119820D01*
X0018300Y0120818D02*
X0019300Y0120818D01*
X0019300Y0121817D02*
X0018300Y0121817D01*
X0018300Y0122815D02*
X0019300Y0122815D01*
X0019300Y0124812D02*
X0018300Y0124812D01*
X0018300Y0125811D02*
X0019300Y0125811D01*
X0019300Y0126810D02*
X0018300Y0126810D01*
X0018172Y0127808D02*
X0019348Y0127808D01*
X0019602Y0128807D02*
X0017770Y0128807D01*
X0017799Y0129805D02*
X0019039Y0129805D01*
X0027500Y0114827D02*
X0006000Y0114827D01*
X0006000Y0113829D02*
X0027500Y0113829D01*
X0027500Y0112830D02*
X0006000Y0112830D01*
X0006000Y0111832D02*
X0027500Y0111832D01*
X0027500Y0110833D02*
X0006000Y0110833D01*
X0006000Y0109835D02*
X0027500Y0109835D01*
X0027500Y0108836D02*
X0006000Y0108836D01*
X0006000Y0107838D02*
X0027500Y0107838D01*
X0027500Y0106839D02*
X0006000Y0106839D01*
X0006000Y0105841D02*
X0027500Y0105841D01*
X0027500Y0104842D02*
X0006000Y0104842D01*
X0006000Y0103844D02*
X0012091Y0103844D01*
X0009788Y0102845D02*
X0006000Y0102845D01*
X0006000Y0101847D02*
X0008790Y0101847D01*
X0007803Y0100848D02*
X0006000Y0100848D01*
X0006000Y0099850D02*
X0007389Y0099850D01*
X0006976Y0098851D02*
X0006000Y0098851D01*
X0006000Y0097853D02*
X0006700Y0097853D01*
X0006700Y0096854D02*
X0006000Y0096854D01*
X0006000Y0095856D02*
X0006700Y0095856D01*
X0006700Y0094857D02*
X0006000Y0094857D01*
X0006000Y0093859D02*
X0006700Y0093859D01*
X0006700Y0092860D02*
X0006000Y0092860D01*
X0006000Y0091862D02*
X0006700Y0091862D01*
X0006700Y0090863D02*
X0006000Y0090863D01*
X0006000Y0089865D02*
X0006700Y0089865D01*
X0007038Y0088866D02*
X0006000Y0088866D01*
X0006000Y0087868D02*
X0007451Y0087868D01*
X0007940Y0086869D02*
X0006000Y0086869D01*
X0006000Y0085871D02*
X0008939Y0085871D01*
X0010040Y0084872D02*
X0006000Y0084872D01*
X0006000Y0083874D02*
X0012450Y0083874D01*
X0015550Y0083874D02*
X0020439Y0083874D01*
X0018972Y0084872D02*
X0017960Y0084872D01*
X0018212Y0102845D02*
X0018823Y0102845D01*
X0020080Y0103844D02*
X0015909Y0103844D01*
X0058847Y0082875D02*
X0069153Y0082875D01*
X0067424Y0083874D02*
X0060576Y0083874D01*
X0061910Y0084872D02*
X0066090Y0084872D01*
X0065092Y0085871D02*
X0062908Y0085871D01*
X0063778Y0086869D02*
X0064222Y0086869D01*
X0078847Y0082875D02*
X0279153Y0082875D01*
X0279368Y0082751D02*
X0282420Y0081933D01*
X0285580Y0081933D01*
X0288632Y0082751D01*
X0291368Y0084331D01*
X0293602Y0086565D01*
X0294000Y0087254D01*
X0294398Y0086565D01*
X0296632Y0084331D01*
X0299368Y0082751D01*
X0302420Y0081933D01*
X0305580Y0081933D01*
X0308632Y0082751D01*
X0311368Y0084331D01*
X0313602Y0086565D01*
X0315182Y0089301D01*
X0316000Y0092353D01*
X0316000Y0140513D01*
X0316000Y0170513D01*
X0315182Y0173565D01*
X0313602Y0176301D01*
X0311368Y0178535D01*
X0308632Y0180115D01*
X0306137Y0180784D01*
X0308362Y0181705D01*
X0310528Y0183871D01*
X0311700Y0186701D01*
X0311700Y0196165D01*
X0310528Y0198995D01*
X0308362Y0201161D01*
X0305532Y0202333D01*
X0302468Y0202333D01*
X0299638Y0201161D01*
X0297472Y0198995D01*
X0296300Y0196165D01*
X0296300Y0186701D01*
X0297472Y0183871D01*
X0299638Y0181705D01*
X0301863Y0180784D01*
X0299368Y0180115D01*
X0296632Y0178535D01*
X0294398Y0176301D01*
X0294000Y0175613D01*
X0293602Y0176301D01*
X0291368Y0178535D01*
X0288632Y0180115D01*
X0285580Y0180933D01*
X0282420Y0180933D01*
X0279368Y0180115D01*
X0276632Y0178535D01*
X0274398Y0176301D01*
X0272818Y0173565D01*
X0272000Y0170513D01*
X0272000Y0092353D01*
X0272818Y0089301D01*
X0274398Y0086565D01*
X0276632Y0084331D01*
X0279368Y0082751D01*
X0277424Y0083874D02*
X0267561Y0083874D01*
X0268362Y0084205D02*
X0265532Y0083033D01*
X0262468Y0083033D01*
X0259638Y0084205D01*
X0257472Y0086371D01*
X0256300Y0089201D01*
X0256300Y0098665D01*
X0257472Y0101495D01*
X0257500Y0101522D01*
X0257500Y0116344D01*
X0257472Y0116371D01*
X0256300Y0119201D01*
X0256300Y0128665D01*
X0257447Y0131433D01*
X0256300Y0134201D01*
X0256300Y0143665D01*
X0257472Y0146495D01*
X0257500Y0146523D01*
X0257500Y0161344D01*
X0257472Y0161371D01*
X0256300Y0164201D01*
X0256300Y0173665D01*
X0257472Y0176495D01*
X0257500Y0176523D01*
X0257500Y0183844D01*
X0257472Y0183871D01*
X0256300Y0186701D01*
X0256300Y0196165D01*
X0257472Y0198995D01*
X0257500Y0199022D01*
X0257500Y0213844D01*
X0257472Y0213871D01*
X0256300Y0216701D01*
X0256300Y0226165D01*
X0257472Y0228995D01*
X0259638Y0231161D01*
X0262468Y0232333D01*
X0265532Y0232333D01*
X0268362Y0231161D01*
X0270528Y0228995D01*
X0271700Y0226165D01*
X0271700Y0216701D01*
X0270528Y0213871D01*
X0270500Y0213844D01*
X0270500Y0199022D01*
X0270528Y0198995D01*
X0271700Y0196165D01*
X0271700Y0186701D01*
X0270528Y0183871D01*
X0270500Y0183844D01*
X0270500Y0176523D01*
X0270528Y0176495D01*
X0271700Y0173665D01*
X0271700Y0164201D01*
X0270528Y0161371D01*
X0270500Y0161344D01*
X0270500Y0146523D01*
X0270528Y0146495D01*
X0271700Y0143665D01*
X0271700Y0134201D01*
X0270553Y0131433D01*
X0271700Y0128665D01*
X0271700Y0119201D01*
X0270528Y0116371D01*
X0270500Y0116344D01*
X0270500Y0101522D01*
X0270528Y0101495D01*
X0271700Y0098665D01*
X0271700Y0089201D01*
X0270528Y0086371D01*
X0268362Y0084205D01*
X0269028Y0084872D02*
X0276090Y0084872D01*
X0275092Y0085871D02*
X0270027Y0085871D01*
X0270734Y0086869D02*
X0274222Y0086869D01*
X0273646Y0087868D02*
X0271147Y0087868D01*
X0271561Y0088866D02*
X0273069Y0088866D01*
X0272667Y0089865D02*
X0271700Y0089865D01*
X0271700Y0090863D02*
X0272399Y0090863D01*
X0272132Y0091862D02*
X0271700Y0091862D01*
X0271700Y0092860D02*
X0272000Y0092860D01*
X0272000Y0093859D02*
X0271700Y0093859D01*
X0271700Y0094857D02*
X0272000Y0094857D01*
X0272000Y0095856D02*
X0271700Y0095856D01*
X0271700Y0096854D02*
X0272000Y0096854D01*
X0272000Y0097853D02*
X0271700Y0097853D01*
X0271623Y0098851D02*
X0272000Y0098851D01*
X0272000Y0099850D02*
X0271209Y0099850D01*
X0270796Y0100848D02*
X0272000Y0100848D01*
X0272000Y0101847D02*
X0270500Y0101847D01*
X0270500Y0102845D02*
X0272000Y0102845D01*
X0272000Y0103844D02*
X0270500Y0103844D01*
X0270500Y0104842D02*
X0272000Y0104842D01*
X0272000Y0105841D02*
X0270500Y0105841D01*
X0270500Y0106839D02*
X0272000Y0106839D01*
X0272000Y0107838D02*
X0270500Y0107838D01*
X0270500Y0108836D02*
X0272000Y0108836D01*
X0272000Y0109835D02*
X0270500Y0109835D01*
X0270500Y0110833D02*
X0272000Y0110833D01*
X0272000Y0111832D02*
X0270500Y0111832D01*
X0270500Y0112830D02*
X0272000Y0112830D01*
X0272000Y0113829D02*
X0270500Y0113829D01*
X0270500Y0114827D02*
X0272000Y0114827D01*
X0272000Y0115826D02*
X0270500Y0115826D01*
X0270715Y0116824D02*
X0272000Y0116824D01*
X0272000Y0117823D02*
X0271129Y0117823D01*
X0271543Y0118821D02*
X0272000Y0118821D01*
X0272000Y0119820D02*
X0271700Y0119820D01*
X0271700Y0120818D02*
X0272000Y0120818D01*
X0272000Y0121817D02*
X0271700Y0121817D01*
X0271700Y0122815D02*
X0272000Y0122815D01*
X0272000Y0123814D02*
X0271700Y0123814D01*
X0271700Y0124812D02*
X0272000Y0124812D01*
X0272000Y0125811D02*
X0271700Y0125811D01*
X0271700Y0126810D02*
X0272000Y0126810D01*
X0272000Y0127808D02*
X0271700Y0127808D01*
X0271641Y0128807D02*
X0272000Y0128807D01*
X0272000Y0129805D02*
X0271228Y0129805D01*
X0270814Y0130804D02*
X0272000Y0130804D01*
X0272000Y0131802D02*
X0270706Y0131802D01*
X0271120Y0132801D02*
X0272000Y0132801D01*
X0272000Y0133799D02*
X0271533Y0133799D01*
X0271700Y0134798D02*
X0272000Y0134798D01*
X0272000Y0135796D02*
X0271700Y0135796D01*
X0271700Y0136795D02*
X0272000Y0136795D01*
X0272000Y0137793D02*
X0271700Y0137793D01*
X0271700Y0138792D02*
X0272000Y0138792D01*
X0272000Y0139790D02*
X0271700Y0139790D01*
X0271700Y0140789D02*
X0272000Y0140789D01*
X0272000Y0141787D02*
X0271700Y0141787D01*
X0271700Y0142786D02*
X0272000Y0142786D01*
X0272000Y0143784D02*
X0271650Y0143784D01*
X0272000Y0144783D02*
X0271237Y0144783D01*
X0270823Y0145781D02*
X0272000Y0145781D01*
X0272000Y0146780D02*
X0270500Y0146780D01*
X0270500Y0147778D02*
X0272000Y0147778D01*
X0272000Y0148777D02*
X0270500Y0148777D01*
X0270500Y0149775D02*
X0272000Y0149775D01*
X0272000Y0150774D02*
X0270500Y0150774D01*
X0270500Y0151772D02*
X0272000Y0151772D01*
X0272000Y0152771D02*
X0270500Y0152771D01*
X0270500Y0153769D02*
X0272000Y0153769D01*
X0272000Y0154768D02*
X0270500Y0154768D01*
X0270500Y0155766D02*
X0272000Y0155766D01*
X0272000Y0156765D02*
X0270500Y0156765D01*
X0270500Y0157763D02*
X0272000Y0157763D01*
X0272000Y0158762D02*
X0270500Y0158762D01*
X0270500Y0159760D02*
X0272000Y0159760D01*
X0272000Y0160759D02*
X0270500Y0160759D01*
X0270688Y0161757D02*
X0272000Y0161757D01*
X0272000Y0162756D02*
X0271101Y0162756D01*
X0271515Y0163754D02*
X0272000Y0163754D01*
X0272000Y0164753D02*
X0271700Y0164753D01*
X0271700Y0165751D02*
X0272000Y0165751D01*
X0272000Y0166750D02*
X0271700Y0166750D01*
X0271700Y0167748D02*
X0272000Y0167748D01*
X0272000Y0168747D02*
X0271700Y0168747D01*
X0271700Y0169745D02*
X0272000Y0169745D01*
X0272062Y0170744D02*
X0271700Y0170744D01*
X0271700Y0171743D02*
X0272329Y0171743D01*
X0272597Y0172741D02*
X0271700Y0172741D01*
X0271669Y0173740D02*
X0272919Y0173740D01*
X0273495Y0174738D02*
X0271255Y0174738D01*
X0270842Y0175737D02*
X0274072Y0175737D01*
X0274831Y0176735D02*
X0270500Y0176735D01*
X0270500Y0177734D02*
X0275830Y0177734D01*
X0276972Y0178732D02*
X0270500Y0178732D01*
X0270500Y0179731D02*
X0278702Y0179731D01*
X0281659Y0180729D02*
X0270500Y0180729D01*
X0270500Y0181728D02*
X0299616Y0181728D01*
X0298617Y0182726D02*
X0270500Y0182726D01*
X0270500Y0183725D02*
X0282666Y0183725D01*
X0282899Y0183649D02*
X0282196Y0183877D01*
X0281537Y0184213D01*
X0280938Y0184648D01*
X0280415Y0185171D01*
X0279980Y0185770D01*
X0279644Y0186429D01*
X0279416Y0187132D01*
X0279300Y0187863D01*
X0279300Y0190933D01*
X0283500Y0190933D01*
X0284500Y0190933D01*
X0284500Y0183554D01*
X0285101Y0183649D01*
X0285804Y0183877D01*
X0286463Y0184213D01*
X0287062Y0184648D01*
X0287585Y0185171D01*
X0288020Y0185770D01*
X0288356Y0186429D01*
X0288584Y0187132D01*
X0288700Y0187863D01*
X0288700Y0190933D01*
X0284500Y0190933D01*
X0284500Y0191933D01*
X0288700Y0191933D01*
X0288700Y0195003D01*
X0288584Y0195734D01*
X0288356Y0196437D01*
X0288020Y0197096D01*
X0287585Y0197695D01*
X0287062Y0198218D01*
X0286463Y0198653D01*
X0285804Y0198989D01*
X0285101Y0199217D01*
X0284500Y0199312D01*
X0284500Y0191933D01*
X0283500Y0191933D01*
X0283500Y0190933D01*
X0283500Y0183554D01*
X0282899Y0183649D01*
X0283500Y0183725D02*
X0284500Y0183725D01*
X0285334Y0183725D02*
X0297619Y0183725D01*
X0297119Y0184723D02*
X0287137Y0184723D01*
X0287985Y0185722D02*
X0296706Y0185722D01*
X0296300Y0186720D02*
X0288450Y0186720D01*
X0288677Y0187719D02*
X0296300Y0187719D01*
X0296300Y0188717D02*
X0288700Y0188717D01*
X0288700Y0189716D02*
X0296300Y0189716D01*
X0296300Y0190714D02*
X0288700Y0190714D01*
X0288700Y0192711D02*
X0296300Y0192711D01*
X0296300Y0191713D02*
X0284500Y0191713D01*
X0284500Y0192711D02*
X0283500Y0192711D01*
X0283500Y0191933D02*
X0283500Y0199312D01*
X0282899Y0199217D01*
X0282196Y0198989D01*
X0281537Y0198653D01*
X0280938Y0198218D01*
X0280415Y0197695D01*
X0279980Y0197096D01*
X0279644Y0196437D01*
X0279416Y0195734D01*
X0279300Y0195003D01*
X0279300Y0191933D01*
X0283500Y0191933D01*
X0283500Y0191713D02*
X0271700Y0191713D01*
X0271700Y0192711D02*
X0279300Y0192711D01*
X0279300Y0193710D02*
X0271700Y0193710D01*
X0271700Y0194708D02*
X0279300Y0194708D01*
X0279411Y0195707D02*
X0271700Y0195707D01*
X0271476Y0196705D02*
X0279781Y0196705D01*
X0280424Y0197704D02*
X0271062Y0197704D01*
X0270649Y0198702D02*
X0281634Y0198702D01*
X0283500Y0198702D02*
X0284500Y0198702D01*
X0284500Y0197704D02*
X0283500Y0197704D01*
X0283500Y0196705D02*
X0284500Y0196705D01*
X0284500Y0195707D02*
X0283500Y0195707D01*
X0283500Y0194708D02*
X0284500Y0194708D01*
X0284500Y0193710D02*
X0283500Y0193710D01*
X0283500Y0190714D02*
X0284500Y0190714D01*
X0284500Y0189716D02*
X0283500Y0189716D01*
X0283500Y0188717D02*
X0284500Y0188717D01*
X0284500Y0187719D02*
X0283500Y0187719D01*
X0283500Y0186720D02*
X0284500Y0186720D01*
X0284500Y0185722D02*
X0283500Y0185722D01*
X0283500Y0184723D02*
X0284500Y0184723D01*
X0280863Y0184723D02*
X0270881Y0184723D01*
X0271294Y0185722D02*
X0280015Y0185722D01*
X0279550Y0186720D02*
X0271700Y0186720D01*
X0271700Y0187719D02*
X0279323Y0187719D01*
X0279300Y0188717D02*
X0271700Y0188717D01*
X0271700Y0189716D02*
X0279300Y0189716D01*
X0279300Y0190714D02*
X0271700Y0190714D01*
X0270500Y0199701D02*
X0298178Y0199701D01*
X0297351Y0198702D02*
X0286366Y0198702D01*
X0287576Y0197704D02*
X0296938Y0197704D01*
X0296524Y0196705D02*
X0288219Y0196705D01*
X0288589Y0195707D02*
X0296300Y0195707D01*
X0296300Y0194708D02*
X0288700Y0194708D01*
X0288700Y0193710D02*
X0296300Y0193710D01*
X0299177Y0200699D02*
X0270500Y0200699D01*
X0270500Y0201698D02*
X0300935Y0201698D01*
X0307065Y0201698D02*
X0317500Y0201698D01*
X0317500Y0202696D02*
X0270500Y0202696D01*
X0270500Y0203695D02*
X0317500Y0203695D01*
X0317500Y0204693D02*
X0270500Y0204693D01*
X0270500Y0205692D02*
X0317500Y0205692D01*
X0317500Y0206690D02*
X0270500Y0206690D01*
X0270500Y0207689D02*
X0317500Y0207689D01*
X0317500Y0208687D02*
X0270500Y0208687D01*
X0270500Y0209686D02*
X0317500Y0209686D01*
X0317500Y0210684D02*
X0305897Y0210684D01*
X0305532Y0210533D02*
X0308362Y0211705D01*
X0310528Y0213871D01*
X0311700Y0216701D01*
X0311700Y0226165D01*
X0310528Y0228995D01*
X0308362Y0231161D01*
X0305532Y0232333D01*
X0302468Y0232333D01*
X0299638Y0231161D01*
X0297472Y0228995D01*
X0296300Y0226165D01*
X0296300Y0216701D01*
X0297472Y0213871D01*
X0299638Y0211705D01*
X0302468Y0210533D01*
X0305532Y0210533D01*
X0308308Y0211683D02*
X0317500Y0211683D01*
X0317500Y0212681D02*
X0309338Y0212681D01*
X0310336Y0213680D02*
X0317500Y0213680D01*
X0317500Y0214679D02*
X0310862Y0214679D01*
X0311276Y0215677D02*
X0317500Y0215677D01*
X0317500Y0216676D02*
X0311689Y0216676D01*
X0311700Y0217674D02*
X0317500Y0217674D01*
X0317500Y0218673D02*
X0311700Y0218673D01*
X0311700Y0219671D02*
X0317500Y0219671D01*
X0317500Y0220670D02*
X0311700Y0220670D01*
X0311700Y0221668D02*
X0317500Y0221668D01*
X0317500Y0222667D02*
X0311700Y0222667D01*
X0311700Y0223665D02*
X0317500Y0223665D01*
X0317500Y0224664D02*
X0311700Y0224664D01*
X0311700Y0225662D02*
X0317500Y0225662D01*
X0317500Y0226661D02*
X0311495Y0226661D01*
X0311081Y0227659D02*
X0317500Y0227659D01*
X0317500Y0228658D02*
X0310667Y0228658D01*
X0309866Y0229656D02*
X0316584Y0229656D01*
X0315586Y0230655D02*
X0308868Y0230655D01*
X0307173Y0231653D02*
X0314587Y0231653D01*
X0313589Y0232652D02*
X0044411Y0232652D01*
X0044883Y0233650D02*
X0313117Y0233650D01*
X0312704Y0234649D02*
X0045296Y0234649D01*
X0045500Y0235647D02*
X0312500Y0235647D01*
X0312500Y0236646D02*
X0045500Y0236646D01*
X0045500Y0237644D02*
X0312500Y0237644D01*
X0312500Y0238643D02*
X0045500Y0238643D01*
X0045500Y0239641D02*
X0312500Y0239641D01*
X0312500Y0240640D02*
X0045500Y0240640D01*
X0045500Y0241638D02*
X0312500Y0241638D01*
X0312500Y0242637D02*
X0045500Y0242637D01*
X0045500Y0243635D02*
X0312500Y0243635D01*
X0312500Y0244634D02*
X0045500Y0244634D01*
X0045500Y0245632D02*
X0312500Y0245632D01*
X0312500Y0246631D02*
X0045500Y0246631D01*
X0045500Y0247629D02*
X0312500Y0247629D01*
X0312500Y0248628D02*
X0045500Y0248628D01*
X0045500Y0249626D02*
X0312500Y0249626D01*
X0312500Y0250625D02*
X0045500Y0250625D01*
X0045883Y0251623D02*
X0312117Y0251623D01*
X0322514Y0259612D02*
X0351921Y0259612D01*
X0351921Y0260610D02*
X0321515Y0260610D01*
X0323512Y0258613D02*
X0351921Y0258613D01*
X0351921Y0257614D02*
X0340878Y0257614D01*
X0342849Y0256616D02*
X0351921Y0256616D01*
X0351921Y0255617D02*
X0344230Y0255617D01*
X0345285Y0254619D02*
X0351921Y0254619D01*
X0351921Y0253620D02*
X0346117Y0253620D01*
X0346784Y0252622D02*
X0351921Y0252622D01*
X0351921Y0251623D02*
X0347319Y0251623D01*
X0347747Y0250625D02*
X0351921Y0250625D01*
X0351921Y0249626D02*
X0348080Y0249626D01*
X0348308Y0248628D02*
X0351921Y0248628D01*
X0351921Y0247629D02*
X0348441Y0247629D01*
X0348486Y0245632D02*
X0351921Y0245632D01*
X0351921Y0244634D02*
X0348373Y0244634D01*
X0348170Y0243635D02*
X0351921Y0243635D01*
X0351921Y0242637D02*
X0347885Y0242637D01*
X0347510Y0241638D02*
X0351921Y0241638D01*
X0351921Y0240640D02*
X0347029Y0240640D01*
X0346405Y0239641D02*
X0351921Y0239641D01*
X0351921Y0238643D02*
X0345636Y0238643D01*
X0344682Y0237644D02*
X0351921Y0237644D01*
X0351921Y0236646D02*
X0343474Y0236646D01*
X0341760Y0235647D02*
X0351921Y0235647D01*
X0351921Y0234649D02*
X0338797Y0234649D01*
X0337000Y0234649D02*
X0336000Y0234649D01*
X0336000Y0235647D02*
X0337000Y0235647D01*
X0337000Y0236646D02*
X0336000Y0236646D01*
X0336000Y0237644D02*
X0337000Y0237644D01*
X0337000Y0238643D02*
X0336000Y0238643D01*
X0336000Y0239641D02*
X0337000Y0239641D01*
X0337000Y0240640D02*
X0336000Y0240640D01*
X0336000Y0241638D02*
X0337000Y0241638D01*
X0337000Y0242637D02*
X0336000Y0242637D01*
X0336000Y0243635D02*
X0337000Y0243635D01*
X0337000Y0244634D02*
X0336000Y0244634D01*
X0336000Y0245632D02*
X0337000Y0245632D01*
X0337000Y0246631D02*
X0351921Y0246631D01*
X0337000Y0247629D02*
X0336000Y0247629D01*
X0336000Y0248628D02*
X0337000Y0248628D01*
X0337000Y0249626D02*
X0336000Y0249626D01*
X0336000Y0250625D02*
X0337000Y0250625D01*
X0337000Y0251623D02*
X0336000Y0251623D01*
X0336000Y0252622D02*
X0337000Y0252622D01*
X0337000Y0253620D02*
X0336000Y0253620D01*
X0336000Y0254619D02*
X0337000Y0254619D01*
X0337000Y0255617D02*
X0336000Y0255617D01*
X0336000Y0256616D02*
X0337000Y0256616D01*
X0337000Y0257614D02*
X0336000Y0257614D01*
X0332122Y0257614D02*
X0324511Y0257614D01*
X0324924Y0256616D02*
X0330151Y0256616D01*
X0328770Y0255617D02*
X0325338Y0255617D01*
X0325500Y0254619D02*
X0327715Y0254619D01*
X0326883Y0253620D02*
X0325500Y0253620D01*
X0325500Y0252622D02*
X0326216Y0252622D01*
X0325681Y0251623D02*
X0325500Y0251623D01*
X0325500Y0240640D02*
X0325971Y0240640D01*
X0325500Y0239641D02*
X0326595Y0239641D01*
X0325983Y0238643D02*
X0327364Y0238643D01*
X0326981Y0237644D02*
X0328318Y0237644D01*
X0327980Y0236646D02*
X0329526Y0236646D01*
X0328978Y0235647D02*
X0331240Y0235647D01*
X0329704Y0234649D02*
X0334203Y0234649D01*
X0330117Y0233650D02*
X0351921Y0233650D01*
X0351921Y0232652D02*
X0330500Y0232652D01*
X0330500Y0231653D02*
X0330827Y0231653D01*
X0337173Y0231653D02*
X0351921Y0231653D01*
X0351921Y0230655D02*
X0347573Y0230655D01*
X0348901Y0229656D02*
X0351921Y0229656D01*
X0351921Y0228658D02*
X0349899Y0228658D01*
X0350482Y0227659D02*
X0351921Y0227659D01*
X0351921Y0226661D02*
X0350896Y0226661D01*
X0351300Y0225662D02*
X0351921Y0225662D01*
X0351921Y0224664D02*
X0351300Y0224664D01*
X0351300Y0223665D02*
X0351921Y0223665D01*
X0351921Y0222667D02*
X0351300Y0222667D01*
X0351300Y0221668D02*
X0351921Y0221668D01*
X0351921Y0220670D02*
X0351300Y0220670D01*
X0351300Y0219671D02*
X0351921Y0219671D01*
X0351921Y0218673D02*
X0351300Y0218673D01*
X0351300Y0217674D02*
X0351921Y0217674D01*
X0351921Y0216676D02*
X0351091Y0216676D01*
X0350677Y0215677D02*
X0351921Y0215677D01*
X0351921Y0214679D02*
X0350263Y0214679D01*
X0349371Y0213680D02*
X0351921Y0213680D01*
X0351921Y0212681D02*
X0348372Y0212681D01*
X0346297Y0211683D02*
X0351921Y0211683D01*
X0351921Y0210684D02*
X0335897Y0210684D01*
X0338308Y0211683D02*
X0341703Y0211683D01*
X0339628Y0212681D02*
X0339338Y0212681D01*
X0332103Y0210684D02*
X0330500Y0210684D01*
X0330500Y0209686D02*
X0351921Y0209686D01*
X0351921Y0208687D02*
X0330500Y0208687D01*
X0330500Y0207689D02*
X0351921Y0207689D01*
X0351921Y0206690D02*
X0330500Y0206690D01*
X0330500Y0205692D02*
X0351921Y0205692D01*
X0351921Y0204693D02*
X0330500Y0204693D01*
X0330500Y0203695D02*
X0351921Y0203695D01*
X0351921Y0202696D02*
X0330500Y0202696D01*
X0330500Y0201698D02*
X0351921Y0201698D01*
X0351921Y0200699D02*
X0330500Y0200699D01*
X0330500Y0199701D02*
X0351921Y0199701D01*
X0351921Y0198702D02*
X0336366Y0198702D01*
X0337576Y0197704D02*
X0341461Y0197704D01*
X0341199Y0197513D02*
X0340720Y0197034D01*
X0340322Y0196487D01*
X0340015Y0195884D01*
X0339806Y0195240D01*
X0339700Y0194571D01*
X0339700Y0191733D01*
X0343700Y0191733D01*
X0343700Y0191133D01*
X0344300Y0191133D01*
X0344300Y0184333D01*
X0344338Y0184333D01*
X0345007Y0184439D01*
X0345651Y0184648D01*
X0346254Y0184955D01*
X0346801Y0185353D01*
X0347280Y0185832D01*
X0347678Y0186379D01*
X0347985Y0186982D01*
X0348194Y0187626D01*
X0348300Y0188295D01*
X0348300Y0191133D01*
X0344300Y0191133D01*
X0344300Y0191733D01*
X0348300Y0191733D01*
X0348300Y0194571D01*
X0348194Y0195240D01*
X0347985Y0195884D01*
X0347678Y0196487D01*
X0347280Y0197034D01*
X0346801Y0197513D01*
X0346254Y0197911D01*
X0345651Y0198218D01*
X0345007Y0198427D01*
X0344338Y0198533D01*
X0344300Y0198533D01*
X0344300Y0191733D01*
X0343700Y0191733D01*
X0343700Y0198533D01*
X0343662Y0198533D01*
X0342993Y0198427D01*
X0342349Y0198218D01*
X0341746Y0197911D01*
X0341199Y0197513D01*
X0340481Y0196705D02*
X0338219Y0196705D01*
X0338589Y0195707D02*
X0339958Y0195707D01*
X0339722Y0194708D02*
X0338700Y0194708D01*
X0338700Y0193710D02*
X0339700Y0193710D01*
X0339700Y0192711D02*
X0338700Y0192711D01*
X0339700Y0191133D02*
X0339700Y0188295D01*
X0339806Y0187626D01*
X0340015Y0186982D01*
X0340322Y0186379D01*
X0340720Y0185832D01*
X0341199Y0185353D01*
X0341746Y0184955D01*
X0342349Y0184648D01*
X0342993Y0184439D01*
X0343662Y0184333D01*
X0343700Y0184333D01*
X0343700Y0191133D01*
X0339700Y0191133D01*
X0339700Y0190714D02*
X0338700Y0190714D01*
X0338700Y0189716D02*
X0339700Y0189716D01*
X0339700Y0188717D02*
X0338700Y0188717D01*
X0338677Y0187719D02*
X0339791Y0187719D01*
X0340149Y0186720D02*
X0338450Y0186720D01*
X0337985Y0185722D02*
X0340830Y0185722D01*
X0342202Y0184723D02*
X0337137Y0184723D01*
X0335334Y0183725D02*
X0351921Y0183725D01*
X0351921Y0184723D02*
X0345798Y0184723D01*
X0344300Y0184723D02*
X0343700Y0184723D01*
X0343700Y0185722D02*
X0344300Y0185722D01*
X0344300Y0186720D02*
X0343700Y0186720D01*
X0343700Y0187719D02*
X0344300Y0187719D01*
X0344300Y0188717D02*
X0343700Y0188717D01*
X0343700Y0189716D02*
X0344300Y0189716D01*
X0344300Y0190714D02*
X0343700Y0190714D01*
X0343700Y0191713D02*
X0334500Y0191713D01*
X0334500Y0192711D02*
X0333500Y0192711D01*
X0333500Y0193710D02*
X0334500Y0193710D01*
X0334500Y0194708D02*
X0333500Y0194708D01*
X0333500Y0195707D02*
X0334500Y0195707D01*
X0334500Y0196705D02*
X0333500Y0196705D01*
X0333500Y0197704D02*
X0334500Y0197704D01*
X0334500Y0198702D02*
X0333500Y0198702D01*
X0331634Y0198702D02*
X0330500Y0198702D01*
X0333500Y0190714D02*
X0334500Y0190714D01*
X0334500Y0189716D02*
X0333500Y0189716D01*
X0333500Y0188717D02*
X0334500Y0188717D01*
X0334500Y0187719D02*
X0333500Y0187719D01*
X0333500Y0186720D02*
X0334500Y0186720D01*
X0334500Y0185722D02*
X0333500Y0185722D01*
X0333500Y0184723D02*
X0334500Y0184723D01*
X0334500Y0183725D02*
X0333500Y0183725D01*
X0332666Y0183725D02*
X0330500Y0183725D01*
X0330500Y0184723D02*
X0330863Y0184723D01*
X0330500Y0182726D02*
X0351921Y0182726D01*
X0351921Y0181728D02*
X0330500Y0181728D01*
X0330500Y0180729D02*
X0351921Y0180729D01*
X0351921Y0179731D02*
X0335779Y0179731D01*
X0338190Y0178732D02*
X0341821Y0178732D01*
X0339677Y0177734D02*
X0339289Y0177734D01*
X0346179Y0178732D02*
X0351921Y0178732D01*
X0351921Y0177734D02*
X0348323Y0177734D01*
X0349322Y0176735D02*
X0351921Y0176735D01*
X0351921Y0175737D02*
X0350243Y0175737D01*
X0350657Y0174738D02*
X0351921Y0174738D01*
X0351921Y0173740D02*
X0351070Y0173740D01*
X0351300Y0172741D02*
X0351921Y0172741D01*
X0351921Y0171743D02*
X0351300Y0171743D01*
X0351300Y0170744D02*
X0351921Y0170744D01*
X0351921Y0169745D02*
X0351300Y0169745D01*
X0351300Y0168747D02*
X0351921Y0168747D01*
X0351921Y0167748D02*
X0351300Y0167748D01*
X0351300Y0166750D02*
X0351921Y0166750D01*
X0351921Y0165751D02*
X0351300Y0165751D01*
X0351300Y0164753D02*
X0351921Y0164753D01*
X0351921Y0163754D02*
X0350916Y0163754D01*
X0350503Y0162756D02*
X0351921Y0162756D01*
X0351921Y0161757D02*
X0349948Y0161757D01*
X0348950Y0160759D02*
X0351921Y0160759D01*
X0351921Y0159760D02*
X0347691Y0159760D01*
X0351921Y0158762D02*
X0337291Y0158762D01*
X0338917Y0159760D02*
X0340309Y0159760D01*
X0330709Y0158762D02*
X0330500Y0158762D01*
X0330500Y0157763D02*
X0351921Y0157763D01*
X0351921Y0156765D02*
X0330500Y0156765D01*
X0330500Y0155766D02*
X0351921Y0155766D01*
X0351921Y0154768D02*
X0330500Y0154768D01*
X0330500Y0153769D02*
X0351921Y0153769D01*
X0351921Y0152771D02*
X0330500Y0152771D01*
X0330500Y0151772D02*
X0351921Y0151772D01*
X0351921Y0150774D02*
X0330500Y0150774D01*
X0330500Y0149775D02*
X0351921Y0149775D01*
X0351921Y0148777D02*
X0330500Y0148777D01*
X0330500Y0147778D02*
X0351921Y0147778D01*
X0351921Y0146780D02*
X0334707Y0146780D01*
X0334500Y0146780D02*
X0333500Y0146780D01*
X0333293Y0146780D02*
X0330500Y0146780D01*
X0330500Y0145781D02*
X0331025Y0145781D01*
X0333500Y0145781D02*
X0334500Y0145781D01*
X0334500Y0144783D02*
X0333500Y0144783D01*
X0333500Y0143784D02*
X0334500Y0143784D01*
X0334500Y0142786D02*
X0333500Y0142786D01*
X0333500Y0141787D02*
X0334500Y0141787D01*
X0334500Y0140789D02*
X0333500Y0140789D01*
X0333500Y0139790D02*
X0334500Y0139790D01*
X0334500Y0138792D02*
X0343700Y0138792D01*
X0343700Y0139233D02*
X0339700Y0139233D01*
X0339700Y0142071D01*
X0339806Y0142740D01*
X0340015Y0143384D01*
X0340322Y0143987D01*
X0340720Y0144534D01*
X0341199Y0145013D01*
X0341746Y0145411D01*
X0342349Y0145718D01*
X0342993Y0145927D01*
X0343662Y0146033D01*
X0343700Y0146033D01*
X0343700Y0139233D01*
X0343700Y0139790D02*
X0344300Y0139790D01*
X0344300Y0138792D02*
X0351921Y0138792D01*
X0351921Y0139790D02*
X0348300Y0139790D01*
X0348300Y0140789D02*
X0351921Y0140789D01*
X0351921Y0141787D02*
X0348300Y0141787D01*
X0348179Y0142786D02*
X0351921Y0142786D01*
X0351921Y0143784D02*
X0347781Y0143784D01*
X0347031Y0144783D02*
X0351921Y0144783D01*
X0351921Y0145781D02*
X0345456Y0145781D01*
X0344300Y0145781D02*
X0343700Y0145781D01*
X0343700Y0144783D02*
X0344300Y0144783D01*
X0344300Y0143784D02*
X0343700Y0143784D01*
X0343700Y0142786D02*
X0344300Y0142786D01*
X0344300Y0141787D02*
X0343700Y0141787D01*
X0343700Y0140789D02*
X0344300Y0140789D01*
X0339700Y0140789D02*
X0338700Y0140789D01*
X0338700Y0141787D02*
X0339700Y0141787D01*
X0339821Y0142786D02*
X0338655Y0142786D01*
X0338405Y0143784D02*
X0340219Y0143784D01*
X0340969Y0144783D02*
X0337884Y0144783D01*
X0336975Y0145781D02*
X0342544Y0145781D01*
X0339700Y0139790D02*
X0338700Y0139790D01*
X0338700Y0137793D02*
X0339700Y0137793D01*
X0339700Y0136795D02*
X0338700Y0136795D01*
X0338700Y0135796D02*
X0339700Y0135796D01*
X0339913Y0134798D02*
X0338610Y0134798D01*
X0338290Y0133799D02*
X0340381Y0133799D01*
X0339744Y0132801D02*
X0339222Y0132801D01*
X0347619Y0133799D02*
X0351921Y0133799D01*
X0351921Y0132801D02*
X0348256Y0132801D01*
X0349255Y0131802D02*
X0351921Y0131802D01*
X0351921Y0130804D02*
X0350215Y0130804D01*
X0350629Y0129805D02*
X0351921Y0129805D01*
X0351921Y0128807D02*
X0351043Y0128807D01*
X0351300Y0127808D02*
X0351921Y0127808D01*
X0351921Y0126810D02*
X0351300Y0126810D01*
X0351300Y0125811D02*
X0351921Y0125811D01*
X0351921Y0124812D02*
X0351300Y0124812D01*
X0351300Y0123814D02*
X0351921Y0123814D01*
X0351921Y0122815D02*
X0351300Y0122815D01*
X0351300Y0121817D02*
X0351921Y0121817D01*
X0351921Y0120818D02*
X0351300Y0120818D01*
X0351300Y0119820D02*
X0351921Y0119820D01*
X0351921Y0118821D02*
X0350944Y0118821D01*
X0350530Y0117823D02*
X0351921Y0117823D01*
X0351921Y0116824D02*
X0350015Y0116824D01*
X0349017Y0115826D02*
X0351921Y0115826D01*
X0351921Y0114827D02*
X0347853Y0114827D01*
X0351921Y0113829D02*
X0337453Y0113829D01*
X0338984Y0114827D02*
X0340147Y0114827D01*
X0330547Y0113829D02*
X0316000Y0113829D01*
X0316000Y0114827D02*
X0329016Y0114827D01*
X0328018Y0115826D02*
X0316000Y0115826D01*
X0316000Y0116824D02*
X0327285Y0116824D01*
X0326766Y0117823D02*
X0316000Y0117823D01*
X0316000Y0118821D02*
X0324919Y0118821D01*
X0323921Y0119820D02*
X0316000Y0119820D01*
X0316000Y0120818D02*
X0322922Y0120818D01*
X0321924Y0121817D02*
X0316000Y0121817D01*
X0316000Y0122815D02*
X0320925Y0122815D01*
X0319927Y0123814D02*
X0316000Y0123814D01*
X0316000Y0124812D02*
X0318928Y0124812D01*
X0318258Y0125811D02*
X0316000Y0125811D01*
X0316000Y0126810D02*
X0317844Y0126810D01*
X0317500Y0127808D02*
X0316000Y0127808D01*
X0316000Y0128807D02*
X0317500Y0128807D01*
X0317500Y0129805D02*
X0316000Y0129805D01*
X0316000Y0130804D02*
X0317500Y0130804D01*
X0317500Y0131802D02*
X0316000Y0131802D01*
X0316000Y0132801D02*
X0317500Y0132801D01*
X0317500Y0133799D02*
X0316000Y0133799D01*
X0316000Y0134798D02*
X0317500Y0134798D01*
X0317500Y0135796D02*
X0316000Y0135796D01*
X0316000Y0136795D02*
X0317500Y0136795D01*
X0317500Y0137793D02*
X0316000Y0137793D01*
X0316000Y0138792D02*
X0317500Y0138792D01*
X0317500Y0139790D02*
X0316000Y0139790D01*
X0316000Y0140789D02*
X0317500Y0140789D01*
X0317500Y0141787D02*
X0316000Y0141787D01*
X0316000Y0142786D02*
X0317500Y0142786D01*
X0317500Y0143784D02*
X0316000Y0143784D01*
X0316000Y0144783D02*
X0317500Y0144783D01*
X0317500Y0145781D02*
X0316000Y0145781D01*
X0316000Y0146780D02*
X0317500Y0146780D01*
X0317500Y0147778D02*
X0316000Y0147778D01*
X0316000Y0148777D02*
X0317500Y0148777D01*
X0317500Y0149775D02*
X0316000Y0149775D01*
X0316000Y0150774D02*
X0317500Y0150774D01*
X0317500Y0151772D02*
X0316000Y0151772D01*
X0316000Y0152771D02*
X0317500Y0152771D01*
X0317500Y0153769D02*
X0316000Y0153769D01*
X0316000Y0154768D02*
X0317500Y0154768D01*
X0317500Y0155766D02*
X0316000Y0155766D01*
X0316000Y0156765D02*
X0317500Y0156765D01*
X0317500Y0157763D02*
X0316000Y0157763D01*
X0316000Y0158762D02*
X0317500Y0158762D01*
X0317500Y0159760D02*
X0316000Y0159760D01*
X0316000Y0160759D02*
X0317500Y0160759D01*
X0317500Y0161757D02*
X0316000Y0161757D01*
X0316000Y0162756D02*
X0317500Y0162756D01*
X0317500Y0163754D02*
X0316000Y0163754D01*
X0316000Y0164753D02*
X0317500Y0164753D01*
X0317500Y0165751D02*
X0316000Y0165751D01*
X0316000Y0166750D02*
X0317500Y0166750D01*
X0317500Y0167748D02*
X0316000Y0167748D01*
X0316000Y0168747D02*
X0317500Y0168747D01*
X0317500Y0169745D02*
X0316000Y0169745D01*
X0315938Y0170744D02*
X0317500Y0170744D01*
X0317500Y0171743D02*
X0315671Y0171743D01*
X0315403Y0172741D02*
X0317500Y0172741D01*
X0317500Y0173740D02*
X0315081Y0173740D01*
X0314505Y0174738D02*
X0317500Y0174738D01*
X0317500Y0175737D02*
X0313928Y0175737D01*
X0313169Y0176735D02*
X0317500Y0176735D01*
X0317500Y0177734D02*
X0312170Y0177734D01*
X0311028Y0178732D02*
X0317500Y0178732D01*
X0317500Y0179731D02*
X0309298Y0179731D01*
X0308384Y0181728D02*
X0317500Y0181728D01*
X0317500Y0182726D02*
X0309383Y0182726D01*
X0310381Y0183725D02*
X0317500Y0183725D01*
X0317500Y0184723D02*
X0310881Y0184723D01*
X0311294Y0185722D02*
X0317500Y0185722D01*
X0317500Y0186720D02*
X0311700Y0186720D01*
X0311700Y0187719D02*
X0317500Y0187719D01*
X0317500Y0188717D02*
X0311700Y0188717D01*
X0311700Y0189716D02*
X0317500Y0189716D01*
X0317500Y0190714D02*
X0311700Y0190714D01*
X0311700Y0191713D02*
X0317500Y0191713D01*
X0317500Y0192711D02*
X0311700Y0192711D01*
X0311700Y0193710D02*
X0317500Y0193710D01*
X0317500Y0194708D02*
X0311700Y0194708D01*
X0311700Y0195707D02*
X0317500Y0195707D01*
X0317500Y0196705D02*
X0311476Y0196705D01*
X0311062Y0197704D02*
X0317500Y0197704D01*
X0317500Y0198702D02*
X0310649Y0198702D01*
X0309822Y0199701D02*
X0317500Y0199701D01*
X0317500Y0200699D02*
X0308823Y0200699D01*
X0302103Y0210684D02*
X0270500Y0210684D01*
X0270500Y0211683D02*
X0299692Y0211683D01*
X0298662Y0212681D02*
X0270500Y0212681D01*
X0270500Y0213680D02*
X0282803Y0213680D01*
X0282899Y0213649D02*
X0282196Y0213877D01*
X0281537Y0214213D01*
X0280938Y0214648D01*
X0280415Y0215171D01*
X0279980Y0215770D01*
X0279644Y0216429D01*
X0279416Y0217132D01*
X0279300Y0217863D01*
X0279300Y0220933D01*
X0283500Y0220933D01*
X0284500Y0220933D01*
X0284500Y0213554D01*
X0285101Y0213649D01*
X0285804Y0213877D01*
X0286463Y0214213D01*
X0287062Y0214648D01*
X0287585Y0215171D01*
X0288020Y0215770D01*
X0288356Y0216429D01*
X0288584Y0217132D01*
X0288700Y0217863D01*
X0288700Y0220933D01*
X0284500Y0220933D01*
X0284500Y0221933D01*
X0288700Y0221933D01*
X0288700Y0225003D01*
X0288584Y0225734D01*
X0288356Y0226437D01*
X0288020Y0227096D01*
X0287585Y0227695D01*
X0287062Y0228218D01*
X0286463Y0228653D01*
X0285804Y0228989D01*
X0285101Y0229217D01*
X0284500Y0229312D01*
X0284500Y0221933D01*
X0283500Y0221933D01*
X0283500Y0220933D01*
X0283500Y0213554D01*
X0282899Y0213649D01*
X0283500Y0213680D02*
X0284500Y0213680D01*
X0285197Y0213680D02*
X0297664Y0213680D01*
X0297138Y0214679D02*
X0287092Y0214679D01*
X0287952Y0215677D02*
X0296724Y0215677D01*
X0296311Y0216676D02*
X0288436Y0216676D01*
X0288670Y0217674D02*
X0296300Y0217674D01*
X0296300Y0218673D02*
X0288700Y0218673D01*
X0288700Y0219671D02*
X0296300Y0219671D01*
X0296300Y0220670D02*
X0288700Y0220670D01*
X0288700Y0222667D02*
X0296300Y0222667D01*
X0296300Y0223665D02*
X0288700Y0223665D01*
X0288700Y0224664D02*
X0296300Y0224664D01*
X0296300Y0225662D02*
X0288596Y0225662D01*
X0288242Y0226661D02*
X0296505Y0226661D01*
X0296919Y0227659D02*
X0287611Y0227659D01*
X0286454Y0228658D02*
X0297333Y0228658D01*
X0298134Y0229656D02*
X0269866Y0229656D01*
X0270667Y0228658D02*
X0281546Y0228658D01*
X0281537Y0228653D02*
X0280938Y0228218D01*
X0280415Y0227695D01*
X0279980Y0227096D01*
X0279644Y0226437D01*
X0279416Y0225734D01*
X0279300Y0225003D01*
X0279300Y0221933D01*
X0283500Y0221933D01*
X0283500Y0229312D01*
X0282899Y0229217D01*
X0282196Y0228989D01*
X0281537Y0228653D01*
X0280389Y0227659D02*
X0271081Y0227659D01*
X0271495Y0226661D02*
X0279758Y0226661D01*
X0279404Y0225662D02*
X0271700Y0225662D01*
X0271700Y0224664D02*
X0279300Y0224664D01*
X0279300Y0223665D02*
X0271700Y0223665D01*
X0271700Y0222667D02*
X0279300Y0222667D01*
X0279300Y0220670D02*
X0271700Y0220670D01*
X0271700Y0221668D02*
X0283500Y0221668D01*
X0283500Y0220670D02*
X0284500Y0220670D01*
X0284500Y0221668D02*
X0296300Y0221668D01*
X0284500Y0222667D02*
X0283500Y0222667D01*
X0283500Y0223665D02*
X0284500Y0223665D01*
X0284500Y0224664D02*
X0283500Y0224664D01*
X0283500Y0225662D02*
X0284500Y0225662D01*
X0284500Y0226661D02*
X0283500Y0226661D01*
X0283500Y0227659D02*
X0284500Y0227659D01*
X0284500Y0228658D02*
X0283500Y0228658D01*
X0283500Y0219671D02*
X0284500Y0219671D01*
X0284500Y0218673D02*
X0283500Y0218673D01*
X0283500Y0217674D02*
X0284500Y0217674D01*
X0284500Y0216676D02*
X0283500Y0216676D01*
X0283500Y0215677D02*
X0284500Y0215677D01*
X0284500Y0214679D02*
X0283500Y0214679D01*
X0280908Y0214679D02*
X0270862Y0214679D01*
X0271276Y0215677D02*
X0280048Y0215677D01*
X0279564Y0216676D02*
X0271689Y0216676D01*
X0271700Y0217674D02*
X0279330Y0217674D01*
X0279300Y0218673D02*
X0271700Y0218673D01*
X0271700Y0219671D02*
X0279300Y0219671D01*
X0268868Y0230655D02*
X0299132Y0230655D01*
X0300827Y0231653D02*
X0267173Y0231653D01*
X0260827Y0231653D02*
X0097173Y0231653D01*
X0098362Y0231161D02*
X0095532Y0232333D01*
X0092468Y0232333D01*
X0089638Y0231161D01*
X0087472Y0228995D01*
X0086300Y0226165D01*
X0086300Y0216701D01*
X0087472Y0213871D01*
X0087500Y0213844D01*
X0087500Y0199023D01*
X0087472Y0198995D01*
X0086300Y0196165D01*
X0086300Y0186701D01*
X0087472Y0183871D01*
X0087500Y0183844D01*
X0087500Y0176523D01*
X0087472Y0176495D01*
X0086300Y0173665D01*
X0086300Y0164201D01*
X0087472Y0161371D01*
X0087500Y0161344D01*
X0087500Y0146523D01*
X0087472Y0146495D01*
X0086300Y0143665D01*
X0086300Y0134201D01*
X0087447Y0131433D01*
X0086300Y0128665D01*
X0086300Y0119201D01*
X0087472Y0116371D01*
X0087500Y0116344D01*
X0087500Y0101523D01*
X0087472Y0101495D01*
X0086300Y0098665D01*
X0086300Y0089201D01*
X0087472Y0086371D01*
X0089638Y0084205D01*
X0092468Y0083033D01*
X0095532Y0083033D01*
X0098362Y0084205D01*
X0100528Y0086371D01*
X0101700Y0089201D01*
X0101700Y0098665D01*
X0100528Y0101495D01*
X0100500Y0101523D01*
X0100500Y0116344D01*
X0100528Y0116371D01*
X0101700Y0119201D01*
X0101700Y0128665D01*
X0100553Y0131433D01*
X0101700Y0134201D01*
X0101700Y0143665D01*
X0100528Y0146495D01*
X0100500Y0146523D01*
X0100500Y0161344D01*
X0100528Y0161371D01*
X0101700Y0164201D01*
X0101700Y0173665D01*
X0100528Y0176495D01*
X0100500Y0176523D01*
X0100500Y0183844D01*
X0100528Y0183871D01*
X0101700Y0186701D01*
X0101700Y0196165D01*
X0100528Y0198995D01*
X0100500Y0199023D01*
X0100500Y0213844D01*
X0100528Y0213871D01*
X0101700Y0216701D01*
X0101700Y0226165D01*
X0100528Y0228995D01*
X0098362Y0231161D01*
X0098868Y0230655D02*
X0259132Y0230655D01*
X0258134Y0229656D02*
X0099866Y0229656D01*
X0100667Y0228658D02*
X0257333Y0228658D01*
X0256919Y0227659D02*
X0101081Y0227659D01*
X0101495Y0226661D02*
X0256505Y0226661D01*
X0256300Y0225662D02*
X0101700Y0225662D01*
X0101700Y0224664D02*
X0256300Y0224664D01*
X0256300Y0223665D02*
X0101700Y0223665D01*
X0101700Y0222667D02*
X0256300Y0222667D01*
X0256300Y0221668D02*
X0101700Y0221668D01*
X0101700Y0220670D02*
X0256300Y0220670D01*
X0256300Y0219671D02*
X0101700Y0219671D01*
X0101700Y0218673D02*
X0256300Y0218673D01*
X0256300Y0217674D02*
X0101700Y0217674D01*
X0101689Y0216676D02*
X0256311Y0216676D01*
X0256724Y0215677D02*
X0101276Y0215677D01*
X0100862Y0214679D02*
X0257138Y0214679D01*
X0257500Y0213680D02*
X0100500Y0213680D01*
X0100500Y0212681D02*
X0257500Y0212681D01*
X0257500Y0211683D02*
X0100500Y0211683D01*
X0100500Y0210684D02*
X0257500Y0210684D01*
X0257500Y0209686D02*
X0100500Y0209686D01*
X0100500Y0208687D02*
X0257500Y0208687D01*
X0257500Y0207689D02*
X0100500Y0207689D01*
X0100500Y0206690D02*
X0257500Y0206690D01*
X0257500Y0205692D02*
X0100500Y0205692D01*
X0100500Y0204693D02*
X0257500Y0204693D01*
X0257500Y0203695D02*
X0100500Y0203695D01*
X0100500Y0202696D02*
X0257500Y0202696D01*
X0257500Y0201698D02*
X0100500Y0201698D01*
X0100500Y0200699D02*
X0115867Y0200699D01*
X0116101Y0200933D02*
X0112000Y0196833D01*
X0112000Y0191034D01*
X0112500Y0190534D01*
X0112500Y0170140D01*
X0113490Y0167751D01*
X0132508Y0148733D01*
X0124748Y0148733D01*
X0122065Y0147622D01*
X0120011Y0145568D01*
X0118900Y0142885D01*
X0118900Y0139981D01*
X0120011Y0137298D01*
X0122065Y0135244D01*
X0124748Y0134133D01*
X0133252Y0134133D01*
X0135935Y0135244D01*
X0137989Y0137298D01*
X0139100Y0139981D01*
X0139100Y0142141D01*
X0143490Y0137751D01*
X0145318Y0135923D01*
X0147707Y0134933D01*
X0152817Y0134933D01*
X0154748Y0134133D01*
X0163252Y0134133D01*
X0165935Y0135244D01*
X0167989Y0137298D01*
X0169100Y0139981D01*
X0169100Y0142885D01*
X0167989Y0145568D01*
X0165935Y0147622D01*
X0163252Y0148733D01*
X0154748Y0148733D01*
X0152817Y0147933D01*
X0151692Y0147933D01*
X0125500Y0174125D01*
X0125500Y0190534D01*
X0126000Y0191034D01*
X0126000Y0196833D01*
X0121899Y0200933D01*
X0116101Y0200933D01*
X0114868Y0199701D02*
X0100500Y0199701D01*
X0100649Y0198702D02*
X0113870Y0198702D01*
X0112871Y0197704D02*
X0101062Y0197704D01*
X0101476Y0196705D02*
X0112000Y0196705D01*
X0112000Y0195707D02*
X0101700Y0195707D01*
X0101700Y0194708D02*
X0112000Y0194708D01*
X0112000Y0193710D02*
X0101700Y0193710D01*
X0101700Y0192711D02*
X0112000Y0192711D01*
X0112000Y0191713D02*
X0101700Y0191713D01*
X0101700Y0190714D02*
X0112319Y0190714D01*
X0112500Y0189716D02*
X0101700Y0189716D01*
X0101700Y0188717D02*
X0112500Y0188717D01*
X0112500Y0187719D02*
X0101700Y0187719D01*
X0101700Y0186720D02*
X0112500Y0186720D01*
X0112500Y0185722D02*
X0101294Y0185722D01*
X0100881Y0184723D02*
X0112500Y0184723D01*
X0112500Y0183725D02*
X0100500Y0183725D01*
X0100500Y0182726D02*
X0112500Y0182726D01*
X0112500Y0181728D02*
X0100500Y0181728D01*
X0100500Y0180729D02*
X0112500Y0180729D01*
X0112500Y0179731D02*
X0100500Y0179731D01*
X0100500Y0178732D02*
X0112500Y0178732D01*
X0112500Y0177734D02*
X0100500Y0177734D01*
X0100500Y0176735D02*
X0112500Y0176735D01*
X0112500Y0175737D02*
X0100842Y0175737D01*
X0101255Y0174738D02*
X0112500Y0174738D01*
X0112500Y0173740D02*
X0101669Y0173740D01*
X0101700Y0172741D02*
X0112500Y0172741D01*
X0112500Y0171743D02*
X0101700Y0171743D01*
X0101700Y0170744D02*
X0112500Y0170744D01*
X0112663Y0169745D02*
X0101700Y0169745D01*
X0101700Y0168747D02*
X0113077Y0168747D01*
X0113492Y0167748D02*
X0101700Y0167748D01*
X0101700Y0166750D02*
X0114491Y0166750D01*
X0115489Y0165751D02*
X0101700Y0165751D01*
X0101700Y0164753D02*
X0116488Y0164753D01*
X0117486Y0163754D02*
X0101515Y0163754D01*
X0101101Y0162756D02*
X0118485Y0162756D01*
X0119483Y0161757D02*
X0100688Y0161757D01*
X0100500Y0160759D02*
X0120482Y0160759D01*
X0121480Y0159760D02*
X0100500Y0159760D01*
X0100500Y0158762D02*
X0122479Y0158762D01*
X0123477Y0157763D02*
X0100500Y0157763D01*
X0100500Y0156765D02*
X0124476Y0156765D01*
X0125474Y0155766D02*
X0100500Y0155766D01*
X0100500Y0154768D02*
X0126473Y0154768D01*
X0127471Y0153769D02*
X0100500Y0153769D01*
X0100500Y0152771D02*
X0128470Y0152771D01*
X0129468Y0151772D02*
X0100500Y0151772D01*
X0100500Y0150774D02*
X0130467Y0150774D01*
X0131465Y0149775D02*
X0100500Y0149775D01*
X0100500Y0148777D02*
X0132464Y0148777D01*
X0139100Y0141787D02*
X0139453Y0141787D01*
X0139100Y0140789D02*
X0140452Y0140789D01*
X0141451Y0139790D02*
X0139021Y0139790D01*
X0138607Y0138792D02*
X0142449Y0138792D01*
X0143448Y0137793D02*
X0138194Y0137793D01*
X0137485Y0136795D02*
X0144446Y0136795D01*
X0145623Y0135796D02*
X0136487Y0135796D01*
X0134856Y0134798D02*
X0153144Y0134798D01*
X0147891Y0126758D02*
X0147159Y0127180D01*
X0146378Y0127504D01*
X0145561Y0127723D01*
X0144800Y0127823D01*
X0144800Y0116933D01*
X0150750Y0116933D01*
X0150750Y0121806D01*
X0150640Y0122644D01*
X0150421Y0123461D01*
X0150097Y0124242D01*
X0149674Y0124974D01*
X0149160Y0125645D01*
X0148562Y0126243D01*
X0147891Y0126758D01*
X0147801Y0126810D02*
X0256300Y0126810D01*
X0256300Y0127808D02*
X0144913Y0127808D01*
X0144800Y0127808D02*
X0143800Y0127808D01*
X0143800Y0127823D02*
X0143800Y0116933D01*
X0144800Y0116933D01*
X0144800Y0115933D01*
X0144800Y0105043D01*
X0145561Y0105143D01*
X0146378Y0105362D01*
X0147159Y0105686D01*
X0147891Y0106109D01*
X0148562Y0106623D01*
X0149160Y0107221D01*
X0149674Y0107892D01*
X0150097Y0108624D01*
X0150421Y0109405D01*
X0150640Y0110222D01*
X0150750Y0111060D01*
X0150750Y0115933D01*
X0144800Y0115933D01*
X0143800Y0115933D01*
X0143800Y0105043D01*
X0143039Y0105143D01*
X0142222Y0105362D01*
X0141441Y0105686D01*
X0140709Y0106109D01*
X0140038Y0106623D01*
X0139440Y0107221D01*
X0138926Y0107892D01*
X0138503Y0108624D01*
X0138179Y0109405D01*
X0138136Y0109568D01*
X0136711Y0106130D01*
X0134053Y0103472D01*
X0130580Y0102033D01*
X0126820Y0102033D01*
X0123347Y0103472D01*
X0120689Y0106130D01*
X0119250Y0109603D01*
X0119250Y0123263D01*
X0120689Y0126736D01*
X0123347Y0129394D01*
X0126820Y0130833D01*
X0130580Y0130833D01*
X0134053Y0129394D01*
X0136711Y0126736D01*
X0138136Y0123298D01*
X0138179Y0123461D01*
X0138503Y0124242D01*
X0138926Y0124974D01*
X0139440Y0125645D01*
X0140038Y0126243D01*
X0140709Y0126758D01*
X0141441Y0127180D01*
X0142222Y0127504D01*
X0143039Y0127723D01*
X0143800Y0127823D01*
X0143687Y0127808D02*
X0135639Y0127808D01*
X0134641Y0128807D02*
X0256359Y0128807D01*
X0256772Y0129805D02*
X0133062Y0129805D01*
X0130651Y0130804D02*
X0257186Y0130804D01*
X0257294Y0131802D02*
X0100706Y0131802D01*
X0100814Y0130804D02*
X0126749Y0130804D01*
X0124338Y0129805D02*
X0101228Y0129805D01*
X0101641Y0128807D02*
X0122759Y0128807D01*
X0121761Y0127808D02*
X0101700Y0127808D01*
X0101700Y0126810D02*
X0120762Y0126810D01*
X0120306Y0125811D02*
X0101700Y0125811D01*
X0101700Y0124812D02*
X0119892Y0124812D01*
X0119478Y0123814D02*
X0101700Y0123814D01*
X0101700Y0122815D02*
X0119250Y0122815D01*
X0119250Y0121817D02*
X0101700Y0121817D01*
X0101700Y0120818D02*
X0119250Y0120818D01*
X0119250Y0119820D02*
X0101700Y0119820D01*
X0101543Y0118821D02*
X0119250Y0118821D01*
X0119250Y0117823D02*
X0101129Y0117823D01*
X0100715Y0116824D02*
X0119250Y0116824D01*
X0119250Y0115826D02*
X0100500Y0115826D01*
X0100500Y0114827D02*
X0119250Y0114827D01*
X0119250Y0113829D02*
X0100500Y0113829D01*
X0100500Y0112830D02*
X0119250Y0112830D01*
X0119250Y0111832D02*
X0100500Y0111832D01*
X0100500Y0110833D02*
X0119250Y0110833D01*
X0119250Y0109835D02*
X0100500Y0109835D01*
X0100500Y0108836D02*
X0119568Y0108836D01*
X0119981Y0107838D02*
X0100500Y0107838D01*
X0100500Y0106839D02*
X0120395Y0106839D01*
X0120978Y0105841D02*
X0100500Y0105841D01*
X0100500Y0104842D02*
X0121976Y0104842D01*
X0122975Y0103844D02*
X0100500Y0103844D01*
X0100500Y0102845D02*
X0124860Y0102845D01*
X0132540Y0102845D02*
X0257500Y0102845D01*
X0257500Y0101847D02*
X0100500Y0101847D01*
X0100796Y0100848D02*
X0257204Y0100848D01*
X0256791Y0099850D02*
X0101209Y0099850D01*
X0101623Y0098851D02*
X0256377Y0098851D01*
X0256300Y0097853D02*
X0101700Y0097853D01*
X0101700Y0096854D02*
X0256300Y0096854D01*
X0256300Y0095856D02*
X0101700Y0095856D01*
X0101700Y0094857D02*
X0256300Y0094857D01*
X0256300Y0093859D02*
X0101700Y0093859D01*
X0101700Y0092860D02*
X0256300Y0092860D01*
X0256300Y0091862D02*
X0101700Y0091862D01*
X0101700Y0090863D02*
X0256300Y0090863D01*
X0256300Y0089865D02*
X0101700Y0089865D01*
X0101561Y0088866D02*
X0256439Y0088866D01*
X0256852Y0087868D02*
X0101147Y0087868D01*
X0100734Y0086869D02*
X0257266Y0086869D01*
X0257973Y0085871D02*
X0100027Y0085871D01*
X0099028Y0084872D02*
X0258972Y0084872D01*
X0260439Y0083874D02*
X0097561Y0083874D01*
X0090439Y0083874D02*
X0080576Y0083874D01*
X0081910Y0084872D02*
X0088972Y0084872D01*
X0087973Y0085871D02*
X0082908Y0085871D01*
X0083778Y0086869D02*
X0087266Y0086869D01*
X0086852Y0087868D02*
X0084354Y0087868D01*
X0084931Y0088866D02*
X0086439Y0088866D01*
X0086300Y0089865D02*
X0085333Y0089865D01*
X0085601Y0090863D02*
X0086300Y0090863D01*
X0086300Y0091862D02*
X0085868Y0091862D01*
X0086000Y0092860D02*
X0086300Y0092860D01*
X0086300Y0093859D02*
X0086000Y0093859D01*
X0086000Y0094857D02*
X0086300Y0094857D01*
X0086300Y0095856D02*
X0086000Y0095856D01*
X0086000Y0096854D02*
X0086300Y0096854D01*
X0086300Y0097853D02*
X0086000Y0097853D01*
X0086000Y0098851D02*
X0086377Y0098851D01*
X0086000Y0099850D02*
X0086791Y0099850D01*
X0087204Y0100848D02*
X0086000Y0100848D01*
X0086000Y0101847D02*
X0087500Y0101847D01*
X0087500Y0102845D02*
X0086000Y0102845D01*
X0086000Y0103844D02*
X0087500Y0103844D01*
X0087500Y0104842D02*
X0086000Y0104842D01*
X0086000Y0105841D02*
X0087500Y0105841D01*
X0087500Y0106839D02*
X0086000Y0106839D01*
X0086000Y0107838D02*
X0087500Y0107838D01*
X0087500Y0108836D02*
X0086000Y0108836D01*
X0086000Y0109835D02*
X0087500Y0109835D01*
X0087500Y0110833D02*
X0086000Y0110833D01*
X0086000Y0111832D02*
X0087500Y0111832D01*
X0087500Y0112830D02*
X0086000Y0112830D01*
X0086000Y0113829D02*
X0087500Y0113829D01*
X0087500Y0114827D02*
X0086000Y0114827D01*
X0086000Y0115826D02*
X0087500Y0115826D01*
X0087285Y0116824D02*
X0086000Y0116824D01*
X0086000Y0117823D02*
X0086871Y0117823D01*
X0086457Y0118821D02*
X0086000Y0118821D01*
X0086000Y0119820D02*
X0086300Y0119820D01*
X0086300Y0120818D02*
X0086000Y0120818D01*
X0086000Y0121817D02*
X0086300Y0121817D01*
X0086300Y0122815D02*
X0086000Y0122815D01*
X0086000Y0123814D02*
X0086300Y0123814D01*
X0086300Y0124812D02*
X0086000Y0124812D01*
X0086000Y0125811D02*
X0086300Y0125811D01*
X0086300Y0126810D02*
X0086000Y0126810D01*
X0086000Y0127808D02*
X0086300Y0127808D01*
X0086359Y0128807D02*
X0086000Y0128807D01*
X0086000Y0129805D02*
X0086772Y0129805D01*
X0087186Y0130804D02*
X0086000Y0130804D01*
X0086000Y0131802D02*
X0087294Y0131802D01*
X0086880Y0132801D02*
X0086000Y0132801D01*
X0086000Y0133799D02*
X0086467Y0133799D01*
X0086300Y0134798D02*
X0086000Y0134798D01*
X0086000Y0135796D02*
X0086300Y0135796D01*
X0086300Y0136795D02*
X0086000Y0136795D01*
X0086000Y0137793D02*
X0086300Y0137793D01*
X0086300Y0138792D02*
X0086000Y0138792D01*
X0086000Y0139790D02*
X0086300Y0139790D01*
X0086300Y0140789D02*
X0086000Y0140789D01*
X0086000Y0141787D02*
X0086300Y0141787D01*
X0086300Y0142786D02*
X0086000Y0142786D01*
X0086000Y0143784D02*
X0086350Y0143784D01*
X0086000Y0144783D02*
X0086763Y0144783D01*
X0087177Y0145781D02*
X0086000Y0145781D01*
X0086000Y0146780D02*
X0087500Y0146780D01*
X0087500Y0147778D02*
X0086000Y0147778D01*
X0086000Y0148777D02*
X0087500Y0148777D01*
X0087500Y0149775D02*
X0086000Y0149775D01*
X0086000Y0150774D02*
X0087500Y0150774D01*
X0087500Y0151772D02*
X0086000Y0151772D01*
X0086000Y0152771D02*
X0087500Y0152771D01*
X0087500Y0153769D02*
X0086000Y0153769D01*
X0086000Y0154768D02*
X0087500Y0154768D01*
X0087500Y0155766D02*
X0086000Y0155766D01*
X0086000Y0156765D02*
X0087500Y0156765D01*
X0087500Y0157763D02*
X0086000Y0157763D01*
X0086000Y0158762D02*
X0087500Y0158762D01*
X0087500Y0159760D02*
X0086000Y0159760D01*
X0086000Y0160759D02*
X0087500Y0160759D01*
X0087312Y0161757D02*
X0086000Y0161757D01*
X0086000Y0162756D02*
X0086899Y0162756D01*
X0086485Y0163754D02*
X0086000Y0163754D01*
X0086000Y0164753D02*
X0086300Y0164753D01*
X0086300Y0165751D02*
X0086000Y0165751D01*
X0086000Y0166750D02*
X0086300Y0166750D01*
X0086300Y0167748D02*
X0086000Y0167748D01*
X0086000Y0168747D02*
X0086300Y0168747D01*
X0086300Y0169745D02*
X0086000Y0169745D01*
X0085938Y0170744D02*
X0086300Y0170744D01*
X0086300Y0171743D02*
X0085671Y0171743D01*
X0085403Y0172741D02*
X0086300Y0172741D01*
X0086331Y0173740D02*
X0085081Y0173740D01*
X0084505Y0174738D02*
X0086745Y0174738D01*
X0087158Y0175737D02*
X0083928Y0175737D01*
X0083169Y0176735D02*
X0087500Y0176735D01*
X0087500Y0177734D02*
X0082170Y0177734D01*
X0081028Y0178732D02*
X0087500Y0178732D01*
X0087500Y0179731D02*
X0079298Y0179731D01*
X0076341Y0180729D02*
X0087500Y0180729D01*
X0087500Y0181728D02*
X0058384Y0181728D01*
X0059383Y0182726D02*
X0087500Y0182726D01*
X0087500Y0183725D02*
X0075334Y0183725D01*
X0075101Y0183649D02*
X0075804Y0183877D01*
X0076463Y0184213D01*
X0077062Y0184648D01*
X0077585Y0185171D01*
X0078020Y0185770D01*
X0078356Y0186429D01*
X0078584Y0187132D01*
X0078700Y0187863D01*
X0078700Y0190933D01*
X0074500Y0190933D01*
X0074500Y0183554D01*
X0075101Y0183649D01*
X0074500Y0183725D02*
X0073500Y0183725D01*
X0073500Y0183554D02*
X0073500Y0190933D01*
X0074500Y0190933D01*
X0074500Y0191933D01*
X0078700Y0191933D01*
X0078700Y0195003D01*
X0078584Y0195734D01*
X0078356Y0196437D01*
X0078020Y0197096D01*
X0077585Y0197695D01*
X0077062Y0198218D01*
X0076463Y0198653D01*
X0075804Y0198989D01*
X0075101Y0199217D01*
X0074500Y0199312D01*
X0074500Y0191933D01*
X0073500Y0191933D01*
X0073500Y0190933D01*
X0069300Y0190933D01*
X0069300Y0187863D01*
X0069416Y0187132D01*
X0069644Y0186429D01*
X0069980Y0185770D01*
X0070415Y0185171D01*
X0070938Y0184648D01*
X0071537Y0184213D01*
X0072196Y0183877D01*
X0072899Y0183649D01*
X0073500Y0183554D01*
X0072666Y0183725D02*
X0060381Y0183725D01*
X0060881Y0184723D02*
X0070863Y0184723D01*
X0070015Y0185722D02*
X0061294Y0185722D01*
X0061700Y0186720D02*
X0069550Y0186720D01*
X0069323Y0187719D02*
X0061700Y0187719D01*
X0061700Y0188717D02*
X0069300Y0188717D01*
X0069300Y0189716D02*
X0061700Y0189716D01*
X0061700Y0190714D02*
X0069300Y0190714D01*
X0069300Y0191933D02*
X0073500Y0191933D01*
X0073500Y0199312D01*
X0072899Y0199217D01*
X0072196Y0198989D01*
X0071537Y0198653D01*
X0070938Y0198218D01*
X0070415Y0197695D01*
X0069980Y0197096D01*
X0069644Y0196437D01*
X0069416Y0195734D01*
X0069300Y0195003D01*
X0069300Y0191933D01*
X0069300Y0192711D02*
X0061700Y0192711D01*
X0061700Y0191713D02*
X0073500Y0191713D01*
X0073500Y0192711D02*
X0074500Y0192711D01*
X0074500Y0191713D02*
X0086300Y0191713D01*
X0086300Y0192711D02*
X0078700Y0192711D01*
X0078700Y0193710D02*
X0086300Y0193710D01*
X0086300Y0194708D02*
X0078700Y0194708D01*
X0078589Y0195707D02*
X0086300Y0195707D01*
X0086524Y0196705D02*
X0078219Y0196705D01*
X0077576Y0197704D02*
X0086938Y0197704D01*
X0087351Y0198702D02*
X0076366Y0198702D01*
X0074500Y0198702D02*
X0073500Y0198702D01*
X0073500Y0197704D02*
X0074500Y0197704D01*
X0074500Y0196705D02*
X0073500Y0196705D01*
X0073500Y0195707D02*
X0074500Y0195707D01*
X0074500Y0194708D02*
X0073500Y0194708D01*
X0073500Y0193710D02*
X0074500Y0193710D01*
X0074500Y0190714D02*
X0073500Y0190714D01*
X0073500Y0189716D02*
X0074500Y0189716D01*
X0074500Y0188717D02*
X0073500Y0188717D01*
X0073500Y0187719D02*
X0074500Y0187719D01*
X0074500Y0186720D02*
X0073500Y0186720D01*
X0073500Y0185722D02*
X0074500Y0185722D01*
X0074500Y0184723D02*
X0073500Y0184723D01*
X0077137Y0184723D02*
X0087119Y0184723D01*
X0086706Y0185722D02*
X0077985Y0185722D01*
X0078450Y0186720D02*
X0086300Y0186720D01*
X0086300Y0187719D02*
X0078677Y0187719D01*
X0078700Y0188717D02*
X0086300Y0188717D01*
X0086300Y0189716D02*
X0078700Y0189716D01*
X0078700Y0190714D02*
X0086300Y0190714D01*
X0087500Y0199701D02*
X0067167Y0199701D01*
X0068166Y0200699D02*
X0087500Y0200699D01*
X0087500Y0201698D02*
X0069164Y0201698D01*
X0070163Y0202696D02*
X0087500Y0202696D01*
X0087500Y0203695D02*
X0071000Y0203695D01*
X0071000Y0204693D02*
X0087500Y0204693D01*
X0087500Y0205692D02*
X0071000Y0205692D01*
X0071000Y0206690D02*
X0087500Y0206690D01*
X0087500Y0207689D02*
X0071000Y0207689D01*
X0071000Y0208687D02*
X0087500Y0208687D01*
X0087500Y0209686D02*
X0070647Y0209686D01*
X0069648Y0210684D02*
X0087500Y0210684D01*
X0087500Y0211683D02*
X0068650Y0211683D01*
X0067651Y0212681D02*
X0087500Y0212681D01*
X0087500Y0213680D02*
X0075197Y0213680D01*
X0075101Y0213649D02*
X0075804Y0213877D01*
X0076463Y0214213D01*
X0077062Y0214648D01*
X0077585Y0215171D01*
X0078020Y0215770D01*
X0078356Y0216429D01*
X0078584Y0217132D01*
X0078700Y0217863D01*
X0078700Y0220933D01*
X0074500Y0220933D01*
X0074500Y0213554D01*
X0075101Y0213649D01*
X0074500Y0213680D02*
X0073500Y0213680D01*
X0073500Y0213554D02*
X0073500Y0220933D01*
X0074500Y0220933D01*
X0074500Y0221933D01*
X0078700Y0221933D01*
X0078700Y0225003D01*
X0078584Y0225734D01*
X0078356Y0226437D01*
X0078020Y0227096D01*
X0077585Y0227695D01*
X0077062Y0228218D01*
X0076463Y0228653D01*
X0075804Y0228989D01*
X0075101Y0229217D01*
X0074500Y0229312D01*
X0074500Y0221933D01*
X0073500Y0221933D01*
X0073500Y0220933D01*
X0069300Y0220933D01*
X0069300Y0217863D01*
X0069416Y0217132D01*
X0069644Y0216429D01*
X0069980Y0215770D01*
X0070415Y0215171D01*
X0070938Y0214648D01*
X0071537Y0214213D01*
X0072196Y0213877D01*
X0072899Y0213649D01*
X0073500Y0213554D01*
X0072803Y0213680D02*
X0060336Y0213680D01*
X0060862Y0214679D02*
X0070908Y0214679D01*
X0070048Y0215677D02*
X0061276Y0215677D01*
X0061689Y0216676D02*
X0069564Y0216676D01*
X0069330Y0217674D02*
X0061700Y0217674D01*
X0061700Y0218673D02*
X0069300Y0218673D01*
X0069300Y0219671D02*
X0061700Y0219671D01*
X0061700Y0220670D02*
X0069300Y0220670D01*
X0069300Y0221933D02*
X0073500Y0221933D01*
X0073500Y0229312D01*
X0072899Y0229217D01*
X0072196Y0228989D01*
X0071537Y0228653D01*
X0070938Y0228218D01*
X0070415Y0227695D01*
X0069980Y0227096D01*
X0069644Y0226437D01*
X0069416Y0225734D01*
X0069300Y0225003D01*
X0069300Y0221933D01*
X0069300Y0222667D02*
X0061700Y0222667D01*
X0061700Y0223665D02*
X0069300Y0223665D01*
X0069300Y0224664D02*
X0061700Y0224664D01*
X0061700Y0225662D02*
X0069404Y0225662D01*
X0069758Y0226661D02*
X0061495Y0226661D01*
X0061081Y0227659D02*
X0070389Y0227659D01*
X0071546Y0228658D02*
X0060667Y0228658D01*
X0059866Y0229656D02*
X0088134Y0229656D01*
X0087333Y0228658D02*
X0076454Y0228658D01*
X0077611Y0227659D02*
X0086919Y0227659D01*
X0086505Y0226661D02*
X0078242Y0226661D01*
X0078596Y0225662D02*
X0086300Y0225662D01*
X0086300Y0224664D02*
X0078700Y0224664D01*
X0078700Y0223665D02*
X0086300Y0223665D01*
X0086300Y0222667D02*
X0078700Y0222667D01*
X0078700Y0220670D02*
X0086300Y0220670D01*
X0086300Y0221668D02*
X0074500Y0221668D01*
X0074500Y0220670D02*
X0073500Y0220670D01*
X0073500Y0221668D02*
X0061700Y0221668D01*
X0073500Y0222667D02*
X0074500Y0222667D01*
X0074500Y0223665D02*
X0073500Y0223665D01*
X0073500Y0224664D02*
X0074500Y0224664D01*
X0074500Y0225662D02*
X0073500Y0225662D01*
X0073500Y0226661D02*
X0074500Y0226661D01*
X0074500Y0227659D02*
X0073500Y0227659D01*
X0073500Y0228658D02*
X0074500Y0228658D01*
X0074500Y0219671D02*
X0073500Y0219671D01*
X0073500Y0218673D02*
X0074500Y0218673D01*
X0074500Y0217674D02*
X0073500Y0217674D01*
X0073500Y0216676D02*
X0074500Y0216676D01*
X0074500Y0215677D02*
X0073500Y0215677D01*
X0073500Y0214679D02*
X0074500Y0214679D01*
X0077092Y0214679D02*
X0087138Y0214679D01*
X0086724Y0215677D02*
X0077952Y0215677D01*
X0078436Y0216676D02*
X0086311Y0216676D01*
X0086300Y0217674D02*
X0078670Y0217674D01*
X0078700Y0218673D02*
X0086300Y0218673D01*
X0086300Y0219671D02*
X0078700Y0219671D01*
X0089132Y0230655D02*
X0058868Y0230655D01*
X0057173Y0231653D02*
X0090827Y0231653D01*
X0050827Y0231653D02*
X0043413Y0231653D01*
X0042414Y0230655D02*
X0049132Y0230655D01*
X0048134Y0229656D02*
X0041415Y0229656D01*
X0040500Y0228658D02*
X0047333Y0228658D01*
X0046919Y0227659D02*
X0040500Y0227659D01*
X0040500Y0226661D02*
X0046505Y0226661D01*
X0046300Y0225662D02*
X0040500Y0225662D01*
X0040500Y0224664D02*
X0046300Y0224664D01*
X0046300Y0223665D02*
X0040500Y0223665D01*
X0040500Y0222667D02*
X0046300Y0222667D01*
X0046300Y0221668D02*
X0040500Y0221668D01*
X0040500Y0220670D02*
X0046300Y0220670D01*
X0046300Y0219671D02*
X0040500Y0219671D01*
X0040500Y0218673D02*
X0046300Y0218673D01*
X0046300Y0217674D02*
X0040500Y0217674D01*
X0040500Y0216676D02*
X0046311Y0216676D01*
X0046724Y0215677D02*
X0040500Y0215677D01*
X0040500Y0214679D02*
X0047138Y0214679D01*
X0047664Y0213680D02*
X0040500Y0213680D01*
X0027500Y0213680D02*
X0025197Y0213680D01*
X0024500Y0213680D02*
X0023500Y0213680D01*
X0023500Y0213554D02*
X0023500Y0220933D01*
X0019300Y0220933D01*
X0019300Y0217863D01*
X0019416Y0217132D01*
X0019644Y0216429D01*
X0019980Y0215770D01*
X0020415Y0215171D01*
X0020938Y0214648D01*
X0021537Y0214213D01*
X0022196Y0213877D01*
X0022899Y0213649D01*
X0023500Y0213554D01*
X0022803Y0213680D02*
X0006000Y0213680D01*
X0006000Y0212681D02*
X0027500Y0212681D01*
X0027500Y0211683D02*
X0006000Y0211683D01*
X0006000Y0210684D02*
X0027500Y0210684D01*
X0027500Y0209686D02*
X0006000Y0209686D01*
X0006000Y0208687D02*
X0027500Y0208687D01*
X0027500Y0207689D02*
X0006000Y0207689D01*
X0006000Y0206690D02*
X0027500Y0206690D01*
X0027500Y0205692D02*
X0006000Y0205692D01*
X0006000Y0204693D02*
X0027500Y0204693D01*
X0027500Y0203695D02*
X0006000Y0203695D01*
X0006000Y0214679D02*
X0012290Y0214679D01*
X0012349Y0214648D02*
X0012993Y0214439D01*
X0013662Y0214333D01*
X0013700Y0214333D01*
X0013700Y0221133D01*
X0014300Y0221133D01*
X0014300Y0214333D01*
X0014338Y0214333D01*
X0015007Y0214439D01*
X0015651Y0214648D01*
X0016254Y0214955D01*
X0016801Y0215353D01*
X0017280Y0215832D01*
X0017678Y0216379D01*
X0017985Y0216982D01*
X0018194Y0217626D01*
X0018300Y0218295D01*
X0018300Y0221133D01*
X0014300Y0221133D01*
X0014300Y0221733D01*
X0018300Y0221733D01*
X0018300Y0224571D01*
X0018194Y0225240D01*
X0017985Y0225884D01*
X0017678Y0226487D01*
X0017280Y0227034D01*
X0016801Y0227513D01*
X0016254Y0227911D01*
X0015651Y0228218D01*
X0015007Y0228427D01*
X0014338Y0228533D01*
X0014300Y0228533D01*
X0014300Y0221733D01*
X0013700Y0221733D01*
X0013700Y0221133D01*
X0009700Y0221133D01*
X0009700Y0218295D01*
X0009806Y0217626D01*
X0010015Y0216982D01*
X0010322Y0216379D01*
X0010720Y0215832D01*
X0011199Y0215353D01*
X0011746Y0214955D01*
X0012349Y0214648D01*
X0013700Y0214679D02*
X0014300Y0214679D01*
X0014300Y0215677D02*
X0013700Y0215677D01*
X0013700Y0216676D02*
X0014300Y0216676D01*
X0014300Y0217674D02*
X0013700Y0217674D01*
X0013700Y0218673D02*
X0014300Y0218673D01*
X0014300Y0219671D02*
X0013700Y0219671D01*
X0013700Y0220670D02*
X0014300Y0220670D01*
X0014300Y0221668D02*
X0023500Y0221668D01*
X0023500Y0221933D02*
X0019300Y0221933D01*
X0019300Y0225003D01*
X0019416Y0225734D01*
X0019644Y0226437D01*
X0019980Y0227096D01*
X0020415Y0227695D01*
X0020938Y0228218D01*
X0021537Y0228653D01*
X0022196Y0228989D01*
X0022899Y0229217D01*
X0023500Y0229312D01*
X0023500Y0221933D01*
X0023500Y0222667D02*
X0024500Y0222667D01*
X0024500Y0223665D02*
X0023500Y0223665D01*
X0023500Y0224664D02*
X0024500Y0224664D01*
X0024500Y0225662D02*
X0023500Y0225662D01*
X0023500Y0226661D02*
X0024500Y0226661D01*
X0024500Y0227659D02*
X0023500Y0227659D01*
X0023500Y0228658D02*
X0024500Y0228658D01*
X0026454Y0228658D02*
X0027500Y0228658D01*
X0027500Y0229656D02*
X0006000Y0229656D01*
X0006000Y0228658D02*
X0021546Y0228658D01*
X0020389Y0227659D02*
X0016600Y0227659D01*
X0017551Y0226661D02*
X0019758Y0226661D01*
X0019404Y0225662D02*
X0018057Y0225662D01*
X0018285Y0224664D02*
X0019300Y0224664D01*
X0019300Y0223665D02*
X0018300Y0223665D01*
X0018300Y0222667D02*
X0019300Y0222667D01*
X0019300Y0220670D02*
X0018300Y0220670D01*
X0018300Y0219671D02*
X0019300Y0219671D01*
X0019300Y0218673D02*
X0018300Y0218673D01*
X0018202Y0217674D02*
X0019330Y0217674D01*
X0019564Y0216676D02*
X0017829Y0216676D01*
X0017125Y0215677D02*
X0020048Y0215677D01*
X0020908Y0214679D02*
X0015710Y0214679D01*
X0010875Y0215677D02*
X0006000Y0215677D01*
X0006000Y0216676D02*
X0010171Y0216676D01*
X0009798Y0217674D02*
X0006000Y0217674D01*
X0006000Y0218673D02*
X0009700Y0218673D01*
X0009700Y0219671D02*
X0006000Y0219671D01*
X0006000Y0220670D02*
X0009700Y0220670D01*
X0009700Y0221733D02*
X0013700Y0221733D01*
X0013700Y0228533D01*
X0013662Y0228533D01*
X0012993Y0228427D01*
X0012349Y0228218D01*
X0011746Y0227911D01*
X0011199Y0227513D01*
X0010720Y0227034D01*
X0010322Y0226487D01*
X0010015Y0225884D01*
X0009806Y0225240D01*
X0009700Y0224571D01*
X0009700Y0221733D01*
X0009700Y0222667D02*
X0006000Y0222667D01*
X0006000Y0223665D02*
X0009700Y0223665D01*
X0009715Y0224664D02*
X0006000Y0224664D01*
X0006000Y0225662D02*
X0009943Y0225662D01*
X0010449Y0226661D02*
X0006000Y0226661D01*
X0006000Y0227659D02*
X0011400Y0227659D01*
X0013700Y0227659D02*
X0014300Y0227659D01*
X0014300Y0226661D02*
X0013700Y0226661D01*
X0013700Y0225662D02*
X0014300Y0225662D01*
X0014300Y0224664D02*
X0013700Y0224664D01*
X0013700Y0223665D02*
X0014300Y0223665D01*
X0014300Y0222667D02*
X0013700Y0222667D01*
X0013700Y0221668D02*
X0006000Y0221668D01*
X0006000Y0230655D02*
X0027500Y0230655D01*
X0027500Y0231653D02*
X0006000Y0231653D01*
X0006000Y0232652D02*
X0027500Y0232652D01*
X0027883Y0233650D02*
X0006000Y0233650D01*
X0006000Y0234649D02*
X0019203Y0234649D01*
X0019487Y0234584D02*
X0020826Y0234433D01*
X0021000Y0234433D01*
X0021000Y0245933D01*
X0009500Y0245933D01*
X0009500Y0245759D01*
X0009651Y0244420D01*
X0009951Y0243106D01*
X0010396Y0241834D01*
X0010981Y0240619D01*
X0011698Y0239478D01*
X0012538Y0238424D01*
X0013491Y0237471D01*
X0014545Y0236631D01*
X0015686Y0235914D01*
X0016901Y0235329D01*
X0018173Y0234884D01*
X0019487Y0234584D01*
X0021000Y0234649D02*
X0022000Y0234649D01*
X0022000Y0235647D02*
X0021000Y0235647D01*
X0021000Y0236646D02*
X0022000Y0236646D01*
X0022000Y0237644D02*
X0021000Y0237644D01*
X0021000Y0238643D02*
X0022000Y0238643D01*
X0022000Y0239641D02*
X0021000Y0239641D01*
X0021000Y0240640D02*
X0022000Y0240640D01*
X0022000Y0241638D02*
X0021000Y0241638D01*
X0021000Y0242637D02*
X0022000Y0242637D01*
X0022000Y0243635D02*
X0021000Y0243635D01*
X0021000Y0244634D02*
X0022000Y0244634D01*
X0022000Y0245632D02*
X0021000Y0245632D01*
X0021000Y0246631D02*
X0006000Y0246631D01*
X0006000Y0247629D02*
X0009559Y0247629D01*
X0009500Y0247107D02*
X0009500Y0246933D01*
X0021000Y0246933D01*
X0021000Y0258433D01*
X0020826Y0258433D01*
X0019487Y0258282D01*
X0018173Y0257982D01*
X0016901Y0257537D01*
X0015686Y0256952D01*
X0014545Y0256235D01*
X0013491Y0255395D01*
X0012538Y0254442D01*
X0011698Y0253388D01*
X0010981Y0252247D01*
X0010396Y0251033D01*
X0009951Y0249760D01*
X0009651Y0248446D01*
X0009500Y0247107D01*
X0009514Y0245632D02*
X0006000Y0245632D01*
X0006000Y0244634D02*
X0009627Y0244634D01*
X0009830Y0243635D02*
X0006000Y0243635D01*
X0006000Y0242637D02*
X0010115Y0242637D01*
X0010490Y0241638D02*
X0006000Y0241638D01*
X0006000Y0240640D02*
X0010971Y0240640D01*
X0011595Y0239641D02*
X0006000Y0239641D01*
X0006000Y0238643D02*
X0012364Y0238643D01*
X0013318Y0237644D02*
X0006000Y0237644D01*
X0006000Y0236646D02*
X0014526Y0236646D01*
X0016240Y0235647D02*
X0006000Y0235647D01*
X0006000Y0248628D02*
X0009692Y0248628D01*
X0009920Y0249626D02*
X0006000Y0249626D01*
X0006000Y0250625D02*
X0010253Y0250625D01*
X0010681Y0251623D02*
X0006000Y0251623D01*
X0006000Y0252622D02*
X0011216Y0252622D01*
X0011883Y0253620D02*
X0006000Y0253620D01*
X0006000Y0254619D02*
X0012715Y0254619D01*
X0013770Y0255617D02*
X0006000Y0255617D01*
X0006000Y0256616D02*
X0015151Y0256616D01*
X0017122Y0257614D02*
X0006000Y0257614D01*
X0006000Y0258613D02*
X0034488Y0258613D01*
X0035486Y0259612D02*
X0006000Y0259612D01*
X0006000Y0260610D02*
X0036485Y0260610D01*
X0033489Y0257614D02*
X0025878Y0257614D01*
X0027849Y0256616D02*
X0033076Y0256616D01*
X0032662Y0255617D02*
X0029230Y0255617D01*
X0030285Y0254619D02*
X0032500Y0254619D01*
X0032500Y0253620D02*
X0031117Y0253620D01*
X0031784Y0252622D02*
X0032500Y0252622D01*
X0032500Y0251623D02*
X0032319Y0251623D01*
X0022000Y0251623D02*
X0021000Y0251623D01*
X0021000Y0250625D02*
X0022000Y0250625D01*
X0022000Y0249626D02*
X0021000Y0249626D01*
X0021000Y0248628D02*
X0022000Y0248628D01*
X0022000Y0247629D02*
X0021000Y0247629D01*
X0021000Y0252622D02*
X0022000Y0252622D01*
X0022000Y0253620D02*
X0021000Y0253620D01*
X0021000Y0254619D02*
X0022000Y0254619D01*
X0022000Y0255617D02*
X0021000Y0255617D01*
X0021000Y0256616D02*
X0022000Y0256616D01*
X0022000Y0257614D02*
X0021000Y0257614D01*
X0032029Y0240640D02*
X0032500Y0240640D01*
X0032500Y0239641D02*
X0031405Y0239641D01*
X0032017Y0238643D02*
X0030636Y0238643D01*
X0031019Y0237644D02*
X0029682Y0237644D01*
X0030020Y0236646D02*
X0028474Y0236646D01*
X0029022Y0235647D02*
X0026760Y0235647D01*
X0028296Y0234649D02*
X0023797Y0234649D01*
X0023500Y0220670D02*
X0024500Y0220670D01*
X0024500Y0219671D02*
X0023500Y0219671D01*
X0023500Y0218673D02*
X0024500Y0218673D01*
X0024500Y0217674D02*
X0023500Y0217674D01*
X0023500Y0216676D02*
X0024500Y0216676D01*
X0024500Y0215677D02*
X0023500Y0215677D01*
X0023500Y0214679D02*
X0024500Y0214679D01*
X0027092Y0214679D02*
X0027500Y0214679D01*
X0059822Y0199701D02*
X0060833Y0199701D01*
X0060649Y0198702D02*
X0071634Y0198702D01*
X0070424Y0197704D02*
X0061062Y0197704D01*
X0061476Y0196705D02*
X0069781Y0196705D01*
X0069411Y0195707D02*
X0061700Y0195707D01*
X0061700Y0194708D02*
X0069300Y0194708D01*
X0069300Y0193710D02*
X0061700Y0193710D01*
X0056341Y0180729D02*
X0071659Y0180729D01*
X0068702Y0179731D02*
X0059298Y0179731D01*
X0061028Y0178732D02*
X0066972Y0178732D01*
X0065830Y0177734D02*
X0062170Y0177734D01*
X0063169Y0176735D02*
X0064831Y0176735D01*
X0064072Y0175737D02*
X0063928Y0175737D01*
X0100500Y0147778D02*
X0122443Y0147778D01*
X0121223Y0146780D02*
X0100500Y0146780D01*
X0100823Y0145781D02*
X0120224Y0145781D01*
X0119686Y0144783D02*
X0101237Y0144783D01*
X0101650Y0143784D02*
X0119272Y0143784D01*
X0118900Y0142786D02*
X0101700Y0142786D01*
X0101700Y0141787D02*
X0118900Y0141787D01*
X0118900Y0140789D02*
X0101700Y0140789D01*
X0101700Y0139790D02*
X0118979Y0139790D01*
X0119393Y0138792D02*
X0101700Y0138792D01*
X0101700Y0137793D02*
X0119806Y0137793D01*
X0120515Y0136795D02*
X0101700Y0136795D01*
X0101700Y0135796D02*
X0121513Y0135796D01*
X0123144Y0134798D02*
X0101700Y0134798D01*
X0101533Y0133799D02*
X0256467Y0133799D01*
X0256300Y0134798D02*
X0164856Y0134798D01*
X0166487Y0135796D02*
X0256300Y0135796D01*
X0256300Y0136795D02*
X0167485Y0136795D01*
X0168194Y0137793D02*
X0256300Y0137793D01*
X0256300Y0138792D02*
X0168607Y0138792D01*
X0169021Y0139790D02*
X0256300Y0139790D01*
X0256300Y0140789D02*
X0169100Y0140789D01*
X0169100Y0141787D02*
X0256300Y0141787D01*
X0256300Y0142786D02*
X0169100Y0142786D01*
X0168728Y0143784D02*
X0256350Y0143784D01*
X0256763Y0144783D02*
X0168314Y0144783D01*
X0167776Y0145781D02*
X0257177Y0145781D01*
X0257500Y0146780D02*
X0166777Y0146780D01*
X0165557Y0147778D02*
X0257500Y0147778D01*
X0257500Y0148777D02*
X0150849Y0148777D01*
X0149850Y0149775D02*
X0257500Y0149775D01*
X0257500Y0150774D02*
X0148852Y0150774D01*
X0147853Y0151772D02*
X0257500Y0151772D01*
X0257500Y0152771D02*
X0146855Y0152771D01*
X0145856Y0153769D02*
X0257500Y0153769D01*
X0257500Y0154768D02*
X0144858Y0154768D01*
X0143859Y0155766D02*
X0257500Y0155766D01*
X0257500Y0156765D02*
X0142861Y0156765D01*
X0141862Y0157763D02*
X0257500Y0157763D01*
X0257500Y0158762D02*
X0140864Y0158762D01*
X0139865Y0159760D02*
X0257500Y0159760D01*
X0257500Y0160759D02*
X0138867Y0160759D01*
X0137868Y0161757D02*
X0257312Y0161757D01*
X0256899Y0162756D02*
X0136870Y0162756D01*
X0135871Y0163754D02*
X0256485Y0163754D01*
X0256300Y0164753D02*
X0134873Y0164753D01*
X0133874Y0165751D02*
X0256300Y0165751D01*
X0256300Y0166750D02*
X0132875Y0166750D01*
X0131877Y0167748D02*
X0256300Y0167748D01*
X0256300Y0168747D02*
X0130878Y0168747D01*
X0129880Y0169745D02*
X0256300Y0169745D01*
X0256300Y0170744D02*
X0128881Y0170744D01*
X0127883Y0171743D02*
X0256300Y0171743D01*
X0256300Y0172741D02*
X0126884Y0172741D01*
X0125886Y0173740D02*
X0256331Y0173740D01*
X0256745Y0174738D02*
X0125500Y0174738D01*
X0125500Y0175737D02*
X0257158Y0175737D01*
X0257500Y0176735D02*
X0125500Y0176735D01*
X0125500Y0177734D02*
X0257500Y0177734D01*
X0257500Y0178732D02*
X0125500Y0178732D01*
X0125500Y0179731D02*
X0257500Y0179731D01*
X0257500Y0180729D02*
X0125500Y0180729D01*
X0125500Y0181728D02*
X0257500Y0181728D01*
X0257500Y0182726D02*
X0125500Y0182726D01*
X0125500Y0183725D02*
X0257500Y0183725D01*
X0257119Y0184723D02*
X0125500Y0184723D01*
X0125500Y0185722D02*
X0256706Y0185722D01*
X0256300Y0186720D02*
X0125500Y0186720D01*
X0125500Y0187719D02*
X0256300Y0187719D01*
X0256300Y0188717D02*
X0125500Y0188717D01*
X0125500Y0189716D02*
X0256300Y0189716D01*
X0256300Y0190714D02*
X0125681Y0190714D01*
X0126000Y0191713D02*
X0256300Y0191713D01*
X0256300Y0192711D02*
X0126000Y0192711D01*
X0126000Y0193710D02*
X0256300Y0193710D01*
X0256300Y0194708D02*
X0126000Y0194708D01*
X0126000Y0195707D02*
X0256300Y0195707D01*
X0256524Y0196705D02*
X0126000Y0196705D01*
X0125129Y0197704D02*
X0256938Y0197704D01*
X0257351Y0198702D02*
X0124130Y0198702D01*
X0123132Y0199701D02*
X0257500Y0199701D01*
X0257500Y0200699D02*
X0122133Y0200699D01*
X0101120Y0132801D02*
X0256880Y0132801D01*
X0256300Y0125811D02*
X0148994Y0125811D01*
X0149768Y0124812D02*
X0256300Y0124812D01*
X0256300Y0123814D02*
X0150275Y0123814D01*
X0150594Y0122815D02*
X0256300Y0122815D01*
X0256300Y0121817D02*
X0150749Y0121817D01*
X0150750Y0120818D02*
X0256300Y0120818D01*
X0256300Y0119820D02*
X0150750Y0119820D01*
X0150750Y0118821D02*
X0256457Y0118821D01*
X0256871Y0117823D02*
X0150750Y0117823D01*
X0150750Y0115826D02*
X0257500Y0115826D01*
X0257500Y0114827D02*
X0150750Y0114827D01*
X0150750Y0113829D02*
X0257500Y0113829D01*
X0257500Y0112830D02*
X0150750Y0112830D01*
X0150750Y0111832D02*
X0257500Y0111832D01*
X0257500Y0110833D02*
X0150720Y0110833D01*
X0150536Y0109835D02*
X0257500Y0109835D01*
X0257500Y0108836D02*
X0150185Y0108836D01*
X0149633Y0107838D02*
X0257500Y0107838D01*
X0257500Y0106839D02*
X0148778Y0106839D01*
X0147427Y0105841D02*
X0257500Y0105841D01*
X0257500Y0104842D02*
X0135423Y0104842D01*
X0134425Y0103844D02*
X0257500Y0103844D01*
X0257285Y0116824D02*
X0144800Y0116824D01*
X0144800Y0115826D02*
X0143800Y0115826D01*
X0143800Y0114827D02*
X0144800Y0114827D01*
X0144800Y0113829D02*
X0143800Y0113829D01*
X0143800Y0112830D02*
X0144800Y0112830D01*
X0144800Y0111832D02*
X0143800Y0111832D01*
X0143800Y0110833D02*
X0144800Y0110833D01*
X0144800Y0109835D02*
X0143800Y0109835D01*
X0143800Y0108836D02*
X0144800Y0108836D01*
X0144800Y0107838D02*
X0143800Y0107838D01*
X0143800Y0106839D02*
X0144800Y0106839D01*
X0144800Y0105841D02*
X0143800Y0105841D01*
X0141173Y0105841D02*
X0136422Y0105841D01*
X0137005Y0106839D02*
X0139822Y0106839D01*
X0138967Y0107838D02*
X0137419Y0107838D01*
X0137832Y0108836D02*
X0138415Y0108836D01*
X0143800Y0117823D02*
X0144800Y0117823D01*
X0144800Y0118821D02*
X0143800Y0118821D01*
X0143800Y0119820D02*
X0144800Y0119820D01*
X0144800Y0120818D02*
X0143800Y0120818D01*
X0143800Y0121817D02*
X0144800Y0121817D01*
X0144800Y0122815D02*
X0143800Y0122815D01*
X0143800Y0123814D02*
X0144800Y0123814D01*
X0144800Y0124812D02*
X0143800Y0124812D01*
X0143800Y0125811D02*
X0144800Y0125811D01*
X0144800Y0126810D02*
X0143800Y0126810D01*
X0140799Y0126810D02*
X0136638Y0126810D01*
X0137094Y0125811D02*
X0139606Y0125811D01*
X0138832Y0124812D02*
X0137508Y0124812D01*
X0137922Y0123814D02*
X0138325Y0123814D01*
X0089630Y0064902D02*
X0268370Y0064902D01*
X0268400Y0064954D02*
X0268202Y0064612D01*
X0268100Y0064231D01*
X0268100Y0054533D01*
X0273600Y0054533D01*
X0273600Y0065533D01*
X0269403Y0065533D01*
X0269021Y0065431D01*
X0268679Y0065233D01*
X0268400Y0064954D01*
X0268100Y0063903D02*
X0089900Y0063903D01*
X0089900Y0062905D02*
X0268100Y0062905D01*
X0268100Y0061906D02*
X0089900Y0061906D01*
X0089900Y0060908D02*
X0268100Y0060908D01*
X0268100Y0059909D02*
X0089900Y0059909D01*
X0089900Y0058911D02*
X0268100Y0058911D01*
X0268100Y0057912D02*
X0089900Y0057912D01*
X0089900Y0056914D02*
X0268100Y0056914D01*
X0268100Y0055915D02*
X0089900Y0055915D01*
X0089900Y0054917D02*
X0268100Y0054917D01*
X0268100Y0052920D02*
X0089900Y0052920D01*
X0089900Y0051921D02*
X0268100Y0051921D01*
X0268100Y0050923D02*
X0089900Y0050923D01*
X0089900Y0049924D02*
X0268100Y0049924D01*
X0268100Y0048926D02*
X0089900Y0048926D01*
X0084400Y0048926D02*
X0083400Y0048926D01*
X0083400Y0049924D02*
X0084400Y0049924D01*
X0084400Y0050923D02*
X0083400Y0050923D01*
X0083400Y0051921D02*
X0084400Y0051921D01*
X0084400Y0054917D02*
X0083400Y0054917D01*
X0083400Y0055915D02*
X0084400Y0055915D01*
X0084400Y0056914D02*
X0083400Y0056914D01*
X0083400Y0057912D02*
X0084400Y0057912D01*
X0084400Y0058911D02*
X0083400Y0058911D01*
X0083400Y0059909D02*
X0084400Y0059909D01*
X0084400Y0060908D02*
X0083400Y0060908D01*
X0083400Y0061906D02*
X0084400Y0061906D01*
X0084400Y0062905D02*
X0083400Y0062905D01*
X0083400Y0063903D02*
X0084400Y0063903D01*
X0084400Y0064902D02*
X0083400Y0064902D01*
X0018756Y0147778D02*
X0018279Y0147778D01*
X0019918Y0148777D02*
X0016071Y0148777D01*
X0273600Y0064902D02*
X0274600Y0064902D01*
X0274600Y0063903D02*
X0273600Y0063903D01*
X0273600Y0062905D02*
X0274600Y0062905D01*
X0274600Y0061906D02*
X0273600Y0061906D01*
X0273600Y0060908D02*
X0274600Y0060908D01*
X0274600Y0059909D02*
X0273600Y0059909D01*
X0273600Y0058911D02*
X0274600Y0058911D01*
X0274600Y0057912D02*
X0273600Y0057912D01*
X0273600Y0056914D02*
X0274600Y0056914D01*
X0274600Y0055915D02*
X0273600Y0055915D01*
X0273600Y0054917D02*
X0274600Y0054917D01*
X0274600Y0051921D02*
X0273600Y0051921D01*
X0273600Y0050923D02*
X0274600Y0050923D01*
X0274600Y0049924D02*
X0273600Y0049924D01*
X0273600Y0048926D02*
X0274600Y0048926D01*
X0280100Y0048926D02*
X0302900Y0048926D01*
X0302900Y0049924D02*
X0280100Y0049924D01*
X0280100Y0050923D02*
X0302900Y0050923D01*
X0302900Y0051921D02*
X0280100Y0051921D01*
X0280100Y0052920D02*
X0302900Y0052920D01*
X0302900Y0054533D02*
X0308400Y0054533D01*
X0308400Y0065533D01*
X0304203Y0065533D01*
X0303821Y0065431D01*
X0303479Y0065233D01*
X0303200Y0064954D01*
X0303002Y0064612D01*
X0302900Y0064231D01*
X0302900Y0054533D01*
X0302900Y0054917D02*
X0280100Y0054917D01*
X0280100Y0055915D02*
X0302900Y0055915D01*
X0302900Y0056914D02*
X0280100Y0056914D01*
X0280100Y0057912D02*
X0302900Y0057912D01*
X0302900Y0058911D02*
X0280100Y0058911D01*
X0280100Y0059909D02*
X0302900Y0059909D01*
X0302900Y0060908D02*
X0280100Y0060908D01*
X0280100Y0061906D02*
X0302900Y0061906D01*
X0302900Y0062905D02*
X0280100Y0062905D01*
X0280100Y0063903D02*
X0302900Y0063903D01*
X0303170Y0064902D02*
X0279830Y0064902D01*
X0288847Y0082875D02*
X0299153Y0082875D01*
X0297424Y0083874D02*
X0290576Y0083874D01*
X0291910Y0084872D02*
X0296090Y0084872D01*
X0295092Y0085871D02*
X0292908Y0085871D01*
X0293778Y0086869D02*
X0294222Y0086869D01*
X0308847Y0082875D02*
X0351921Y0082875D01*
X0351921Y0083874D02*
X0310576Y0083874D01*
X0311910Y0084872D02*
X0351921Y0084872D01*
X0351921Y0085871D02*
X0312908Y0085871D01*
X0313778Y0086869D02*
X0331322Y0086869D01*
X0331537Y0086713D02*
X0332196Y0086377D01*
X0332899Y0086149D01*
X0333500Y0086054D01*
X0333500Y0093433D01*
X0334500Y0093433D01*
X0334500Y0086054D01*
X0335101Y0086149D01*
X0335804Y0086377D01*
X0336463Y0086713D01*
X0337062Y0087148D01*
X0337585Y0087671D01*
X0338020Y0088270D01*
X0338356Y0088929D01*
X0338584Y0089632D01*
X0338700Y0090363D01*
X0338700Y0093433D01*
X0334500Y0093433D01*
X0334500Y0094433D01*
X0338700Y0094433D01*
X0338700Y0097503D01*
X0338584Y0098234D01*
X0338356Y0098937D01*
X0338020Y0099596D01*
X0337585Y0100195D01*
X0337062Y0100718D01*
X0336463Y0101153D01*
X0335804Y0101489D01*
X0335101Y0101717D01*
X0334500Y0101812D01*
X0334500Y0094433D01*
X0333500Y0094433D01*
X0333500Y0093433D01*
X0329300Y0093433D01*
X0329300Y0090363D01*
X0329416Y0089632D01*
X0329644Y0088929D01*
X0329980Y0088270D01*
X0330415Y0087671D01*
X0330938Y0087148D01*
X0331537Y0086713D01*
X0330272Y0087868D02*
X0314354Y0087868D01*
X0314931Y0088866D02*
X0329676Y0088866D01*
X0329379Y0089865D02*
X0315333Y0089865D01*
X0315601Y0090863D02*
X0329300Y0090863D01*
X0329300Y0091862D02*
X0315868Y0091862D01*
X0316000Y0092860D02*
X0329300Y0092860D01*
X0329300Y0094433D02*
X0333500Y0094433D01*
X0333500Y0101812D01*
X0332899Y0101717D01*
X0332196Y0101489D01*
X0331537Y0101153D01*
X0330938Y0100718D01*
X0330415Y0100195D01*
X0329980Y0099596D01*
X0329644Y0098937D01*
X0329416Y0098234D01*
X0329300Y0097503D01*
X0329300Y0094433D01*
X0329300Y0094857D02*
X0316000Y0094857D01*
X0316000Y0093859D02*
X0333500Y0093859D01*
X0333500Y0094857D02*
X0334500Y0094857D01*
X0334500Y0093859D02*
X0343700Y0093859D01*
X0343700Y0093633D02*
X0343700Y0094233D01*
X0339700Y0094233D01*
X0339700Y0097071D01*
X0339806Y0097740D01*
X0340015Y0098384D01*
X0340322Y0098987D01*
X0340720Y0099534D01*
X0341199Y0100013D01*
X0341746Y0100411D01*
X0342349Y0100718D01*
X0342993Y0100927D01*
X0343662Y0101033D01*
X0343700Y0101033D01*
X0343700Y0094233D01*
X0344300Y0094233D01*
X0348300Y0094233D01*
X0348300Y0097071D01*
X0348194Y0097740D01*
X0347985Y0098384D01*
X0347678Y0098987D01*
X0347280Y0099534D01*
X0346801Y0100013D01*
X0346254Y0100411D01*
X0345651Y0100718D01*
X0345007Y0100927D01*
X0344338Y0101033D01*
X0344300Y0101033D01*
X0344300Y0094233D01*
X0344300Y0093633D01*
X0344300Y0086833D01*
X0344338Y0086833D01*
X0345007Y0086939D01*
X0345651Y0087148D01*
X0346254Y0087455D01*
X0346801Y0087853D01*
X0347280Y0088332D01*
X0347678Y0088879D01*
X0347985Y0089482D01*
X0348194Y0090126D01*
X0348300Y0090795D01*
X0348300Y0093633D01*
X0344300Y0093633D01*
X0343700Y0093633D01*
X0343700Y0086833D01*
X0343662Y0086833D01*
X0342993Y0086939D01*
X0342349Y0087148D01*
X0341746Y0087455D01*
X0341199Y0087853D01*
X0340720Y0088332D01*
X0340322Y0088879D01*
X0340015Y0089482D01*
X0339806Y0090126D01*
X0339700Y0090795D01*
X0339700Y0093633D01*
X0343700Y0093633D01*
X0344300Y0093859D02*
X0351921Y0093859D01*
X0351921Y0094857D02*
X0348300Y0094857D01*
X0348300Y0095856D02*
X0351921Y0095856D01*
X0351921Y0096854D02*
X0348300Y0096854D01*
X0348157Y0097853D02*
X0351921Y0097853D01*
X0351921Y0098851D02*
X0347747Y0098851D01*
X0346964Y0099850D02*
X0351921Y0099850D01*
X0351921Y0100848D02*
X0345250Y0100848D01*
X0344300Y0100848D02*
X0343700Y0100848D01*
X0342750Y0100848D02*
X0336883Y0100848D01*
X0337836Y0099850D02*
X0341036Y0099850D01*
X0340253Y0098851D02*
X0338384Y0098851D01*
X0338645Y0097853D02*
X0339843Y0097853D01*
X0339700Y0096854D02*
X0338700Y0096854D01*
X0338700Y0095856D02*
X0339700Y0095856D01*
X0339700Y0094857D02*
X0338700Y0094857D01*
X0338700Y0092860D02*
X0339700Y0092860D01*
X0339700Y0091862D02*
X0338700Y0091862D01*
X0338700Y0090863D02*
X0339700Y0090863D01*
X0339891Y0089865D02*
X0338621Y0089865D01*
X0338324Y0088866D02*
X0340332Y0088866D01*
X0341184Y0087868D02*
X0337728Y0087868D01*
X0336678Y0086869D02*
X0343434Y0086869D01*
X0343700Y0086869D02*
X0344300Y0086869D01*
X0344566Y0086869D02*
X0351921Y0086869D01*
X0351921Y0087868D02*
X0346816Y0087868D01*
X0347668Y0088866D02*
X0351921Y0088866D01*
X0351921Y0089865D02*
X0348109Y0089865D01*
X0348300Y0090863D02*
X0351921Y0090863D01*
X0351921Y0091862D02*
X0348300Y0091862D01*
X0348300Y0092860D02*
X0351921Y0092860D01*
X0344300Y0092860D02*
X0343700Y0092860D01*
X0343700Y0091862D02*
X0344300Y0091862D01*
X0344300Y0090863D02*
X0343700Y0090863D01*
X0343700Y0089865D02*
X0344300Y0089865D01*
X0344300Y0088866D02*
X0343700Y0088866D01*
X0343700Y0087868D02*
X0344300Y0087868D01*
X0334500Y0087868D02*
X0333500Y0087868D01*
X0333500Y0088866D02*
X0334500Y0088866D01*
X0334500Y0089865D02*
X0333500Y0089865D01*
X0333500Y0090863D02*
X0334500Y0090863D01*
X0334500Y0091862D02*
X0333500Y0091862D01*
X0333500Y0092860D02*
X0334500Y0092860D01*
X0334500Y0095856D02*
X0333500Y0095856D01*
X0333500Y0096854D02*
X0334500Y0096854D01*
X0334500Y0097853D02*
X0333500Y0097853D01*
X0333500Y0098851D02*
X0334500Y0098851D01*
X0334500Y0099850D02*
X0333500Y0099850D01*
X0333500Y0100848D02*
X0334500Y0100848D01*
X0331117Y0100848D02*
X0316000Y0100848D01*
X0316000Y0099850D02*
X0330164Y0099850D01*
X0329616Y0098851D02*
X0316000Y0098851D01*
X0316000Y0097853D02*
X0329355Y0097853D01*
X0329300Y0096854D02*
X0316000Y0096854D01*
X0316000Y0095856D02*
X0329300Y0095856D01*
X0333500Y0086869D02*
X0334500Y0086869D01*
X0343700Y0094857D02*
X0344300Y0094857D01*
X0344300Y0095856D02*
X0343700Y0095856D01*
X0343700Y0096854D02*
X0344300Y0096854D01*
X0344300Y0097853D02*
X0343700Y0097853D01*
X0343700Y0098851D02*
X0344300Y0098851D01*
X0344300Y0099850D02*
X0343700Y0099850D01*
X0351921Y0101847D02*
X0316000Y0101847D01*
X0316000Y0102845D02*
X0351921Y0102845D01*
X0351921Y0103844D02*
X0316000Y0103844D01*
X0316000Y0104842D02*
X0351921Y0104842D01*
X0351921Y0105841D02*
X0316000Y0105841D01*
X0316000Y0106839D02*
X0351921Y0106839D01*
X0351921Y0107838D02*
X0316000Y0107838D01*
X0316000Y0108836D02*
X0351921Y0108836D01*
X0351921Y0109835D02*
X0316000Y0109835D01*
X0316000Y0110833D02*
X0351921Y0110833D01*
X0351921Y0111832D02*
X0316000Y0111832D01*
X0316000Y0112830D02*
X0351921Y0112830D01*
X0351921Y0134798D02*
X0348087Y0134798D01*
X0348300Y0135796D02*
X0351921Y0135796D01*
X0351921Y0136795D02*
X0348300Y0136795D01*
X0348300Y0137793D02*
X0351921Y0137793D01*
X0294072Y0175737D02*
X0293928Y0175737D01*
X0293169Y0176735D02*
X0294831Y0176735D01*
X0295830Y0177734D02*
X0292170Y0177734D01*
X0291028Y0178732D02*
X0296972Y0178732D01*
X0298702Y0179731D02*
X0289298Y0179731D01*
X0286341Y0180729D02*
X0301659Y0180729D01*
X0306341Y0180729D02*
X0317500Y0180729D01*
X0330500Y0179731D02*
X0332221Y0179731D01*
X0347170Y0185722D02*
X0351921Y0185722D01*
X0351921Y0186720D02*
X0347851Y0186720D01*
X0348209Y0187719D02*
X0351921Y0187719D01*
X0351921Y0188717D02*
X0348300Y0188717D01*
X0348300Y0189716D02*
X0351921Y0189716D01*
X0351921Y0190714D02*
X0348300Y0190714D01*
X0348300Y0192711D02*
X0351921Y0192711D01*
X0351921Y0191713D02*
X0344300Y0191713D01*
X0344300Y0192711D02*
X0343700Y0192711D01*
X0343700Y0193710D02*
X0344300Y0193710D01*
X0344300Y0194708D02*
X0343700Y0194708D01*
X0343700Y0195707D02*
X0344300Y0195707D01*
X0344300Y0196705D02*
X0343700Y0196705D01*
X0343700Y0197704D02*
X0344300Y0197704D01*
X0346539Y0197704D02*
X0351921Y0197704D01*
X0351921Y0196705D02*
X0347519Y0196705D01*
X0348042Y0195707D02*
X0351921Y0195707D01*
X0351921Y0194708D02*
X0348278Y0194708D01*
X0348300Y0193710D02*
X0351921Y0193710D01*
X0340427Y0230655D02*
X0338868Y0230655D01*
X0337000Y0074887D02*
X0336000Y0074887D01*
X0336000Y0073888D02*
X0337000Y0073888D01*
X0337000Y0072890D02*
X0336000Y0072890D01*
X0336000Y0071891D02*
X0337000Y0071891D01*
X0337000Y0070893D02*
X0336000Y0070893D01*
X0336000Y0069894D02*
X0337000Y0069894D01*
X0337000Y0068896D02*
X0336000Y0068896D01*
X0336000Y0067897D02*
X0337000Y0067897D01*
X0337000Y0066899D02*
X0336000Y0066899D01*
X0336000Y0065900D02*
X0337000Y0065900D01*
X0337000Y0064902D02*
X0336000Y0064902D01*
X0336000Y0061906D02*
X0337000Y0061906D01*
X0337000Y0060908D02*
X0336000Y0060908D01*
X0336000Y0059909D02*
X0337000Y0059909D01*
X0337000Y0058911D02*
X0336000Y0058911D01*
X0336000Y0057912D02*
X0337000Y0057912D01*
X0337000Y0056914D02*
X0336000Y0056914D01*
X0336000Y0055915D02*
X0337000Y0055915D01*
X0337000Y0054917D02*
X0336000Y0054917D01*
X0336000Y0053918D02*
X0337000Y0053918D01*
X0337000Y0052920D02*
X0336000Y0052920D01*
X0331712Y0052920D02*
X0314900Y0052920D01*
X0314900Y0051921D02*
X0351921Y0051921D01*
X0351921Y0050923D02*
X0314900Y0050923D01*
X0314900Y0049924D02*
X0351921Y0049924D01*
X0351921Y0048926D02*
X0314900Y0048926D01*
X0309400Y0048926D02*
X0308400Y0048926D01*
X0308400Y0049924D02*
X0309400Y0049924D01*
X0309400Y0050923D02*
X0308400Y0050923D01*
X0308400Y0051921D02*
X0309400Y0051921D01*
X0309400Y0054917D02*
X0308400Y0054917D01*
X0308400Y0055915D02*
X0309400Y0055915D01*
X0309400Y0056914D02*
X0308400Y0056914D01*
X0308400Y0057912D02*
X0309400Y0057912D01*
X0309400Y0058911D02*
X0308400Y0058911D01*
X0308400Y0059909D02*
X0309400Y0059909D01*
X0309400Y0060908D02*
X0308400Y0060908D01*
X0308400Y0061906D02*
X0309400Y0061906D01*
X0309400Y0062905D02*
X0308400Y0062905D01*
X0308400Y0063903D02*
X0309400Y0063903D01*
X0309400Y0064902D02*
X0308400Y0064902D01*
X0314630Y0064902D02*
X0324533Y0064902D01*
X0343116Y0053918D02*
X0351921Y0053918D01*
X0351921Y0052920D02*
X0341288Y0052920D01*
X0344440Y0054917D02*
X0351921Y0054917D01*
X0351921Y0055915D02*
X0345453Y0055915D01*
X0346251Y0056914D02*
X0351921Y0056914D01*
X0351921Y0057912D02*
X0346889Y0057912D01*
X0347400Y0058911D02*
X0351921Y0058911D01*
X0351921Y0059909D02*
X0347805Y0059909D01*
X0348118Y0060908D02*
X0351921Y0060908D01*
X0351921Y0061906D02*
X0348346Y0061906D01*
D17*
X0304000Y0093933D02*
X0304000Y0123933D01*
X0304000Y0138933D01*
X0304000Y0168933D01*
X0284000Y0168933D02*
X0284000Y0138933D01*
X0284000Y0123933D01*
X0284000Y0093933D01*
X0074000Y0093933D02*
X0074000Y0123933D01*
X0074000Y0138933D01*
X0074000Y0168933D01*
X0054000Y0168933D02*
X0054000Y0138933D01*
X0054000Y0123933D01*
X0054000Y0093933D01*
D18*
X0056500Y0103933D02*
X0051500Y0108933D01*
X0056500Y0113933D01*
X0054000Y0123933D01*
X0074000Y0123933D02*
X0076500Y0113933D01*
X0071500Y0108933D01*
X0076500Y0103933D01*
X0094000Y0093933D02*
X0094000Y0123933D01*
X0094000Y0138933D01*
X0094000Y0168933D01*
X0094000Y0166433D01*
X0094000Y0168933D02*
X0094000Y0191433D01*
X0094000Y0221433D01*
X0064000Y0206433D02*
X0034000Y0206433D01*
X0034000Y0191433D01*
X0034000Y0138933D01*
X0024000Y0138933D01*
X0014000Y0138933D01*
X0034000Y0138933D02*
X0034000Y0098933D01*
X0029000Y0093933D01*
X0024000Y0093933D01*
X0014000Y0093933D01*
X0051500Y0148933D02*
X0056500Y0153933D01*
X0051500Y0158933D01*
X0054000Y0168933D01*
X0074000Y0168933D02*
X0071500Y0158933D01*
X0076500Y0153933D01*
X0071500Y0148933D01*
X0119000Y0171433D02*
X0149000Y0141433D01*
X0159000Y0141433D01*
X0119000Y0171433D02*
X0119000Y0193933D01*
X0039000Y0236433D02*
X0034000Y0231433D01*
X0034000Y0206433D01*
X0034000Y0191433D02*
X0024000Y0191433D01*
X0014000Y0191433D01*
X0039000Y0236433D02*
X0039000Y0253933D01*
X0044000Y0258933D01*
X0314000Y0258933D01*
X0319000Y0253933D01*
X0319000Y0236433D01*
X0324000Y0231433D01*
X0324000Y0221433D01*
X0334000Y0221433D01*
X0344000Y0221433D01*
X0324000Y0221433D02*
X0324000Y0168933D01*
X0324000Y0128933D01*
X0329000Y0123933D01*
X0334000Y0123933D01*
X0344000Y0123933D01*
X0306500Y0108933D02*
X0301500Y0103933D01*
X0306500Y0108933D02*
X0301500Y0113933D01*
X0304000Y0123933D01*
X0284000Y0123933D02*
X0281500Y0113933D01*
X0286500Y0108933D01*
X0281500Y0103933D01*
X0264000Y0093933D02*
X0264000Y0123933D01*
X0264000Y0138933D01*
X0264000Y0168933D01*
X0264000Y0191433D01*
X0264000Y0221433D01*
X0284000Y0168933D02*
X0286500Y0158933D01*
X0281500Y0153933D01*
X0286500Y0148933D01*
X0301500Y0153933D02*
X0306500Y0148933D01*
X0301500Y0153933D02*
X0306500Y0158933D01*
X0304000Y0168933D01*
X0324000Y0168933D02*
X0344000Y0168933D01*
X0334000Y0168933D01*
M02*
