%
M48
M72
T01C0.02362
T02C0.03200
T03C0.04000
T04C0.06600
T05C0.11024
%
T01
X41500Y48933
X49000Y48933
X49000Y53933
X49000Y61433
X41500Y63933
X46500Y68933
X41500Y73933
X34000Y78933
X39000Y83933
X39000Y91433
X56500Y103933
X51500Y108933
X56500Y113933
X71500Y108933
X76500Y103933
X76500Y113933
X106500Y116433
X106500Y106433
X106500Y96433
X109000Y88933
X116500Y88933
X126500Y88933
X134000Y88933
X141500Y88933
X149000Y88933
X156500Y88933
X164000Y88933
X164000Y81433
X156500Y81433
X149000Y81433
X141500Y81433
X134000Y81433
X126500Y81433
X116500Y81433
X91500Y61433
X91500Y53933
X84000Y53933
X84000Y48933
X84000Y61433
X99000Y53933
X104000Y51433
X111500Y51433
X119000Y51433
X126500Y51433
X134000Y51433
X141500Y51433
X149000Y51433
X156500Y51433
X164000Y51433
X171500Y51433
X179000Y51433
X186500Y51433
X194000Y51433
X201500Y51433
X209000Y51433
X216500Y51433
X224000Y51433
X231500Y51433
X239000Y51433
X246500Y51433
X254000Y51433
X259000Y53933
X266500Y53933
X274000Y53933
X274000Y48933
X274000Y61433
X266500Y61433
X241500Y81433
X241500Y88933
X249000Y88933
X254000Y96433
X254000Y103933
X254000Y111433
X254000Y118933
X254000Y126433
X254000Y133933
X254000Y143933
X254000Y153933
X254000Y163933
X254000Y173933
X254000Y181433
X254000Y188933
X254000Y196433
X254000Y203933
X231500Y201433
X229000Y196433
X224000Y193933
X216500Y193933
X216500Y201433
X224000Y201433
X224000Y218933
X216500Y218933
X211500Y223933
X201500Y223933
X191500Y223933
X181500Y223933
X171500Y223933
X161500Y223933
X151500Y223933
X141500Y223933
X131500Y223933
X124000Y223933
X124000Y236433
X131500Y236433
X141500Y236433
X151500Y236433
X161500Y236433
X171500Y236433
X181500Y236433
X191500Y236433
X201500Y236433
X211500Y236433
X216500Y231433
X224000Y231433
X231500Y231433
X236500Y236433
X229000Y238933
X219000Y238933
X219000Y248933
X211500Y248933
X201500Y248933
X191500Y248933
X181500Y248933
X171500Y248933
X161500Y248933
X151500Y248933
X141500Y248933
X131500Y248933
X124000Y248933
X111500Y248933
X101500Y248933
X91500Y248933
X81500Y248933
X71500Y248933
X61500Y248933
X49000Y248933
X49000Y241433
X44000Y228933
X44000Y216433
X64000Y206433
X66500Y196433
X66500Y188933
X66500Y181433
X81500Y181433
X81500Y188933
X81500Y196433
X84000Y201433
X104000Y193933
X109000Y188933
X104000Y186433
X109000Y181433
X104000Y178933
X109000Y173933
X106500Y166433
X106500Y156433
X106500Y146433
X106500Y136433
X106500Y126433
X116500Y126433
X154000Y108933
X154000Y98933
X171500Y81433
X179000Y81433
X186500Y81433
X194000Y81433
X201500Y81433
X209000Y81433
X216500Y81433
X224000Y81433
X231500Y81433
X231500Y88933
X231500Y96433
X241500Y96433
X244000Y103933
X216500Y118933
X216500Y126433
X216500Y133933
X214000Y141433
X206500Y141433
X206500Y133933
X199000Y133933
X191500Y133933
X184000Y133933
X184000Y141433
X191500Y141433
X199000Y141433
X191500Y148933
X184000Y148933
X184000Y156433
X191500Y156433
X191500Y163933
X184000Y163933
X184000Y171433
X176500Y171433
X169000Y171433
X161500Y171433
X154000Y171433
X146500Y171433
X139000Y171433
X139000Y178933
X146500Y178933
X154000Y178933
X161500Y178933
X169000Y178933
X176500Y178933
X184000Y178933
X191500Y178933
X191500Y171433
X191500Y186433
X216500Y178933
X224000Y178933
X224000Y171433
X216500Y171433
X216500Y163933
X224000Y163933
X231500Y168933
X231500Y176433
X224000Y156433
X216500Y156433
X214000Y148933
X206500Y126433
X199000Y126433
X191500Y126433
X184000Y126433
X184000Y118933
X191500Y118933
X199000Y118933
X206500Y118933
X199000Y111433
X199000Y103933
X199000Y96433
X199000Y88933
X161500Y118933
X161500Y126433
X131500Y173933
X131500Y181433
X119000Y193933
X154000Y186433
X161500Y186433
X231500Y218933
X236500Y223933
X236500Y248933
X229000Y248933
X246500Y248933
X256500Y248933
X266500Y248933
X276500Y248933
X286500Y248933
X296500Y248933
X309000Y248933
X309000Y241433
X316500Y226433
X316500Y216433
X316500Y206433
X316500Y196433
X316500Y186433
X294000Y186433
X294000Y196433
X294000Y206433
X284000Y206433
X276500Y206433
X276500Y216433
X276500Y226433
X294000Y226433
X294000Y216433
X276500Y196433
X276500Y186433
X274000Y178933
X286500Y158933
X281500Y153933
X286500Y148933
X301500Y153933
X306500Y148933
X306500Y158933
X319000Y121433
X319000Y113933
X306500Y108933
X301500Y103933
X301500Y113933
X286500Y108933
X281500Y103933
X281500Y113933
X319000Y103933
X319000Y93933
X319000Y83933
X316500Y73933
X311500Y68933
X316500Y63933
X316500Y56433
X309000Y53933
X309000Y48933
X316500Y48933
X309000Y61433
X76500Y153933
X71500Y148933
X56500Y153933
X51500Y148933
X51500Y158933
X71500Y158933
X44000Y178933
X44000Y186433
X44000Y196433
X9000Y78933
X41500Y56433
X9000Y51433
T02
X14000Y93933
X14000Y123933
X14000Y138933
X14000Y168933
X14000Y191433
X14000Y221433
X129000Y141433
X159000Y141433
X344000Y138933
X344000Y123933
X344000Y93933
X344000Y168933
X344000Y191433
X344000Y221433
T03
X334000Y221433
X304000Y221433
X284000Y221433
X264000Y221433
X264000Y191433
X284000Y191433
X304000Y191433
X304000Y168933
X284000Y168933
X264000Y168933
X264000Y138933
X264000Y123933
X284000Y123933
X284000Y138933
X304000Y138933
X304000Y123933
X334000Y123933
X334000Y138933
X334000Y168933
X334000Y191433
X334000Y93933
X304000Y93933
X284000Y93933
X264000Y93933
X94000Y93933
X74000Y93933
X54000Y93933
X24000Y93933
X24000Y123933
X24000Y138933
X54000Y138933
X54000Y123933
X74000Y123933
X74000Y138933
X94000Y138933
X94000Y123933
X94000Y168933
X74000Y168933
X54000Y168933
X54000Y191433
X74000Y191433
X94000Y191433
X94000Y221433
X74000Y221433
X54000Y221433
X24000Y221433
X24000Y191433
X24000Y168933
T04
X128700Y116433
X144300Y116433
T05
X21500Y63933
X21500Y246433
X336500Y246433
X336500Y63933
M30
