G75*
%MOIN*%
%OFA0B0*%
%FSLAX25Y25*%
%IPPOS*%
%LPD*%
%AMOC8*
5,1,8,0,0,1.08239X$1,22.5*
%
%ADD10R,0.35000X0.22500*%
%ADD11R,0.06299X0.07087*%
%ADD12R,0.10236X0.08661*%
%ADD13R,0.07087X0.06299*%
%ADD14C,0.05600*%
%ADD15R,0.05900X0.07900*%
%ADD16R,0.15000X0.07900*%
%ADD17C,0.09900*%
%ADD18R,0.06299X0.07874*%
%ADD19R,0.07874X0.06299*%
%ADD20R,0.03150X0.05512*%
%ADD21R,0.03150X0.07480*%
%ADD22C,0.06000*%
%ADD23C,0.21000*%
%ADD24R,0.20000X0.09000*%
%ADD25C,0.03200*%
%ADD26C,0.07000*%
%ADD27C,0.01600*%
%ADD28C,0.06600*%
%ADD29C,0.02400*%
%ADD30OC8,0.05000*%
%ADD31C,0.04000*%
D10*
X0174756Y0117683D03*
D11*
X0182994Y0138933D03*
X0194018Y0138933D03*
X0217994Y0110183D03*
X0229018Y0110183D03*
X0229018Y0100183D03*
X0217994Y0100183D03*
X0137768Y0098933D03*
X0126744Y0098933D03*
X0126744Y0118933D03*
X0137768Y0118933D03*
X0086518Y0138933D03*
X0075494Y0138933D03*
D12*
X0129914Y0086433D03*
X0149599Y0086433D03*
X0149599Y0070183D03*
X0129914Y0070183D03*
D13*
X0101006Y0079671D03*
X0101006Y0090695D03*
X0193506Y0080695D03*
X0193506Y0069671D03*
X0228506Y0069671D03*
X0228506Y0080695D03*
D14*
X0238506Y0087383D02*
X0238506Y0092983D01*
X0238506Y0117383D02*
X0238506Y0122983D01*
D15*
X0186356Y0092783D03*
X0177356Y0092783D03*
X0168356Y0092783D03*
D16*
X0177256Y0117583D03*
D17*
X0267306Y0104233D02*
X0277206Y0104233D01*
X0277206Y0088633D02*
X0267306Y0088633D01*
D18*
X0177768Y0081433D03*
X0166744Y0081433D03*
X0166744Y0068933D03*
X0177768Y0068933D03*
D19*
X0148506Y0099671D03*
X0148506Y0110695D03*
X0148506Y0119671D03*
X0148506Y0130695D03*
X0101006Y0130695D03*
X0101006Y0119671D03*
X0101006Y0110695D03*
X0101006Y0099671D03*
X0228506Y0119671D03*
X0228506Y0130695D03*
D20*
X0129408Y0138634D03*
X0117605Y0138634D03*
D21*
X0123506Y0139634D03*
D22*
X0124506Y0145949D02*
X0122506Y0145949D01*
X0122506Y0154319D01*
X0124506Y0154319D01*
X0124506Y0145949D01*
X0124506Y0151948D02*
X0122506Y0151948D01*
D23*
X0058506Y0177683D03*
X0058506Y0061433D03*
X0273506Y0061433D03*
X0273506Y0177683D03*
D24*
X0283406Y0156333D03*
X0283406Y0138933D03*
X0283406Y0121533D03*
X0048606Y0121533D03*
X0048606Y0138933D03*
X0048606Y0156333D03*
D25*
X0111006Y0138933D02*
X0117605Y0138933D01*
X0117605Y0138634D01*
X0123506Y0139634D02*
X0123506Y0117683D01*
X0148506Y0130695D02*
X0148506Y0138933D01*
X0136006Y0138933D02*
X0129408Y0138933D01*
X0129408Y0138634D01*
X0123506Y0139634D02*
X0123506Y0150134D01*
X0186356Y0092783D02*
X0186356Y0083583D01*
X0189756Y0080183D01*
X0192994Y0080183D01*
X0193506Y0080695D01*
X0228506Y0080695D01*
X0229018Y0081207D01*
X0229018Y0100183D01*
X0238506Y0096433D02*
X0238506Y0090183D01*
X0238506Y0096433D02*
X0246306Y0104233D01*
X0272256Y0104233D01*
X0166744Y0068933D02*
X0165494Y0070183D01*
X0149599Y0070183D01*
D26*
X0148506Y0138933D02*
X0136006Y0138933D01*
X0148506Y0138933D02*
X0182994Y0138933D01*
X0111006Y0138933D02*
X0101006Y0138933D01*
X0086518Y0138933D01*
D27*
X0043506Y0115233D02*
X0043506Y0046433D01*
X0288506Y0046433D01*
X0288506Y0115233D01*
X0284206Y0115233D01*
X0284206Y0120733D01*
X0282606Y0120733D01*
X0271606Y0120733D01*
X0271606Y0116796D01*
X0271729Y0116338D01*
X0271966Y0115928D01*
X0272301Y0115593D01*
X0272712Y0115356D01*
X0273169Y0115233D01*
X0282606Y0115233D01*
X0282606Y0120733D01*
X0282606Y0122333D01*
X0271606Y0122333D01*
X0271606Y0126270D01*
X0271650Y0126433D01*
X0259756Y0126433D01*
X0259756Y0109033D01*
X0260580Y0109033D01*
X0262690Y0111142D01*
X0265685Y0112383D01*
X0278827Y0112383D01*
X0281823Y0111142D01*
X0284116Y0108850D01*
X0285356Y0105854D01*
X0285356Y0102612D01*
X0284116Y0099616D01*
X0281823Y0097324D01*
X0278827Y0096083D01*
X0265685Y0096083D01*
X0262690Y0097324D01*
X0260580Y0099433D01*
X0259756Y0099433D01*
X0259756Y0063933D01*
X0234756Y0063933D01*
X0234756Y0072683D01*
X0233850Y0072683D01*
X0233850Y0070446D01*
X0229281Y0070446D01*
X0229281Y0068896D01*
X0229281Y0064722D01*
X0232287Y0064722D01*
X0232744Y0064844D01*
X0233155Y0065081D01*
X0233490Y0065416D01*
X0233727Y0065827D01*
X0233850Y0066285D01*
X0233850Y0068896D01*
X0229281Y0068896D01*
X0227731Y0068896D01*
X0227731Y0064722D01*
X0224726Y0064722D01*
X0224268Y0064844D01*
X0223858Y0065081D01*
X0223523Y0065416D01*
X0223286Y0065827D01*
X0223163Y0066285D01*
X0223163Y0068896D01*
X0227731Y0068896D01*
X0227731Y0070446D01*
X0223163Y0070446D01*
X0223163Y0072683D01*
X0222256Y0072683D01*
X0222256Y0063933D01*
X0199756Y0063933D01*
X0199756Y0072683D01*
X0198850Y0072683D01*
X0198850Y0070446D01*
X0194281Y0070446D01*
X0194281Y0068896D01*
X0194281Y0064722D01*
X0197287Y0064722D01*
X0197744Y0064844D01*
X0198155Y0065081D01*
X0198490Y0065416D01*
X0198727Y0065827D01*
X0198850Y0066285D01*
X0198850Y0068896D01*
X0194281Y0068896D01*
X0192731Y0068896D01*
X0192731Y0064722D01*
X0189726Y0064722D01*
X0189268Y0064844D01*
X0188858Y0065081D01*
X0188523Y0065416D01*
X0188286Y0065827D01*
X0188163Y0066285D01*
X0188163Y0068896D01*
X0192731Y0068896D01*
X0192731Y0070446D01*
X0188163Y0070446D01*
X0188163Y0072683D01*
X0182718Y0072683D01*
X0182718Y0069708D01*
X0178543Y0069708D01*
X0178543Y0068158D01*
X0178543Y0063196D01*
X0181155Y0063196D01*
X0181612Y0063319D01*
X0182023Y0063556D01*
X0182358Y0063891D01*
X0182595Y0064301D01*
X0182718Y0064759D01*
X0182718Y0068158D01*
X0178543Y0068158D01*
X0176993Y0068158D01*
X0176993Y0063196D01*
X0174756Y0063196D01*
X0174756Y0060183D01*
X0131006Y0060183D01*
X0131006Y0064052D01*
X0130714Y0064052D01*
X0130714Y0069383D01*
X0129114Y0069383D01*
X0129114Y0064052D01*
X0124559Y0064052D01*
X0124101Y0064175D01*
X0123690Y0064412D01*
X0123355Y0064747D01*
X0123118Y0065158D01*
X0122996Y0065615D01*
X0122996Y0069383D01*
X0129114Y0069383D01*
X0129114Y0070983D01*
X0129114Y0076314D01*
X0124559Y0076314D01*
X0124101Y0076191D01*
X0123690Y0075954D01*
X0123355Y0075619D01*
X0123118Y0075209D01*
X0122996Y0074751D01*
X0122996Y0070983D01*
X0129114Y0070983D01*
X0130714Y0070983D01*
X0130714Y0076314D01*
X0131006Y0076314D01*
X0131006Y0080302D01*
X0130714Y0080302D01*
X0130714Y0085633D01*
X0129114Y0085633D01*
X0129114Y0080302D01*
X0124559Y0080302D01*
X0124101Y0080425D01*
X0123690Y0080662D01*
X0123355Y0080997D01*
X0123118Y0081408D01*
X0122996Y0081865D01*
X0122996Y0085633D01*
X0129114Y0085633D01*
X0129114Y0087233D01*
X0129114Y0092564D01*
X0124559Y0092564D01*
X0124101Y0092441D01*
X0123690Y0092204D01*
X0123355Y0091869D01*
X0123118Y0091459D01*
X0122996Y0091001D01*
X0122996Y0087233D01*
X0129114Y0087233D01*
X0130714Y0087233D01*
X0130714Y0092564D01*
X0131006Y0092564D01*
X0131006Y0093956D01*
X0130999Y0093949D01*
X0130589Y0093712D01*
X0130131Y0093590D01*
X0127519Y0093590D01*
X0127519Y0098158D01*
X0125970Y0098158D01*
X0125970Y0093590D01*
X0123358Y0093590D01*
X0122900Y0093712D01*
X0122490Y0093949D01*
X0122155Y0094285D01*
X0121918Y0094695D01*
X0121795Y0095153D01*
X0121795Y0098158D01*
X0125970Y0098158D01*
X0125970Y0099708D01*
X0125970Y0104276D01*
X0123358Y0104276D01*
X0122900Y0104154D01*
X0122490Y0103917D01*
X0122155Y0103582D01*
X0121918Y0103171D01*
X0121795Y0102713D01*
X0121795Y0099708D01*
X0125970Y0099708D01*
X0127519Y0099708D01*
X0127519Y0104276D01*
X0130131Y0104276D01*
X0130589Y0104154D01*
X0130999Y0103917D01*
X0131006Y0103910D01*
X0131006Y0113956D01*
X0130999Y0113949D01*
X0130589Y0113712D01*
X0130131Y0113590D01*
X0127519Y0113590D01*
X0127519Y0118158D01*
X0125970Y0118158D01*
X0125970Y0113590D01*
X0123358Y0113590D01*
X0122900Y0113712D01*
X0122490Y0113949D01*
X0122155Y0114285D01*
X0121918Y0114695D01*
X0121795Y0115153D01*
X0121795Y0118158D01*
X0125970Y0118158D01*
X0125970Y0119708D01*
X0125970Y0124276D01*
X0123358Y0124276D01*
X0122900Y0124154D01*
X0122490Y0123917D01*
X0122155Y0123582D01*
X0121918Y0123171D01*
X0121795Y0122713D01*
X0121795Y0119708D01*
X0125970Y0119708D01*
X0127519Y0119708D01*
X0127519Y0124276D01*
X0130131Y0124276D01*
X0130589Y0124154D01*
X0130999Y0123917D01*
X0131006Y0123910D01*
X0131006Y0131433D01*
X0116006Y0131433D01*
X0116006Y0082683D01*
X0106350Y0082683D01*
X0106350Y0080446D01*
X0101781Y0080446D01*
X0101781Y0078896D01*
X0101781Y0074722D01*
X0104787Y0074722D01*
X0105244Y0074844D01*
X0105655Y0075081D01*
X0105990Y0075416D01*
X0106227Y0075827D01*
X0106350Y0076285D01*
X0106350Y0078896D01*
X0101781Y0078896D01*
X0100231Y0078896D01*
X0100231Y0074722D01*
X0097226Y0074722D01*
X0096768Y0074844D01*
X0096358Y0075081D01*
X0096023Y0075416D01*
X0095786Y0075827D01*
X0095663Y0076285D01*
X0095663Y0078896D01*
X0100231Y0078896D01*
X0100231Y0080446D01*
X0095663Y0080446D01*
X0095663Y0082683D01*
X0093506Y0082683D01*
X0093506Y0067683D01*
X0071006Y0067683D01*
X0071006Y0126433D01*
X0060363Y0126433D01*
X0060406Y0126270D01*
X0060406Y0122333D01*
X0049406Y0122333D01*
X0049406Y0120733D01*
X0049406Y0115233D01*
X0058843Y0115233D01*
X0059301Y0115356D01*
X0059712Y0115593D01*
X0060047Y0115928D01*
X0060284Y0116338D01*
X0060406Y0116796D01*
X0060406Y0120733D01*
X0049406Y0120733D01*
X0047806Y0120733D01*
X0047806Y0115233D01*
X0043506Y0115233D01*
X0043506Y0114965D02*
X0071006Y0114965D01*
X0071006Y0116563D02*
X0060344Y0116563D01*
X0060406Y0118162D02*
X0071006Y0118162D01*
X0071006Y0119760D02*
X0060406Y0119760D01*
X0060406Y0122957D02*
X0071006Y0122957D01*
X0071006Y0121359D02*
X0049406Y0121359D01*
X0049406Y0119760D02*
X0047806Y0119760D01*
X0047806Y0118162D02*
X0049406Y0118162D01*
X0049406Y0116563D02*
X0047806Y0116563D01*
X0043506Y0113366D02*
X0071006Y0113366D01*
X0071006Y0111768D02*
X0043506Y0111768D01*
X0043506Y0110169D02*
X0071006Y0110169D01*
X0071006Y0108571D02*
X0043506Y0108571D01*
X0043506Y0106972D02*
X0071006Y0106972D01*
X0071006Y0105374D02*
X0043506Y0105374D01*
X0043506Y0103775D02*
X0071006Y0103775D01*
X0071006Y0102177D02*
X0043506Y0102177D01*
X0043506Y0100578D02*
X0071006Y0100578D01*
X0071006Y0098979D02*
X0043506Y0098979D01*
X0043506Y0097381D02*
X0071006Y0097381D01*
X0071006Y0095782D02*
X0043506Y0095782D01*
X0043506Y0094184D02*
X0071006Y0094184D01*
X0071006Y0092585D02*
X0043506Y0092585D01*
X0043506Y0090987D02*
X0071006Y0090987D01*
X0071006Y0089388D02*
X0043506Y0089388D01*
X0043506Y0087790D02*
X0071006Y0087790D01*
X0071006Y0086191D02*
X0043506Y0086191D01*
X0043506Y0084593D02*
X0071006Y0084593D01*
X0071006Y0082994D02*
X0043506Y0082994D01*
X0043506Y0081396D02*
X0071006Y0081396D01*
X0071006Y0079797D02*
X0043506Y0079797D01*
X0043506Y0078199D02*
X0071006Y0078199D01*
X0071006Y0076600D02*
X0043506Y0076600D01*
X0043506Y0075002D02*
X0071006Y0075002D01*
X0071006Y0073403D02*
X0061337Y0073403D01*
X0061917Y0073271D02*
X0060570Y0073578D01*
X0059306Y0073721D01*
X0059306Y0062233D01*
X0057706Y0062233D01*
X0057706Y0060633D01*
X0046219Y0060633D01*
X0046361Y0059369D01*
X0046668Y0058023D01*
X0047125Y0056719D01*
X0047724Y0055474D01*
X0048459Y0054304D01*
X0049320Y0053224D01*
X0050297Y0052247D01*
X0051377Y0051386D01*
X0052547Y0050651D01*
X0053792Y0050051D01*
X0055096Y0049595D01*
X0056443Y0049288D01*
X0057706Y0049145D01*
X0057706Y0060633D01*
X0059306Y0060633D01*
X0059306Y0049145D01*
X0060570Y0049288D01*
X0061917Y0049595D01*
X0063221Y0050051D01*
X0064465Y0050651D01*
X0065635Y0051386D01*
X0066715Y0052247D01*
X0067692Y0053224D01*
X0068553Y0054304D01*
X0069288Y0055474D01*
X0069888Y0056719D01*
X0070344Y0058023D01*
X0070652Y0059369D01*
X0070794Y0060633D01*
X0059306Y0060633D01*
X0059306Y0062233D01*
X0070794Y0062233D01*
X0070652Y0063497D01*
X0070344Y0064844D01*
X0069888Y0066147D01*
X0069288Y0067392D01*
X0068553Y0068562D01*
X0067692Y0069642D01*
X0066715Y0070619D01*
X0065635Y0071480D01*
X0064465Y0072215D01*
X0063221Y0072815D01*
X0061917Y0073271D01*
X0059306Y0073403D02*
X0057706Y0073403D01*
X0057706Y0073721D02*
X0056443Y0073578D01*
X0055096Y0073271D01*
X0053792Y0072815D01*
X0052547Y0072215D01*
X0051377Y0071480D01*
X0050297Y0070619D01*
X0049320Y0069642D01*
X0048459Y0068562D01*
X0047724Y0067392D01*
X0047125Y0066147D01*
X0046668Y0064844D01*
X0046361Y0063497D01*
X0046219Y0062233D01*
X0057706Y0062233D01*
X0057706Y0073721D01*
X0057706Y0071805D02*
X0059306Y0071805D01*
X0059306Y0070206D02*
X0057706Y0070206D01*
X0057706Y0068608D02*
X0059306Y0068608D01*
X0059306Y0067009D02*
X0057706Y0067009D01*
X0057706Y0065411D02*
X0059306Y0065411D01*
X0059306Y0063812D02*
X0057706Y0063812D01*
X0057706Y0062214D02*
X0043506Y0062214D01*
X0043506Y0063812D02*
X0046433Y0063812D01*
X0046867Y0065411D02*
X0043506Y0065411D01*
X0043506Y0067009D02*
X0047540Y0067009D01*
X0048496Y0068608D02*
X0043506Y0068608D01*
X0043506Y0070206D02*
X0049885Y0070206D01*
X0051894Y0071805D02*
X0043506Y0071805D01*
X0043506Y0073403D02*
X0055676Y0073403D01*
X0065119Y0071805D02*
X0071006Y0071805D01*
X0071006Y0070206D02*
X0067128Y0070206D01*
X0068517Y0068608D02*
X0071006Y0068608D01*
X0069473Y0067009D02*
X0122996Y0067009D01*
X0122996Y0068608D02*
X0093506Y0068608D01*
X0093506Y0070206D02*
X0129114Y0070206D01*
X0129114Y0068608D02*
X0130714Y0068608D01*
X0130714Y0067009D02*
X0129114Y0067009D01*
X0129114Y0065411D02*
X0130714Y0065411D01*
X0131006Y0063812D02*
X0070580Y0063812D01*
X0070146Y0065411D02*
X0123050Y0065411D01*
X0131006Y0062214D02*
X0059306Y0062214D01*
X0059306Y0060615D02*
X0057706Y0060615D01*
X0057706Y0059017D02*
X0059306Y0059017D01*
X0059306Y0057418D02*
X0057706Y0057418D01*
X0057706Y0055820D02*
X0059306Y0055820D01*
X0059306Y0054221D02*
X0057706Y0054221D01*
X0057706Y0052623D02*
X0059306Y0052623D01*
X0059306Y0051024D02*
X0057706Y0051024D01*
X0057706Y0049426D02*
X0059306Y0049426D01*
X0061174Y0049426D02*
X0270839Y0049426D01*
X0271443Y0049288D02*
X0270096Y0049595D01*
X0268792Y0050051D01*
X0267547Y0050651D01*
X0266377Y0051386D01*
X0265297Y0052247D01*
X0264320Y0053224D01*
X0263459Y0054304D01*
X0262724Y0055474D01*
X0262125Y0056719D01*
X0261668Y0058023D01*
X0261361Y0059369D01*
X0261219Y0060633D01*
X0272706Y0060633D01*
X0272706Y0062233D01*
X0261219Y0062233D01*
X0261361Y0063497D01*
X0261668Y0064844D01*
X0262125Y0066147D01*
X0262724Y0067392D01*
X0263459Y0068562D01*
X0264320Y0069642D01*
X0265297Y0070619D01*
X0266377Y0071480D01*
X0267547Y0072215D01*
X0268792Y0072815D01*
X0270096Y0073271D01*
X0271443Y0073578D01*
X0272706Y0073721D01*
X0272706Y0062233D01*
X0274306Y0062233D01*
X0274306Y0073721D01*
X0275570Y0073578D01*
X0276917Y0073271D01*
X0278221Y0072815D01*
X0279465Y0072215D01*
X0280635Y0071480D01*
X0281715Y0070619D01*
X0282692Y0069642D01*
X0283553Y0068562D01*
X0284288Y0067392D01*
X0284888Y0066147D01*
X0285344Y0064844D01*
X0285652Y0063497D01*
X0285794Y0062233D01*
X0274306Y0062233D01*
X0274306Y0060633D01*
X0274306Y0049145D01*
X0275570Y0049288D01*
X0276917Y0049595D01*
X0278221Y0050051D01*
X0279465Y0050651D01*
X0280635Y0051386D01*
X0281715Y0052247D01*
X0282692Y0053224D01*
X0283553Y0054304D01*
X0284288Y0055474D01*
X0284888Y0056719D01*
X0285344Y0058023D01*
X0285652Y0059369D01*
X0285794Y0060633D01*
X0274306Y0060633D01*
X0272706Y0060633D01*
X0272706Y0049145D01*
X0271443Y0049288D01*
X0272706Y0049426D02*
X0274306Y0049426D01*
X0274306Y0051024D02*
X0272706Y0051024D01*
X0272706Y0052623D02*
X0274306Y0052623D01*
X0274306Y0054221D02*
X0272706Y0054221D01*
X0272706Y0055820D02*
X0274306Y0055820D01*
X0274306Y0057418D02*
X0272706Y0057418D01*
X0272706Y0059017D02*
X0274306Y0059017D01*
X0274306Y0060615D02*
X0272706Y0060615D01*
X0272706Y0062214D02*
X0174756Y0062214D01*
X0174756Y0060615D02*
X0261221Y0060615D01*
X0261441Y0059017D02*
X0070571Y0059017D01*
X0070792Y0060615D02*
X0131006Y0060615D01*
X0130714Y0071805D02*
X0129114Y0071805D01*
X0129114Y0073403D02*
X0130714Y0073403D01*
X0130714Y0075002D02*
X0129114Y0075002D01*
X0131006Y0076600D02*
X0106350Y0076600D01*
X0106350Y0078199D02*
X0131006Y0078199D01*
X0131006Y0079797D02*
X0101781Y0079797D01*
X0100231Y0079797D02*
X0093506Y0079797D01*
X0093506Y0078199D02*
X0095663Y0078199D01*
X0095663Y0076600D02*
X0093506Y0076600D01*
X0093506Y0075002D02*
X0096495Y0075002D01*
X0093506Y0073403D02*
X0122996Y0073403D01*
X0122996Y0071805D02*
X0093506Y0071805D01*
X0100231Y0075002D02*
X0101781Y0075002D01*
X0101781Y0076600D02*
X0100231Y0076600D01*
X0100231Y0078199D02*
X0101781Y0078199D01*
X0106350Y0081396D02*
X0123125Y0081396D01*
X0122996Y0082994D02*
X0116006Y0082994D01*
X0116006Y0084593D02*
X0122996Y0084593D01*
X0122996Y0087790D02*
X0116006Y0087790D01*
X0116006Y0089388D02*
X0122996Y0089388D01*
X0122996Y0090987D02*
X0116006Y0090987D01*
X0116006Y0092585D02*
X0131006Y0092585D01*
X0130714Y0090987D02*
X0129114Y0090987D01*
X0129114Y0089388D02*
X0130714Y0089388D01*
X0130714Y0087790D02*
X0129114Y0087790D01*
X0129114Y0086191D02*
X0116006Y0086191D01*
X0116006Y0094184D02*
X0122255Y0094184D01*
X0121795Y0095782D02*
X0116006Y0095782D01*
X0116006Y0097381D02*
X0121795Y0097381D01*
X0125970Y0097381D02*
X0127519Y0097381D01*
X0127519Y0095782D02*
X0125970Y0095782D01*
X0125970Y0094184D02*
X0127519Y0094184D01*
X0125970Y0098979D02*
X0116006Y0098979D01*
X0116006Y0100578D02*
X0121795Y0100578D01*
X0121795Y0102177D02*
X0116006Y0102177D01*
X0116006Y0103775D02*
X0122348Y0103775D01*
X0125970Y0103775D02*
X0127519Y0103775D01*
X0127519Y0102177D02*
X0125970Y0102177D01*
X0125970Y0100578D02*
X0127519Y0100578D01*
X0131006Y0105374D02*
X0116006Y0105374D01*
X0116006Y0106972D02*
X0131006Y0106972D01*
X0131006Y0108571D02*
X0116006Y0108571D01*
X0116006Y0110169D02*
X0131006Y0110169D01*
X0131006Y0111768D02*
X0116006Y0111768D01*
X0116006Y0113366D02*
X0131006Y0113366D01*
X0127519Y0114965D02*
X0125970Y0114965D01*
X0125970Y0116563D02*
X0127519Y0116563D01*
X0125970Y0118162D02*
X0116006Y0118162D01*
X0116006Y0119760D02*
X0121795Y0119760D01*
X0121795Y0121359D02*
X0116006Y0121359D01*
X0116006Y0122957D02*
X0121860Y0122957D01*
X0125970Y0122957D02*
X0127519Y0122957D01*
X0127519Y0121359D02*
X0125970Y0121359D01*
X0125970Y0119760D02*
X0127519Y0119760D01*
X0131006Y0124556D02*
X0116006Y0124556D01*
X0116006Y0126154D02*
X0131006Y0126154D01*
X0131006Y0127753D02*
X0116006Y0127753D01*
X0116006Y0129351D02*
X0131006Y0129351D01*
X0131006Y0130950D02*
X0116006Y0130950D01*
X0101006Y0130695D02*
X0101006Y0138933D01*
X0111006Y0148933D02*
X0111006Y0168933D01*
X0136006Y0168933D01*
X0136006Y0148933D01*
X0111006Y0148933D01*
X0111006Y0150132D02*
X0136006Y0150132D01*
X0136006Y0151730D02*
X0111006Y0151730D01*
X0111006Y0153329D02*
X0136006Y0153329D01*
X0136006Y0154927D02*
X0111006Y0154927D01*
X0111006Y0156526D02*
X0136006Y0156526D01*
X0136006Y0158124D02*
X0111006Y0158124D01*
X0111006Y0159723D02*
X0136006Y0159723D01*
X0136006Y0161321D02*
X0111006Y0161321D01*
X0111006Y0162920D02*
X0136006Y0162920D01*
X0136006Y0164518D02*
X0111006Y0164518D01*
X0111006Y0166117D02*
X0136006Y0166117D01*
X0136006Y0167715D02*
X0111006Y0167715D01*
X0071006Y0167715D02*
X0065735Y0167715D01*
X0065635Y0167636D02*
X0066715Y0168497D01*
X0067692Y0169474D01*
X0068553Y0170554D01*
X0069288Y0171724D01*
X0069888Y0172969D01*
X0070344Y0174273D01*
X0070652Y0175619D01*
X0070794Y0176883D01*
X0059306Y0176883D01*
X0059306Y0165395D01*
X0060570Y0165538D01*
X0061917Y0165845D01*
X0063221Y0166301D01*
X0064465Y0166901D01*
X0065635Y0167636D01*
X0067532Y0169314D02*
X0264481Y0169314D01*
X0264320Y0169474D02*
X0265297Y0168497D01*
X0266377Y0167636D01*
X0267547Y0166901D01*
X0268792Y0166301D01*
X0270096Y0165845D01*
X0271443Y0165538D01*
X0272706Y0165395D01*
X0272706Y0176883D01*
X0261219Y0176883D01*
X0261361Y0175619D01*
X0261668Y0174273D01*
X0262125Y0172969D01*
X0262724Y0171724D01*
X0263459Y0170554D01*
X0264320Y0169474D01*
X0263234Y0170912D02*
X0068779Y0170912D01*
X0069668Y0172511D02*
X0262345Y0172511D01*
X0261725Y0174110D02*
X0070287Y0174110D01*
X0070662Y0175708D02*
X0261351Y0175708D01*
X0261219Y0178483D02*
X0272706Y0178483D01*
X0272706Y0176883D01*
X0274306Y0176883D01*
X0274306Y0165395D01*
X0275570Y0165538D01*
X0276917Y0165845D01*
X0278221Y0166301D01*
X0279465Y0166901D01*
X0280635Y0167636D01*
X0281715Y0168497D01*
X0282692Y0169474D01*
X0283553Y0170554D01*
X0284288Y0171724D01*
X0284888Y0172969D01*
X0285344Y0174273D01*
X0285652Y0175619D01*
X0285794Y0176883D01*
X0274306Y0176883D01*
X0274306Y0178483D01*
X0272706Y0178483D01*
X0272706Y0189971D01*
X0271443Y0189828D01*
X0270096Y0189521D01*
X0268792Y0189065D01*
X0267547Y0188465D01*
X0266377Y0187730D01*
X0265297Y0186869D01*
X0264320Y0185892D01*
X0263459Y0184812D01*
X0262724Y0183642D01*
X0262125Y0182397D01*
X0261668Y0181094D01*
X0261361Y0179747D01*
X0261219Y0178483D01*
X0261266Y0178905D02*
X0070746Y0178905D01*
X0070794Y0178483D02*
X0070652Y0179747D01*
X0070344Y0181094D01*
X0069888Y0182397D01*
X0069288Y0183642D01*
X0068553Y0184812D01*
X0067692Y0185892D01*
X0066715Y0186869D01*
X0065635Y0187730D01*
X0064465Y0188465D01*
X0063221Y0189065D01*
X0061917Y0189521D01*
X0060570Y0189828D01*
X0059306Y0189971D01*
X0059306Y0178483D01*
X0057706Y0178483D01*
X0057706Y0176883D01*
X0046219Y0176883D01*
X0046361Y0175619D01*
X0046668Y0174273D01*
X0047125Y0172969D01*
X0047724Y0171724D01*
X0048459Y0170554D01*
X0049320Y0169474D01*
X0050297Y0168497D01*
X0051377Y0167636D01*
X0052547Y0166901D01*
X0053792Y0166301D01*
X0055096Y0165845D01*
X0056443Y0165538D01*
X0057706Y0165395D01*
X0057706Y0176883D01*
X0059306Y0176883D01*
X0059306Y0178483D01*
X0070794Y0178483D01*
X0070479Y0180504D02*
X0261534Y0180504D01*
X0262021Y0182102D02*
X0069991Y0182102D01*
X0069252Y0183701D02*
X0262761Y0183701D01*
X0263848Y0185299D02*
X0068165Y0185299D01*
X0066679Y0186898D02*
X0265333Y0186898D01*
X0267611Y0188496D02*
X0064401Y0188496D01*
X0059306Y0188496D02*
X0057706Y0188496D01*
X0057706Y0189971D02*
X0056443Y0189828D01*
X0055096Y0189521D01*
X0053792Y0189065D01*
X0052547Y0188465D01*
X0051377Y0187730D01*
X0050297Y0186869D01*
X0049320Y0185892D01*
X0048459Y0184812D01*
X0047724Y0183642D01*
X0047125Y0182397D01*
X0046668Y0181094D01*
X0046361Y0179747D01*
X0046219Y0178483D01*
X0057706Y0178483D01*
X0057706Y0189971D01*
X0057706Y0186898D02*
X0059306Y0186898D01*
X0059306Y0185299D02*
X0057706Y0185299D01*
X0057706Y0183701D02*
X0059306Y0183701D01*
X0059306Y0182102D02*
X0057706Y0182102D01*
X0057706Y0180504D02*
X0059306Y0180504D01*
X0059306Y0178905D02*
X0057706Y0178905D01*
X0057706Y0177307D02*
X0043506Y0177307D01*
X0043506Y0178905D02*
X0046266Y0178905D01*
X0046534Y0180504D02*
X0043506Y0180504D01*
X0043506Y0182102D02*
X0047021Y0182102D01*
X0047761Y0183701D02*
X0043506Y0183701D01*
X0043506Y0185299D02*
X0048848Y0185299D01*
X0050333Y0186898D02*
X0043506Y0186898D01*
X0043506Y0188496D02*
X0052611Y0188496D01*
X0043506Y0190095D02*
X0288506Y0190095D01*
X0288506Y0191693D02*
X0043506Y0191693D01*
X0043506Y0192683D02*
X0288506Y0192683D01*
X0288506Y0162633D01*
X0284206Y0162633D01*
X0284206Y0157133D01*
X0282606Y0157133D01*
X0282606Y0155533D01*
X0271606Y0155533D01*
X0271606Y0151596D01*
X0271650Y0151433D01*
X0261006Y0151433D01*
X0261006Y0168933D01*
X0071006Y0168933D01*
X0071006Y0151433D01*
X0060363Y0151433D01*
X0060406Y0151596D01*
X0060406Y0155533D01*
X0049406Y0155533D01*
X0049406Y0157133D01*
X0047806Y0157133D01*
X0047806Y0162633D01*
X0043506Y0162633D01*
X0043506Y0192683D01*
X0059306Y0177307D02*
X0272706Y0177307D01*
X0272706Y0178905D02*
X0274306Y0178905D01*
X0274306Y0178483D02*
X0274306Y0189971D01*
X0275570Y0189828D01*
X0276917Y0189521D01*
X0278221Y0189065D01*
X0279465Y0188465D01*
X0280635Y0187730D01*
X0281715Y0186869D01*
X0282692Y0185892D01*
X0283553Y0184812D01*
X0284288Y0183642D01*
X0284888Y0182397D01*
X0285344Y0181094D01*
X0285652Y0179747D01*
X0285794Y0178483D01*
X0274306Y0178483D01*
X0274306Y0177307D02*
X0288506Y0177307D01*
X0288506Y0178905D02*
X0285746Y0178905D01*
X0285479Y0180504D02*
X0288506Y0180504D01*
X0288506Y0182102D02*
X0284991Y0182102D01*
X0284252Y0183701D02*
X0288506Y0183701D01*
X0288506Y0185299D02*
X0283165Y0185299D01*
X0281679Y0186898D02*
X0288506Y0186898D01*
X0288506Y0188496D02*
X0279401Y0188496D01*
X0274306Y0188496D02*
X0272706Y0188496D01*
X0272706Y0186898D02*
X0274306Y0186898D01*
X0274306Y0185299D02*
X0272706Y0185299D01*
X0272706Y0183701D02*
X0274306Y0183701D01*
X0274306Y0182102D02*
X0272706Y0182102D01*
X0272706Y0180504D02*
X0274306Y0180504D01*
X0274306Y0175708D02*
X0272706Y0175708D01*
X0272706Y0174110D02*
X0274306Y0174110D01*
X0274306Y0172511D02*
X0272706Y0172511D01*
X0272706Y0170912D02*
X0274306Y0170912D01*
X0274306Y0169314D02*
X0272706Y0169314D01*
X0272706Y0167715D02*
X0274306Y0167715D01*
X0274306Y0166117D02*
X0272706Y0166117D01*
X0269319Y0166117D02*
X0261006Y0166117D01*
X0261006Y0167715D02*
X0266278Y0167715D01*
X0261006Y0164518D02*
X0288506Y0164518D01*
X0288506Y0162920D02*
X0261006Y0162920D01*
X0261006Y0161321D02*
X0271674Y0161321D01*
X0271729Y0161528D02*
X0271606Y0161070D01*
X0271606Y0157133D01*
X0282606Y0157133D01*
X0282606Y0162633D01*
X0273169Y0162633D01*
X0272712Y0162510D01*
X0272301Y0162273D01*
X0271966Y0161938D01*
X0271729Y0161528D01*
X0271606Y0159723D02*
X0261006Y0159723D01*
X0261006Y0158124D02*
X0271606Y0158124D01*
X0271606Y0154927D02*
X0261006Y0154927D01*
X0261006Y0153329D02*
X0271606Y0153329D01*
X0271606Y0151730D02*
X0261006Y0151730D01*
X0261006Y0156526D02*
X0282606Y0156526D01*
X0282606Y0158124D02*
X0284206Y0158124D01*
X0284206Y0159723D02*
X0282606Y0159723D01*
X0282606Y0161321D02*
X0284206Y0161321D01*
X0288506Y0166117D02*
X0277693Y0166117D01*
X0280735Y0167715D02*
X0288506Y0167715D01*
X0288506Y0169314D02*
X0282532Y0169314D01*
X0283779Y0170912D02*
X0288506Y0170912D01*
X0288506Y0172511D02*
X0284668Y0172511D01*
X0285287Y0174110D02*
X0288506Y0174110D01*
X0288506Y0175708D02*
X0285662Y0175708D01*
X0271606Y0126154D02*
X0259756Y0126154D01*
X0259756Y0124556D02*
X0271606Y0124556D01*
X0271606Y0122957D02*
X0259756Y0122957D01*
X0259756Y0121359D02*
X0282606Y0121359D01*
X0282606Y0119760D02*
X0284206Y0119760D01*
X0284206Y0118162D02*
X0282606Y0118162D01*
X0282606Y0116563D02*
X0284206Y0116563D01*
X0288506Y0114965D02*
X0259756Y0114965D01*
X0259756Y0116563D02*
X0271669Y0116563D01*
X0271606Y0118162D02*
X0259756Y0118162D01*
X0259756Y0119760D02*
X0271606Y0119760D01*
X0264199Y0111768D02*
X0259756Y0111768D01*
X0259756Y0113366D02*
X0288506Y0113366D01*
X0288506Y0111768D02*
X0280313Y0111768D01*
X0282796Y0110169D02*
X0288506Y0110169D01*
X0288506Y0108571D02*
X0284231Y0108571D01*
X0284893Y0106972D02*
X0288506Y0106972D01*
X0288506Y0105374D02*
X0285356Y0105374D01*
X0285356Y0103775D02*
X0288506Y0103775D01*
X0288506Y0102177D02*
X0285176Y0102177D01*
X0284514Y0100578D02*
X0288506Y0100578D01*
X0288506Y0098979D02*
X0283479Y0098979D01*
X0281880Y0097381D02*
X0288506Y0097381D01*
X0288506Y0095782D02*
X0259756Y0095782D01*
X0259756Y0094184D02*
X0263452Y0094184D01*
X0263548Y0094258D02*
X0262846Y0093719D01*
X0262220Y0093093D01*
X0261682Y0092391D01*
X0261239Y0091625D01*
X0260901Y0090807D01*
X0260672Y0089953D01*
X0260603Y0089433D01*
X0271456Y0089433D01*
X0271456Y0087833D01*
X0260603Y0087833D01*
X0260672Y0087313D01*
X0260901Y0086459D01*
X0261239Y0085641D01*
X0261682Y0084875D01*
X0262220Y0084173D01*
X0262846Y0083547D01*
X0263548Y0083009D01*
X0264314Y0082566D01*
X0265132Y0082228D01*
X0265987Y0081999D01*
X0266864Y0081883D01*
X0271456Y0081883D01*
X0271456Y0087833D01*
X0273056Y0087833D01*
X0273056Y0081883D01*
X0277649Y0081883D01*
X0278526Y0081999D01*
X0279381Y0082228D01*
X0280198Y0082566D01*
X0280964Y0083009D01*
X0281666Y0083547D01*
X0282292Y0084173D01*
X0282831Y0084875D01*
X0283273Y0085641D01*
X0283612Y0086459D01*
X0283841Y0087313D01*
X0283909Y0087833D01*
X0273056Y0087833D01*
X0273056Y0089433D01*
X0271456Y0089433D01*
X0271456Y0095383D01*
X0266864Y0095383D01*
X0265987Y0095268D01*
X0265132Y0095039D01*
X0264314Y0094700D01*
X0263548Y0094258D01*
X0261831Y0092585D02*
X0259756Y0092585D01*
X0259756Y0090987D02*
X0260975Y0090987D01*
X0259756Y0089388D02*
X0271456Y0089388D01*
X0271456Y0087790D02*
X0273056Y0087790D01*
X0273056Y0089388D02*
X0288506Y0089388D01*
X0288506Y0087790D02*
X0283904Y0087790D01*
X0283909Y0089433D02*
X0283841Y0089953D01*
X0283612Y0090807D01*
X0283273Y0091625D01*
X0282831Y0092391D01*
X0282292Y0093093D01*
X0281666Y0093719D01*
X0280964Y0094258D01*
X0280198Y0094700D01*
X0279381Y0095039D01*
X0278526Y0095268D01*
X0277649Y0095383D01*
X0273056Y0095383D01*
X0273056Y0089433D01*
X0283909Y0089433D01*
X0283537Y0090987D02*
X0288506Y0090987D01*
X0288506Y0092585D02*
X0282682Y0092585D01*
X0281060Y0094184D02*
X0288506Y0094184D01*
X0288506Y0086191D02*
X0283501Y0086191D01*
X0282614Y0084593D02*
X0288506Y0084593D01*
X0288506Y0082994D02*
X0280940Y0082994D01*
X0273056Y0082994D02*
X0271456Y0082994D01*
X0271456Y0084593D02*
X0273056Y0084593D01*
X0273056Y0086191D02*
X0271456Y0086191D01*
X0271456Y0090987D02*
X0273056Y0090987D01*
X0273056Y0092585D02*
X0271456Y0092585D01*
X0271456Y0094184D02*
X0273056Y0094184D01*
X0262633Y0097381D02*
X0259756Y0097381D01*
X0259756Y0098979D02*
X0261034Y0098979D01*
X0260609Y0087790D02*
X0259756Y0087790D01*
X0259756Y0086191D02*
X0261012Y0086191D01*
X0261898Y0084593D02*
X0259756Y0084593D01*
X0259756Y0082994D02*
X0263573Y0082994D01*
X0259756Y0081396D02*
X0288506Y0081396D01*
X0288506Y0079797D02*
X0259756Y0079797D01*
X0259756Y0078199D02*
X0288506Y0078199D01*
X0288506Y0076600D02*
X0259756Y0076600D01*
X0259756Y0075002D02*
X0288506Y0075002D01*
X0288506Y0073403D02*
X0276337Y0073403D01*
X0274306Y0073403D02*
X0272706Y0073403D01*
X0272706Y0071805D02*
X0274306Y0071805D01*
X0274306Y0070206D02*
X0272706Y0070206D01*
X0272706Y0068608D02*
X0274306Y0068608D01*
X0274306Y0067009D02*
X0272706Y0067009D01*
X0272706Y0065411D02*
X0274306Y0065411D01*
X0274306Y0063812D02*
X0272706Y0063812D01*
X0274306Y0062214D02*
X0288506Y0062214D01*
X0288506Y0063812D02*
X0285580Y0063812D01*
X0285146Y0065411D02*
X0288506Y0065411D01*
X0288506Y0067009D02*
X0284473Y0067009D01*
X0283517Y0068608D02*
X0288506Y0068608D01*
X0288506Y0070206D02*
X0282128Y0070206D01*
X0280119Y0071805D02*
X0288506Y0071805D01*
X0288506Y0060615D02*
X0285792Y0060615D01*
X0285571Y0059017D02*
X0288506Y0059017D01*
X0288506Y0057418D02*
X0285133Y0057418D01*
X0284455Y0055820D02*
X0288506Y0055820D01*
X0288506Y0054221D02*
X0283487Y0054221D01*
X0282091Y0052623D02*
X0288506Y0052623D01*
X0288506Y0051024D02*
X0280059Y0051024D01*
X0276174Y0049426D02*
X0288506Y0049426D01*
X0288506Y0047827D02*
X0043506Y0047827D01*
X0043506Y0049426D02*
X0055839Y0049426D01*
X0051953Y0051024D02*
X0043506Y0051024D01*
X0043506Y0052623D02*
X0049922Y0052623D01*
X0048525Y0054221D02*
X0043506Y0054221D01*
X0043506Y0055820D02*
X0047558Y0055820D01*
X0046880Y0057418D02*
X0043506Y0057418D01*
X0043506Y0059017D02*
X0046441Y0059017D01*
X0046221Y0060615D02*
X0043506Y0060615D01*
X0065059Y0051024D02*
X0266953Y0051024D01*
X0264922Y0052623D02*
X0067091Y0052623D01*
X0068487Y0054221D02*
X0263525Y0054221D01*
X0262558Y0055820D02*
X0069455Y0055820D01*
X0070133Y0057418D02*
X0261880Y0057418D01*
X0261433Y0063812D02*
X0182279Y0063812D01*
X0182718Y0065411D02*
X0188528Y0065411D01*
X0188163Y0067009D02*
X0182718Y0067009D01*
X0178543Y0067009D02*
X0176993Y0067009D01*
X0176993Y0065411D02*
X0178543Y0065411D01*
X0178543Y0063812D02*
X0176993Y0063812D01*
X0178543Y0068608D02*
X0188163Y0068608D01*
X0192731Y0068608D02*
X0194281Y0068608D01*
X0194281Y0070206D02*
X0199756Y0070206D01*
X0199756Y0068608D02*
X0198850Y0068608D01*
X0198850Y0067009D02*
X0199756Y0067009D01*
X0199756Y0065411D02*
X0198484Y0065411D01*
X0194281Y0065411D02*
X0192731Y0065411D01*
X0192731Y0067009D02*
X0194281Y0067009D01*
X0192731Y0070206D02*
X0182718Y0070206D01*
X0182718Y0071805D02*
X0188163Y0071805D01*
X0198850Y0071805D02*
X0199756Y0071805D01*
X0222256Y0071805D02*
X0223163Y0071805D01*
X0222256Y0070206D02*
X0227731Y0070206D01*
X0229281Y0070206D02*
X0234756Y0070206D01*
X0234756Y0068608D02*
X0233850Y0068608D01*
X0233850Y0067009D02*
X0234756Y0067009D01*
X0234756Y0065411D02*
X0233484Y0065411D01*
X0229281Y0065411D02*
X0227731Y0065411D01*
X0227731Y0067009D02*
X0229281Y0067009D01*
X0229281Y0068608D02*
X0227731Y0068608D01*
X0223163Y0068608D02*
X0222256Y0068608D01*
X0222256Y0067009D02*
X0223163Y0067009D01*
X0223528Y0065411D02*
X0222256Y0065411D01*
X0233850Y0071805D02*
X0234756Y0071805D01*
X0259756Y0071805D02*
X0266894Y0071805D01*
X0264885Y0070206D02*
X0259756Y0070206D01*
X0259756Y0068608D02*
X0263496Y0068608D01*
X0262540Y0067009D02*
X0259756Y0067009D01*
X0259756Y0065411D02*
X0261867Y0065411D01*
X0259756Y0073403D02*
X0270676Y0073403D01*
X0221006Y0087683D02*
X0196006Y0087683D01*
X0196006Y0122683D01*
X0221006Y0122683D01*
X0221006Y0115526D01*
X0218769Y0115526D01*
X0218769Y0110958D01*
X0217220Y0110958D01*
X0217220Y0115526D01*
X0214608Y0115526D01*
X0214150Y0115404D01*
X0213740Y0115167D01*
X0213405Y0114832D01*
X0213168Y0114421D01*
X0213045Y0113963D01*
X0213045Y0110958D01*
X0217220Y0110958D01*
X0217220Y0109408D01*
X0218769Y0109408D01*
X0218769Y0104840D01*
X0218769Y0100958D01*
X0217220Y0100958D01*
X0217220Y0109408D01*
X0213045Y0109408D01*
X0213045Y0106403D01*
X0213168Y0105945D01*
X0213405Y0105535D01*
X0213740Y0105199D01*
X0213768Y0105183D01*
X0213740Y0105167D01*
X0213405Y0104832D01*
X0213168Y0104421D01*
X0213045Y0103963D01*
X0213045Y0100958D01*
X0217220Y0100958D01*
X0217220Y0099408D01*
X0218769Y0099408D01*
X0218769Y0094840D01*
X0221006Y0094840D01*
X0221006Y0087683D01*
X0221006Y0087790D02*
X0196006Y0087790D01*
X0196006Y0089388D02*
X0221006Y0089388D01*
X0221006Y0090987D02*
X0196006Y0090987D01*
X0196006Y0092585D02*
X0221006Y0092585D01*
X0221006Y0094184D02*
X0196006Y0094184D01*
X0196006Y0095782D02*
X0213261Y0095782D01*
X0213168Y0095945D02*
X0213405Y0095535D01*
X0213740Y0095199D01*
X0214150Y0094962D01*
X0214608Y0094840D01*
X0217220Y0094840D01*
X0217220Y0099408D01*
X0213045Y0099408D01*
X0213045Y0096403D01*
X0213168Y0095945D01*
X0213045Y0097381D02*
X0196006Y0097381D01*
X0196006Y0098979D02*
X0213045Y0098979D01*
X0217220Y0098979D02*
X0218769Y0098979D01*
X0218769Y0097381D02*
X0217220Y0097381D01*
X0217220Y0095782D02*
X0218769Y0095782D01*
X0217220Y0100578D02*
X0196006Y0100578D01*
X0196006Y0102177D02*
X0213045Y0102177D01*
X0213045Y0103775D02*
X0196006Y0103775D01*
X0196006Y0105374D02*
X0213566Y0105374D01*
X0213045Y0106972D02*
X0196006Y0106972D01*
X0196006Y0108571D02*
X0213045Y0108571D01*
X0217220Y0108571D02*
X0218769Y0108571D01*
X0218769Y0106972D02*
X0217220Y0106972D01*
X0217220Y0105374D02*
X0218769Y0105374D01*
X0218769Y0103775D02*
X0217220Y0103775D01*
X0217220Y0102177D02*
X0218769Y0102177D01*
X0217220Y0110169D02*
X0196006Y0110169D01*
X0196006Y0111768D02*
X0213045Y0111768D01*
X0213045Y0113366D02*
X0196006Y0113366D01*
X0196006Y0114965D02*
X0213538Y0114965D01*
X0217220Y0114965D02*
X0218769Y0114965D01*
X0218769Y0113366D02*
X0217220Y0113366D01*
X0217220Y0111768D02*
X0218769Y0111768D01*
X0221006Y0116563D02*
X0196006Y0116563D01*
X0196006Y0118162D02*
X0221006Y0118162D01*
X0221006Y0119760D02*
X0196006Y0119760D01*
X0196006Y0121359D02*
X0221006Y0121359D01*
X0259756Y0110169D02*
X0261716Y0110169D01*
X0130714Y0084593D02*
X0129114Y0084593D01*
X0129114Y0082994D02*
X0130714Y0082994D01*
X0130714Y0081396D02*
X0129114Y0081396D01*
X0123063Y0075002D02*
X0105517Y0075002D01*
X0095663Y0081396D02*
X0093506Y0081396D01*
X0116006Y0114965D02*
X0121845Y0114965D01*
X0121795Y0116563D02*
X0116006Y0116563D01*
X0071006Y0124556D02*
X0060406Y0124556D01*
X0060406Y0126154D02*
X0071006Y0126154D01*
X0071006Y0151730D02*
X0060406Y0151730D01*
X0060406Y0153329D02*
X0071006Y0153329D01*
X0071006Y0154927D02*
X0060406Y0154927D01*
X0060406Y0157133D02*
X0060406Y0161070D01*
X0060284Y0161528D01*
X0060047Y0161938D01*
X0059712Y0162273D01*
X0059301Y0162510D01*
X0058843Y0162633D01*
X0049406Y0162633D01*
X0049406Y0157133D01*
X0060406Y0157133D01*
X0060406Y0158124D02*
X0071006Y0158124D01*
X0071006Y0156526D02*
X0049406Y0156526D01*
X0049406Y0158124D02*
X0047806Y0158124D01*
X0047806Y0159723D02*
X0049406Y0159723D01*
X0049406Y0161321D02*
X0047806Y0161321D01*
X0043506Y0162920D02*
X0071006Y0162920D01*
X0071006Y0164518D02*
X0043506Y0164518D01*
X0043506Y0166117D02*
X0054319Y0166117D01*
X0057706Y0166117D02*
X0059306Y0166117D01*
X0059306Y0167715D02*
X0057706Y0167715D01*
X0057706Y0169314D02*
X0059306Y0169314D01*
X0059306Y0170912D02*
X0057706Y0170912D01*
X0057706Y0172511D02*
X0059306Y0172511D01*
X0059306Y0174110D02*
X0057706Y0174110D01*
X0057706Y0175708D02*
X0059306Y0175708D01*
X0049481Y0169314D02*
X0043506Y0169314D01*
X0043506Y0170912D02*
X0048234Y0170912D01*
X0047345Y0172511D02*
X0043506Y0172511D01*
X0043506Y0174110D02*
X0046725Y0174110D01*
X0046351Y0175708D02*
X0043506Y0175708D01*
X0043506Y0167715D02*
X0051278Y0167715D01*
X0060339Y0161321D02*
X0071006Y0161321D01*
X0071006Y0159723D02*
X0060406Y0159723D01*
X0062693Y0166117D02*
X0071006Y0166117D01*
D28*
X0075494Y0138933D02*
X0048606Y0138933D01*
X0101006Y0119671D02*
X0101006Y0110695D01*
X0101006Y0099671D02*
X0101006Y0090695D01*
X0194018Y0138933D02*
X0228506Y0138933D01*
X0283406Y0138933D01*
D29*
X0228506Y0138933D02*
X0228506Y0130695D01*
D30*
X0216006Y0117683D03*
X0208506Y0117683D03*
X0201006Y0117683D03*
X0201006Y0110183D03*
X0208506Y0110183D03*
X0208506Y0100183D03*
X0201006Y0100183D03*
X0201006Y0092683D03*
X0208506Y0092683D03*
X0216006Y0092683D03*
X0186006Y0068933D03*
X0186006Y0060183D03*
X0178506Y0060183D03*
X0167256Y0057683D03*
X0167256Y0048933D03*
X0149756Y0048933D03*
X0149756Y0057683D03*
X0133506Y0057683D03*
X0133506Y0048933D03*
X0118506Y0048933D03*
X0118506Y0057683D03*
X0106006Y0057683D03*
X0102256Y0065183D03*
X0096006Y0072683D03*
X0089756Y0065183D03*
X0074756Y0065183D03*
X0068506Y0075183D03*
X0068506Y0087683D03*
X0068506Y0100183D03*
X0068506Y0111433D03*
X0068506Y0117683D03*
X0062256Y0117683D03*
X0062256Y0123933D03*
X0068506Y0123933D03*
X0056006Y0112683D03*
X0046006Y0112683D03*
X0046006Y0100183D03*
X0046006Y0087683D03*
X0046006Y0072683D03*
X0082256Y0055183D03*
X0089756Y0048933D03*
X0106006Y0048933D03*
X0071006Y0048933D03*
X0046006Y0048933D03*
X0108506Y0072683D03*
X0118506Y0070183D03*
X0118506Y0080183D03*
X0118506Y0086433D03*
X0108506Y0080183D03*
X0118506Y0098933D03*
X0118506Y0107683D03*
X0128506Y0107683D03*
X0118506Y0117683D03*
X0118506Y0127683D03*
X0128506Y0127683D03*
X0131006Y0153933D03*
X0131006Y0163933D03*
X0123506Y0163933D03*
X0116006Y0163933D03*
X0108506Y0171433D03*
X0096006Y0171433D03*
X0083506Y0171433D03*
X0074756Y0171433D03*
X0068506Y0160183D03*
X0062256Y0160183D03*
X0062256Y0153933D03*
X0068506Y0153933D03*
X0046006Y0165183D03*
X0046006Y0190183D03*
X0074756Y0190183D03*
X0083506Y0190183D03*
X0096006Y0190183D03*
X0108506Y0190183D03*
X0123506Y0190183D03*
X0138506Y0190183D03*
X0151006Y0190183D03*
X0166006Y0190183D03*
X0181006Y0190183D03*
X0193506Y0190183D03*
X0208506Y0190183D03*
X0223506Y0190183D03*
X0236006Y0190183D03*
X0248506Y0190183D03*
X0257256Y0190183D03*
X0257256Y0171433D03*
X0248506Y0171433D03*
X0236006Y0171433D03*
X0223506Y0171433D03*
X0208506Y0171433D03*
X0193506Y0171433D03*
X0181006Y0171433D03*
X0166006Y0171433D03*
X0151006Y0171433D03*
X0138506Y0171433D03*
X0116006Y0153933D03*
X0263506Y0153933D03*
X0269756Y0153933D03*
X0269756Y0160183D03*
X0263506Y0160183D03*
X0286006Y0165183D03*
X0286006Y0190183D03*
X0269756Y0123933D03*
X0262256Y0123933D03*
X0262256Y0117683D03*
X0269756Y0117683D03*
X0286006Y0112683D03*
X0286006Y0096433D03*
X0286006Y0078933D03*
X0273506Y0078933D03*
X0262256Y0078933D03*
X0256006Y0060183D03*
X0248506Y0060183D03*
X0234756Y0060183D03*
X0228506Y0060183D03*
X0221006Y0060183D03*
X0209756Y0060183D03*
X0198506Y0060183D03*
X0198506Y0048933D03*
X0209756Y0048933D03*
X0221006Y0048933D03*
X0234756Y0048933D03*
X0248506Y0048933D03*
X0261006Y0048933D03*
X0286006Y0048933D03*
X0186006Y0048933D03*
D31*
X0166744Y0068933D02*
X0166744Y0081433D01*
X0166006Y0082171D01*
X0166006Y0085183D01*
X0168356Y0087533D01*
X0168356Y0092783D01*
X0177356Y0092783D02*
X0177356Y0098833D01*
X0174756Y0101433D01*
X0158506Y0101433D01*
X0157256Y0100183D01*
X0149018Y0100183D01*
X0148506Y0099671D01*
X0148506Y0087526D01*
X0149599Y0086433D01*
X0147768Y0098933D02*
X0137768Y0098933D01*
X0147768Y0098933D02*
X0148506Y0099671D01*
X0148506Y0110695D02*
X0148506Y0119671D01*
X0147768Y0118933D01*
X0137768Y0118933D01*
X0177356Y0092783D02*
X0177768Y0092371D01*
X0177768Y0081433D01*
X0229018Y0100183D02*
X0229018Y0110183D01*
X0228506Y0110695D01*
X0228506Y0119671D01*
X0237994Y0119671D01*
X0238506Y0120183D01*
M02*
