G75*
%MOIN*%
%OFA0B0*%
%FSLAX25Y25*%
%IPPOS*%
%LPD*%
%AMOC8*
5,1,8,0,0,1.08239X$1,22.5*
%
%ADD10C,0.00600*%
%ADD11R,0.08000X0.02000*%
%ADD12R,0.02000X0.02500*%
%ADD13C,0.01600*%
%ADD14C,0.01200*%
%ADD15R,0.04000X0.04000*%
%ADD16C,0.00800*%
%ADD17C,0.00200*%
D10*
X0042006Y0056433D02*
X0042009Y0056715D01*
X0042020Y0056997D01*
X0042037Y0057279D01*
X0042061Y0057560D01*
X0042092Y0057841D01*
X0042130Y0058120D01*
X0042175Y0058399D01*
X0042227Y0058677D01*
X0042285Y0058953D01*
X0042351Y0059227D01*
X0042423Y0059500D01*
X0042501Y0059771D01*
X0042586Y0060040D01*
X0042678Y0060307D01*
X0042777Y0060572D01*
X0042881Y0060834D01*
X0042993Y0061093D01*
X0043110Y0061350D01*
X0043234Y0061604D01*
X0043364Y0061854D01*
X0043500Y0062101D01*
X0043642Y0062345D01*
X0043790Y0062585D01*
X0043944Y0062822D01*
X0044104Y0063055D01*
X0044269Y0063284D01*
X0044440Y0063508D01*
X0044616Y0063729D01*
X0044798Y0063944D01*
X0044985Y0064156D01*
X0045177Y0064363D01*
X0045374Y0064565D01*
X0045576Y0064762D01*
X0045783Y0064954D01*
X0045995Y0065141D01*
X0046210Y0065323D01*
X0046431Y0065499D01*
X0046655Y0065670D01*
X0046884Y0065835D01*
X0047117Y0065995D01*
X0047354Y0066149D01*
X0047594Y0066297D01*
X0047838Y0066439D01*
X0048085Y0066575D01*
X0048335Y0066705D01*
X0048589Y0066829D01*
X0048846Y0066946D01*
X0049105Y0067058D01*
X0049367Y0067162D01*
X0049632Y0067261D01*
X0049899Y0067353D01*
X0050168Y0067438D01*
X0050439Y0067516D01*
X0050712Y0067588D01*
X0050986Y0067654D01*
X0051262Y0067712D01*
X0051540Y0067764D01*
X0051819Y0067809D01*
X0052098Y0067847D01*
X0052379Y0067878D01*
X0052660Y0067902D01*
X0052942Y0067919D01*
X0053224Y0067930D01*
X0053506Y0067933D01*
X0053788Y0067930D01*
X0054070Y0067919D01*
X0054352Y0067902D01*
X0054633Y0067878D01*
X0054914Y0067847D01*
X0055193Y0067809D01*
X0055472Y0067764D01*
X0055750Y0067712D01*
X0056026Y0067654D01*
X0056300Y0067588D01*
X0056573Y0067516D01*
X0056844Y0067438D01*
X0057113Y0067353D01*
X0057380Y0067261D01*
X0057645Y0067162D01*
X0057907Y0067058D01*
X0058166Y0066946D01*
X0058423Y0066829D01*
X0058677Y0066705D01*
X0058927Y0066575D01*
X0059174Y0066439D01*
X0059418Y0066297D01*
X0059658Y0066149D01*
X0059895Y0065995D01*
X0060128Y0065835D01*
X0060357Y0065670D01*
X0060581Y0065499D01*
X0060802Y0065323D01*
X0061017Y0065141D01*
X0061229Y0064954D01*
X0061436Y0064762D01*
X0061638Y0064565D01*
X0061835Y0064363D01*
X0062027Y0064156D01*
X0062214Y0063944D01*
X0062396Y0063729D01*
X0062572Y0063508D01*
X0062743Y0063284D01*
X0062908Y0063055D01*
X0063068Y0062822D01*
X0063222Y0062585D01*
X0063370Y0062345D01*
X0063512Y0062101D01*
X0063648Y0061854D01*
X0063778Y0061604D01*
X0063902Y0061350D01*
X0064019Y0061093D01*
X0064131Y0060834D01*
X0064235Y0060572D01*
X0064334Y0060307D01*
X0064426Y0060040D01*
X0064511Y0059771D01*
X0064589Y0059500D01*
X0064661Y0059227D01*
X0064727Y0058953D01*
X0064785Y0058677D01*
X0064837Y0058399D01*
X0064882Y0058120D01*
X0064920Y0057841D01*
X0064951Y0057560D01*
X0064975Y0057279D01*
X0064992Y0056997D01*
X0065003Y0056715D01*
X0065006Y0056433D01*
X0065003Y0056151D01*
X0064992Y0055869D01*
X0064975Y0055587D01*
X0064951Y0055306D01*
X0064920Y0055025D01*
X0064882Y0054746D01*
X0064837Y0054467D01*
X0064785Y0054189D01*
X0064727Y0053913D01*
X0064661Y0053639D01*
X0064589Y0053366D01*
X0064511Y0053095D01*
X0064426Y0052826D01*
X0064334Y0052559D01*
X0064235Y0052294D01*
X0064131Y0052032D01*
X0064019Y0051773D01*
X0063902Y0051516D01*
X0063778Y0051262D01*
X0063648Y0051012D01*
X0063512Y0050765D01*
X0063370Y0050521D01*
X0063222Y0050281D01*
X0063068Y0050044D01*
X0062908Y0049811D01*
X0062743Y0049582D01*
X0062572Y0049358D01*
X0062396Y0049137D01*
X0062214Y0048922D01*
X0062027Y0048710D01*
X0061835Y0048503D01*
X0061638Y0048301D01*
X0061436Y0048104D01*
X0061229Y0047912D01*
X0061017Y0047725D01*
X0060802Y0047543D01*
X0060581Y0047367D01*
X0060357Y0047196D01*
X0060128Y0047031D01*
X0059895Y0046871D01*
X0059658Y0046717D01*
X0059418Y0046569D01*
X0059174Y0046427D01*
X0058927Y0046291D01*
X0058677Y0046161D01*
X0058423Y0046037D01*
X0058166Y0045920D01*
X0057907Y0045808D01*
X0057645Y0045704D01*
X0057380Y0045605D01*
X0057113Y0045513D01*
X0056844Y0045428D01*
X0056573Y0045350D01*
X0056300Y0045278D01*
X0056026Y0045212D01*
X0055750Y0045154D01*
X0055472Y0045102D01*
X0055193Y0045057D01*
X0054914Y0045019D01*
X0054633Y0044988D01*
X0054352Y0044964D01*
X0054070Y0044947D01*
X0053788Y0044936D01*
X0053506Y0044933D01*
X0053224Y0044936D01*
X0052942Y0044947D01*
X0052660Y0044964D01*
X0052379Y0044988D01*
X0052098Y0045019D01*
X0051819Y0045057D01*
X0051540Y0045102D01*
X0051262Y0045154D01*
X0050986Y0045212D01*
X0050712Y0045278D01*
X0050439Y0045350D01*
X0050168Y0045428D01*
X0049899Y0045513D01*
X0049632Y0045605D01*
X0049367Y0045704D01*
X0049105Y0045808D01*
X0048846Y0045920D01*
X0048589Y0046037D01*
X0048335Y0046161D01*
X0048085Y0046291D01*
X0047838Y0046427D01*
X0047594Y0046569D01*
X0047354Y0046717D01*
X0047117Y0046871D01*
X0046884Y0047031D01*
X0046655Y0047196D01*
X0046431Y0047367D01*
X0046210Y0047543D01*
X0045995Y0047725D01*
X0045783Y0047912D01*
X0045576Y0048104D01*
X0045374Y0048301D01*
X0045177Y0048503D01*
X0044985Y0048710D01*
X0044798Y0048922D01*
X0044616Y0049137D01*
X0044440Y0049358D01*
X0044269Y0049582D01*
X0044104Y0049811D01*
X0043944Y0050044D01*
X0043790Y0050281D01*
X0043642Y0050521D01*
X0043500Y0050765D01*
X0043364Y0051012D01*
X0043234Y0051262D01*
X0043110Y0051516D01*
X0042993Y0051773D01*
X0042881Y0052032D01*
X0042777Y0052294D01*
X0042678Y0052559D01*
X0042586Y0052826D01*
X0042501Y0053095D01*
X0042423Y0053366D01*
X0042351Y0053639D01*
X0042285Y0053913D01*
X0042227Y0054189D01*
X0042175Y0054467D01*
X0042130Y0054746D01*
X0042092Y0055025D01*
X0042061Y0055306D01*
X0042037Y0055587D01*
X0042020Y0055869D01*
X0042009Y0056151D01*
X0042006Y0056433D01*
X0107006Y0056433D02*
X0107009Y0056715D01*
X0107020Y0056997D01*
X0107037Y0057279D01*
X0107061Y0057560D01*
X0107092Y0057841D01*
X0107130Y0058120D01*
X0107175Y0058399D01*
X0107227Y0058677D01*
X0107285Y0058953D01*
X0107351Y0059227D01*
X0107423Y0059500D01*
X0107501Y0059771D01*
X0107586Y0060040D01*
X0107678Y0060307D01*
X0107777Y0060572D01*
X0107881Y0060834D01*
X0107993Y0061093D01*
X0108110Y0061350D01*
X0108234Y0061604D01*
X0108364Y0061854D01*
X0108500Y0062101D01*
X0108642Y0062345D01*
X0108790Y0062585D01*
X0108944Y0062822D01*
X0109104Y0063055D01*
X0109269Y0063284D01*
X0109440Y0063508D01*
X0109616Y0063729D01*
X0109798Y0063944D01*
X0109985Y0064156D01*
X0110177Y0064363D01*
X0110374Y0064565D01*
X0110576Y0064762D01*
X0110783Y0064954D01*
X0110995Y0065141D01*
X0111210Y0065323D01*
X0111431Y0065499D01*
X0111655Y0065670D01*
X0111884Y0065835D01*
X0112117Y0065995D01*
X0112354Y0066149D01*
X0112594Y0066297D01*
X0112838Y0066439D01*
X0113085Y0066575D01*
X0113335Y0066705D01*
X0113589Y0066829D01*
X0113846Y0066946D01*
X0114105Y0067058D01*
X0114367Y0067162D01*
X0114632Y0067261D01*
X0114899Y0067353D01*
X0115168Y0067438D01*
X0115439Y0067516D01*
X0115712Y0067588D01*
X0115986Y0067654D01*
X0116262Y0067712D01*
X0116540Y0067764D01*
X0116819Y0067809D01*
X0117098Y0067847D01*
X0117379Y0067878D01*
X0117660Y0067902D01*
X0117942Y0067919D01*
X0118224Y0067930D01*
X0118506Y0067933D01*
X0118788Y0067930D01*
X0119070Y0067919D01*
X0119352Y0067902D01*
X0119633Y0067878D01*
X0119914Y0067847D01*
X0120193Y0067809D01*
X0120472Y0067764D01*
X0120750Y0067712D01*
X0121026Y0067654D01*
X0121300Y0067588D01*
X0121573Y0067516D01*
X0121844Y0067438D01*
X0122113Y0067353D01*
X0122380Y0067261D01*
X0122645Y0067162D01*
X0122907Y0067058D01*
X0123166Y0066946D01*
X0123423Y0066829D01*
X0123677Y0066705D01*
X0123927Y0066575D01*
X0124174Y0066439D01*
X0124418Y0066297D01*
X0124658Y0066149D01*
X0124895Y0065995D01*
X0125128Y0065835D01*
X0125357Y0065670D01*
X0125581Y0065499D01*
X0125802Y0065323D01*
X0126017Y0065141D01*
X0126229Y0064954D01*
X0126436Y0064762D01*
X0126638Y0064565D01*
X0126835Y0064363D01*
X0127027Y0064156D01*
X0127214Y0063944D01*
X0127396Y0063729D01*
X0127572Y0063508D01*
X0127743Y0063284D01*
X0127908Y0063055D01*
X0128068Y0062822D01*
X0128222Y0062585D01*
X0128370Y0062345D01*
X0128512Y0062101D01*
X0128648Y0061854D01*
X0128778Y0061604D01*
X0128902Y0061350D01*
X0129019Y0061093D01*
X0129131Y0060834D01*
X0129235Y0060572D01*
X0129334Y0060307D01*
X0129426Y0060040D01*
X0129511Y0059771D01*
X0129589Y0059500D01*
X0129661Y0059227D01*
X0129727Y0058953D01*
X0129785Y0058677D01*
X0129837Y0058399D01*
X0129882Y0058120D01*
X0129920Y0057841D01*
X0129951Y0057560D01*
X0129975Y0057279D01*
X0129992Y0056997D01*
X0130003Y0056715D01*
X0130006Y0056433D01*
X0130003Y0056151D01*
X0129992Y0055869D01*
X0129975Y0055587D01*
X0129951Y0055306D01*
X0129920Y0055025D01*
X0129882Y0054746D01*
X0129837Y0054467D01*
X0129785Y0054189D01*
X0129727Y0053913D01*
X0129661Y0053639D01*
X0129589Y0053366D01*
X0129511Y0053095D01*
X0129426Y0052826D01*
X0129334Y0052559D01*
X0129235Y0052294D01*
X0129131Y0052032D01*
X0129019Y0051773D01*
X0128902Y0051516D01*
X0128778Y0051262D01*
X0128648Y0051012D01*
X0128512Y0050765D01*
X0128370Y0050521D01*
X0128222Y0050281D01*
X0128068Y0050044D01*
X0127908Y0049811D01*
X0127743Y0049582D01*
X0127572Y0049358D01*
X0127396Y0049137D01*
X0127214Y0048922D01*
X0127027Y0048710D01*
X0126835Y0048503D01*
X0126638Y0048301D01*
X0126436Y0048104D01*
X0126229Y0047912D01*
X0126017Y0047725D01*
X0125802Y0047543D01*
X0125581Y0047367D01*
X0125357Y0047196D01*
X0125128Y0047031D01*
X0124895Y0046871D01*
X0124658Y0046717D01*
X0124418Y0046569D01*
X0124174Y0046427D01*
X0123927Y0046291D01*
X0123677Y0046161D01*
X0123423Y0046037D01*
X0123166Y0045920D01*
X0122907Y0045808D01*
X0122645Y0045704D01*
X0122380Y0045605D01*
X0122113Y0045513D01*
X0121844Y0045428D01*
X0121573Y0045350D01*
X0121300Y0045278D01*
X0121026Y0045212D01*
X0120750Y0045154D01*
X0120472Y0045102D01*
X0120193Y0045057D01*
X0119914Y0045019D01*
X0119633Y0044988D01*
X0119352Y0044964D01*
X0119070Y0044947D01*
X0118788Y0044936D01*
X0118506Y0044933D01*
X0118224Y0044936D01*
X0117942Y0044947D01*
X0117660Y0044964D01*
X0117379Y0044988D01*
X0117098Y0045019D01*
X0116819Y0045057D01*
X0116540Y0045102D01*
X0116262Y0045154D01*
X0115986Y0045212D01*
X0115712Y0045278D01*
X0115439Y0045350D01*
X0115168Y0045428D01*
X0114899Y0045513D01*
X0114632Y0045605D01*
X0114367Y0045704D01*
X0114105Y0045808D01*
X0113846Y0045920D01*
X0113589Y0046037D01*
X0113335Y0046161D01*
X0113085Y0046291D01*
X0112838Y0046427D01*
X0112594Y0046569D01*
X0112354Y0046717D01*
X0112117Y0046871D01*
X0111884Y0047031D01*
X0111655Y0047196D01*
X0111431Y0047367D01*
X0111210Y0047543D01*
X0110995Y0047725D01*
X0110783Y0047912D01*
X0110576Y0048104D01*
X0110374Y0048301D01*
X0110177Y0048503D01*
X0109985Y0048710D01*
X0109798Y0048922D01*
X0109616Y0049137D01*
X0109440Y0049358D01*
X0109269Y0049582D01*
X0109104Y0049811D01*
X0108944Y0050044D01*
X0108790Y0050281D01*
X0108642Y0050521D01*
X0108500Y0050765D01*
X0108364Y0051012D01*
X0108234Y0051262D01*
X0108110Y0051516D01*
X0107993Y0051773D01*
X0107881Y0052032D01*
X0107777Y0052294D01*
X0107678Y0052559D01*
X0107586Y0052826D01*
X0107501Y0053095D01*
X0107423Y0053366D01*
X0107351Y0053639D01*
X0107285Y0053913D01*
X0107227Y0054189D01*
X0107175Y0054467D01*
X0107130Y0054746D01*
X0107092Y0055025D01*
X0107061Y0055306D01*
X0107037Y0055587D01*
X0107020Y0055869D01*
X0107009Y0056151D01*
X0107006Y0056433D01*
X0158707Y0099626D02*
X0183306Y0099626D01*
X0183306Y0113248D01*
X0158707Y0113248D01*
X0158707Y0099626D01*
X0192006Y0056433D02*
X0192009Y0056715D01*
X0192020Y0056997D01*
X0192037Y0057279D01*
X0192061Y0057560D01*
X0192092Y0057841D01*
X0192130Y0058120D01*
X0192175Y0058399D01*
X0192227Y0058677D01*
X0192285Y0058953D01*
X0192351Y0059227D01*
X0192423Y0059500D01*
X0192501Y0059771D01*
X0192586Y0060040D01*
X0192678Y0060307D01*
X0192777Y0060572D01*
X0192881Y0060834D01*
X0192993Y0061093D01*
X0193110Y0061350D01*
X0193234Y0061604D01*
X0193364Y0061854D01*
X0193500Y0062101D01*
X0193642Y0062345D01*
X0193790Y0062585D01*
X0193944Y0062822D01*
X0194104Y0063055D01*
X0194269Y0063284D01*
X0194440Y0063508D01*
X0194616Y0063729D01*
X0194798Y0063944D01*
X0194985Y0064156D01*
X0195177Y0064363D01*
X0195374Y0064565D01*
X0195576Y0064762D01*
X0195783Y0064954D01*
X0195995Y0065141D01*
X0196210Y0065323D01*
X0196431Y0065499D01*
X0196655Y0065670D01*
X0196884Y0065835D01*
X0197117Y0065995D01*
X0197354Y0066149D01*
X0197594Y0066297D01*
X0197838Y0066439D01*
X0198085Y0066575D01*
X0198335Y0066705D01*
X0198589Y0066829D01*
X0198846Y0066946D01*
X0199105Y0067058D01*
X0199367Y0067162D01*
X0199632Y0067261D01*
X0199899Y0067353D01*
X0200168Y0067438D01*
X0200439Y0067516D01*
X0200712Y0067588D01*
X0200986Y0067654D01*
X0201262Y0067712D01*
X0201540Y0067764D01*
X0201819Y0067809D01*
X0202098Y0067847D01*
X0202379Y0067878D01*
X0202660Y0067902D01*
X0202942Y0067919D01*
X0203224Y0067930D01*
X0203506Y0067933D01*
X0203788Y0067930D01*
X0204070Y0067919D01*
X0204352Y0067902D01*
X0204633Y0067878D01*
X0204914Y0067847D01*
X0205193Y0067809D01*
X0205472Y0067764D01*
X0205750Y0067712D01*
X0206026Y0067654D01*
X0206300Y0067588D01*
X0206573Y0067516D01*
X0206844Y0067438D01*
X0207113Y0067353D01*
X0207380Y0067261D01*
X0207645Y0067162D01*
X0207907Y0067058D01*
X0208166Y0066946D01*
X0208423Y0066829D01*
X0208677Y0066705D01*
X0208927Y0066575D01*
X0209174Y0066439D01*
X0209418Y0066297D01*
X0209658Y0066149D01*
X0209895Y0065995D01*
X0210128Y0065835D01*
X0210357Y0065670D01*
X0210581Y0065499D01*
X0210802Y0065323D01*
X0211017Y0065141D01*
X0211229Y0064954D01*
X0211436Y0064762D01*
X0211638Y0064565D01*
X0211835Y0064363D01*
X0212027Y0064156D01*
X0212214Y0063944D01*
X0212396Y0063729D01*
X0212572Y0063508D01*
X0212743Y0063284D01*
X0212908Y0063055D01*
X0213068Y0062822D01*
X0213222Y0062585D01*
X0213370Y0062345D01*
X0213512Y0062101D01*
X0213648Y0061854D01*
X0213778Y0061604D01*
X0213902Y0061350D01*
X0214019Y0061093D01*
X0214131Y0060834D01*
X0214235Y0060572D01*
X0214334Y0060307D01*
X0214426Y0060040D01*
X0214511Y0059771D01*
X0214589Y0059500D01*
X0214661Y0059227D01*
X0214727Y0058953D01*
X0214785Y0058677D01*
X0214837Y0058399D01*
X0214882Y0058120D01*
X0214920Y0057841D01*
X0214951Y0057560D01*
X0214975Y0057279D01*
X0214992Y0056997D01*
X0215003Y0056715D01*
X0215006Y0056433D01*
X0215003Y0056151D01*
X0214992Y0055869D01*
X0214975Y0055587D01*
X0214951Y0055306D01*
X0214920Y0055025D01*
X0214882Y0054746D01*
X0214837Y0054467D01*
X0214785Y0054189D01*
X0214727Y0053913D01*
X0214661Y0053639D01*
X0214589Y0053366D01*
X0214511Y0053095D01*
X0214426Y0052826D01*
X0214334Y0052559D01*
X0214235Y0052294D01*
X0214131Y0052032D01*
X0214019Y0051773D01*
X0213902Y0051516D01*
X0213778Y0051262D01*
X0213648Y0051012D01*
X0213512Y0050765D01*
X0213370Y0050521D01*
X0213222Y0050281D01*
X0213068Y0050044D01*
X0212908Y0049811D01*
X0212743Y0049582D01*
X0212572Y0049358D01*
X0212396Y0049137D01*
X0212214Y0048922D01*
X0212027Y0048710D01*
X0211835Y0048503D01*
X0211638Y0048301D01*
X0211436Y0048104D01*
X0211229Y0047912D01*
X0211017Y0047725D01*
X0210802Y0047543D01*
X0210581Y0047367D01*
X0210357Y0047196D01*
X0210128Y0047031D01*
X0209895Y0046871D01*
X0209658Y0046717D01*
X0209418Y0046569D01*
X0209174Y0046427D01*
X0208927Y0046291D01*
X0208677Y0046161D01*
X0208423Y0046037D01*
X0208166Y0045920D01*
X0207907Y0045808D01*
X0207645Y0045704D01*
X0207380Y0045605D01*
X0207113Y0045513D01*
X0206844Y0045428D01*
X0206573Y0045350D01*
X0206300Y0045278D01*
X0206026Y0045212D01*
X0205750Y0045154D01*
X0205472Y0045102D01*
X0205193Y0045057D01*
X0204914Y0045019D01*
X0204633Y0044988D01*
X0204352Y0044964D01*
X0204070Y0044947D01*
X0203788Y0044936D01*
X0203506Y0044933D01*
X0203224Y0044936D01*
X0202942Y0044947D01*
X0202660Y0044964D01*
X0202379Y0044988D01*
X0202098Y0045019D01*
X0201819Y0045057D01*
X0201540Y0045102D01*
X0201262Y0045154D01*
X0200986Y0045212D01*
X0200712Y0045278D01*
X0200439Y0045350D01*
X0200168Y0045428D01*
X0199899Y0045513D01*
X0199632Y0045605D01*
X0199367Y0045704D01*
X0199105Y0045808D01*
X0198846Y0045920D01*
X0198589Y0046037D01*
X0198335Y0046161D01*
X0198085Y0046291D01*
X0197838Y0046427D01*
X0197594Y0046569D01*
X0197354Y0046717D01*
X0197117Y0046871D01*
X0196884Y0047031D01*
X0196655Y0047196D01*
X0196431Y0047367D01*
X0196210Y0047543D01*
X0195995Y0047725D01*
X0195783Y0047912D01*
X0195576Y0048104D01*
X0195374Y0048301D01*
X0195177Y0048503D01*
X0194985Y0048710D01*
X0194798Y0048922D01*
X0194616Y0049137D01*
X0194440Y0049358D01*
X0194269Y0049582D01*
X0194104Y0049811D01*
X0193944Y0050044D01*
X0193790Y0050281D01*
X0193642Y0050521D01*
X0193500Y0050765D01*
X0193364Y0051012D01*
X0193234Y0051262D01*
X0193110Y0051516D01*
X0192993Y0051773D01*
X0192881Y0052032D01*
X0192777Y0052294D01*
X0192678Y0052559D01*
X0192586Y0052826D01*
X0192501Y0053095D01*
X0192423Y0053366D01*
X0192351Y0053639D01*
X0192285Y0053913D01*
X0192227Y0054189D01*
X0192175Y0054467D01*
X0192130Y0054746D01*
X0192092Y0055025D01*
X0192061Y0055306D01*
X0192037Y0055587D01*
X0192020Y0055869D01*
X0192009Y0056151D01*
X0192006Y0056433D01*
X0257006Y0056433D02*
X0257009Y0056715D01*
X0257020Y0056997D01*
X0257037Y0057279D01*
X0257061Y0057560D01*
X0257092Y0057841D01*
X0257130Y0058120D01*
X0257175Y0058399D01*
X0257227Y0058677D01*
X0257285Y0058953D01*
X0257351Y0059227D01*
X0257423Y0059500D01*
X0257501Y0059771D01*
X0257586Y0060040D01*
X0257678Y0060307D01*
X0257777Y0060572D01*
X0257881Y0060834D01*
X0257993Y0061093D01*
X0258110Y0061350D01*
X0258234Y0061604D01*
X0258364Y0061854D01*
X0258500Y0062101D01*
X0258642Y0062345D01*
X0258790Y0062585D01*
X0258944Y0062822D01*
X0259104Y0063055D01*
X0259269Y0063284D01*
X0259440Y0063508D01*
X0259616Y0063729D01*
X0259798Y0063944D01*
X0259985Y0064156D01*
X0260177Y0064363D01*
X0260374Y0064565D01*
X0260576Y0064762D01*
X0260783Y0064954D01*
X0260995Y0065141D01*
X0261210Y0065323D01*
X0261431Y0065499D01*
X0261655Y0065670D01*
X0261884Y0065835D01*
X0262117Y0065995D01*
X0262354Y0066149D01*
X0262594Y0066297D01*
X0262838Y0066439D01*
X0263085Y0066575D01*
X0263335Y0066705D01*
X0263589Y0066829D01*
X0263846Y0066946D01*
X0264105Y0067058D01*
X0264367Y0067162D01*
X0264632Y0067261D01*
X0264899Y0067353D01*
X0265168Y0067438D01*
X0265439Y0067516D01*
X0265712Y0067588D01*
X0265986Y0067654D01*
X0266262Y0067712D01*
X0266540Y0067764D01*
X0266819Y0067809D01*
X0267098Y0067847D01*
X0267379Y0067878D01*
X0267660Y0067902D01*
X0267942Y0067919D01*
X0268224Y0067930D01*
X0268506Y0067933D01*
X0268788Y0067930D01*
X0269070Y0067919D01*
X0269352Y0067902D01*
X0269633Y0067878D01*
X0269914Y0067847D01*
X0270193Y0067809D01*
X0270472Y0067764D01*
X0270750Y0067712D01*
X0271026Y0067654D01*
X0271300Y0067588D01*
X0271573Y0067516D01*
X0271844Y0067438D01*
X0272113Y0067353D01*
X0272380Y0067261D01*
X0272645Y0067162D01*
X0272907Y0067058D01*
X0273166Y0066946D01*
X0273423Y0066829D01*
X0273677Y0066705D01*
X0273927Y0066575D01*
X0274174Y0066439D01*
X0274418Y0066297D01*
X0274658Y0066149D01*
X0274895Y0065995D01*
X0275128Y0065835D01*
X0275357Y0065670D01*
X0275581Y0065499D01*
X0275802Y0065323D01*
X0276017Y0065141D01*
X0276229Y0064954D01*
X0276436Y0064762D01*
X0276638Y0064565D01*
X0276835Y0064363D01*
X0277027Y0064156D01*
X0277214Y0063944D01*
X0277396Y0063729D01*
X0277572Y0063508D01*
X0277743Y0063284D01*
X0277908Y0063055D01*
X0278068Y0062822D01*
X0278222Y0062585D01*
X0278370Y0062345D01*
X0278512Y0062101D01*
X0278648Y0061854D01*
X0278778Y0061604D01*
X0278902Y0061350D01*
X0279019Y0061093D01*
X0279131Y0060834D01*
X0279235Y0060572D01*
X0279334Y0060307D01*
X0279426Y0060040D01*
X0279511Y0059771D01*
X0279589Y0059500D01*
X0279661Y0059227D01*
X0279727Y0058953D01*
X0279785Y0058677D01*
X0279837Y0058399D01*
X0279882Y0058120D01*
X0279920Y0057841D01*
X0279951Y0057560D01*
X0279975Y0057279D01*
X0279992Y0056997D01*
X0280003Y0056715D01*
X0280006Y0056433D01*
X0280003Y0056151D01*
X0279992Y0055869D01*
X0279975Y0055587D01*
X0279951Y0055306D01*
X0279920Y0055025D01*
X0279882Y0054746D01*
X0279837Y0054467D01*
X0279785Y0054189D01*
X0279727Y0053913D01*
X0279661Y0053639D01*
X0279589Y0053366D01*
X0279511Y0053095D01*
X0279426Y0052826D01*
X0279334Y0052559D01*
X0279235Y0052294D01*
X0279131Y0052032D01*
X0279019Y0051773D01*
X0278902Y0051516D01*
X0278778Y0051262D01*
X0278648Y0051012D01*
X0278512Y0050765D01*
X0278370Y0050521D01*
X0278222Y0050281D01*
X0278068Y0050044D01*
X0277908Y0049811D01*
X0277743Y0049582D01*
X0277572Y0049358D01*
X0277396Y0049137D01*
X0277214Y0048922D01*
X0277027Y0048710D01*
X0276835Y0048503D01*
X0276638Y0048301D01*
X0276436Y0048104D01*
X0276229Y0047912D01*
X0276017Y0047725D01*
X0275802Y0047543D01*
X0275581Y0047367D01*
X0275357Y0047196D01*
X0275128Y0047031D01*
X0274895Y0046871D01*
X0274658Y0046717D01*
X0274418Y0046569D01*
X0274174Y0046427D01*
X0273927Y0046291D01*
X0273677Y0046161D01*
X0273423Y0046037D01*
X0273166Y0045920D01*
X0272907Y0045808D01*
X0272645Y0045704D01*
X0272380Y0045605D01*
X0272113Y0045513D01*
X0271844Y0045428D01*
X0271573Y0045350D01*
X0271300Y0045278D01*
X0271026Y0045212D01*
X0270750Y0045154D01*
X0270472Y0045102D01*
X0270193Y0045057D01*
X0269914Y0045019D01*
X0269633Y0044988D01*
X0269352Y0044964D01*
X0269070Y0044947D01*
X0268788Y0044936D01*
X0268506Y0044933D01*
X0268224Y0044936D01*
X0267942Y0044947D01*
X0267660Y0044964D01*
X0267379Y0044988D01*
X0267098Y0045019D01*
X0266819Y0045057D01*
X0266540Y0045102D01*
X0266262Y0045154D01*
X0265986Y0045212D01*
X0265712Y0045278D01*
X0265439Y0045350D01*
X0265168Y0045428D01*
X0264899Y0045513D01*
X0264632Y0045605D01*
X0264367Y0045704D01*
X0264105Y0045808D01*
X0263846Y0045920D01*
X0263589Y0046037D01*
X0263335Y0046161D01*
X0263085Y0046291D01*
X0262838Y0046427D01*
X0262594Y0046569D01*
X0262354Y0046717D01*
X0262117Y0046871D01*
X0261884Y0047031D01*
X0261655Y0047196D01*
X0261431Y0047367D01*
X0261210Y0047543D01*
X0260995Y0047725D01*
X0260783Y0047912D01*
X0260576Y0048104D01*
X0260374Y0048301D01*
X0260177Y0048503D01*
X0259985Y0048710D01*
X0259798Y0048922D01*
X0259616Y0049137D01*
X0259440Y0049358D01*
X0259269Y0049582D01*
X0259104Y0049811D01*
X0258944Y0050044D01*
X0258790Y0050281D01*
X0258642Y0050521D01*
X0258500Y0050765D01*
X0258364Y0051012D01*
X0258234Y0051262D01*
X0258110Y0051516D01*
X0257993Y0051773D01*
X0257881Y0052032D01*
X0257777Y0052294D01*
X0257678Y0052559D01*
X0257586Y0052826D01*
X0257501Y0053095D01*
X0257423Y0053366D01*
X0257351Y0053639D01*
X0257285Y0053913D01*
X0257227Y0054189D01*
X0257175Y0054467D01*
X0257130Y0054746D01*
X0257092Y0055025D01*
X0257061Y0055306D01*
X0257037Y0055587D01*
X0257020Y0055869D01*
X0257009Y0056151D01*
X0257006Y0056433D01*
X0239006Y0109933D02*
X0233006Y0109933D01*
X0232946Y0109935D01*
X0232885Y0109940D01*
X0232826Y0109949D01*
X0232767Y0109962D01*
X0232708Y0109978D01*
X0232651Y0109998D01*
X0232596Y0110021D01*
X0232541Y0110048D01*
X0232489Y0110077D01*
X0232438Y0110110D01*
X0232389Y0110146D01*
X0232343Y0110184D01*
X0232299Y0110226D01*
X0232257Y0110270D01*
X0232219Y0110316D01*
X0232183Y0110365D01*
X0232150Y0110416D01*
X0232121Y0110468D01*
X0232094Y0110523D01*
X0232071Y0110578D01*
X0232051Y0110635D01*
X0232035Y0110694D01*
X0232022Y0110753D01*
X0232013Y0110812D01*
X0232008Y0110873D01*
X0232006Y0110933D01*
X0232006Y0126933D01*
X0232008Y0126993D01*
X0232013Y0127054D01*
X0232022Y0127113D01*
X0232035Y0127172D01*
X0232051Y0127231D01*
X0232071Y0127288D01*
X0232094Y0127343D01*
X0232121Y0127398D01*
X0232150Y0127450D01*
X0232183Y0127501D01*
X0232219Y0127550D01*
X0232257Y0127596D01*
X0232299Y0127640D01*
X0232343Y0127682D01*
X0232389Y0127720D01*
X0232438Y0127756D01*
X0232489Y0127789D01*
X0232541Y0127818D01*
X0232596Y0127845D01*
X0232651Y0127868D01*
X0232708Y0127888D01*
X0232767Y0127904D01*
X0232826Y0127917D01*
X0232885Y0127926D01*
X0232946Y0127931D01*
X0233006Y0127933D01*
X0239006Y0127933D01*
X0239066Y0127931D01*
X0239127Y0127926D01*
X0239186Y0127917D01*
X0239245Y0127904D01*
X0239304Y0127888D01*
X0239361Y0127868D01*
X0239416Y0127845D01*
X0239471Y0127818D01*
X0239523Y0127789D01*
X0239574Y0127756D01*
X0239623Y0127720D01*
X0239669Y0127682D01*
X0239713Y0127640D01*
X0239755Y0127596D01*
X0239793Y0127550D01*
X0239829Y0127501D01*
X0239862Y0127450D01*
X0239891Y0127398D01*
X0239918Y0127343D01*
X0239941Y0127288D01*
X0239961Y0127231D01*
X0239977Y0127172D01*
X0239990Y0127113D01*
X0239999Y0127054D01*
X0240004Y0126993D01*
X0240006Y0126933D01*
X0240006Y0110933D01*
X0240004Y0110873D01*
X0239999Y0110812D01*
X0239990Y0110753D01*
X0239977Y0110694D01*
X0239961Y0110635D01*
X0239941Y0110578D01*
X0239918Y0110523D01*
X0239891Y0110468D01*
X0239862Y0110416D01*
X0239829Y0110365D01*
X0239793Y0110316D01*
X0239755Y0110270D01*
X0239713Y0110226D01*
X0239669Y0110184D01*
X0239623Y0110146D01*
X0239574Y0110110D01*
X0239523Y0110077D01*
X0239471Y0110048D01*
X0239416Y0110021D01*
X0239361Y0109998D01*
X0239304Y0109978D01*
X0239245Y0109962D01*
X0239186Y0109949D01*
X0239127Y0109940D01*
X0239066Y0109935D01*
X0239006Y0109933D01*
X0236006Y0112933D02*
X0236006Y0118933D01*
X0233506Y0118933D01*
X0236006Y0118933D02*
X0236006Y0121433D01*
X0236006Y0118933D02*
X0238506Y0118933D01*
X0236006Y0118933D02*
X0238506Y0114933D01*
X0233506Y0114933D01*
X0236006Y0118933D01*
X0192006Y0201433D02*
X0192009Y0201715D01*
X0192020Y0201997D01*
X0192037Y0202279D01*
X0192061Y0202560D01*
X0192092Y0202841D01*
X0192130Y0203120D01*
X0192175Y0203399D01*
X0192227Y0203677D01*
X0192285Y0203953D01*
X0192351Y0204227D01*
X0192423Y0204500D01*
X0192501Y0204771D01*
X0192586Y0205040D01*
X0192678Y0205307D01*
X0192777Y0205572D01*
X0192881Y0205834D01*
X0192993Y0206093D01*
X0193110Y0206350D01*
X0193234Y0206604D01*
X0193364Y0206854D01*
X0193500Y0207101D01*
X0193642Y0207345D01*
X0193790Y0207585D01*
X0193944Y0207822D01*
X0194104Y0208055D01*
X0194269Y0208284D01*
X0194440Y0208508D01*
X0194616Y0208729D01*
X0194798Y0208944D01*
X0194985Y0209156D01*
X0195177Y0209363D01*
X0195374Y0209565D01*
X0195576Y0209762D01*
X0195783Y0209954D01*
X0195995Y0210141D01*
X0196210Y0210323D01*
X0196431Y0210499D01*
X0196655Y0210670D01*
X0196884Y0210835D01*
X0197117Y0210995D01*
X0197354Y0211149D01*
X0197594Y0211297D01*
X0197838Y0211439D01*
X0198085Y0211575D01*
X0198335Y0211705D01*
X0198589Y0211829D01*
X0198846Y0211946D01*
X0199105Y0212058D01*
X0199367Y0212162D01*
X0199632Y0212261D01*
X0199899Y0212353D01*
X0200168Y0212438D01*
X0200439Y0212516D01*
X0200712Y0212588D01*
X0200986Y0212654D01*
X0201262Y0212712D01*
X0201540Y0212764D01*
X0201819Y0212809D01*
X0202098Y0212847D01*
X0202379Y0212878D01*
X0202660Y0212902D01*
X0202942Y0212919D01*
X0203224Y0212930D01*
X0203506Y0212933D01*
X0203788Y0212930D01*
X0204070Y0212919D01*
X0204352Y0212902D01*
X0204633Y0212878D01*
X0204914Y0212847D01*
X0205193Y0212809D01*
X0205472Y0212764D01*
X0205750Y0212712D01*
X0206026Y0212654D01*
X0206300Y0212588D01*
X0206573Y0212516D01*
X0206844Y0212438D01*
X0207113Y0212353D01*
X0207380Y0212261D01*
X0207645Y0212162D01*
X0207907Y0212058D01*
X0208166Y0211946D01*
X0208423Y0211829D01*
X0208677Y0211705D01*
X0208927Y0211575D01*
X0209174Y0211439D01*
X0209418Y0211297D01*
X0209658Y0211149D01*
X0209895Y0210995D01*
X0210128Y0210835D01*
X0210357Y0210670D01*
X0210581Y0210499D01*
X0210802Y0210323D01*
X0211017Y0210141D01*
X0211229Y0209954D01*
X0211436Y0209762D01*
X0211638Y0209565D01*
X0211835Y0209363D01*
X0212027Y0209156D01*
X0212214Y0208944D01*
X0212396Y0208729D01*
X0212572Y0208508D01*
X0212743Y0208284D01*
X0212908Y0208055D01*
X0213068Y0207822D01*
X0213222Y0207585D01*
X0213370Y0207345D01*
X0213512Y0207101D01*
X0213648Y0206854D01*
X0213778Y0206604D01*
X0213902Y0206350D01*
X0214019Y0206093D01*
X0214131Y0205834D01*
X0214235Y0205572D01*
X0214334Y0205307D01*
X0214426Y0205040D01*
X0214511Y0204771D01*
X0214589Y0204500D01*
X0214661Y0204227D01*
X0214727Y0203953D01*
X0214785Y0203677D01*
X0214837Y0203399D01*
X0214882Y0203120D01*
X0214920Y0202841D01*
X0214951Y0202560D01*
X0214975Y0202279D01*
X0214992Y0201997D01*
X0215003Y0201715D01*
X0215006Y0201433D01*
X0215003Y0201151D01*
X0214992Y0200869D01*
X0214975Y0200587D01*
X0214951Y0200306D01*
X0214920Y0200025D01*
X0214882Y0199746D01*
X0214837Y0199467D01*
X0214785Y0199189D01*
X0214727Y0198913D01*
X0214661Y0198639D01*
X0214589Y0198366D01*
X0214511Y0198095D01*
X0214426Y0197826D01*
X0214334Y0197559D01*
X0214235Y0197294D01*
X0214131Y0197032D01*
X0214019Y0196773D01*
X0213902Y0196516D01*
X0213778Y0196262D01*
X0213648Y0196012D01*
X0213512Y0195765D01*
X0213370Y0195521D01*
X0213222Y0195281D01*
X0213068Y0195044D01*
X0212908Y0194811D01*
X0212743Y0194582D01*
X0212572Y0194358D01*
X0212396Y0194137D01*
X0212214Y0193922D01*
X0212027Y0193710D01*
X0211835Y0193503D01*
X0211638Y0193301D01*
X0211436Y0193104D01*
X0211229Y0192912D01*
X0211017Y0192725D01*
X0210802Y0192543D01*
X0210581Y0192367D01*
X0210357Y0192196D01*
X0210128Y0192031D01*
X0209895Y0191871D01*
X0209658Y0191717D01*
X0209418Y0191569D01*
X0209174Y0191427D01*
X0208927Y0191291D01*
X0208677Y0191161D01*
X0208423Y0191037D01*
X0208166Y0190920D01*
X0207907Y0190808D01*
X0207645Y0190704D01*
X0207380Y0190605D01*
X0207113Y0190513D01*
X0206844Y0190428D01*
X0206573Y0190350D01*
X0206300Y0190278D01*
X0206026Y0190212D01*
X0205750Y0190154D01*
X0205472Y0190102D01*
X0205193Y0190057D01*
X0204914Y0190019D01*
X0204633Y0189988D01*
X0204352Y0189964D01*
X0204070Y0189947D01*
X0203788Y0189936D01*
X0203506Y0189933D01*
X0203224Y0189936D01*
X0202942Y0189947D01*
X0202660Y0189964D01*
X0202379Y0189988D01*
X0202098Y0190019D01*
X0201819Y0190057D01*
X0201540Y0190102D01*
X0201262Y0190154D01*
X0200986Y0190212D01*
X0200712Y0190278D01*
X0200439Y0190350D01*
X0200168Y0190428D01*
X0199899Y0190513D01*
X0199632Y0190605D01*
X0199367Y0190704D01*
X0199105Y0190808D01*
X0198846Y0190920D01*
X0198589Y0191037D01*
X0198335Y0191161D01*
X0198085Y0191291D01*
X0197838Y0191427D01*
X0197594Y0191569D01*
X0197354Y0191717D01*
X0197117Y0191871D01*
X0196884Y0192031D01*
X0196655Y0192196D01*
X0196431Y0192367D01*
X0196210Y0192543D01*
X0195995Y0192725D01*
X0195783Y0192912D01*
X0195576Y0193104D01*
X0195374Y0193301D01*
X0195177Y0193503D01*
X0194985Y0193710D01*
X0194798Y0193922D01*
X0194616Y0194137D01*
X0194440Y0194358D01*
X0194269Y0194582D01*
X0194104Y0194811D01*
X0193944Y0195044D01*
X0193790Y0195281D01*
X0193642Y0195521D01*
X0193500Y0195765D01*
X0193364Y0196012D01*
X0193234Y0196262D01*
X0193110Y0196516D01*
X0192993Y0196773D01*
X0192881Y0197032D01*
X0192777Y0197294D01*
X0192678Y0197559D01*
X0192586Y0197826D01*
X0192501Y0198095D01*
X0192423Y0198366D01*
X0192351Y0198639D01*
X0192285Y0198913D01*
X0192227Y0199189D01*
X0192175Y0199467D01*
X0192130Y0199746D01*
X0192092Y0200025D01*
X0192061Y0200306D01*
X0192037Y0200587D01*
X0192020Y0200869D01*
X0192009Y0201151D01*
X0192006Y0201433D01*
X0107006Y0201433D02*
X0107009Y0201715D01*
X0107020Y0201997D01*
X0107037Y0202279D01*
X0107061Y0202560D01*
X0107092Y0202841D01*
X0107130Y0203120D01*
X0107175Y0203399D01*
X0107227Y0203677D01*
X0107285Y0203953D01*
X0107351Y0204227D01*
X0107423Y0204500D01*
X0107501Y0204771D01*
X0107586Y0205040D01*
X0107678Y0205307D01*
X0107777Y0205572D01*
X0107881Y0205834D01*
X0107993Y0206093D01*
X0108110Y0206350D01*
X0108234Y0206604D01*
X0108364Y0206854D01*
X0108500Y0207101D01*
X0108642Y0207345D01*
X0108790Y0207585D01*
X0108944Y0207822D01*
X0109104Y0208055D01*
X0109269Y0208284D01*
X0109440Y0208508D01*
X0109616Y0208729D01*
X0109798Y0208944D01*
X0109985Y0209156D01*
X0110177Y0209363D01*
X0110374Y0209565D01*
X0110576Y0209762D01*
X0110783Y0209954D01*
X0110995Y0210141D01*
X0111210Y0210323D01*
X0111431Y0210499D01*
X0111655Y0210670D01*
X0111884Y0210835D01*
X0112117Y0210995D01*
X0112354Y0211149D01*
X0112594Y0211297D01*
X0112838Y0211439D01*
X0113085Y0211575D01*
X0113335Y0211705D01*
X0113589Y0211829D01*
X0113846Y0211946D01*
X0114105Y0212058D01*
X0114367Y0212162D01*
X0114632Y0212261D01*
X0114899Y0212353D01*
X0115168Y0212438D01*
X0115439Y0212516D01*
X0115712Y0212588D01*
X0115986Y0212654D01*
X0116262Y0212712D01*
X0116540Y0212764D01*
X0116819Y0212809D01*
X0117098Y0212847D01*
X0117379Y0212878D01*
X0117660Y0212902D01*
X0117942Y0212919D01*
X0118224Y0212930D01*
X0118506Y0212933D01*
X0118788Y0212930D01*
X0119070Y0212919D01*
X0119352Y0212902D01*
X0119633Y0212878D01*
X0119914Y0212847D01*
X0120193Y0212809D01*
X0120472Y0212764D01*
X0120750Y0212712D01*
X0121026Y0212654D01*
X0121300Y0212588D01*
X0121573Y0212516D01*
X0121844Y0212438D01*
X0122113Y0212353D01*
X0122380Y0212261D01*
X0122645Y0212162D01*
X0122907Y0212058D01*
X0123166Y0211946D01*
X0123423Y0211829D01*
X0123677Y0211705D01*
X0123927Y0211575D01*
X0124174Y0211439D01*
X0124418Y0211297D01*
X0124658Y0211149D01*
X0124895Y0210995D01*
X0125128Y0210835D01*
X0125357Y0210670D01*
X0125581Y0210499D01*
X0125802Y0210323D01*
X0126017Y0210141D01*
X0126229Y0209954D01*
X0126436Y0209762D01*
X0126638Y0209565D01*
X0126835Y0209363D01*
X0127027Y0209156D01*
X0127214Y0208944D01*
X0127396Y0208729D01*
X0127572Y0208508D01*
X0127743Y0208284D01*
X0127908Y0208055D01*
X0128068Y0207822D01*
X0128222Y0207585D01*
X0128370Y0207345D01*
X0128512Y0207101D01*
X0128648Y0206854D01*
X0128778Y0206604D01*
X0128902Y0206350D01*
X0129019Y0206093D01*
X0129131Y0205834D01*
X0129235Y0205572D01*
X0129334Y0205307D01*
X0129426Y0205040D01*
X0129511Y0204771D01*
X0129589Y0204500D01*
X0129661Y0204227D01*
X0129727Y0203953D01*
X0129785Y0203677D01*
X0129837Y0203399D01*
X0129882Y0203120D01*
X0129920Y0202841D01*
X0129951Y0202560D01*
X0129975Y0202279D01*
X0129992Y0201997D01*
X0130003Y0201715D01*
X0130006Y0201433D01*
X0130003Y0201151D01*
X0129992Y0200869D01*
X0129975Y0200587D01*
X0129951Y0200306D01*
X0129920Y0200025D01*
X0129882Y0199746D01*
X0129837Y0199467D01*
X0129785Y0199189D01*
X0129727Y0198913D01*
X0129661Y0198639D01*
X0129589Y0198366D01*
X0129511Y0198095D01*
X0129426Y0197826D01*
X0129334Y0197559D01*
X0129235Y0197294D01*
X0129131Y0197032D01*
X0129019Y0196773D01*
X0128902Y0196516D01*
X0128778Y0196262D01*
X0128648Y0196012D01*
X0128512Y0195765D01*
X0128370Y0195521D01*
X0128222Y0195281D01*
X0128068Y0195044D01*
X0127908Y0194811D01*
X0127743Y0194582D01*
X0127572Y0194358D01*
X0127396Y0194137D01*
X0127214Y0193922D01*
X0127027Y0193710D01*
X0126835Y0193503D01*
X0126638Y0193301D01*
X0126436Y0193104D01*
X0126229Y0192912D01*
X0126017Y0192725D01*
X0125802Y0192543D01*
X0125581Y0192367D01*
X0125357Y0192196D01*
X0125128Y0192031D01*
X0124895Y0191871D01*
X0124658Y0191717D01*
X0124418Y0191569D01*
X0124174Y0191427D01*
X0123927Y0191291D01*
X0123677Y0191161D01*
X0123423Y0191037D01*
X0123166Y0190920D01*
X0122907Y0190808D01*
X0122645Y0190704D01*
X0122380Y0190605D01*
X0122113Y0190513D01*
X0121844Y0190428D01*
X0121573Y0190350D01*
X0121300Y0190278D01*
X0121026Y0190212D01*
X0120750Y0190154D01*
X0120472Y0190102D01*
X0120193Y0190057D01*
X0119914Y0190019D01*
X0119633Y0189988D01*
X0119352Y0189964D01*
X0119070Y0189947D01*
X0118788Y0189936D01*
X0118506Y0189933D01*
X0118224Y0189936D01*
X0117942Y0189947D01*
X0117660Y0189964D01*
X0117379Y0189988D01*
X0117098Y0190019D01*
X0116819Y0190057D01*
X0116540Y0190102D01*
X0116262Y0190154D01*
X0115986Y0190212D01*
X0115712Y0190278D01*
X0115439Y0190350D01*
X0115168Y0190428D01*
X0114899Y0190513D01*
X0114632Y0190605D01*
X0114367Y0190704D01*
X0114105Y0190808D01*
X0113846Y0190920D01*
X0113589Y0191037D01*
X0113335Y0191161D01*
X0113085Y0191291D01*
X0112838Y0191427D01*
X0112594Y0191569D01*
X0112354Y0191717D01*
X0112117Y0191871D01*
X0111884Y0192031D01*
X0111655Y0192196D01*
X0111431Y0192367D01*
X0111210Y0192543D01*
X0110995Y0192725D01*
X0110783Y0192912D01*
X0110576Y0193104D01*
X0110374Y0193301D01*
X0110177Y0193503D01*
X0109985Y0193710D01*
X0109798Y0193922D01*
X0109616Y0194137D01*
X0109440Y0194358D01*
X0109269Y0194582D01*
X0109104Y0194811D01*
X0108944Y0195044D01*
X0108790Y0195281D01*
X0108642Y0195521D01*
X0108500Y0195765D01*
X0108364Y0196012D01*
X0108234Y0196262D01*
X0108110Y0196516D01*
X0107993Y0196773D01*
X0107881Y0197032D01*
X0107777Y0197294D01*
X0107678Y0197559D01*
X0107586Y0197826D01*
X0107501Y0198095D01*
X0107423Y0198366D01*
X0107351Y0198639D01*
X0107285Y0198913D01*
X0107227Y0199189D01*
X0107175Y0199467D01*
X0107130Y0199746D01*
X0107092Y0200025D01*
X0107061Y0200306D01*
X0107037Y0200587D01*
X0107020Y0200869D01*
X0107009Y0201151D01*
X0107006Y0201433D01*
X0042006Y0201433D02*
X0042009Y0201715D01*
X0042020Y0201997D01*
X0042037Y0202279D01*
X0042061Y0202560D01*
X0042092Y0202841D01*
X0042130Y0203120D01*
X0042175Y0203399D01*
X0042227Y0203677D01*
X0042285Y0203953D01*
X0042351Y0204227D01*
X0042423Y0204500D01*
X0042501Y0204771D01*
X0042586Y0205040D01*
X0042678Y0205307D01*
X0042777Y0205572D01*
X0042881Y0205834D01*
X0042993Y0206093D01*
X0043110Y0206350D01*
X0043234Y0206604D01*
X0043364Y0206854D01*
X0043500Y0207101D01*
X0043642Y0207345D01*
X0043790Y0207585D01*
X0043944Y0207822D01*
X0044104Y0208055D01*
X0044269Y0208284D01*
X0044440Y0208508D01*
X0044616Y0208729D01*
X0044798Y0208944D01*
X0044985Y0209156D01*
X0045177Y0209363D01*
X0045374Y0209565D01*
X0045576Y0209762D01*
X0045783Y0209954D01*
X0045995Y0210141D01*
X0046210Y0210323D01*
X0046431Y0210499D01*
X0046655Y0210670D01*
X0046884Y0210835D01*
X0047117Y0210995D01*
X0047354Y0211149D01*
X0047594Y0211297D01*
X0047838Y0211439D01*
X0048085Y0211575D01*
X0048335Y0211705D01*
X0048589Y0211829D01*
X0048846Y0211946D01*
X0049105Y0212058D01*
X0049367Y0212162D01*
X0049632Y0212261D01*
X0049899Y0212353D01*
X0050168Y0212438D01*
X0050439Y0212516D01*
X0050712Y0212588D01*
X0050986Y0212654D01*
X0051262Y0212712D01*
X0051540Y0212764D01*
X0051819Y0212809D01*
X0052098Y0212847D01*
X0052379Y0212878D01*
X0052660Y0212902D01*
X0052942Y0212919D01*
X0053224Y0212930D01*
X0053506Y0212933D01*
X0053788Y0212930D01*
X0054070Y0212919D01*
X0054352Y0212902D01*
X0054633Y0212878D01*
X0054914Y0212847D01*
X0055193Y0212809D01*
X0055472Y0212764D01*
X0055750Y0212712D01*
X0056026Y0212654D01*
X0056300Y0212588D01*
X0056573Y0212516D01*
X0056844Y0212438D01*
X0057113Y0212353D01*
X0057380Y0212261D01*
X0057645Y0212162D01*
X0057907Y0212058D01*
X0058166Y0211946D01*
X0058423Y0211829D01*
X0058677Y0211705D01*
X0058927Y0211575D01*
X0059174Y0211439D01*
X0059418Y0211297D01*
X0059658Y0211149D01*
X0059895Y0210995D01*
X0060128Y0210835D01*
X0060357Y0210670D01*
X0060581Y0210499D01*
X0060802Y0210323D01*
X0061017Y0210141D01*
X0061229Y0209954D01*
X0061436Y0209762D01*
X0061638Y0209565D01*
X0061835Y0209363D01*
X0062027Y0209156D01*
X0062214Y0208944D01*
X0062396Y0208729D01*
X0062572Y0208508D01*
X0062743Y0208284D01*
X0062908Y0208055D01*
X0063068Y0207822D01*
X0063222Y0207585D01*
X0063370Y0207345D01*
X0063512Y0207101D01*
X0063648Y0206854D01*
X0063778Y0206604D01*
X0063902Y0206350D01*
X0064019Y0206093D01*
X0064131Y0205834D01*
X0064235Y0205572D01*
X0064334Y0205307D01*
X0064426Y0205040D01*
X0064511Y0204771D01*
X0064589Y0204500D01*
X0064661Y0204227D01*
X0064727Y0203953D01*
X0064785Y0203677D01*
X0064837Y0203399D01*
X0064882Y0203120D01*
X0064920Y0202841D01*
X0064951Y0202560D01*
X0064975Y0202279D01*
X0064992Y0201997D01*
X0065003Y0201715D01*
X0065006Y0201433D01*
X0065003Y0201151D01*
X0064992Y0200869D01*
X0064975Y0200587D01*
X0064951Y0200306D01*
X0064920Y0200025D01*
X0064882Y0199746D01*
X0064837Y0199467D01*
X0064785Y0199189D01*
X0064727Y0198913D01*
X0064661Y0198639D01*
X0064589Y0198366D01*
X0064511Y0198095D01*
X0064426Y0197826D01*
X0064334Y0197559D01*
X0064235Y0197294D01*
X0064131Y0197032D01*
X0064019Y0196773D01*
X0063902Y0196516D01*
X0063778Y0196262D01*
X0063648Y0196012D01*
X0063512Y0195765D01*
X0063370Y0195521D01*
X0063222Y0195281D01*
X0063068Y0195044D01*
X0062908Y0194811D01*
X0062743Y0194582D01*
X0062572Y0194358D01*
X0062396Y0194137D01*
X0062214Y0193922D01*
X0062027Y0193710D01*
X0061835Y0193503D01*
X0061638Y0193301D01*
X0061436Y0193104D01*
X0061229Y0192912D01*
X0061017Y0192725D01*
X0060802Y0192543D01*
X0060581Y0192367D01*
X0060357Y0192196D01*
X0060128Y0192031D01*
X0059895Y0191871D01*
X0059658Y0191717D01*
X0059418Y0191569D01*
X0059174Y0191427D01*
X0058927Y0191291D01*
X0058677Y0191161D01*
X0058423Y0191037D01*
X0058166Y0190920D01*
X0057907Y0190808D01*
X0057645Y0190704D01*
X0057380Y0190605D01*
X0057113Y0190513D01*
X0056844Y0190428D01*
X0056573Y0190350D01*
X0056300Y0190278D01*
X0056026Y0190212D01*
X0055750Y0190154D01*
X0055472Y0190102D01*
X0055193Y0190057D01*
X0054914Y0190019D01*
X0054633Y0189988D01*
X0054352Y0189964D01*
X0054070Y0189947D01*
X0053788Y0189936D01*
X0053506Y0189933D01*
X0053224Y0189936D01*
X0052942Y0189947D01*
X0052660Y0189964D01*
X0052379Y0189988D01*
X0052098Y0190019D01*
X0051819Y0190057D01*
X0051540Y0190102D01*
X0051262Y0190154D01*
X0050986Y0190212D01*
X0050712Y0190278D01*
X0050439Y0190350D01*
X0050168Y0190428D01*
X0049899Y0190513D01*
X0049632Y0190605D01*
X0049367Y0190704D01*
X0049105Y0190808D01*
X0048846Y0190920D01*
X0048589Y0191037D01*
X0048335Y0191161D01*
X0048085Y0191291D01*
X0047838Y0191427D01*
X0047594Y0191569D01*
X0047354Y0191717D01*
X0047117Y0191871D01*
X0046884Y0192031D01*
X0046655Y0192196D01*
X0046431Y0192367D01*
X0046210Y0192543D01*
X0045995Y0192725D01*
X0045783Y0192912D01*
X0045576Y0193104D01*
X0045374Y0193301D01*
X0045177Y0193503D01*
X0044985Y0193710D01*
X0044798Y0193922D01*
X0044616Y0194137D01*
X0044440Y0194358D01*
X0044269Y0194582D01*
X0044104Y0194811D01*
X0043944Y0195044D01*
X0043790Y0195281D01*
X0043642Y0195521D01*
X0043500Y0195765D01*
X0043364Y0196012D01*
X0043234Y0196262D01*
X0043110Y0196516D01*
X0042993Y0196773D01*
X0042881Y0197032D01*
X0042777Y0197294D01*
X0042678Y0197559D01*
X0042586Y0197826D01*
X0042501Y0198095D01*
X0042423Y0198366D01*
X0042351Y0198639D01*
X0042285Y0198913D01*
X0042227Y0199189D01*
X0042175Y0199467D01*
X0042130Y0199746D01*
X0042092Y0200025D01*
X0042061Y0200306D01*
X0042037Y0200587D01*
X0042020Y0200869D01*
X0042009Y0201151D01*
X0042006Y0201433D01*
X0257006Y0201433D02*
X0257009Y0201715D01*
X0257020Y0201997D01*
X0257037Y0202279D01*
X0257061Y0202560D01*
X0257092Y0202841D01*
X0257130Y0203120D01*
X0257175Y0203399D01*
X0257227Y0203677D01*
X0257285Y0203953D01*
X0257351Y0204227D01*
X0257423Y0204500D01*
X0257501Y0204771D01*
X0257586Y0205040D01*
X0257678Y0205307D01*
X0257777Y0205572D01*
X0257881Y0205834D01*
X0257993Y0206093D01*
X0258110Y0206350D01*
X0258234Y0206604D01*
X0258364Y0206854D01*
X0258500Y0207101D01*
X0258642Y0207345D01*
X0258790Y0207585D01*
X0258944Y0207822D01*
X0259104Y0208055D01*
X0259269Y0208284D01*
X0259440Y0208508D01*
X0259616Y0208729D01*
X0259798Y0208944D01*
X0259985Y0209156D01*
X0260177Y0209363D01*
X0260374Y0209565D01*
X0260576Y0209762D01*
X0260783Y0209954D01*
X0260995Y0210141D01*
X0261210Y0210323D01*
X0261431Y0210499D01*
X0261655Y0210670D01*
X0261884Y0210835D01*
X0262117Y0210995D01*
X0262354Y0211149D01*
X0262594Y0211297D01*
X0262838Y0211439D01*
X0263085Y0211575D01*
X0263335Y0211705D01*
X0263589Y0211829D01*
X0263846Y0211946D01*
X0264105Y0212058D01*
X0264367Y0212162D01*
X0264632Y0212261D01*
X0264899Y0212353D01*
X0265168Y0212438D01*
X0265439Y0212516D01*
X0265712Y0212588D01*
X0265986Y0212654D01*
X0266262Y0212712D01*
X0266540Y0212764D01*
X0266819Y0212809D01*
X0267098Y0212847D01*
X0267379Y0212878D01*
X0267660Y0212902D01*
X0267942Y0212919D01*
X0268224Y0212930D01*
X0268506Y0212933D01*
X0268788Y0212930D01*
X0269070Y0212919D01*
X0269352Y0212902D01*
X0269633Y0212878D01*
X0269914Y0212847D01*
X0270193Y0212809D01*
X0270472Y0212764D01*
X0270750Y0212712D01*
X0271026Y0212654D01*
X0271300Y0212588D01*
X0271573Y0212516D01*
X0271844Y0212438D01*
X0272113Y0212353D01*
X0272380Y0212261D01*
X0272645Y0212162D01*
X0272907Y0212058D01*
X0273166Y0211946D01*
X0273423Y0211829D01*
X0273677Y0211705D01*
X0273927Y0211575D01*
X0274174Y0211439D01*
X0274418Y0211297D01*
X0274658Y0211149D01*
X0274895Y0210995D01*
X0275128Y0210835D01*
X0275357Y0210670D01*
X0275581Y0210499D01*
X0275802Y0210323D01*
X0276017Y0210141D01*
X0276229Y0209954D01*
X0276436Y0209762D01*
X0276638Y0209565D01*
X0276835Y0209363D01*
X0277027Y0209156D01*
X0277214Y0208944D01*
X0277396Y0208729D01*
X0277572Y0208508D01*
X0277743Y0208284D01*
X0277908Y0208055D01*
X0278068Y0207822D01*
X0278222Y0207585D01*
X0278370Y0207345D01*
X0278512Y0207101D01*
X0278648Y0206854D01*
X0278778Y0206604D01*
X0278902Y0206350D01*
X0279019Y0206093D01*
X0279131Y0205834D01*
X0279235Y0205572D01*
X0279334Y0205307D01*
X0279426Y0205040D01*
X0279511Y0204771D01*
X0279589Y0204500D01*
X0279661Y0204227D01*
X0279727Y0203953D01*
X0279785Y0203677D01*
X0279837Y0203399D01*
X0279882Y0203120D01*
X0279920Y0202841D01*
X0279951Y0202560D01*
X0279975Y0202279D01*
X0279992Y0201997D01*
X0280003Y0201715D01*
X0280006Y0201433D01*
X0280003Y0201151D01*
X0279992Y0200869D01*
X0279975Y0200587D01*
X0279951Y0200306D01*
X0279920Y0200025D01*
X0279882Y0199746D01*
X0279837Y0199467D01*
X0279785Y0199189D01*
X0279727Y0198913D01*
X0279661Y0198639D01*
X0279589Y0198366D01*
X0279511Y0198095D01*
X0279426Y0197826D01*
X0279334Y0197559D01*
X0279235Y0197294D01*
X0279131Y0197032D01*
X0279019Y0196773D01*
X0278902Y0196516D01*
X0278778Y0196262D01*
X0278648Y0196012D01*
X0278512Y0195765D01*
X0278370Y0195521D01*
X0278222Y0195281D01*
X0278068Y0195044D01*
X0277908Y0194811D01*
X0277743Y0194582D01*
X0277572Y0194358D01*
X0277396Y0194137D01*
X0277214Y0193922D01*
X0277027Y0193710D01*
X0276835Y0193503D01*
X0276638Y0193301D01*
X0276436Y0193104D01*
X0276229Y0192912D01*
X0276017Y0192725D01*
X0275802Y0192543D01*
X0275581Y0192367D01*
X0275357Y0192196D01*
X0275128Y0192031D01*
X0274895Y0191871D01*
X0274658Y0191717D01*
X0274418Y0191569D01*
X0274174Y0191427D01*
X0273927Y0191291D01*
X0273677Y0191161D01*
X0273423Y0191037D01*
X0273166Y0190920D01*
X0272907Y0190808D01*
X0272645Y0190704D01*
X0272380Y0190605D01*
X0272113Y0190513D01*
X0271844Y0190428D01*
X0271573Y0190350D01*
X0271300Y0190278D01*
X0271026Y0190212D01*
X0270750Y0190154D01*
X0270472Y0190102D01*
X0270193Y0190057D01*
X0269914Y0190019D01*
X0269633Y0189988D01*
X0269352Y0189964D01*
X0269070Y0189947D01*
X0268788Y0189936D01*
X0268506Y0189933D01*
X0268224Y0189936D01*
X0267942Y0189947D01*
X0267660Y0189964D01*
X0267379Y0189988D01*
X0267098Y0190019D01*
X0266819Y0190057D01*
X0266540Y0190102D01*
X0266262Y0190154D01*
X0265986Y0190212D01*
X0265712Y0190278D01*
X0265439Y0190350D01*
X0265168Y0190428D01*
X0264899Y0190513D01*
X0264632Y0190605D01*
X0264367Y0190704D01*
X0264105Y0190808D01*
X0263846Y0190920D01*
X0263589Y0191037D01*
X0263335Y0191161D01*
X0263085Y0191291D01*
X0262838Y0191427D01*
X0262594Y0191569D01*
X0262354Y0191717D01*
X0262117Y0191871D01*
X0261884Y0192031D01*
X0261655Y0192196D01*
X0261431Y0192367D01*
X0261210Y0192543D01*
X0260995Y0192725D01*
X0260783Y0192912D01*
X0260576Y0193104D01*
X0260374Y0193301D01*
X0260177Y0193503D01*
X0259985Y0193710D01*
X0259798Y0193922D01*
X0259616Y0194137D01*
X0259440Y0194358D01*
X0259269Y0194582D01*
X0259104Y0194811D01*
X0258944Y0195044D01*
X0258790Y0195281D01*
X0258642Y0195521D01*
X0258500Y0195765D01*
X0258364Y0196012D01*
X0258234Y0196262D01*
X0258110Y0196516D01*
X0257993Y0196773D01*
X0257881Y0197032D01*
X0257777Y0197294D01*
X0257678Y0197559D01*
X0257586Y0197826D01*
X0257501Y0198095D01*
X0257423Y0198366D01*
X0257351Y0198639D01*
X0257285Y0198913D01*
X0257227Y0199189D01*
X0257175Y0199467D01*
X0257130Y0199746D01*
X0257092Y0200025D01*
X0257061Y0200306D01*
X0257037Y0200587D01*
X0257020Y0200869D01*
X0257009Y0201151D01*
X0257006Y0201433D01*
D11*
X0236006Y0125433D03*
D12*
X0236006Y0129183D03*
X0236006Y0108683D03*
D13*
X0241006Y0106933D02*
X0241006Y0071933D01*
X0251006Y0071933D01*
X0281006Y0071933D01*
X0281006Y0106933D01*
X0251006Y0106933D01*
X0241006Y0106933D01*
D14*
X0251006Y0106933D02*
X0251006Y0071933D01*
D15*
X0266006Y0081133D03*
X0266006Y0096733D03*
D16*
X0262600Y0056433D02*
X0262602Y0056586D01*
X0262608Y0056740D01*
X0262618Y0056893D01*
X0262632Y0057045D01*
X0262650Y0057198D01*
X0262672Y0057349D01*
X0262697Y0057500D01*
X0262727Y0057651D01*
X0262761Y0057801D01*
X0262798Y0057949D01*
X0262839Y0058097D01*
X0262884Y0058243D01*
X0262933Y0058389D01*
X0262986Y0058533D01*
X0263042Y0058675D01*
X0263102Y0058816D01*
X0263166Y0058956D01*
X0263233Y0059094D01*
X0263304Y0059230D01*
X0263379Y0059364D01*
X0263456Y0059496D01*
X0263538Y0059626D01*
X0263622Y0059754D01*
X0263710Y0059880D01*
X0263801Y0060003D01*
X0263895Y0060124D01*
X0263993Y0060242D01*
X0264093Y0060358D01*
X0264197Y0060471D01*
X0264303Y0060582D01*
X0264412Y0060690D01*
X0264524Y0060795D01*
X0264638Y0060896D01*
X0264756Y0060995D01*
X0264875Y0061091D01*
X0264997Y0061184D01*
X0265122Y0061273D01*
X0265249Y0061360D01*
X0265378Y0061442D01*
X0265509Y0061522D01*
X0265642Y0061598D01*
X0265777Y0061671D01*
X0265914Y0061740D01*
X0266053Y0061805D01*
X0266193Y0061867D01*
X0266335Y0061925D01*
X0266478Y0061980D01*
X0266623Y0062031D01*
X0266769Y0062078D01*
X0266916Y0062121D01*
X0267064Y0062160D01*
X0267213Y0062196D01*
X0267363Y0062227D01*
X0267514Y0062255D01*
X0267665Y0062279D01*
X0267818Y0062299D01*
X0267970Y0062315D01*
X0268123Y0062327D01*
X0268276Y0062335D01*
X0268429Y0062339D01*
X0268583Y0062339D01*
X0268736Y0062335D01*
X0268889Y0062327D01*
X0269042Y0062315D01*
X0269194Y0062299D01*
X0269347Y0062279D01*
X0269498Y0062255D01*
X0269649Y0062227D01*
X0269799Y0062196D01*
X0269948Y0062160D01*
X0270096Y0062121D01*
X0270243Y0062078D01*
X0270389Y0062031D01*
X0270534Y0061980D01*
X0270677Y0061925D01*
X0270819Y0061867D01*
X0270959Y0061805D01*
X0271098Y0061740D01*
X0271235Y0061671D01*
X0271370Y0061598D01*
X0271503Y0061522D01*
X0271634Y0061442D01*
X0271763Y0061360D01*
X0271890Y0061273D01*
X0272015Y0061184D01*
X0272137Y0061091D01*
X0272256Y0060995D01*
X0272374Y0060896D01*
X0272488Y0060795D01*
X0272600Y0060690D01*
X0272709Y0060582D01*
X0272815Y0060471D01*
X0272919Y0060358D01*
X0273019Y0060242D01*
X0273117Y0060124D01*
X0273211Y0060003D01*
X0273302Y0059880D01*
X0273390Y0059754D01*
X0273474Y0059626D01*
X0273556Y0059496D01*
X0273633Y0059364D01*
X0273708Y0059230D01*
X0273779Y0059094D01*
X0273846Y0058956D01*
X0273910Y0058816D01*
X0273970Y0058675D01*
X0274026Y0058533D01*
X0274079Y0058389D01*
X0274128Y0058243D01*
X0274173Y0058097D01*
X0274214Y0057949D01*
X0274251Y0057801D01*
X0274285Y0057651D01*
X0274315Y0057500D01*
X0274340Y0057349D01*
X0274362Y0057198D01*
X0274380Y0057045D01*
X0274394Y0056893D01*
X0274404Y0056740D01*
X0274410Y0056586D01*
X0274412Y0056433D01*
X0274410Y0056280D01*
X0274404Y0056126D01*
X0274394Y0055973D01*
X0274380Y0055821D01*
X0274362Y0055668D01*
X0274340Y0055517D01*
X0274315Y0055366D01*
X0274285Y0055215D01*
X0274251Y0055065D01*
X0274214Y0054917D01*
X0274173Y0054769D01*
X0274128Y0054623D01*
X0274079Y0054477D01*
X0274026Y0054333D01*
X0273970Y0054191D01*
X0273910Y0054050D01*
X0273846Y0053910D01*
X0273779Y0053772D01*
X0273708Y0053636D01*
X0273633Y0053502D01*
X0273556Y0053370D01*
X0273474Y0053240D01*
X0273390Y0053112D01*
X0273302Y0052986D01*
X0273211Y0052863D01*
X0273117Y0052742D01*
X0273019Y0052624D01*
X0272919Y0052508D01*
X0272815Y0052395D01*
X0272709Y0052284D01*
X0272600Y0052176D01*
X0272488Y0052071D01*
X0272374Y0051970D01*
X0272256Y0051871D01*
X0272137Y0051775D01*
X0272015Y0051682D01*
X0271890Y0051593D01*
X0271763Y0051506D01*
X0271634Y0051424D01*
X0271503Y0051344D01*
X0271370Y0051268D01*
X0271235Y0051195D01*
X0271098Y0051126D01*
X0270959Y0051061D01*
X0270819Y0050999D01*
X0270677Y0050941D01*
X0270534Y0050886D01*
X0270389Y0050835D01*
X0270243Y0050788D01*
X0270096Y0050745D01*
X0269948Y0050706D01*
X0269799Y0050670D01*
X0269649Y0050639D01*
X0269498Y0050611D01*
X0269347Y0050587D01*
X0269194Y0050567D01*
X0269042Y0050551D01*
X0268889Y0050539D01*
X0268736Y0050531D01*
X0268583Y0050527D01*
X0268429Y0050527D01*
X0268276Y0050531D01*
X0268123Y0050539D01*
X0267970Y0050551D01*
X0267818Y0050567D01*
X0267665Y0050587D01*
X0267514Y0050611D01*
X0267363Y0050639D01*
X0267213Y0050670D01*
X0267064Y0050706D01*
X0266916Y0050745D01*
X0266769Y0050788D01*
X0266623Y0050835D01*
X0266478Y0050886D01*
X0266335Y0050941D01*
X0266193Y0050999D01*
X0266053Y0051061D01*
X0265914Y0051126D01*
X0265777Y0051195D01*
X0265642Y0051268D01*
X0265509Y0051344D01*
X0265378Y0051424D01*
X0265249Y0051506D01*
X0265122Y0051593D01*
X0264997Y0051682D01*
X0264875Y0051775D01*
X0264756Y0051871D01*
X0264638Y0051970D01*
X0264524Y0052071D01*
X0264412Y0052176D01*
X0264303Y0052284D01*
X0264197Y0052395D01*
X0264093Y0052508D01*
X0263993Y0052624D01*
X0263895Y0052742D01*
X0263801Y0052863D01*
X0263710Y0052986D01*
X0263622Y0053112D01*
X0263538Y0053240D01*
X0263456Y0053370D01*
X0263379Y0053502D01*
X0263304Y0053636D01*
X0263233Y0053772D01*
X0263166Y0053910D01*
X0263102Y0054050D01*
X0263042Y0054191D01*
X0262986Y0054333D01*
X0262933Y0054477D01*
X0262884Y0054623D01*
X0262839Y0054769D01*
X0262798Y0054917D01*
X0262761Y0055065D01*
X0262727Y0055215D01*
X0262697Y0055366D01*
X0262672Y0055517D01*
X0262650Y0055668D01*
X0262632Y0055821D01*
X0262618Y0055973D01*
X0262608Y0056126D01*
X0262602Y0056280D01*
X0262600Y0056433D01*
X0197600Y0056433D02*
X0197602Y0056586D01*
X0197608Y0056740D01*
X0197618Y0056893D01*
X0197632Y0057045D01*
X0197650Y0057198D01*
X0197672Y0057349D01*
X0197697Y0057500D01*
X0197727Y0057651D01*
X0197761Y0057801D01*
X0197798Y0057949D01*
X0197839Y0058097D01*
X0197884Y0058243D01*
X0197933Y0058389D01*
X0197986Y0058533D01*
X0198042Y0058675D01*
X0198102Y0058816D01*
X0198166Y0058956D01*
X0198233Y0059094D01*
X0198304Y0059230D01*
X0198379Y0059364D01*
X0198456Y0059496D01*
X0198538Y0059626D01*
X0198622Y0059754D01*
X0198710Y0059880D01*
X0198801Y0060003D01*
X0198895Y0060124D01*
X0198993Y0060242D01*
X0199093Y0060358D01*
X0199197Y0060471D01*
X0199303Y0060582D01*
X0199412Y0060690D01*
X0199524Y0060795D01*
X0199638Y0060896D01*
X0199756Y0060995D01*
X0199875Y0061091D01*
X0199997Y0061184D01*
X0200122Y0061273D01*
X0200249Y0061360D01*
X0200378Y0061442D01*
X0200509Y0061522D01*
X0200642Y0061598D01*
X0200777Y0061671D01*
X0200914Y0061740D01*
X0201053Y0061805D01*
X0201193Y0061867D01*
X0201335Y0061925D01*
X0201478Y0061980D01*
X0201623Y0062031D01*
X0201769Y0062078D01*
X0201916Y0062121D01*
X0202064Y0062160D01*
X0202213Y0062196D01*
X0202363Y0062227D01*
X0202514Y0062255D01*
X0202665Y0062279D01*
X0202818Y0062299D01*
X0202970Y0062315D01*
X0203123Y0062327D01*
X0203276Y0062335D01*
X0203429Y0062339D01*
X0203583Y0062339D01*
X0203736Y0062335D01*
X0203889Y0062327D01*
X0204042Y0062315D01*
X0204194Y0062299D01*
X0204347Y0062279D01*
X0204498Y0062255D01*
X0204649Y0062227D01*
X0204799Y0062196D01*
X0204948Y0062160D01*
X0205096Y0062121D01*
X0205243Y0062078D01*
X0205389Y0062031D01*
X0205534Y0061980D01*
X0205677Y0061925D01*
X0205819Y0061867D01*
X0205959Y0061805D01*
X0206098Y0061740D01*
X0206235Y0061671D01*
X0206370Y0061598D01*
X0206503Y0061522D01*
X0206634Y0061442D01*
X0206763Y0061360D01*
X0206890Y0061273D01*
X0207015Y0061184D01*
X0207137Y0061091D01*
X0207256Y0060995D01*
X0207374Y0060896D01*
X0207488Y0060795D01*
X0207600Y0060690D01*
X0207709Y0060582D01*
X0207815Y0060471D01*
X0207919Y0060358D01*
X0208019Y0060242D01*
X0208117Y0060124D01*
X0208211Y0060003D01*
X0208302Y0059880D01*
X0208390Y0059754D01*
X0208474Y0059626D01*
X0208556Y0059496D01*
X0208633Y0059364D01*
X0208708Y0059230D01*
X0208779Y0059094D01*
X0208846Y0058956D01*
X0208910Y0058816D01*
X0208970Y0058675D01*
X0209026Y0058533D01*
X0209079Y0058389D01*
X0209128Y0058243D01*
X0209173Y0058097D01*
X0209214Y0057949D01*
X0209251Y0057801D01*
X0209285Y0057651D01*
X0209315Y0057500D01*
X0209340Y0057349D01*
X0209362Y0057198D01*
X0209380Y0057045D01*
X0209394Y0056893D01*
X0209404Y0056740D01*
X0209410Y0056586D01*
X0209412Y0056433D01*
X0209410Y0056280D01*
X0209404Y0056126D01*
X0209394Y0055973D01*
X0209380Y0055821D01*
X0209362Y0055668D01*
X0209340Y0055517D01*
X0209315Y0055366D01*
X0209285Y0055215D01*
X0209251Y0055065D01*
X0209214Y0054917D01*
X0209173Y0054769D01*
X0209128Y0054623D01*
X0209079Y0054477D01*
X0209026Y0054333D01*
X0208970Y0054191D01*
X0208910Y0054050D01*
X0208846Y0053910D01*
X0208779Y0053772D01*
X0208708Y0053636D01*
X0208633Y0053502D01*
X0208556Y0053370D01*
X0208474Y0053240D01*
X0208390Y0053112D01*
X0208302Y0052986D01*
X0208211Y0052863D01*
X0208117Y0052742D01*
X0208019Y0052624D01*
X0207919Y0052508D01*
X0207815Y0052395D01*
X0207709Y0052284D01*
X0207600Y0052176D01*
X0207488Y0052071D01*
X0207374Y0051970D01*
X0207256Y0051871D01*
X0207137Y0051775D01*
X0207015Y0051682D01*
X0206890Y0051593D01*
X0206763Y0051506D01*
X0206634Y0051424D01*
X0206503Y0051344D01*
X0206370Y0051268D01*
X0206235Y0051195D01*
X0206098Y0051126D01*
X0205959Y0051061D01*
X0205819Y0050999D01*
X0205677Y0050941D01*
X0205534Y0050886D01*
X0205389Y0050835D01*
X0205243Y0050788D01*
X0205096Y0050745D01*
X0204948Y0050706D01*
X0204799Y0050670D01*
X0204649Y0050639D01*
X0204498Y0050611D01*
X0204347Y0050587D01*
X0204194Y0050567D01*
X0204042Y0050551D01*
X0203889Y0050539D01*
X0203736Y0050531D01*
X0203583Y0050527D01*
X0203429Y0050527D01*
X0203276Y0050531D01*
X0203123Y0050539D01*
X0202970Y0050551D01*
X0202818Y0050567D01*
X0202665Y0050587D01*
X0202514Y0050611D01*
X0202363Y0050639D01*
X0202213Y0050670D01*
X0202064Y0050706D01*
X0201916Y0050745D01*
X0201769Y0050788D01*
X0201623Y0050835D01*
X0201478Y0050886D01*
X0201335Y0050941D01*
X0201193Y0050999D01*
X0201053Y0051061D01*
X0200914Y0051126D01*
X0200777Y0051195D01*
X0200642Y0051268D01*
X0200509Y0051344D01*
X0200378Y0051424D01*
X0200249Y0051506D01*
X0200122Y0051593D01*
X0199997Y0051682D01*
X0199875Y0051775D01*
X0199756Y0051871D01*
X0199638Y0051970D01*
X0199524Y0052071D01*
X0199412Y0052176D01*
X0199303Y0052284D01*
X0199197Y0052395D01*
X0199093Y0052508D01*
X0198993Y0052624D01*
X0198895Y0052742D01*
X0198801Y0052863D01*
X0198710Y0052986D01*
X0198622Y0053112D01*
X0198538Y0053240D01*
X0198456Y0053370D01*
X0198379Y0053502D01*
X0198304Y0053636D01*
X0198233Y0053772D01*
X0198166Y0053910D01*
X0198102Y0054050D01*
X0198042Y0054191D01*
X0197986Y0054333D01*
X0197933Y0054477D01*
X0197884Y0054623D01*
X0197839Y0054769D01*
X0197798Y0054917D01*
X0197761Y0055065D01*
X0197727Y0055215D01*
X0197697Y0055366D01*
X0197672Y0055517D01*
X0197650Y0055668D01*
X0197632Y0055821D01*
X0197618Y0055973D01*
X0197608Y0056126D01*
X0197602Y0056280D01*
X0197600Y0056433D01*
X0112600Y0056433D02*
X0112602Y0056586D01*
X0112608Y0056740D01*
X0112618Y0056893D01*
X0112632Y0057045D01*
X0112650Y0057198D01*
X0112672Y0057349D01*
X0112697Y0057500D01*
X0112727Y0057651D01*
X0112761Y0057801D01*
X0112798Y0057949D01*
X0112839Y0058097D01*
X0112884Y0058243D01*
X0112933Y0058389D01*
X0112986Y0058533D01*
X0113042Y0058675D01*
X0113102Y0058816D01*
X0113166Y0058956D01*
X0113233Y0059094D01*
X0113304Y0059230D01*
X0113379Y0059364D01*
X0113456Y0059496D01*
X0113538Y0059626D01*
X0113622Y0059754D01*
X0113710Y0059880D01*
X0113801Y0060003D01*
X0113895Y0060124D01*
X0113993Y0060242D01*
X0114093Y0060358D01*
X0114197Y0060471D01*
X0114303Y0060582D01*
X0114412Y0060690D01*
X0114524Y0060795D01*
X0114638Y0060896D01*
X0114756Y0060995D01*
X0114875Y0061091D01*
X0114997Y0061184D01*
X0115122Y0061273D01*
X0115249Y0061360D01*
X0115378Y0061442D01*
X0115509Y0061522D01*
X0115642Y0061598D01*
X0115777Y0061671D01*
X0115914Y0061740D01*
X0116053Y0061805D01*
X0116193Y0061867D01*
X0116335Y0061925D01*
X0116478Y0061980D01*
X0116623Y0062031D01*
X0116769Y0062078D01*
X0116916Y0062121D01*
X0117064Y0062160D01*
X0117213Y0062196D01*
X0117363Y0062227D01*
X0117514Y0062255D01*
X0117665Y0062279D01*
X0117818Y0062299D01*
X0117970Y0062315D01*
X0118123Y0062327D01*
X0118276Y0062335D01*
X0118429Y0062339D01*
X0118583Y0062339D01*
X0118736Y0062335D01*
X0118889Y0062327D01*
X0119042Y0062315D01*
X0119194Y0062299D01*
X0119347Y0062279D01*
X0119498Y0062255D01*
X0119649Y0062227D01*
X0119799Y0062196D01*
X0119948Y0062160D01*
X0120096Y0062121D01*
X0120243Y0062078D01*
X0120389Y0062031D01*
X0120534Y0061980D01*
X0120677Y0061925D01*
X0120819Y0061867D01*
X0120959Y0061805D01*
X0121098Y0061740D01*
X0121235Y0061671D01*
X0121370Y0061598D01*
X0121503Y0061522D01*
X0121634Y0061442D01*
X0121763Y0061360D01*
X0121890Y0061273D01*
X0122015Y0061184D01*
X0122137Y0061091D01*
X0122256Y0060995D01*
X0122374Y0060896D01*
X0122488Y0060795D01*
X0122600Y0060690D01*
X0122709Y0060582D01*
X0122815Y0060471D01*
X0122919Y0060358D01*
X0123019Y0060242D01*
X0123117Y0060124D01*
X0123211Y0060003D01*
X0123302Y0059880D01*
X0123390Y0059754D01*
X0123474Y0059626D01*
X0123556Y0059496D01*
X0123633Y0059364D01*
X0123708Y0059230D01*
X0123779Y0059094D01*
X0123846Y0058956D01*
X0123910Y0058816D01*
X0123970Y0058675D01*
X0124026Y0058533D01*
X0124079Y0058389D01*
X0124128Y0058243D01*
X0124173Y0058097D01*
X0124214Y0057949D01*
X0124251Y0057801D01*
X0124285Y0057651D01*
X0124315Y0057500D01*
X0124340Y0057349D01*
X0124362Y0057198D01*
X0124380Y0057045D01*
X0124394Y0056893D01*
X0124404Y0056740D01*
X0124410Y0056586D01*
X0124412Y0056433D01*
X0124410Y0056280D01*
X0124404Y0056126D01*
X0124394Y0055973D01*
X0124380Y0055821D01*
X0124362Y0055668D01*
X0124340Y0055517D01*
X0124315Y0055366D01*
X0124285Y0055215D01*
X0124251Y0055065D01*
X0124214Y0054917D01*
X0124173Y0054769D01*
X0124128Y0054623D01*
X0124079Y0054477D01*
X0124026Y0054333D01*
X0123970Y0054191D01*
X0123910Y0054050D01*
X0123846Y0053910D01*
X0123779Y0053772D01*
X0123708Y0053636D01*
X0123633Y0053502D01*
X0123556Y0053370D01*
X0123474Y0053240D01*
X0123390Y0053112D01*
X0123302Y0052986D01*
X0123211Y0052863D01*
X0123117Y0052742D01*
X0123019Y0052624D01*
X0122919Y0052508D01*
X0122815Y0052395D01*
X0122709Y0052284D01*
X0122600Y0052176D01*
X0122488Y0052071D01*
X0122374Y0051970D01*
X0122256Y0051871D01*
X0122137Y0051775D01*
X0122015Y0051682D01*
X0121890Y0051593D01*
X0121763Y0051506D01*
X0121634Y0051424D01*
X0121503Y0051344D01*
X0121370Y0051268D01*
X0121235Y0051195D01*
X0121098Y0051126D01*
X0120959Y0051061D01*
X0120819Y0050999D01*
X0120677Y0050941D01*
X0120534Y0050886D01*
X0120389Y0050835D01*
X0120243Y0050788D01*
X0120096Y0050745D01*
X0119948Y0050706D01*
X0119799Y0050670D01*
X0119649Y0050639D01*
X0119498Y0050611D01*
X0119347Y0050587D01*
X0119194Y0050567D01*
X0119042Y0050551D01*
X0118889Y0050539D01*
X0118736Y0050531D01*
X0118583Y0050527D01*
X0118429Y0050527D01*
X0118276Y0050531D01*
X0118123Y0050539D01*
X0117970Y0050551D01*
X0117818Y0050567D01*
X0117665Y0050587D01*
X0117514Y0050611D01*
X0117363Y0050639D01*
X0117213Y0050670D01*
X0117064Y0050706D01*
X0116916Y0050745D01*
X0116769Y0050788D01*
X0116623Y0050835D01*
X0116478Y0050886D01*
X0116335Y0050941D01*
X0116193Y0050999D01*
X0116053Y0051061D01*
X0115914Y0051126D01*
X0115777Y0051195D01*
X0115642Y0051268D01*
X0115509Y0051344D01*
X0115378Y0051424D01*
X0115249Y0051506D01*
X0115122Y0051593D01*
X0114997Y0051682D01*
X0114875Y0051775D01*
X0114756Y0051871D01*
X0114638Y0051970D01*
X0114524Y0052071D01*
X0114412Y0052176D01*
X0114303Y0052284D01*
X0114197Y0052395D01*
X0114093Y0052508D01*
X0113993Y0052624D01*
X0113895Y0052742D01*
X0113801Y0052863D01*
X0113710Y0052986D01*
X0113622Y0053112D01*
X0113538Y0053240D01*
X0113456Y0053370D01*
X0113379Y0053502D01*
X0113304Y0053636D01*
X0113233Y0053772D01*
X0113166Y0053910D01*
X0113102Y0054050D01*
X0113042Y0054191D01*
X0112986Y0054333D01*
X0112933Y0054477D01*
X0112884Y0054623D01*
X0112839Y0054769D01*
X0112798Y0054917D01*
X0112761Y0055065D01*
X0112727Y0055215D01*
X0112697Y0055366D01*
X0112672Y0055517D01*
X0112650Y0055668D01*
X0112632Y0055821D01*
X0112618Y0055973D01*
X0112608Y0056126D01*
X0112602Y0056280D01*
X0112600Y0056433D01*
X0047600Y0056433D02*
X0047602Y0056586D01*
X0047608Y0056740D01*
X0047618Y0056893D01*
X0047632Y0057045D01*
X0047650Y0057198D01*
X0047672Y0057349D01*
X0047697Y0057500D01*
X0047727Y0057651D01*
X0047761Y0057801D01*
X0047798Y0057949D01*
X0047839Y0058097D01*
X0047884Y0058243D01*
X0047933Y0058389D01*
X0047986Y0058533D01*
X0048042Y0058675D01*
X0048102Y0058816D01*
X0048166Y0058956D01*
X0048233Y0059094D01*
X0048304Y0059230D01*
X0048379Y0059364D01*
X0048456Y0059496D01*
X0048538Y0059626D01*
X0048622Y0059754D01*
X0048710Y0059880D01*
X0048801Y0060003D01*
X0048895Y0060124D01*
X0048993Y0060242D01*
X0049093Y0060358D01*
X0049197Y0060471D01*
X0049303Y0060582D01*
X0049412Y0060690D01*
X0049524Y0060795D01*
X0049638Y0060896D01*
X0049756Y0060995D01*
X0049875Y0061091D01*
X0049997Y0061184D01*
X0050122Y0061273D01*
X0050249Y0061360D01*
X0050378Y0061442D01*
X0050509Y0061522D01*
X0050642Y0061598D01*
X0050777Y0061671D01*
X0050914Y0061740D01*
X0051053Y0061805D01*
X0051193Y0061867D01*
X0051335Y0061925D01*
X0051478Y0061980D01*
X0051623Y0062031D01*
X0051769Y0062078D01*
X0051916Y0062121D01*
X0052064Y0062160D01*
X0052213Y0062196D01*
X0052363Y0062227D01*
X0052514Y0062255D01*
X0052665Y0062279D01*
X0052818Y0062299D01*
X0052970Y0062315D01*
X0053123Y0062327D01*
X0053276Y0062335D01*
X0053429Y0062339D01*
X0053583Y0062339D01*
X0053736Y0062335D01*
X0053889Y0062327D01*
X0054042Y0062315D01*
X0054194Y0062299D01*
X0054347Y0062279D01*
X0054498Y0062255D01*
X0054649Y0062227D01*
X0054799Y0062196D01*
X0054948Y0062160D01*
X0055096Y0062121D01*
X0055243Y0062078D01*
X0055389Y0062031D01*
X0055534Y0061980D01*
X0055677Y0061925D01*
X0055819Y0061867D01*
X0055959Y0061805D01*
X0056098Y0061740D01*
X0056235Y0061671D01*
X0056370Y0061598D01*
X0056503Y0061522D01*
X0056634Y0061442D01*
X0056763Y0061360D01*
X0056890Y0061273D01*
X0057015Y0061184D01*
X0057137Y0061091D01*
X0057256Y0060995D01*
X0057374Y0060896D01*
X0057488Y0060795D01*
X0057600Y0060690D01*
X0057709Y0060582D01*
X0057815Y0060471D01*
X0057919Y0060358D01*
X0058019Y0060242D01*
X0058117Y0060124D01*
X0058211Y0060003D01*
X0058302Y0059880D01*
X0058390Y0059754D01*
X0058474Y0059626D01*
X0058556Y0059496D01*
X0058633Y0059364D01*
X0058708Y0059230D01*
X0058779Y0059094D01*
X0058846Y0058956D01*
X0058910Y0058816D01*
X0058970Y0058675D01*
X0059026Y0058533D01*
X0059079Y0058389D01*
X0059128Y0058243D01*
X0059173Y0058097D01*
X0059214Y0057949D01*
X0059251Y0057801D01*
X0059285Y0057651D01*
X0059315Y0057500D01*
X0059340Y0057349D01*
X0059362Y0057198D01*
X0059380Y0057045D01*
X0059394Y0056893D01*
X0059404Y0056740D01*
X0059410Y0056586D01*
X0059412Y0056433D01*
X0059410Y0056280D01*
X0059404Y0056126D01*
X0059394Y0055973D01*
X0059380Y0055821D01*
X0059362Y0055668D01*
X0059340Y0055517D01*
X0059315Y0055366D01*
X0059285Y0055215D01*
X0059251Y0055065D01*
X0059214Y0054917D01*
X0059173Y0054769D01*
X0059128Y0054623D01*
X0059079Y0054477D01*
X0059026Y0054333D01*
X0058970Y0054191D01*
X0058910Y0054050D01*
X0058846Y0053910D01*
X0058779Y0053772D01*
X0058708Y0053636D01*
X0058633Y0053502D01*
X0058556Y0053370D01*
X0058474Y0053240D01*
X0058390Y0053112D01*
X0058302Y0052986D01*
X0058211Y0052863D01*
X0058117Y0052742D01*
X0058019Y0052624D01*
X0057919Y0052508D01*
X0057815Y0052395D01*
X0057709Y0052284D01*
X0057600Y0052176D01*
X0057488Y0052071D01*
X0057374Y0051970D01*
X0057256Y0051871D01*
X0057137Y0051775D01*
X0057015Y0051682D01*
X0056890Y0051593D01*
X0056763Y0051506D01*
X0056634Y0051424D01*
X0056503Y0051344D01*
X0056370Y0051268D01*
X0056235Y0051195D01*
X0056098Y0051126D01*
X0055959Y0051061D01*
X0055819Y0050999D01*
X0055677Y0050941D01*
X0055534Y0050886D01*
X0055389Y0050835D01*
X0055243Y0050788D01*
X0055096Y0050745D01*
X0054948Y0050706D01*
X0054799Y0050670D01*
X0054649Y0050639D01*
X0054498Y0050611D01*
X0054347Y0050587D01*
X0054194Y0050567D01*
X0054042Y0050551D01*
X0053889Y0050539D01*
X0053736Y0050531D01*
X0053583Y0050527D01*
X0053429Y0050527D01*
X0053276Y0050531D01*
X0053123Y0050539D01*
X0052970Y0050551D01*
X0052818Y0050567D01*
X0052665Y0050587D01*
X0052514Y0050611D01*
X0052363Y0050639D01*
X0052213Y0050670D01*
X0052064Y0050706D01*
X0051916Y0050745D01*
X0051769Y0050788D01*
X0051623Y0050835D01*
X0051478Y0050886D01*
X0051335Y0050941D01*
X0051193Y0050999D01*
X0051053Y0051061D01*
X0050914Y0051126D01*
X0050777Y0051195D01*
X0050642Y0051268D01*
X0050509Y0051344D01*
X0050378Y0051424D01*
X0050249Y0051506D01*
X0050122Y0051593D01*
X0049997Y0051682D01*
X0049875Y0051775D01*
X0049756Y0051871D01*
X0049638Y0051970D01*
X0049524Y0052071D01*
X0049412Y0052176D01*
X0049303Y0052284D01*
X0049197Y0052395D01*
X0049093Y0052508D01*
X0048993Y0052624D01*
X0048895Y0052742D01*
X0048801Y0052863D01*
X0048710Y0052986D01*
X0048622Y0053112D01*
X0048538Y0053240D01*
X0048456Y0053370D01*
X0048379Y0053502D01*
X0048304Y0053636D01*
X0048233Y0053772D01*
X0048166Y0053910D01*
X0048102Y0054050D01*
X0048042Y0054191D01*
X0047986Y0054333D01*
X0047933Y0054477D01*
X0047884Y0054623D01*
X0047839Y0054769D01*
X0047798Y0054917D01*
X0047761Y0055065D01*
X0047727Y0055215D01*
X0047697Y0055366D01*
X0047672Y0055517D01*
X0047650Y0055668D01*
X0047632Y0055821D01*
X0047618Y0055973D01*
X0047608Y0056126D01*
X0047602Y0056280D01*
X0047600Y0056433D01*
X0038113Y0138126D02*
X0032404Y0138126D01*
X0032404Y0148559D01*
X0023939Y0148559D01*
X0020987Y0145606D01*
X0006026Y0145606D01*
X0006026Y0148953D01*
X0001400Y0148953D01*
X0001400Y0163913D01*
X0006026Y0163913D01*
X0006026Y0167260D01*
X0020987Y0167260D01*
X0023939Y0164307D01*
X0032404Y0164307D01*
X0032404Y0174740D01*
X0038113Y0174740D01*
X0038113Y0171591D02*
X0038113Y0141276D01*
X0047600Y0201433D02*
X0047602Y0201586D01*
X0047608Y0201740D01*
X0047618Y0201893D01*
X0047632Y0202045D01*
X0047650Y0202198D01*
X0047672Y0202349D01*
X0047697Y0202500D01*
X0047727Y0202651D01*
X0047761Y0202801D01*
X0047798Y0202949D01*
X0047839Y0203097D01*
X0047884Y0203243D01*
X0047933Y0203389D01*
X0047986Y0203533D01*
X0048042Y0203675D01*
X0048102Y0203816D01*
X0048166Y0203956D01*
X0048233Y0204094D01*
X0048304Y0204230D01*
X0048379Y0204364D01*
X0048456Y0204496D01*
X0048538Y0204626D01*
X0048622Y0204754D01*
X0048710Y0204880D01*
X0048801Y0205003D01*
X0048895Y0205124D01*
X0048993Y0205242D01*
X0049093Y0205358D01*
X0049197Y0205471D01*
X0049303Y0205582D01*
X0049412Y0205690D01*
X0049524Y0205795D01*
X0049638Y0205896D01*
X0049756Y0205995D01*
X0049875Y0206091D01*
X0049997Y0206184D01*
X0050122Y0206273D01*
X0050249Y0206360D01*
X0050378Y0206442D01*
X0050509Y0206522D01*
X0050642Y0206598D01*
X0050777Y0206671D01*
X0050914Y0206740D01*
X0051053Y0206805D01*
X0051193Y0206867D01*
X0051335Y0206925D01*
X0051478Y0206980D01*
X0051623Y0207031D01*
X0051769Y0207078D01*
X0051916Y0207121D01*
X0052064Y0207160D01*
X0052213Y0207196D01*
X0052363Y0207227D01*
X0052514Y0207255D01*
X0052665Y0207279D01*
X0052818Y0207299D01*
X0052970Y0207315D01*
X0053123Y0207327D01*
X0053276Y0207335D01*
X0053429Y0207339D01*
X0053583Y0207339D01*
X0053736Y0207335D01*
X0053889Y0207327D01*
X0054042Y0207315D01*
X0054194Y0207299D01*
X0054347Y0207279D01*
X0054498Y0207255D01*
X0054649Y0207227D01*
X0054799Y0207196D01*
X0054948Y0207160D01*
X0055096Y0207121D01*
X0055243Y0207078D01*
X0055389Y0207031D01*
X0055534Y0206980D01*
X0055677Y0206925D01*
X0055819Y0206867D01*
X0055959Y0206805D01*
X0056098Y0206740D01*
X0056235Y0206671D01*
X0056370Y0206598D01*
X0056503Y0206522D01*
X0056634Y0206442D01*
X0056763Y0206360D01*
X0056890Y0206273D01*
X0057015Y0206184D01*
X0057137Y0206091D01*
X0057256Y0205995D01*
X0057374Y0205896D01*
X0057488Y0205795D01*
X0057600Y0205690D01*
X0057709Y0205582D01*
X0057815Y0205471D01*
X0057919Y0205358D01*
X0058019Y0205242D01*
X0058117Y0205124D01*
X0058211Y0205003D01*
X0058302Y0204880D01*
X0058390Y0204754D01*
X0058474Y0204626D01*
X0058556Y0204496D01*
X0058633Y0204364D01*
X0058708Y0204230D01*
X0058779Y0204094D01*
X0058846Y0203956D01*
X0058910Y0203816D01*
X0058970Y0203675D01*
X0059026Y0203533D01*
X0059079Y0203389D01*
X0059128Y0203243D01*
X0059173Y0203097D01*
X0059214Y0202949D01*
X0059251Y0202801D01*
X0059285Y0202651D01*
X0059315Y0202500D01*
X0059340Y0202349D01*
X0059362Y0202198D01*
X0059380Y0202045D01*
X0059394Y0201893D01*
X0059404Y0201740D01*
X0059410Y0201586D01*
X0059412Y0201433D01*
X0059410Y0201280D01*
X0059404Y0201126D01*
X0059394Y0200973D01*
X0059380Y0200821D01*
X0059362Y0200668D01*
X0059340Y0200517D01*
X0059315Y0200366D01*
X0059285Y0200215D01*
X0059251Y0200065D01*
X0059214Y0199917D01*
X0059173Y0199769D01*
X0059128Y0199623D01*
X0059079Y0199477D01*
X0059026Y0199333D01*
X0058970Y0199191D01*
X0058910Y0199050D01*
X0058846Y0198910D01*
X0058779Y0198772D01*
X0058708Y0198636D01*
X0058633Y0198502D01*
X0058556Y0198370D01*
X0058474Y0198240D01*
X0058390Y0198112D01*
X0058302Y0197986D01*
X0058211Y0197863D01*
X0058117Y0197742D01*
X0058019Y0197624D01*
X0057919Y0197508D01*
X0057815Y0197395D01*
X0057709Y0197284D01*
X0057600Y0197176D01*
X0057488Y0197071D01*
X0057374Y0196970D01*
X0057256Y0196871D01*
X0057137Y0196775D01*
X0057015Y0196682D01*
X0056890Y0196593D01*
X0056763Y0196506D01*
X0056634Y0196424D01*
X0056503Y0196344D01*
X0056370Y0196268D01*
X0056235Y0196195D01*
X0056098Y0196126D01*
X0055959Y0196061D01*
X0055819Y0195999D01*
X0055677Y0195941D01*
X0055534Y0195886D01*
X0055389Y0195835D01*
X0055243Y0195788D01*
X0055096Y0195745D01*
X0054948Y0195706D01*
X0054799Y0195670D01*
X0054649Y0195639D01*
X0054498Y0195611D01*
X0054347Y0195587D01*
X0054194Y0195567D01*
X0054042Y0195551D01*
X0053889Y0195539D01*
X0053736Y0195531D01*
X0053583Y0195527D01*
X0053429Y0195527D01*
X0053276Y0195531D01*
X0053123Y0195539D01*
X0052970Y0195551D01*
X0052818Y0195567D01*
X0052665Y0195587D01*
X0052514Y0195611D01*
X0052363Y0195639D01*
X0052213Y0195670D01*
X0052064Y0195706D01*
X0051916Y0195745D01*
X0051769Y0195788D01*
X0051623Y0195835D01*
X0051478Y0195886D01*
X0051335Y0195941D01*
X0051193Y0195999D01*
X0051053Y0196061D01*
X0050914Y0196126D01*
X0050777Y0196195D01*
X0050642Y0196268D01*
X0050509Y0196344D01*
X0050378Y0196424D01*
X0050249Y0196506D01*
X0050122Y0196593D01*
X0049997Y0196682D01*
X0049875Y0196775D01*
X0049756Y0196871D01*
X0049638Y0196970D01*
X0049524Y0197071D01*
X0049412Y0197176D01*
X0049303Y0197284D01*
X0049197Y0197395D01*
X0049093Y0197508D01*
X0048993Y0197624D01*
X0048895Y0197742D01*
X0048801Y0197863D01*
X0048710Y0197986D01*
X0048622Y0198112D01*
X0048538Y0198240D01*
X0048456Y0198370D01*
X0048379Y0198502D01*
X0048304Y0198636D01*
X0048233Y0198772D01*
X0048166Y0198910D01*
X0048102Y0199050D01*
X0048042Y0199191D01*
X0047986Y0199333D01*
X0047933Y0199477D01*
X0047884Y0199623D01*
X0047839Y0199769D01*
X0047798Y0199917D01*
X0047761Y0200065D01*
X0047727Y0200215D01*
X0047697Y0200366D01*
X0047672Y0200517D01*
X0047650Y0200668D01*
X0047632Y0200821D01*
X0047618Y0200973D01*
X0047608Y0201126D01*
X0047602Y0201280D01*
X0047600Y0201433D01*
X0112600Y0201433D02*
X0112602Y0201586D01*
X0112608Y0201740D01*
X0112618Y0201893D01*
X0112632Y0202045D01*
X0112650Y0202198D01*
X0112672Y0202349D01*
X0112697Y0202500D01*
X0112727Y0202651D01*
X0112761Y0202801D01*
X0112798Y0202949D01*
X0112839Y0203097D01*
X0112884Y0203243D01*
X0112933Y0203389D01*
X0112986Y0203533D01*
X0113042Y0203675D01*
X0113102Y0203816D01*
X0113166Y0203956D01*
X0113233Y0204094D01*
X0113304Y0204230D01*
X0113379Y0204364D01*
X0113456Y0204496D01*
X0113538Y0204626D01*
X0113622Y0204754D01*
X0113710Y0204880D01*
X0113801Y0205003D01*
X0113895Y0205124D01*
X0113993Y0205242D01*
X0114093Y0205358D01*
X0114197Y0205471D01*
X0114303Y0205582D01*
X0114412Y0205690D01*
X0114524Y0205795D01*
X0114638Y0205896D01*
X0114756Y0205995D01*
X0114875Y0206091D01*
X0114997Y0206184D01*
X0115122Y0206273D01*
X0115249Y0206360D01*
X0115378Y0206442D01*
X0115509Y0206522D01*
X0115642Y0206598D01*
X0115777Y0206671D01*
X0115914Y0206740D01*
X0116053Y0206805D01*
X0116193Y0206867D01*
X0116335Y0206925D01*
X0116478Y0206980D01*
X0116623Y0207031D01*
X0116769Y0207078D01*
X0116916Y0207121D01*
X0117064Y0207160D01*
X0117213Y0207196D01*
X0117363Y0207227D01*
X0117514Y0207255D01*
X0117665Y0207279D01*
X0117818Y0207299D01*
X0117970Y0207315D01*
X0118123Y0207327D01*
X0118276Y0207335D01*
X0118429Y0207339D01*
X0118583Y0207339D01*
X0118736Y0207335D01*
X0118889Y0207327D01*
X0119042Y0207315D01*
X0119194Y0207299D01*
X0119347Y0207279D01*
X0119498Y0207255D01*
X0119649Y0207227D01*
X0119799Y0207196D01*
X0119948Y0207160D01*
X0120096Y0207121D01*
X0120243Y0207078D01*
X0120389Y0207031D01*
X0120534Y0206980D01*
X0120677Y0206925D01*
X0120819Y0206867D01*
X0120959Y0206805D01*
X0121098Y0206740D01*
X0121235Y0206671D01*
X0121370Y0206598D01*
X0121503Y0206522D01*
X0121634Y0206442D01*
X0121763Y0206360D01*
X0121890Y0206273D01*
X0122015Y0206184D01*
X0122137Y0206091D01*
X0122256Y0205995D01*
X0122374Y0205896D01*
X0122488Y0205795D01*
X0122600Y0205690D01*
X0122709Y0205582D01*
X0122815Y0205471D01*
X0122919Y0205358D01*
X0123019Y0205242D01*
X0123117Y0205124D01*
X0123211Y0205003D01*
X0123302Y0204880D01*
X0123390Y0204754D01*
X0123474Y0204626D01*
X0123556Y0204496D01*
X0123633Y0204364D01*
X0123708Y0204230D01*
X0123779Y0204094D01*
X0123846Y0203956D01*
X0123910Y0203816D01*
X0123970Y0203675D01*
X0124026Y0203533D01*
X0124079Y0203389D01*
X0124128Y0203243D01*
X0124173Y0203097D01*
X0124214Y0202949D01*
X0124251Y0202801D01*
X0124285Y0202651D01*
X0124315Y0202500D01*
X0124340Y0202349D01*
X0124362Y0202198D01*
X0124380Y0202045D01*
X0124394Y0201893D01*
X0124404Y0201740D01*
X0124410Y0201586D01*
X0124412Y0201433D01*
X0124410Y0201280D01*
X0124404Y0201126D01*
X0124394Y0200973D01*
X0124380Y0200821D01*
X0124362Y0200668D01*
X0124340Y0200517D01*
X0124315Y0200366D01*
X0124285Y0200215D01*
X0124251Y0200065D01*
X0124214Y0199917D01*
X0124173Y0199769D01*
X0124128Y0199623D01*
X0124079Y0199477D01*
X0124026Y0199333D01*
X0123970Y0199191D01*
X0123910Y0199050D01*
X0123846Y0198910D01*
X0123779Y0198772D01*
X0123708Y0198636D01*
X0123633Y0198502D01*
X0123556Y0198370D01*
X0123474Y0198240D01*
X0123390Y0198112D01*
X0123302Y0197986D01*
X0123211Y0197863D01*
X0123117Y0197742D01*
X0123019Y0197624D01*
X0122919Y0197508D01*
X0122815Y0197395D01*
X0122709Y0197284D01*
X0122600Y0197176D01*
X0122488Y0197071D01*
X0122374Y0196970D01*
X0122256Y0196871D01*
X0122137Y0196775D01*
X0122015Y0196682D01*
X0121890Y0196593D01*
X0121763Y0196506D01*
X0121634Y0196424D01*
X0121503Y0196344D01*
X0121370Y0196268D01*
X0121235Y0196195D01*
X0121098Y0196126D01*
X0120959Y0196061D01*
X0120819Y0195999D01*
X0120677Y0195941D01*
X0120534Y0195886D01*
X0120389Y0195835D01*
X0120243Y0195788D01*
X0120096Y0195745D01*
X0119948Y0195706D01*
X0119799Y0195670D01*
X0119649Y0195639D01*
X0119498Y0195611D01*
X0119347Y0195587D01*
X0119194Y0195567D01*
X0119042Y0195551D01*
X0118889Y0195539D01*
X0118736Y0195531D01*
X0118583Y0195527D01*
X0118429Y0195527D01*
X0118276Y0195531D01*
X0118123Y0195539D01*
X0117970Y0195551D01*
X0117818Y0195567D01*
X0117665Y0195587D01*
X0117514Y0195611D01*
X0117363Y0195639D01*
X0117213Y0195670D01*
X0117064Y0195706D01*
X0116916Y0195745D01*
X0116769Y0195788D01*
X0116623Y0195835D01*
X0116478Y0195886D01*
X0116335Y0195941D01*
X0116193Y0195999D01*
X0116053Y0196061D01*
X0115914Y0196126D01*
X0115777Y0196195D01*
X0115642Y0196268D01*
X0115509Y0196344D01*
X0115378Y0196424D01*
X0115249Y0196506D01*
X0115122Y0196593D01*
X0114997Y0196682D01*
X0114875Y0196775D01*
X0114756Y0196871D01*
X0114638Y0196970D01*
X0114524Y0197071D01*
X0114412Y0197176D01*
X0114303Y0197284D01*
X0114197Y0197395D01*
X0114093Y0197508D01*
X0113993Y0197624D01*
X0113895Y0197742D01*
X0113801Y0197863D01*
X0113710Y0197986D01*
X0113622Y0198112D01*
X0113538Y0198240D01*
X0113456Y0198370D01*
X0113379Y0198502D01*
X0113304Y0198636D01*
X0113233Y0198772D01*
X0113166Y0198910D01*
X0113102Y0199050D01*
X0113042Y0199191D01*
X0112986Y0199333D01*
X0112933Y0199477D01*
X0112884Y0199623D01*
X0112839Y0199769D01*
X0112798Y0199917D01*
X0112761Y0200065D01*
X0112727Y0200215D01*
X0112697Y0200366D01*
X0112672Y0200517D01*
X0112650Y0200668D01*
X0112632Y0200821D01*
X0112618Y0200973D01*
X0112608Y0201126D01*
X0112602Y0201280D01*
X0112600Y0201433D01*
X0197600Y0201433D02*
X0197602Y0201586D01*
X0197608Y0201740D01*
X0197618Y0201893D01*
X0197632Y0202045D01*
X0197650Y0202198D01*
X0197672Y0202349D01*
X0197697Y0202500D01*
X0197727Y0202651D01*
X0197761Y0202801D01*
X0197798Y0202949D01*
X0197839Y0203097D01*
X0197884Y0203243D01*
X0197933Y0203389D01*
X0197986Y0203533D01*
X0198042Y0203675D01*
X0198102Y0203816D01*
X0198166Y0203956D01*
X0198233Y0204094D01*
X0198304Y0204230D01*
X0198379Y0204364D01*
X0198456Y0204496D01*
X0198538Y0204626D01*
X0198622Y0204754D01*
X0198710Y0204880D01*
X0198801Y0205003D01*
X0198895Y0205124D01*
X0198993Y0205242D01*
X0199093Y0205358D01*
X0199197Y0205471D01*
X0199303Y0205582D01*
X0199412Y0205690D01*
X0199524Y0205795D01*
X0199638Y0205896D01*
X0199756Y0205995D01*
X0199875Y0206091D01*
X0199997Y0206184D01*
X0200122Y0206273D01*
X0200249Y0206360D01*
X0200378Y0206442D01*
X0200509Y0206522D01*
X0200642Y0206598D01*
X0200777Y0206671D01*
X0200914Y0206740D01*
X0201053Y0206805D01*
X0201193Y0206867D01*
X0201335Y0206925D01*
X0201478Y0206980D01*
X0201623Y0207031D01*
X0201769Y0207078D01*
X0201916Y0207121D01*
X0202064Y0207160D01*
X0202213Y0207196D01*
X0202363Y0207227D01*
X0202514Y0207255D01*
X0202665Y0207279D01*
X0202818Y0207299D01*
X0202970Y0207315D01*
X0203123Y0207327D01*
X0203276Y0207335D01*
X0203429Y0207339D01*
X0203583Y0207339D01*
X0203736Y0207335D01*
X0203889Y0207327D01*
X0204042Y0207315D01*
X0204194Y0207299D01*
X0204347Y0207279D01*
X0204498Y0207255D01*
X0204649Y0207227D01*
X0204799Y0207196D01*
X0204948Y0207160D01*
X0205096Y0207121D01*
X0205243Y0207078D01*
X0205389Y0207031D01*
X0205534Y0206980D01*
X0205677Y0206925D01*
X0205819Y0206867D01*
X0205959Y0206805D01*
X0206098Y0206740D01*
X0206235Y0206671D01*
X0206370Y0206598D01*
X0206503Y0206522D01*
X0206634Y0206442D01*
X0206763Y0206360D01*
X0206890Y0206273D01*
X0207015Y0206184D01*
X0207137Y0206091D01*
X0207256Y0205995D01*
X0207374Y0205896D01*
X0207488Y0205795D01*
X0207600Y0205690D01*
X0207709Y0205582D01*
X0207815Y0205471D01*
X0207919Y0205358D01*
X0208019Y0205242D01*
X0208117Y0205124D01*
X0208211Y0205003D01*
X0208302Y0204880D01*
X0208390Y0204754D01*
X0208474Y0204626D01*
X0208556Y0204496D01*
X0208633Y0204364D01*
X0208708Y0204230D01*
X0208779Y0204094D01*
X0208846Y0203956D01*
X0208910Y0203816D01*
X0208970Y0203675D01*
X0209026Y0203533D01*
X0209079Y0203389D01*
X0209128Y0203243D01*
X0209173Y0203097D01*
X0209214Y0202949D01*
X0209251Y0202801D01*
X0209285Y0202651D01*
X0209315Y0202500D01*
X0209340Y0202349D01*
X0209362Y0202198D01*
X0209380Y0202045D01*
X0209394Y0201893D01*
X0209404Y0201740D01*
X0209410Y0201586D01*
X0209412Y0201433D01*
X0209410Y0201280D01*
X0209404Y0201126D01*
X0209394Y0200973D01*
X0209380Y0200821D01*
X0209362Y0200668D01*
X0209340Y0200517D01*
X0209315Y0200366D01*
X0209285Y0200215D01*
X0209251Y0200065D01*
X0209214Y0199917D01*
X0209173Y0199769D01*
X0209128Y0199623D01*
X0209079Y0199477D01*
X0209026Y0199333D01*
X0208970Y0199191D01*
X0208910Y0199050D01*
X0208846Y0198910D01*
X0208779Y0198772D01*
X0208708Y0198636D01*
X0208633Y0198502D01*
X0208556Y0198370D01*
X0208474Y0198240D01*
X0208390Y0198112D01*
X0208302Y0197986D01*
X0208211Y0197863D01*
X0208117Y0197742D01*
X0208019Y0197624D01*
X0207919Y0197508D01*
X0207815Y0197395D01*
X0207709Y0197284D01*
X0207600Y0197176D01*
X0207488Y0197071D01*
X0207374Y0196970D01*
X0207256Y0196871D01*
X0207137Y0196775D01*
X0207015Y0196682D01*
X0206890Y0196593D01*
X0206763Y0196506D01*
X0206634Y0196424D01*
X0206503Y0196344D01*
X0206370Y0196268D01*
X0206235Y0196195D01*
X0206098Y0196126D01*
X0205959Y0196061D01*
X0205819Y0195999D01*
X0205677Y0195941D01*
X0205534Y0195886D01*
X0205389Y0195835D01*
X0205243Y0195788D01*
X0205096Y0195745D01*
X0204948Y0195706D01*
X0204799Y0195670D01*
X0204649Y0195639D01*
X0204498Y0195611D01*
X0204347Y0195587D01*
X0204194Y0195567D01*
X0204042Y0195551D01*
X0203889Y0195539D01*
X0203736Y0195531D01*
X0203583Y0195527D01*
X0203429Y0195527D01*
X0203276Y0195531D01*
X0203123Y0195539D01*
X0202970Y0195551D01*
X0202818Y0195567D01*
X0202665Y0195587D01*
X0202514Y0195611D01*
X0202363Y0195639D01*
X0202213Y0195670D01*
X0202064Y0195706D01*
X0201916Y0195745D01*
X0201769Y0195788D01*
X0201623Y0195835D01*
X0201478Y0195886D01*
X0201335Y0195941D01*
X0201193Y0195999D01*
X0201053Y0196061D01*
X0200914Y0196126D01*
X0200777Y0196195D01*
X0200642Y0196268D01*
X0200509Y0196344D01*
X0200378Y0196424D01*
X0200249Y0196506D01*
X0200122Y0196593D01*
X0199997Y0196682D01*
X0199875Y0196775D01*
X0199756Y0196871D01*
X0199638Y0196970D01*
X0199524Y0197071D01*
X0199412Y0197176D01*
X0199303Y0197284D01*
X0199197Y0197395D01*
X0199093Y0197508D01*
X0198993Y0197624D01*
X0198895Y0197742D01*
X0198801Y0197863D01*
X0198710Y0197986D01*
X0198622Y0198112D01*
X0198538Y0198240D01*
X0198456Y0198370D01*
X0198379Y0198502D01*
X0198304Y0198636D01*
X0198233Y0198772D01*
X0198166Y0198910D01*
X0198102Y0199050D01*
X0198042Y0199191D01*
X0197986Y0199333D01*
X0197933Y0199477D01*
X0197884Y0199623D01*
X0197839Y0199769D01*
X0197798Y0199917D01*
X0197761Y0200065D01*
X0197727Y0200215D01*
X0197697Y0200366D01*
X0197672Y0200517D01*
X0197650Y0200668D01*
X0197632Y0200821D01*
X0197618Y0200973D01*
X0197608Y0201126D01*
X0197602Y0201280D01*
X0197600Y0201433D01*
X0262600Y0201433D02*
X0262602Y0201586D01*
X0262608Y0201740D01*
X0262618Y0201893D01*
X0262632Y0202045D01*
X0262650Y0202198D01*
X0262672Y0202349D01*
X0262697Y0202500D01*
X0262727Y0202651D01*
X0262761Y0202801D01*
X0262798Y0202949D01*
X0262839Y0203097D01*
X0262884Y0203243D01*
X0262933Y0203389D01*
X0262986Y0203533D01*
X0263042Y0203675D01*
X0263102Y0203816D01*
X0263166Y0203956D01*
X0263233Y0204094D01*
X0263304Y0204230D01*
X0263379Y0204364D01*
X0263456Y0204496D01*
X0263538Y0204626D01*
X0263622Y0204754D01*
X0263710Y0204880D01*
X0263801Y0205003D01*
X0263895Y0205124D01*
X0263993Y0205242D01*
X0264093Y0205358D01*
X0264197Y0205471D01*
X0264303Y0205582D01*
X0264412Y0205690D01*
X0264524Y0205795D01*
X0264638Y0205896D01*
X0264756Y0205995D01*
X0264875Y0206091D01*
X0264997Y0206184D01*
X0265122Y0206273D01*
X0265249Y0206360D01*
X0265378Y0206442D01*
X0265509Y0206522D01*
X0265642Y0206598D01*
X0265777Y0206671D01*
X0265914Y0206740D01*
X0266053Y0206805D01*
X0266193Y0206867D01*
X0266335Y0206925D01*
X0266478Y0206980D01*
X0266623Y0207031D01*
X0266769Y0207078D01*
X0266916Y0207121D01*
X0267064Y0207160D01*
X0267213Y0207196D01*
X0267363Y0207227D01*
X0267514Y0207255D01*
X0267665Y0207279D01*
X0267818Y0207299D01*
X0267970Y0207315D01*
X0268123Y0207327D01*
X0268276Y0207335D01*
X0268429Y0207339D01*
X0268583Y0207339D01*
X0268736Y0207335D01*
X0268889Y0207327D01*
X0269042Y0207315D01*
X0269194Y0207299D01*
X0269347Y0207279D01*
X0269498Y0207255D01*
X0269649Y0207227D01*
X0269799Y0207196D01*
X0269948Y0207160D01*
X0270096Y0207121D01*
X0270243Y0207078D01*
X0270389Y0207031D01*
X0270534Y0206980D01*
X0270677Y0206925D01*
X0270819Y0206867D01*
X0270959Y0206805D01*
X0271098Y0206740D01*
X0271235Y0206671D01*
X0271370Y0206598D01*
X0271503Y0206522D01*
X0271634Y0206442D01*
X0271763Y0206360D01*
X0271890Y0206273D01*
X0272015Y0206184D01*
X0272137Y0206091D01*
X0272256Y0205995D01*
X0272374Y0205896D01*
X0272488Y0205795D01*
X0272600Y0205690D01*
X0272709Y0205582D01*
X0272815Y0205471D01*
X0272919Y0205358D01*
X0273019Y0205242D01*
X0273117Y0205124D01*
X0273211Y0205003D01*
X0273302Y0204880D01*
X0273390Y0204754D01*
X0273474Y0204626D01*
X0273556Y0204496D01*
X0273633Y0204364D01*
X0273708Y0204230D01*
X0273779Y0204094D01*
X0273846Y0203956D01*
X0273910Y0203816D01*
X0273970Y0203675D01*
X0274026Y0203533D01*
X0274079Y0203389D01*
X0274128Y0203243D01*
X0274173Y0203097D01*
X0274214Y0202949D01*
X0274251Y0202801D01*
X0274285Y0202651D01*
X0274315Y0202500D01*
X0274340Y0202349D01*
X0274362Y0202198D01*
X0274380Y0202045D01*
X0274394Y0201893D01*
X0274404Y0201740D01*
X0274410Y0201586D01*
X0274412Y0201433D01*
X0274410Y0201280D01*
X0274404Y0201126D01*
X0274394Y0200973D01*
X0274380Y0200821D01*
X0274362Y0200668D01*
X0274340Y0200517D01*
X0274315Y0200366D01*
X0274285Y0200215D01*
X0274251Y0200065D01*
X0274214Y0199917D01*
X0274173Y0199769D01*
X0274128Y0199623D01*
X0274079Y0199477D01*
X0274026Y0199333D01*
X0273970Y0199191D01*
X0273910Y0199050D01*
X0273846Y0198910D01*
X0273779Y0198772D01*
X0273708Y0198636D01*
X0273633Y0198502D01*
X0273556Y0198370D01*
X0273474Y0198240D01*
X0273390Y0198112D01*
X0273302Y0197986D01*
X0273211Y0197863D01*
X0273117Y0197742D01*
X0273019Y0197624D01*
X0272919Y0197508D01*
X0272815Y0197395D01*
X0272709Y0197284D01*
X0272600Y0197176D01*
X0272488Y0197071D01*
X0272374Y0196970D01*
X0272256Y0196871D01*
X0272137Y0196775D01*
X0272015Y0196682D01*
X0271890Y0196593D01*
X0271763Y0196506D01*
X0271634Y0196424D01*
X0271503Y0196344D01*
X0271370Y0196268D01*
X0271235Y0196195D01*
X0271098Y0196126D01*
X0270959Y0196061D01*
X0270819Y0195999D01*
X0270677Y0195941D01*
X0270534Y0195886D01*
X0270389Y0195835D01*
X0270243Y0195788D01*
X0270096Y0195745D01*
X0269948Y0195706D01*
X0269799Y0195670D01*
X0269649Y0195639D01*
X0269498Y0195611D01*
X0269347Y0195587D01*
X0269194Y0195567D01*
X0269042Y0195551D01*
X0268889Y0195539D01*
X0268736Y0195531D01*
X0268583Y0195527D01*
X0268429Y0195527D01*
X0268276Y0195531D01*
X0268123Y0195539D01*
X0267970Y0195551D01*
X0267818Y0195567D01*
X0267665Y0195587D01*
X0267514Y0195611D01*
X0267363Y0195639D01*
X0267213Y0195670D01*
X0267064Y0195706D01*
X0266916Y0195745D01*
X0266769Y0195788D01*
X0266623Y0195835D01*
X0266478Y0195886D01*
X0266335Y0195941D01*
X0266193Y0195999D01*
X0266053Y0196061D01*
X0265914Y0196126D01*
X0265777Y0196195D01*
X0265642Y0196268D01*
X0265509Y0196344D01*
X0265378Y0196424D01*
X0265249Y0196506D01*
X0265122Y0196593D01*
X0264997Y0196682D01*
X0264875Y0196775D01*
X0264756Y0196871D01*
X0264638Y0196970D01*
X0264524Y0197071D01*
X0264412Y0197176D01*
X0264303Y0197284D01*
X0264197Y0197395D01*
X0264093Y0197508D01*
X0263993Y0197624D01*
X0263895Y0197742D01*
X0263801Y0197863D01*
X0263710Y0197986D01*
X0263622Y0198112D01*
X0263538Y0198240D01*
X0263456Y0198370D01*
X0263379Y0198502D01*
X0263304Y0198636D01*
X0263233Y0198772D01*
X0263166Y0198910D01*
X0263102Y0199050D01*
X0263042Y0199191D01*
X0262986Y0199333D01*
X0262933Y0199477D01*
X0262884Y0199623D01*
X0262839Y0199769D01*
X0262798Y0199917D01*
X0262761Y0200065D01*
X0262727Y0200215D01*
X0262697Y0200366D01*
X0262672Y0200517D01*
X0262650Y0200668D01*
X0262632Y0200821D01*
X0262618Y0200973D01*
X0262608Y0201126D01*
X0262602Y0201280D01*
X0262600Y0201433D01*
X0283900Y0174740D02*
X0289609Y0174740D01*
X0289609Y0164307D01*
X0298073Y0164307D01*
X0301026Y0167260D01*
X0315987Y0167260D01*
X0315987Y0163913D01*
X0320613Y0163913D01*
X0320613Y0148953D01*
X0315987Y0148953D01*
X0315987Y0145606D01*
X0301026Y0145606D01*
X0298073Y0148559D01*
X0289609Y0148559D01*
X0289609Y0138126D01*
X0283900Y0138126D01*
X0283900Y0141276D02*
X0283900Y0171591D01*
D17*
X0043006Y0056433D02*
X0042006Y0056433D01*
X0064006Y0056433D02*
X0065006Y0056433D01*
X0107006Y0056433D02*
X0108006Y0056433D01*
X0129006Y0056433D02*
X0130006Y0056433D01*
X0203506Y0045933D02*
X0203506Y0044933D01*
X0203506Y0066933D02*
X0203506Y0067933D01*
X0257006Y0056433D02*
X0258006Y0056433D01*
X0279006Y0056433D02*
X0280006Y0056433D01*
X0280006Y0201433D02*
X0279006Y0201433D01*
X0258006Y0201433D02*
X0257006Y0201433D01*
X0215006Y0201433D02*
X0214006Y0201433D01*
X0193006Y0201433D02*
X0192006Y0201433D01*
X0130006Y0201433D02*
X0129006Y0201433D01*
X0108006Y0201433D02*
X0107006Y0201433D01*
X0065006Y0201433D02*
X0064006Y0201433D01*
X0043006Y0201433D02*
X0042006Y0201433D01*
M02*
