G75*
%MOIN*%
%OFA0B0*%
%FSLAX25Y25*%
%IPPOS*%
%LPD*%
%AMOC8*
5,1,8,0,0,1.08239X$1,22.5*
%
%ADD10C,0.05200*%
%ADD11C,0.09900*%
%ADD12R,0.20000X0.09000*%
%ADD13C,0.21000*%
%ADD14OC8,0.05000*%
%ADD15C,0.01600*%
D10*
X0236006Y0101333D02*
X0236006Y0106533D01*
X0236006Y0131333D02*
X0236006Y0136533D01*
D11*
X0261056Y0096733D02*
X0270956Y0096733D01*
X0270956Y0081133D02*
X0261056Y0081133D01*
D12*
X0273406Y0139033D03*
X0273406Y0173833D03*
X0048606Y0173833D03*
X0048606Y0139033D03*
D13*
X0053506Y0201433D03*
X0118506Y0201433D03*
X0203506Y0201433D03*
X0268506Y0201433D03*
X0268506Y0056433D03*
X0203506Y0056433D03*
X0118506Y0056433D03*
X0053506Y0056433D03*
D14*
X0071006Y0061433D03*
X0063506Y0071433D03*
X0063506Y0086433D03*
X0063506Y0101433D03*
X0063506Y0113933D03*
X0051006Y0128933D03*
X0041006Y0126433D03*
X0041006Y0113933D03*
X0041006Y0101433D03*
X0041006Y0086433D03*
X0041006Y0071433D03*
X0041006Y0043933D03*
X0066006Y0043933D03*
X0088506Y0043933D03*
X0106006Y0043933D03*
X0088506Y0061433D03*
X0091006Y0071433D03*
X0101006Y0071433D03*
X0108506Y0071433D03*
X0113506Y0081433D03*
X0123506Y0081433D03*
X0131006Y0076433D03*
X0136006Y0068933D03*
X0136006Y0061433D03*
X0151006Y0061433D03*
X0166006Y0061433D03*
X0181006Y0061433D03*
X0196006Y0061433D03*
X0221006Y0061433D03*
X0228506Y0061433D03*
X0236006Y0068933D03*
X0243506Y0061433D03*
X0258506Y0071433D03*
X0281006Y0068933D03*
X0281006Y0043933D03*
X0256006Y0043933D03*
X0243506Y0043933D03*
X0228506Y0043933D03*
X0216006Y0043933D03*
X0191006Y0043933D03*
X0181006Y0043933D03*
X0166006Y0043933D03*
X0151006Y0043933D03*
X0136006Y0043933D03*
X0101006Y0086433D03*
X0091006Y0086433D03*
X0106006Y0093933D03*
X0113506Y0093933D03*
X0113506Y0103933D03*
X0113506Y0111433D03*
X0113506Y0111433D03*
X0113506Y0121433D03*
X0121006Y0121433D03*
X0113506Y0131433D03*
X0113506Y0141433D03*
X0121006Y0141433D03*
X0126006Y0171433D03*
X0126006Y0181433D03*
X0118506Y0181433D03*
X0111006Y0181433D03*
X0103506Y0191433D03*
X0091006Y0191433D03*
X0078506Y0191433D03*
X0068506Y0191433D03*
X0063506Y0181433D03*
X0051006Y0183933D03*
X0041006Y0186433D03*
X0063506Y0171433D03*
X0063506Y0141433D03*
X0063506Y0131433D03*
X0111006Y0171433D03*
X0133506Y0191433D03*
X0146006Y0191433D03*
X0161006Y0191433D03*
X0176006Y0191433D03*
X0188506Y0191433D03*
X0218506Y0191433D03*
X0231006Y0191433D03*
X0243506Y0191433D03*
X0253506Y0191433D03*
X0258506Y0181433D03*
X0271006Y0183933D03*
X0281006Y0186433D03*
X0258506Y0171433D03*
X0258506Y0141433D03*
X0258506Y0131433D03*
X0271006Y0128933D03*
X0281006Y0126433D03*
X0281006Y0111433D03*
X0258506Y0111433D03*
X0236006Y0078933D03*
X0211006Y0106433D03*
X0203506Y0106433D03*
X0196006Y0106433D03*
X0196006Y0113933D03*
X0203506Y0113933D03*
X0203506Y0123933D03*
X0196006Y0123933D03*
X0196006Y0131433D03*
X0203506Y0131433D03*
X0211006Y0131433D03*
X0218506Y0213933D03*
X0231006Y0213933D03*
X0243506Y0213933D03*
X0253506Y0213933D03*
X0281006Y0213933D03*
X0188506Y0213933D03*
X0176006Y0213933D03*
X0161006Y0213933D03*
X0146006Y0213933D03*
X0133506Y0213933D03*
X0103506Y0213933D03*
X0091006Y0213933D03*
X0078506Y0213933D03*
X0068506Y0213933D03*
X0041006Y0213933D03*
D15*
X0038506Y0129133D02*
X0038506Y0041433D01*
X0283506Y0041433D01*
X0283506Y0129133D01*
X0282552Y0129133D01*
X0280787Y0129864D01*
X0279437Y0131214D01*
X0278808Y0132733D01*
X0274206Y0132733D01*
X0274206Y0138233D01*
X0272606Y0138233D01*
X0261606Y0138233D01*
X0261606Y0134296D01*
X0261729Y0133838D01*
X0261966Y0133428D01*
X0262301Y0133093D01*
X0262712Y0132856D01*
X0263169Y0132733D01*
X0272606Y0132733D01*
X0272606Y0138233D01*
X0272606Y0139833D01*
X0261606Y0139833D01*
X0261606Y0143770D01*
X0261729Y0144228D01*
X0261966Y0144638D01*
X0262301Y0144973D01*
X0262712Y0145210D01*
X0263169Y0145333D01*
X0272606Y0145333D01*
X0272606Y0139833D01*
X0274206Y0139833D01*
X0274206Y0145333D01*
X0278706Y0145333D01*
X0278706Y0167533D01*
X0274206Y0167533D01*
X0274206Y0173033D01*
X0272606Y0173033D01*
X0261606Y0173033D01*
X0261606Y0169096D01*
X0261729Y0168638D01*
X0261966Y0168228D01*
X0262301Y0167893D01*
X0262712Y0167656D01*
X0263169Y0167533D01*
X0272606Y0167533D01*
X0272606Y0173033D01*
X0272606Y0174633D01*
X0261606Y0174633D01*
X0261606Y0178570D01*
X0261729Y0179028D01*
X0261966Y0179438D01*
X0262301Y0179773D01*
X0262712Y0180010D01*
X0263169Y0180133D01*
X0272606Y0180133D01*
X0272606Y0174633D01*
X0274206Y0174633D01*
X0274206Y0180133D01*
X0278808Y0180133D01*
X0279437Y0181652D01*
X0280787Y0183002D01*
X0282552Y0183733D01*
X0283506Y0183733D01*
X0283506Y0216433D01*
X0038506Y0216433D01*
X0038506Y0183733D01*
X0039461Y0183733D01*
X0041225Y0183002D01*
X0042576Y0181652D01*
X0043205Y0180133D01*
X0047806Y0180133D01*
X0047806Y0174633D01*
X0049406Y0174633D01*
X0049406Y0180133D01*
X0058843Y0180133D01*
X0059301Y0180010D01*
X0059712Y0179773D01*
X0060047Y0179438D01*
X0060284Y0179028D01*
X0060406Y0178570D01*
X0060406Y0174633D01*
X0049406Y0174633D01*
X0049406Y0173033D01*
X0049406Y0167533D01*
X0058843Y0167533D01*
X0059301Y0167656D01*
X0059712Y0167893D01*
X0060047Y0168228D01*
X0060284Y0168638D01*
X0060406Y0169096D01*
X0060406Y0173033D01*
X0049406Y0173033D01*
X0047806Y0173033D01*
X0047806Y0167533D01*
X0043306Y0167533D01*
X0043306Y0145333D01*
X0047806Y0145333D01*
X0047806Y0139833D01*
X0049406Y0139833D01*
X0049406Y0145333D01*
X0058843Y0145333D01*
X0059301Y0145210D01*
X0059712Y0144973D01*
X0060047Y0144638D01*
X0060284Y0144228D01*
X0060406Y0143770D01*
X0060406Y0139833D01*
X0049406Y0139833D01*
X0049406Y0138233D01*
X0049406Y0132733D01*
X0058843Y0132733D01*
X0059301Y0132856D01*
X0059712Y0133093D01*
X0060047Y0133428D01*
X0060284Y0133838D01*
X0060406Y0134296D01*
X0060406Y0138233D01*
X0049406Y0138233D01*
X0047806Y0138233D01*
X0047806Y0132733D01*
X0043205Y0132733D01*
X0042576Y0131214D01*
X0041225Y0129864D01*
X0039461Y0129133D01*
X0038506Y0129133D01*
X0039494Y0129147D02*
X0230634Y0129147D01*
X0230206Y0130179D02*
X0231089Y0128048D01*
X0232721Y0126416D01*
X0234853Y0125533D01*
X0237160Y0125533D01*
X0239292Y0126416D01*
X0240923Y0128048D01*
X0241806Y0130179D01*
X0241806Y0137687D01*
X0240923Y0139819D01*
X0239292Y0141450D01*
X0237160Y0142333D01*
X0234853Y0142333D01*
X0232721Y0141450D01*
X0231089Y0139819D01*
X0230206Y0137687D01*
X0230206Y0130179D01*
X0230206Y0130745D02*
X0042107Y0130745D01*
X0043043Y0132344D02*
X0230206Y0132344D01*
X0230206Y0133942D02*
X0060311Y0133942D01*
X0060406Y0135541D02*
X0230206Y0135541D01*
X0230206Y0137139D02*
X0060406Y0137139D01*
X0060406Y0140336D02*
X0231607Y0140336D01*
X0230642Y0138738D02*
X0049406Y0138738D01*
X0049406Y0140336D02*
X0047806Y0140336D01*
X0047806Y0141935D02*
X0049406Y0141935D01*
X0049406Y0143533D02*
X0047806Y0143533D01*
X0047806Y0145132D02*
X0049406Y0145132D01*
X0043306Y0146730D02*
X0278706Y0146730D01*
X0278706Y0148329D02*
X0043306Y0148329D01*
X0043306Y0149927D02*
X0278706Y0149927D01*
X0278706Y0151526D02*
X0043306Y0151526D01*
X0043306Y0153124D02*
X0278706Y0153124D01*
X0278706Y0154723D02*
X0043306Y0154723D01*
X0043306Y0156321D02*
X0278706Y0156321D01*
X0278706Y0157920D02*
X0043306Y0157920D01*
X0043306Y0159518D02*
X0278706Y0159518D01*
X0278706Y0161117D02*
X0043306Y0161117D01*
X0043306Y0162715D02*
X0278706Y0162715D01*
X0278706Y0164314D02*
X0043306Y0164314D01*
X0043306Y0165912D02*
X0278706Y0165912D01*
X0278706Y0167511D02*
X0043306Y0167511D01*
X0047806Y0169110D02*
X0049406Y0169110D01*
X0049406Y0170708D02*
X0047806Y0170708D01*
X0047806Y0172307D02*
X0049406Y0172307D01*
X0049406Y0173905D02*
X0272606Y0173905D01*
X0272606Y0172307D02*
X0274206Y0172307D01*
X0274206Y0170708D02*
X0272606Y0170708D01*
X0272606Y0169110D02*
X0274206Y0169110D01*
X0274206Y0175504D02*
X0272606Y0175504D01*
X0272606Y0177102D02*
X0274206Y0177102D01*
X0274206Y0178701D02*
X0272606Y0178701D01*
X0278877Y0180299D02*
X0043136Y0180299D01*
X0042330Y0181898D02*
X0279683Y0181898D01*
X0281979Y0183496D02*
X0040033Y0183496D01*
X0038506Y0185095D02*
X0283506Y0185095D01*
X0283506Y0186693D02*
X0038506Y0186693D01*
X0038506Y0188292D02*
X0283506Y0188292D01*
X0283506Y0189890D02*
X0272760Y0189890D01*
X0273221Y0190051D02*
X0274465Y0190651D01*
X0275635Y0191386D01*
X0276715Y0192247D01*
X0277692Y0193224D01*
X0278553Y0194304D01*
X0279288Y0195474D01*
X0279888Y0196719D01*
X0280344Y0198023D01*
X0280652Y0199369D01*
X0280794Y0200633D01*
X0269306Y0200633D01*
X0269306Y0189145D01*
X0270570Y0189288D01*
X0271917Y0189595D01*
X0273221Y0190051D01*
X0275764Y0191489D02*
X0283506Y0191489D01*
X0283506Y0193087D02*
X0277555Y0193087D01*
X0278793Y0194686D02*
X0283506Y0194686D01*
X0283506Y0196284D02*
X0279679Y0196284D01*
X0280295Y0197883D02*
X0283506Y0197883D01*
X0283506Y0199481D02*
X0280664Y0199481D01*
X0280794Y0202233D02*
X0280652Y0203497D01*
X0280344Y0204844D01*
X0279888Y0206147D01*
X0279288Y0207392D01*
X0278553Y0208562D01*
X0277692Y0209642D01*
X0276715Y0210619D01*
X0275635Y0211480D01*
X0274465Y0212215D01*
X0273221Y0212815D01*
X0271917Y0213271D01*
X0270570Y0213578D01*
X0269306Y0213721D01*
X0269306Y0202233D01*
X0267706Y0202233D01*
X0267706Y0200633D01*
X0256219Y0200633D01*
X0256361Y0199369D01*
X0256668Y0198023D01*
X0257125Y0196719D01*
X0257724Y0195474D01*
X0258459Y0194304D01*
X0259320Y0193224D01*
X0260297Y0192247D01*
X0261377Y0191386D01*
X0262547Y0190651D01*
X0263792Y0190051D01*
X0265096Y0189595D01*
X0266443Y0189288D01*
X0267706Y0189145D01*
X0267706Y0200633D01*
X0269306Y0200633D01*
X0269306Y0202233D01*
X0280794Y0202233D01*
X0280744Y0202678D02*
X0283506Y0202678D01*
X0283506Y0201080D02*
X0269306Y0201080D01*
X0269306Y0202678D02*
X0267706Y0202678D01*
X0267706Y0202233D02*
X0267706Y0213721D01*
X0266443Y0213578D01*
X0265096Y0213271D01*
X0263792Y0212815D01*
X0262547Y0212215D01*
X0261377Y0211480D01*
X0260297Y0210619D01*
X0259320Y0209642D01*
X0258459Y0208562D01*
X0257724Y0207392D01*
X0257125Y0206147D01*
X0256668Y0204844D01*
X0256361Y0203497D01*
X0256219Y0202233D01*
X0267706Y0202233D01*
X0267706Y0201080D02*
X0204306Y0201080D01*
X0204306Y0200633D02*
X0204306Y0202233D01*
X0202706Y0202233D01*
X0202706Y0200633D01*
X0191219Y0200633D01*
X0191361Y0199369D01*
X0191668Y0198023D01*
X0192125Y0196719D01*
X0192724Y0195474D01*
X0193459Y0194304D01*
X0194320Y0193224D01*
X0195297Y0192247D01*
X0196377Y0191386D01*
X0197547Y0190651D01*
X0198792Y0190051D01*
X0200096Y0189595D01*
X0201443Y0189288D01*
X0202706Y0189145D01*
X0202706Y0200633D01*
X0204306Y0200633D01*
X0204306Y0189145D01*
X0205570Y0189288D01*
X0206917Y0189595D01*
X0208221Y0190051D01*
X0209465Y0190651D01*
X0210635Y0191386D01*
X0211715Y0192247D01*
X0212692Y0193224D01*
X0213553Y0194304D01*
X0214288Y0195474D01*
X0214888Y0196719D01*
X0215344Y0198023D01*
X0215652Y0199369D01*
X0215794Y0200633D01*
X0204306Y0200633D01*
X0204306Y0199481D02*
X0202706Y0199481D01*
X0202706Y0197883D02*
X0204306Y0197883D01*
X0204306Y0196284D02*
X0202706Y0196284D01*
X0202706Y0194686D02*
X0204306Y0194686D01*
X0204306Y0193087D02*
X0202706Y0193087D01*
X0202706Y0191489D02*
X0204306Y0191489D01*
X0204306Y0189890D02*
X0202706Y0189890D01*
X0199253Y0189890D02*
X0122760Y0189890D01*
X0123221Y0190051D02*
X0124465Y0190651D01*
X0125635Y0191386D01*
X0126715Y0192247D01*
X0127692Y0193224D01*
X0128553Y0194304D01*
X0129288Y0195474D01*
X0129888Y0196719D01*
X0130344Y0198023D01*
X0130652Y0199369D01*
X0130794Y0200633D01*
X0119306Y0200633D01*
X0119306Y0189145D01*
X0120570Y0189288D01*
X0121917Y0189595D01*
X0123221Y0190051D01*
X0125764Y0191489D02*
X0196248Y0191489D01*
X0194457Y0193087D02*
X0127555Y0193087D01*
X0128793Y0194686D02*
X0193219Y0194686D01*
X0192334Y0196284D02*
X0129679Y0196284D01*
X0130295Y0197883D02*
X0191717Y0197883D01*
X0191348Y0199481D02*
X0130664Y0199481D01*
X0130794Y0202233D02*
X0130652Y0203497D01*
X0130344Y0204844D01*
X0129888Y0206147D01*
X0129288Y0207392D01*
X0128553Y0208562D01*
X0127692Y0209642D01*
X0126715Y0210619D01*
X0125635Y0211480D01*
X0124465Y0212215D01*
X0123221Y0212815D01*
X0121917Y0213271D01*
X0120570Y0213578D01*
X0119306Y0213721D01*
X0119306Y0202233D01*
X0117706Y0202233D01*
X0117706Y0200633D01*
X0106219Y0200633D01*
X0106361Y0199369D01*
X0106668Y0198023D01*
X0107125Y0196719D01*
X0107724Y0195474D01*
X0108459Y0194304D01*
X0109320Y0193224D01*
X0110297Y0192247D01*
X0111377Y0191386D01*
X0112547Y0190651D01*
X0113792Y0190051D01*
X0115096Y0189595D01*
X0116443Y0189288D01*
X0117706Y0189145D01*
X0117706Y0200633D01*
X0119306Y0200633D01*
X0119306Y0202233D01*
X0130794Y0202233D01*
X0130744Y0202678D02*
X0191269Y0202678D01*
X0191219Y0202233D02*
X0191361Y0203497D01*
X0191668Y0204844D01*
X0192125Y0206147D01*
X0192724Y0207392D01*
X0193459Y0208562D01*
X0194320Y0209642D01*
X0195297Y0210619D01*
X0196377Y0211480D01*
X0197547Y0212215D01*
X0198792Y0212815D01*
X0200096Y0213271D01*
X0201443Y0213578D01*
X0202706Y0213721D01*
X0202706Y0202233D01*
X0191219Y0202233D01*
X0191539Y0204277D02*
X0130474Y0204277D01*
X0129983Y0205875D02*
X0192029Y0205875D01*
X0192775Y0207474D02*
X0129237Y0207474D01*
X0128147Y0209072D02*
X0193866Y0209072D01*
X0195362Y0210671D02*
X0126650Y0210671D01*
X0124353Y0212269D02*
X0197659Y0212269D01*
X0202706Y0212269D02*
X0204306Y0212269D01*
X0204306Y0213721D02*
X0204306Y0202233D01*
X0215794Y0202233D01*
X0215652Y0203497D01*
X0215344Y0204844D01*
X0214888Y0206147D01*
X0214288Y0207392D01*
X0213553Y0208562D01*
X0212692Y0209642D01*
X0211715Y0210619D01*
X0210635Y0211480D01*
X0209465Y0212215D01*
X0208221Y0212815D01*
X0206917Y0213271D01*
X0205570Y0213578D01*
X0204306Y0213721D01*
X0204306Y0210671D02*
X0202706Y0210671D01*
X0202706Y0209072D02*
X0204306Y0209072D01*
X0204306Y0207474D02*
X0202706Y0207474D01*
X0202706Y0205875D02*
X0204306Y0205875D01*
X0204306Y0204277D02*
X0202706Y0204277D01*
X0202706Y0202678D02*
X0204306Y0202678D01*
X0202706Y0201080D02*
X0119306Y0201080D01*
X0119306Y0202678D02*
X0117706Y0202678D01*
X0117706Y0202233D02*
X0117706Y0213721D01*
X0116443Y0213578D01*
X0115096Y0213271D01*
X0113792Y0212815D01*
X0112547Y0212215D01*
X0111377Y0211480D01*
X0110297Y0210619D01*
X0109320Y0209642D01*
X0108459Y0208562D01*
X0107724Y0207392D01*
X0107125Y0206147D01*
X0106668Y0204844D01*
X0106361Y0203497D01*
X0106219Y0202233D01*
X0117706Y0202233D01*
X0117706Y0201080D02*
X0054306Y0201080D01*
X0054306Y0200633D02*
X0054306Y0202233D01*
X0052706Y0202233D01*
X0052706Y0200633D01*
X0041219Y0200633D01*
X0041361Y0199369D01*
X0041668Y0198023D01*
X0042125Y0196719D01*
X0042724Y0195474D01*
X0043459Y0194304D01*
X0044320Y0193224D01*
X0045297Y0192247D01*
X0046377Y0191386D01*
X0047547Y0190651D01*
X0048792Y0190051D01*
X0050096Y0189595D01*
X0051443Y0189288D01*
X0052706Y0189145D01*
X0052706Y0200633D01*
X0054306Y0200633D01*
X0054306Y0189145D01*
X0055570Y0189288D01*
X0056917Y0189595D01*
X0058221Y0190051D01*
X0059465Y0190651D01*
X0060635Y0191386D01*
X0061715Y0192247D01*
X0062692Y0193224D01*
X0063553Y0194304D01*
X0064288Y0195474D01*
X0064888Y0196719D01*
X0065344Y0198023D01*
X0065652Y0199369D01*
X0065794Y0200633D01*
X0054306Y0200633D01*
X0054306Y0199481D02*
X0052706Y0199481D01*
X0052706Y0197883D02*
X0054306Y0197883D01*
X0054306Y0196284D02*
X0052706Y0196284D01*
X0052706Y0194686D02*
X0054306Y0194686D01*
X0054306Y0193087D02*
X0052706Y0193087D01*
X0052706Y0191489D02*
X0054306Y0191489D01*
X0054306Y0189890D02*
X0052706Y0189890D01*
X0049253Y0189890D02*
X0038506Y0189890D01*
X0038506Y0191489D02*
X0046248Y0191489D01*
X0044457Y0193087D02*
X0038506Y0193087D01*
X0038506Y0194686D02*
X0043219Y0194686D01*
X0042334Y0196284D02*
X0038506Y0196284D01*
X0038506Y0197883D02*
X0041717Y0197883D01*
X0041348Y0199481D02*
X0038506Y0199481D01*
X0038506Y0201080D02*
X0052706Y0201080D01*
X0052706Y0202233D02*
X0041219Y0202233D01*
X0041361Y0203497D01*
X0041668Y0204844D01*
X0042125Y0206147D01*
X0042724Y0207392D01*
X0043459Y0208562D01*
X0044320Y0209642D01*
X0045297Y0210619D01*
X0046377Y0211480D01*
X0047547Y0212215D01*
X0048792Y0212815D01*
X0050096Y0213271D01*
X0051443Y0213578D01*
X0052706Y0213721D01*
X0052706Y0202233D01*
X0052706Y0202678D02*
X0054306Y0202678D01*
X0054306Y0202233D02*
X0054306Y0213721D01*
X0055570Y0213578D01*
X0056917Y0213271D01*
X0058221Y0212815D01*
X0059465Y0212215D01*
X0060635Y0211480D01*
X0061715Y0210619D01*
X0062692Y0209642D01*
X0063553Y0208562D01*
X0064288Y0207392D01*
X0064888Y0206147D01*
X0065344Y0204844D01*
X0065652Y0203497D01*
X0065794Y0202233D01*
X0054306Y0202233D01*
X0054306Y0204277D02*
X0052706Y0204277D01*
X0052706Y0205875D02*
X0054306Y0205875D01*
X0054306Y0207474D02*
X0052706Y0207474D01*
X0052706Y0209072D02*
X0054306Y0209072D01*
X0054306Y0210671D02*
X0052706Y0210671D01*
X0052706Y0212269D02*
X0054306Y0212269D01*
X0059353Y0212269D02*
X0112659Y0212269D01*
X0110362Y0210671D02*
X0061650Y0210671D01*
X0063147Y0209072D02*
X0108866Y0209072D01*
X0107775Y0207474D02*
X0064237Y0207474D01*
X0064983Y0205875D02*
X0107029Y0205875D01*
X0106539Y0204277D02*
X0065474Y0204277D01*
X0065744Y0202678D02*
X0106269Y0202678D01*
X0106348Y0199481D02*
X0065664Y0199481D01*
X0065295Y0197883D02*
X0106717Y0197883D01*
X0107334Y0196284D02*
X0064679Y0196284D01*
X0063793Y0194686D02*
X0108219Y0194686D01*
X0109457Y0193087D02*
X0062555Y0193087D01*
X0060764Y0191489D02*
X0111248Y0191489D01*
X0114253Y0189890D02*
X0057760Y0189890D01*
X0060371Y0178701D02*
X0261641Y0178701D01*
X0261606Y0177102D02*
X0060406Y0177102D01*
X0060406Y0175504D02*
X0261606Y0175504D01*
X0261606Y0172307D02*
X0060406Y0172307D01*
X0060406Y0170708D02*
X0261606Y0170708D01*
X0261606Y0169110D02*
X0060406Y0169110D01*
X0049406Y0175504D02*
X0047806Y0175504D01*
X0047806Y0177102D02*
X0049406Y0177102D01*
X0049406Y0178701D02*
X0047806Y0178701D01*
X0041269Y0202678D02*
X0038506Y0202678D01*
X0038506Y0204277D02*
X0041539Y0204277D01*
X0042029Y0205875D02*
X0038506Y0205875D01*
X0038506Y0207474D02*
X0042775Y0207474D01*
X0043866Y0209072D02*
X0038506Y0209072D01*
X0038506Y0210671D02*
X0045362Y0210671D01*
X0047659Y0212269D02*
X0038506Y0212269D01*
X0038506Y0213868D02*
X0283506Y0213868D01*
X0283506Y0215466D02*
X0038506Y0215466D01*
X0117706Y0212269D02*
X0119306Y0212269D01*
X0119306Y0210671D02*
X0117706Y0210671D01*
X0117706Y0209072D02*
X0119306Y0209072D01*
X0119306Y0207474D02*
X0117706Y0207474D01*
X0117706Y0205875D02*
X0119306Y0205875D01*
X0119306Y0204277D02*
X0117706Y0204277D01*
X0117706Y0199481D02*
X0119306Y0199481D01*
X0119306Y0197883D02*
X0117706Y0197883D01*
X0117706Y0196284D02*
X0119306Y0196284D01*
X0119306Y0194686D02*
X0117706Y0194686D01*
X0117706Y0193087D02*
X0119306Y0193087D01*
X0119306Y0191489D02*
X0117706Y0191489D01*
X0117706Y0189890D02*
X0119306Y0189890D01*
X0059437Y0145132D02*
X0262575Y0145132D01*
X0261606Y0143533D02*
X0060406Y0143533D01*
X0060406Y0141935D02*
X0233891Y0141935D01*
X0238121Y0141935D02*
X0261606Y0141935D01*
X0261606Y0140336D02*
X0240405Y0140336D01*
X0241371Y0138738D02*
X0272606Y0138738D01*
X0272606Y0140336D02*
X0274206Y0140336D01*
X0274206Y0141935D02*
X0272606Y0141935D01*
X0272606Y0143533D02*
X0274206Y0143533D01*
X0274206Y0145132D02*
X0272606Y0145132D01*
X0272606Y0137139D02*
X0274206Y0137139D01*
X0274206Y0135541D02*
X0272606Y0135541D01*
X0272606Y0133942D02*
X0274206Y0133942D01*
X0278969Y0132344D02*
X0241806Y0132344D01*
X0241806Y0133942D02*
X0261701Y0133942D01*
X0261606Y0135541D02*
X0241806Y0135541D01*
X0241806Y0137139D02*
X0261606Y0137139D01*
X0279906Y0130745D02*
X0241806Y0130745D01*
X0241379Y0129147D02*
X0282519Y0129147D01*
X0283506Y0127548D02*
X0240424Y0127548D01*
X0238166Y0125950D02*
X0283506Y0125950D01*
X0283506Y0124351D02*
X0038506Y0124351D01*
X0038506Y0122753D02*
X0283506Y0122753D01*
X0283506Y0121154D02*
X0038506Y0121154D01*
X0038506Y0119556D02*
X0283506Y0119556D01*
X0283506Y0117957D02*
X0038506Y0117957D01*
X0038506Y0116359D02*
X0283506Y0116359D01*
X0283506Y0114760D02*
X0038506Y0114760D01*
X0038506Y0113162D02*
X0283506Y0113162D01*
X0283506Y0111563D02*
X0239019Y0111563D01*
X0239292Y0111450D02*
X0237160Y0112333D01*
X0234853Y0112333D01*
X0232721Y0111450D01*
X0231089Y0109819D01*
X0230206Y0107687D01*
X0230206Y0100179D01*
X0231089Y0098048D01*
X0232721Y0096416D01*
X0234853Y0095533D01*
X0237160Y0095533D01*
X0239292Y0096416D01*
X0240923Y0098048D01*
X0241806Y0100179D01*
X0241806Y0107687D01*
X0240923Y0109819D01*
X0239292Y0111450D01*
X0240777Y0109965D02*
X0283506Y0109965D01*
X0283506Y0108366D02*
X0241525Y0108366D01*
X0241806Y0106768D02*
X0283506Y0106768D01*
X0283506Y0105169D02*
X0241806Y0105169D01*
X0241806Y0103571D02*
X0256368Y0103571D01*
X0256440Y0103642D02*
X0254147Y0101350D01*
X0252906Y0098354D01*
X0252906Y0095112D01*
X0254147Y0092116D01*
X0256440Y0089824D01*
X0259435Y0088583D01*
X0272577Y0088583D01*
X0275573Y0089824D01*
X0277866Y0092116D01*
X0279106Y0095112D01*
X0279106Y0098354D01*
X0277866Y0101350D01*
X0275573Y0103642D01*
X0272577Y0104883D01*
X0259435Y0104883D01*
X0256440Y0103642D01*
X0254769Y0101972D02*
X0241806Y0101972D01*
X0241806Y0100374D02*
X0253743Y0100374D01*
X0253081Y0098775D02*
X0241225Y0098775D01*
X0240052Y0097177D02*
X0252906Y0097177D01*
X0252906Y0095578D02*
X0237268Y0095578D01*
X0234744Y0095578D02*
X0038506Y0095578D01*
X0038506Y0097177D02*
X0231960Y0097177D01*
X0230788Y0098775D02*
X0038506Y0098775D01*
X0038506Y0100374D02*
X0230206Y0100374D01*
X0230206Y0101972D02*
X0038506Y0101972D01*
X0038506Y0103571D02*
X0230206Y0103571D01*
X0230206Y0105169D02*
X0038506Y0105169D01*
X0038506Y0106768D02*
X0230206Y0106768D01*
X0230488Y0108366D02*
X0038506Y0108366D01*
X0038506Y0109965D02*
X0231235Y0109965D01*
X0232994Y0111563D02*
X0038506Y0111563D01*
X0038506Y0125950D02*
X0233847Y0125950D01*
X0231589Y0127548D02*
X0038506Y0127548D01*
X0047806Y0133942D02*
X0049406Y0133942D01*
X0049406Y0135541D02*
X0047806Y0135541D01*
X0047806Y0137139D02*
X0049406Y0137139D01*
X0038506Y0093979D02*
X0253375Y0093979D01*
X0254037Y0092381D02*
X0038506Y0092381D01*
X0038506Y0090782D02*
X0255481Y0090782D01*
X0257985Y0089184D02*
X0038506Y0089184D01*
X0038506Y0087585D02*
X0259057Y0087585D01*
X0258882Y0087539D02*
X0258064Y0087200D01*
X0257298Y0086758D01*
X0256596Y0086219D01*
X0255970Y0085593D01*
X0255432Y0084891D01*
X0254989Y0084125D01*
X0254651Y0083307D01*
X0254422Y0082453D01*
X0254353Y0081933D01*
X0265206Y0081933D01*
X0265206Y0080333D01*
X0254353Y0080333D01*
X0254422Y0079813D01*
X0254651Y0078959D01*
X0254989Y0078141D01*
X0255432Y0077375D01*
X0255970Y0076673D01*
X0256596Y0076047D01*
X0257298Y0075509D01*
X0258064Y0075066D01*
X0258882Y0074728D01*
X0259737Y0074499D01*
X0260614Y0074383D01*
X0265206Y0074383D01*
X0265206Y0080333D01*
X0266806Y0080333D01*
X0266806Y0074383D01*
X0271399Y0074383D01*
X0272276Y0074499D01*
X0273131Y0074728D01*
X0273948Y0075066D01*
X0274714Y0075509D01*
X0275416Y0076047D01*
X0276042Y0076673D01*
X0276581Y0077375D01*
X0277023Y0078141D01*
X0277362Y0078959D01*
X0277591Y0079813D01*
X0277659Y0080333D01*
X0266806Y0080333D01*
X0266806Y0081933D01*
X0265206Y0081933D01*
X0265206Y0087883D01*
X0260614Y0087883D01*
X0259737Y0087768D01*
X0258882Y0087539D01*
X0256364Y0085987D02*
X0038506Y0085987D01*
X0038506Y0084388D02*
X0255142Y0084388D01*
X0254512Y0082790D02*
X0038506Y0082790D01*
X0038506Y0081191D02*
X0265206Y0081191D01*
X0265206Y0079593D02*
X0266806Y0079593D01*
X0266806Y0081191D02*
X0283506Y0081191D01*
X0283506Y0079593D02*
X0277532Y0079593D01*
X0276938Y0077994D02*
X0283506Y0077994D01*
X0283506Y0076396D02*
X0275765Y0076396D01*
X0273299Y0074797D02*
X0283506Y0074797D01*
X0283506Y0073199D02*
X0038506Y0073199D01*
X0038506Y0074797D02*
X0258713Y0074797D01*
X0256248Y0076396D02*
X0038506Y0076396D01*
X0038506Y0077994D02*
X0255074Y0077994D01*
X0254481Y0079593D02*
X0038506Y0079593D01*
X0038506Y0071600D02*
X0283506Y0071600D01*
X0283506Y0070002D02*
X0038506Y0070002D01*
X0038506Y0068403D02*
X0050676Y0068403D01*
X0050096Y0068271D02*
X0048792Y0067815D01*
X0047547Y0067215D01*
X0046377Y0066480D01*
X0045297Y0065619D01*
X0044320Y0064642D01*
X0043459Y0063562D01*
X0042724Y0062392D01*
X0042125Y0061147D01*
X0041668Y0059844D01*
X0041361Y0058497D01*
X0041219Y0057233D01*
X0052706Y0057233D01*
X0052706Y0055633D01*
X0041219Y0055633D01*
X0041361Y0054369D01*
X0041668Y0053023D01*
X0042125Y0051719D01*
X0042724Y0050474D01*
X0043459Y0049304D01*
X0044320Y0048224D01*
X0045297Y0047247D01*
X0046377Y0046386D01*
X0047547Y0045651D01*
X0048792Y0045051D01*
X0050096Y0044595D01*
X0051443Y0044288D01*
X0052706Y0044145D01*
X0052706Y0055633D01*
X0054306Y0055633D01*
X0054306Y0044145D01*
X0055570Y0044288D01*
X0056917Y0044595D01*
X0058221Y0045051D01*
X0059465Y0045651D01*
X0060635Y0046386D01*
X0061715Y0047247D01*
X0062692Y0048224D01*
X0063553Y0049304D01*
X0064288Y0050474D01*
X0064888Y0051719D01*
X0065344Y0053023D01*
X0065652Y0054369D01*
X0065794Y0055633D01*
X0054306Y0055633D01*
X0054306Y0057233D01*
X0052706Y0057233D01*
X0052706Y0068721D01*
X0051443Y0068578D01*
X0050096Y0068271D01*
X0052706Y0068403D02*
X0054306Y0068403D01*
X0054306Y0068721D02*
X0054306Y0057233D01*
X0065794Y0057233D01*
X0065652Y0058497D01*
X0065344Y0059844D01*
X0064888Y0061147D01*
X0064288Y0062392D01*
X0063553Y0063562D01*
X0062692Y0064642D01*
X0061715Y0065619D01*
X0060635Y0066480D01*
X0059465Y0067215D01*
X0058221Y0067815D01*
X0056917Y0068271D01*
X0055570Y0068578D01*
X0054306Y0068721D01*
X0054306Y0066805D02*
X0052706Y0066805D01*
X0052706Y0065206D02*
X0054306Y0065206D01*
X0054306Y0063608D02*
X0052706Y0063608D01*
X0052706Y0062009D02*
X0054306Y0062009D01*
X0054306Y0060411D02*
X0052706Y0060411D01*
X0052706Y0058812D02*
X0054306Y0058812D01*
X0054306Y0057214D02*
X0117706Y0057214D01*
X0117706Y0057233D02*
X0117706Y0055633D01*
X0106219Y0055633D01*
X0106361Y0054369D01*
X0106668Y0053023D01*
X0107125Y0051719D01*
X0107724Y0050474D01*
X0108459Y0049304D01*
X0109320Y0048224D01*
X0110297Y0047247D01*
X0111377Y0046386D01*
X0112547Y0045651D01*
X0113792Y0045051D01*
X0115096Y0044595D01*
X0116443Y0044288D01*
X0117706Y0044145D01*
X0117706Y0055633D01*
X0119306Y0055633D01*
X0119306Y0044145D01*
X0120570Y0044288D01*
X0121917Y0044595D01*
X0123221Y0045051D01*
X0124465Y0045651D01*
X0125635Y0046386D01*
X0126715Y0047247D01*
X0127692Y0048224D01*
X0128553Y0049304D01*
X0129288Y0050474D01*
X0129888Y0051719D01*
X0130344Y0053023D01*
X0130652Y0054369D01*
X0130794Y0055633D01*
X0119306Y0055633D01*
X0119306Y0057233D01*
X0117706Y0057233D01*
X0106219Y0057233D01*
X0106361Y0058497D01*
X0106668Y0059844D01*
X0107125Y0061147D01*
X0107724Y0062392D01*
X0108459Y0063562D01*
X0109320Y0064642D01*
X0110297Y0065619D01*
X0111377Y0066480D01*
X0112547Y0067215D01*
X0113792Y0067815D01*
X0115096Y0068271D01*
X0116443Y0068578D01*
X0117706Y0068721D01*
X0117706Y0057233D01*
X0117706Y0058812D02*
X0119306Y0058812D01*
X0119306Y0057233D02*
X0119306Y0068721D01*
X0120570Y0068578D01*
X0121917Y0068271D01*
X0123221Y0067815D01*
X0124465Y0067215D01*
X0125635Y0066480D01*
X0126715Y0065619D01*
X0127692Y0064642D01*
X0128553Y0063562D01*
X0129288Y0062392D01*
X0129888Y0061147D01*
X0130344Y0059844D01*
X0130652Y0058497D01*
X0130794Y0057233D01*
X0119306Y0057233D01*
X0119306Y0057214D02*
X0202706Y0057214D01*
X0202706Y0057233D02*
X0202706Y0055633D01*
X0191219Y0055633D01*
X0191361Y0054369D01*
X0191668Y0053023D01*
X0192125Y0051719D01*
X0192724Y0050474D01*
X0193459Y0049304D01*
X0194320Y0048224D01*
X0195297Y0047247D01*
X0196377Y0046386D01*
X0197547Y0045651D01*
X0198792Y0045051D01*
X0200096Y0044595D01*
X0201443Y0044288D01*
X0202706Y0044145D01*
X0202706Y0055633D01*
X0204306Y0055633D01*
X0204306Y0044145D01*
X0205570Y0044288D01*
X0206917Y0044595D01*
X0208221Y0045051D01*
X0209465Y0045651D01*
X0210635Y0046386D01*
X0211715Y0047247D01*
X0212692Y0048224D01*
X0213553Y0049304D01*
X0214288Y0050474D01*
X0214888Y0051719D01*
X0215344Y0053023D01*
X0215652Y0054369D01*
X0215794Y0055633D01*
X0204306Y0055633D01*
X0204306Y0057233D01*
X0202706Y0057233D01*
X0191219Y0057233D01*
X0191361Y0058497D01*
X0191668Y0059844D01*
X0192125Y0061147D01*
X0192724Y0062392D01*
X0193459Y0063562D01*
X0194320Y0064642D01*
X0195297Y0065619D01*
X0196377Y0066480D01*
X0197547Y0067215D01*
X0198792Y0067815D01*
X0200096Y0068271D01*
X0201443Y0068578D01*
X0202706Y0068721D01*
X0202706Y0057233D01*
X0202706Y0058812D02*
X0204306Y0058812D01*
X0204306Y0057233D02*
X0204306Y0068721D01*
X0205570Y0068578D01*
X0206917Y0068271D01*
X0208221Y0067815D01*
X0209465Y0067215D01*
X0210635Y0066480D01*
X0211715Y0065619D01*
X0212692Y0064642D01*
X0213553Y0063562D01*
X0214288Y0062392D01*
X0214888Y0061147D01*
X0215344Y0059844D01*
X0215652Y0058497D01*
X0215794Y0057233D01*
X0204306Y0057233D01*
X0204306Y0057214D02*
X0267706Y0057214D01*
X0267706Y0057233D02*
X0267706Y0055633D01*
X0256219Y0055633D01*
X0256361Y0054369D01*
X0256668Y0053023D01*
X0257125Y0051719D01*
X0257724Y0050474D01*
X0258459Y0049304D01*
X0259320Y0048224D01*
X0260297Y0047247D01*
X0261377Y0046386D01*
X0262547Y0045651D01*
X0263792Y0045051D01*
X0265096Y0044595D01*
X0266443Y0044288D01*
X0267706Y0044145D01*
X0267706Y0055633D01*
X0269306Y0055633D01*
X0269306Y0044145D01*
X0270570Y0044288D01*
X0271917Y0044595D01*
X0273221Y0045051D01*
X0274465Y0045651D01*
X0275635Y0046386D01*
X0276715Y0047247D01*
X0277692Y0048224D01*
X0278553Y0049304D01*
X0279288Y0050474D01*
X0279888Y0051719D01*
X0280344Y0053023D01*
X0280652Y0054369D01*
X0280794Y0055633D01*
X0269306Y0055633D01*
X0269306Y0057233D01*
X0267706Y0057233D01*
X0256219Y0057233D01*
X0256361Y0058497D01*
X0256668Y0059844D01*
X0257125Y0061147D01*
X0257724Y0062392D01*
X0258459Y0063562D01*
X0259320Y0064642D01*
X0260297Y0065619D01*
X0261377Y0066480D01*
X0262547Y0067215D01*
X0263792Y0067815D01*
X0265096Y0068271D01*
X0266443Y0068578D01*
X0267706Y0068721D01*
X0267706Y0057233D01*
X0267706Y0058812D02*
X0269306Y0058812D01*
X0269306Y0057233D02*
X0269306Y0068721D01*
X0270570Y0068578D01*
X0271917Y0068271D01*
X0273221Y0067815D01*
X0274465Y0067215D01*
X0275635Y0066480D01*
X0276715Y0065619D01*
X0277692Y0064642D01*
X0278553Y0063562D01*
X0279288Y0062392D01*
X0279888Y0061147D01*
X0280344Y0059844D01*
X0280652Y0058497D01*
X0280794Y0057233D01*
X0269306Y0057233D01*
X0269306Y0057214D02*
X0283506Y0057214D01*
X0283506Y0058812D02*
X0280580Y0058812D01*
X0280146Y0060411D02*
X0283506Y0060411D01*
X0283506Y0062009D02*
X0279473Y0062009D01*
X0278517Y0063608D02*
X0283506Y0063608D01*
X0283506Y0065206D02*
X0277128Y0065206D01*
X0275119Y0066805D02*
X0283506Y0066805D01*
X0283506Y0068403D02*
X0271337Y0068403D01*
X0269306Y0068403D02*
X0267706Y0068403D01*
X0267706Y0066805D02*
X0269306Y0066805D01*
X0269306Y0065206D02*
X0267706Y0065206D01*
X0267706Y0063608D02*
X0269306Y0063608D01*
X0269306Y0062009D02*
X0267706Y0062009D01*
X0267706Y0060411D02*
X0269306Y0060411D01*
X0261894Y0066805D02*
X0210119Y0066805D01*
X0212128Y0065206D02*
X0259885Y0065206D01*
X0258496Y0063608D02*
X0213517Y0063608D01*
X0214473Y0062009D02*
X0257540Y0062009D01*
X0256867Y0060411D02*
X0215146Y0060411D01*
X0215580Y0058812D02*
X0256433Y0058812D01*
X0256221Y0055615D02*
X0215792Y0055615D01*
X0215571Y0054017D02*
X0256441Y0054017D01*
X0256880Y0052418D02*
X0215133Y0052418D01*
X0214455Y0050820D02*
X0257558Y0050820D01*
X0258525Y0049221D02*
X0213487Y0049221D01*
X0212091Y0047623D02*
X0259922Y0047623D01*
X0261953Y0046024D02*
X0210059Y0046024D01*
X0206174Y0044426D02*
X0265839Y0044426D01*
X0267706Y0044426D02*
X0269306Y0044426D01*
X0269306Y0046024D02*
X0267706Y0046024D01*
X0267706Y0047623D02*
X0269306Y0047623D01*
X0269306Y0049221D02*
X0267706Y0049221D01*
X0267706Y0050820D02*
X0269306Y0050820D01*
X0269306Y0052418D02*
X0267706Y0052418D01*
X0267706Y0054017D02*
X0269306Y0054017D01*
X0269306Y0055615D02*
X0267706Y0055615D01*
X0277091Y0047623D02*
X0283506Y0047623D01*
X0283506Y0049221D02*
X0278487Y0049221D01*
X0279455Y0050820D02*
X0283506Y0050820D01*
X0283506Y0052418D02*
X0280133Y0052418D01*
X0280571Y0054017D02*
X0283506Y0054017D01*
X0283506Y0055615D02*
X0280792Y0055615D01*
X0283506Y0046024D02*
X0275059Y0046024D01*
X0271174Y0044426D02*
X0283506Y0044426D01*
X0283506Y0042827D02*
X0038506Y0042827D01*
X0038506Y0044426D02*
X0050839Y0044426D01*
X0052706Y0044426D02*
X0054306Y0044426D01*
X0054306Y0046024D02*
X0052706Y0046024D01*
X0052706Y0047623D02*
X0054306Y0047623D01*
X0054306Y0049221D02*
X0052706Y0049221D01*
X0052706Y0050820D02*
X0054306Y0050820D01*
X0054306Y0052418D02*
X0052706Y0052418D01*
X0052706Y0054017D02*
X0054306Y0054017D01*
X0054306Y0055615D02*
X0052706Y0055615D01*
X0052706Y0057214D02*
X0038506Y0057214D01*
X0038506Y0058812D02*
X0041433Y0058812D01*
X0041867Y0060411D02*
X0038506Y0060411D01*
X0038506Y0062009D02*
X0042540Y0062009D01*
X0043496Y0063608D02*
X0038506Y0063608D01*
X0038506Y0065206D02*
X0044885Y0065206D01*
X0046894Y0066805D02*
X0038506Y0066805D01*
X0038506Y0055615D02*
X0041221Y0055615D01*
X0041441Y0054017D02*
X0038506Y0054017D01*
X0038506Y0052418D02*
X0041880Y0052418D01*
X0042558Y0050820D02*
X0038506Y0050820D01*
X0038506Y0049221D02*
X0043525Y0049221D01*
X0044922Y0047623D02*
X0038506Y0047623D01*
X0038506Y0046024D02*
X0046953Y0046024D01*
X0056174Y0044426D02*
X0115839Y0044426D01*
X0117706Y0044426D02*
X0119306Y0044426D01*
X0119306Y0046024D02*
X0117706Y0046024D01*
X0117706Y0047623D02*
X0119306Y0047623D01*
X0119306Y0049221D02*
X0117706Y0049221D01*
X0117706Y0050820D02*
X0119306Y0050820D01*
X0119306Y0052418D02*
X0117706Y0052418D01*
X0117706Y0054017D02*
X0119306Y0054017D01*
X0119306Y0055615D02*
X0117706Y0055615D01*
X0117706Y0060411D02*
X0119306Y0060411D01*
X0119306Y0062009D02*
X0117706Y0062009D01*
X0117706Y0063608D02*
X0119306Y0063608D01*
X0119306Y0065206D02*
X0117706Y0065206D01*
X0117706Y0066805D02*
X0119306Y0066805D01*
X0119306Y0068403D02*
X0117706Y0068403D01*
X0115676Y0068403D02*
X0056337Y0068403D01*
X0060119Y0066805D02*
X0111894Y0066805D01*
X0109885Y0065206D02*
X0062128Y0065206D01*
X0063517Y0063608D02*
X0108496Y0063608D01*
X0107540Y0062009D02*
X0064473Y0062009D01*
X0065146Y0060411D02*
X0106867Y0060411D01*
X0106433Y0058812D02*
X0065580Y0058812D01*
X0065792Y0055615D02*
X0106221Y0055615D01*
X0106441Y0054017D02*
X0065571Y0054017D01*
X0065133Y0052418D02*
X0106880Y0052418D01*
X0107558Y0050820D02*
X0064455Y0050820D01*
X0063487Y0049221D02*
X0108525Y0049221D01*
X0109922Y0047623D02*
X0062091Y0047623D01*
X0060059Y0046024D02*
X0111953Y0046024D01*
X0121174Y0044426D02*
X0200839Y0044426D01*
X0202706Y0044426D02*
X0204306Y0044426D01*
X0204306Y0046024D02*
X0202706Y0046024D01*
X0202706Y0047623D02*
X0204306Y0047623D01*
X0204306Y0049221D02*
X0202706Y0049221D01*
X0202706Y0050820D02*
X0204306Y0050820D01*
X0204306Y0052418D02*
X0202706Y0052418D01*
X0202706Y0054017D02*
X0204306Y0054017D01*
X0204306Y0055615D02*
X0202706Y0055615D01*
X0202706Y0060411D02*
X0204306Y0060411D01*
X0204306Y0062009D02*
X0202706Y0062009D01*
X0202706Y0063608D02*
X0204306Y0063608D01*
X0204306Y0065206D02*
X0202706Y0065206D01*
X0202706Y0066805D02*
X0204306Y0066805D01*
X0204306Y0068403D02*
X0202706Y0068403D01*
X0200676Y0068403D02*
X0121337Y0068403D01*
X0125119Y0066805D02*
X0196894Y0066805D01*
X0194885Y0065206D02*
X0127128Y0065206D01*
X0128517Y0063608D02*
X0193496Y0063608D01*
X0192540Y0062009D02*
X0129473Y0062009D01*
X0130146Y0060411D02*
X0191867Y0060411D01*
X0191433Y0058812D02*
X0130580Y0058812D01*
X0130792Y0055615D02*
X0191221Y0055615D01*
X0191441Y0054017D02*
X0130571Y0054017D01*
X0130133Y0052418D02*
X0191880Y0052418D01*
X0192558Y0050820D02*
X0129455Y0050820D01*
X0128487Y0049221D02*
X0193525Y0049221D01*
X0194922Y0047623D02*
X0127091Y0047623D01*
X0125059Y0046024D02*
X0196953Y0046024D01*
X0206337Y0068403D02*
X0265676Y0068403D01*
X0265206Y0074797D02*
X0266806Y0074797D01*
X0266806Y0076396D02*
X0265206Y0076396D01*
X0265206Y0077994D02*
X0266806Y0077994D01*
X0266806Y0081933D02*
X0277659Y0081933D01*
X0277591Y0082453D01*
X0277362Y0083307D01*
X0277023Y0084125D01*
X0276581Y0084891D01*
X0276042Y0085593D01*
X0275416Y0086219D01*
X0274714Y0086758D01*
X0273948Y0087200D01*
X0273131Y0087539D01*
X0272276Y0087768D01*
X0271399Y0087883D01*
X0266806Y0087883D01*
X0266806Y0081933D01*
X0266806Y0082790D02*
X0265206Y0082790D01*
X0265206Y0084388D02*
X0266806Y0084388D01*
X0266806Y0085987D02*
X0265206Y0085987D01*
X0265206Y0087585D02*
X0266806Y0087585D01*
X0272956Y0087585D02*
X0283506Y0087585D01*
X0283506Y0085987D02*
X0275648Y0085987D01*
X0276871Y0084388D02*
X0283506Y0084388D01*
X0283506Y0082790D02*
X0277500Y0082790D01*
X0274028Y0089184D02*
X0283506Y0089184D01*
X0283506Y0090782D02*
X0276532Y0090782D01*
X0277975Y0092381D02*
X0283506Y0092381D01*
X0283506Y0093979D02*
X0278637Y0093979D01*
X0279106Y0095578D02*
X0283506Y0095578D01*
X0283506Y0097177D02*
X0279106Y0097177D01*
X0278932Y0098775D02*
X0283506Y0098775D01*
X0283506Y0100374D02*
X0278270Y0100374D01*
X0277243Y0101972D02*
X0283506Y0101972D01*
X0283506Y0103571D02*
X0275645Y0103571D01*
X0269306Y0189890D02*
X0267706Y0189890D01*
X0267706Y0191489D02*
X0269306Y0191489D01*
X0269306Y0193087D02*
X0267706Y0193087D01*
X0267706Y0194686D02*
X0269306Y0194686D01*
X0269306Y0196284D02*
X0267706Y0196284D01*
X0267706Y0197883D02*
X0269306Y0197883D01*
X0269306Y0199481D02*
X0267706Y0199481D01*
X0267706Y0204277D02*
X0269306Y0204277D01*
X0269306Y0205875D02*
X0267706Y0205875D01*
X0267706Y0207474D02*
X0269306Y0207474D01*
X0269306Y0209072D02*
X0267706Y0209072D01*
X0267706Y0210671D02*
X0269306Y0210671D01*
X0269306Y0212269D02*
X0267706Y0212269D01*
X0262659Y0212269D02*
X0209353Y0212269D01*
X0211650Y0210671D02*
X0260362Y0210671D01*
X0258866Y0209072D02*
X0213147Y0209072D01*
X0214237Y0207474D02*
X0257775Y0207474D01*
X0257029Y0205875D02*
X0214983Y0205875D01*
X0215474Y0204277D02*
X0256539Y0204277D01*
X0256269Y0202678D02*
X0215744Y0202678D01*
X0215664Y0199481D02*
X0256348Y0199481D01*
X0256717Y0197883D02*
X0215295Y0197883D01*
X0214679Y0196284D02*
X0257334Y0196284D01*
X0258219Y0194686D02*
X0213793Y0194686D01*
X0212555Y0193087D02*
X0259457Y0193087D01*
X0261248Y0191489D02*
X0210764Y0191489D01*
X0207760Y0189890D02*
X0264253Y0189890D01*
X0280474Y0204277D02*
X0283506Y0204277D01*
X0283506Y0205875D02*
X0279983Y0205875D01*
X0279237Y0207474D02*
X0283506Y0207474D01*
X0283506Y0209072D02*
X0278147Y0209072D01*
X0276650Y0210671D02*
X0283506Y0210671D01*
X0283506Y0212269D02*
X0274353Y0212269D01*
M02*
