G75*
%MOIN*%
%OFA0B0*%
%FSLAX25Y25*%
%IPPOS*%
%LPD*%
%AMOC8*
5,1,8,0,0,1.08239X$1,22.5*
%
%ADD10C,0.06000*%
%ADD11C,0.10700*%
%ADD12R,0.20800X0.09800*%
%ADD13C,0.21800*%
%ADD14OC8,0.05800*%
D10*
X0236006Y0101333D02*
X0236006Y0106533D01*
X0236006Y0131333D02*
X0236006Y0136533D01*
D11*
X0261056Y0096733D02*
X0270956Y0096733D01*
X0270956Y0081133D02*
X0261056Y0081133D01*
D12*
X0273406Y0139033D03*
X0273406Y0173833D03*
X0048606Y0173833D03*
X0048606Y0139033D03*
D13*
X0053506Y0201433D03*
X0118506Y0201433D03*
X0203506Y0201433D03*
X0268506Y0201433D03*
X0268506Y0056433D03*
X0203506Y0056433D03*
X0118506Y0056433D03*
X0053506Y0056433D03*
D14*
X0041006Y0043933D03*
X0066006Y0043933D03*
X0088506Y0043933D03*
X0106006Y0043933D03*
X0088506Y0061433D03*
X0091006Y0071433D03*
X0101006Y0071433D03*
X0108506Y0071433D03*
X0113506Y0081433D03*
X0123506Y0081433D03*
X0131006Y0076433D03*
X0136006Y0068933D03*
X0136006Y0061433D03*
X0151006Y0061433D03*
X0166006Y0061433D03*
X0181006Y0061433D03*
X0196006Y0061433D03*
X0221006Y0061433D03*
X0228506Y0061433D03*
X0236006Y0068933D03*
X0243506Y0061433D03*
X0258506Y0071433D03*
X0281006Y0068933D03*
X0281006Y0043933D03*
X0256006Y0043933D03*
X0243506Y0043933D03*
X0228506Y0043933D03*
X0216006Y0043933D03*
X0191006Y0043933D03*
X0181006Y0043933D03*
X0166006Y0043933D03*
X0151006Y0043933D03*
X0136006Y0043933D03*
X0101006Y0086433D03*
X0091006Y0086433D03*
X0106006Y0093933D03*
X0113506Y0093933D03*
X0113506Y0103933D03*
X0113506Y0111433D03*
X0113506Y0111433D03*
X0113506Y0121433D03*
X0121006Y0121433D03*
X0113506Y0131433D03*
X0113506Y0141433D03*
X0121006Y0141433D03*
X0126006Y0171433D03*
X0126006Y0181433D03*
X0118506Y0181433D03*
X0111006Y0181433D03*
X0103506Y0191433D03*
X0091006Y0191433D03*
X0078506Y0191433D03*
X0068506Y0191433D03*
X0063506Y0181433D03*
X0051006Y0183933D03*
X0041006Y0186433D03*
X0063506Y0171433D03*
X0063506Y0141433D03*
X0063506Y0131433D03*
X0051006Y0128933D03*
X0041006Y0126433D03*
X0041006Y0113933D03*
X0041006Y0101433D03*
X0041006Y0086433D03*
X0041006Y0071433D03*
X0063506Y0071433D03*
X0071006Y0061433D03*
X0063506Y0086433D03*
X0063506Y0101433D03*
X0063506Y0113933D03*
X0111006Y0171433D03*
X0133506Y0191433D03*
X0146006Y0191433D03*
X0161006Y0191433D03*
X0176006Y0191433D03*
X0188506Y0191433D03*
X0218506Y0191433D03*
X0231006Y0191433D03*
X0243506Y0191433D03*
X0253506Y0191433D03*
X0258506Y0181433D03*
X0271006Y0183933D03*
X0281006Y0186433D03*
X0258506Y0171433D03*
X0258506Y0141433D03*
X0258506Y0131433D03*
X0271006Y0128933D03*
X0281006Y0126433D03*
X0281006Y0111433D03*
X0258506Y0111433D03*
X0236006Y0078933D03*
X0211006Y0106433D03*
X0203506Y0106433D03*
X0196006Y0106433D03*
X0196006Y0113933D03*
X0203506Y0113933D03*
X0203506Y0123933D03*
X0196006Y0123933D03*
X0196006Y0131433D03*
X0203506Y0131433D03*
X0211006Y0131433D03*
X0218506Y0213933D03*
X0231006Y0213933D03*
X0243506Y0213933D03*
X0253506Y0213933D03*
X0281006Y0213933D03*
X0188506Y0213933D03*
X0176006Y0213933D03*
X0161006Y0213933D03*
X0146006Y0213933D03*
X0133506Y0213933D03*
X0103506Y0213933D03*
X0091006Y0213933D03*
X0078506Y0213933D03*
X0068506Y0213933D03*
X0041006Y0213933D03*
M02*
