%
M48
M72
T01C0.02362
T02C0.03200
T03C0.06600
T04C0.11024
%
T01
X41006Y43933
X66006Y43933
X88506Y43933
X106006Y43933
X88506Y61433
X91006Y71433
X101006Y71433
X108506Y71433
X113506Y81433
X123506Y81433
X131006Y76433
X136006Y68933
X136006Y61433
X151006Y61433
X166006Y61433
X181006Y61433
X196006Y61433
X221006Y61433
X228506Y61433
X236006Y68933
X243506Y61433
X258506Y71433
X281006Y68933
X281006Y43933
X256006Y43933
X243506Y43933
X228506Y43933
X216006Y43933
X191006Y43933
X181006Y43933
X166006Y43933
X151006Y43933
X136006Y43933
X101006Y86433
X91006Y86433
X106006Y93933
X113506Y93933
X113506Y103933
X113506Y111433
X113506Y111433
X113506Y121433
X121006Y121433
X113506Y131433
X113506Y141433
X121006Y141433
X126006Y171433
X126006Y181433
X118506Y181433
X111006Y181433
X103506Y191433
X91006Y191433
X78506Y191433
X68506Y191433
X63506Y181433
X51006Y183933
X41006Y186433
X63506Y171433
X63506Y141433
X63506Y131433
X51006Y128933
X41006Y126433
X41006Y113933
X41006Y101433
X41006Y86433
X41006Y71433
X63506Y71433
X71006Y61433
X63506Y86433
X63506Y101433
X63506Y113933
X111006Y171433
X133506Y191433
X146006Y191433
X161006Y191433
X176006Y191433
X188506Y191433
X218506Y191433
X231006Y191433
X243506Y191433
X253506Y191433
X258506Y181433
X271006Y183933
X281006Y186433
X258506Y171433
X258506Y141433
X258506Y131433
X271006Y128933
X281006Y126433
X281006Y111433
X258506Y111433
X236006Y78933
X211006Y106433
X203506Y106433
X196006Y106433
X196006Y113933
X203506Y113933
X203506Y123933
X196006Y123933
X196006Y131433
X203506Y131433
X211006Y131433
X218506Y213933
X231006Y213933
X243506Y213933
X253506Y213933
X281006Y213933
X188506Y213933
X176006Y213933
X161006Y213933
X146006Y213933
X133506Y213933
X103506Y213933
X91006Y213933
X78506Y213933
X68506Y213933
X41006Y213933
T02
X236006Y133933
X236006Y103933
T03
X266006Y96733
X266006Y81133
T04
X268506Y56433
X203506Y56433
X118506Y56433
X53506Y56433
X53506Y201433
X118506Y201433
X203506Y201433
X268506Y201433
M30
