%
M48
M72
T01C0.01969
T02C0.03200
T03C0.04000
T04C0.06600
T05C0.11024
%
T01
X14100Y110183
X20350Y110183
X14100Y117683
X14100Y125183
X20350Y125183
X20350Y130183
X14100Y130183
X14100Y137683
X14100Y145183
X20350Y145183
X19100Y172683
X12850Y172683
X12850Y180183
X12850Y185183
X12850Y190183
X19100Y190183
X19100Y185183
X26600Y190183
X34100Y190183
X34100Y185183
X40350Y182683
X40350Y175183
X47850Y175183
X34100Y175183
X40350Y190183
X47850Y190183
X59100Y140183
X64100Y136433
X59100Y132683
X64100Y127683
X59100Y122683
X64100Y118933
X59100Y115183
X69100Y115183
X74100Y118933
X79100Y115183
X84100Y118933
X89100Y115183
X89100Y122683
X84100Y127683
X89100Y132683
X84100Y136433
X89100Y140183
X79100Y140183
X74100Y136433
X69100Y132683
X74100Y127683
X69100Y122683
X79100Y122683
X79100Y132683
X69100Y140183
X125350Y97683
X149100Y97683
X152850Y107683
X152850Y113933
X152850Y120183
X152850Y126433
X165350Y113933
X170350Y113933
X171600Y107683
X165350Y107683
X159100Y107683
X152850Y145183
X152850Y150183
X159100Y150183
X165350Y150183
X165350Y145183
X171600Y145183
X171600Y150183
X220350Y197683
X224100Y193933
X216600Y201433
X236600Y203933
X241600Y200183
X247850Y198933
X266600Y200183
X271600Y200183
X271600Y205183
X266600Y205183
X271600Y210183
X271600Y215183
X279100Y241433
X305350Y232683
X311600Y226433
X305350Y220183
X311600Y212683
X305350Y205183
X311600Y198933
X305350Y192683
X317850Y192683
X317850Y205183
X317850Y220183
X317850Y232683
X266600Y170183
X260350Y170183
X260350Y163933
X260350Y157683
X266600Y157683
X266600Y163933
X266600Y151433
X266600Y145183
X260350Y145183
X260350Y151433
X254100Y151433
X254100Y145183
X247850Y145183
X247850Y151433
X241600Y151433
X241600Y145183
X241600Y157683
X241600Y163933
X247850Y163933
X247850Y157683
X254100Y157683
X254100Y163933
X254100Y170183
X247850Y170183
X241600Y170183
X230350Y127683
X242850Y122683
X246600Y118933
X250350Y113933
X246600Y110183
X231600Y91433
X231600Y86433
X224100Y86433
X216600Y86433
X216600Y91433
X241600Y86433
X251600Y86433
X261600Y86433
X271600Y86433
X271600Y91433
X279100Y86433
X286600Y86433
X286600Y91433
X275350Y115183
X272850Y118933
X270350Y122683
X275350Y127683
X297850Y131433
X307850Y135183
X312850Y135183
X317850Y135183
X317850Y140183
X317850Y145183
X317850Y150183
X312850Y150183
X317850Y155183
X317850Y160183
X317850Y165183
X312850Y165183
X307850Y165183
X307850Y150183
X297850Y116433
X152850Y225183
X147850Y225183
X142850Y225183
X137850Y225183
X137850Y231433
X142850Y231433
X147850Y231433
X152850Y231433
X152850Y243933
X147850Y243933
X142850Y243933
X137850Y243933
X137850Y250183
X142850Y250183
X147850Y250183
X152850Y250183
X142850Y257683
X137850Y257683
X137850Y262683
X142850Y262683
T02
X114100Y247683
X114100Y207683
X156600Y215183
X166600Y215183
X166600Y197683
X156600Y197683
X156600Y180183
X166600Y180183
X166600Y162683
X156600Y162683
X156600Y137683
X166600Y137683
X242100Y97683
X261100Y97683
X70350Y82683
X60350Y82683
X94100Y310183
X94100Y350183
T03
X161600Y325183
X161600Y305183
X161600Y285183
X191600Y285183
X191600Y305183
X191600Y325183
X216600Y325183
X216600Y305183
X216600Y285183
X246600Y285183
X246600Y305183
X246600Y325183
X271600Y325183
X271600Y305183
X271600Y285183
X301600Y285183
X301600Y305183
X301600Y325183
X326600Y325183
X326600Y305183
X326600Y285183
X356600Y285183
X356600Y305183
X356600Y325183
X356600Y255183
X326600Y255183
X301600Y255183
X271600Y255183
X246600Y255183
X216600Y255183
X191600Y255183
X161600Y255183
X91600Y180183
X91600Y160183
X26600Y160183
X26600Y180183
X344100Y195183
X354100Y195183
X354100Y205183
X344100Y205183
X344100Y215183
X354100Y215183
X354100Y225183
X344100Y225183
X344100Y147683
X344100Y137683
X354100Y137683
X354100Y147683
X354100Y127683
X344100Y127683
X344100Y117683
X344100Y107683
X354100Y107683
X354100Y117683
T04
X319400Y350183
X303800Y350183
X274400Y350183
X258800Y350183
X229400Y350183
X213800Y350183
X184400Y350183
X168800Y350183
X129400Y350183
X113800Y350183
X74400Y350183
X58800Y350183
T05
X21600Y78933
X21600Y360183
X356600Y360183
X356600Y78933
M30
