G75*
%MOIN*%
%OFA0B0*%
%FSLAX25Y25*%
%IPPOS*%
%LPD*%
%AMOC8*
5,1,8,0,0,1.08239X$1,22.5*
%
%ADD10C,0.10000*%
%ADD11OC8,0.10000*%
%ADD12C,0.05600*%
%ADD13R,0.23000X0.23000*%
%ADD14C,0.09900*%
%ADD15OC8,0.06400*%
%ADD16C,0.06400*%
%ADD17OC8,0.05600*%
%ADD18C,0.05600*%
%ADD19OC8,0.03969*%
%ADD20C,0.01200*%
%ADD21C,0.04000*%
%ADD22C,0.02400*%
%ADD23C,0.01600*%
D10*
X0026600Y0140183D03*
X0091600Y0140183D03*
D11*
X0091600Y0160183D03*
X0026600Y0160183D03*
D12*
X0114100Y0184883D02*
X0114100Y0190483D01*
X0114100Y0224883D02*
X0114100Y0230483D01*
X0094100Y0287383D02*
X0094100Y0292983D01*
X0094100Y0327383D02*
X0094100Y0332983D01*
D13*
X0021600Y0340183D03*
X0021600Y0058933D03*
X0356600Y0058933D03*
X0356600Y0340183D03*
D14*
X0319400Y0335133D02*
X0319400Y0325233D01*
X0303800Y0325233D02*
X0303800Y0335133D01*
X0274400Y0335133D02*
X0274400Y0325233D01*
X0258800Y0325233D02*
X0258800Y0335133D01*
X0229400Y0335133D02*
X0229400Y0325233D01*
X0213800Y0325233D02*
X0213800Y0335133D01*
X0184400Y0335133D02*
X0184400Y0325233D01*
X0168800Y0325233D02*
X0168800Y0335133D01*
X0129400Y0335133D02*
X0129400Y0325233D01*
X0113800Y0325233D02*
X0113800Y0335133D01*
X0074400Y0335133D02*
X0074400Y0325233D01*
X0058800Y0325233D02*
X0058800Y0335133D01*
D15*
X0344100Y0205183D03*
X0344100Y0195183D03*
X0344100Y0185183D03*
X0344100Y0175183D03*
X0354100Y0175183D03*
X0354100Y0185183D03*
X0354100Y0195183D03*
X0354100Y0205183D03*
X0354100Y0127683D03*
X0354100Y0117683D03*
X0354100Y0107683D03*
X0354100Y0097683D03*
X0354100Y0087683D03*
X0344100Y0087683D03*
X0344100Y0097683D03*
X0344100Y0107683D03*
X0344100Y0117683D03*
X0344100Y0127683D03*
D16*
X0353400Y0235183D02*
X0359800Y0235183D01*
X0329800Y0235183D02*
X0323400Y0235183D01*
X0304800Y0235183D02*
X0298400Y0235183D01*
X0274800Y0235183D02*
X0268400Y0235183D01*
X0249800Y0235183D02*
X0243400Y0235183D01*
X0219800Y0235183D02*
X0213400Y0235183D01*
X0194800Y0235183D02*
X0188400Y0235183D01*
X0164800Y0235183D02*
X0158400Y0235183D01*
X0158400Y0265183D02*
X0164800Y0265183D01*
X0164800Y0285183D02*
X0158400Y0285183D01*
X0158400Y0305183D02*
X0164800Y0305183D01*
X0188400Y0305183D02*
X0194800Y0305183D01*
X0213400Y0305183D02*
X0219800Y0305183D01*
X0243400Y0305183D02*
X0249800Y0305183D01*
X0268400Y0305183D02*
X0274800Y0305183D01*
X0298400Y0305183D02*
X0304800Y0305183D01*
X0323400Y0305183D02*
X0329800Y0305183D01*
X0329800Y0285183D02*
X0323400Y0285183D01*
X0304800Y0285183D02*
X0298400Y0285183D01*
X0298400Y0265183D02*
X0304800Y0265183D01*
X0323400Y0265183D02*
X0329800Y0265183D01*
X0353400Y0265183D02*
X0359800Y0265183D01*
X0359800Y0285183D02*
X0353400Y0285183D01*
X0353400Y0305183D02*
X0359800Y0305183D01*
X0274800Y0285183D02*
X0268400Y0285183D01*
X0249800Y0285183D02*
X0243400Y0285183D01*
X0243400Y0265183D02*
X0249800Y0265183D01*
X0268400Y0265183D02*
X0274800Y0265183D01*
X0219800Y0265183D02*
X0213400Y0265183D01*
X0194800Y0265183D02*
X0188400Y0265183D01*
X0188400Y0285183D02*
X0194800Y0285183D01*
X0213400Y0285183D02*
X0219800Y0285183D01*
D17*
X0166600Y0195183D03*
X0156600Y0195183D03*
X0156600Y0177683D03*
X0166600Y0177683D03*
X0166600Y0160183D03*
X0156600Y0160183D03*
X0156600Y0142683D03*
X0166600Y0142683D03*
X0166600Y0117683D03*
X0156600Y0117683D03*
X0070350Y0062683D03*
X0060350Y0062683D03*
D18*
X0242100Y0077683D03*
X0261100Y0077683D03*
D19*
X0271600Y0071433D03*
X0271600Y0066433D03*
X0279100Y0066433D03*
X0286600Y0066433D03*
X0286600Y0071433D03*
X0261600Y0066433D03*
X0251600Y0066433D03*
X0241600Y0066433D03*
X0231600Y0066433D03*
X0231600Y0071433D03*
X0224100Y0066433D03*
X0216600Y0066433D03*
X0216600Y0071433D03*
X0246600Y0090183D03*
X0250350Y0093933D03*
X0246600Y0098933D03*
X0242850Y0102683D03*
X0230350Y0107683D03*
X0241600Y0125183D03*
X0247850Y0125183D03*
X0254100Y0125183D03*
X0260350Y0125183D03*
X0266600Y0125183D03*
X0266600Y0131433D03*
X0260350Y0131433D03*
X0254100Y0131433D03*
X0247850Y0131433D03*
X0241600Y0131433D03*
X0241600Y0137683D03*
X0247850Y0137683D03*
X0247850Y0143933D03*
X0241600Y0143933D03*
X0241600Y0150183D03*
X0247850Y0150183D03*
X0254100Y0150183D03*
X0260350Y0150183D03*
X0260350Y0143933D03*
X0260350Y0137683D03*
X0254100Y0137683D03*
X0254100Y0143933D03*
X0266600Y0143933D03*
X0266600Y0137683D03*
X0266600Y0150183D03*
X0266600Y0180183D03*
X0271600Y0180183D03*
X0271600Y0185183D03*
X0266600Y0185183D03*
X0271600Y0190183D03*
X0271600Y0195183D03*
X0247850Y0178933D03*
X0241600Y0180183D03*
X0236600Y0183933D03*
X0224100Y0173933D03*
X0220350Y0177683D03*
X0216600Y0181433D03*
X0171600Y0130183D03*
X0165350Y0130183D03*
X0165350Y0125183D03*
X0171600Y0125183D03*
X0159100Y0130183D03*
X0152850Y0130183D03*
X0152850Y0125183D03*
X0152850Y0106433D03*
X0152850Y0100183D03*
X0152850Y0093933D03*
X0152850Y0087683D03*
X0159100Y0087683D03*
X0165350Y0087683D03*
X0171600Y0087683D03*
X0170350Y0093933D03*
X0165350Y0093933D03*
X0149100Y0077683D03*
X0125350Y0077683D03*
X0089100Y0095183D03*
X0084100Y0098933D03*
X0079100Y0095183D03*
X0074100Y0098933D03*
X0069100Y0095183D03*
X0064100Y0098933D03*
X0059100Y0095183D03*
X0059100Y0102683D03*
X0064100Y0107683D03*
X0069100Y0102683D03*
X0074100Y0107683D03*
X0079100Y0102683D03*
X0084100Y0107683D03*
X0089100Y0102683D03*
X0089100Y0112683D03*
X0084100Y0116433D03*
X0079100Y0112683D03*
X0074100Y0116433D03*
X0069100Y0112683D03*
X0064100Y0116433D03*
X0059100Y0112683D03*
X0059100Y0120183D03*
X0069100Y0120183D03*
X0079100Y0120183D03*
X0089100Y0120183D03*
X0047850Y0155183D03*
X0040350Y0155183D03*
X0034100Y0155183D03*
X0040350Y0162683D03*
X0034100Y0165183D03*
X0034100Y0170183D03*
X0040350Y0170183D03*
X0047850Y0170183D03*
X0026600Y0170183D03*
X0019100Y0170183D03*
X0012850Y0170183D03*
X0012850Y0165183D03*
X0012850Y0160183D03*
X0019100Y0165183D03*
X0019100Y0152683D03*
X0012850Y0152683D03*
X0014100Y0125183D03*
X0020350Y0125183D03*
X0014100Y0117683D03*
X0014100Y0110183D03*
X0014100Y0105183D03*
X0020350Y0105183D03*
X0020350Y0110183D03*
X0014100Y0097683D03*
X0014100Y0090183D03*
X0020350Y0090183D03*
X0137850Y0205183D03*
X0142850Y0205183D03*
X0147850Y0205183D03*
X0147850Y0211433D03*
X0142850Y0211433D03*
X0137850Y0211433D03*
X0137850Y0223933D03*
X0142850Y0223933D03*
X0147850Y0223933D03*
X0147850Y0230183D03*
X0142850Y0230183D03*
X0137850Y0230183D03*
X0137850Y0237683D03*
X0142850Y0237683D03*
X0142850Y0242683D03*
X0137850Y0242683D03*
X0279100Y0221433D03*
X0305350Y0212683D03*
X0311600Y0206433D03*
X0317850Y0212683D03*
X0317850Y0200183D03*
X0311600Y0192683D03*
X0305350Y0185183D03*
X0311600Y0178933D03*
X0305350Y0172683D03*
X0317850Y0172683D03*
X0317850Y0185183D03*
X0305350Y0200183D03*
X0307850Y0145183D03*
X0312850Y0145183D03*
X0317850Y0145183D03*
X0317850Y0140183D03*
X0317850Y0135183D03*
X0317850Y0130183D03*
X0312850Y0130183D03*
X0307850Y0130183D03*
X0317850Y0125183D03*
X0317850Y0120183D03*
X0317850Y0115183D03*
X0312850Y0115183D03*
X0307850Y0115183D03*
X0297850Y0111433D03*
X0297850Y0096433D03*
X0275350Y0095183D03*
X0272850Y0098933D03*
X0270350Y0102683D03*
X0275350Y0107683D03*
D20*
X0039143Y0042234D02*
X0038843Y0041933D01*
X0339357Y0041933D01*
X0339057Y0042234D01*
X0338600Y0043336D01*
X0338600Y0074530D01*
X0339057Y0075632D01*
X0339901Y0076476D01*
X0341003Y0076933D01*
X0372197Y0076933D01*
X0373299Y0076476D01*
X0373521Y0076254D01*
X0373521Y0256433D01*
X0135350Y0256433D01*
X0135350Y0222683D01*
X0184529Y0222683D01*
X0186600Y0224754D01*
X0186600Y0229218D01*
X0184888Y0229927D01*
X0183144Y0231671D01*
X0182200Y0233950D01*
X0182200Y0236416D01*
X0183144Y0238695D01*
X0184888Y0240439D01*
X0186600Y0241148D01*
X0186600Y0243678D01*
X0187361Y0245515D01*
X0188768Y0246922D01*
X0188768Y0246922D01*
X0189861Y0248015D01*
X0189861Y0248015D01*
X0191268Y0249422D01*
X0193105Y0250183D01*
X0355095Y0250183D01*
X0356932Y0249422D01*
X0358339Y0248015D01*
X0360839Y0245515D01*
X0361600Y0243678D01*
X0361600Y0241148D01*
X0363312Y0240439D01*
X0365056Y0238695D01*
X0366000Y0236416D01*
X0366000Y0233950D01*
X0365056Y0231671D01*
X0363312Y0229927D01*
X0361033Y0228983D01*
X0352167Y0228983D01*
X0349888Y0229927D01*
X0348144Y0231671D01*
X0347200Y0233950D01*
X0347200Y0236416D01*
X0348144Y0238695D01*
X0349632Y0240183D01*
X0333568Y0240183D01*
X0335056Y0238695D01*
X0336000Y0236416D01*
X0336000Y0233950D01*
X0335056Y0231671D01*
X0333312Y0229927D01*
X0331033Y0228983D01*
X0322167Y0228983D01*
X0319888Y0229927D01*
X0318144Y0231671D01*
X0317200Y0233950D01*
X0317200Y0236416D01*
X0318144Y0238695D01*
X0319632Y0240183D01*
X0308568Y0240183D01*
X0310056Y0238695D01*
X0311000Y0236416D01*
X0311000Y0233950D01*
X0310056Y0231671D01*
X0308312Y0229927D01*
X0306033Y0228983D01*
X0305800Y0228983D01*
X0305800Y0224348D01*
X0305161Y0222804D01*
X0301411Y0219054D01*
X0300229Y0217872D01*
X0298685Y0217233D01*
X0281949Y0217233D01*
X0281165Y0216449D01*
X0277035Y0216449D01*
X0274116Y0219369D01*
X0274116Y0223498D01*
X0277035Y0226417D01*
X0281165Y0226417D01*
X0281949Y0225633D01*
X0296110Y0225633D01*
X0297400Y0226923D01*
X0297400Y0228983D01*
X0297167Y0228983D01*
X0294888Y0229927D01*
X0293144Y0231671D01*
X0292200Y0233950D01*
X0292200Y0236416D01*
X0293144Y0238695D01*
X0294632Y0240183D01*
X0278568Y0240183D01*
X0280056Y0238695D01*
X0281000Y0236416D01*
X0281000Y0233950D01*
X0280056Y0231671D01*
X0278312Y0229927D01*
X0276033Y0228983D01*
X0267167Y0228983D01*
X0264888Y0229927D01*
X0263144Y0231671D01*
X0262200Y0233950D01*
X0262200Y0236416D01*
X0263144Y0238695D01*
X0264632Y0240183D01*
X0253568Y0240183D01*
X0255056Y0238695D01*
X0256000Y0236416D01*
X0256000Y0233950D01*
X0255056Y0231671D01*
X0253312Y0229927D01*
X0251033Y0228983D01*
X0242167Y0228983D01*
X0239888Y0229927D01*
X0238144Y0231671D01*
X0237200Y0233950D01*
X0237200Y0236416D01*
X0238144Y0238695D01*
X0239632Y0240183D01*
X0223568Y0240183D01*
X0225056Y0238695D01*
X0226000Y0236416D01*
X0226000Y0233950D01*
X0225056Y0231671D01*
X0223312Y0229927D01*
X0221033Y0228983D01*
X0212167Y0228983D01*
X0209888Y0229927D01*
X0208144Y0231671D01*
X0207200Y0233950D01*
X0207200Y0236416D01*
X0208144Y0238695D01*
X0209632Y0240183D01*
X0198568Y0240183D01*
X0200056Y0238695D01*
X0201000Y0236416D01*
X0201000Y0233950D01*
X0200056Y0231671D01*
X0198312Y0229927D01*
X0196600Y0229218D01*
X0196600Y0221688D01*
X0195839Y0219851D01*
X0190839Y0214851D01*
X0190839Y0214851D01*
X0189432Y0213444D01*
X0187595Y0212683D01*
X0135350Y0212683D01*
X0135350Y0172683D01*
X0131600Y0172683D01*
X0131600Y0144188D01*
X0130839Y0142351D01*
X0125839Y0137351D01*
X0124432Y0135944D01*
X0122595Y0135183D01*
X0097914Y0135183D01*
X0096132Y0133401D01*
X0093191Y0132183D01*
X0090009Y0132183D01*
X0087068Y0133401D01*
X0084818Y0135651D01*
X0083600Y0138592D01*
X0083600Y0141774D01*
X0084818Y0144715D01*
X0087068Y0146965D01*
X0090009Y0148183D01*
X0093191Y0148183D01*
X0096132Y0146965D01*
X0097914Y0145183D01*
X0119529Y0145183D01*
X0121600Y0147254D01*
X0121600Y0172683D01*
X0004600Y0172683D01*
X0004600Y0076176D01*
X0004901Y0076476D01*
X0006003Y0076933D01*
X0037197Y0076933D01*
X0038299Y0076476D01*
X0039143Y0075632D01*
X0039600Y0074530D01*
X0039600Y0043336D01*
X0039143Y0042234D01*
X0039287Y0042580D02*
X0338913Y0042580D01*
X0338600Y0043779D02*
X0039600Y0043779D01*
X0039600Y0044977D02*
X0338600Y0044977D01*
X0338600Y0046176D02*
X0039600Y0046176D01*
X0039600Y0047374D02*
X0338600Y0047374D01*
X0338600Y0048573D02*
X0039600Y0048573D01*
X0039600Y0049771D02*
X0338600Y0049771D01*
X0338600Y0050970D02*
X0039600Y0050970D01*
X0039600Y0052168D02*
X0338600Y0052168D01*
X0338600Y0053367D02*
X0039600Y0053367D01*
X0039600Y0054565D02*
X0338600Y0054565D01*
X0338600Y0055764D02*
X0039600Y0055764D01*
X0039600Y0056962D02*
X0057868Y0056962D01*
X0057948Y0056883D02*
X0062752Y0056883D01*
X0066150Y0060281D01*
X0066150Y0060661D01*
X0068527Y0058283D01*
X0070150Y0058283D01*
X0070150Y0062483D01*
X0070550Y0062483D01*
X0070550Y0058283D01*
X0072173Y0058283D01*
X0074750Y0060861D01*
X0074750Y0062483D01*
X0070550Y0062483D01*
X0070550Y0062883D01*
X0074750Y0062883D01*
X0074750Y0064506D01*
X0072173Y0067083D01*
X0070550Y0067083D01*
X0070550Y0062883D01*
X0070150Y0062883D01*
X0070150Y0067083D01*
X0068527Y0067083D01*
X0066150Y0064706D01*
X0066150Y0065085D01*
X0062752Y0068483D01*
X0057948Y0068483D01*
X0054550Y0065085D01*
X0054550Y0060281D01*
X0057948Y0056883D01*
X0056670Y0058161D02*
X0039600Y0058161D01*
X0039600Y0059359D02*
X0055471Y0059359D01*
X0054550Y0060558D02*
X0039600Y0060558D01*
X0039600Y0061756D02*
X0054550Y0061756D01*
X0054550Y0062955D02*
X0039600Y0062955D01*
X0039600Y0064153D02*
X0054550Y0064153D01*
X0054816Y0065352D02*
X0039600Y0065352D01*
X0039600Y0066550D02*
X0056015Y0066550D01*
X0057213Y0067749D02*
X0039600Y0067749D01*
X0039600Y0068947D02*
X0338600Y0068947D01*
X0338600Y0067749D02*
X0063487Y0067749D01*
X0064685Y0066550D02*
X0067995Y0066550D01*
X0066796Y0065352D02*
X0065884Y0065352D01*
X0070150Y0065352D02*
X0070550Y0065352D01*
X0070550Y0066550D02*
X0070150Y0066550D01*
X0070150Y0064153D02*
X0070550Y0064153D01*
X0070550Y0062955D02*
X0070150Y0062955D01*
X0070150Y0061756D02*
X0070550Y0061756D01*
X0070550Y0060558D02*
X0070150Y0060558D01*
X0070150Y0059359D02*
X0070550Y0059359D01*
X0073249Y0059359D02*
X0338600Y0059359D01*
X0338600Y0058161D02*
X0064030Y0058161D01*
X0065229Y0059359D02*
X0067451Y0059359D01*
X0066253Y0060558D02*
X0066150Y0060558D01*
X0062832Y0056962D02*
X0338600Y0056962D01*
X0338600Y0060558D02*
X0074447Y0060558D01*
X0074750Y0061756D02*
X0338600Y0061756D01*
X0338600Y0062955D02*
X0074750Y0062955D01*
X0074750Y0064153D02*
X0338600Y0064153D01*
X0338600Y0065352D02*
X0073904Y0065352D01*
X0072705Y0066550D02*
X0338600Y0066550D01*
X0338600Y0070146D02*
X0039600Y0070146D01*
X0039600Y0071344D02*
X0338600Y0071344D01*
X0338600Y0072543D02*
X0263847Y0072543D01*
X0264385Y0072766D02*
X0266017Y0074398D01*
X0266900Y0076529D01*
X0266900Y0078837D01*
X0266017Y0080969D01*
X0264385Y0082600D01*
X0262254Y0083483D01*
X0259946Y0083483D01*
X0257815Y0082600D01*
X0256183Y0080969D01*
X0255300Y0078837D01*
X0255300Y0076529D01*
X0256183Y0074398D01*
X0257815Y0072766D01*
X0259946Y0071883D01*
X0262254Y0071883D01*
X0264385Y0072766D01*
X0265361Y0073741D02*
X0338600Y0073741D01*
X0338770Y0074940D02*
X0266242Y0074940D01*
X0266738Y0076138D02*
X0339563Y0076138D01*
X0341532Y0081483D02*
X0346668Y0081483D01*
X0350090Y0084905D01*
X0352112Y0082883D01*
X0353700Y0082883D01*
X0353700Y0087283D01*
X0354500Y0087283D01*
X0354500Y0082883D01*
X0356088Y0082883D01*
X0358900Y0085695D01*
X0358900Y0087283D01*
X0354500Y0087283D01*
X0354500Y0088083D01*
X0358900Y0088083D01*
X0358900Y0089671D01*
X0356088Y0092483D01*
X0354500Y0092483D01*
X0354500Y0088083D01*
X0353700Y0088083D01*
X0353700Y0092483D01*
X0352112Y0092483D01*
X0350090Y0090461D01*
X0347868Y0092683D01*
X0350090Y0094905D01*
X0352112Y0092883D01*
X0353700Y0092883D01*
X0353700Y0097283D01*
X0354500Y0097283D01*
X0354500Y0092883D01*
X0356088Y0092883D01*
X0358900Y0095695D01*
X0358900Y0097283D01*
X0354500Y0097283D01*
X0354500Y0098083D01*
X0358900Y0098083D01*
X0358900Y0099671D01*
X0356878Y0101693D01*
X0360300Y0105115D01*
X0360300Y0110251D01*
X0357868Y0112683D01*
X0360300Y0115115D01*
X0360300Y0120251D01*
X0357868Y0122683D01*
X0360300Y0125115D01*
X0360300Y0130251D01*
X0356668Y0133883D01*
X0351532Y0133883D01*
X0349100Y0131451D01*
X0346668Y0133883D01*
X0341532Y0133883D01*
X0337900Y0130251D01*
X0337900Y0125115D01*
X0340332Y0122683D01*
X0337900Y0120251D01*
X0337900Y0115115D01*
X0340332Y0112683D01*
X0338932Y0111283D01*
X0334634Y0111283D01*
X0333311Y0110735D01*
X0332061Y0109485D01*
X0331048Y0108472D01*
X0330500Y0107149D01*
X0330500Y0094174D01*
X0330109Y0093783D01*
X0302249Y0093783D01*
X0302834Y0094369D01*
X0302834Y0098498D01*
X0301650Y0099682D01*
X0301650Y0108184D01*
X0302834Y0109369D01*
X0302834Y0113498D01*
X0299915Y0116417D01*
X0295785Y0116417D01*
X0292866Y0113498D01*
X0292866Y0109369D01*
X0294050Y0108184D01*
X0294050Y0099682D01*
X0292866Y0098498D01*
X0292866Y0094369D01*
X0293451Y0093783D01*
X0280334Y0093783D01*
X0280334Y0097248D01*
X0277834Y0099748D01*
X0277834Y0100998D01*
X0276133Y0102699D01*
X0277415Y0102699D01*
X0280334Y0105619D01*
X0280334Y0109748D01*
X0277415Y0112667D01*
X0273285Y0112667D01*
X0271901Y0111283D01*
X0233799Y0111283D01*
X0232415Y0112667D01*
X0228285Y0112667D01*
X0225366Y0109748D01*
X0225366Y0105619D01*
X0228285Y0102699D01*
X0232415Y0102699D01*
X0233799Y0104083D01*
X0237866Y0104083D01*
X0237866Y0100619D01*
X0240785Y0097699D01*
X0241616Y0097699D01*
X0241616Y0096869D01*
X0243926Y0094558D01*
X0241616Y0092248D01*
X0241616Y0088119D01*
X0244535Y0085199D01*
X0248665Y0085199D01*
X0250049Y0086583D01*
X0332316Y0086583D01*
X0333639Y0087131D01*
X0334652Y0088144D01*
X0337152Y0090644D01*
X0337700Y0091967D01*
X0337700Y0104083D01*
X0338932Y0104083D01*
X0340332Y0102683D01*
X0337900Y0100251D01*
X0337900Y0095115D01*
X0340332Y0092683D01*
X0337900Y0090251D01*
X0337900Y0085115D01*
X0341532Y0081483D01*
X0340884Y0082131D02*
X0264855Y0082131D01*
X0266032Y0080932D02*
X0373521Y0080932D01*
X0373521Y0079734D02*
X0266528Y0079734D01*
X0266900Y0078535D02*
X0373521Y0078535D01*
X0373521Y0077337D02*
X0266900Y0077337D01*
X0262624Y0083329D02*
X0339685Y0083329D01*
X0338487Y0084528D02*
X0004600Y0084528D01*
X0004600Y0085727D02*
X0244008Y0085727D01*
X0242809Y0086925D02*
X0004600Y0086925D01*
X0004600Y0088124D02*
X0241616Y0088124D01*
X0241616Y0089322D02*
X0004600Y0089322D01*
X0004600Y0090521D02*
X0241616Y0090521D01*
X0241616Y0091719D02*
X0004600Y0091719D01*
X0004600Y0092918D02*
X0242286Y0092918D01*
X0243484Y0094116D02*
X0004600Y0094116D01*
X0004600Y0095315D02*
X0243170Y0095315D01*
X0241971Y0096513D02*
X0004600Y0096513D01*
X0004600Y0097712D02*
X0240773Y0097712D01*
X0239574Y0098910D02*
X0004600Y0098910D01*
X0004600Y0100109D02*
X0238376Y0100109D01*
X0237866Y0101307D02*
X0004600Y0101307D01*
X0004600Y0102506D02*
X0237866Y0102506D01*
X0237866Y0103704D02*
X0233420Y0103704D01*
X0230350Y0107683D02*
X0275350Y0107683D01*
X0280334Y0107300D02*
X0294050Y0107300D01*
X0294050Y0106101D02*
X0280334Y0106101D01*
X0279618Y0104903D02*
X0294050Y0104903D01*
X0294050Y0103704D02*
X0278420Y0103704D01*
X0276326Y0102506D02*
X0294050Y0102506D01*
X0294050Y0101307D02*
X0277525Y0101307D01*
X0277834Y0100109D02*
X0294050Y0100109D01*
X0293278Y0098910D02*
X0278672Y0098910D01*
X0279870Y0097712D02*
X0292866Y0097712D01*
X0292866Y0096513D02*
X0280334Y0096513D01*
X0280334Y0095315D02*
X0292866Y0095315D01*
X0293118Y0094116D02*
X0280334Y0094116D01*
X0275350Y0095183D02*
X0274100Y0093933D01*
X0250350Y0093933D01*
X0246600Y0090183D02*
X0331600Y0090183D01*
X0334100Y0092683D01*
X0334100Y0106433D01*
X0335350Y0107683D01*
X0344100Y0107683D01*
X0339311Y0103704D02*
X0337700Y0103704D01*
X0337700Y0102506D02*
X0340154Y0102506D01*
X0338956Y0101307D02*
X0337700Y0101307D01*
X0337700Y0100109D02*
X0337900Y0100109D01*
X0337900Y0098910D02*
X0337700Y0098910D01*
X0337700Y0097712D02*
X0337900Y0097712D01*
X0337900Y0096513D02*
X0337700Y0096513D01*
X0337700Y0095315D02*
X0337900Y0095315D01*
X0337700Y0094116D02*
X0338899Y0094116D01*
X0337700Y0092918D02*
X0340097Y0092918D01*
X0339368Y0091719D02*
X0337597Y0091719D01*
X0337029Y0090521D02*
X0338169Y0090521D01*
X0337900Y0089322D02*
X0335830Y0089322D01*
X0334632Y0088124D02*
X0337900Y0088124D01*
X0337900Y0086925D02*
X0333142Y0086925D01*
X0337900Y0085727D02*
X0249192Y0085727D01*
X0245855Y0082131D02*
X0257345Y0082131D01*
X0256168Y0080932D02*
X0247032Y0080932D01*
X0247017Y0080969D02*
X0245385Y0082600D01*
X0243254Y0083483D01*
X0240946Y0083483D01*
X0238815Y0082600D01*
X0237183Y0080969D01*
X0236300Y0078837D01*
X0236300Y0076529D01*
X0237183Y0074398D01*
X0238815Y0072766D01*
X0240946Y0071883D01*
X0243254Y0071883D01*
X0245385Y0072766D01*
X0247017Y0074398D01*
X0247900Y0076529D01*
X0247900Y0078837D01*
X0247017Y0080969D01*
X0247528Y0079734D02*
X0255672Y0079734D01*
X0255300Y0078535D02*
X0247900Y0078535D01*
X0247900Y0077337D02*
X0255300Y0077337D01*
X0255462Y0076138D02*
X0247738Y0076138D01*
X0247242Y0074940D02*
X0255958Y0074940D01*
X0256839Y0073741D02*
X0246361Y0073741D01*
X0244847Y0072543D02*
X0258353Y0072543D01*
X0259576Y0083329D02*
X0243624Y0083329D01*
X0240576Y0083329D02*
X0004600Y0083329D01*
X0004600Y0082131D02*
X0122749Y0082131D01*
X0123285Y0082667D02*
X0120366Y0079748D01*
X0120366Y0075619D01*
X0123285Y0072699D01*
X0127415Y0072699D01*
X0128799Y0074083D01*
X0145651Y0074083D01*
X0147035Y0072699D01*
X0151165Y0072699D01*
X0154084Y0075619D01*
X0154084Y0079748D01*
X0151165Y0082667D01*
X0147035Y0082667D01*
X0145651Y0081283D01*
X0128799Y0081283D01*
X0127415Y0082667D01*
X0123285Y0082667D01*
X0121551Y0080932D02*
X0004600Y0080932D01*
X0004600Y0079734D02*
X0120366Y0079734D01*
X0120366Y0078535D02*
X0004600Y0078535D01*
X0004600Y0077337D02*
X0120366Y0077337D01*
X0120366Y0076138D02*
X0038637Y0076138D01*
X0039430Y0074940D02*
X0121044Y0074940D01*
X0122243Y0073741D02*
X0039600Y0073741D01*
X0039600Y0072543D02*
X0239353Y0072543D01*
X0237839Y0073741D02*
X0152207Y0073741D01*
X0153406Y0074940D02*
X0236958Y0074940D01*
X0236462Y0076138D02*
X0154084Y0076138D01*
X0154084Y0077337D02*
X0236300Y0077337D01*
X0236300Y0078535D02*
X0154084Y0078535D01*
X0154084Y0079734D02*
X0236672Y0079734D01*
X0237168Y0080932D02*
X0152899Y0080932D01*
X0151701Y0082131D02*
X0238345Y0082131D01*
X0247850Y0097683D02*
X0271600Y0097683D01*
X0272850Y0098933D01*
X0270350Y0102683D02*
X0242850Y0102683D01*
X0246600Y0098933D02*
X0247850Y0097683D01*
X0232988Y0112094D02*
X0272712Y0112094D01*
X0277988Y0112094D02*
X0292866Y0112094D01*
X0292866Y0113292D02*
X0170412Y0113292D01*
X0171610Y0114491D02*
X0293859Y0114491D01*
X0295057Y0115689D02*
X0172400Y0115689D01*
X0172400Y0115281D02*
X0172400Y0120085D01*
X0169002Y0123483D01*
X0164198Y0123483D01*
X0160800Y0120085D01*
X0160800Y0119706D01*
X0158423Y0122083D01*
X0156800Y0122083D01*
X0156800Y0117883D01*
X0156400Y0117883D01*
X0156400Y0117483D01*
X0156800Y0117483D01*
X0156800Y0113283D01*
X0158423Y0113283D01*
X0160800Y0115661D01*
X0160800Y0115281D01*
X0164198Y0111883D01*
X0169002Y0111883D01*
X0172400Y0115281D01*
X0172400Y0116888D02*
X0337900Y0116888D01*
X0337900Y0118086D02*
X0172400Y0118086D01*
X0172400Y0119285D02*
X0337900Y0119285D01*
X0338132Y0120483D02*
X0172002Y0120483D01*
X0170804Y0121682D02*
X0339331Y0121682D01*
X0340135Y0122880D02*
X0169605Y0122880D01*
X0163595Y0122880D02*
X0004600Y0122880D01*
X0004600Y0121682D02*
X0154376Y0121682D01*
X0154777Y0122083D02*
X0152200Y0119506D01*
X0152200Y0117883D01*
X0156400Y0117883D01*
X0156400Y0122083D01*
X0154777Y0122083D01*
X0156400Y0121682D02*
X0156800Y0121682D01*
X0156800Y0120483D02*
X0156400Y0120483D01*
X0156400Y0119285D02*
X0156800Y0119285D01*
X0156800Y0118086D02*
X0156400Y0118086D01*
X0156400Y0117483D02*
X0152200Y0117483D01*
X0152200Y0115861D01*
X0154777Y0113283D01*
X0156400Y0113283D01*
X0156400Y0117483D01*
X0156400Y0116888D02*
X0156800Y0116888D01*
X0156800Y0115689D02*
X0156400Y0115689D01*
X0156400Y0114491D02*
X0156800Y0114491D01*
X0156800Y0113292D02*
X0156400Y0113292D01*
X0154768Y0113292D02*
X0004600Y0113292D01*
X0004600Y0112094D02*
X0163987Y0112094D01*
X0162788Y0113292D02*
X0158432Y0113292D01*
X0159630Y0114491D02*
X0161590Y0114491D01*
X0161198Y0120483D02*
X0160022Y0120483D01*
X0158824Y0121682D02*
X0162396Y0121682D01*
X0153178Y0120483D02*
X0004600Y0120483D01*
X0004600Y0119285D02*
X0152200Y0119285D01*
X0152200Y0118086D02*
X0004600Y0118086D01*
X0004600Y0116888D02*
X0152200Y0116888D01*
X0152371Y0115689D02*
X0004600Y0115689D01*
X0004600Y0114491D02*
X0153570Y0114491D01*
X0169213Y0112094D02*
X0227712Y0112094D01*
X0226513Y0110895D02*
X0004600Y0110895D01*
X0004600Y0109697D02*
X0225366Y0109697D01*
X0225366Y0108498D02*
X0004600Y0108498D01*
X0004600Y0107300D02*
X0225366Y0107300D01*
X0225366Y0106101D02*
X0004600Y0106101D01*
X0004600Y0104903D02*
X0226082Y0104903D01*
X0227280Y0103704D02*
X0004600Y0103704D01*
X0004600Y0124079D02*
X0338936Y0124079D01*
X0337900Y0125277D02*
X0004600Y0125277D01*
X0004600Y0126476D02*
X0337900Y0126476D01*
X0337900Y0127674D02*
X0004600Y0127674D01*
X0004600Y0128873D02*
X0337900Y0128873D01*
X0337900Y0130071D02*
X0004600Y0130071D01*
X0004600Y0131270D02*
X0338919Y0131270D01*
X0340117Y0132468D02*
X0093880Y0132468D01*
X0096398Y0133667D02*
X0341316Y0133667D01*
X0346884Y0133667D02*
X0351316Y0133667D01*
X0350117Y0132468D02*
X0348083Y0132468D01*
X0356884Y0133667D02*
X0373521Y0133667D01*
X0373521Y0134865D02*
X0097596Y0134865D01*
X0089320Y0132468D02*
X0028880Y0132468D01*
X0028191Y0132183D02*
X0031132Y0133401D01*
X0033382Y0135651D01*
X0034600Y0138592D01*
X0034600Y0141774D01*
X0033382Y0144715D01*
X0031132Y0146965D01*
X0028191Y0148183D01*
X0025009Y0148183D01*
X0022068Y0146965D01*
X0019818Y0144715D01*
X0018600Y0141774D01*
X0018600Y0138592D01*
X0019818Y0135651D01*
X0022068Y0133401D01*
X0025009Y0132183D01*
X0028191Y0132183D01*
X0031398Y0133667D02*
X0086802Y0133667D01*
X0085604Y0134865D02*
X0032596Y0134865D01*
X0033553Y0136064D02*
X0084647Y0136064D01*
X0084151Y0137262D02*
X0034049Y0137262D01*
X0034546Y0138461D02*
X0083654Y0138461D01*
X0083600Y0139660D02*
X0034600Y0139660D01*
X0034600Y0140858D02*
X0083600Y0140858D01*
X0083717Y0142057D02*
X0034483Y0142057D01*
X0033987Y0143255D02*
X0084213Y0143255D01*
X0084710Y0144454D02*
X0033490Y0144454D01*
X0032445Y0145652D02*
X0085755Y0145652D01*
X0086954Y0146851D02*
X0031246Y0146851D01*
X0028515Y0148049D02*
X0089685Y0148049D01*
X0093515Y0148049D02*
X0121600Y0148049D01*
X0121600Y0149248D02*
X0004600Y0149248D01*
X0004600Y0150446D02*
X0121600Y0150446D01*
X0121600Y0151645D02*
X0004600Y0151645D01*
X0004600Y0152843D02*
X0121600Y0152843D01*
X0121600Y0154042D02*
X0094792Y0154042D01*
X0094334Y0153583D02*
X0098200Y0157449D01*
X0098200Y0159783D01*
X0092000Y0159783D01*
X0092000Y0153583D01*
X0094334Y0153583D01*
X0095991Y0155240D02*
X0121600Y0155240D01*
X0121600Y0156439D02*
X0097189Y0156439D01*
X0098200Y0157637D02*
X0121600Y0157637D01*
X0121600Y0158836D02*
X0098200Y0158836D01*
X0098200Y0160583D02*
X0098200Y0162917D01*
X0094334Y0166783D01*
X0092000Y0166783D01*
X0092000Y0160583D01*
X0098200Y0160583D01*
X0098200Y0161233D02*
X0121600Y0161233D01*
X0121600Y0162431D02*
X0098200Y0162431D01*
X0097487Y0163630D02*
X0121600Y0163630D01*
X0121600Y0164828D02*
X0096289Y0164828D01*
X0095090Y0166027D02*
X0121600Y0166027D01*
X0121600Y0167225D02*
X0004600Y0167225D01*
X0004600Y0166027D02*
X0023110Y0166027D01*
X0023866Y0166783D02*
X0020000Y0162917D01*
X0020000Y0160583D01*
X0026200Y0160583D01*
X0026200Y0159783D01*
X0027000Y0159783D01*
X0027000Y0153583D01*
X0029334Y0153583D01*
X0033200Y0157449D01*
X0033200Y0159783D01*
X0027000Y0159783D01*
X0027000Y0160583D01*
X0033200Y0160583D01*
X0033200Y0162917D01*
X0029334Y0166783D01*
X0027000Y0166783D01*
X0027000Y0160583D01*
X0026200Y0160583D01*
X0026200Y0166783D01*
X0023866Y0166783D01*
X0026200Y0166027D02*
X0027000Y0166027D01*
X0027000Y0164828D02*
X0026200Y0164828D01*
X0026200Y0163630D02*
X0027000Y0163630D01*
X0027000Y0162431D02*
X0026200Y0162431D01*
X0026200Y0161233D02*
X0027000Y0161233D01*
X0027000Y0160034D02*
X0091200Y0160034D01*
X0091200Y0159783D02*
X0085000Y0159783D01*
X0085000Y0157449D01*
X0088866Y0153583D01*
X0091200Y0153583D01*
X0091200Y0159783D01*
X0092000Y0159783D01*
X0092000Y0160583D01*
X0091200Y0160583D01*
X0091200Y0159783D01*
X0091200Y0160583D02*
X0085000Y0160583D01*
X0085000Y0162917D01*
X0088866Y0166783D01*
X0091200Y0166783D01*
X0091200Y0160583D01*
X0091200Y0161233D02*
X0092000Y0161233D01*
X0092000Y0162431D02*
X0091200Y0162431D01*
X0091200Y0163630D02*
X0092000Y0163630D01*
X0092000Y0164828D02*
X0091200Y0164828D01*
X0091200Y0166027D02*
X0092000Y0166027D01*
X0088110Y0166027D02*
X0030090Y0166027D01*
X0031289Y0164828D02*
X0086911Y0164828D01*
X0085713Y0163630D02*
X0032487Y0163630D01*
X0033200Y0162431D02*
X0085000Y0162431D01*
X0085000Y0161233D02*
X0033200Y0161233D01*
X0033200Y0158836D02*
X0085000Y0158836D01*
X0085000Y0157637D02*
X0033200Y0157637D01*
X0032189Y0156439D02*
X0086011Y0156439D01*
X0087209Y0155240D02*
X0030991Y0155240D01*
X0029792Y0154042D02*
X0088408Y0154042D01*
X0091200Y0154042D02*
X0092000Y0154042D01*
X0092000Y0155240D02*
X0091200Y0155240D01*
X0091200Y0156439D02*
X0092000Y0156439D01*
X0092000Y0157637D02*
X0091200Y0157637D01*
X0091200Y0158836D02*
X0092000Y0158836D01*
X0092000Y0160034D02*
X0121600Y0160034D01*
X0121600Y0168424D02*
X0004600Y0168424D01*
X0004600Y0169622D02*
X0121600Y0169622D01*
X0121600Y0170821D02*
X0004600Y0170821D01*
X0004600Y0172019D02*
X0121600Y0172019D01*
X0131600Y0172019D02*
X0164061Y0172019D01*
X0164198Y0171883D02*
X0169002Y0171883D01*
X0172400Y0175281D01*
X0172400Y0180085D01*
X0169002Y0183483D01*
X0164198Y0183483D01*
X0160800Y0180085D01*
X0160800Y0179706D01*
X0158423Y0182083D01*
X0156800Y0182083D01*
X0156800Y0177883D01*
X0156400Y0177883D01*
X0156400Y0177483D01*
X0156800Y0177483D01*
X0156800Y0173283D01*
X0158423Y0173283D01*
X0160800Y0175661D01*
X0160800Y0175281D01*
X0164198Y0171883D01*
X0162863Y0173218D02*
X0135350Y0173218D01*
X0135350Y0174416D02*
X0153644Y0174416D01*
X0154777Y0173283D02*
X0152200Y0175861D01*
X0152200Y0177483D01*
X0156400Y0177483D01*
X0156400Y0173283D01*
X0154777Y0173283D01*
X0156400Y0174416D02*
X0156800Y0174416D01*
X0156800Y0175615D02*
X0156400Y0175615D01*
X0156400Y0176813D02*
X0156800Y0176813D01*
X0156400Y0177883D02*
X0152200Y0177883D01*
X0152200Y0179506D01*
X0154777Y0182083D01*
X0156400Y0182083D01*
X0156400Y0177883D01*
X0156400Y0178012D02*
X0156800Y0178012D01*
X0156800Y0179210D02*
X0156400Y0179210D01*
X0156400Y0180409D02*
X0156800Y0180409D01*
X0156800Y0181607D02*
X0156400Y0181607D01*
X0154302Y0181607D02*
X0135350Y0181607D01*
X0135350Y0180409D02*
X0153103Y0180409D01*
X0152200Y0179210D02*
X0135350Y0179210D01*
X0135350Y0178012D02*
X0152200Y0178012D01*
X0152200Y0176813D02*
X0135350Y0176813D01*
X0135350Y0175615D02*
X0152446Y0175615D01*
X0159556Y0174416D02*
X0161664Y0174416D01*
X0160800Y0175615D02*
X0160754Y0175615D01*
X0161123Y0180409D02*
X0160097Y0180409D01*
X0158898Y0181607D02*
X0162322Y0181607D01*
X0163520Y0182806D02*
X0135350Y0182806D01*
X0135350Y0184004D02*
X0212123Y0184004D01*
X0211616Y0183498D02*
X0211616Y0179369D01*
X0214535Y0176449D01*
X0215366Y0176449D01*
X0215366Y0175619D01*
X0218285Y0172699D01*
X0219116Y0172699D01*
X0219116Y0171869D01*
X0222035Y0168949D01*
X0226165Y0168949D01*
X0229084Y0171869D01*
X0229084Y0172833D01*
X0246066Y0172833D01*
X0247389Y0173381D01*
X0247957Y0173949D01*
X0249915Y0173949D01*
X0252834Y0176869D01*
X0252834Y0180998D01*
X0249915Y0183917D01*
X0245785Y0183917D01*
X0245350Y0183482D01*
X0243665Y0185167D01*
X0241584Y0185167D01*
X0241584Y0185998D01*
X0238665Y0188917D01*
X0234535Y0188917D01*
X0233151Y0187533D01*
X0218384Y0187533D01*
X0217061Y0186985D01*
X0216493Y0186417D01*
X0214535Y0186417D01*
X0211616Y0183498D01*
X0211616Y0182806D02*
X0169680Y0182806D01*
X0170878Y0181607D02*
X0211616Y0181607D01*
X0211616Y0180409D02*
X0172077Y0180409D01*
X0172400Y0179210D02*
X0211774Y0179210D01*
X0212972Y0178012D02*
X0172400Y0178012D01*
X0172400Y0176813D02*
X0214171Y0176813D01*
X0215369Y0175615D02*
X0172400Y0175615D01*
X0171536Y0174416D02*
X0216568Y0174416D01*
X0217766Y0173218D02*
X0170337Y0173218D01*
X0169139Y0172019D02*
X0219116Y0172019D01*
X0220163Y0170821D02*
X0131600Y0170821D01*
X0131600Y0169622D02*
X0221362Y0169622D01*
X0226838Y0169622D02*
X0340893Y0169622D01*
X0341532Y0168983D02*
X0346668Y0168983D01*
X0350090Y0172405D01*
X0352112Y0170383D01*
X0353700Y0170383D01*
X0353700Y0174783D01*
X0354500Y0174783D01*
X0354500Y0170383D01*
X0356088Y0170383D01*
X0358900Y0173195D01*
X0358900Y0174783D01*
X0354500Y0174783D01*
X0354500Y0175583D01*
X0358900Y0175583D01*
X0358900Y0177171D01*
X0356088Y0179983D01*
X0354500Y0179983D01*
X0354500Y0175583D01*
X0353700Y0175583D01*
X0353700Y0179983D01*
X0352112Y0179983D01*
X0350090Y0177961D01*
X0347868Y0180183D01*
X0350090Y0182405D01*
X0352112Y0180383D01*
X0353700Y0180383D01*
X0353700Y0184783D01*
X0354500Y0184783D01*
X0354500Y0180383D01*
X0356088Y0180383D01*
X0358900Y0183195D01*
X0358900Y0184783D01*
X0354500Y0184783D01*
X0354500Y0185583D01*
X0358900Y0185583D01*
X0358900Y0187171D01*
X0356088Y0189983D01*
X0354500Y0189983D01*
X0354500Y0185583D01*
X0353700Y0185583D01*
X0353700Y0189983D01*
X0352112Y0189983D01*
X0350090Y0187961D01*
X0347868Y0190183D01*
X0350090Y0192405D01*
X0352112Y0190383D01*
X0353700Y0190383D01*
X0353700Y0194783D01*
X0354500Y0194783D01*
X0354500Y0190383D01*
X0356088Y0190383D01*
X0358900Y0193195D01*
X0358900Y0194783D01*
X0354500Y0194783D01*
X0354500Y0195583D01*
X0358900Y0195583D01*
X0358900Y0197171D01*
X0356088Y0199983D01*
X0354500Y0199983D01*
X0354500Y0195583D01*
X0353700Y0195583D01*
X0353700Y0199983D01*
X0352112Y0199983D01*
X0350090Y0197961D01*
X0347868Y0200183D01*
X0350090Y0202405D01*
X0352112Y0200383D01*
X0353700Y0200383D01*
X0353700Y0204783D01*
X0354500Y0204783D01*
X0354500Y0200383D01*
X0356088Y0200383D01*
X0358900Y0203195D01*
X0358900Y0204783D01*
X0354500Y0204783D01*
X0354500Y0205583D01*
X0358900Y0205583D01*
X0358900Y0207171D01*
X0356088Y0209983D01*
X0354500Y0209983D01*
X0354500Y0205583D01*
X0353700Y0205583D01*
X0353700Y0209983D01*
X0352112Y0209983D01*
X0350090Y0207961D01*
X0346668Y0211383D01*
X0341532Y0211383D01*
X0337900Y0207751D01*
X0337900Y0202615D01*
X0340332Y0200183D01*
X0337900Y0197751D01*
X0337900Y0192615D01*
X0340332Y0190183D01*
X0337900Y0187751D01*
X0337900Y0182615D01*
X0340332Y0180183D01*
X0337900Y0177751D01*
X0337900Y0172615D01*
X0341532Y0168983D01*
X0339694Y0170821D02*
X0228037Y0170821D01*
X0229084Y0172019D02*
X0338496Y0172019D01*
X0337900Y0173218D02*
X0246995Y0173218D01*
X0250382Y0174416D02*
X0337900Y0174416D01*
X0337900Y0175615D02*
X0251581Y0175615D01*
X0252779Y0176813D02*
X0337900Y0176813D01*
X0338161Y0178012D02*
X0252834Y0178012D01*
X0252834Y0179210D02*
X0339359Y0179210D01*
X0340106Y0180409D02*
X0252834Y0180409D01*
X0252224Y0181607D02*
X0338908Y0181607D01*
X0337900Y0182806D02*
X0251026Y0182806D01*
X0247850Y0178933D02*
X0245350Y0176433D01*
X0226600Y0176433D01*
X0224100Y0173933D01*
X0220350Y0177683D02*
X0222850Y0180183D01*
X0241600Y0180183D01*
X0244827Y0184004D02*
X0337900Y0184004D01*
X0337900Y0185203D02*
X0241584Y0185203D01*
X0241180Y0186401D02*
X0337900Y0186401D01*
X0337900Y0187600D02*
X0239982Y0187600D01*
X0238783Y0188798D02*
X0338947Y0188798D01*
X0340146Y0189997D02*
X0169616Y0189997D01*
X0169002Y0189383D02*
X0172400Y0192781D01*
X0172400Y0197585D01*
X0169002Y0200983D01*
X0164198Y0200983D01*
X0160800Y0197585D01*
X0160800Y0197206D01*
X0158423Y0199583D01*
X0156800Y0199583D01*
X0156800Y0195383D01*
X0156400Y0195383D01*
X0156400Y0194983D01*
X0156800Y0194983D01*
X0156800Y0190783D01*
X0158423Y0190783D01*
X0160800Y0193161D01*
X0160800Y0192781D01*
X0164198Y0189383D01*
X0169002Y0189383D01*
X0170815Y0191195D02*
X0339319Y0191195D01*
X0338121Y0192394D02*
X0172013Y0192394D01*
X0172400Y0193593D02*
X0337900Y0193593D01*
X0337900Y0194791D02*
X0172400Y0194791D01*
X0172400Y0195990D02*
X0337900Y0195990D01*
X0337900Y0197188D02*
X0172400Y0197188D01*
X0171599Y0198387D02*
X0338535Y0198387D01*
X0339734Y0199585D02*
X0170400Y0199585D01*
X0169202Y0200784D02*
X0339731Y0200784D01*
X0338533Y0201982D02*
X0135350Y0201982D01*
X0135350Y0200784D02*
X0163998Y0200784D01*
X0162800Y0199585D02*
X0135350Y0199585D01*
X0135350Y0198387D02*
X0153581Y0198387D01*
X0154777Y0199583D02*
X0152200Y0197006D01*
X0152200Y0195383D01*
X0156400Y0195383D01*
X0156400Y0199583D01*
X0154777Y0199583D01*
X0156400Y0198387D02*
X0156800Y0198387D01*
X0156800Y0197188D02*
X0156400Y0197188D01*
X0156400Y0195990D02*
X0156800Y0195990D01*
X0156600Y0195183D02*
X0149100Y0195183D01*
X0145350Y0198933D01*
X0152382Y0197188D02*
X0135350Y0197188D01*
X0135350Y0195990D02*
X0152200Y0195990D01*
X0152200Y0194983D02*
X0152200Y0193361D01*
X0154777Y0190783D01*
X0156400Y0190783D01*
X0156400Y0194983D01*
X0152200Y0194983D01*
X0152200Y0194791D02*
X0135350Y0194791D01*
X0135350Y0193593D02*
X0152200Y0193593D01*
X0153167Y0192394D02*
X0135350Y0192394D01*
X0135350Y0191195D02*
X0154365Y0191195D01*
X0156400Y0191195D02*
X0156800Y0191195D01*
X0156800Y0192394D02*
X0156400Y0192394D01*
X0156400Y0193593D02*
X0156800Y0193593D01*
X0156800Y0194791D02*
X0156400Y0194791D01*
X0158835Y0191195D02*
X0162385Y0191195D01*
X0163584Y0189997D02*
X0135350Y0189997D01*
X0135350Y0188798D02*
X0234417Y0188798D01*
X0233218Y0187600D02*
X0135350Y0187600D01*
X0135350Y0186401D02*
X0214520Y0186401D01*
X0213321Y0185203D02*
X0135350Y0185203D01*
X0131600Y0168424D02*
X0373521Y0168424D01*
X0373521Y0169622D02*
X0347307Y0169622D01*
X0348506Y0170821D02*
X0351674Y0170821D01*
X0350476Y0172019D02*
X0349704Y0172019D01*
X0353700Y0172019D02*
X0354500Y0172019D01*
X0354500Y0170821D02*
X0353700Y0170821D01*
X0353700Y0173218D02*
X0354500Y0173218D01*
X0354500Y0174416D02*
X0353700Y0174416D01*
X0353700Y0175615D02*
X0354500Y0175615D01*
X0354500Y0176813D02*
X0353700Y0176813D01*
X0353700Y0178012D02*
X0354500Y0178012D01*
X0354500Y0179210D02*
X0353700Y0179210D01*
X0353700Y0180409D02*
X0354500Y0180409D01*
X0354500Y0181607D02*
X0353700Y0181607D01*
X0353700Y0182806D02*
X0354500Y0182806D01*
X0354500Y0184004D02*
X0353700Y0184004D01*
X0354500Y0185203D02*
X0373521Y0185203D01*
X0373521Y0186401D02*
X0358900Y0186401D01*
X0358471Y0187600D02*
X0373521Y0187600D01*
X0373521Y0188798D02*
X0357273Y0188798D01*
X0356901Y0191195D02*
X0373521Y0191195D01*
X0373521Y0189997D02*
X0348054Y0189997D01*
X0348881Y0191195D02*
X0351299Y0191195D01*
X0350101Y0192394D02*
X0350079Y0192394D01*
X0353700Y0192394D02*
X0354500Y0192394D01*
X0354500Y0191195D02*
X0353700Y0191195D01*
X0353700Y0188798D02*
X0354500Y0188798D01*
X0354500Y0187600D02*
X0353700Y0187600D01*
X0353700Y0186401D02*
X0354500Y0186401D01*
X0350927Y0188798D02*
X0349253Y0188798D01*
X0353700Y0193593D02*
X0354500Y0193593D01*
X0354500Y0194791D02*
X0373521Y0194791D01*
X0373521Y0193593D02*
X0358900Y0193593D01*
X0358099Y0192394D02*
X0373521Y0192394D01*
X0373521Y0195990D02*
X0358900Y0195990D01*
X0358883Y0197188D02*
X0373521Y0197188D01*
X0373521Y0198387D02*
X0357685Y0198387D01*
X0356486Y0199585D02*
X0373521Y0199585D01*
X0373521Y0200784D02*
X0356489Y0200784D01*
X0357687Y0201982D02*
X0373521Y0201982D01*
X0373521Y0203181D02*
X0358886Y0203181D01*
X0358900Y0204379D02*
X0373521Y0204379D01*
X0373521Y0205578D02*
X0354500Y0205578D01*
X0354500Y0206776D02*
X0353700Y0206776D01*
X0353700Y0207975D02*
X0354500Y0207975D01*
X0354500Y0209173D02*
X0353700Y0209173D01*
X0351302Y0209173D02*
X0348878Y0209173D01*
X0350077Y0207975D02*
X0350103Y0207975D01*
X0347679Y0210372D02*
X0373521Y0210372D01*
X0373521Y0211570D02*
X0135350Y0211570D01*
X0135350Y0210372D02*
X0340520Y0210372D01*
X0339322Y0209173D02*
X0135350Y0209173D01*
X0135350Y0207975D02*
X0338123Y0207975D01*
X0337900Y0206776D02*
X0135350Y0206776D01*
X0135350Y0205578D02*
X0337900Y0205578D01*
X0337900Y0204379D02*
X0135350Y0204379D01*
X0135350Y0203181D02*
X0337900Y0203181D01*
X0348469Y0200784D02*
X0351711Y0200784D01*
X0351714Y0199585D02*
X0348466Y0199585D01*
X0349665Y0198387D02*
X0350515Y0198387D01*
X0353700Y0198387D02*
X0354500Y0198387D01*
X0354500Y0199585D02*
X0353700Y0199585D01*
X0353700Y0200784D02*
X0354500Y0200784D01*
X0354500Y0201982D02*
X0353700Y0201982D01*
X0353700Y0203181D02*
X0354500Y0203181D01*
X0354500Y0204379D02*
X0353700Y0204379D01*
X0350513Y0201982D02*
X0349667Y0201982D01*
X0353700Y0197188D02*
X0354500Y0197188D01*
X0354500Y0195990D02*
X0353700Y0195990D01*
X0358900Y0206776D02*
X0373521Y0206776D01*
X0373521Y0207975D02*
X0358097Y0207975D01*
X0356898Y0209173D02*
X0373521Y0209173D01*
X0373521Y0212769D02*
X0187801Y0212769D01*
X0189955Y0213967D02*
X0373521Y0213967D01*
X0373521Y0215166D02*
X0191154Y0215166D01*
X0192352Y0216364D02*
X0373521Y0216364D01*
X0373521Y0217563D02*
X0299481Y0217563D01*
X0301118Y0218761D02*
X0373521Y0218761D01*
X0373521Y0219960D02*
X0302316Y0219960D01*
X0303515Y0221158D02*
X0373521Y0221158D01*
X0373521Y0222357D02*
X0304713Y0222357D01*
X0305472Y0223555D02*
X0373521Y0223555D01*
X0373521Y0224754D02*
X0305800Y0224754D01*
X0305800Y0225952D02*
X0373521Y0225952D01*
X0373521Y0227151D02*
X0305800Y0227151D01*
X0305800Y0228349D02*
X0373521Y0228349D01*
X0373521Y0229548D02*
X0362397Y0229548D01*
X0364131Y0230746D02*
X0373521Y0230746D01*
X0373521Y0231945D02*
X0365170Y0231945D01*
X0365666Y0233143D02*
X0373521Y0233143D01*
X0373521Y0234342D02*
X0366000Y0234342D01*
X0366000Y0235540D02*
X0373521Y0235540D01*
X0373521Y0236739D02*
X0365866Y0236739D01*
X0365370Y0237937D02*
X0373521Y0237937D01*
X0373521Y0239136D02*
X0364615Y0239136D01*
X0363417Y0240334D02*
X0373521Y0240334D01*
X0373521Y0241533D02*
X0361600Y0241533D01*
X0361600Y0242731D02*
X0373521Y0242731D01*
X0373521Y0243930D02*
X0361495Y0243930D01*
X0360999Y0245129D02*
X0373521Y0245129D01*
X0373521Y0246327D02*
X0360027Y0246327D01*
X0358829Y0247526D02*
X0373521Y0247526D01*
X0373521Y0248724D02*
X0357630Y0248724D01*
X0355723Y0249923D02*
X0373521Y0249923D01*
X0373521Y0251121D02*
X0135350Y0251121D01*
X0135350Y0249923D02*
X0192477Y0249923D01*
X0190570Y0248724D02*
X0135350Y0248724D01*
X0135350Y0247526D02*
X0189371Y0247526D01*
X0188173Y0246327D02*
X0135350Y0246327D01*
X0135350Y0245129D02*
X0187201Y0245129D01*
X0186705Y0243930D02*
X0135350Y0243930D01*
X0135350Y0242731D02*
X0186600Y0242731D01*
X0186600Y0241533D02*
X0135350Y0241533D01*
X0135350Y0240334D02*
X0154783Y0240334D01*
X0154888Y0240439D02*
X0153144Y0238695D01*
X0152200Y0236416D01*
X0152200Y0233950D01*
X0153144Y0231671D01*
X0154888Y0229927D01*
X0157167Y0228983D01*
X0166033Y0228983D01*
X0168312Y0229927D01*
X0170056Y0231671D01*
X0171000Y0233950D01*
X0171000Y0236416D01*
X0170056Y0238695D01*
X0168312Y0240439D01*
X0166033Y0241383D01*
X0157167Y0241383D01*
X0154888Y0240439D01*
X0153585Y0239136D02*
X0135350Y0239136D01*
X0135350Y0237937D02*
X0152830Y0237937D01*
X0152334Y0236739D02*
X0135350Y0236739D01*
X0135350Y0235540D02*
X0152200Y0235540D01*
X0152200Y0234342D02*
X0135350Y0234342D01*
X0135350Y0233143D02*
X0152534Y0233143D01*
X0153030Y0231945D02*
X0135350Y0231945D01*
X0135350Y0230746D02*
X0154069Y0230746D01*
X0155803Y0229548D02*
X0135350Y0229548D01*
X0135350Y0228349D02*
X0186600Y0228349D01*
X0186600Y0227151D02*
X0135350Y0227151D01*
X0135350Y0225952D02*
X0186600Y0225952D01*
X0186600Y0224754D02*
X0135350Y0224754D01*
X0135350Y0223555D02*
X0185401Y0223555D01*
X0185803Y0229548D02*
X0167397Y0229548D01*
X0169131Y0230746D02*
X0184069Y0230746D01*
X0183030Y0231945D02*
X0170170Y0231945D01*
X0170666Y0233143D02*
X0182534Y0233143D01*
X0182200Y0234342D02*
X0171000Y0234342D01*
X0171000Y0235540D02*
X0182200Y0235540D01*
X0182334Y0236739D02*
X0170866Y0236739D01*
X0170370Y0237937D02*
X0182830Y0237937D01*
X0183585Y0239136D02*
X0169615Y0239136D01*
X0168417Y0240334D02*
X0184783Y0240334D01*
X0197397Y0229548D02*
X0210803Y0229548D01*
X0209069Y0230746D02*
X0199131Y0230746D01*
X0200170Y0231945D02*
X0208030Y0231945D01*
X0207534Y0233143D02*
X0200666Y0233143D01*
X0201000Y0234342D02*
X0207200Y0234342D01*
X0207200Y0235540D02*
X0201000Y0235540D01*
X0200866Y0236739D02*
X0207334Y0236739D01*
X0207830Y0237937D02*
X0200370Y0237937D01*
X0199615Y0239136D02*
X0208585Y0239136D01*
X0196600Y0228349D02*
X0297400Y0228349D01*
X0297400Y0227151D02*
X0196600Y0227151D01*
X0196600Y0225952D02*
X0276570Y0225952D01*
X0275372Y0224754D02*
X0196600Y0224754D01*
X0196600Y0223555D02*
X0274173Y0223555D01*
X0274116Y0222357D02*
X0196600Y0222357D01*
X0196380Y0221158D02*
X0274116Y0221158D01*
X0274116Y0219960D02*
X0195884Y0219960D01*
X0194749Y0218761D02*
X0274723Y0218761D01*
X0275922Y0217563D02*
X0193551Y0217563D01*
X0222397Y0229548D02*
X0240803Y0229548D01*
X0239069Y0230746D02*
X0224131Y0230746D01*
X0225170Y0231945D02*
X0238030Y0231945D01*
X0237534Y0233143D02*
X0225666Y0233143D01*
X0226000Y0234342D02*
X0237200Y0234342D01*
X0237200Y0235540D02*
X0226000Y0235540D01*
X0225866Y0236739D02*
X0237334Y0236739D01*
X0237830Y0237937D02*
X0225370Y0237937D01*
X0224615Y0239136D02*
X0238585Y0239136D01*
X0254615Y0239136D02*
X0263585Y0239136D01*
X0262830Y0237937D02*
X0255370Y0237937D01*
X0255866Y0236739D02*
X0262334Y0236739D01*
X0262200Y0235540D02*
X0256000Y0235540D01*
X0256000Y0234342D02*
X0262200Y0234342D01*
X0262534Y0233143D02*
X0255666Y0233143D01*
X0255170Y0231945D02*
X0263030Y0231945D01*
X0264069Y0230746D02*
X0254131Y0230746D01*
X0252397Y0229548D02*
X0265803Y0229548D01*
X0277397Y0229548D02*
X0295803Y0229548D01*
X0294069Y0230746D02*
X0279131Y0230746D01*
X0280170Y0231945D02*
X0293030Y0231945D01*
X0292534Y0233143D02*
X0280666Y0233143D01*
X0281000Y0234342D02*
X0292200Y0234342D01*
X0292200Y0235540D02*
X0281000Y0235540D01*
X0280866Y0236739D02*
X0292334Y0236739D01*
X0292830Y0237937D02*
X0280370Y0237937D01*
X0279615Y0239136D02*
X0293585Y0239136D01*
X0296430Y0225952D02*
X0281630Y0225952D01*
X0307397Y0229548D02*
X0320803Y0229548D01*
X0319069Y0230746D02*
X0309131Y0230746D01*
X0310170Y0231945D02*
X0318030Y0231945D01*
X0317534Y0233143D02*
X0310666Y0233143D01*
X0311000Y0234342D02*
X0317200Y0234342D01*
X0317200Y0235540D02*
X0311000Y0235540D01*
X0310866Y0236739D02*
X0317334Y0236739D01*
X0317830Y0237937D02*
X0310370Y0237937D01*
X0309615Y0239136D02*
X0318585Y0239136D01*
X0334615Y0239136D02*
X0348585Y0239136D01*
X0347830Y0237937D02*
X0335370Y0237937D01*
X0335866Y0236739D02*
X0347334Y0236739D01*
X0347200Y0235540D02*
X0336000Y0235540D01*
X0336000Y0234342D02*
X0347200Y0234342D01*
X0347534Y0233143D02*
X0335666Y0233143D01*
X0335170Y0231945D02*
X0348030Y0231945D01*
X0349069Y0230746D02*
X0334131Y0230746D01*
X0332397Y0229548D02*
X0350803Y0229548D01*
X0373521Y0252320D02*
X0135350Y0252320D01*
X0135350Y0253518D02*
X0373521Y0253518D01*
X0373521Y0254717D02*
X0135350Y0254717D01*
X0135350Y0255915D02*
X0373521Y0255915D01*
X0373521Y0184004D02*
X0358900Y0184004D01*
X0358511Y0182806D02*
X0373521Y0182806D01*
X0373521Y0181607D02*
X0357313Y0181607D01*
X0356114Y0180409D02*
X0373521Y0180409D01*
X0373521Y0179210D02*
X0356861Y0179210D01*
X0358059Y0178012D02*
X0373521Y0178012D01*
X0373521Y0176813D02*
X0358900Y0176813D01*
X0358900Y0175615D02*
X0373521Y0175615D01*
X0373521Y0174416D02*
X0358900Y0174416D01*
X0358900Y0173218D02*
X0373521Y0173218D01*
X0373521Y0172019D02*
X0357724Y0172019D01*
X0356526Y0170821D02*
X0373521Y0170821D01*
X0373521Y0167225D02*
X0131600Y0167225D01*
X0131600Y0166027D02*
X0373521Y0166027D01*
X0373521Y0164828D02*
X0170157Y0164828D01*
X0169002Y0165983D02*
X0164198Y0165983D01*
X0160800Y0162585D01*
X0160800Y0162206D01*
X0158423Y0164583D01*
X0156800Y0164583D01*
X0156800Y0160383D01*
X0156400Y0160383D01*
X0156400Y0159983D01*
X0156800Y0159983D01*
X0156800Y0155783D01*
X0158423Y0155783D01*
X0160800Y0158161D01*
X0160800Y0157781D01*
X0164198Y0154383D01*
X0169002Y0154383D01*
X0172400Y0157781D01*
X0172400Y0162585D01*
X0169002Y0165983D01*
X0171356Y0163630D02*
X0373521Y0163630D01*
X0373521Y0162431D02*
X0172400Y0162431D01*
X0172400Y0161233D02*
X0373521Y0161233D01*
X0373521Y0160034D02*
X0172400Y0160034D01*
X0172400Y0158836D02*
X0373521Y0158836D01*
X0373521Y0157637D02*
X0172257Y0157637D01*
X0171058Y0156439D02*
X0373521Y0156439D01*
X0373521Y0155240D02*
X0169860Y0155240D01*
X0169002Y0148483D02*
X0164198Y0148483D01*
X0160800Y0145085D01*
X0160800Y0144706D01*
X0158423Y0147083D01*
X0156800Y0147083D01*
X0156800Y0142883D01*
X0156400Y0142883D01*
X0156400Y0142483D01*
X0156800Y0142483D01*
X0156800Y0138283D01*
X0158423Y0138283D01*
X0160800Y0140661D01*
X0160800Y0140281D01*
X0164198Y0136883D01*
X0169002Y0136883D01*
X0172400Y0140281D01*
X0172400Y0145085D01*
X0169002Y0148483D01*
X0169436Y0148049D02*
X0373521Y0148049D01*
X0373521Y0146851D02*
X0170635Y0146851D01*
X0171833Y0145652D02*
X0373521Y0145652D01*
X0373521Y0144454D02*
X0172400Y0144454D01*
X0172400Y0143255D02*
X0373521Y0143255D01*
X0373521Y0142057D02*
X0172400Y0142057D01*
X0172400Y0140858D02*
X0373521Y0140858D01*
X0373521Y0139660D02*
X0171779Y0139660D01*
X0170580Y0138461D02*
X0373521Y0138461D01*
X0373521Y0137262D02*
X0169382Y0137262D01*
X0163818Y0137262D02*
X0125750Y0137262D01*
X0124552Y0136064D02*
X0373521Y0136064D01*
X0373521Y0132468D02*
X0358083Y0132468D01*
X0359281Y0131270D02*
X0373521Y0131270D01*
X0373521Y0130071D02*
X0360300Y0130071D01*
X0360300Y0128873D02*
X0373521Y0128873D01*
X0373521Y0127674D02*
X0360300Y0127674D01*
X0360300Y0126476D02*
X0373521Y0126476D01*
X0373521Y0125277D02*
X0360300Y0125277D01*
X0359264Y0124079D02*
X0373521Y0124079D01*
X0373521Y0122880D02*
X0358065Y0122880D01*
X0358869Y0121682D02*
X0373521Y0121682D01*
X0373521Y0120483D02*
X0360068Y0120483D01*
X0360300Y0119285D02*
X0373521Y0119285D01*
X0373521Y0118086D02*
X0360300Y0118086D01*
X0360300Y0116888D02*
X0373521Y0116888D01*
X0373521Y0115689D02*
X0360300Y0115689D01*
X0359676Y0114491D02*
X0373521Y0114491D01*
X0373521Y0113292D02*
X0358477Y0113292D01*
X0358457Y0112094D02*
X0373521Y0112094D01*
X0373521Y0110895D02*
X0359656Y0110895D01*
X0360300Y0109697D02*
X0373521Y0109697D01*
X0373521Y0108498D02*
X0360300Y0108498D01*
X0360300Y0107300D02*
X0373521Y0107300D01*
X0373521Y0106101D02*
X0360300Y0106101D01*
X0360088Y0104903D02*
X0373521Y0104903D01*
X0373521Y0103704D02*
X0358889Y0103704D01*
X0357691Y0102506D02*
X0373521Y0102506D01*
X0373521Y0101307D02*
X0357264Y0101307D01*
X0358463Y0100109D02*
X0373521Y0100109D01*
X0373521Y0098910D02*
X0358900Y0098910D01*
X0358900Y0096513D02*
X0373521Y0096513D01*
X0373521Y0095315D02*
X0358520Y0095315D01*
X0357321Y0094116D02*
X0373521Y0094116D01*
X0373521Y0092918D02*
X0356123Y0092918D01*
X0356852Y0091719D02*
X0373521Y0091719D01*
X0373521Y0090521D02*
X0358051Y0090521D01*
X0358900Y0089322D02*
X0373521Y0089322D01*
X0373521Y0088124D02*
X0358900Y0088124D01*
X0358900Y0086925D02*
X0373521Y0086925D01*
X0373521Y0085727D02*
X0358900Y0085727D01*
X0357733Y0084528D02*
X0373521Y0084528D01*
X0373521Y0083329D02*
X0356535Y0083329D01*
X0354500Y0083329D02*
X0353700Y0083329D01*
X0353700Y0084528D02*
X0354500Y0084528D01*
X0354500Y0085727D02*
X0353700Y0085727D01*
X0353700Y0086925D02*
X0354500Y0086925D01*
X0354500Y0088124D02*
X0353700Y0088124D01*
X0353700Y0089322D02*
X0354500Y0089322D01*
X0354500Y0090521D02*
X0353700Y0090521D01*
X0353700Y0091719D02*
X0354500Y0091719D01*
X0354500Y0092918D02*
X0353700Y0092918D01*
X0353700Y0094116D02*
X0354500Y0094116D01*
X0354500Y0095315D02*
X0353700Y0095315D01*
X0353700Y0096513D02*
X0354500Y0096513D01*
X0354500Y0097712D02*
X0373521Y0097712D01*
X0373521Y0082131D02*
X0347316Y0082131D01*
X0348515Y0083329D02*
X0351665Y0083329D01*
X0350467Y0084528D02*
X0349713Y0084528D01*
X0350031Y0090521D02*
X0350149Y0090521D01*
X0351348Y0091719D02*
X0348832Y0091719D01*
X0348103Y0092918D02*
X0352077Y0092918D01*
X0350879Y0094116D02*
X0349301Y0094116D01*
X0333698Y0110895D02*
X0302834Y0110895D01*
X0302834Y0109697D02*
X0332272Y0109697D01*
X0331074Y0108498D02*
X0301964Y0108498D01*
X0301650Y0107300D02*
X0330562Y0107300D01*
X0330500Y0106101D02*
X0301650Y0106101D01*
X0301650Y0104903D02*
X0330500Y0104903D01*
X0330500Y0103704D02*
X0301650Y0103704D01*
X0301650Y0102506D02*
X0330500Y0102506D01*
X0330500Y0101307D02*
X0301650Y0101307D01*
X0301650Y0100109D02*
X0330500Y0100109D01*
X0330500Y0098910D02*
X0302422Y0098910D01*
X0302834Y0097712D02*
X0330500Y0097712D01*
X0330500Y0096513D02*
X0302834Y0096513D01*
X0302834Y0095315D02*
X0330500Y0095315D01*
X0330442Y0094116D02*
X0302582Y0094116D01*
X0293736Y0108498D02*
X0280334Y0108498D01*
X0280334Y0109697D02*
X0292866Y0109697D01*
X0292866Y0110895D02*
X0279187Y0110895D01*
X0300643Y0115689D02*
X0337900Y0115689D01*
X0338524Y0114491D02*
X0301841Y0114491D01*
X0302834Y0113292D02*
X0339723Y0113292D01*
X0339743Y0112094D02*
X0302834Y0112094D01*
X0373521Y0149248D02*
X0131600Y0149248D01*
X0131600Y0150446D02*
X0373521Y0150446D01*
X0373521Y0151645D02*
X0131600Y0151645D01*
X0131600Y0152843D02*
X0373521Y0152843D01*
X0373521Y0154042D02*
X0131600Y0154042D01*
X0131600Y0155240D02*
X0163340Y0155240D01*
X0162142Y0156439D02*
X0159078Y0156439D01*
X0160277Y0157637D02*
X0160943Y0157637D01*
X0156800Y0157637D02*
X0156400Y0157637D01*
X0156400Y0156439D02*
X0156800Y0156439D01*
X0156400Y0155783D02*
X0156400Y0159983D01*
X0152200Y0159983D01*
X0152200Y0158361D01*
X0154777Y0155783D01*
X0156400Y0155783D01*
X0154122Y0156439D02*
X0131600Y0156439D01*
X0131600Y0157637D02*
X0152923Y0157637D01*
X0152200Y0158836D02*
X0131600Y0158836D01*
X0131600Y0160034D02*
X0156400Y0160034D01*
X0156400Y0160383D02*
X0152200Y0160383D01*
X0152200Y0162006D01*
X0154777Y0164583D01*
X0156400Y0164583D01*
X0156400Y0160383D01*
X0156400Y0161233D02*
X0156800Y0161233D01*
X0156800Y0162431D02*
X0156400Y0162431D01*
X0156400Y0163630D02*
X0156800Y0163630D01*
X0159376Y0163630D02*
X0161844Y0163630D01*
X0160800Y0162431D02*
X0160574Y0162431D01*
X0163043Y0164828D02*
X0131600Y0164828D01*
X0131600Y0163630D02*
X0153824Y0163630D01*
X0152626Y0162431D02*
X0131600Y0162431D01*
X0131600Y0161233D02*
X0152200Y0161233D01*
X0156400Y0158836D02*
X0156800Y0158836D01*
X0156400Y0147083D02*
X0154777Y0147083D01*
X0152200Y0144506D01*
X0152200Y0142883D01*
X0156400Y0142883D01*
X0156400Y0147083D01*
X0156400Y0146851D02*
X0156800Y0146851D01*
X0156800Y0145652D02*
X0156400Y0145652D01*
X0156400Y0144454D02*
X0156800Y0144454D01*
X0156800Y0143255D02*
X0156400Y0143255D01*
X0156400Y0142483D02*
X0152200Y0142483D01*
X0152200Y0140861D01*
X0154777Y0138283D01*
X0156400Y0138283D01*
X0156400Y0142483D01*
X0156400Y0142057D02*
X0156800Y0142057D01*
X0156800Y0140858D02*
X0156400Y0140858D01*
X0156400Y0139660D02*
X0156800Y0139660D01*
X0156800Y0138461D02*
X0156400Y0138461D01*
X0154600Y0138461D02*
X0126949Y0138461D01*
X0128148Y0139660D02*
X0153401Y0139660D01*
X0152203Y0140858D02*
X0129346Y0140858D01*
X0130545Y0142057D02*
X0152200Y0142057D01*
X0152200Y0143255D02*
X0131213Y0143255D01*
X0131600Y0144454D02*
X0152200Y0144454D01*
X0153346Y0145652D02*
X0131600Y0145652D01*
X0131600Y0146851D02*
X0154545Y0146851D01*
X0158655Y0146851D02*
X0162565Y0146851D01*
X0163764Y0148049D02*
X0131600Y0148049D01*
X0121196Y0146851D02*
X0096246Y0146851D01*
X0097445Y0145652D02*
X0119998Y0145652D01*
X0158600Y0138461D02*
X0162620Y0138461D01*
X0161421Y0139660D02*
X0159799Y0139660D01*
X0159854Y0145652D02*
X0161367Y0145652D01*
X0161187Y0192394D02*
X0160033Y0192394D01*
X0159619Y0198387D02*
X0161601Y0198387D01*
X0145350Y0240183D02*
X0142850Y0242683D01*
X0137850Y0242683D01*
X0149100Y0300183D02*
X0149100Y0355884D01*
X0039557Y0355884D01*
X0039600Y0355780D01*
X0039600Y0324586D01*
X0039143Y0323484D01*
X0038299Y0322640D01*
X0037197Y0322183D01*
X0006003Y0322183D01*
X0004901Y0322640D01*
X0004600Y0322940D01*
X0004600Y0300183D01*
X0149100Y0300183D01*
X0149100Y0300260D02*
X0004600Y0300260D01*
X0004600Y0301459D02*
X0149100Y0301459D01*
X0149100Y0302657D02*
X0004600Y0302657D01*
X0004600Y0303856D02*
X0149100Y0303856D01*
X0149100Y0305054D02*
X0004600Y0305054D01*
X0004600Y0306253D02*
X0149100Y0306253D01*
X0149100Y0307451D02*
X0004600Y0307451D01*
X0004600Y0308650D02*
X0149100Y0308650D01*
X0149100Y0309848D02*
X0004600Y0309848D01*
X0004600Y0311047D02*
X0149100Y0311047D01*
X0149100Y0312245D02*
X0004600Y0312245D01*
X0004600Y0313444D02*
X0149100Y0313444D01*
X0149100Y0314642D02*
X0004600Y0314642D01*
X0004600Y0315841D02*
X0149100Y0315841D01*
X0149100Y0317039D02*
X0004600Y0317039D01*
X0004600Y0318238D02*
X0070514Y0318238D01*
X0069897Y0318493D02*
X0072819Y0317283D01*
X0075981Y0317283D01*
X0078903Y0318493D01*
X0081140Y0320730D01*
X0082350Y0323652D01*
X0082350Y0325183D01*
X0088733Y0325183D01*
X0089183Y0324098D01*
X0090815Y0322466D01*
X0092946Y0321583D01*
X0095254Y0321583D01*
X0097385Y0322466D01*
X0099017Y0324098D01*
X0099900Y0326229D01*
X0099900Y0334137D01*
X0099017Y0336269D01*
X0097385Y0337900D01*
X0095254Y0338783D01*
X0092946Y0338783D01*
X0090815Y0337900D01*
X0089183Y0336269D01*
X0088733Y0335183D01*
X0082350Y0335183D01*
X0082350Y0336714D01*
X0081140Y0339636D01*
X0078903Y0341873D01*
X0075981Y0343083D01*
X0072819Y0343083D01*
X0069897Y0341873D01*
X0067660Y0339636D01*
X0066450Y0336714D01*
X0066450Y0323652D01*
X0067660Y0320730D01*
X0069897Y0318493D01*
X0068954Y0319436D02*
X0061860Y0319436D01*
X0061703Y0319346D02*
X0062447Y0319775D01*
X0063128Y0320298D01*
X0063735Y0320905D01*
X0064258Y0321586D01*
X0064687Y0322330D01*
X0065016Y0323123D01*
X0065238Y0323952D01*
X0065350Y0324804D01*
X0065350Y0329583D01*
X0059400Y0329583D01*
X0059400Y0318706D01*
X0060081Y0318795D01*
X0060910Y0319017D01*
X0061703Y0319346D01*
X0063465Y0320635D02*
X0067755Y0320635D01*
X0067203Y0321833D02*
X0064400Y0321833D01*
X0064978Y0323032D02*
X0066707Y0323032D01*
X0066450Y0324230D02*
X0065274Y0324230D01*
X0065350Y0325429D02*
X0066450Y0325429D01*
X0066450Y0326627D02*
X0065350Y0326627D01*
X0065350Y0327826D02*
X0066450Y0327826D01*
X0066450Y0329024D02*
X0065350Y0329024D01*
X0066450Y0330223D02*
X0059400Y0330223D01*
X0059400Y0330783D02*
X0065350Y0330783D01*
X0065350Y0335562D01*
X0065238Y0336414D01*
X0065016Y0337243D01*
X0064687Y0338036D01*
X0064258Y0338780D01*
X0063735Y0339461D01*
X0063128Y0340068D01*
X0062447Y0340591D01*
X0061703Y0341020D01*
X0060910Y0341349D01*
X0060081Y0341571D01*
X0059400Y0341661D01*
X0059400Y0330783D01*
X0059400Y0329583D01*
X0058200Y0329583D01*
X0058200Y0318706D01*
X0057519Y0318795D01*
X0056690Y0319017D01*
X0055897Y0319346D01*
X0055153Y0319775D01*
X0054472Y0320298D01*
X0053865Y0320905D01*
X0053342Y0321586D01*
X0052913Y0322330D01*
X0052584Y0323123D01*
X0052362Y0323952D01*
X0052250Y0324804D01*
X0052250Y0329583D01*
X0058200Y0329583D01*
X0058200Y0330783D01*
X0052250Y0330783D01*
X0052250Y0335562D01*
X0052362Y0336414D01*
X0052584Y0337243D01*
X0052913Y0338036D01*
X0053342Y0338780D01*
X0053865Y0339461D01*
X0054472Y0340068D01*
X0055153Y0340591D01*
X0055897Y0341020D01*
X0056690Y0341349D01*
X0057519Y0341571D01*
X0058200Y0341661D01*
X0058200Y0330783D01*
X0059400Y0330783D01*
X0059400Y0331421D02*
X0058200Y0331421D01*
X0058200Y0330223D02*
X0039600Y0330223D01*
X0039600Y0331421D02*
X0052250Y0331421D01*
X0052250Y0332620D02*
X0039600Y0332620D01*
X0039600Y0333818D02*
X0052250Y0333818D01*
X0052250Y0335017D02*
X0039600Y0335017D01*
X0039600Y0336215D02*
X0052336Y0336215D01*
X0052655Y0337414D02*
X0039600Y0337414D01*
X0039600Y0338612D02*
X0053246Y0338612D01*
X0054215Y0339811D02*
X0039600Y0339811D01*
X0039600Y0341009D02*
X0055878Y0341009D01*
X0058200Y0341009D02*
X0059400Y0341009D01*
X0059400Y0339811D02*
X0058200Y0339811D01*
X0058200Y0338612D02*
X0059400Y0338612D01*
X0059400Y0337414D02*
X0058200Y0337414D01*
X0058200Y0336215D02*
X0059400Y0336215D01*
X0059400Y0335017D02*
X0058200Y0335017D01*
X0058200Y0333818D02*
X0059400Y0333818D01*
X0059400Y0332620D02*
X0058200Y0332620D01*
X0058200Y0329024D02*
X0059400Y0329024D01*
X0059400Y0327826D02*
X0058200Y0327826D01*
X0058200Y0326627D02*
X0059400Y0326627D01*
X0059400Y0325429D02*
X0058200Y0325429D01*
X0058200Y0324230D02*
X0059400Y0324230D01*
X0059400Y0323032D02*
X0058200Y0323032D01*
X0058200Y0321833D02*
X0059400Y0321833D01*
X0059400Y0320635D02*
X0058200Y0320635D01*
X0058200Y0319436D02*
X0059400Y0319436D01*
X0055740Y0319436D02*
X0004600Y0319436D01*
X0004600Y0320635D02*
X0054135Y0320635D01*
X0053200Y0321833D02*
X0004600Y0321833D01*
X0038691Y0323032D02*
X0052622Y0323032D01*
X0052325Y0324230D02*
X0039452Y0324230D01*
X0039600Y0325429D02*
X0052250Y0325429D01*
X0052250Y0326627D02*
X0039600Y0326627D01*
X0039600Y0327826D02*
X0052250Y0327826D01*
X0052250Y0329024D02*
X0039600Y0329024D01*
X0039600Y0342208D02*
X0070706Y0342208D01*
X0069033Y0341009D02*
X0061722Y0341009D01*
X0063385Y0339811D02*
X0067835Y0339811D01*
X0067236Y0338612D02*
X0064354Y0338612D01*
X0064945Y0337414D02*
X0066740Y0337414D01*
X0066450Y0336215D02*
X0065264Y0336215D01*
X0065350Y0335017D02*
X0066450Y0335017D01*
X0066450Y0333818D02*
X0065350Y0333818D01*
X0065350Y0332620D02*
X0066450Y0332620D01*
X0066450Y0331421D02*
X0065350Y0331421D01*
X0078094Y0342208D02*
X0110106Y0342208D01*
X0109297Y0341873D02*
X0112219Y0343083D01*
X0115381Y0343083D01*
X0118303Y0341873D01*
X0120540Y0339636D01*
X0121750Y0336714D01*
X0121750Y0323652D01*
X0120540Y0320730D01*
X0118303Y0318493D01*
X0115381Y0317283D01*
X0112219Y0317283D01*
X0109297Y0318493D01*
X0107060Y0320730D01*
X0105850Y0323652D01*
X0105850Y0336714D01*
X0107060Y0339636D01*
X0109297Y0341873D01*
X0108433Y0341009D02*
X0079767Y0341009D01*
X0080965Y0339811D02*
X0107235Y0339811D01*
X0106636Y0338612D02*
X0095666Y0338612D01*
X0097872Y0337414D02*
X0106140Y0337414D01*
X0105850Y0336215D02*
X0099039Y0336215D01*
X0099535Y0335017D02*
X0105850Y0335017D01*
X0105850Y0333818D02*
X0099900Y0333818D01*
X0099900Y0332620D02*
X0105850Y0332620D01*
X0105850Y0331421D02*
X0099900Y0331421D01*
X0099900Y0330223D02*
X0105850Y0330223D01*
X0105850Y0329024D02*
X0099900Y0329024D01*
X0099900Y0327826D02*
X0105850Y0327826D01*
X0105850Y0326627D02*
X0099900Y0326627D01*
X0099568Y0325429D02*
X0105850Y0325429D01*
X0105850Y0324230D02*
X0099072Y0324230D01*
X0097951Y0323032D02*
X0106107Y0323032D01*
X0106603Y0321833D02*
X0095858Y0321833D01*
X0092342Y0321833D02*
X0081597Y0321833D01*
X0082093Y0323032D02*
X0090249Y0323032D01*
X0089128Y0324230D02*
X0082350Y0324230D01*
X0081045Y0320635D02*
X0107155Y0320635D01*
X0108354Y0319436D02*
X0079846Y0319436D01*
X0078286Y0318238D02*
X0109914Y0318238D01*
X0117686Y0318238D02*
X0149100Y0318238D01*
X0149100Y0319436D02*
X0132460Y0319436D01*
X0132303Y0319346D02*
X0133047Y0319775D01*
X0133728Y0320298D01*
X0134335Y0320905D01*
X0134858Y0321586D01*
X0135287Y0322330D01*
X0135616Y0323123D01*
X0135838Y0323952D01*
X0135950Y0324804D01*
X0135950Y0329583D01*
X0130000Y0329583D01*
X0130000Y0318706D01*
X0130681Y0318795D01*
X0131510Y0319017D01*
X0132303Y0319346D01*
X0134065Y0320635D02*
X0149100Y0320635D01*
X0149100Y0321833D02*
X0135000Y0321833D01*
X0135578Y0323032D02*
X0149100Y0323032D01*
X0149100Y0324230D02*
X0135874Y0324230D01*
X0135950Y0325429D02*
X0149100Y0325429D01*
X0149100Y0326627D02*
X0135950Y0326627D01*
X0135950Y0327826D02*
X0149100Y0327826D01*
X0149100Y0329024D02*
X0135950Y0329024D01*
X0135950Y0330783D02*
X0135950Y0335562D01*
X0135838Y0336414D01*
X0135616Y0337243D01*
X0135287Y0338036D01*
X0134858Y0338780D01*
X0134335Y0339461D01*
X0133728Y0340068D01*
X0133047Y0340591D01*
X0132303Y0341020D01*
X0131510Y0341349D01*
X0130681Y0341571D01*
X0130000Y0341661D01*
X0130000Y0330783D01*
X0135950Y0330783D01*
X0135950Y0331421D02*
X0149100Y0331421D01*
X0149100Y0330223D02*
X0130000Y0330223D01*
X0130000Y0330783D02*
X0130000Y0329583D01*
X0128800Y0329583D01*
X0128800Y0318706D01*
X0128119Y0318795D01*
X0127290Y0319017D01*
X0126497Y0319346D01*
X0125753Y0319775D01*
X0125072Y0320298D01*
X0124465Y0320905D01*
X0123942Y0321586D01*
X0123513Y0322330D01*
X0123184Y0323123D01*
X0122962Y0323952D01*
X0122850Y0324804D01*
X0122850Y0329583D01*
X0128800Y0329583D01*
X0128800Y0330783D01*
X0122850Y0330783D01*
X0122850Y0335562D01*
X0122962Y0336414D01*
X0123184Y0337243D01*
X0123513Y0338036D01*
X0123942Y0338780D01*
X0124465Y0339461D01*
X0125072Y0340068D01*
X0125753Y0340591D01*
X0126497Y0341020D01*
X0127290Y0341349D01*
X0128119Y0341571D01*
X0128800Y0341661D01*
X0128800Y0330783D01*
X0130000Y0330783D01*
X0130000Y0331421D02*
X0128800Y0331421D01*
X0128800Y0330223D02*
X0121750Y0330223D01*
X0121750Y0331421D02*
X0122850Y0331421D01*
X0122850Y0332620D02*
X0121750Y0332620D01*
X0121750Y0333818D02*
X0122850Y0333818D01*
X0122850Y0335017D02*
X0121750Y0335017D01*
X0121750Y0336215D02*
X0122936Y0336215D01*
X0123255Y0337414D02*
X0121460Y0337414D01*
X0120964Y0338612D02*
X0123846Y0338612D01*
X0124815Y0339811D02*
X0120365Y0339811D01*
X0119167Y0341009D02*
X0126478Y0341009D01*
X0128800Y0341009D02*
X0130000Y0341009D01*
X0130000Y0339811D02*
X0128800Y0339811D01*
X0128800Y0338612D02*
X0130000Y0338612D01*
X0130000Y0337414D02*
X0128800Y0337414D01*
X0128800Y0336215D02*
X0130000Y0336215D01*
X0130000Y0335017D02*
X0128800Y0335017D01*
X0128800Y0333818D02*
X0130000Y0333818D01*
X0130000Y0332620D02*
X0128800Y0332620D01*
X0128800Y0329024D02*
X0130000Y0329024D01*
X0130000Y0327826D02*
X0128800Y0327826D01*
X0128800Y0326627D02*
X0130000Y0326627D01*
X0130000Y0325429D02*
X0128800Y0325429D01*
X0128800Y0324230D02*
X0130000Y0324230D01*
X0130000Y0323032D02*
X0128800Y0323032D01*
X0128800Y0321833D02*
X0130000Y0321833D01*
X0130000Y0320635D02*
X0128800Y0320635D01*
X0128800Y0319436D02*
X0130000Y0319436D01*
X0126340Y0319436D02*
X0119246Y0319436D01*
X0120445Y0320635D02*
X0124735Y0320635D01*
X0123800Y0321833D02*
X0120997Y0321833D01*
X0121493Y0323032D02*
X0123222Y0323032D01*
X0122925Y0324230D02*
X0121750Y0324230D01*
X0121750Y0325429D02*
X0122850Y0325429D01*
X0122850Y0326627D02*
X0121750Y0326627D01*
X0121750Y0327826D02*
X0122850Y0327826D01*
X0122850Y0329024D02*
X0121750Y0329024D01*
X0117494Y0342208D02*
X0149100Y0342208D01*
X0149100Y0343406D02*
X0039600Y0343406D01*
X0039600Y0344605D02*
X0149100Y0344605D01*
X0149100Y0345803D02*
X0039600Y0345803D01*
X0039600Y0347002D02*
X0149100Y0347002D01*
X0149100Y0348200D02*
X0039600Y0348200D01*
X0039600Y0349399D02*
X0149100Y0349399D01*
X0149100Y0350598D02*
X0039600Y0350598D01*
X0039600Y0351796D02*
X0149100Y0351796D01*
X0149100Y0352995D02*
X0039600Y0352995D01*
X0039600Y0354193D02*
X0149100Y0354193D01*
X0149100Y0355392D02*
X0039600Y0355392D01*
X0081564Y0338612D02*
X0092534Y0338612D01*
X0090328Y0337414D02*
X0082060Y0337414D01*
X0082350Y0336215D02*
X0089161Y0336215D01*
X0132322Y0341009D02*
X0149100Y0341009D01*
X0149100Y0339811D02*
X0133985Y0339811D01*
X0134954Y0338612D02*
X0149100Y0338612D01*
X0149100Y0337414D02*
X0135545Y0337414D01*
X0135864Y0336215D02*
X0149100Y0336215D01*
X0149100Y0335017D02*
X0135950Y0335017D01*
X0135950Y0333818D02*
X0149100Y0333818D01*
X0149100Y0332620D02*
X0135950Y0332620D01*
X0219100Y0183933D02*
X0216600Y0181433D01*
X0219100Y0183933D02*
X0236600Y0183933D01*
X0348094Y0180409D02*
X0352086Y0180409D01*
X0351339Y0179210D02*
X0348841Y0179210D01*
X0350039Y0178012D02*
X0350141Y0178012D01*
X0350887Y0181607D02*
X0349292Y0181607D01*
X0149100Y0077683D02*
X0125350Y0077683D01*
X0128457Y0073741D02*
X0145993Y0073741D01*
X0146499Y0082131D02*
X0127951Y0082131D01*
X0027000Y0154042D02*
X0026200Y0154042D01*
X0026200Y0153583D02*
X0026200Y0159783D01*
X0020000Y0159783D01*
X0020000Y0157449D01*
X0023866Y0153583D01*
X0026200Y0153583D01*
X0026200Y0155240D02*
X0027000Y0155240D01*
X0027000Y0156439D02*
X0026200Y0156439D01*
X0026200Y0157637D02*
X0027000Y0157637D01*
X0027000Y0158836D02*
X0026200Y0158836D01*
X0026200Y0160034D02*
X0004600Y0160034D01*
X0004600Y0158836D02*
X0020000Y0158836D01*
X0020000Y0157637D02*
X0004600Y0157637D01*
X0004600Y0156439D02*
X0021011Y0156439D01*
X0022209Y0155240D02*
X0004600Y0155240D01*
X0004600Y0154042D02*
X0023408Y0154042D01*
X0024685Y0148049D02*
X0004600Y0148049D01*
X0004600Y0146851D02*
X0021954Y0146851D01*
X0020755Y0145652D02*
X0004600Y0145652D01*
X0004600Y0144454D02*
X0019710Y0144454D01*
X0019213Y0143255D02*
X0004600Y0143255D01*
X0004600Y0142057D02*
X0018717Y0142057D01*
X0018600Y0140858D02*
X0004600Y0140858D01*
X0004600Y0139660D02*
X0018600Y0139660D01*
X0018654Y0138461D02*
X0004600Y0138461D01*
X0004600Y0137262D02*
X0019151Y0137262D01*
X0019647Y0136064D02*
X0004600Y0136064D01*
X0004600Y0134865D02*
X0020604Y0134865D01*
X0021802Y0133667D02*
X0004600Y0133667D01*
X0004600Y0132468D02*
X0024320Y0132468D01*
X0020000Y0161233D02*
X0004600Y0161233D01*
X0004600Y0162431D02*
X0020000Y0162431D01*
X0020713Y0163630D02*
X0004600Y0163630D01*
X0004600Y0164828D02*
X0021911Y0164828D01*
D21*
X0091600Y0140183D02*
X0121600Y0140183D01*
X0126600Y0145183D01*
X0126600Y0212683D01*
X0131600Y0217683D01*
X0186600Y0217683D01*
X0191600Y0222683D01*
X0191600Y0235183D01*
X0191600Y0242683D01*
X0194100Y0245183D01*
X0246600Y0245183D01*
X0301600Y0245183D01*
X0301600Y0235183D01*
X0301600Y0245183D02*
X0354100Y0245183D01*
X0356600Y0242683D01*
X0356600Y0235183D01*
X0356600Y0265183D02*
X0326600Y0265183D01*
X0365350Y0265183D01*
X0369100Y0268933D01*
X0369100Y0313933D01*
X0364100Y0318933D01*
X0325350Y0318933D01*
X0320350Y0323933D01*
X0320350Y0329233D01*
X0319400Y0330183D01*
X0309100Y0321433D02*
X0305350Y0321433D01*
X0304100Y0322683D01*
X0304100Y0329883D01*
X0303800Y0330183D01*
X0309100Y0321433D02*
X0325350Y0305183D01*
X0326600Y0305183D01*
X0356600Y0305183D01*
X0314100Y0306433D02*
X0314100Y0267683D01*
X0311600Y0265183D01*
X0271600Y0265183D01*
X0301600Y0265183D01*
X0259100Y0268933D02*
X0259100Y0307683D01*
X0250350Y0316433D01*
X0232850Y0316433D01*
X0229100Y0320183D01*
X0229100Y0329883D01*
X0229400Y0330183D01*
X0214100Y0329883D02*
X0214100Y0320183D01*
X0216600Y0317683D01*
X0216600Y0305183D01*
X0246600Y0305183D01*
X0259100Y0320183D02*
X0259100Y0329883D01*
X0258800Y0330183D01*
X0259100Y0320183D02*
X0264100Y0315183D01*
X0267850Y0315183D01*
X0271600Y0311433D01*
X0271600Y0305183D01*
X0301600Y0305183D01*
X0306600Y0313933D02*
X0280350Y0313933D01*
X0274100Y0320183D01*
X0274100Y0329883D01*
X0274400Y0330183D01*
X0306600Y0313933D02*
X0314100Y0306433D01*
X0259100Y0268933D02*
X0255350Y0265183D01*
X0246600Y0265183D01*
X0216600Y0265183D01*
X0204100Y0267683D02*
X0201600Y0265183D01*
X0191600Y0265183D01*
X0161600Y0265183D01*
X0161600Y0285183D02*
X0159100Y0285183D01*
X0161600Y0285183D02*
X0191600Y0285183D01*
X0099100Y0285183D01*
X0094100Y0290183D01*
X0129100Y0310183D02*
X0129100Y0329883D01*
X0129400Y0330183D01*
X0129100Y0310183D02*
X0134100Y0305183D01*
X0161600Y0305183D01*
X0169100Y0305183D01*
X0168800Y0305483D01*
X0168800Y0330183D01*
X0184400Y0330183D02*
X0184400Y0319883D01*
X0189100Y0315183D01*
X0199100Y0315183D01*
X0204100Y0310183D01*
X0204100Y0267683D01*
X0216600Y0285183D02*
X0246600Y0285183D01*
X0246600Y0245183D02*
X0246600Y0235183D01*
X0191600Y0305183D02*
X0169100Y0305183D01*
X0213800Y0330183D02*
X0214100Y0329883D01*
X0094100Y0330183D02*
X0074400Y0330183D01*
D22*
X0279100Y0221433D02*
X0297850Y0221433D01*
X0301600Y0225183D01*
X0301600Y0235183D01*
D23*
X0297850Y0111433D02*
X0297850Y0096433D01*
M02*
