G75*
%MOIN*%
%OFA0B0*%
%FSLAX25Y25*%
%IPPOS*%
%LPD*%
%AMOC8*
5,1,8,0,0,1.08239X$1,22.5*
%
%ADD10R,0.43750X0.37500*%
%ADD11R,0.07887X0.07099*%
%ADD12C,0.10800*%
%ADD13OC8,0.10800*%
%ADD14R,0.07099X0.07887*%
%ADD15C,0.06400*%
%ADD16R,0.23800X0.23800*%
%ADD17R,0.02769X0.06706*%
%ADD18R,0.06706X0.02769*%
%ADD19R,0.03400X0.08800*%
%ADD20R,0.25209X0.22060*%
%ADD21R,0.07099X0.04737*%
%ADD22C,0.10700*%
%ADD23OC8,0.07200*%
%ADD24C,0.07200*%
%ADD25OC8,0.06400*%
%ADD26C,0.06400*%
%ADD27R,0.07099X0.08674*%
%ADD28R,0.08674X0.07099*%
%ADD29R,0.08800X0.03400*%
D10*
X0074725Y0127683D03*
D11*
X0224100Y0103195D03*
X0224100Y0092171D03*
X0279100Y0092171D03*
X0279100Y0103195D03*
X0259100Y0189671D03*
X0259100Y0200695D03*
D12*
X0091600Y0160183D03*
X0026600Y0160183D03*
D13*
X0026600Y0180183D03*
X0091600Y0180183D03*
D14*
X0059612Y0182683D03*
X0048588Y0182683D03*
X0032112Y0137683D03*
X0021088Y0137683D03*
X0021088Y0117683D03*
X0032112Y0117683D03*
X0178588Y0107683D03*
X0189612Y0107683D03*
X0189612Y0150183D03*
X0178588Y0150183D03*
X0298588Y0142683D03*
X0309612Y0142683D03*
X0309612Y0157683D03*
X0298588Y0157683D03*
X0319838Y0243933D03*
X0330862Y0243933D03*
X0124612Y0262683D03*
X0113588Y0262683D03*
X0044612Y0262683D03*
X0033588Y0262683D03*
D15*
X0094100Y0307383D02*
X0094100Y0312983D01*
X0094100Y0347383D02*
X0094100Y0352983D01*
X0114100Y0250483D02*
X0114100Y0244883D01*
X0114100Y0210483D02*
X0114100Y0204883D01*
D16*
X0021600Y0078933D03*
X0021600Y0360183D03*
X0356600Y0360183D03*
X0356600Y0078933D03*
D17*
X0269848Y0134848D03*
X0266698Y0134848D03*
X0263549Y0134848D03*
X0260399Y0134848D03*
X0257250Y0134848D03*
X0254100Y0134848D03*
X0250950Y0134848D03*
X0247801Y0134848D03*
X0244651Y0134848D03*
X0241502Y0134848D03*
X0238352Y0134848D03*
X0238352Y0180518D03*
X0241502Y0180518D03*
X0244651Y0180518D03*
X0247801Y0180518D03*
X0250950Y0180518D03*
X0254100Y0180518D03*
X0257250Y0180518D03*
X0260399Y0180518D03*
X0263549Y0180518D03*
X0266698Y0180518D03*
X0269848Y0180518D03*
D18*
X0276935Y0173431D03*
X0276935Y0170281D03*
X0276935Y0167132D03*
X0276935Y0163982D03*
X0276935Y0160833D03*
X0276935Y0157683D03*
X0276935Y0154533D03*
X0276935Y0151384D03*
X0276935Y0148234D03*
X0276935Y0145085D03*
X0276935Y0141935D03*
X0231265Y0141935D03*
X0231265Y0145085D03*
X0231265Y0148234D03*
X0231265Y0151384D03*
X0231265Y0154533D03*
X0231265Y0157683D03*
X0231265Y0160833D03*
X0231265Y0163982D03*
X0231265Y0167132D03*
X0231265Y0170281D03*
X0231265Y0173431D03*
D19*
X0231600Y0213083D03*
X0236600Y0213083D03*
X0241600Y0213083D03*
X0246600Y0213083D03*
X0251600Y0213083D03*
X0256600Y0213083D03*
X0261600Y0213083D03*
X0266600Y0213083D03*
X0266600Y0237283D03*
X0261600Y0237283D03*
X0256600Y0237283D03*
X0251600Y0237283D03*
X0246600Y0237283D03*
X0241600Y0237283D03*
X0236600Y0237283D03*
X0231600Y0237283D03*
D20*
X0073943Y0127683D03*
D21*
X0045202Y0118707D03*
X0045202Y0136659D03*
D22*
X0058800Y0345233D02*
X0058800Y0355133D01*
X0074400Y0355133D02*
X0074400Y0345233D01*
X0113800Y0345233D02*
X0113800Y0355133D01*
X0129400Y0355133D02*
X0129400Y0345233D01*
X0168800Y0345233D02*
X0168800Y0355133D01*
X0184400Y0355133D02*
X0184400Y0345233D01*
X0213800Y0345233D02*
X0213800Y0355133D01*
X0229400Y0355133D02*
X0229400Y0345233D01*
X0258800Y0345233D02*
X0258800Y0355133D01*
X0274400Y0355133D02*
X0274400Y0345233D01*
X0303800Y0345233D02*
X0303800Y0355133D01*
X0319400Y0355133D02*
X0319400Y0345233D01*
D23*
X0344100Y0225183D03*
X0354100Y0225183D03*
X0354100Y0215183D03*
X0344100Y0215183D03*
X0344100Y0205183D03*
X0344100Y0195183D03*
X0354100Y0195183D03*
X0354100Y0205183D03*
X0354100Y0147683D03*
X0354100Y0137683D03*
X0344100Y0137683D03*
X0344100Y0147683D03*
X0344100Y0127683D03*
X0354100Y0127683D03*
X0354100Y0117683D03*
X0354100Y0107683D03*
X0344100Y0107683D03*
X0344100Y0117683D03*
D24*
X0353400Y0255183D02*
X0359800Y0255183D01*
X0329800Y0255183D02*
X0323400Y0255183D01*
X0304800Y0255183D02*
X0298400Y0255183D01*
X0274800Y0255183D02*
X0268400Y0255183D01*
X0249800Y0255183D02*
X0243400Y0255183D01*
X0219800Y0255183D02*
X0213400Y0255183D01*
X0194800Y0255183D02*
X0188400Y0255183D01*
X0164800Y0255183D02*
X0158400Y0255183D01*
X0158400Y0285183D02*
X0164800Y0285183D01*
X0188400Y0285183D02*
X0194800Y0285183D01*
X0213400Y0285183D02*
X0219800Y0285183D01*
X0219800Y0305183D02*
X0213400Y0305183D01*
X0194800Y0305183D02*
X0188400Y0305183D01*
X0188400Y0325183D02*
X0194800Y0325183D01*
X0213400Y0325183D02*
X0219800Y0325183D01*
X0243400Y0325183D02*
X0249800Y0325183D01*
X0268400Y0325183D02*
X0274800Y0325183D01*
X0274800Y0305183D02*
X0268400Y0305183D01*
X0249800Y0305183D02*
X0243400Y0305183D01*
X0243400Y0285183D02*
X0249800Y0285183D01*
X0268400Y0285183D02*
X0274800Y0285183D01*
X0298400Y0285183D02*
X0304800Y0285183D01*
X0323400Y0285183D02*
X0329800Y0285183D01*
X0329800Y0305183D02*
X0323400Y0305183D01*
X0304800Y0305183D02*
X0298400Y0305183D01*
X0298400Y0325183D02*
X0304800Y0325183D01*
X0323400Y0325183D02*
X0329800Y0325183D01*
X0353400Y0325183D02*
X0359800Y0325183D01*
X0359800Y0305183D02*
X0353400Y0305183D01*
X0353400Y0285183D02*
X0359800Y0285183D01*
X0164800Y0305183D02*
X0158400Y0305183D01*
X0158400Y0325183D02*
X0164800Y0325183D01*
D25*
X0166600Y0215183D03*
X0156600Y0215183D03*
X0156600Y0197683D03*
X0166600Y0197683D03*
X0166600Y0180183D03*
X0156600Y0180183D03*
X0156600Y0162683D03*
X0166600Y0162683D03*
X0166600Y0137683D03*
X0156600Y0137683D03*
X0070350Y0082683D03*
X0060350Y0082683D03*
D26*
X0242100Y0097683D03*
X0261100Y0097683D03*
D27*
X0189612Y0120183D03*
X0178588Y0120183D03*
X0178588Y0137683D03*
X0189612Y0137683D03*
X0189612Y0162683D03*
X0178588Y0162683D03*
X0178588Y0180183D03*
X0189612Y0180183D03*
X0189612Y0197683D03*
X0178588Y0197683D03*
X0178588Y0215183D03*
X0189612Y0215183D03*
D28*
X0045350Y0105695D03*
X0045350Y0094671D03*
D29*
X0291800Y0190183D03*
X0291800Y0195183D03*
X0291800Y0200183D03*
X0291800Y0205183D03*
X0291800Y0210183D03*
X0291800Y0215183D03*
X0291800Y0220183D03*
X0291800Y0225183D03*
X0291800Y0230183D03*
X0291800Y0235183D03*
X0331400Y0235183D03*
X0331400Y0230183D03*
X0331400Y0225183D03*
X0331400Y0220183D03*
X0331400Y0215183D03*
X0331400Y0210183D03*
X0331400Y0205183D03*
X0331400Y0200183D03*
X0331400Y0195183D03*
X0331400Y0190183D03*
M02*
