G75*
%MOIN*%
%OFA0B0*%
%FSLAX25Y25*%
%IPPOS*%
%LPD*%
%AMOC8*
5,1,8,0,0,1.08239X$1,22.5*
%
%ADD10C,0.00900*%
%ADD11OC8,0.05200*%
%ADD12C,0.07500*%
%ADD13OC8,0.07500*%
%ADD14OC8,0.05600*%
%ADD15C,0.05200*%
%ADD16C,0.21000*%
%ADD17C,0.06000*%
%ADD18C,0.08600*%
%ADD19C,0.05543*%
%ADD20OC8,0.08850*%
%ADD21C,0.08850*%
%ADD22OC8,0.05000*%
%ADD23C,0.01200*%
%ADD24C,0.01600*%
D10*
X0483246Y0052951D02*
X0484147Y0052050D01*
X0485047Y0052050D01*
X0485948Y0052951D01*
X0485948Y0054752D01*
X0486849Y0055653D01*
X0487749Y0055653D01*
X0488650Y0054752D01*
X0488650Y0052951D01*
X0487749Y0052050D01*
X0483246Y0052951D02*
X0483246Y0054752D01*
X0484147Y0055653D01*
X0483246Y0057850D02*
X0488650Y0057850D01*
X0488650Y0060552D01*
X0487749Y0061453D01*
X0484147Y0061453D01*
X0483246Y0060552D01*
X0483246Y0057850D01*
X0483246Y0063650D02*
X0483246Y0066352D01*
X0484147Y0067253D01*
X0485948Y0067253D01*
X0486849Y0066352D01*
X0486849Y0063650D01*
X0488650Y0063650D02*
X0483246Y0063650D01*
X0486849Y0065452D02*
X0488650Y0067253D01*
X0483246Y0075251D02*
X0483246Y0078853D01*
X0483246Y0077052D02*
X0488650Y0077052D01*
X0488650Y0081051D02*
X0483246Y0081051D01*
X0483246Y0083753D01*
X0484147Y0084654D01*
X0485948Y0084654D01*
X0486849Y0083753D01*
X0486849Y0081051D01*
X0486849Y0082852D02*
X0488650Y0084654D01*
X0488650Y0086851D02*
X0485047Y0086851D01*
X0483246Y0088653D01*
X0485047Y0090454D01*
X0488650Y0090454D01*
X0488650Y0092652D02*
X0483246Y0092652D01*
X0488650Y0096254D01*
X0483246Y0096254D01*
X0484147Y0098452D02*
X0483246Y0099352D01*
X0483246Y0101154D01*
X0484147Y0102054D01*
X0485948Y0101154D02*
X0486849Y0102054D01*
X0487749Y0102054D01*
X0488650Y0101154D01*
X0488650Y0099352D01*
X0487749Y0098452D01*
X0485948Y0099352D02*
X0485948Y0101154D01*
X0485948Y0099352D02*
X0485047Y0098452D01*
X0484147Y0098452D01*
X0483246Y0104252D02*
X0485047Y0106053D01*
X0483246Y0107855D01*
X0488650Y0107855D01*
X0488650Y0110052D02*
X0488650Y0111853D01*
X0488650Y0110953D02*
X0483246Y0110953D01*
X0483246Y0111853D02*
X0483246Y0110052D01*
X0483246Y0104252D02*
X0488650Y0104252D01*
X0483246Y0113919D02*
X0483246Y0117522D01*
X0483246Y0115720D02*
X0488650Y0115720D01*
X0483246Y0119719D02*
X0483246Y0123322D01*
X0483246Y0121521D02*
X0488650Y0121521D01*
X0488650Y0125519D02*
X0483246Y0125519D01*
X0483246Y0129122D01*
X0483246Y0131320D02*
X0483246Y0134022D01*
X0484147Y0134922D01*
X0485948Y0134922D01*
X0486849Y0134022D01*
X0486849Y0131320D01*
X0486849Y0133121D02*
X0488650Y0134922D01*
X0488650Y0131320D02*
X0483246Y0131320D01*
X0488650Y0129122D02*
X0488650Y0125519D01*
X0485948Y0125519D02*
X0485948Y0127321D01*
X0485948Y0142920D02*
X0485948Y0146523D01*
X0485948Y0154521D02*
X0485948Y0158123D01*
X0485948Y0160321D02*
X0485948Y0163923D01*
X0485047Y0163923D02*
X0488650Y0163923D01*
X0488650Y0166121D02*
X0483246Y0166121D01*
X0488650Y0169724D01*
X0483246Y0169724D01*
X0483246Y0171921D02*
X0483246Y0174623D01*
X0484147Y0175524D01*
X0487749Y0175524D01*
X0488650Y0174623D01*
X0488650Y0171921D01*
X0483246Y0171921D01*
X0483246Y0177721D02*
X0483246Y0179523D01*
X0483246Y0178622D02*
X0488650Y0178622D01*
X0488650Y0177721D02*
X0488650Y0179523D01*
X0488650Y0181588D02*
X0483246Y0181588D01*
X0485948Y0182489D02*
X0488650Y0185191D01*
X0487749Y0187389D02*
X0488650Y0188289D01*
X0488650Y0190090D01*
X0487749Y0190991D01*
X0484147Y0190991D01*
X0483246Y0190090D01*
X0483246Y0188289D01*
X0484147Y0187389D01*
X0487749Y0187389D01*
X0483246Y0185191D02*
X0486849Y0181588D01*
X0488650Y0198989D02*
X0485047Y0202591D01*
X0484147Y0202591D01*
X0483246Y0201691D01*
X0483246Y0199890D01*
X0484147Y0198989D01*
X0488650Y0198989D02*
X0488650Y0202591D01*
X0487749Y0204789D02*
X0484147Y0208392D01*
X0487749Y0208392D01*
X0488650Y0207491D01*
X0488650Y0205690D01*
X0487749Y0204789D01*
X0484147Y0204789D01*
X0483246Y0205690D01*
X0483246Y0207491D01*
X0484147Y0208392D01*
X0485047Y0210589D02*
X0483246Y0212391D01*
X0488650Y0212391D01*
X0488650Y0214192D02*
X0488650Y0210589D01*
X0488650Y0216390D02*
X0487749Y0216390D01*
X0484147Y0219992D01*
X0483246Y0219992D01*
X0483246Y0216390D01*
X0485047Y0163923D02*
X0483246Y0162122D01*
X0485047Y0160321D01*
X0488650Y0160321D01*
X0488650Y0158123D02*
X0483246Y0158123D01*
X0483246Y0154521D02*
X0488650Y0154521D01*
X0485948Y0090454D02*
X0485948Y0086851D01*
D11*
X0446600Y0109100D03*
X0426600Y0109100D03*
X0416600Y0109100D03*
X0406600Y0109100D03*
X0396600Y0104100D03*
X0386600Y0104100D03*
X0376600Y0109100D03*
X0376600Y0116600D03*
X0366600Y0129100D03*
X0349100Y0109100D03*
X0329100Y0109100D03*
X0319100Y0109100D03*
X0309100Y0109100D03*
X0299100Y0104100D03*
X0289100Y0104100D03*
X0279100Y0109100D03*
X0279100Y0116600D03*
X0269100Y0129100D03*
X0249100Y0109100D03*
X0249100Y0099100D03*
X0254100Y0089100D03*
X0254100Y0079100D03*
X0254100Y0064100D03*
X0254100Y0054100D03*
X0249100Y0044100D03*
X0249100Y0034100D03*
X0229100Y0034100D03*
X0229100Y0044100D03*
X0224100Y0054100D03*
X0224100Y0064100D03*
X0224100Y0079100D03*
X0224100Y0089100D03*
X0229100Y0099100D03*
X0229100Y0109100D03*
X0224100Y0131600D03*
X0224100Y0151600D03*
X0269100Y0159100D03*
X0279100Y0169100D03*
X0284100Y0179100D03*
X0284100Y0189100D03*
X0304100Y0189100D03*
X0319100Y0189100D03*
X0304100Y0179100D03*
X0309100Y0169100D03*
X0319100Y0169100D03*
X0319100Y0159100D03*
X0329100Y0159100D03*
X0366600Y0159100D03*
X0376600Y0169100D03*
X0381600Y0179100D03*
X0381600Y0189100D03*
X0401600Y0189100D03*
X0401600Y0179100D03*
X0406600Y0169100D03*
X0416600Y0169100D03*
X0416600Y0159100D03*
X0426600Y0159100D03*
X0436600Y0154100D03*
X0436600Y0134100D03*
X0426600Y0129100D03*
X0416600Y0129100D03*
X0406600Y0116600D03*
X0396600Y0084100D03*
X0386600Y0084100D03*
X0376600Y0079100D03*
X0376600Y0071600D03*
X0386600Y0071600D03*
X0396600Y0066600D03*
X0406600Y0079100D03*
X0416600Y0079100D03*
X0396600Y0046600D03*
X0386600Y0041600D03*
X0376600Y0041600D03*
X0319100Y0079100D03*
X0309100Y0079100D03*
X0299100Y0084100D03*
X0289100Y0084100D03*
X0279100Y0079100D03*
X0279100Y0071600D03*
X0289100Y0071600D03*
X0299100Y0066600D03*
X0299100Y0046600D03*
X0289100Y0041600D03*
X0279100Y0041600D03*
X0189100Y0046600D03*
X0171600Y0046600D03*
X0154100Y0046600D03*
X0136600Y0046600D03*
X0111600Y0036600D03*
X0101600Y0036600D03*
X0091600Y0036600D03*
X0061600Y0036600D03*
X0136600Y0076600D03*
X0154100Y0076600D03*
X0171600Y0076600D03*
X0189100Y0076600D03*
X0156600Y0131600D03*
X0156600Y0151600D03*
X0139100Y0166600D03*
X0126600Y0166600D03*
X0159100Y0176600D03*
X0171600Y0176600D03*
X0171600Y0196600D03*
X0159100Y0196600D03*
X0139100Y0196600D03*
X0126600Y0196600D03*
X0096600Y0191600D03*
X0074100Y0181600D03*
X0074100Y0171600D03*
X0074100Y0161600D03*
X0074100Y0151600D03*
X0084100Y0151600D03*
X0094100Y0151600D03*
X0071600Y0129100D03*
X0084100Y0121600D03*
X0094100Y0121600D03*
X0061600Y0099100D03*
X0061600Y0089100D03*
X0031600Y0089100D03*
X0021600Y0089100D03*
X0031600Y0099100D03*
X0021600Y0109100D03*
X0029100Y0121600D03*
X0041600Y0121600D03*
X0051600Y0129100D03*
X0041600Y0151600D03*
X0029100Y0151600D03*
X0039100Y0171600D03*
X0029100Y0181600D03*
X0039100Y0191600D03*
X0059100Y0191600D03*
X0066600Y0191600D03*
X0059100Y0181600D03*
X0059100Y0171600D03*
X0309100Y0116600D03*
X0319100Y0129100D03*
X0329100Y0129100D03*
X0416600Y0189100D03*
X0409100Y0201600D03*
X0409100Y0211600D03*
X0439100Y0211600D03*
X0439100Y0201600D03*
X0451600Y0204100D03*
X0471600Y0204100D03*
X0431600Y0249100D03*
X0411600Y0249100D03*
D12*
X0411600Y0229100D03*
X0471600Y0186600D03*
X0434100Y0169100D03*
X0336600Y0169100D03*
X0329100Y0091600D03*
X0316600Y0046600D03*
X0414100Y0046600D03*
X0426600Y0091600D03*
D13*
X0446600Y0091600D03*
X0414100Y0066600D03*
X0349100Y0091600D03*
X0316600Y0066600D03*
X0336600Y0189100D03*
X0434100Y0189100D03*
X0451600Y0186600D03*
X0431600Y0229100D03*
D14*
X0061600Y0111600D03*
X0031600Y0111600D03*
D15*
X0031600Y0081700D02*
X0031600Y0076500D01*
X0021600Y0076500D02*
X0021600Y0081700D01*
X0041600Y0081700D02*
X0041600Y0076500D01*
X0051600Y0076500D02*
X0051600Y0081700D01*
X0061600Y0081700D02*
X0061600Y0076500D01*
X0071600Y0076500D02*
X0071600Y0081700D01*
X0081600Y0081700D02*
X0081600Y0076500D01*
X0111500Y0091600D02*
X0116700Y0091600D01*
X0116700Y0101600D02*
X0111500Y0101600D01*
X0111500Y0111600D02*
X0116700Y0111600D01*
X0116700Y0121600D02*
X0111500Y0121600D01*
X0111500Y0131600D02*
X0116700Y0131600D01*
X0116700Y0141600D02*
X0111500Y0141600D01*
X0111500Y0151600D02*
X0116700Y0151600D01*
X0141500Y0151600D02*
X0146700Y0151600D01*
X0146700Y0141600D02*
X0141500Y0141600D01*
X0141500Y0131600D02*
X0146700Y0131600D01*
X0146700Y0121600D02*
X0141500Y0121600D01*
X0141500Y0111600D02*
X0146700Y0111600D01*
X0146700Y0101600D02*
X0141500Y0101600D01*
X0141500Y0091600D02*
X0146700Y0091600D01*
X0179000Y0091600D02*
X0184200Y0091600D01*
X0184200Y0101600D02*
X0179000Y0101600D01*
X0179000Y0111600D02*
X0184200Y0111600D01*
X0184200Y0121600D02*
X0179000Y0121600D01*
X0179000Y0131600D02*
X0184200Y0131600D01*
X0184200Y0141600D02*
X0179000Y0141600D01*
X0179000Y0151600D02*
X0184200Y0151600D01*
X0181600Y0164000D02*
X0181600Y0169200D01*
X0149100Y0169200D02*
X0149100Y0164000D01*
X0149100Y0194000D02*
X0149100Y0199200D01*
X0181600Y0199200D02*
X0181600Y0194000D01*
X0239000Y0196600D02*
X0244200Y0196600D01*
X0269000Y0196600D02*
X0274200Y0196600D01*
X0276500Y0159100D02*
X0281700Y0159100D01*
X0281700Y0149100D02*
X0276500Y0149100D01*
X0276500Y0139100D02*
X0281700Y0139100D01*
X0281700Y0129100D02*
X0276500Y0129100D01*
X0306500Y0129100D02*
X0311700Y0129100D01*
X0311700Y0139100D02*
X0306500Y0139100D01*
X0306500Y0149100D02*
X0311700Y0149100D01*
X0311700Y0159100D02*
X0306500Y0159100D01*
X0341500Y0196600D02*
X0346700Y0196600D01*
X0371500Y0196600D02*
X0376700Y0196600D01*
X0399100Y0216500D02*
X0399100Y0221700D01*
X0399100Y0246500D02*
X0399100Y0251700D01*
X0404000Y0159100D02*
X0409200Y0159100D01*
X0409200Y0149100D02*
X0404000Y0149100D01*
X0404000Y0139100D02*
X0409200Y0139100D01*
X0409200Y0129100D02*
X0404000Y0129100D01*
X0379200Y0129100D02*
X0374000Y0129100D01*
X0374000Y0139100D02*
X0379200Y0139100D01*
X0379200Y0149100D02*
X0374000Y0149100D01*
X0374000Y0159100D02*
X0379200Y0159100D01*
X0214200Y0151600D02*
X0209000Y0151600D01*
X0209000Y0141600D02*
X0214200Y0141600D01*
X0214200Y0131600D02*
X0209000Y0131600D01*
X0209000Y0121600D02*
X0214200Y0121600D01*
X0214200Y0111600D02*
X0209000Y0111600D01*
X0209000Y0101600D02*
X0214200Y0101600D01*
X0214200Y0091600D02*
X0209000Y0091600D01*
X0279100Y0031700D02*
X0279100Y0026500D01*
X0289100Y0026500D02*
X0289100Y0031700D01*
X0299100Y0031700D02*
X0299100Y0026500D01*
X0376600Y0026500D02*
X0376600Y0031700D01*
X0386600Y0031700D02*
X0386600Y0026500D01*
X0396600Y0026500D02*
X0396600Y0031700D01*
X0081600Y0046500D02*
X0081600Y0051700D01*
X0071600Y0051700D02*
X0071600Y0046500D01*
X0061600Y0046500D02*
X0061600Y0051700D01*
X0051600Y0051700D02*
X0051600Y0046500D01*
X0041600Y0046500D02*
X0041600Y0051700D01*
X0031600Y0051700D02*
X0031600Y0046500D01*
X0021600Y0046500D02*
X0021600Y0051700D01*
X0056500Y0141600D02*
X0061700Y0141600D01*
X0061700Y0151600D02*
X0056500Y0151600D01*
X0056500Y0161600D02*
X0061700Y0161600D01*
X0024200Y0156600D02*
X0019000Y0156600D01*
X0019000Y0166600D02*
X0024200Y0166600D01*
X0024200Y0176600D02*
X0019000Y0176600D01*
D16*
X0024100Y0241600D03*
X0024100Y0024100D03*
X0481600Y0024100D03*
X0481600Y0241600D03*
D17*
X0457100Y0244100D02*
X0451100Y0244100D01*
X0451100Y0234100D02*
X0457100Y0234100D01*
X0457100Y0224100D02*
X0451100Y0224100D01*
X0092100Y0181600D02*
X0086100Y0181600D01*
X0086100Y0171600D02*
X0092100Y0171600D01*
X0092100Y0161600D02*
X0086100Y0161600D01*
D18*
X0357702Y0227300D02*
X0357702Y0235900D01*
X0372300Y0243411D02*
X0380900Y0243411D01*
X0380900Y0219789D02*
X0372300Y0219789D01*
D19*
X0154100Y0211600D03*
X0144100Y0211600D03*
X0074100Y0211600D03*
X0064100Y0211600D03*
D20*
X0209800Y0238500D03*
X0228300Y0251300D03*
X0259800Y0238500D03*
X0278300Y0251300D03*
X0309800Y0238500D03*
X0328300Y0251300D03*
X0311900Y0209000D03*
X0261900Y0209000D03*
X0211900Y0209000D03*
D21*
X0238500Y0225900D03*
X0248400Y0220400D03*
X0288500Y0225900D03*
X0298400Y0220400D03*
X0338500Y0225900D03*
X0348400Y0220400D03*
D22*
X0466600Y0169100D03*
X0416600Y0124100D03*
X0409100Y0091600D03*
X0361600Y0091600D03*
X0319100Y0124100D03*
X0204100Y0116600D03*
X0196600Y0116600D03*
X0196600Y0096600D03*
X0204100Y0086600D03*
X0229100Y0019100D03*
X0081600Y0019100D03*
X0066600Y0064100D03*
X0061600Y0069100D03*
X0041600Y0069100D03*
X0031600Y0064100D03*
X0046600Y0089100D03*
X0046600Y0121600D03*
X0106600Y0166600D03*
X0139100Y0159100D03*
X0159100Y0159100D03*
X0189100Y0159100D03*
X0466600Y0059100D03*
D23*
X0006200Y0006200D02*
X0006200Y0260701D01*
X0499421Y0260701D01*
X0499421Y0006200D01*
X0006200Y0006200D01*
X0006200Y0006394D02*
X0499421Y0006394D01*
X0499421Y0007593D02*
X0006200Y0007593D01*
X0006200Y0008791D02*
X0499421Y0008791D01*
X0499421Y0009990D02*
X0006200Y0009990D01*
X0006200Y0011188D02*
X0499421Y0011188D01*
X0499421Y0012387D02*
X0006200Y0012387D01*
X0006200Y0013585D02*
X0499421Y0013585D01*
X0499421Y0014784D02*
X0232562Y0014784D01*
X0231378Y0013600D02*
X0226822Y0013600D01*
X0225122Y0015300D01*
X0085578Y0015300D01*
X0083878Y0013600D01*
X0079322Y0013600D01*
X0076100Y0016822D01*
X0076100Y0021378D01*
X0079322Y0024600D01*
X0083878Y0024600D01*
X0085578Y0022900D01*
X0225122Y0022900D01*
X0226822Y0024600D01*
X0231378Y0024600D01*
X0234600Y0021378D01*
X0234600Y0016822D01*
X0231378Y0013600D01*
X0233760Y0015982D02*
X0499421Y0015982D01*
X0499421Y0017181D02*
X0234600Y0017181D01*
X0234600Y0018379D02*
X0499421Y0018379D01*
X0499421Y0019578D02*
X0234600Y0019578D01*
X0234600Y0020776D02*
X0499421Y0020776D01*
X0499421Y0021975D02*
X0389994Y0021975D01*
X0389772Y0021753D02*
X0391347Y0023328D01*
X0392200Y0025386D01*
X0392200Y0032814D01*
X0391347Y0034872D01*
X0389772Y0036447D01*
X0389486Y0036566D01*
X0392200Y0039280D01*
X0392200Y0043080D01*
X0394280Y0041000D01*
X0398920Y0041000D01*
X0402200Y0044280D01*
X0402200Y0048920D01*
X0398920Y0052200D01*
X0394280Y0052200D01*
X0391000Y0048920D01*
X0391000Y0045120D01*
X0388920Y0047200D01*
X0384280Y0047200D01*
X0381600Y0044520D01*
X0378920Y0047200D01*
X0374280Y0047200D01*
X0371000Y0043920D01*
X0371000Y0039280D01*
X0373714Y0036566D01*
X0373428Y0036447D01*
X0371853Y0034872D01*
X0371000Y0032814D01*
X0371000Y0025386D01*
X0371853Y0023328D01*
X0373428Y0021753D01*
X0375486Y0020900D01*
X0377714Y0020900D01*
X0379772Y0021753D01*
X0381347Y0023328D01*
X0381600Y0023938D01*
X0381853Y0023328D01*
X0383428Y0021753D01*
X0385486Y0020900D01*
X0387714Y0020900D01*
X0389772Y0021753D01*
X0391193Y0023173D02*
X0499421Y0023173D01*
X0499421Y0024372D02*
X0391780Y0024372D01*
X0392200Y0025570D02*
X0499421Y0025570D01*
X0499421Y0026769D02*
X0392200Y0026769D01*
X0392200Y0027967D02*
X0499421Y0027967D01*
X0499421Y0029166D02*
X0392200Y0029166D01*
X0392200Y0030364D02*
X0499421Y0030364D01*
X0499421Y0031563D02*
X0392200Y0031563D01*
X0392200Y0032761D02*
X0499421Y0032761D01*
X0499421Y0033960D02*
X0391725Y0033960D01*
X0391061Y0035158D02*
X0499421Y0035158D01*
X0499421Y0036357D02*
X0389863Y0036357D01*
X0390475Y0037555D02*
X0499421Y0037555D01*
X0499421Y0038754D02*
X0391673Y0038754D01*
X0392200Y0039952D02*
X0412510Y0039952D01*
X0412757Y0039850D02*
X0410276Y0040878D01*
X0408378Y0042776D01*
X0407350Y0045257D01*
X0407350Y0047943D01*
X0408378Y0050424D01*
X0410276Y0052322D01*
X0412757Y0053350D01*
X0415443Y0053350D01*
X0417924Y0052322D01*
X0419822Y0050424D01*
X0420850Y0047943D01*
X0420850Y0045257D01*
X0419822Y0042776D01*
X0417924Y0040878D01*
X0415443Y0039850D01*
X0412757Y0039850D01*
X0415690Y0039952D02*
X0499421Y0039952D01*
X0499421Y0041151D02*
X0418197Y0041151D01*
X0419395Y0042349D02*
X0499421Y0042349D01*
X0499421Y0043548D02*
X0420142Y0043548D01*
X0420638Y0044746D02*
X0499421Y0044746D01*
X0499421Y0045945D02*
X0420850Y0045945D01*
X0420850Y0047143D02*
X0499421Y0047143D01*
X0499421Y0048342D02*
X0420685Y0048342D01*
X0420188Y0049540D02*
X0481777Y0049540D01*
X0482178Y0049140D02*
X0482193Y0049125D01*
X0482707Y0048912D01*
X0483461Y0048600D01*
X0485734Y0048600D01*
X0486398Y0048875D01*
X0487063Y0048600D01*
X0488436Y0048600D01*
X0489704Y0049125D01*
X0491575Y0050996D01*
X0492100Y0052264D01*
X0492100Y0055438D01*
X0491788Y0056191D01*
X0491743Y0056301D01*
X0492100Y0057164D01*
X0492100Y0061238D01*
X0491797Y0061971D01*
X0491743Y0062101D01*
X0492100Y0062964D01*
X0492100Y0064337D01*
X0491638Y0065452D01*
X0492100Y0066567D01*
X0492100Y0067939D01*
X0491575Y0069207D01*
X0490604Y0070178D01*
X0489336Y0070703D01*
X0487964Y0070703D01*
X0487299Y0070428D01*
X0486634Y0070703D01*
X0483461Y0070703D01*
X0482193Y0070178D01*
X0481222Y0069207D01*
X0480321Y0068307D01*
X0479796Y0067039D01*
X0479796Y0062964D01*
X0480154Y0062101D01*
X0479796Y0061238D01*
X0479796Y0057164D01*
X0480154Y0056301D01*
X0479796Y0055438D01*
X0479796Y0052264D01*
X0480238Y0051199D01*
X0480321Y0050996D01*
X0481271Y0050046D01*
X0481292Y0050026D01*
X0482178Y0049140D01*
X0482193Y0049125D02*
X0482193Y0049125D01*
X0481292Y0050026D02*
X0481292Y0050026D01*
X0480579Y0050739D02*
X0419507Y0050739D01*
X0418308Y0051937D02*
X0479932Y0051937D01*
X0480321Y0050996D02*
X0480321Y0050996D01*
X0480321Y0050996D01*
X0479796Y0053136D02*
X0415959Y0053136D01*
X0412241Y0053136D02*
X0318459Y0053136D01*
X0317943Y0053350D02*
X0315257Y0053350D01*
X0312776Y0052322D01*
X0310878Y0050424D01*
X0309850Y0047943D01*
X0309850Y0045257D01*
X0310878Y0042776D01*
X0312776Y0040878D01*
X0315257Y0039850D01*
X0317943Y0039850D01*
X0320424Y0040878D01*
X0322322Y0042776D01*
X0323350Y0045257D01*
X0323350Y0047943D01*
X0322322Y0050424D01*
X0320424Y0052322D01*
X0317943Y0053350D01*
X0320808Y0051937D02*
X0394018Y0051937D01*
X0392819Y0050739D02*
X0322007Y0050739D01*
X0322688Y0049540D02*
X0391621Y0049540D01*
X0391000Y0048342D02*
X0323185Y0048342D01*
X0323350Y0047143D02*
X0374224Y0047143D01*
X0373025Y0045945D02*
X0323350Y0045945D01*
X0323138Y0044746D02*
X0371827Y0044746D01*
X0371000Y0043548D02*
X0322642Y0043548D01*
X0321895Y0042349D02*
X0371000Y0042349D01*
X0371000Y0041151D02*
X0320697Y0041151D01*
X0318190Y0039952D02*
X0371000Y0039952D01*
X0371527Y0038754D02*
X0294173Y0038754D01*
X0294700Y0039280D02*
X0294700Y0043080D01*
X0296780Y0041000D01*
X0301420Y0041000D01*
X0304700Y0044280D01*
X0304700Y0048920D01*
X0301420Y0052200D01*
X0296780Y0052200D01*
X0293500Y0048920D01*
X0293500Y0045120D01*
X0291420Y0047200D01*
X0286780Y0047200D01*
X0284100Y0044520D01*
X0281420Y0047200D01*
X0276780Y0047200D01*
X0273500Y0043920D01*
X0273500Y0039280D01*
X0276780Y0036000D01*
X0281420Y0036000D01*
X0284100Y0038680D01*
X0286214Y0036566D01*
X0285928Y0036447D01*
X0284353Y0034872D01*
X0283500Y0032814D01*
X0283500Y0025386D01*
X0284353Y0023328D01*
X0285928Y0021753D01*
X0287986Y0020900D01*
X0290214Y0020900D01*
X0292272Y0021753D01*
X0293847Y0023328D01*
X0294100Y0023938D01*
X0294353Y0023328D01*
X0295928Y0021753D01*
X0297986Y0020900D01*
X0300214Y0020900D01*
X0302272Y0021753D01*
X0303847Y0023328D01*
X0304700Y0025386D01*
X0304700Y0032814D01*
X0303847Y0034872D01*
X0302272Y0036447D01*
X0300214Y0037300D01*
X0297986Y0037300D01*
X0295928Y0036447D01*
X0294353Y0034872D01*
X0294100Y0034262D01*
X0293847Y0034872D01*
X0292272Y0036447D01*
X0291986Y0036566D01*
X0294700Y0039280D01*
X0294700Y0039952D02*
X0315010Y0039952D01*
X0312503Y0041151D02*
X0301570Y0041151D01*
X0302769Y0042349D02*
X0311305Y0042349D01*
X0310558Y0043548D02*
X0303967Y0043548D01*
X0304700Y0044746D02*
X0310062Y0044746D01*
X0309850Y0045945D02*
X0304700Y0045945D01*
X0304700Y0047143D02*
X0309850Y0047143D01*
X0310015Y0048342D02*
X0304700Y0048342D01*
X0304079Y0049540D02*
X0310512Y0049540D01*
X0311193Y0050739D02*
X0302881Y0050739D01*
X0301682Y0051937D02*
X0312392Y0051937D01*
X0314741Y0053136D02*
X0259700Y0053136D01*
X0259700Y0054334D02*
X0463587Y0054334D01*
X0464322Y0053600D02*
X0468878Y0053600D01*
X0472100Y0056822D01*
X0472100Y0061378D01*
X0470400Y0063078D01*
X0470400Y0165122D01*
X0472100Y0166822D01*
X0472100Y0171378D01*
X0468878Y0174600D01*
X0464322Y0174600D01*
X0461100Y0171378D01*
X0461100Y0166822D01*
X0462800Y0165122D01*
X0462800Y0063078D01*
X0461100Y0061378D01*
X0461100Y0056822D01*
X0464322Y0053600D01*
X0462389Y0055533D02*
X0259700Y0055533D01*
X0259700Y0056420D02*
X0257020Y0059100D01*
X0259700Y0061780D01*
X0259700Y0066420D01*
X0256420Y0069700D01*
X0251780Y0069700D01*
X0248500Y0066420D01*
X0248500Y0061780D01*
X0251180Y0059100D01*
X0248500Y0056420D01*
X0248500Y0051780D01*
X0250580Y0049700D01*
X0246780Y0049700D01*
X0243500Y0046420D01*
X0243500Y0041780D01*
X0246180Y0039100D01*
X0243500Y0036420D01*
X0243500Y0031780D01*
X0246780Y0028500D01*
X0251420Y0028500D01*
X0254700Y0031780D01*
X0254700Y0036420D01*
X0252020Y0039100D01*
X0254700Y0041780D01*
X0254700Y0046420D01*
X0252620Y0048500D01*
X0256420Y0048500D01*
X0259700Y0051780D01*
X0259700Y0056420D01*
X0259388Y0056732D02*
X0461190Y0056732D01*
X0461100Y0057930D02*
X0258190Y0057930D01*
X0257048Y0059129D02*
X0461100Y0059129D01*
X0461100Y0060327D02*
X0258247Y0060327D01*
X0259445Y0061526D02*
X0461247Y0061526D01*
X0462446Y0062724D02*
X0259700Y0062724D01*
X0259700Y0063923D02*
X0462800Y0063923D01*
X0462800Y0065121D02*
X0259700Y0065121D01*
X0259700Y0066320D02*
X0276461Y0066320D01*
X0276780Y0066000D02*
X0281420Y0066000D01*
X0284100Y0068680D01*
X0286780Y0066000D01*
X0291420Y0066000D01*
X0294700Y0069280D01*
X0294700Y0073920D01*
X0291420Y0077200D01*
X0286780Y0077200D01*
X0284100Y0074520D01*
X0283270Y0075350D01*
X0284700Y0076780D01*
X0284700Y0080580D01*
X0286780Y0078500D01*
X0291420Y0078500D01*
X0294100Y0081180D01*
X0296780Y0078500D01*
X0301420Y0078500D01*
X0303500Y0080580D01*
X0303500Y0076780D01*
X0306780Y0073500D01*
X0311420Y0073500D01*
X0314100Y0076180D01*
X0316780Y0073500D01*
X0321420Y0073500D01*
X0324700Y0076780D01*
X0324700Y0081420D01*
X0321420Y0084700D01*
X0316780Y0084700D01*
X0314100Y0082020D01*
X0311420Y0084700D01*
X0306780Y0084700D01*
X0304700Y0082620D01*
X0304700Y0086420D01*
X0301420Y0089700D01*
X0296780Y0089700D01*
X0294100Y0087020D01*
X0291420Y0089700D01*
X0286780Y0089700D01*
X0283500Y0086420D01*
X0283500Y0082620D01*
X0281420Y0084700D01*
X0276780Y0084700D01*
X0273500Y0081420D01*
X0273500Y0076780D01*
X0274930Y0075350D01*
X0273500Y0073920D01*
X0273500Y0069280D01*
X0276780Y0066000D01*
X0275262Y0067518D02*
X0258601Y0067518D01*
X0257403Y0068717D02*
X0274064Y0068717D01*
X0273500Y0069915D02*
X0067100Y0069915D01*
X0067100Y0069600D02*
X0067100Y0071378D01*
X0065749Y0072729D01*
X0066347Y0073328D01*
X0066600Y0073938D01*
X0066853Y0073328D01*
X0068428Y0071753D01*
X0070486Y0070900D01*
X0072714Y0070900D01*
X0074772Y0071753D01*
X0076347Y0073328D01*
X0076600Y0073938D01*
X0076853Y0073328D01*
X0078428Y0071753D01*
X0080486Y0070900D01*
X0082714Y0070900D01*
X0084772Y0071753D01*
X0086347Y0073328D01*
X0087200Y0075386D01*
X0087200Y0082814D01*
X0086347Y0084872D01*
X0084772Y0086447D01*
X0082714Y0087300D01*
X0080486Y0087300D01*
X0078428Y0086447D01*
X0076853Y0084872D01*
X0076600Y0084262D01*
X0076347Y0084872D01*
X0074772Y0086447D01*
X0072714Y0087300D01*
X0070486Y0087300D01*
X0068428Y0086447D01*
X0066853Y0084872D01*
X0066600Y0084262D01*
X0066347Y0084872D01*
X0065820Y0085400D01*
X0067200Y0086780D01*
X0067200Y0091420D01*
X0064520Y0094100D01*
X0067200Y0096780D01*
X0067200Y0101420D01*
X0063920Y0104700D01*
X0059280Y0104700D01*
X0056000Y0101420D01*
X0056000Y0096780D01*
X0058680Y0094100D01*
X0056000Y0091420D01*
X0056000Y0086780D01*
X0057380Y0085400D01*
X0056853Y0084872D01*
X0056600Y0084262D01*
X0056347Y0084872D01*
X0054772Y0086447D01*
X0052714Y0087300D01*
X0052100Y0087300D01*
X0052100Y0091378D01*
X0050200Y0093278D01*
X0050200Y0117422D01*
X0052100Y0119322D01*
X0052100Y0123878D01*
X0048878Y0127100D01*
X0044322Y0127100D01*
X0044171Y0126949D01*
X0043920Y0127200D01*
X0039280Y0127200D01*
X0036000Y0123920D01*
X0036000Y0119280D01*
X0039280Y0116000D01*
X0043000Y0116000D01*
X0043000Y0093278D01*
X0041100Y0091378D01*
X0041100Y0087300D01*
X0040486Y0087300D01*
X0038428Y0086447D01*
X0036853Y0084872D01*
X0036600Y0084262D01*
X0036347Y0084872D01*
X0035820Y0085400D01*
X0037200Y0086780D01*
X0037200Y0091420D01*
X0033920Y0094700D01*
X0029280Y0094700D01*
X0026600Y0092020D01*
X0023920Y0094700D01*
X0019280Y0094700D01*
X0016000Y0091420D01*
X0016000Y0086780D01*
X0017380Y0085400D01*
X0016853Y0084872D01*
X0016000Y0082814D01*
X0016000Y0075386D01*
X0016853Y0073328D01*
X0018428Y0071753D01*
X0020486Y0070900D01*
X0022714Y0070900D01*
X0024772Y0071753D01*
X0026347Y0073328D01*
X0026600Y0073938D01*
X0026853Y0073328D01*
X0028428Y0071753D01*
X0030486Y0070900D01*
X0032714Y0070900D01*
X0034772Y0071753D01*
X0036347Y0073328D01*
X0036600Y0073938D01*
X0036853Y0073328D01*
X0037451Y0072729D01*
X0036100Y0071378D01*
X0036100Y0067700D01*
X0035778Y0067700D01*
X0033878Y0069600D01*
X0029322Y0069600D01*
X0026100Y0066378D01*
X0026100Y0061822D01*
X0029322Y0058600D01*
X0033878Y0058600D01*
X0035778Y0060500D01*
X0062422Y0060500D01*
X0064322Y0058600D01*
X0068878Y0058600D01*
X0072100Y0061822D01*
X0072100Y0066378D01*
X0068878Y0069600D01*
X0067100Y0069600D01*
X0067100Y0071114D02*
X0069970Y0071114D01*
X0069762Y0068717D02*
X0220797Y0068717D01*
X0221780Y0069700D02*
X0218500Y0066420D01*
X0218500Y0061780D01*
X0221180Y0059100D01*
X0218500Y0056420D01*
X0218500Y0051780D01*
X0221780Y0048500D01*
X0226420Y0048500D01*
X0229700Y0051780D01*
X0229700Y0056420D01*
X0227020Y0059100D01*
X0229700Y0061780D01*
X0229700Y0066420D01*
X0226420Y0069700D01*
X0221780Y0069700D01*
X0219599Y0067518D02*
X0070960Y0067518D01*
X0072100Y0066320D02*
X0218500Y0066320D01*
X0218500Y0065121D02*
X0072100Y0065121D01*
X0072100Y0063923D02*
X0218500Y0063923D01*
X0218500Y0062724D02*
X0072100Y0062724D01*
X0071804Y0061526D02*
X0218755Y0061526D01*
X0219953Y0060327D02*
X0070605Y0060327D01*
X0069407Y0059129D02*
X0221152Y0059129D01*
X0220010Y0057930D02*
X0006200Y0057930D01*
X0006200Y0056732D02*
X0019114Y0056732D01*
X0018428Y0056447D02*
X0016853Y0054872D01*
X0016000Y0052814D01*
X0016000Y0045386D01*
X0016853Y0043328D01*
X0018428Y0041753D01*
X0020486Y0040900D01*
X0022714Y0040900D01*
X0024772Y0041753D01*
X0026347Y0043328D01*
X0026600Y0043938D01*
X0026853Y0043328D01*
X0028428Y0041753D01*
X0030486Y0040900D01*
X0032714Y0040900D01*
X0034772Y0041753D01*
X0036347Y0043328D01*
X0036600Y0043938D01*
X0036853Y0043328D01*
X0038428Y0041753D01*
X0040486Y0040900D01*
X0042714Y0040900D01*
X0044772Y0041753D01*
X0046347Y0043328D01*
X0046600Y0043938D01*
X0046853Y0043328D01*
X0048428Y0041753D01*
X0050486Y0040900D01*
X0052714Y0040900D01*
X0054772Y0041753D01*
X0056347Y0043328D01*
X0056600Y0043938D01*
X0056853Y0043328D01*
X0058428Y0041753D01*
X0058714Y0041634D01*
X0056000Y0038920D01*
X0056000Y0034280D01*
X0059280Y0031000D01*
X0063920Y0031000D01*
X0067200Y0034280D01*
X0067200Y0038920D01*
X0064486Y0041634D01*
X0064772Y0041753D01*
X0066347Y0043328D01*
X0066600Y0043938D01*
X0066853Y0043328D01*
X0068428Y0041753D01*
X0070486Y0040900D01*
X0072714Y0040900D01*
X0074772Y0041753D01*
X0076347Y0043328D01*
X0077200Y0045386D01*
X0077200Y0052814D01*
X0076347Y0054872D01*
X0074772Y0056447D01*
X0072714Y0057300D01*
X0070486Y0057300D01*
X0068428Y0056447D01*
X0066853Y0054872D01*
X0066600Y0054262D01*
X0066347Y0054872D01*
X0064772Y0056447D01*
X0062714Y0057300D01*
X0060486Y0057300D01*
X0058428Y0056447D01*
X0056853Y0054872D01*
X0056600Y0054262D01*
X0056347Y0054872D01*
X0054772Y0056447D01*
X0052714Y0057300D01*
X0050486Y0057300D01*
X0048428Y0056447D01*
X0046853Y0054872D01*
X0046600Y0054262D01*
X0046347Y0054872D01*
X0044772Y0056447D01*
X0042714Y0057300D01*
X0040486Y0057300D01*
X0038428Y0056447D01*
X0036853Y0054872D01*
X0036600Y0054262D01*
X0036347Y0054872D01*
X0034772Y0056447D01*
X0032714Y0057300D01*
X0030486Y0057300D01*
X0028428Y0056447D01*
X0026853Y0054872D01*
X0026600Y0054262D01*
X0026347Y0054872D01*
X0024772Y0056447D01*
X0022714Y0057300D01*
X0020486Y0057300D01*
X0018428Y0056447D01*
X0017513Y0055533D02*
X0006200Y0055533D01*
X0006200Y0054334D02*
X0016630Y0054334D01*
X0016133Y0053136D02*
X0006200Y0053136D01*
X0006200Y0051937D02*
X0016000Y0051937D01*
X0016000Y0050739D02*
X0006200Y0050739D01*
X0006200Y0049540D02*
X0016000Y0049540D01*
X0016000Y0048342D02*
X0006200Y0048342D01*
X0006200Y0047143D02*
X0016000Y0047143D01*
X0016000Y0045945D02*
X0006200Y0045945D01*
X0006200Y0044746D02*
X0016265Y0044746D01*
X0016761Y0043548D02*
X0006200Y0043548D01*
X0006200Y0042349D02*
X0017831Y0042349D01*
X0019880Y0041151D02*
X0006200Y0041151D01*
X0006200Y0039952D02*
X0057033Y0039952D01*
X0056000Y0038754D02*
X0006200Y0038754D01*
X0006200Y0037555D02*
X0056000Y0037555D01*
X0056000Y0036357D02*
X0006200Y0036357D01*
X0006200Y0035158D02*
X0056000Y0035158D01*
X0056321Y0033960D02*
X0006200Y0033960D01*
X0006200Y0032761D02*
X0057519Y0032761D01*
X0058718Y0031563D02*
X0006200Y0031563D01*
X0006200Y0030364D02*
X0244916Y0030364D01*
X0246115Y0029166D02*
X0006200Y0029166D01*
X0006200Y0027967D02*
X0283500Y0027967D01*
X0283500Y0026769D02*
X0006200Y0026769D01*
X0006200Y0025570D02*
X0283500Y0025570D01*
X0283920Y0024372D02*
X0231606Y0024372D01*
X0232805Y0023173D02*
X0284507Y0023173D01*
X0285706Y0021975D02*
X0234003Y0021975D01*
X0226594Y0024372D02*
X0084106Y0024372D01*
X0085305Y0023173D02*
X0225395Y0023173D01*
X0225638Y0014784D02*
X0085062Y0014784D01*
X0078138Y0014784D02*
X0006200Y0014784D01*
X0006200Y0015982D02*
X0076940Y0015982D01*
X0076100Y0017181D02*
X0006200Y0017181D01*
X0006200Y0018379D02*
X0076100Y0018379D01*
X0076100Y0019578D02*
X0006200Y0019578D01*
X0006200Y0020776D02*
X0076100Y0020776D01*
X0076697Y0021975D02*
X0006200Y0021975D01*
X0006200Y0023173D02*
X0077895Y0023173D01*
X0079094Y0024372D02*
X0006200Y0024372D01*
X0023320Y0041151D02*
X0029880Y0041151D01*
X0027831Y0042349D02*
X0025369Y0042349D01*
X0026439Y0043548D02*
X0026761Y0043548D01*
X0033320Y0041151D02*
X0039880Y0041151D01*
X0037831Y0042349D02*
X0035369Y0042349D01*
X0036439Y0043548D02*
X0036761Y0043548D01*
X0043320Y0041151D02*
X0049880Y0041151D01*
X0047831Y0042349D02*
X0045369Y0042349D01*
X0046439Y0043548D02*
X0046761Y0043548D01*
X0053320Y0041151D02*
X0058231Y0041151D01*
X0057831Y0042349D02*
X0055369Y0042349D01*
X0056439Y0043548D02*
X0056761Y0043548D01*
X0064969Y0041151D02*
X0069880Y0041151D01*
X0067831Y0042349D02*
X0065369Y0042349D01*
X0066439Y0043548D02*
X0066761Y0043548D01*
X0066167Y0039952D02*
X0087033Y0039952D01*
X0086000Y0038920D02*
X0089280Y0042200D01*
X0093920Y0042200D01*
X0096600Y0039520D01*
X0099280Y0042200D01*
X0103920Y0042200D01*
X0107200Y0038920D01*
X0107200Y0034280D01*
X0103920Y0031000D01*
X0099280Y0031000D01*
X0096600Y0033680D01*
X0093920Y0031000D01*
X0089280Y0031000D01*
X0086000Y0034280D01*
X0086000Y0038920D01*
X0086000Y0038754D02*
X0067200Y0038754D01*
X0067200Y0037555D02*
X0086000Y0037555D01*
X0086000Y0036357D02*
X0067200Y0036357D01*
X0067200Y0035158D02*
X0086000Y0035158D01*
X0086321Y0033960D02*
X0066879Y0033960D01*
X0065681Y0032761D02*
X0087519Y0032761D01*
X0088718Y0031563D02*
X0064482Y0031563D01*
X0073320Y0041151D02*
X0088231Y0041151D01*
X0094969Y0041151D02*
X0098231Y0041151D01*
X0097033Y0039952D02*
X0096167Y0039952D01*
X0095681Y0032761D02*
X0097519Y0032761D01*
X0098718Y0031563D02*
X0094482Y0031563D01*
X0104482Y0031563D02*
X0243718Y0031563D01*
X0243500Y0032761D02*
X0105681Y0032761D01*
X0106879Y0033960D02*
X0243500Y0033960D01*
X0243500Y0035158D02*
X0107200Y0035158D01*
X0107200Y0036357D02*
X0243500Y0036357D01*
X0244636Y0037555D02*
X0107200Y0037555D01*
X0107200Y0038754D02*
X0245834Y0038754D01*
X0245328Y0039952D02*
X0106167Y0039952D01*
X0104969Y0041151D02*
X0134130Y0041151D01*
X0134280Y0041000D02*
X0138920Y0041000D01*
X0142200Y0044280D01*
X0142200Y0048920D01*
X0138920Y0052200D01*
X0134280Y0052200D01*
X0131000Y0048920D01*
X0131000Y0044280D01*
X0134280Y0041000D01*
X0132931Y0042349D02*
X0075369Y0042349D01*
X0076439Y0043548D02*
X0131733Y0043548D01*
X0131000Y0044746D02*
X0076935Y0044746D01*
X0077200Y0045945D02*
X0131000Y0045945D01*
X0131000Y0047143D02*
X0077200Y0047143D01*
X0077200Y0048342D02*
X0131000Y0048342D01*
X0131621Y0049540D02*
X0077200Y0049540D01*
X0077200Y0050739D02*
X0132819Y0050739D01*
X0134018Y0051937D02*
X0077200Y0051937D01*
X0077067Y0053136D02*
X0218500Y0053136D01*
X0218500Y0054334D02*
X0076570Y0054334D01*
X0075687Y0055533D02*
X0218500Y0055533D01*
X0218812Y0056732D02*
X0074086Y0056732D01*
X0069114Y0056732D02*
X0064086Y0056732D01*
X0065687Y0055533D02*
X0067513Y0055533D01*
X0066630Y0054334D02*
X0066570Y0054334D01*
X0063793Y0059129D02*
X0034407Y0059129D01*
X0035605Y0060327D02*
X0062595Y0060327D01*
X0059114Y0056732D02*
X0054086Y0056732D01*
X0055687Y0055533D02*
X0057513Y0055533D01*
X0056630Y0054334D02*
X0056570Y0054334D01*
X0049114Y0056732D02*
X0044086Y0056732D01*
X0045687Y0055533D02*
X0047513Y0055533D01*
X0046630Y0054334D02*
X0046570Y0054334D01*
X0039114Y0056732D02*
X0034086Y0056732D01*
X0035687Y0055533D02*
X0037513Y0055533D01*
X0036630Y0054334D02*
X0036570Y0054334D01*
X0029114Y0056732D02*
X0024086Y0056732D01*
X0025687Y0055533D02*
X0027513Y0055533D01*
X0026630Y0054334D02*
X0026570Y0054334D01*
X0028793Y0059129D02*
X0006200Y0059129D01*
X0006200Y0060327D02*
X0027595Y0060327D01*
X0026396Y0061526D02*
X0006200Y0061526D01*
X0006200Y0062724D02*
X0026100Y0062724D01*
X0026100Y0063923D02*
X0006200Y0063923D01*
X0006200Y0065121D02*
X0026100Y0065121D01*
X0026100Y0066320D02*
X0006200Y0066320D01*
X0006200Y0067518D02*
X0027240Y0067518D01*
X0028438Y0068717D02*
X0006200Y0068717D01*
X0006200Y0069915D02*
X0036100Y0069915D01*
X0036100Y0068717D02*
X0034762Y0068717D01*
X0036100Y0071114D02*
X0033230Y0071114D01*
X0035332Y0072312D02*
X0037034Y0072312D01*
X0036777Y0073511D02*
X0036423Y0073511D01*
X0041600Y0069100D02*
X0061600Y0069100D01*
X0066166Y0072312D02*
X0067868Y0072312D01*
X0066777Y0073511D02*
X0066423Y0073511D01*
X0073230Y0071114D02*
X0079970Y0071114D01*
X0077868Y0072312D02*
X0075332Y0072312D01*
X0076423Y0073511D02*
X0076777Y0073511D01*
X0083230Y0071114D02*
X0134167Y0071114D01*
X0134280Y0071000D02*
X0138920Y0071000D01*
X0142200Y0074280D01*
X0142200Y0078920D01*
X0138920Y0082200D01*
X0134280Y0082200D01*
X0131000Y0078920D01*
X0131000Y0074280D01*
X0134280Y0071000D01*
X0132968Y0072312D02*
X0085332Y0072312D01*
X0086423Y0073511D02*
X0131770Y0073511D01*
X0131000Y0074709D02*
X0086920Y0074709D01*
X0087200Y0075908D02*
X0131000Y0075908D01*
X0131000Y0077106D02*
X0087200Y0077106D01*
X0087200Y0078305D02*
X0131000Y0078305D01*
X0131584Y0079503D02*
X0087200Y0079503D01*
X0087200Y0080702D02*
X0132782Y0080702D01*
X0133981Y0081900D02*
X0087200Y0081900D01*
X0087082Y0083099D02*
X0199823Y0083099D01*
X0198625Y0084297D02*
X0086586Y0084297D01*
X0085724Y0085496D02*
X0198600Y0085496D01*
X0198600Y0084322D02*
X0201822Y0081100D01*
X0206378Y0081100D01*
X0209600Y0084322D01*
X0209600Y0086000D01*
X0215314Y0086000D01*
X0217372Y0086853D01*
X0218500Y0087980D01*
X0218500Y0086780D01*
X0221180Y0084100D01*
X0218500Y0081420D01*
X0218500Y0076780D01*
X0221780Y0073500D01*
X0226420Y0073500D01*
X0229700Y0076780D01*
X0229700Y0081420D01*
X0227020Y0084100D01*
X0229700Y0086780D01*
X0229700Y0091420D01*
X0226420Y0094700D01*
X0221780Y0094700D01*
X0219798Y0092718D01*
X0218947Y0094772D01*
X0217372Y0096347D01*
X0216762Y0096600D01*
X0217372Y0096853D01*
X0218947Y0098428D01*
X0219800Y0100486D01*
X0219800Y0102714D01*
X0218947Y0104772D01*
X0217372Y0106347D01*
X0216762Y0106600D01*
X0217372Y0106853D01*
X0218947Y0108428D01*
X0219800Y0110486D01*
X0219800Y0112714D01*
X0218947Y0114772D01*
X0217372Y0116347D01*
X0216762Y0116600D01*
X0217372Y0116853D01*
X0218947Y0118428D01*
X0219800Y0120486D01*
X0219800Y0122714D01*
X0218947Y0124772D01*
X0217372Y0126347D01*
X0216762Y0126600D01*
X0217372Y0126853D01*
X0218947Y0128428D01*
X0219800Y0130486D01*
X0219800Y0132714D01*
X0218947Y0134772D01*
X0217372Y0136347D01*
X0216762Y0136600D01*
X0217372Y0136853D01*
X0218947Y0138428D01*
X0219800Y0140486D01*
X0219800Y0142714D01*
X0218947Y0144772D01*
X0217372Y0146347D01*
X0216762Y0146600D01*
X0217372Y0146853D01*
X0218947Y0148428D01*
X0219066Y0148714D01*
X0221780Y0146000D01*
X0226420Y0146000D01*
X0229700Y0149280D01*
X0229700Y0153920D01*
X0226420Y0157200D01*
X0221780Y0157200D01*
X0219066Y0154486D01*
X0218947Y0154772D01*
X0217372Y0156347D01*
X0215314Y0157200D01*
X0207886Y0157200D01*
X0205828Y0156347D01*
X0204253Y0154772D01*
X0203400Y0152714D01*
X0203400Y0150486D01*
X0204253Y0148428D01*
X0205828Y0146853D01*
X0206438Y0146600D01*
X0205828Y0146347D01*
X0204253Y0144772D01*
X0203400Y0142714D01*
X0203400Y0140486D01*
X0204253Y0138428D01*
X0205828Y0136853D01*
X0206438Y0136600D01*
X0205828Y0136347D01*
X0204253Y0134772D01*
X0203400Y0132714D01*
X0203400Y0130486D01*
X0204253Y0128428D01*
X0205828Y0126853D01*
X0206438Y0126600D01*
X0205828Y0126347D01*
X0204253Y0124772D01*
X0203400Y0122714D01*
X0203400Y0122100D01*
X0201822Y0122100D01*
X0200350Y0120628D01*
X0198878Y0122100D01*
X0194322Y0122100D01*
X0191100Y0118878D01*
X0191100Y0114322D01*
X0193000Y0112422D01*
X0193000Y0100778D01*
X0191100Y0098878D01*
X0191100Y0094322D01*
X0194322Y0091100D01*
X0198878Y0091100D01*
X0200500Y0092722D01*
X0200500Y0090778D01*
X0198600Y0088878D01*
X0198600Y0084322D01*
X0198600Y0086694D02*
X0149490Y0086694D01*
X0149872Y0086853D02*
X0151447Y0088428D01*
X0152300Y0090486D01*
X0152300Y0092714D01*
X0151447Y0094772D01*
X0149872Y0096347D01*
X0149262Y0096600D01*
X0149872Y0096853D01*
X0151447Y0098428D01*
X0152300Y0100486D01*
X0152300Y0102714D01*
X0151447Y0104772D01*
X0149872Y0106347D01*
X0149262Y0106600D01*
X0149872Y0106853D01*
X0151447Y0108428D01*
X0152300Y0110486D01*
X0152300Y0112714D01*
X0151447Y0114772D01*
X0149872Y0116347D01*
X0149262Y0116600D01*
X0149872Y0116853D01*
X0151447Y0118428D01*
X0152300Y0120486D01*
X0152300Y0122714D01*
X0151447Y0124772D01*
X0149872Y0126347D01*
X0149262Y0126600D01*
X0149872Y0126853D01*
X0151447Y0128428D01*
X0152300Y0130486D01*
X0152300Y0132714D01*
X0151447Y0134772D01*
X0149872Y0136347D01*
X0149262Y0136600D01*
X0149872Y0136853D01*
X0151447Y0138428D01*
X0152300Y0140486D01*
X0152300Y0142714D01*
X0151447Y0144772D01*
X0149872Y0146347D01*
X0149262Y0146600D01*
X0149872Y0146853D01*
X0151447Y0148428D01*
X0151566Y0148714D01*
X0154280Y0146000D01*
X0158920Y0146000D01*
X0162200Y0149280D01*
X0162200Y0153920D01*
X0161949Y0154171D01*
X0163278Y0155500D01*
X0174980Y0155500D01*
X0174253Y0154772D01*
X0173400Y0152714D01*
X0173400Y0150486D01*
X0174253Y0148428D01*
X0175828Y0146853D01*
X0176438Y0146600D01*
X0175828Y0146347D01*
X0174253Y0144772D01*
X0173400Y0142714D01*
X0173400Y0140486D01*
X0174253Y0138428D01*
X0175828Y0136853D01*
X0176438Y0136600D01*
X0175828Y0136347D01*
X0174253Y0134772D01*
X0173400Y0132714D01*
X0173400Y0130486D01*
X0174253Y0128428D01*
X0175828Y0126853D01*
X0176438Y0126600D01*
X0175828Y0126347D01*
X0174253Y0124772D01*
X0173400Y0122714D01*
X0173400Y0120486D01*
X0174253Y0118428D01*
X0175828Y0116853D01*
X0176438Y0116600D01*
X0175828Y0116347D01*
X0174253Y0114772D01*
X0173400Y0112714D01*
X0173400Y0110486D01*
X0174253Y0108428D01*
X0175828Y0106853D01*
X0176438Y0106600D01*
X0175828Y0106347D01*
X0174253Y0104772D01*
X0173400Y0102714D01*
X0173400Y0100486D01*
X0174253Y0098428D01*
X0175828Y0096853D01*
X0177886Y0096000D01*
X0185314Y0096000D01*
X0187372Y0096853D01*
X0188947Y0098428D01*
X0189800Y0100486D01*
X0189800Y0102714D01*
X0188947Y0104772D01*
X0187372Y0106347D01*
X0186762Y0106600D01*
X0187372Y0106853D01*
X0188947Y0108428D01*
X0189800Y0110486D01*
X0189800Y0112714D01*
X0188947Y0114772D01*
X0187372Y0116347D01*
X0186762Y0116600D01*
X0187372Y0116853D01*
X0188947Y0118428D01*
X0189800Y0120486D01*
X0189800Y0122714D01*
X0188947Y0124772D01*
X0187372Y0126347D01*
X0186762Y0126600D01*
X0187372Y0126853D01*
X0188947Y0128428D01*
X0189800Y0130486D01*
X0189800Y0132714D01*
X0188947Y0134772D01*
X0187372Y0136347D01*
X0186762Y0136600D01*
X0187372Y0136853D01*
X0188947Y0138428D01*
X0189800Y0140486D01*
X0189800Y0142714D01*
X0188947Y0144772D01*
X0187372Y0146347D01*
X0186762Y0146600D01*
X0187372Y0146853D01*
X0188947Y0148428D01*
X0189800Y0150486D01*
X0189800Y0152714D01*
X0189433Y0153600D01*
X0191378Y0153600D01*
X0194600Y0156822D01*
X0194600Y0161378D01*
X0191378Y0164600D01*
X0187200Y0164600D01*
X0187200Y0170314D01*
X0186347Y0172372D01*
X0184772Y0173947D01*
X0182714Y0174800D01*
X0180486Y0174800D01*
X0178428Y0173947D01*
X0176853Y0172372D01*
X0176000Y0170314D01*
X0176000Y0162886D01*
X0176077Y0162700D01*
X0163278Y0162700D01*
X0161378Y0164600D01*
X0156822Y0164600D01*
X0154412Y0162190D01*
X0154700Y0162886D01*
X0154700Y0170314D01*
X0153847Y0172372D01*
X0152272Y0173947D01*
X0150214Y0174800D01*
X0147986Y0174800D01*
X0145928Y0173947D01*
X0144353Y0172372D01*
X0143500Y0170314D01*
X0143500Y0170120D01*
X0141420Y0172200D01*
X0136780Y0172200D01*
X0133500Y0168920D01*
X0133500Y0164280D01*
X0135001Y0162779D01*
X0134922Y0162700D01*
X0125591Y0162700D01*
X0118639Y0169652D01*
X0117316Y0170200D01*
X0110778Y0170200D01*
X0108878Y0172100D01*
X0104322Y0172100D01*
X0101100Y0168878D01*
X0101100Y0164322D01*
X0104322Y0161100D01*
X0108878Y0161100D01*
X0110778Y0163000D01*
X0115109Y0163000D01*
X0121048Y0157061D01*
X0121048Y0157061D01*
X0122061Y0156048D01*
X0123384Y0155500D01*
X0134922Y0155500D01*
X0136430Y0153992D01*
X0135900Y0152714D01*
X0135900Y0150486D01*
X0136753Y0148428D01*
X0138328Y0146853D01*
X0138938Y0146600D01*
X0138328Y0146347D01*
X0136753Y0144772D01*
X0135900Y0142714D01*
X0135900Y0140486D01*
X0136753Y0138428D01*
X0138328Y0136853D01*
X0138938Y0136600D01*
X0138328Y0136347D01*
X0136753Y0134772D01*
X0135900Y0132714D01*
X0135900Y0130486D01*
X0136753Y0128428D01*
X0138328Y0126853D01*
X0138938Y0126600D01*
X0138328Y0126347D01*
X0136753Y0124772D01*
X0135900Y0122714D01*
X0135900Y0120486D01*
X0136753Y0118428D01*
X0138328Y0116853D01*
X0138938Y0116600D01*
X0138328Y0116347D01*
X0136753Y0114772D01*
X0135900Y0112714D01*
X0135900Y0110486D01*
X0136753Y0108428D01*
X0138328Y0106853D01*
X0138938Y0106600D01*
X0138328Y0106347D01*
X0136753Y0104772D01*
X0135900Y0102714D01*
X0135900Y0100486D01*
X0136753Y0098428D01*
X0138328Y0096853D01*
X0138938Y0096600D01*
X0138328Y0096347D01*
X0136753Y0094772D01*
X0135900Y0092714D01*
X0135900Y0090486D01*
X0136753Y0088428D01*
X0138328Y0086853D01*
X0140386Y0086000D01*
X0147814Y0086000D01*
X0149872Y0086853D01*
X0150912Y0087893D02*
X0198600Y0087893D01*
X0198813Y0089091D02*
X0151722Y0089091D01*
X0152219Y0090290D02*
X0200012Y0090290D01*
X0200500Y0091488D02*
X0199266Y0091488D01*
X0200465Y0092687D02*
X0200500Y0092687D01*
X0196600Y0096600D02*
X0196600Y0116600D01*
X0191100Y0116657D02*
X0186900Y0116657D01*
X0188261Y0115459D02*
X0191100Y0115459D01*
X0191162Y0114260D02*
X0189160Y0114260D01*
X0189656Y0113062D02*
X0192360Y0113062D01*
X0193000Y0111863D02*
X0189800Y0111863D01*
X0189800Y0110665D02*
X0193000Y0110665D01*
X0193000Y0109466D02*
X0189377Y0109466D01*
X0188787Y0108268D02*
X0193000Y0108268D01*
X0193000Y0107069D02*
X0187589Y0107069D01*
X0187849Y0105870D02*
X0193000Y0105870D01*
X0193000Y0104672D02*
X0188989Y0104672D01*
X0189485Y0103473D02*
X0193000Y0103473D01*
X0193000Y0102275D02*
X0189800Y0102275D01*
X0189800Y0101076D02*
X0193000Y0101076D01*
X0192100Y0099878D02*
X0189548Y0099878D01*
X0189052Y0098679D02*
X0191100Y0098679D01*
X0191100Y0097481D02*
X0188000Y0097481D01*
X0185996Y0096282D02*
X0191100Y0096282D01*
X0191100Y0095084D02*
X0151136Y0095084D01*
X0151815Y0093885D02*
X0191536Y0093885D01*
X0192735Y0092687D02*
X0152300Y0092687D01*
X0152300Y0091488D02*
X0193933Y0091488D01*
X0204100Y0086600D02*
X0204100Y0116600D01*
X0201173Y0121451D02*
X0199527Y0121451D01*
X0203400Y0122650D02*
X0189800Y0122650D01*
X0189800Y0121451D02*
X0193673Y0121451D01*
X0192474Y0120253D02*
X0189703Y0120253D01*
X0189207Y0119054D02*
X0191276Y0119054D01*
X0191100Y0117856D02*
X0188375Y0117856D01*
X0189330Y0123848D02*
X0203870Y0123848D01*
X0204527Y0125047D02*
X0188673Y0125047D01*
X0187474Y0126245D02*
X0205726Y0126245D01*
X0205237Y0127444D02*
X0187963Y0127444D01*
X0189036Y0128642D02*
X0204164Y0128642D01*
X0203667Y0129841D02*
X0189533Y0129841D01*
X0189800Y0131039D02*
X0203400Y0131039D01*
X0203400Y0132238D02*
X0189800Y0132238D01*
X0189501Y0133436D02*
X0203699Y0133436D01*
X0204196Y0134635D02*
X0189004Y0134635D01*
X0187886Y0135833D02*
X0205314Y0135833D01*
X0205649Y0137032D02*
X0187551Y0137032D01*
X0188750Y0138230D02*
X0204450Y0138230D01*
X0203838Y0139429D02*
X0189362Y0139429D01*
X0189800Y0140627D02*
X0203400Y0140627D01*
X0203400Y0141826D02*
X0189800Y0141826D01*
X0189671Y0143024D02*
X0203529Y0143024D01*
X0204025Y0144223D02*
X0189175Y0144223D01*
X0188298Y0145421D02*
X0204902Y0145421D01*
X0206390Y0146620D02*
X0186810Y0146620D01*
X0188338Y0147818D02*
X0204862Y0147818D01*
X0204009Y0149017D02*
X0189191Y0149017D01*
X0189688Y0150215D02*
X0203512Y0150215D01*
X0203400Y0151414D02*
X0189800Y0151414D01*
X0189800Y0152612D02*
X0203400Y0152612D01*
X0203854Y0153811D02*
X0191589Y0153811D01*
X0192788Y0155009D02*
X0204490Y0155009D01*
X0205688Y0156208D02*
X0193986Y0156208D01*
X0194600Y0157406D02*
X0263500Y0157406D01*
X0263500Y0156780D02*
X0266780Y0153500D01*
X0271420Y0153500D01*
X0272800Y0154880D01*
X0273328Y0154353D01*
X0273938Y0154100D01*
X0273328Y0153847D01*
X0271753Y0152272D01*
X0270900Y0150214D01*
X0270900Y0147986D01*
X0271753Y0145928D01*
X0273328Y0144353D01*
X0273938Y0144100D01*
X0273328Y0143847D01*
X0271753Y0142272D01*
X0270900Y0140214D01*
X0270900Y0137986D01*
X0271753Y0135928D01*
X0273328Y0134353D01*
X0273938Y0134100D01*
X0273328Y0133847D01*
X0272800Y0133320D01*
X0271420Y0134700D01*
X0266780Y0134700D01*
X0263500Y0131420D01*
X0263500Y0126780D01*
X0266780Y0123500D01*
X0271420Y0123500D01*
X0272800Y0124880D01*
X0273328Y0124353D01*
X0275386Y0123500D01*
X0282814Y0123500D01*
X0284872Y0124353D01*
X0286447Y0125928D01*
X0287300Y0127986D01*
X0287300Y0130214D01*
X0286447Y0132272D01*
X0284872Y0133847D01*
X0284262Y0134100D01*
X0284872Y0134353D01*
X0286447Y0135928D01*
X0287300Y0137986D01*
X0287300Y0140214D01*
X0286447Y0142272D01*
X0284872Y0143847D01*
X0284262Y0144100D01*
X0284872Y0144353D01*
X0286447Y0145928D01*
X0287300Y0147986D01*
X0287300Y0150214D01*
X0286447Y0152272D01*
X0284872Y0153847D01*
X0284262Y0154100D01*
X0284872Y0154353D01*
X0286447Y0155928D01*
X0287300Y0157986D01*
X0287300Y0160214D01*
X0286447Y0162272D01*
X0284872Y0163847D01*
X0282814Y0164700D01*
X0282620Y0164700D01*
X0284700Y0166780D01*
X0284700Y0171420D01*
X0282620Y0173500D01*
X0286420Y0173500D01*
X0289700Y0176780D01*
X0289700Y0181420D01*
X0287020Y0184100D01*
X0289700Y0186780D01*
X0289700Y0191420D01*
X0286420Y0194700D01*
X0281780Y0194700D01*
X0278500Y0191420D01*
X0278500Y0186780D01*
X0281180Y0184100D01*
X0278500Y0181420D01*
X0278500Y0176780D01*
X0280580Y0174700D01*
X0276780Y0174700D01*
X0273500Y0171420D01*
X0273500Y0166780D01*
X0275580Y0164700D01*
X0275386Y0164700D01*
X0273328Y0163847D01*
X0272800Y0163320D01*
X0271420Y0164700D01*
X0266780Y0164700D01*
X0263500Y0161420D01*
X0263500Y0156780D01*
X0264072Y0156208D02*
X0227412Y0156208D01*
X0228610Y0155009D02*
X0265271Y0155009D01*
X0266469Y0153811D02*
X0229700Y0153811D01*
X0229700Y0152612D02*
X0272093Y0152612D01*
X0271731Y0153811D02*
X0273291Y0153811D01*
X0271397Y0151414D02*
X0229700Y0151414D01*
X0229700Y0150215D02*
X0270901Y0150215D01*
X0270900Y0149017D02*
X0229436Y0149017D01*
X0228238Y0147818D02*
X0270969Y0147818D01*
X0271466Y0146620D02*
X0227039Y0146620D01*
X0221161Y0146620D02*
X0216810Y0146620D01*
X0218298Y0145421D02*
X0272259Y0145421D01*
X0273641Y0144223D02*
X0219175Y0144223D01*
X0219671Y0143024D02*
X0272505Y0143024D01*
X0271568Y0141826D02*
X0219800Y0141826D01*
X0219800Y0140627D02*
X0271071Y0140627D01*
X0270900Y0139429D02*
X0219362Y0139429D01*
X0218750Y0138230D02*
X0270900Y0138230D01*
X0271295Y0137032D02*
X0217551Y0137032D01*
X0217886Y0135833D02*
X0271847Y0135833D01*
X0271485Y0134635D02*
X0273046Y0134635D01*
X0272917Y0133436D02*
X0272683Y0133436D01*
X0266715Y0134635D02*
X0219004Y0134635D01*
X0219501Y0133436D02*
X0265517Y0133436D01*
X0264318Y0132238D02*
X0219800Y0132238D01*
X0219800Y0131039D02*
X0263500Y0131039D01*
X0263500Y0129841D02*
X0219533Y0129841D01*
X0219036Y0128642D02*
X0263500Y0128642D01*
X0263500Y0127444D02*
X0217963Y0127444D01*
X0217474Y0126245D02*
X0264035Y0126245D01*
X0265234Y0125047D02*
X0218673Y0125047D01*
X0219330Y0123848D02*
X0266432Y0123848D01*
X0271768Y0123848D02*
X0274546Y0123848D01*
X0276780Y0122200D02*
X0273500Y0118920D01*
X0273500Y0114280D01*
X0274930Y0112850D01*
X0273500Y0111420D01*
X0273500Y0106780D01*
X0276780Y0103500D01*
X0281420Y0103500D01*
X0283500Y0105580D01*
X0283500Y0101780D01*
X0286780Y0098500D01*
X0291420Y0098500D01*
X0294100Y0101180D01*
X0296780Y0098500D01*
X0301420Y0098500D01*
X0304700Y0101780D01*
X0304700Y0105580D01*
X0306780Y0103500D01*
X0311420Y0103500D01*
X0314100Y0106180D01*
X0316780Y0103500D01*
X0321420Y0103500D01*
X0324100Y0106180D01*
X0326780Y0103500D01*
X0331420Y0103500D01*
X0334700Y0106780D01*
X0334700Y0111420D01*
X0331420Y0114700D01*
X0326780Y0114700D01*
X0324100Y0112020D01*
X0321420Y0114700D01*
X0316780Y0114700D01*
X0314100Y0112020D01*
X0313270Y0112850D01*
X0314700Y0114280D01*
X0314700Y0118920D01*
X0311420Y0122200D01*
X0306780Y0122200D01*
X0303500Y0118920D01*
X0303500Y0114280D01*
X0304930Y0112850D01*
X0303500Y0111420D01*
X0303500Y0107620D01*
X0301420Y0109700D01*
X0296780Y0109700D01*
X0294100Y0107020D01*
X0291420Y0109700D01*
X0286780Y0109700D01*
X0284700Y0107620D01*
X0284700Y0111420D01*
X0283270Y0112850D01*
X0284700Y0114280D01*
X0284700Y0118920D01*
X0281420Y0122200D01*
X0276780Y0122200D01*
X0276032Y0121451D02*
X0219800Y0121451D01*
X0219800Y0122650D02*
X0313600Y0122650D01*
X0313600Y0121822D02*
X0316822Y0118600D01*
X0321378Y0118600D01*
X0323078Y0120300D01*
X0372380Y0120300D01*
X0371000Y0118920D01*
X0371000Y0114280D01*
X0372430Y0112850D01*
X0371000Y0111420D01*
X0371000Y0106780D01*
X0374280Y0103500D01*
X0378920Y0103500D01*
X0381000Y0105580D01*
X0381000Y0101780D01*
X0384280Y0098500D01*
X0388920Y0098500D01*
X0391600Y0101180D01*
X0394280Y0098500D01*
X0398920Y0098500D01*
X0402200Y0101780D01*
X0402200Y0105580D01*
X0404280Y0103500D01*
X0408920Y0103500D01*
X0411600Y0106180D01*
X0414280Y0103500D01*
X0418920Y0103500D01*
X0421600Y0106180D01*
X0424280Y0103500D01*
X0428920Y0103500D01*
X0432200Y0106780D01*
X0432200Y0111420D01*
X0428920Y0114700D01*
X0424280Y0114700D01*
X0421600Y0112020D01*
X0418920Y0114700D01*
X0414280Y0114700D01*
X0411600Y0112020D01*
X0410770Y0112850D01*
X0412200Y0114280D01*
X0412200Y0118920D01*
X0410820Y0120300D01*
X0412622Y0120300D01*
X0414322Y0118600D01*
X0418878Y0118600D01*
X0422100Y0121822D01*
X0422100Y0125680D01*
X0424280Y0123500D01*
X0428920Y0123500D01*
X0432200Y0126780D01*
X0432200Y0131420D01*
X0428920Y0134700D01*
X0424280Y0134700D01*
X0421600Y0132020D01*
X0418920Y0134700D01*
X0414280Y0134700D01*
X0412900Y0133320D01*
X0412372Y0133847D01*
X0411762Y0134100D01*
X0412372Y0134353D01*
X0413947Y0135928D01*
X0414800Y0137986D01*
X0414800Y0140214D01*
X0413947Y0142272D01*
X0412372Y0143847D01*
X0411762Y0144100D01*
X0412372Y0144353D01*
X0413947Y0145928D01*
X0414800Y0147986D01*
X0414800Y0150214D01*
X0413947Y0152272D01*
X0412372Y0153847D01*
X0410314Y0154700D01*
X0402886Y0154700D01*
X0400828Y0153847D01*
X0399253Y0152272D01*
X0398400Y0150214D01*
X0398400Y0147986D01*
X0399253Y0145928D01*
X0400828Y0144353D01*
X0401438Y0144100D01*
X0400828Y0143847D01*
X0399253Y0142272D01*
X0398400Y0140214D01*
X0398400Y0137986D01*
X0399253Y0135928D01*
X0400828Y0134353D01*
X0401438Y0134100D01*
X0400828Y0133847D01*
X0399253Y0132272D01*
X0398400Y0130214D01*
X0398400Y0127986D01*
X0398436Y0127900D01*
X0384764Y0127900D01*
X0384800Y0127986D01*
X0384800Y0130214D01*
X0383947Y0132272D01*
X0382372Y0133847D01*
X0381762Y0134100D01*
X0382372Y0134353D01*
X0383947Y0135928D01*
X0384800Y0137986D01*
X0384800Y0140214D01*
X0383947Y0142272D01*
X0382372Y0143847D01*
X0381762Y0144100D01*
X0382372Y0144353D01*
X0383947Y0145928D01*
X0384800Y0147986D01*
X0384800Y0150214D01*
X0383947Y0152272D01*
X0382372Y0153847D01*
X0381762Y0154100D01*
X0382372Y0154353D01*
X0383947Y0155928D01*
X0384800Y0157986D01*
X0384800Y0160214D01*
X0383947Y0162272D01*
X0382372Y0163847D01*
X0380314Y0164700D01*
X0380120Y0164700D01*
X0382200Y0166780D01*
X0382200Y0171420D01*
X0380120Y0173500D01*
X0383920Y0173500D01*
X0387200Y0176780D01*
X0387200Y0181420D01*
X0384520Y0184100D01*
X0387200Y0186780D01*
X0387200Y0191420D01*
X0383920Y0194700D01*
X0381974Y0194700D01*
X0382300Y0195486D01*
X0382300Y0197714D01*
X0381447Y0199772D01*
X0379872Y0201347D01*
X0377814Y0202200D01*
X0370386Y0202200D01*
X0368328Y0201347D01*
X0366753Y0199772D01*
X0365900Y0197714D01*
X0365900Y0195486D01*
X0366753Y0193428D01*
X0368328Y0191853D01*
X0370386Y0191000D01*
X0376000Y0191000D01*
X0376000Y0186780D01*
X0378680Y0184100D01*
X0376000Y0181420D01*
X0376000Y0176780D01*
X0378080Y0174700D01*
X0374280Y0174700D01*
X0371000Y0171420D01*
X0371000Y0166780D01*
X0373080Y0164700D01*
X0372886Y0164700D01*
X0370828Y0163847D01*
X0370300Y0163320D01*
X0368920Y0164700D01*
X0364280Y0164700D01*
X0361000Y0161420D01*
X0361000Y0156780D01*
X0364280Y0153500D01*
X0368920Y0153500D01*
X0370300Y0154880D01*
X0370828Y0154353D01*
X0371438Y0154100D01*
X0370828Y0153847D01*
X0369253Y0152272D01*
X0368400Y0150214D01*
X0368400Y0147986D01*
X0369253Y0145928D01*
X0370828Y0144353D01*
X0371438Y0144100D01*
X0370828Y0143847D01*
X0369253Y0142272D01*
X0368400Y0140214D01*
X0368400Y0137986D01*
X0369253Y0135928D01*
X0370828Y0134353D01*
X0371438Y0134100D01*
X0370828Y0133847D01*
X0370300Y0133320D01*
X0368920Y0134700D01*
X0364280Y0134700D01*
X0361000Y0131420D01*
X0361000Y0127900D01*
X0334700Y0127900D01*
X0334700Y0131420D01*
X0331420Y0134700D01*
X0326780Y0134700D01*
X0324100Y0132020D01*
X0321420Y0134700D01*
X0316780Y0134700D01*
X0315400Y0133320D01*
X0314872Y0133847D01*
X0314262Y0134100D01*
X0314872Y0134353D01*
X0316447Y0135928D01*
X0317300Y0137986D01*
X0317300Y0140214D01*
X0316447Y0142272D01*
X0314872Y0143847D01*
X0314262Y0144100D01*
X0314872Y0144353D01*
X0316447Y0145928D01*
X0317300Y0147986D01*
X0317300Y0150214D01*
X0316447Y0152272D01*
X0314872Y0153847D01*
X0312814Y0154700D01*
X0305386Y0154700D01*
X0303328Y0153847D01*
X0301753Y0152272D01*
X0300900Y0150214D01*
X0300900Y0147986D01*
X0301753Y0145928D01*
X0303328Y0144353D01*
X0303938Y0144100D01*
X0303328Y0143847D01*
X0301753Y0142272D01*
X0300900Y0140214D01*
X0300900Y0137986D01*
X0301753Y0135928D01*
X0303328Y0134353D01*
X0303938Y0134100D01*
X0303328Y0133847D01*
X0301753Y0132272D01*
X0300900Y0130214D01*
X0300900Y0127986D01*
X0301753Y0125928D01*
X0303328Y0124353D01*
X0305386Y0123500D01*
X0312814Y0123500D01*
X0313600Y0123826D01*
X0313600Y0121822D01*
X0313971Y0121451D02*
X0312168Y0121451D01*
X0313367Y0120253D02*
X0315169Y0120253D01*
X0314565Y0119054D02*
X0316368Y0119054D01*
X0314700Y0117856D02*
X0371000Y0117856D01*
X0371000Y0116657D02*
X0314700Y0116657D01*
X0314700Y0115459D02*
X0371000Y0115459D01*
X0371020Y0114260D02*
X0331860Y0114260D01*
X0333058Y0113062D02*
X0372219Y0113062D01*
X0371443Y0111863D02*
X0334257Y0111863D01*
X0334700Y0110665D02*
X0371000Y0110665D01*
X0371000Y0109466D02*
X0334700Y0109466D01*
X0334700Y0108268D02*
X0371000Y0108268D01*
X0371000Y0107069D02*
X0334700Y0107069D01*
X0333790Y0105870D02*
X0371910Y0105870D01*
X0373108Y0104672D02*
X0332592Y0104672D01*
X0330443Y0098350D02*
X0327757Y0098350D01*
X0325276Y0097322D01*
X0323378Y0095424D01*
X0322350Y0092943D01*
X0322350Y0090257D01*
X0323378Y0087776D01*
X0325276Y0085878D01*
X0327757Y0084850D01*
X0330443Y0084850D01*
X0332924Y0085878D01*
X0334822Y0087776D01*
X0335850Y0090257D01*
X0335850Y0092943D01*
X0334822Y0095424D01*
X0332924Y0097322D01*
X0330443Y0098350D01*
X0332541Y0097481D02*
X0423159Y0097481D01*
X0422776Y0097322D02*
X0420878Y0095424D01*
X0419850Y0092943D01*
X0419850Y0090257D01*
X0420878Y0087776D01*
X0422776Y0085878D01*
X0425257Y0084850D01*
X0427943Y0084850D01*
X0430424Y0085878D01*
X0432322Y0087776D01*
X0433350Y0090257D01*
X0433350Y0092943D01*
X0432322Y0095424D01*
X0430424Y0097322D01*
X0427943Y0098350D01*
X0425257Y0098350D01*
X0422776Y0097322D01*
X0421736Y0096282D02*
X0412196Y0096282D01*
X0411378Y0097100D02*
X0406822Y0097100D01*
X0405122Y0095400D01*
X0365578Y0095400D01*
X0363878Y0097100D01*
X0359322Y0097100D01*
X0356100Y0093878D01*
X0356100Y0089322D01*
X0359322Y0086100D01*
X0363878Y0086100D01*
X0365578Y0087800D01*
X0382380Y0087800D01*
X0381000Y0086420D01*
X0381000Y0082620D01*
X0378920Y0084700D01*
X0374280Y0084700D01*
X0371000Y0081420D01*
X0371000Y0076780D01*
X0372430Y0075350D01*
X0371000Y0073920D01*
X0371000Y0069280D01*
X0374280Y0066000D01*
X0378920Y0066000D01*
X0381600Y0068680D01*
X0384280Y0066000D01*
X0388920Y0066000D01*
X0392200Y0069280D01*
X0392200Y0073920D01*
X0388920Y0077200D01*
X0384280Y0077200D01*
X0381600Y0074520D01*
X0380770Y0075350D01*
X0382200Y0076780D01*
X0382200Y0080580D01*
X0384280Y0078500D01*
X0388920Y0078500D01*
X0391600Y0081180D01*
X0394280Y0078500D01*
X0398920Y0078500D01*
X0401000Y0080580D01*
X0401000Y0076780D01*
X0404280Y0073500D01*
X0408920Y0073500D01*
X0411600Y0076180D01*
X0414280Y0073500D01*
X0418920Y0073500D01*
X0422200Y0076780D01*
X0422200Y0081420D01*
X0418920Y0084700D01*
X0414280Y0084700D01*
X0411600Y0082020D01*
X0408920Y0084700D01*
X0404280Y0084700D01*
X0402200Y0082620D01*
X0402200Y0086420D01*
X0400820Y0087800D01*
X0405122Y0087800D01*
X0406822Y0086100D01*
X0411378Y0086100D01*
X0414600Y0089322D01*
X0414600Y0093878D01*
X0411378Y0097100D01*
X0413394Y0095084D02*
X0420737Y0095084D01*
X0420240Y0093885D02*
X0414593Y0093885D01*
X0414600Y0092687D02*
X0419850Y0092687D01*
X0419850Y0091488D02*
X0414600Y0091488D01*
X0414600Y0090290D02*
X0419850Y0090290D01*
X0420333Y0089091D02*
X0414369Y0089091D01*
X0413171Y0087893D02*
X0420829Y0087893D01*
X0421960Y0086694D02*
X0411972Y0086694D01*
X0413878Y0084297D02*
X0409322Y0084297D01*
X0410521Y0083099D02*
X0412679Y0083099D01*
X0406228Y0086694D02*
X0401925Y0086694D01*
X0402200Y0085496D02*
X0423698Y0085496D01*
X0420521Y0083099D02*
X0462800Y0083099D01*
X0462800Y0084297D02*
X0419322Y0084297D01*
X0421719Y0081900D02*
X0462800Y0081900D01*
X0462800Y0080702D02*
X0422200Y0080702D01*
X0422200Y0079503D02*
X0462800Y0079503D01*
X0462800Y0078305D02*
X0422200Y0078305D01*
X0422200Y0077106D02*
X0462800Y0077106D01*
X0462800Y0075908D02*
X0421327Y0075908D01*
X0420129Y0074709D02*
X0462800Y0074709D01*
X0462800Y0073511D02*
X0418930Y0073511D01*
X0414270Y0073511D02*
X0408930Y0073511D01*
X0410129Y0074709D02*
X0413071Y0074709D01*
X0411873Y0075908D02*
X0411327Y0075908D01*
X0404270Y0073511D02*
X0392200Y0073511D01*
X0392200Y0072312D02*
X0462800Y0072312D01*
X0462800Y0071114D02*
X0392200Y0071114D01*
X0392200Y0069915D02*
X0462800Y0069915D01*
X0462800Y0068717D02*
X0391636Y0068717D01*
X0390438Y0067518D02*
X0462800Y0067518D01*
X0462800Y0066320D02*
X0389239Y0066320D01*
X0383961Y0066320D02*
X0379239Y0066320D01*
X0380438Y0067518D02*
X0382762Y0067518D01*
X0381790Y0074709D02*
X0381410Y0074709D01*
X0381327Y0075908D02*
X0382988Y0075908D01*
X0382200Y0077106D02*
X0384187Y0077106D01*
X0382200Y0078305D02*
X0401000Y0078305D01*
X0401000Y0079503D02*
X0399923Y0079503D01*
X0401000Y0077106D02*
X0389013Y0077106D01*
X0390212Y0075908D02*
X0401873Y0075908D01*
X0403071Y0074709D02*
X0391410Y0074709D01*
X0389923Y0079503D02*
X0393277Y0079503D01*
X0392079Y0080702D02*
X0391121Y0080702D01*
X0383277Y0079503D02*
X0382200Y0079503D01*
X0381000Y0083099D02*
X0380521Y0083099D01*
X0381000Y0084297D02*
X0379322Y0084297D01*
X0381000Y0085496D02*
X0332002Y0085496D01*
X0333740Y0086694D02*
X0358728Y0086694D01*
X0357529Y0087893D02*
X0334871Y0087893D01*
X0335367Y0089091D02*
X0356330Y0089091D01*
X0356100Y0090290D02*
X0335850Y0090290D01*
X0335850Y0091488D02*
X0356100Y0091488D01*
X0356100Y0092687D02*
X0335850Y0092687D01*
X0335460Y0093885D02*
X0356107Y0093885D01*
X0357306Y0095084D02*
X0334963Y0095084D01*
X0333964Y0096282D02*
X0358504Y0096282D01*
X0364696Y0096282D02*
X0406004Y0096282D01*
X0400298Y0099878D02*
X0462800Y0099878D01*
X0462800Y0101076D02*
X0401496Y0101076D01*
X0402200Y0102275D02*
X0462800Y0102275D01*
X0462800Y0103473D02*
X0402200Y0103473D01*
X0402200Y0104672D02*
X0403108Y0104672D01*
X0410092Y0104672D02*
X0413108Y0104672D01*
X0411910Y0105870D02*
X0411290Y0105870D01*
X0410981Y0113062D02*
X0412642Y0113062D01*
X0412180Y0114260D02*
X0413840Y0114260D01*
X0412200Y0115459D02*
X0462800Y0115459D01*
X0462800Y0116657D02*
X0412200Y0116657D01*
X0412200Y0117856D02*
X0462800Y0117856D01*
X0462800Y0119054D02*
X0419332Y0119054D01*
X0420531Y0120253D02*
X0462800Y0120253D01*
X0462800Y0121451D02*
X0421729Y0121451D01*
X0422100Y0122650D02*
X0462800Y0122650D01*
X0462800Y0123848D02*
X0429268Y0123848D01*
X0430466Y0125047D02*
X0462800Y0125047D01*
X0462800Y0126245D02*
X0431665Y0126245D01*
X0432200Y0127444D02*
X0462800Y0127444D01*
X0462800Y0128642D02*
X0432200Y0128642D01*
X0432200Y0129841D02*
X0462800Y0129841D01*
X0462800Y0131039D02*
X0432200Y0131039D01*
X0431382Y0132238D02*
X0462800Y0132238D01*
X0462800Y0133436D02*
X0430183Y0133436D01*
X0428985Y0134635D02*
X0462800Y0134635D01*
X0462800Y0135833D02*
X0413853Y0135833D01*
X0414215Y0134635D02*
X0412654Y0134635D01*
X0412783Y0133436D02*
X0413017Y0133436D01*
X0414405Y0137032D02*
X0462800Y0137032D01*
X0462800Y0138230D02*
X0414800Y0138230D01*
X0414800Y0139429D02*
X0462800Y0139429D01*
X0462800Y0140627D02*
X0414629Y0140627D01*
X0414132Y0141826D02*
X0462800Y0141826D01*
X0462800Y0143024D02*
X0413195Y0143024D01*
X0412059Y0144223D02*
X0462800Y0144223D01*
X0462800Y0145421D02*
X0413441Y0145421D01*
X0414234Y0146620D02*
X0462800Y0146620D01*
X0462800Y0147818D02*
X0414731Y0147818D01*
X0414800Y0149017D02*
X0433764Y0149017D01*
X0434280Y0148500D02*
X0438920Y0148500D01*
X0442200Y0151780D01*
X0442200Y0156420D01*
X0438920Y0159700D01*
X0434280Y0159700D01*
X0432200Y0157620D01*
X0432200Y0161420D01*
X0428920Y0164700D01*
X0424280Y0164700D01*
X0421600Y0162020D01*
X0419520Y0164100D01*
X0422200Y0166780D01*
X0422200Y0171420D01*
X0418920Y0174700D01*
X0414280Y0174700D01*
X0411600Y0172020D01*
X0408920Y0174700D01*
X0405120Y0174700D01*
X0407200Y0176780D01*
X0407200Y0181420D01*
X0403920Y0184700D01*
X0399280Y0184700D01*
X0396000Y0181420D01*
X0396000Y0176780D01*
X0399280Y0173500D01*
X0403080Y0173500D01*
X0401000Y0171420D01*
X0401000Y0166780D01*
X0404280Y0163500D01*
X0408920Y0163500D01*
X0411600Y0166180D01*
X0413680Y0164100D01*
X0411000Y0161420D01*
X0411000Y0156780D01*
X0414280Y0153500D01*
X0418920Y0153500D01*
X0421600Y0156180D01*
X0424280Y0153500D01*
X0428920Y0153500D01*
X0431000Y0155580D01*
X0431000Y0151780D01*
X0434280Y0148500D01*
X0432565Y0150215D02*
X0414799Y0150215D01*
X0414303Y0151414D02*
X0431366Y0151414D01*
X0431000Y0152612D02*
X0413607Y0152612D01*
X0413969Y0153811D02*
X0412409Y0153811D01*
X0412771Y0155009D02*
X0383029Y0155009D01*
X0382409Y0153811D02*
X0400791Y0153811D01*
X0399593Y0152612D02*
X0383607Y0152612D01*
X0384303Y0151414D02*
X0398897Y0151414D01*
X0398401Y0150215D02*
X0384799Y0150215D01*
X0384800Y0149017D02*
X0398400Y0149017D01*
X0398469Y0147818D02*
X0384731Y0147818D01*
X0384234Y0146620D02*
X0398966Y0146620D01*
X0399759Y0145421D02*
X0383441Y0145421D01*
X0382059Y0144223D02*
X0401141Y0144223D01*
X0400005Y0143024D02*
X0383195Y0143024D01*
X0384132Y0141826D02*
X0399068Y0141826D01*
X0398571Y0140627D02*
X0384629Y0140627D01*
X0384800Y0139429D02*
X0398400Y0139429D01*
X0398400Y0138230D02*
X0384800Y0138230D01*
X0384405Y0137032D02*
X0398795Y0137032D01*
X0399347Y0135833D02*
X0383853Y0135833D01*
X0382654Y0134635D02*
X0400546Y0134635D01*
X0400417Y0133436D02*
X0382783Y0133436D01*
X0383962Y0132238D02*
X0399238Y0132238D01*
X0398742Y0131039D02*
X0384458Y0131039D01*
X0384800Y0129841D02*
X0398400Y0129841D01*
X0398400Y0128642D02*
X0384800Y0128642D01*
X0370417Y0133436D02*
X0370183Y0133436D01*
X0370546Y0134635D02*
X0368985Y0134635D01*
X0369347Y0135833D02*
X0316353Y0135833D01*
X0316715Y0134635D02*
X0315154Y0134635D01*
X0315283Y0133436D02*
X0315517Y0133436D01*
X0316905Y0137032D02*
X0368795Y0137032D01*
X0368400Y0138230D02*
X0317300Y0138230D01*
X0317300Y0139429D02*
X0368400Y0139429D01*
X0368571Y0140627D02*
X0317129Y0140627D01*
X0316632Y0141826D02*
X0369068Y0141826D01*
X0370005Y0143024D02*
X0315695Y0143024D01*
X0314559Y0144223D02*
X0371141Y0144223D01*
X0369759Y0145421D02*
X0315941Y0145421D01*
X0316734Y0146620D02*
X0368966Y0146620D01*
X0368469Y0147818D02*
X0317231Y0147818D01*
X0317300Y0149017D02*
X0368400Y0149017D01*
X0368401Y0150215D02*
X0317299Y0150215D01*
X0316803Y0151414D02*
X0368897Y0151414D01*
X0369593Y0152612D02*
X0316107Y0152612D01*
X0316780Y0153500D02*
X0321420Y0153500D01*
X0324100Y0156180D01*
X0326780Y0153500D01*
X0331420Y0153500D01*
X0334700Y0156780D01*
X0334700Y0161420D01*
X0331420Y0164700D01*
X0326780Y0164700D01*
X0324100Y0162020D01*
X0322020Y0164100D01*
X0324700Y0166780D01*
X0324700Y0171420D01*
X0321420Y0174700D01*
X0316780Y0174700D01*
X0314100Y0172020D01*
X0311420Y0174700D01*
X0307620Y0174700D01*
X0309700Y0176780D01*
X0309700Y0181420D01*
X0306420Y0184700D01*
X0301780Y0184700D01*
X0298500Y0181420D01*
X0298500Y0176780D01*
X0301780Y0173500D01*
X0305580Y0173500D01*
X0303500Y0171420D01*
X0303500Y0166780D01*
X0306780Y0163500D01*
X0311420Y0163500D01*
X0314100Y0166180D01*
X0316180Y0164100D01*
X0313500Y0161420D01*
X0313500Y0156780D01*
X0316780Y0153500D01*
X0316469Y0153811D02*
X0314909Y0153811D01*
X0315271Y0155009D02*
X0285529Y0155009D01*
X0284909Y0153811D02*
X0303291Y0153811D01*
X0302093Y0152612D02*
X0286107Y0152612D01*
X0286803Y0151414D02*
X0301397Y0151414D01*
X0300901Y0150215D02*
X0287299Y0150215D01*
X0287300Y0149017D02*
X0300900Y0149017D01*
X0300969Y0147818D02*
X0287231Y0147818D01*
X0286734Y0146620D02*
X0301466Y0146620D01*
X0302259Y0145421D02*
X0285941Y0145421D01*
X0284559Y0144223D02*
X0303641Y0144223D01*
X0302505Y0143024D02*
X0285695Y0143024D01*
X0286632Y0141826D02*
X0301568Y0141826D01*
X0301071Y0140627D02*
X0287129Y0140627D01*
X0287300Y0139429D02*
X0300900Y0139429D01*
X0300900Y0138230D02*
X0287300Y0138230D01*
X0286905Y0137032D02*
X0301295Y0137032D01*
X0301847Y0135833D02*
X0286353Y0135833D01*
X0285154Y0134635D02*
X0303046Y0134635D01*
X0302917Y0133436D02*
X0285283Y0133436D01*
X0286462Y0132238D02*
X0301738Y0132238D01*
X0301242Y0131039D02*
X0286958Y0131039D01*
X0287300Y0129841D02*
X0300900Y0129841D01*
X0300900Y0128642D02*
X0287300Y0128642D01*
X0287075Y0127444D02*
X0301125Y0127444D01*
X0301621Y0126245D02*
X0286579Y0126245D01*
X0285566Y0125047D02*
X0302634Y0125047D01*
X0304546Y0123848D02*
X0283654Y0123848D01*
X0282168Y0121451D02*
X0306032Y0121451D01*
X0304833Y0120253D02*
X0283367Y0120253D01*
X0284565Y0119054D02*
X0303635Y0119054D01*
X0303500Y0117856D02*
X0284700Y0117856D01*
X0284700Y0116657D02*
X0303500Y0116657D01*
X0303500Y0115459D02*
X0284700Y0115459D01*
X0284680Y0114260D02*
X0303520Y0114260D01*
X0304719Y0113062D02*
X0283481Y0113062D01*
X0284257Y0111863D02*
X0303943Y0111863D01*
X0303500Y0110665D02*
X0284700Y0110665D01*
X0284700Y0109466D02*
X0286546Y0109466D01*
X0285348Y0108268D02*
X0284700Y0108268D01*
X0283500Y0104672D02*
X0282592Y0104672D01*
X0283500Y0103473D02*
X0252646Y0103473D01*
X0252020Y0104100D02*
X0254700Y0101420D01*
X0254700Y0096780D01*
X0252620Y0094700D01*
X0256420Y0094700D01*
X0259700Y0091420D01*
X0259700Y0086780D01*
X0257020Y0084100D01*
X0259700Y0081420D01*
X0259700Y0076780D01*
X0256420Y0073500D01*
X0251780Y0073500D01*
X0248500Y0076780D01*
X0248500Y0081420D01*
X0251180Y0084100D01*
X0248500Y0086780D01*
X0248500Y0091420D01*
X0250580Y0093500D01*
X0246780Y0093500D01*
X0243500Y0096780D01*
X0243500Y0101420D01*
X0246180Y0104100D01*
X0243500Y0106780D01*
X0243500Y0111420D01*
X0246780Y0114700D01*
X0251420Y0114700D01*
X0254700Y0111420D01*
X0254700Y0106780D01*
X0252020Y0104100D01*
X0252592Y0104672D02*
X0275608Y0104672D01*
X0274410Y0105870D02*
X0253790Y0105870D01*
X0254700Y0107069D02*
X0273500Y0107069D01*
X0273500Y0108268D02*
X0254700Y0108268D01*
X0254700Y0109466D02*
X0273500Y0109466D01*
X0273500Y0110665D02*
X0254700Y0110665D01*
X0254257Y0111863D02*
X0273943Y0111863D01*
X0274719Y0113062D02*
X0253058Y0113062D01*
X0251860Y0114260D02*
X0273520Y0114260D01*
X0273500Y0115459D02*
X0218261Y0115459D01*
X0219160Y0114260D02*
X0246340Y0114260D01*
X0245142Y0113062D02*
X0219656Y0113062D01*
X0219800Y0111863D02*
X0243943Y0111863D01*
X0243500Y0110665D02*
X0219800Y0110665D01*
X0219377Y0109466D02*
X0243500Y0109466D01*
X0243500Y0108268D02*
X0218787Y0108268D01*
X0217589Y0107069D02*
X0243500Y0107069D01*
X0244410Y0105870D02*
X0217849Y0105870D01*
X0218989Y0104672D02*
X0245608Y0104672D01*
X0245554Y0103473D02*
X0219485Y0103473D01*
X0219800Y0102275D02*
X0244355Y0102275D01*
X0243500Y0101076D02*
X0219800Y0101076D01*
X0219548Y0099878D02*
X0243500Y0099878D01*
X0243500Y0098679D02*
X0219052Y0098679D01*
X0218000Y0097481D02*
X0243500Y0097481D01*
X0243998Y0096282D02*
X0217437Y0096282D01*
X0218636Y0095084D02*
X0245197Y0095084D01*
X0246395Y0093885D02*
X0227234Y0093885D01*
X0228433Y0092687D02*
X0249767Y0092687D01*
X0248569Y0091488D02*
X0229631Y0091488D01*
X0229700Y0090290D02*
X0248500Y0090290D01*
X0248500Y0089091D02*
X0229700Y0089091D01*
X0229700Y0087893D02*
X0248500Y0087893D01*
X0248586Y0086694D02*
X0229614Y0086694D01*
X0228415Y0085496D02*
X0249785Y0085496D01*
X0250983Y0084297D02*
X0227217Y0084297D01*
X0228021Y0083099D02*
X0250179Y0083099D01*
X0248981Y0081900D02*
X0229219Y0081900D01*
X0229700Y0080702D02*
X0248500Y0080702D01*
X0248500Y0079503D02*
X0229700Y0079503D01*
X0229700Y0078305D02*
X0248500Y0078305D01*
X0248500Y0077106D02*
X0229700Y0077106D01*
X0228827Y0075908D02*
X0249373Y0075908D01*
X0250571Y0074709D02*
X0227629Y0074709D01*
X0226430Y0073511D02*
X0251770Y0073511D01*
X0256430Y0073511D02*
X0273500Y0073511D01*
X0273500Y0072312D02*
X0192732Y0072312D01*
X0193930Y0073511D02*
X0221770Y0073511D01*
X0220571Y0074709D02*
X0194700Y0074709D01*
X0194700Y0074280D02*
X0191420Y0071000D01*
X0186780Y0071000D01*
X0183500Y0074280D01*
X0183500Y0078920D01*
X0186780Y0082200D01*
X0191420Y0082200D01*
X0194700Y0078920D01*
X0194700Y0074280D01*
X0194700Y0075908D02*
X0219373Y0075908D01*
X0218500Y0077106D02*
X0194700Y0077106D01*
X0194700Y0078305D02*
X0218500Y0078305D01*
X0218500Y0079503D02*
X0194116Y0079503D01*
X0192918Y0080702D02*
X0218500Y0080702D01*
X0218981Y0081900D02*
X0207178Y0081900D01*
X0208377Y0083099D02*
X0220179Y0083099D01*
X0220983Y0084297D02*
X0209575Y0084297D01*
X0209600Y0085496D02*
X0219785Y0085496D01*
X0218586Y0086694D02*
X0216990Y0086694D01*
X0218412Y0087893D02*
X0218500Y0087893D01*
X0219315Y0093885D02*
X0220966Y0093885D01*
X0201022Y0081900D02*
X0191719Y0081900D01*
X0186481Y0081900D02*
X0174219Y0081900D01*
X0173920Y0082200D02*
X0169280Y0082200D01*
X0166000Y0078920D01*
X0166000Y0074280D01*
X0169280Y0071000D01*
X0173920Y0071000D01*
X0177200Y0074280D01*
X0177200Y0078920D01*
X0173920Y0082200D01*
X0175418Y0080702D02*
X0185282Y0080702D01*
X0184084Y0079503D02*
X0176616Y0079503D01*
X0177200Y0078305D02*
X0183500Y0078305D01*
X0183500Y0077106D02*
X0177200Y0077106D01*
X0177200Y0075908D02*
X0183500Y0075908D01*
X0183500Y0074709D02*
X0177200Y0074709D01*
X0176430Y0073511D02*
X0184270Y0073511D01*
X0185468Y0072312D02*
X0175232Y0072312D01*
X0174033Y0071114D02*
X0186667Y0071114D01*
X0191533Y0071114D02*
X0273500Y0071114D01*
X0274290Y0074709D02*
X0257629Y0074709D01*
X0258827Y0075908D02*
X0274373Y0075908D01*
X0273500Y0077106D02*
X0259700Y0077106D01*
X0259700Y0078305D02*
X0273500Y0078305D01*
X0273500Y0079503D02*
X0259700Y0079503D01*
X0259700Y0080702D02*
X0273500Y0080702D01*
X0273981Y0081900D02*
X0259219Y0081900D01*
X0258021Y0083099D02*
X0275179Y0083099D01*
X0276378Y0084297D02*
X0257217Y0084297D01*
X0258415Y0085496D02*
X0283500Y0085496D01*
X0283500Y0084297D02*
X0281822Y0084297D01*
X0283021Y0083099D02*
X0283500Y0083099D01*
X0283775Y0086694D02*
X0259614Y0086694D01*
X0259700Y0087893D02*
X0284973Y0087893D01*
X0286172Y0089091D02*
X0259700Y0089091D01*
X0259700Y0090290D02*
X0322350Y0090290D01*
X0322350Y0091488D02*
X0259631Y0091488D01*
X0258433Y0092687D02*
X0322350Y0092687D01*
X0322740Y0093885D02*
X0257234Y0093885D01*
X0254202Y0096282D02*
X0324236Y0096282D01*
X0323237Y0095084D02*
X0253003Y0095084D01*
X0254700Y0097481D02*
X0325659Y0097481D01*
X0325608Y0104672D02*
X0322592Y0104672D01*
X0323790Y0105870D02*
X0324410Y0105870D01*
X0315608Y0104672D02*
X0312592Y0104672D01*
X0313790Y0105870D02*
X0314410Y0105870D01*
X0305608Y0104672D02*
X0304700Y0104672D01*
X0304700Y0103473D02*
X0381000Y0103473D01*
X0381000Y0102275D02*
X0304700Y0102275D01*
X0303996Y0101076D02*
X0381704Y0101076D01*
X0382902Y0099878D02*
X0302798Y0099878D01*
X0301599Y0098679D02*
X0384101Y0098679D01*
X0389099Y0098679D02*
X0394101Y0098679D01*
X0392902Y0099878D02*
X0390298Y0099878D01*
X0391496Y0101076D02*
X0391704Y0101076D01*
X0399099Y0098679D02*
X0462800Y0098679D01*
X0462800Y0097481D02*
X0430041Y0097481D01*
X0431464Y0096282D02*
X0462800Y0096282D01*
X0462800Y0095084D02*
X0432463Y0095084D01*
X0432960Y0093885D02*
X0462800Y0093885D01*
X0462800Y0092687D02*
X0433350Y0092687D01*
X0433350Y0091488D02*
X0462800Y0091488D01*
X0462800Y0090290D02*
X0433350Y0090290D01*
X0432867Y0089091D02*
X0462800Y0089091D01*
X0462800Y0087893D02*
X0432371Y0087893D01*
X0431240Y0086694D02*
X0462800Y0086694D01*
X0462800Y0085496D02*
X0429502Y0085496D01*
X0403878Y0084297D02*
X0402200Y0084297D01*
X0402200Y0083099D02*
X0402679Y0083099D01*
X0381275Y0086694D02*
X0364472Y0086694D01*
X0372679Y0083099D02*
X0323021Y0083099D01*
X0321822Y0084297D02*
X0373878Y0084297D01*
X0371481Y0081900D02*
X0324219Y0081900D01*
X0324700Y0080702D02*
X0371000Y0080702D01*
X0371000Y0079503D02*
X0324700Y0079503D01*
X0324700Y0078305D02*
X0371000Y0078305D01*
X0371000Y0077106D02*
X0324700Y0077106D01*
X0323827Y0075908D02*
X0371873Y0075908D01*
X0371790Y0074709D02*
X0322629Y0074709D01*
X0321430Y0073511D02*
X0371000Y0073511D01*
X0371000Y0072312D02*
X0294700Y0072312D01*
X0294700Y0071114D02*
X0371000Y0071114D01*
X0371000Y0069915D02*
X0294700Y0069915D01*
X0294136Y0068717D02*
X0371564Y0068717D01*
X0372762Y0067518D02*
X0292938Y0067518D01*
X0291739Y0066320D02*
X0373961Y0066320D01*
X0399182Y0051937D02*
X0409892Y0051937D01*
X0408693Y0050739D02*
X0400381Y0050739D01*
X0401579Y0049540D02*
X0408012Y0049540D01*
X0407515Y0048342D02*
X0402200Y0048342D01*
X0402200Y0047143D02*
X0407350Y0047143D01*
X0407350Y0045945D02*
X0402200Y0045945D01*
X0402200Y0044746D02*
X0407562Y0044746D01*
X0408058Y0043548D02*
X0401467Y0043548D01*
X0400269Y0042349D02*
X0408805Y0042349D01*
X0410003Y0041151D02*
X0399070Y0041151D01*
X0394130Y0041151D02*
X0392200Y0041151D01*
X0392200Y0042349D02*
X0392931Y0042349D01*
X0391000Y0045945D02*
X0390175Y0045945D01*
X0391000Y0047143D02*
X0388976Y0047143D01*
X0384224Y0047143D02*
X0378976Y0047143D01*
X0380175Y0045945D02*
X0383025Y0045945D01*
X0381827Y0044746D02*
X0381373Y0044746D01*
X0372725Y0037555D02*
X0292975Y0037555D01*
X0292363Y0036357D02*
X0295837Y0036357D01*
X0294639Y0035158D02*
X0293561Y0035158D01*
X0294700Y0041151D02*
X0296630Y0041151D01*
X0295431Y0042349D02*
X0294700Y0042349D01*
X0293500Y0045945D02*
X0292675Y0045945D01*
X0293500Y0047143D02*
X0291476Y0047143D01*
X0293500Y0048342D02*
X0252778Y0048342D01*
X0253976Y0047143D02*
X0276724Y0047143D01*
X0275525Y0045945D02*
X0254700Y0045945D01*
X0254700Y0044746D02*
X0274327Y0044746D01*
X0273500Y0043548D02*
X0254700Y0043548D01*
X0254700Y0042349D02*
X0273500Y0042349D01*
X0273500Y0041151D02*
X0254070Y0041151D01*
X0252872Y0039952D02*
X0273500Y0039952D01*
X0274027Y0038754D02*
X0252366Y0038754D01*
X0253564Y0037555D02*
X0275225Y0037555D01*
X0276424Y0036357D02*
X0254700Y0036357D01*
X0254700Y0035158D02*
X0284639Y0035158D01*
X0283975Y0033960D02*
X0254700Y0033960D01*
X0254700Y0032761D02*
X0283500Y0032761D01*
X0283500Y0031563D02*
X0254482Y0031563D01*
X0253284Y0030364D02*
X0283500Y0030364D01*
X0283500Y0029166D02*
X0252085Y0029166D01*
X0244130Y0041151D02*
X0191570Y0041151D01*
X0191420Y0041000D02*
X0194700Y0044280D01*
X0194700Y0048920D01*
X0191420Y0052200D01*
X0186780Y0052200D01*
X0183500Y0048920D01*
X0183500Y0044280D01*
X0186780Y0041000D01*
X0191420Y0041000D01*
X0192769Y0042349D02*
X0243500Y0042349D01*
X0243500Y0043548D02*
X0193967Y0043548D01*
X0194700Y0044746D02*
X0243500Y0044746D01*
X0243500Y0045945D02*
X0194700Y0045945D01*
X0194700Y0047143D02*
X0244224Y0047143D01*
X0245422Y0048342D02*
X0194700Y0048342D01*
X0194079Y0049540D02*
X0220740Y0049540D01*
X0219541Y0050739D02*
X0192881Y0050739D01*
X0191682Y0051937D02*
X0218500Y0051937D01*
X0227460Y0049540D02*
X0246621Y0049540D01*
X0248500Y0051937D02*
X0229700Y0051937D01*
X0229700Y0053136D02*
X0248500Y0053136D01*
X0248500Y0054334D02*
X0229700Y0054334D01*
X0229700Y0055533D02*
X0248500Y0055533D01*
X0248812Y0056732D02*
X0229388Y0056732D01*
X0228190Y0057930D02*
X0250010Y0057930D01*
X0251152Y0059129D02*
X0227048Y0059129D01*
X0228247Y0060327D02*
X0249953Y0060327D01*
X0248755Y0061526D02*
X0229445Y0061526D01*
X0229700Y0062724D02*
X0248500Y0062724D01*
X0248500Y0063923D02*
X0229700Y0063923D01*
X0229700Y0065121D02*
X0248500Y0065121D01*
X0248500Y0066320D02*
X0229700Y0066320D01*
X0228601Y0067518D02*
X0249599Y0067518D01*
X0250797Y0068717D02*
X0227403Y0068717D01*
X0228659Y0050739D02*
X0249541Y0050739D01*
X0257460Y0049540D02*
X0294121Y0049540D01*
X0295319Y0050739D02*
X0258659Y0050739D01*
X0259700Y0051937D02*
X0296518Y0051937D01*
X0286724Y0047143D02*
X0281476Y0047143D01*
X0282675Y0045945D02*
X0285525Y0045945D01*
X0284327Y0044746D02*
X0283873Y0044746D01*
X0282975Y0037555D02*
X0285225Y0037555D01*
X0285837Y0036357D02*
X0281776Y0036357D01*
X0293693Y0023173D02*
X0294507Y0023173D01*
X0295706Y0021975D02*
X0292494Y0021975D01*
X0302494Y0021975D02*
X0373206Y0021975D01*
X0372007Y0023173D02*
X0303693Y0023173D01*
X0304280Y0024372D02*
X0371420Y0024372D01*
X0371000Y0025570D02*
X0304700Y0025570D01*
X0304700Y0026769D02*
X0371000Y0026769D01*
X0371000Y0027967D02*
X0304700Y0027967D01*
X0304700Y0029166D02*
X0371000Y0029166D01*
X0371000Y0030364D02*
X0304700Y0030364D01*
X0304700Y0031563D02*
X0371000Y0031563D01*
X0371000Y0032761D02*
X0304700Y0032761D01*
X0304225Y0033960D02*
X0371475Y0033960D01*
X0372139Y0035158D02*
X0303561Y0035158D01*
X0302363Y0036357D02*
X0373337Y0036357D01*
X0381193Y0023173D02*
X0382007Y0023173D01*
X0383206Y0021975D02*
X0379994Y0021975D01*
X0316770Y0073511D02*
X0311430Y0073511D01*
X0312629Y0074709D02*
X0315571Y0074709D01*
X0314373Y0075908D02*
X0313827Y0075908D01*
X0306770Y0073511D02*
X0294700Y0073511D01*
X0293910Y0074709D02*
X0305571Y0074709D01*
X0304373Y0075908D02*
X0292712Y0075908D01*
X0291513Y0077106D02*
X0303500Y0077106D01*
X0303500Y0078305D02*
X0284700Y0078305D01*
X0284700Y0079503D02*
X0285777Y0079503D01*
X0286687Y0077106D02*
X0284700Y0077106D01*
X0285488Y0075908D02*
X0283827Y0075908D01*
X0283910Y0074709D02*
X0284290Y0074709D01*
X0285262Y0067518D02*
X0282938Y0067518D01*
X0281739Y0066320D02*
X0286461Y0066320D01*
X0292423Y0079503D02*
X0295777Y0079503D01*
X0294579Y0080702D02*
X0293621Y0080702D01*
X0302423Y0079503D02*
X0303500Y0079503D01*
X0304700Y0083099D02*
X0305179Y0083099D01*
X0304700Y0084297D02*
X0306378Y0084297D01*
X0304700Y0085496D02*
X0326198Y0085496D01*
X0324460Y0086694D02*
X0304425Y0086694D01*
X0303227Y0087893D02*
X0323329Y0087893D01*
X0322833Y0089091D02*
X0302028Y0089091D01*
X0296172Y0089091D02*
X0292028Y0089091D01*
X0293227Y0087893D02*
X0294973Y0087893D01*
X0296601Y0098679D02*
X0291599Y0098679D01*
X0292798Y0099878D02*
X0295402Y0099878D01*
X0294204Y0101076D02*
X0293996Y0101076D01*
X0294051Y0107069D02*
X0294149Y0107069D01*
X0295348Y0108268D02*
X0292852Y0108268D01*
X0291654Y0109466D02*
X0296546Y0109466D01*
X0301654Y0109466D02*
X0303500Y0109466D01*
X0303500Y0108268D02*
X0302852Y0108268D01*
X0313481Y0113062D02*
X0315142Y0113062D01*
X0314680Y0114260D02*
X0316340Y0114260D01*
X0321860Y0114260D02*
X0326340Y0114260D01*
X0325142Y0113062D02*
X0323058Y0113062D01*
X0321832Y0119054D02*
X0371135Y0119054D01*
X0372333Y0120253D02*
X0323031Y0120253D01*
X0334700Y0128642D02*
X0361000Y0128642D01*
X0361000Y0129841D02*
X0334700Y0129841D01*
X0334700Y0131039D02*
X0361000Y0131039D01*
X0361818Y0132238D02*
X0333882Y0132238D01*
X0332683Y0133436D02*
X0363017Y0133436D01*
X0364215Y0134635D02*
X0331485Y0134635D01*
X0326715Y0134635D02*
X0321485Y0134635D01*
X0322683Y0133436D02*
X0325517Y0133436D01*
X0324318Y0132238D02*
X0323882Y0132238D01*
X0321731Y0153811D02*
X0326469Y0153811D01*
X0325271Y0155009D02*
X0322929Y0155009D01*
X0331731Y0153811D02*
X0363969Y0153811D01*
X0362771Y0155009D02*
X0332929Y0155009D01*
X0334128Y0156208D02*
X0361572Y0156208D01*
X0361000Y0157406D02*
X0334700Y0157406D01*
X0334700Y0158605D02*
X0361000Y0158605D01*
X0361000Y0159803D02*
X0334700Y0159803D01*
X0334700Y0161002D02*
X0361000Y0161002D01*
X0361781Y0162201D02*
X0333919Y0162201D01*
X0335257Y0162350D02*
X0337943Y0162350D01*
X0340424Y0163378D01*
X0342322Y0165276D01*
X0343350Y0167757D01*
X0343350Y0170443D01*
X0342322Y0172924D01*
X0340424Y0174822D01*
X0337943Y0175850D01*
X0335257Y0175850D01*
X0332776Y0174822D01*
X0330878Y0172924D01*
X0329850Y0170443D01*
X0329850Y0167757D01*
X0330878Y0165276D01*
X0332776Y0163378D01*
X0335257Y0162350D01*
X0332755Y0163399D02*
X0332721Y0163399D01*
X0331557Y0164598D02*
X0331522Y0164598D01*
X0330662Y0165796D02*
X0323716Y0165796D01*
X0324700Y0166995D02*
X0330166Y0166995D01*
X0329850Y0168193D02*
X0324700Y0168193D01*
X0324700Y0169392D02*
X0329850Y0169392D01*
X0329911Y0170590D02*
X0324700Y0170590D01*
X0324331Y0171789D02*
X0330408Y0171789D01*
X0330941Y0172987D02*
X0323132Y0172987D01*
X0321934Y0174186D02*
X0332140Y0174186D01*
X0334133Y0175384D02*
X0308304Y0175384D01*
X0309502Y0176583D02*
X0376198Y0176583D01*
X0376000Y0177781D02*
X0309700Y0177781D01*
X0309700Y0178980D02*
X0376000Y0178980D01*
X0376000Y0180178D02*
X0309700Y0180178D01*
X0309700Y0181377D02*
X0376000Y0181377D01*
X0377156Y0182575D02*
X0308544Y0182575D01*
X0307346Y0183774D02*
X0378354Y0183774D01*
X0377808Y0184972D02*
X0287892Y0184972D01*
X0287346Y0183774D02*
X0300854Y0183774D01*
X0299656Y0182575D02*
X0288544Y0182575D01*
X0289700Y0181377D02*
X0298500Y0181377D01*
X0298500Y0180178D02*
X0289700Y0180178D01*
X0289700Y0178980D02*
X0298500Y0178980D01*
X0298500Y0177781D02*
X0289700Y0177781D01*
X0289502Y0176583D02*
X0298698Y0176583D01*
X0299896Y0175384D02*
X0288304Y0175384D01*
X0287105Y0174186D02*
X0301095Y0174186D01*
X0303869Y0171789D02*
X0284331Y0171789D01*
X0284700Y0170590D02*
X0303500Y0170590D01*
X0303500Y0169392D02*
X0284700Y0169392D01*
X0284700Y0168193D02*
X0303500Y0168193D01*
X0303500Y0166995D02*
X0284700Y0166995D01*
X0283716Y0165796D02*
X0304484Y0165796D01*
X0305683Y0164598D02*
X0283061Y0164598D01*
X0285321Y0163399D02*
X0315479Y0163399D01*
X0315683Y0164598D02*
X0312517Y0164598D01*
X0313716Y0165796D02*
X0314484Y0165796D01*
X0314281Y0162201D02*
X0286477Y0162201D01*
X0286974Y0161002D02*
X0313500Y0161002D01*
X0313500Y0159803D02*
X0287300Y0159803D01*
X0287300Y0158605D02*
X0313500Y0158605D01*
X0313500Y0157406D02*
X0287060Y0157406D01*
X0286563Y0156208D02*
X0314072Y0156208D01*
X0322721Y0163399D02*
X0325479Y0163399D01*
X0324281Y0162201D02*
X0323919Y0162201D01*
X0322517Y0164598D02*
X0326678Y0164598D01*
X0340445Y0163399D02*
X0362979Y0163399D01*
X0364178Y0164598D02*
X0341643Y0164598D01*
X0342538Y0165796D02*
X0371984Y0165796D01*
X0372639Y0164598D02*
X0369022Y0164598D01*
X0370221Y0163399D02*
X0370379Y0163399D01*
X0371000Y0166995D02*
X0343034Y0166995D01*
X0343350Y0168193D02*
X0371000Y0168193D01*
X0371000Y0169392D02*
X0343350Y0169392D01*
X0343289Y0170590D02*
X0371000Y0170590D01*
X0371369Y0171789D02*
X0342792Y0171789D01*
X0342259Y0172987D02*
X0372568Y0172987D01*
X0373766Y0174186D02*
X0341060Y0174186D01*
X0339067Y0175384D02*
X0377396Y0175384D01*
X0380632Y0172987D02*
X0402568Y0172987D01*
X0401369Y0171789D02*
X0381831Y0171789D01*
X0382200Y0170590D02*
X0401000Y0170590D01*
X0401000Y0169392D02*
X0382200Y0169392D01*
X0382200Y0168193D02*
X0401000Y0168193D01*
X0401000Y0166995D02*
X0382200Y0166995D01*
X0381216Y0165796D02*
X0401984Y0165796D01*
X0403183Y0164598D02*
X0380561Y0164598D01*
X0382821Y0163399D02*
X0412979Y0163399D01*
X0413183Y0164598D02*
X0410017Y0164598D01*
X0411216Y0165796D02*
X0411984Y0165796D01*
X0411781Y0162201D02*
X0383977Y0162201D01*
X0384474Y0161002D02*
X0411000Y0161002D01*
X0411000Y0159803D02*
X0384800Y0159803D01*
X0384800Y0158605D02*
X0411000Y0158605D01*
X0411000Y0157406D02*
X0384560Y0157406D01*
X0384063Y0156208D02*
X0411572Y0156208D01*
X0419231Y0153811D02*
X0423969Y0153811D01*
X0422771Y0155009D02*
X0420429Y0155009D01*
X0429231Y0153811D02*
X0431000Y0153811D01*
X0431000Y0155009D02*
X0430429Y0155009D01*
X0432200Y0158605D02*
X0433185Y0158605D01*
X0432200Y0159803D02*
X0462800Y0159803D01*
X0462800Y0158605D02*
X0440015Y0158605D01*
X0441213Y0157406D02*
X0462800Y0157406D01*
X0462800Y0156208D02*
X0442200Y0156208D01*
X0442200Y0155009D02*
X0462800Y0155009D01*
X0462800Y0153811D02*
X0442200Y0153811D01*
X0442200Y0152612D02*
X0462800Y0152612D01*
X0462800Y0151414D02*
X0441834Y0151414D01*
X0440635Y0150215D02*
X0462800Y0150215D01*
X0462800Y0149017D02*
X0439436Y0149017D01*
X0432200Y0161002D02*
X0462800Y0161002D01*
X0462800Y0162201D02*
X0431419Y0162201D01*
X0432757Y0162350D02*
X0435443Y0162350D01*
X0437924Y0163378D01*
X0439822Y0165276D01*
X0440850Y0167757D01*
X0440850Y0170443D01*
X0439822Y0172924D01*
X0437924Y0174822D01*
X0435443Y0175850D01*
X0432757Y0175850D01*
X0430276Y0174822D01*
X0428378Y0172924D01*
X0427350Y0170443D01*
X0427350Y0167757D01*
X0428378Y0165276D01*
X0430276Y0163378D01*
X0432757Y0162350D01*
X0430255Y0163399D02*
X0430221Y0163399D01*
X0429057Y0164598D02*
X0429022Y0164598D01*
X0428162Y0165796D02*
X0421216Y0165796D01*
X0422200Y0166995D02*
X0427666Y0166995D01*
X0427350Y0168193D02*
X0422200Y0168193D01*
X0422200Y0169392D02*
X0427350Y0169392D01*
X0427411Y0170590D02*
X0422200Y0170590D01*
X0421831Y0171789D02*
X0427908Y0171789D01*
X0428441Y0172987D02*
X0420632Y0172987D01*
X0419434Y0174186D02*
X0429640Y0174186D01*
X0431633Y0175384D02*
X0405804Y0175384D01*
X0407002Y0176583D02*
X0479984Y0176583D01*
X0480154Y0176172D02*
X0479796Y0175309D01*
X0479796Y0171235D01*
X0479967Y0170822D01*
X0479796Y0170410D01*
X0479796Y0169037D01*
X0480258Y0167922D01*
X0480190Y0167757D01*
X0479998Y0167471D01*
X0479929Y0167129D01*
X0479796Y0166807D01*
X0479796Y0166463D01*
X0479729Y0166125D01*
X0479796Y0165783D01*
X0479796Y0165435D01*
X0479928Y0165116D01*
X0479995Y0164778D01*
X0480188Y0164488D01*
X0480321Y0164167D01*
X0480367Y0164122D01*
X0480321Y0164076D01*
X0479954Y0163190D01*
X0479796Y0162808D01*
X0479796Y0161436D01*
X0480321Y0160168D01*
X0480367Y0160123D01*
X0480321Y0160077D01*
X0479796Y0158809D01*
X0479796Y0157437D01*
X0480258Y0156322D01*
X0479796Y0155207D01*
X0479796Y0153834D01*
X0480321Y0152566D01*
X0481292Y0151596D01*
X0482560Y0151071D01*
X0489336Y0151071D01*
X0490604Y0151596D01*
X0491575Y0152566D01*
X0492100Y0153834D01*
X0492100Y0155207D01*
X0491638Y0156322D01*
X0492100Y0157437D01*
X0492100Y0158809D01*
X0491929Y0159222D01*
X0492100Y0159635D01*
X0492100Y0161007D01*
X0491638Y0162122D01*
X0492100Y0163237D01*
X0492100Y0164610D01*
X0491929Y0165022D01*
X0492100Y0165435D01*
X0492100Y0166807D01*
X0491638Y0167922D01*
X0491707Y0168088D01*
X0491898Y0168374D01*
X0491967Y0168716D01*
X0492100Y0169037D01*
X0492100Y0169382D01*
X0492168Y0169720D01*
X0492100Y0170062D01*
X0492100Y0170410D01*
X0491968Y0170728D01*
X0491943Y0170856D01*
X0492100Y0171235D01*
X0492100Y0175309D01*
X0491797Y0176042D01*
X0491743Y0176172D01*
X0492100Y0177035D01*
X0492100Y0180209D01*
X0491956Y0180555D01*
X0492100Y0180902D01*
X0492100Y0182275D01*
X0491638Y0183390D01*
X0492100Y0184505D01*
X0492100Y0185877D01*
X0491743Y0186740D01*
X0492100Y0187603D01*
X0492100Y0190777D01*
X0491797Y0191509D01*
X0491575Y0192045D01*
X0490674Y0192945D01*
X0490625Y0192995D01*
X0489704Y0193916D01*
X0489704Y0193916D01*
X0489471Y0194012D01*
X0488436Y0194441D01*
X0483461Y0194441D01*
X0482193Y0193916D01*
X0480321Y0192045D01*
X0479796Y0190777D01*
X0479796Y0187603D01*
X0480154Y0186740D01*
X0479796Y0185877D01*
X0479796Y0184505D01*
X0480258Y0183390D01*
X0479796Y0182275D01*
X0479796Y0180902D01*
X0479940Y0180555D01*
X0479796Y0180209D01*
X0479796Y0177035D01*
X0480154Y0176172D01*
X0479827Y0175384D02*
X0436567Y0175384D01*
X0438560Y0174186D02*
X0463907Y0174186D01*
X0462709Y0172987D02*
X0439759Y0172987D01*
X0440292Y0171789D02*
X0461510Y0171789D01*
X0461100Y0170590D02*
X0440789Y0170590D01*
X0440850Y0169392D02*
X0461100Y0169392D01*
X0461100Y0168193D02*
X0440850Y0168193D01*
X0440534Y0166995D02*
X0461100Y0166995D01*
X0462126Y0165796D02*
X0440038Y0165796D01*
X0439143Y0164598D02*
X0462800Y0164598D01*
X0462800Y0163399D02*
X0437945Y0163399D01*
X0424178Y0164598D02*
X0420017Y0164598D01*
X0420221Y0163399D02*
X0422979Y0163399D01*
X0421781Y0162201D02*
X0421419Y0162201D01*
X0412568Y0172987D02*
X0410632Y0172987D01*
X0409434Y0174186D02*
X0413766Y0174186D01*
X0407200Y0177781D02*
X0479796Y0177781D01*
X0479796Y0178980D02*
X0407200Y0178980D01*
X0407200Y0180178D02*
X0469465Y0180178D01*
X0470257Y0179850D02*
X0472943Y0179850D01*
X0475424Y0180878D01*
X0477322Y0182776D01*
X0478350Y0185257D01*
X0478350Y0187943D01*
X0477322Y0190424D01*
X0475424Y0192322D01*
X0472943Y0193350D01*
X0470257Y0193350D01*
X0467776Y0192322D01*
X0465878Y0190424D01*
X0464850Y0187943D01*
X0464850Y0185257D01*
X0465878Y0182776D01*
X0467776Y0180878D01*
X0470257Y0179850D01*
X0467277Y0181377D02*
X0407200Y0181377D01*
X0406044Y0182575D02*
X0466079Y0182575D01*
X0465465Y0183774D02*
X0404846Y0183774D01*
X0398354Y0183774D02*
X0384846Y0183774D01*
X0385392Y0184972D02*
X0464968Y0184972D01*
X0464850Y0186171D02*
X0386590Y0186171D01*
X0387200Y0187369D02*
X0464850Y0187369D01*
X0465109Y0188568D02*
X0387200Y0188568D01*
X0387200Y0189766D02*
X0465605Y0189766D01*
X0466419Y0190965D02*
X0387200Y0190965D01*
X0386456Y0192163D02*
X0467617Y0192163D01*
X0475583Y0192163D02*
X0480440Y0192163D01*
X0479874Y0190965D02*
X0476781Y0190965D01*
X0477595Y0189766D02*
X0479796Y0189766D01*
X0479796Y0188568D02*
X0478091Y0188568D01*
X0478350Y0187369D02*
X0479893Y0187369D01*
X0479918Y0186171D02*
X0478350Y0186171D01*
X0478232Y0184972D02*
X0479796Y0184972D01*
X0480099Y0183774D02*
X0477735Y0183774D01*
X0477121Y0182575D02*
X0479921Y0182575D01*
X0479796Y0181377D02*
X0475923Y0181377D01*
X0473735Y0180178D02*
X0479796Y0180178D01*
X0479796Y0174186D02*
X0469293Y0174186D01*
X0470491Y0172987D02*
X0479796Y0172987D01*
X0479796Y0171789D02*
X0471690Y0171789D01*
X0472100Y0170590D02*
X0479871Y0170590D01*
X0479796Y0169392D02*
X0472100Y0169392D01*
X0472100Y0168193D02*
X0480146Y0168193D01*
X0479874Y0166995D02*
X0472100Y0166995D01*
X0471074Y0165796D02*
X0479794Y0165796D01*
X0480115Y0164598D02*
X0470400Y0164598D01*
X0470400Y0163399D02*
X0480041Y0163399D01*
X0479796Y0162201D02*
X0470400Y0162201D01*
X0470400Y0161002D02*
X0479976Y0161002D01*
X0480208Y0159803D02*
X0470400Y0159803D01*
X0470400Y0158605D02*
X0479796Y0158605D01*
X0479809Y0157406D02*
X0470400Y0157406D01*
X0470400Y0156208D02*
X0480211Y0156208D01*
X0479796Y0155009D02*
X0470400Y0155009D01*
X0470400Y0153811D02*
X0479806Y0153811D01*
X0480302Y0152612D02*
X0470400Y0152612D01*
X0470400Y0151414D02*
X0481731Y0151414D01*
X0483994Y0149447D02*
X0483023Y0148477D01*
X0482498Y0147209D01*
X0482498Y0142234D01*
X0483023Y0140966D01*
X0483994Y0139995D01*
X0485262Y0139470D01*
X0486634Y0139470D01*
X0487902Y0139995D01*
X0488873Y0140966D01*
X0489398Y0142234D01*
X0489398Y0147209D01*
X0488873Y0148477D01*
X0487902Y0149447D01*
X0486634Y0149973D01*
X0485262Y0149973D01*
X0483994Y0149447D01*
X0483563Y0149017D02*
X0470400Y0149017D01*
X0470400Y0150215D02*
X0499421Y0150215D01*
X0499421Y0149017D02*
X0488333Y0149017D01*
X0489146Y0147818D02*
X0499421Y0147818D01*
X0499421Y0146620D02*
X0489398Y0146620D01*
X0489398Y0145421D02*
X0499421Y0145421D01*
X0499421Y0144223D02*
X0489398Y0144223D01*
X0489398Y0143024D02*
X0499421Y0143024D01*
X0499421Y0141826D02*
X0489229Y0141826D01*
X0488534Y0140627D02*
X0499421Y0140627D01*
X0499421Y0139429D02*
X0470400Y0139429D01*
X0470400Y0140627D02*
X0483362Y0140627D01*
X0482667Y0141826D02*
X0470400Y0141826D01*
X0470400Y0143024D02*
X0482498Y0143024D01*
X0482498Y0144223D02*
X0470400Y0144223D01*
X0470400Y0145421D02*
X0482498Y0145421D01*
X0482498Y0146620D02*
X0470400Y0146620D01*
X0470400Y0147818D02*
X0482751Y0147818D01*
X0490165Y0151414D02*
X0499421Y0151414D01*
X0499421Y0152612D02*
X0491594Y0152612D01*
X0492090Y0153811D02*
X0499421Y0153811D01*
X0499421Y0155009D02*
X0492100Y0155009D01*
X0491685Y0156208D02*
X0499421Y0156208D01*
X0499421Y0157406D02*
X0492087Y0157406D01*
X0492100Y0158605D02*
X0499421Y0158605D01*
X0499421Y0159803D02*
X0492100Y0159803D01*
X0492100Y0161002D02*
X0499421Y0161002D01*
X0499421Y0162201D02*
X0491671Y0162201D01*
X0492100Y0163399D02*
X0499421Y0163399D01*
X0499421Y0164598D02*
X0492100Y0164598D01*
X0492100Y0165796D02*
X0499421Y0165796D01*
X0499421Y0166995D02*
X0492022Y0166995D01*
X0491777Y0168193D02*
X0499421Y0168193D01*
X0499421Y0169392D02*
X0492102Y0169392D01*
X0492025Y0170590D02*
X0499421Y0170590D01*
X0499421Y0171789D02*
X0492100Y0171789D01*
X0492100Y0172987D02*
X0499421Y0172987D01*
X0499421Y0174186D02*
X0492100Y0174186D01*
X0492069Y0175384D02*
X0499421Y0175384D01*
X0499421Y0176583D02*
X0491913Y0176583D01*
X0492100Y0177781D02*
X0499421Y0177781D01*
X0499421Y0178980D02*
X0492100Y0178980D01*
X0492100Y0180178D02*
X0499421Y0180178D01*
X0499421Y0181377D02*
X0492100Y0181377D01*
X0491975Y0182575D02*
X0499421Y0182575D01*
X0499421Y0183774D02*
X0491797Y0183774D01*
X0492100Y0184972D02*
X0499421Y0184972D01*
X0499421Y0186171D02*
X0491978Y0186171D01*
X0492003Y0187369D02*
X0499421Y0187369D01*
X0499421Y0188568D02*
X0492100Y0188568D01*
X0492100Y0189766D02*
X0499421Y0189766D01*
X0499421Y0190965D02*
X0492022Y0190965D01*
X0491456Y0192163D02*
X0499421Y0192163D01*
X0499421Y0193362D02*
X0490258Y0193362D01*
X0489336Y0195539D02*
X0490604Y0196064D01*
X0491575Y0197035D01*
X0492100Y0198303D01*
X0492100Y0203278D01*
X0491743Y0204141D01*
X0492100Y0205004D01*
X0492100Y0208177D01*
X0491788Y0208931D01*
X0491743Y0209040D01*
X0492100Y0209903D01*
X0492100Y0214878D01*
X0491929Y0215291D01*
X0492100Y0215703D01*
X0492100Y0217076D01*
X0491575Y0218344D01*
X0490604Y0219314D01*
X0489336Y0219840D01*
X0489178Y0219840D01*
X0486101Y0222917D01*
X0484833Y0223442D01*
X0482560Y0223442D01*
X0481292Y0222917D01*
X0480321Y0221946D01*
X0479796Y0220678D01*
X0479796Y0215703D01*
X0480321Y0214435D01*
X0480367Y0214390D01*
X0480321Y0214345D01*
X0479954Y0213459D01*
X0479796Y0213077D01*
X0479796Y0211704D01*
X0480321Y0210436D01*
X0480817Y0209941D01*
X0480321Y0209445D01*
X0479796Y0208177D01*
X0479796Y0205004D01*
X0480225Y0203968D01*
X0480321Y0203736D01*
X0480321Y0203736D01*
X0480321Y0203736D01*
X0480367Y0203690D01*
X0480321Y0203645D01*
X0479796Y0202377D01*
X0479796Y0199203D01*
X0480238Y0198138D01*
X0480321Y0197935D01*
X0481271Y0196985D01*
X0481292Y0196965D01*
X0482193Y0196064D01*
X0483461Y0195539D01*
X0484833Y0195539D01*
X0486101Y0196064D01*
X0486398Y0196362D01*
X0486696Y0196064D01*
X0487964Y0195539D01*
X0489336Y0195539D01*
X0489867Y0195759D02*
X0499421Y0195759D01*
X0499421Y0196957D02*
X0491497Y0196957D01*
X0492039Y0198156D02*
X0499421Y0198156D01*
X0499421Y0199354D02*
X0492100Y0199354D01*
X0492100Y0200553D02*
X0499421Y0200553D01*
X0499421Y0201751D02*
X0492100Y0201751D01*
X0492100Y0202950D02*
X0499421Y0202950D01*
X0499421Y0204148D02*
X0491746Y0204148D01*
X0492100Y0205347D02*
X0499421Y0205347D01*
X0499421Y0206545D02*
X0492100Y0206545D01*
X0492100Y0207744D02*
X0499421Y0207744D01*
X0499421Y0208942D02*
X0491783Y0208942D01*
X0492100Y0210141D02*
X0499421Y0210141D01*
X0499421Y0211339D02*
X0492100Y0211339D01*
X0492100Y0212538D02*
X0499421Y0212538D01*
X0499421Y0213737D02*
X0492100Y0213737D01*
X0492076Y0214935D02*
X0499421Y0214935D01*
X0499421Y0216134D02*
X0492100Y0216134D01*
X0491994Y0217332D02*
X0499421Y0217332D01*
X0499421Y0218531D02*
X0491388Y0218531D01*
X0489603Y0219729D02*
X0499421Y0219729D01*
X0499421Y0220928D02*
X0488090Y0220928D01*
X0486892Y0222126D02*
X0499421Y0222126D01*
X0499421Y0223325D02*
X0485117Y0223325D01*
X0482276Y0223325D02*
X0463100Y0223325D01*
X0463100Y0222907D02*
X0463100Y0225293D01*
X0462187Y0227499D01*
X0460499Y0229187D01*
X0458293Y0230100D01*
X0449907Y0230100D01*
X0447701Y0229187D01*
X0446013Y0227499D01*
X0445100Y0225293D01*
X0445100Y0222907D01*
X0446013Y0220701D01*
X0447701Y0219013D01*
X0449907Y0218100D01*
X0458293Y0218100D01*
X0460499Y0219013D01*
X0462187Y0220701D01*
X0463100Y0222907D01*
X0462777Y0222126D02*
X0480501Y0222126D01*
X0479899Y0220928D02*
X0462280Y0220928D01*
X0461214Y0219729D02*
X0479796Y0219729D01*
X0479796Y0218531D02*
X0459333Y0218531D01*
X0463100Y0224523D02*
X0499421Y0224523D01*
X0499421Y0225722D02*
X0462923Y0225722D01*
X0462426Y0226920D02*
X0499421Y0226920D01*
X0499421Y0228119D02*
X0461567Y0228119D01*
X0460183Y0229317D02*
X0499421Y0229317D01*
X0499421Y0230516D02*
X0418320Y0230516D01*
X0418350Y0230443D02*
X0417322Y0232924D01*
X0415424Y0234822D01*
X0412943Y0235850D01*
X0410257Y0235850D01*
X0407776Y0234822D01*
X0405878Y0232924D01*
X0404850Y0230443D01*
X0404850Y0227757D01*
X0405878Y0225276D01*
X0407776Y0223378D01*
X0410257Y0222350D01*
X0412943Y0222350D01*
X0415424Y0223378D01*
X0417322Y0225276D01*
X0418350Y0227757D01*
X0418350Y0230443D01*
X0418350Y0229317D02*
X0448017Y0229317D01*
X0446633Y0228119D02*
X0418350Y0228119D01*
X0418003Y0226920D02*
X0445774Y0226920D01*
X0445277Y0225722D02*
X0417507Y0225722D01*
X0416569Y0224523D02*
X0445100Y0224523D01*
X0445100Y0223325D02*
X0415296Y0223325D01*
X0407904Y0223325D02*
X0404488Y0223325D01*
X0404700Y0222814D02*
X0403847Y0224872D01*
X0402272Y0226447D01*
X0400214Y0227300D01*
X0397986Y0227300D01*
X0395928Y0226447D01*
X0394353Y0224872D01*
X0393500Y0222814D01*
X0393500Y0215386D01*
X0394353Y0213328D01*
X0395928Y0211753D01*
X0397986Y0210900D01*
X0400214Y0210900D01*
X0402272Y0211753D01*
X0403500Y0212980D01*
X0403500Y0209280D01*
X0406780Y0206000D01*
X0411420Y0206000D01*
X0414700Y0209280D01*
X0414700Y0213920D01*
X0411420Y0217200D01*
X0406780Y0217200D01*
X0404512Y0214931D01*
X0404700Y0215386D01*
X0404700Y0222814D01*
X0404700Y0222126D02*
X0445423Y0222126D01*
X0445920Y0220928D02*
X0404700Y0220928D01*
X0404700Y0219729D02*
X0446986Y0219729D01*
X0448867Y0218531D02*
X0404700Y0218531D01*
X0404700Y0217332D02*
X0479796Y0217332D01*
X0479796Y0216134D02*
X0442486Y0216134D01*
X0441420Y0217200D02*
X0436780Y0217200D01*
X0433500Y0213920D01*
X0433500Y0209280D01*
X0436180Y0206600D01*
X0433500Y0203920D01*
X0433500Y0199280D01*
X0436780Y0196000D01*
X0441420Y0196000D01*
X0444700Y0199280D01*
X0444700Y0203920D01*
X0442020Y0206600D01*
X0444700Y0209280D01*
X0444700Y0213920D01*
X0441420Y0217200D01*
X0443685Y0214935D02*
X0480114Y0214935D01*
X0480069Y0213737D02*
X0444700Y0213737D01*
X0444700Y0212538D02*
X0479796Y0212538D01*
X0479947Y0211339D02*
X0444700Y0211339D01*
X0444700Y0210141D02*
X0480617Y0210141D01*
X0480113Y0208942D02*
X0474677Y0208942D01*
X0473920Y0209700D02*
X0469280Y0209700D01*
X0466000Y0206420D01*
X0466000Y0201780D01*
X0469280Y0198500D01*
X0473920Y0198500D01*
X0477200Y0201780D01*
X0477200Y0206420D01*
X0473920Y0209700D01*
X0475876Y0207744D02*
X0479796Y0207744D01*
X0479796Y0206545D02*
X0477074Y0206545D01*
X0477200Y0205347D02*
X0479796Y0205347D01*
X0480150Y0204148D02*
X0477200Y0204148D01*
X0477200Y0202950D02*
X0480033Y0202950D01*
X0479796Y0201751D02*
X0477171Y0201751D01*
X0475972Y0200553D02*
X0479796Y0200553D01*
X0479796Y0199354D02*
X0474774Y0199354D01*
X0480230Y0198156D02*
X0443575Y0198156D01*
X0444700Y0199354D02*
X0468426Y0199354D01*
X0467228Y0200553D02*
X0444700Y0200553D01*
X0444700Y0201751D02*
X0466029Y0201751D01*
X0466000Y0202950D02*
X0444700Y0202950D01*
X0444471Y0204148D02*
X0466000Y0204148D01*
X0466000Y0205347D02*
X0443273Y0205347D01*
X0442074Y0206545D02*
X0466126Y0206545D01*
X0467324Y0207744D02*
X0443164Y0207744D01*
X0444362Y0208942D02*
X0468523Y0208942D01*
X0480321Y0197935D02*
X0480321Y0197935D01*
X0480321Y0197935D01*
X0481292Y0196965D02*
X0481292Y0196965D01*
X0481299Y0196957D02*
X0442377Y0196957D01*
X0435823Y0196957D02*
X0382300Y0196957D01*
X0382300Y0195759D02*
X0482930Y0195759D01*
X0485364Y0195759D02*
X0487433Y0195759D01*
X0481639Y0193362D02*
X0385258Y0193362D01*
X0384059Y0194560D02*
X0499421Y0194560D01*
X0499421Y0231714D02*
X0417823Y0231714D01*
X0417327Y0232913D02*
X0499421Y0232913D01*
X0499421Y0234111D02*
X0416135Y0234111D01*
X0414247Y0235310D02*
X0499421Y0235310D01*
X0499421Y0236508D02*
X0317225Y0236508D01*
X0317225Y0235424D02*
X0312876Y0231075D01*
X0306724Y0231075D01*
X0302375Y0235424D01*
X0302375Y0241576D01*
X0306724Y0245925D01*
X0312876Y0245925D01*
X0317225Y0241576D01*
X0317225Y0235424D01*
X0317110Y0235310D02*
X0408953Y0235310D01*
X0407065Y0234111D02*
X0315912Y0234111D01*
X0314713Y0232913D02*
X0336028Y0232913D01*
X0337023Y0233325D02*
X0334294Y0232195D01*
X0332205Y0230106D01*
X0331075Y0227377D01*
X0331075Y0224423D01*
X0332205Y0221694D01*
X0334294Y0219605D01*
X0337023Y0218475D01*
X0339977Y0218475D01*
X0340987Y0218894D01*
X0342105Y0216194D01*
X0344194Y0214105D01*
X0346923Y0212975D01*
X0349877Y0212975D01*
X0352606Y0214105D01*
X0354695Y0216194D01*
X0355825Y0218923D01*
X0355825Y0221877D01*
X0354695Y0224606D01*
X0352606Y0226695D01*
X0349877Y0227825D01*
X0346923Y0227825D01*
X0345913Y0227406D01*
X0344795Y0230106D01*
X0342706Y0232195D01*
X0339977Y0233325D01*
X0337023Y0233325D01*
X0333814Y0231714D02*
X0313515Y0231714D01*
X0317225Y0237707D02*
X0499421Y0237707D01*
X0499421Y0238905D02*
X0460237Y0238905D01*
X0460499Y0239013D02*
X0462187Y0240701D01*
X0463100Y0242907D01*
X0463100Y0245293D01*
X0462187Y0247499D01*
X0460499Y0249187D01*
X0458293Y0250100D01*
X0449907Y0250100D01*
X0447701Y0249187D01*
X0446013Y0247499D01*
X0445100Y0245293D01*
X0445100Y0242907D01*
X0446013Y0240701D01*
X0447701Y0239013D01*
X0449907Y0238100D01*
X0458293Y0238100D01*
X0460499Y0239013D01*
X0461589Y0240104D02*
X0499421Y0240104D01*
X0499421Y0241302D02*
X0462435Y0241302D01*
X0462932Y0242501D02*
X0499421Y0242501D01*
X0499421Y0243699D02*
X0463100Y0243699D01*
X0463100Y0244898D02*
X0499421Y0244898D01*
X0499421Y0246096D02*
X0462767Y0246096D01*
X0462271Y0247295D02*
X0499421Y0247295D01*
X0499421Y0248493D02*
X0461192Y0248493D01*
X0459279Y0249692D02*
X0499421Y0249692D01*
X0499421Y0250890D02*
X0417200Y0250890D01*
X0417200Y0251420D02*
X0413920Y0254700D01*
X0409280Y0254700D01*
X0406000Y0251420D01*
X0406000Y0246780D01*
X0409280Y0243500D01*
X0413920Y0243500D01*
X0417200Y0246780D01*
X0417200Y0251420D01*
X0416531Y0252089D02*
X0499421Y0252089D01*
X0499421Y0253287D02*
X0415332Y0253287D01*
X0414134Y0254486D02*
X0499421Y0254486D01*
X0499421Y0255684D02*
X0403035Y0255684D01*
X0402272Y0256447D02*
X0400214Y0257300D01*
X0397986Y0257300D01*
X0395928Y0256447D01*
X0394353Y0254872D01*
X0393500Y0252814D01*
X0393500Y0245386D01*
X0394353Y0243328D01*
X0395928Y0241753D01*
X0397986Y0240900D01*
X0400214Y0240900D01*
X0402272Y0241753D01*
X0403847Y0243328D01*
X0404700Y0245386D01*
X0404700Y0252814D01*
X0403847Y0254872D01*
X0402272Y0256447D01*
X0401221Y0256883D02*
X0499421Y0256883D01*
X0499421Y0258081D02*
X0006200Y0258081D01*
X0006200Y0256883D02*
X0396979Y0256883D01*
X0395165Y0255684D02*
X0006200Y0255684D01*
X0006200Y0254486D02*
X0394193Y0254486D01*
X0393696Y0253287D02*
X0006200Y0253287D01*
X0006200Y0252089D02*
X0393500Y0252089D01*
X0393500Y0250890D02*
X0006200Y0250890D01*
X0006200Y0249692D02*
X0393500Y0249692D01*
X0393500Y0248493D02*
X0006200Y0248493D01*
X0006200Y0247295D02*
X0393500Y0247295D01*
X0393500Y0246096D02*
X0006200Y0246096D01*
X0006200Y0244898D02*
X0205697Y0244898D01*
X0206724Y0245925D02*
X0202375Y0241576D01*
X0202375Y0235424D01*
X0206724Y0231075D01*
X0212876Y0231075D01*
X0217225Y0235424D01*
X0217225Y0241576D01*
X0212876Y0245925D01*
X0206724Y0245925D01*
X0204499Y0243699D02*
X0006200Y0243699D01*
X0006200Y0242501D02*
X0203300Y0242501D01*
X0202375Y0241302D02*
X0006200Y0241302D01*
X0006200Y0240104D02*
X0052322Y0240104D01*
X0052402Y0240137D02*
X0049264Y0238837D01*
X0046863Y0236436D01*
X0045563Y0233298D01*
X0045563Y0229902D01*
X0046863Y0226764D01*
X0049264Y0224363D01*
X0052402Y0223063D01*
X0055798Y0223063D01*
X0058936Y0224363D01*
X0061337Y0226764D01*
X0062637Y0229902D01*
X0062637Y0233298D01*
X0061337Y0236436D01*
X0058936Y0238837D01*
X0055798Y0240137D01*
X0052402Y0240137D01*
X0049428Y0238905D02*
X0006200Y0238905D01*
X0006200Y0237707D02*
X0048134Y0237707D01*
X0046935Y0236508D02*
X0006200Y0236508D01*
X0006200Y0235310D02*
X0046396Y0235310D01*
X0045900Y0234111D02*
X0006200Y0234111D01*
X0006200Y0232913D02*
X0045563Y0232913D01*
X0045563Y0231714D02*
X0006200Y0231714D01*
X0006200Y0230516D02*
X0045563Y0230516D01*
X0045805Y0229317D02*
X0006200Y0229317D01*
X0006200Y0228119D02*
X0046302Y0228119D01*
X0046798Y0226920D02*
X0006200Y0226920D01*
X0006200Y0225722D02*
X0047905Y0225722D01*
X0049104Y0224523D02*
X0006200Y0224523D01*
X0006200Y0223325D02*
X0051770Y0223325D01*
X0056430Y0223325D02*
X0091770Y0223325D01*
X0092402Y0223063D02*
X0089264Y0224363D01*
X0086863Y0226764D01*
X0085563Y0229902D01*
X0085563Y0233298D01*
X0086863Y0236436D01*
X0089264Y0238837D01*
X0092402Y0240137D01*
X0095798Y0240137D01*
X0098936Y0238837D01*
X0101337Y0236436D01*
X0102637Y0233298D01*
X0102637Y0229902D01*
X0101337Y0226764D01*
X0098936Y0224363D01*
X0095798Y0223063D01*
X0092402Y0223063D01*
X0089104Y0224523D02*
X0059096Y0224523D01*
X0060295Y0225722D02*
X0087905Y0225722D01*
X0086798Y0226920D02*
X0061402Y0226920D01*
X0061898Y0228119D02*
X0086302Y0228119D01*
X0085805Y0229317D02*
X0062395Y0229317D01*
X0062637Y0230516D02*
X0085563Y0230516D01*
X0085563Y0231714D02*
X0062637Y0231714D01*
X0062637Y0232913D02*
X0085563Y0232913D01*
X0085900Y0234111D02*
X0062300Y0234111D01*
X0061804Y0235310D02*
X0086396Y0235310D01*
X0086935Y0236508D02*
X0061265Y0236508D01*
X0060066Y0237707D02*
X0088134Y0237707D01*
X0089428Y0238905D02*
X0058772Y0238905D01*
X0055878Y0240104D02*
X0092322Y0240104D01*
X0095878Y0240104D02*
X0132322Y0240104D01*
X0132402Y0240137D02*
X0129264Y0238837D01*
X0126863Y0236436D01*
X0125563Y0233298D01*
X0125563Y0229902D01*
X0126863Y0226764D01*
X0129264Y0224363D01*
X0132402Y0223063D01*
X0135798Y0223063D01*
X0138936Y0224363D01*
X0141337Y0226764D01*
X0142637Y0229902D01*
X0142637Y0233298D01*
X0141337Y0236436D01*
X0138936Y0238837D01*
X0135798Y0240137D01*
X0132402Y0240137D01*
X0129428Y0238905D02*
X0098772Y0238905D01*
X0100066Y0237707D02*
X0128134Y0237707D01*
X0126935Y0236508D02*
X0101265Y0236508D01*
X0101804Y0235310D02*
X0126396Y0235310D01*
X0125900Y0234111D02*
X0102300Y0234111D01*
X0102637Y0232913D02*
X0125563Y0232913D01*
X0125563Y0231714D02*
X0102637Y0231714D01*
X0102637Y0230516D02*
X0125563Y0230516D01*
X0125805Y0229317D02*
X0102395Y0229317D01*
X0101898Y0228119D02*
X0126302Y0228119D01*
X0126798Y0226920D02*
X0101402Y0226920D01*
X0100295Y0225722D02*
X0127905Y0225722D01*
X0129104Y0224523D02*
X0099096Y0224523D01*
X0096430Y0223325D02*
X0131770Y0223325D01*
X0136430Y0223325D02*
X0171770Y0223325D01*
X0172402Y0223063D02*
X0175798Y0223063D01*
X0178936Y0224363D01*
X0181337Y0226764D01*
X0182637Y0229902D01*
X0182637Y0233298D01*
X0181337Y0236436D01*
X0178936Y0238837D01*
X0175798Y0240137D01*
X0172402Y0240137D01*
X0169264Y0238837D01*
X0166863Y0236436D01*
X0165563Y0233298D01*
X0165563Y0229902D01*
X0166863Y0226764D01*
X0169264Y0224363D01*
X0172402Y0223063D01*
X0169104Y0224523D02*
X0139096Y0224523D01*
X0140295Y0225722D02*
X0167905Y0225722D01*
X0166798Y0226920D02*
X0141402Y0226920D01*
X0141898Y0228119D02*
X0166302Y0228119D01*
X0165805Y0229317D02*
X0142395Y0229317D01*
X0142637Y0230516D02*
X0165563Y0230516D01*
X0165563Y0231714D02*
X0142637Y0231714D01*
X0142637Y0232913D02*
X0165563Y0232913D01*
X0165900Y0234111D02*
X0142300Y0234111D01*
X0141804Y0235310D02*
X0166396Y0235310D01*
X0166935Y0236508D02*
X0141265Y0236508D01*
X0140066Y0237707D02*
X0168134Y0237707D01*
X0169428Y0238905D02*
X0138772Y0238905D01*
X0135878Y0240104D02*
X0172322Y0240104D01*
X0175878Y0240104D02*
X0202375Y0240104D01*
X0202375Y0238905D02*
X0178772Y0238905D01*
X0180066Y0237707D02*
X0202375Y0237707D01*
X0202375Y0236508D02*
X0181265Y0236508D01*
X0181804Y0235310D02*
X0202490Y0235310D01*
X0203688Y0234111D02*
X0182300Y0234111D01*
X0182637Y0232913D02*
X0204887Y0232913D01*
X0206085Y0231714D02*
X0182637Y0231714D01*
X0182637Y0230516D02*
X0232615Y0230516D01*
X0232205Y0230106D02*
X0231075Y0227377D01*
X0231075Y0224423D01*
X0232205Y0221694D01*
X0234294Y0219605D01*
X0237023Y0218475D01*
X0239977Y0218475D01*
X0240987Y0218894D01*
X0242105Y0216194D01*
X0244194Y0214105D01*
X0246923Y0212975D01*
X0249877Y0212975D01*
X0252606Y0214105D01*
X0254695Y0216194D01*
X0255825Y0218923D01*
X0255825Y0221877D01*
X0254695Y0224606D01*
X0252606Y0226695D01*
X0249877Y0227825D01*
X0246923Y0227825D01*
X0245913Y0227406D01*
X0244795Y0230106D01*
X0242706Y0232195D01*
X0239977Y0233325D01*
X0237023Y0233325D01*
X0234294Y0232195D01*
X0232205Y0230106D01*
X0231879Y0229317D02*
X0182395Y0229317D01*
X0181898Y0228119D02*
X0231382Y0228119D01*
X0231075Y0226920D02*
X0181402Y0226920D01*
X0180295Y0225722D02*
X0231075Y0225722D01*
X0231075Y0224523D02*
X0179096Y0224523D01*
X0176430Y0223325D02*
X0231530Y0223325D01*
X0232026Y0222126D02*
X0006200Y0222126D01*
X0006200Y0220928D02*
X0232972Y0220928D01*
X0234170Y0219729D02*
X0006200Y0219729D01*
X0006200Y0218531D02*
X0236889Y0218531D01*
X0240111Y0218531D02*
X0241138Y0218531D01*
X0241634Y0217332D02*
X0155344Y0217332D01*
X0155248Y0217372D02*
X0152952Y0217372D01*
X0150831Y0216493D01*
X0149207Y0214869D01*
X0148328Y0212748D01*
X0148328Y0210452D01*
X0149207Y0208331D01*
X0150831Y0206707D01*
X0152952Y0205828D01*
X0155248Y0205828D01*
X0157369Y0206707D01*
X0158993Y0208331D01*
X0159872Y0210452D01*
X0159872Y0212748D01*
X0158993Y0214869D01*
X0157369Y0216493D01*
X0155248Y0217372D01*
X0152856Y0217332D02*
X0075344Y0217332D01*
X0075248Y0217372D02*
X0072952Y0217372D01*
X0070831Y0216493D01*
X0069207Y0214869D01*
X0068328Y0212748D01*
X0068328Y0210452D01*
X0069207Y0208331D01*
X0070831Y0206707D01*
X0072952Y0205828D01*
X0075248Y0205828D01*
X0077369Y0206707D01*
X0078993Y0208331D01*
X0079872Y0210452D01*
X0079872Y0212748D01*
X0078993Y0214869D01*
X0077369Y0216493D01*
X0075248Y0217372D01*
X0072856Y0217332D02*
X0006200Y0217332D01*
X0006200Y0216134D02*
X0070471Y0216134D01*
X0069273Y0214935D02*
X0006200Y0214935D01*
X0006200Y0213737D02*
X0068738Y0213737D01*
X0068328Y0212538D02*
X0006200Y0212538D01*
X0006200Y0211339D02*
X0068328Y0211339D01*
X0068457Y0210141D02*
X0006200Y0210141D01*
X0006200Y0208942D02*
X0068954Y0208942D01*
X0069794Y0207744D02*
X0006200Y0207744D01*
X0006200Y0206545D02*
X0071221Y0206545D01*
X0076979Y0206545D02*
X0151221Y0206545D01*
X0149794Y0207744D02*
X0078406Y0207744D01*
X0079246Y0208942D02*
X0148954Y0208942D01*
X0148457Y0210141D02*
X0079743Y0210141D01*
X0079872Y0211339D02*
X0148328Y0211339D01*
X0148328Y0212538D02*
X0079872Y0212538D01*
X0079462Y0213737D02*
X0148738Y0213737D01*
X0149273Y0214935D02*
X0078927Y0214935D01*
X0077729Y0216134D02*
X0150471Y0216134D01*
X0157729Y0216134D02*
X0208533Y0216134D01*
X0208824Y0216425D02*
X0204475Y0212076D01*
X0204475Y0205924D01*
X0208824Y0201575D01*
X0214976Y0201575D01*
X0219325Y0205924D01*
X0219325Y0212076D01*
X0214976Y0216425D01*
X0208824Y0216425D01*
X0207334Y0214935D02*
X0158927Y0214935D01*
X0159462Y0213737D02*
X0206136Y0213737D01*
X0204937Y0212538D02*
X0159872Y0212538D01*
X0159872Y0211339D02*
X0204475Y0211339D01*
X0204475Y0210141D02*
X0159743Y0210141D01*
X0159246Y0208942D02*
X0204475Y0208942D01*
X0204475Y0207744D02*
X0158406Y0207744D01*
X0156979Y0206545D02*
X0204475Y0206545D01*
X0205053Y0205347D02*
X0006200Y0205347D01*
X0006200Y0204148D02*
X0146413Y0204148D01*
X0145928Y0203947D02*
X0144353Y0202372D01*
X0143500Y0200314D01*
X0143500Y0200120D01*
X0141420Y0202200D01*
X0136780Y0202200D01*
X0133500Y0198920D01*
X0133500Y0194280D01*
X0136780Y0191000D01*
X0141420Y0191000D01*
X0143500Y0193080D01*
X0143500Y0192886D01*
X0144353Y0190828D01*
X0145928Y0189253D01*
X0147986Y0188400D01*
X0150214Y0188400D01*
X0152272Y0189253D01*
X0153847Y0190828D01*
X0154700Y0192886D01*
X0154700Y0193080D01*
X0156780Y0191000D01*
X0161420Y0191000D01*
X0164700Y0194280D01*
X0164700Y0198920D01*
X0161420Y0202200D01*
X0156780Y0202200D01*
X0154700Y0200120D01*
X0154700Y0200314D01*
X0153847Y0202372D01*
X0152272Y0203947D01*
X0150214Y0204800D01*
X0147986Y0204800D01*
X0145928Y0203947D01*
X0144930Y0202950D02*
X0006200Y0202950D01*
X0006200Y0201751D02*
X0123832Y0201751D01*
X0124280Y0202200D02*
X0121000Y0198920D01*
X0121000Y0194280D01*
X0124280Y0191000D01*
X0128920Y0191000D01*
X0132200Y0194280D01*
X0132200Y0198920D01*
X0128920Y0202200D01*
X0124280Y0202200D01*
X0122633Y0200553D02*
X0006200Y0200553D01*
X0006200Y0199354D02*
X0121435Y0199354D01*
X0121000Y0198156D02*
X0006200Y0198156D01*
X0006200Y0196957D02*
X0036538Y0196957D01*
X0036780Y0197200D02*
X0033500Y0193920D01*
X0033500Y0189280D01*
X0036780Y0186000D01*
X0041420Y0186000D01*
X0044700Y0189280D01*
X0044700Y0193920D01*
X0041420Y0197200D01*
X0036780Y0197200D01*
X0035339Y0195759D02*
X0006200Y0195759D01*
X0006200Y0194560D02*
X0034141Y0194560D01*
X0033500Y0193362D02*
X0006200Y0193362D01*
X0006200Y0192163D02*
X0033500Y0192163D01*
X0033500Y0190965D02*
X0006200Y0190965D01*
X0006200Y0189766D02*
X0033500Y0189766D01*
X0034213Y0188568D02*
X0006200Y0188568D01*
X0006200Y0187369D02*
X0035411Y0187369D01*
X0036610Y0186171D02*
X0006200Y0186171D01*
X0006200Y0184972D02*
X0054553Y0184972D01*
X0053500Y0183920D02*
X0056180Y0186600D01*
X0053500Y0189280D01*
X0053500Y0193920D01*
X0056780Y0197200D01*
X0061420Y0197200D01*
X0062850Y0195770D01*
X0064280Y0197200D01*
X0068920Y0197200D01*
X0072200Y0193920D01*
X0072200Y0189280D01*
X0068920Y0186000D01*
X0064280Y0186000D01*
X0062850Y0187430D01*
X0062020Y0186600D01*
X0064700Y0183920D01*
X0064700Y0179280D01*
X0062020Y0176600D01*
X0064700Y0173920D01*
X0064700Y0169280D01*
X0062620Y0167200D01*
X0062814Y0167200D01*
X0064872Y0166347D01*
X0066447Y0164772D01*
X0067300Y0162714D01*
X0067300Y0160486D01*
X0066447Y0158428D01*
X0064872Y0156853D01*
X0064262Y0156600D01*
X0064872Y0156347D01*
X0066447Y0154772D01*
X0067300Y0152714D01*
X0067300Y0150486D01*
X0066447Y0148428D01*
X0064872Y0146853D01*
X0064262Y0146600D01*
X0064872Y0146347D01*
X0066447Y0144772D01*
X0067300Y0142714D01*
X0067300Y0140486D01*
X0066447Y0138428D01*
X0064872Y0136853D01*
X0062814Y0136000D01*
X0055386Y0136000D01*
X0053328Y0136853D01*
X0051753Y0138428D01*
X0050900Y0140486D01*
X0050900Y0142714D01*
X0051753Y0144772D01*
X0053328Y0146347D01*
X0053938Y0146600D01*
X0053328Y0146853D01*
X0051753Y0148428D01*
X0050900Y0150486D01*
X0050900Y0152714D01*
X0051753Y0154772D01*
X0053328Y0156347D01*
X0053938Y0156600D01*
X0053328Y0156853D01*
X0051753Y0158428D01*
X0050900Y0160486D01*
X0050900Y0162714D01*
X0051753Y0164772D01*
X0053328Y0166347D01*
X0055386Y0167200D01*
X0055580Y0167200D01*
X0053500Y0169280D01*
X0053500Y0173920D01*
X0056180Y0176600D01*
X0053500Y0179280D01*
X0053500Y0183920D01*
X0053500Y0183774D02*
X0006200Y0183774D01*
X0006200Y0182575D02*
X0053500Y0182575D01*
X0053500Y0181377D02*
X0006200Y0181377D01*
X0006200Y0180178D02*
X0053500Y0180178D01*
X0053801Y0178980D02*
X0006200Y0178980D01*
X0006200Y0177781D02*
X0054999Y0177781D01*
X0056163Y0176583D02*
X0042037Y0176583D01*
X0041420Y0177200D02*
X0036780Y0177200D01*
X0033500Y0173920D01*
X0033500Y0169280D01*
X0036780Y0166000D01*
X0041420Y0166000D01*
X0044700Y0169280D01*
X0044700Y0173920D01*
X0041420Y0177200D01*
X0043235Y0175384D02*
X0054965Y0175384D01*
X0053766Y0174186D02*
X0044434Y0174186D01*
X0044700Y0172987D02*
X0053500Y0172987D01*
X0053500Y0171789D02*
X0044700Y0171789D01*
X0044700Y0170590D02*
X0053500Y0170590D01*
X0053500Y0169392D02*
X0044700Y0169392D01*
X0043613Y0168193D02*
X0054587Y0168193D01*
X0054890Y0166995D02*
X0042414Y0166995D01*
X0035786Y0166995D02*
X0029800Y0166995D01*
X0029800Y0167714D02*
X0028947Y0169772D01*
X0027372Y0171347D01*
X0025314Y0172200D01*
X0017886Y0172200D01*
X0015828Y0171347D01*
X0014253Y0169772D01*
X0013400Y0167714D01*
X0013400Y0165486D01*
X0014253Y0163428D01*
X0015828Y0161853D01*
X0016438Y0161600D01*
X0015828Y0161347D01*
X0014253Y0159772D01*
X0013400Y0157714D01*
X0013400Y0155486D01*
X0014253Y0153428D01*
X0015828Y0151853D01*
X0017886Y0151000D01*
X0023500Y0151000D01*
X0023500Y0149280D01*
X0026780Y0146000D01*
X0031420Y0146000D01*
X0034700Y0149280D01*
X0034700Y0153920D01*
X0031420Y0157200D01*
X0029800Y0157200D01*
X0029800Y0157714D01*
X0028947Y0159772D01*
X0027372Y0161347D01*
X0026762Y0161600D01*
X0027372Y0161853D01*
X0028947Y0163428D01*
X0029800Y0165486D01*
X0029800Y0167714D01*
X0029602Y0168193D02*
X0034587Y0168193D01*
X0033500Y0169392D02*
X0029105Y0169392D01*
X0028129Y0170590D02*
X0033500Y0170590D01*
X0033500Y0171789D02*
X0026307Y0171789D01*
X0029800Y0165796D02*
X0052776Y0165796D01*
X0051680Y0164598D02*
X0029432Y0164598D01*
X0028919Y0163399D02*
X0051184Y0163399D01*
X0050900Y0162201D02*
X0027720Y0162201D01*
X0027718Y0161002D02*
X0050900Y0161002D01*
X0051183Y0159803D02*
X0028916Y0159803D01*
X0029431Y0158605D02*
X0051679Y0158605D01*
X0052774Y0157406D02*
X0029800Y0157406D01*
X0032412Y0156208D02*
X0038288Y0156208D01*
X0039280Y0157200D02*
X0036000Y0153920D01*
X0036000Y0149280D01*
X0039280Y0146000D01*
X0043920Y0146000D01*
X0047200Y0149280D01*
X0047200Y0153920D01*
X0043920Y0157200D01*
X0039280Y0157200D01*
X0037090Y0155009D02*
X0033610Y0155009D01*
X0034700Y0153811D02*
X0036000Y0153811D01*
X0036000Y0152612D02*
X0034700Y0152612D01*
X0034700Y0151414D02*
X0036000Y0151414D01*
X0036000Y0150215D02*
X0034700Y0150215D01*
X0034436Y0149017D02*
X0036264Y0149017D01*
X0037462Y0147818D02*
X0033238Y0147818D01*
X0032039Y0146620D02*
X0038661Y0146620D01*
X0044539Y0146620D02*
X0053890Y0146620D01*
X0052402Y0145421D02*
X0006200Y0145421D01*
X0006200Y0144223D02*
X0051525Y0144223D01*
X0051029Y0143024D02*
X0006200Y0143024D01*
X0006200Y0141826D02*
X0050900Y0141826D01*
X0050900Y0140627D02*
X0006200Y0140627D01*
X0006200Y0139429D02*
X0051338Y0139429D01*
X0051950Y0138230D02*
X0006200Y0138230D01*
X0006200Y0137032D02*
X0053149Y0137032D01*
X0065051Y0137032D02*
X0108149Y0137032D01*
X0108328Y0136853D02*
X0108938Y0136600D01*
X0108328Y0136347D01*
X0106753Y0134772D01*
X0105900Y0132714D01*
X0105900Y0130486D01*
X0106753Y0128428D01*
X0108328Y0126853D01*
X0108938Y0126600D01*
X0108328Y0126347D01*
X0106753Y0124772D01*
X0105900Y0122714D01*
X0105900Y0120486D01*
X0106753Y0118428D01*
X0108328Y0116853D01*
X0108938Y0116600D01*
X0108328Y0116347D01*
X0106753Y0114772D01*
X0105900Y0112714D01*
X0105900Y0110486D01*
X0106753Y0108428D01*
X0108328Y0106853D01*
X0108938Y0106600D01*
X0108328Y0106347D01*
X0106753Y0104772D01*
X0105900Y0102714D01*
X0105900Y0100486D01*
X0106753Y0098428D01*
X0108328Y0096853D01*
X0110386Y0096000D01*
X0117814Y0096000D01*
X0119872Y0096853D01*
X0121447Y0098428D01*
X0122300Y0100486D01*
X0122300Y0102714D01*
X0121447Y0104772D01*
X0119872Y0106347D01*
X0119262Y0106600D01*
X0119872Y0106853D01*
X0121447Y0108428D01*
X0122300Y0110486D01*
X0122300Y0112714D01*
X0121447Y0114772D01*
X0119872Y0116347D01*
X0119262Y0116600D01*
X0119872Y0116853D01*
X0121447Y0118428D01*
X0122300Y0120486D01*
X0122300Y0122714D01*
X0121447Y0124772D01*
X0119872Y0126347D01*
X0119262Y0126600D01*
X0119872Y0126853D01*
X0121447Y0128428D01*
X0122300Y0130486D01*
X0122300Y0132714D01*
X0121447Y0134772D01*
X0119872Y0136347D01*
X0119262Y0136600D01*
X0119872Y0136853D01*
X0121447Y0138428D01*
X0122300Y0140486D01*
X0122300Y0142714D01*
X0121447Y0144772D01*
X0119872Y0146347D01*
X0119262Y0146600D01*
X0119872Y0146853D01*
X0121447Y0148428D01*
X0122300Y0150486D01*
X0122300Y0152714D01*
X0121447Y0154772D01*
X0119872Y0156347D01*
X0117814Y0157200D01*
X0110386Y0157200D01*
X0108328Y0156347D01*
X0106753Y0154772D01*
X0105900Y0152714D01*
X0105900Y0150486D01*
X0106753Y0148428D01*
X0108328Y0146853D01*
X0108938Y0146600D01*
X0108328Y0146347D01*
X0106753Y0144772D01*
X0105900Y0142714D01*
X0105900Y0140486D01*
X0106753Y0138428D01*
X0108328Y0136853D01*
X0107814Y0135833D02*
X0006200Y0135833D01*
X0006200Y0134635D02*
X0069215Y0134635D01*
X0069280Y0134700D02*
X0066000Y0131420D01*
X0066000Y0126780D01*
X0069280Y0123500D01*
X0073920Y0123500D01*
X0077200Y0126780D01*
X0077200Y0131420D01*
X0073920Y0134700D01*
X0069280Y0134700D01*
X0068017Y0133436D02*
X0006200Y0133436D01*
X0006200Y0132238D02*
X0066818Y0132238D01*
X0066000Y0131039D02*
X0006200Y0131039D01*
X0006200Y0129841D02*
X0066000Y0129841D01*
X0066000Y0128642D02*
X0006200Y0128642D01*
X0006200Y0127444D02*
X0066000Y0127444D01*
X0066535Y0126245D02*
X0049733Y0126245D01*
X0050931Y0125047D02*
X0067734Y0125047D01*
X0068932Y0123848D02*
X0052100Y0123848D01*
X0052100Y0122650D02*
X0078500Y0122650D01*
X0078500Y0123848D02*
X0074268Y0123848D01*
X0075466Y0125047D02*
X0079627Y0125047D01*
X0078500Y0123920D02*
X0078500Y0119280D01*
X0081780Y0116000D01*
X0086420Y0116000D01*
X0089700Y0119280D01*
X0089700Y0123920D01*
X0086420Y0127200D01*
X0081780Y0127200D01*
X0078500Y0123920D01*
X0078500Y0121451D02*
X0052100Y0121451D01*
X0052100Y0120253D02*
X0078500Y0120253D01*
X0078726Y0119054D02*
X0051832Y0119054D01*
X0050634Y0117856D02*
X0079925Y0117856D01*
X0081123Y0116657D02*
X0064745Y0116657D01*
X0064002Y0117400D02*
X0059198Y0117400D01*
X0055800Y0114002D01*
X0055800Y0109198D01*
X0059198Y0105800D01*
X0064002Y0105800D01*
X0067400Y0109198D01*
X0067400Y0114002D01*
X0064002Y0117400D01*
X0065944Y0115459D02*
X0107439Y0115459D01*
X0106540Y0114260D02*
X0067142Y0114260D01*
X0067400Y0113062D02*
X0106044Y0113062D01*
X0105900Y0111863D02*
X0067400Y0111863D01*
X0067400Y0110665D02*
X0105900Y0110665D01*
X0106323Y0109466D02*
X0067400Y0109466D01*
X0066470Y0108268D02*
X0106913Y0108268D01*
X0108111Y0107069D02*
X0065271Y0107069D01*
X0064073Y0105870D02*
X0107851Y0105870D01*
X0106711Y0104672D02*
X0063948Y0104672D01*
X0065146Y0103473D02*
X0106215Y0103473D01*
X0105900Y0102275D02*
X0066345Y0102275D01*
X0067200Y0101076D02*
X0105900Y0101076D01*
X0106152Y0099878D02*
X0067200Y0099878D01*
X0067200Y0098679D02*
X0106648Y0098679D01*
X0107699Y0097481D02*
X0067200Y0097481D01*
X0066702Y0096282D02*
X0109704Y0096282D01*
X0118496Y0096282D02*
X0138263Y0096282D01*
X0137699Y0097481D02*
X0120500Y0097481D01*
X0121552Y0098679D02*
X0136648Y0098679D01*
X0136152Y0099878D02*
X0122048Y0099878D01*
X0122300Y0101076D02*
X0135900Y0101076D01*
X0135900Y0102275D02*
X0122300Y0102275D01*
X0121985Y0103473D02*
X0136215Y0103473D01*
X0136711Y0104672D02*
X0121489Y0104672D01*
X0120349Y0105870D02*
X0137851Y0105870D01*
X0138111Y0107069D02*
X0120089Y0107069D01*
X0121287Y0108268D02*
X0136913Y0108268D01*
X0136323Y0109466D02*
X0121877Y0109466D01*
X0122300Y0110665D02*
X0135900Y0110665D01*
X0135900Y0111863D02*
X0122300Y0111863D01*
X0122156Y0113062D02*
X0136044Y0113062D01*
X0136540Y0114260D02*
X0121660Y0114260D01*
X0120761Y0115459D02*
X0137439Y0115459D01*
X0138800Y0116657D02*
X0119400Y0116657D01*
X0120875Y0117856D02*
X0137325Y0117856D01*
X0136493Y0119054D02*
X0121707Y0119054D01*
X0122203Y0120253D02*
X0135997Y0120253D01*
X0135900Y0121451D02*
X0122300Y0121451D01*
X0122300Y0122650D02*
X0135900Y0122650D01*
X0136370Y0123848D02*
X0121830Y0123848D01*
X0121173Y0125047D02*
X0137027Y0125047D01*
X0138226Y0126245D02*
X0119974Y0126245D01*
X0120463Y0127444D02*
X0137737Y0127444D01*
X0136664Y0128642D02*
X0121536Y0128642D01*
X0122033Y0129841D02*
X0136167Y0129841D01*
X0135900Y0131039D02*
X0122300Y0131039D01*
X0122300Y0132238D02*
X0135900Y0132238D01*
X0136199Y0133436D02*
X0122001Y0133436D01*
X0121504Y0134635D02*
X0136696Y0134635D01*
X0137814Y0135833D02*
X0120386Y0135833D01*
X0120051Y0137032D02*
X0138149Y0137032D01*
X0136950Y0138230D02*
X0121250Y0138230D01*
X0121862Y0139429D02*
X0136338Y0139429D01*
X0135900Y0140627D02*
X0122300Y0140627D01*
X0122300Y0141826D02*
X0135900Y0141826D01*
X0136029Y0143024D02*
X0122171Y0143024D01*
X0121675Y0144223D02*
X0136525Y0144223D01*
X0137402Y0145421D02*
X0120798Y0145421D01*
X0119310Y0146620D02*
X0138890Y0146620D01*
X0137362Y0147818D02*
X0120838Y0147818D01*
X0121691Y0149017D02*
X0136509Y0149017D01*
X0136012Y0150215D02*
X0122188Y0150215D01*
X0122300Y0151414D02*
X0135900Y0151414D01*
X0135900Y0152612D02*
X0122300Y0152612D01*
X0121846Y0153811D02*
X0136354Y0153811D01*
X0135412Y0155009D02*
X0121210Y0155009D01*
X0121901Y0156208D02*
X0120012Y0156208D01*
X0120702Y0157406D02*
X0096392Y0157406D01*
X0096420Y0157200D02*
X0096185Y0157200D01*
X0097187Y0158201D01*
X0098100Y0160407D01*
X0098100Y0162793D01*
X0097187Y0164999D01*
X0095585Y0166600D01*
X0097187Y0168201D01*
X0098100Y0170407D01*
X0098100Y0172793D01*
X0097187Y0174999D01*
X0095499Y0176687D01*
X0093293Y0177600D01*
X0084907Y0177600D01*
X0082701Y0176687D01*
X0081013Y0174999D01*
X0080100Y0172793D01*
X0080100Y0170407D01*
X0081013Y0168201D01*
X0082615Y0166600D01*
X0081013Y0164999D01*
X0080100Y0162793D01*
X0080100Y0160407D01*
X0081013Y0158201D01*
X0082015Y0157200D01*
X0081780Y0157200D01*
X0079100Y0154520D01*
X0077020Y0156600D01*
X0079700Y0159280D01*
X0079700Y0163920D01*
X0077020Y0166600D01*
X0079700Y0169280D01*
X0079700Y0173920D01*
X0076420Y0177200D01*
X0071780Y0177200D01*
X0068500Y0173920D01*
X0068500Y0169280D01*
X0071180Y0166600D01*
X0068500Y0163920D01*
X0068500Y0159280D01*
X0071180Y0156600D01*
X0068500Y0153920D01*
X0068500Y0149280D01*
X0071780Y0146000D01*
X0076420Y0146000D01*
X0079100Y0148680D01*
X0081780Y0146000D01*
X0086420Y0146000D01*
X0089100Y0148680D01*
X0091780Y0146000D01*
X0096420Y0146000D01*
X0099700Y0149280D01*
X0099700Y0153920D01*
X0096420Y0157200D01*
X0097412Y0156208D02*
X0108188Y0156208D01*
X0106990Y0155009D02*
X0098610Y0155009D01*
X0099700Y0153811D02*
X0106354Y0153811D01*
X0105900Y0152612D02*
X0099700Y0152612D01*
X0099700Y0151414D02*
X0105900Y0151414D01*
X0106012Y0150215D02*
X0099700Y0150215D01*
X0099436Y0149017D02*
X0106509Y0149017D01*
X0107362Y0147818D02*
X0098238Y0147818D01*
X0097039Y0146620D02*
X0108890Y0146620D01*
X0107402Y0145421D02*
X0065798Y0145421D01*
X0066675Y0144223D02*
X0106525Y0144223D01*
X0106029Y0143024D02*
X0067171Y0143024D01*
X0067300Y0141826D02*
X0105900Y0141826D01*
X0105900Y0140627D02*
X0067300Y0140627D01*
X0066862Y0139429D02*
X0106338Y0139429D01*
X0106950Y0138230D02*
X0066250Y0138230D01*
X0073985Y0134635D02*
X0106696Y0134635D01*
X0106199Y0133436D02*
X0075183Y0133436D01*
X0076382Y0132238D02*
X0105900Y0132238D01*
X0105900Y0131039D02*
X0077200Y0131039D01*
X0077200Y0129841D02*
X0106167Y0129841D01*
X0106664Y0128642D02*
X0077200Y0128642D01*
X0077200Y0127444D02*
X0107737Y0127444D01*
X0108226Y0126245D02*
X0087374Y0126245D01*
X0088573Y0125047D02*
X0107027Y0125047D01*
X0106370Y0123848D02*
X0089700Y0123848D01*
X0089700Y0122650D02*
X0105900Y0122650D01*
X0105900Y0121451D02*
X0089700Y0121451D01*
X0089700Y0120253D02*
X0105997Y0120253D01*
X0106493Y0119054D02*
X0089474Y0119054D01*
X0088275Y0117856D02*
X0107325Y0117856D01*
X0108800Y0116657D02*
X0087077Y0116657D01*
X0080826Y0126245D02*
X0076665Y0126245D01*
X0058455Y0116657D02*
X0050200Y0116657D01*
X0050200Y0115459D02*
X0057256Y0115459D01*
X0056058Y0114260D02*
X0050200Y0114260D01*
X0050200Y0113062D02*
X0055800Y0113062D01*
X0055800Y0111863D02*
X0050200Y0111863D01*
X0050200Y0110665D02*
X0055800Y0110665D01*
X0055800Y0109466D02*
X0050200Y0109466D01*
X0050200Y0108268D02*
X0056730Y0108268D01*
X0057929Y0107069D02*
X0050200Y0107069D01*
X0050200Y0105870D02*
X0059127Y0105870D01*
X0059252Y0104672D02*
X0050200Y0104672D01*
X0050200Y0103473D02*
X0058054Y0103473D01*
X0056855Y0102275D02*
X0050200Y0102275D01*
X0050200Y0101076D02*
X0056000Y0101076D01*
X0056000Y0099878D02*
X0050200Y0099878D01*
X0050200Y0098679D02*
X0056000Y0098679D01*
X0056000Y0097481D02*
X0050200Y0097481D01*
X0050200Y0096282D02*
X0056498Y0096282D01*
X0057697Y0095084D02*
X0050200Y0095084D01*
X0050200Y0093885D02*
X0058466Y0093885D01*
X0057267Y0092687D02*
X0050791Y0092687D01*
X0051990Y0091488D02*
X0056069Y0091488D01*
X0056000Y0090290D02*
X0052100Y0090290D01*
X0052100Y0089091D02*
X0056000Y0089091D01*
X0056000Y0087893D02*
X0052100Y0087893D01*
X0054176Y0086694D02*
X0056086Y0086694D01*
X0055724Y0085496D02*
X0057285Y0085496D01*
X0056614Y0084297D02*
X0056586Y0084297D01*
X0065915Y0085496D02*
X0067476Y0085496D01*
X0067114Y0086694D02*
X0069024Y0086694D01*
X0067200Y0087893D02*
X0137288Y0087893D01*
X0136478Y0089091D02*
X0067200Y0089091D01*
X0067200Y0090290D02*
X0135981Y0090290D01*
X0135900Y0091488D02*
X0067131Y0091488D01*
X0065933Y0092687D02*
X0135900Y0092687D01*
X0136385Y0093885D02*
X0064734Y0093885D01*
X0065503Y0095084D02*
X0137064Y0095084D01*
X0138710Y0086694D02*
X0084176Y0086694D01*
X0079024Y0086694D02*
X0074176Y0086694D01*
X0075724Y0085496D02*
X0077476Y0085496D01*
X0076614Y0084297D02*
X0076586Y0084297D01*
X0066614Y0084297D02*
X0066586Y0084297D01*
X0046600Y0089100D02*
X0046600Y0121600D01*
X0038326Y0126245D02*
X0032374Y0126245D01*
X0031420Y0127200D02*
X0026780Y0127200D01*
X0023500Y0123920D01*
X0023500Y0119280D01*
X0026780Y0116000D01*
X0027798Y0116000D01*
X0025800Y0114002D01*
X0025800Y0109198D01*
X0029198Y0105800D01*
X0034002Y0105800D01*
X0037400Y0109198D01*
X0037400Y0114002D01*
X0034002Y0117400D01*
X0032820Y0117400D01*
X0034700Y0119280D01*
X0034700Y0123920D01*
X0031420Y0127200D01*
X0033573Y0125047D02*
X0037127Y0125047D01*
X0036000Y0123848D02*
X0034700Y0123848D01*
X0034700Y0122650D02*
X0036000Y0122650D01*
X0036000Y0121451D02*
X0034700Y0121451D01*
X0034700Y0120253D02*
X0036000Y0120253D01*
X0036226Y0119054D02*
X0034474Y0119054D01*
X0033275Y0117856D02*
X0037425Y0117856D01*
X0038623Y0116657D02*
X0034745Y0116657D01*
X0035944Y0115459D02*
X0043000Y0115459D01*
X0043000Y0114260D02*
X0037142Y0114260D01*
X0037400Y0113062D02*
X0043000Y0113062D01*
X0043000Y0111863D02*
X0037400Y0111863D01*
X0037400Y0110665D02*
X0043000Y0110665D01*
X0043000Y0109466D02*
X0037400Y0109466D01*
X0036470Y0108268D02*
X0043000Y0108268D01*
X0043000Y0107069D02*
X0035271Y0107069D01*
X0034073Y0105870D02*
X0043000Y0105870D01*
X0043000Y0104672D02*
X0006200Y0104672D01*
X0006200Y0105870D02*
X0029127Y0105870D01*
X0027929Y0107069D02*
X0006200Y0107069D01*
X0006200Y0108268D02*
X0026730Y0108268D01*
X0025800Y0109466D02*
X0006200Y0109466D01*
X0006200Y0110665D02*
X0025800Y0110665D01*
X0025800Y0111863D02*
X0006200Y0111863D01*
X0006200Y0113062D02*
X0025800Y0113062D01*
X0026058Y0114260D02*
X0006200Y0114260D01*
X0006200Y0115459D02*
X0027256Y0115459D01*
X0026123Y0116657D02*
X0006200Y0116657D01*
X0006200Y0117856D02*
X0024925Y0117856D01*
X0023726Y0119054D02*
X0006200Y0119054D01*
X0006200Y0120253D02*
X0023500Y0120253D01*
X0023500Y0121451D02*
X0006200Y0121451D01*
X0006200Y0122650D02*
X0023500Y0122650D01*
X0023500Y0123848D02*
X0006200Y0123848D01*
X0006200Y0125047D02*
X0024627Y0125047D01*
X0025826Y0126245D02*
X0006200Y0126245D01*
X0006200Y0146620D02*
X0026161Y0146620D01*
X0024962Y0147818D02*
X0006200Y0147818D01*
X0006200Y0149017D02*
X0023764Y0149017D01*
X0023500Y0150215D02*
X0006200Y0150215D01*
X0006200Y0151414D02*
X0016887Y0151414D01*
X0015068Y0152612D02*
X0006200Y0152612D01*
X0006200Y0153811D02*
X0014094Y0153811D01*
X0013597Y0155009D02*
X0006200Y0155009D01*
X0006200Y0156208D02*
X0013400Y0156208D01*
X0013400Y0157406D02*
X0006200Y0157406D01*
X0006200Y0158605D02*
X0013769Y0158605D01*
X0014284Y0159803D02*
X0006200Y0159803D01*
X0006200Y0161002D02*
X0015482Y0161002D01*
X0015480Y0162201D02*
X0006200Y0162201D01*
X0006200Y0163399D02*
X0014281Y0163399D01*
X0013768Y0164598D02*
X0006200Y0164598D01*
X0006200Y0165796D02*
X0013400Y0165796D01*
X0013400Y0166995D02*
X0006200Y0166995D01*
X0006200Y0168193D02*
X0013598Y0168193D01*
X0014095Y0169392D02*
X0006200Y0169392D01*
X0006200Y0170590D02*
X0015071Y0170590D01*
X0016893Y0171789D02*
X0006200Y0171789D01*
X0006200Y0172987D02*
X0033500Y0172987D01*
X0033766Y0174186D02*
X0006200Y0174186D01*
X0006200Y0175384D02*
X0034965Y0175384D01*
X0036163Y0176583D02*
X0006200Y0176583D01*
X0041590Y0186171D02*
X0055751Y0186171D01*
X0055411Y0187369D02*
X0042789Y0187369D01*
X0043987Y0188568D02*
X0054213Y0188568D01*
X0053500Y0189766D02*
X0044700Y0189766D01*
X0044700Y0190965D02*
X0053500Y0190965D01*
X0053500Y0192163D02*
X0044700Y0192163D01*
X0044700Y0193362D02*
X0053500Y0193362D01*
X0054141Y0194560D02*
X0044059Y0194560D01*
X0042861Y0195759D02*
X0055339Y0195759D01*
X0056538Y0196957D02*
X0041662Y0196957D01*
X0061662Y0196957D02*
X0064038Y0196957D01*
X0069162Y0196957D02*
X0121000Y0196957D01*
X0121000Y0195759D02*
X0070361Y0195759D01*
X0071559Y0194560D02*
X0121000Y0194560D01*
X0121919Y0193362D02*
X0072200Y0193362D01*
X0072200Y0192163D02*
X0123117Y0192163D01*
X0130083Y0192163D02*
X0135617Y0192163D01*
X0134419Y0193362D02*
X0131281Y0193362D01*
X0132200Y0194560D02*
X0133500Y0194560D01*
X0133500Y0195759D02*
X0132200Y0195759D01*
X0132200Y0196957D02*
X0133500Y0196957D01*
X0133500Y0198156D02*
X0132200Y0198156D01*
X0131765Y0199354D02*
X0133935Y0199354D01*
X0135133Y0200553D02*
X0130567Y0200553D01*
X0129368Y0201751D02*
X0136332Y0201751D01*
X0141868Y0201751D02*
X0144095Y0201751D01*
X0143599Y0200553D02*
X0143067Y0200553D01*
X0151787Y0204148D02*
X0178913Y0204148D01*
X0178428Y0203947D02*
X0176853Y0202372D01*
X0176000Y0200314D01*
X0176000Y0200120D01*
X0173920Y0202200D01*
X0169280Y0202200D01*
X0166000Y0198920D01*
X0166000Y0194280D01*
X0169280Y0191000D01*
X0173920Y0191000D01*
X0176000Y0193080D01*
X0176000Y0192886D01*
X0176853Y0190828D01*
X0178428Y0189253D01*
X0180486Y0188400D01*
X0182714Y0188400D01*
X0184772Y0189253D01*
X0186347Y0190828D01*
X0187200Y0192886D01*
X0187200Y0200314D01*
X0186347Y0202372D01*
X0184772Y0203947D01*
X0182714Y0204800D01*
X0180486Y0204800D01*
X0178428Y0203947D01*
X0177430Y0202950D02*
X0153270Y0202950D01*
X0154105Y0201751D02*
X0156332Y0201751D01*
X0155133Y0200553D02*
X0154601Y0200553D01*
X0161868Y0201751D02*
X0168832Y0201751D01*
X0167633Y0200553D02*
X0163067Y0200553D01*
X0164265Y0199354D02*
X0166435Y0199354D01*
X0166000Y0198156D02*
X0164700Y0198156D01*
X0164700Y0196957D02*
X0166000Y0196957D01*
X0166000Y0195759D02*
X0164700Y0195759D01*
X0164700Y0194560D02*
X0166000Y0194560D01*
X0166919Y0193362D02*
X0163781Y0193362D01*
X0162583Y0192163D02*
X0168117Y0192163D01*
X0175083Y0192163D02*
X0176299Y0192163D01*
X0176796Y0190965D02*
X0153904Y0190965D01*
X0154401Y0192163D02*
X0155617Y0192163D01*
X0152786Y0189766D02*
X0177914Y0189766D01*
X0180081Y0188568D02*
X0150619Y0188568D01*
X0147581Y0188568D02*
X0071487Y0188568D01*
X0072200Y0189766D02*
X0145414Y0189766D01*
X0144296Y0190965D02*
X0072200Y0190965D01*
X0070289Y0187369D02*
X0278500Y0187369D01*
X0278500Y0188568D02*
X0183119Y0188568D01*
X0185286Y0189766D02*
X0278500Y0189766D01*
X0278500Y0190965D02*
X0186404Y0190965D01*
X0186901Y0192163D02*
X0235517Y0192163D01*
X0235828Y0191853D02*
X0237886Y0191000D01*
X0245314Y0191000D01*
X0247372Y0191853D01*
X0248947Y0193428D01*
X0249800Y0195486D01*
X0249800Y0197714D01*
X0248947Y0199772D01*
X0247372Y0201347D01*
X0245314Y0202200D01*
X0237886Y0202200D01*
X0235828Y0201347D01*
X0234253Y0199772D01*
X0233400Y0197714D01*
X0233400Y0195486D01*
X0234253Y0193428D01*
X0235828Y0191853D01*
X0234319Y0193362D02*
X0187200Y0193362D01*
X0187200Y0194560D02*
X0233783Y0194560D01*
X0233400Y0195759D02*
X0187200Y0195759D01*
X0187200Y0196957D02*
X0233400Y0196957D01*
X0233583Y0198156D02*
X0187200Y0198156D01*
X0187200Y0199354D02*
X0234080Y0199354D01*
X0235033Y0200553D02*
X0187101Y0200553D01*
X0186605Y0201751D02*
X0208648Y0201751D01*
X0207450Y0202950D02*
X0185770Y0202950D01*
X0184287Y0204148D02*
X0206251Y0204148D01*
X0215152Y0201751D02*
X0236803Y0201751D01*
X0246397Y0201751D02*
X0258648Y0201751D01*
X0258824Y0201575D02*
X0264976Y0201575D01*
X0269325Y0205924D01*
X0269325Y0212076D01*
X0264976Y0216425D01*
X0258824Y0216425D01*
X0254475Y0212076D01*
X0254475Y0205924D01*
X0258824Y0201575D01*
X0257450Y0202950D02*
X0216350Y0202950D01*
X0217549Y0204148D02*
X0256251Y0204148D01*
X0255053Y0205347D02*
X0218747Y0205347D01*
X0219325Y0206545D02*
X0254475Y0206545D01*
X0254475Y0207744D02*
X0219325Y0207744D01*
X0219325Y0208942D02*
X0254475Y0208942D01*
X0254475Y0210141D02*
X0219325Y0210141D01*
X0219325Y0211339D02*
X0254475Y0211339D01*
X0254937Y0212538D02*
X0218863Y0212538D01*
X0217664Y0213737D02*
X0245085Y0213737D01*
X0243364Y0214935D02*
X0216466Y0214935D01*
X0215267Y0216134D02*
X0242166Y0216134D01*
X0251715Y0213737D02*
X0256136Y0213737D01*
X0257334Y0214935D02*
X0253436Y0214935D01*
X0254634Y0216134D02*
X0258533Y0216134D01*
X0255166Y0217332D02*
X0291634Y0217332D01*
X0292105Y0216194D02*
X0294194Y0214105D01*
X0296923Y0212975D01*
X0299877Y0212975D01*
X0302606Y0214105D01*
X0304695Y0216194D01*
X0305825Y0218923D01*
X0305825Y0221877D01*
X0304695Y0224606D01*
X0302606Y0226695D01*
X0299877Y0227825D01*
X0296923Y0227825D01*
X0295913Y0227406D01*
X0294795Y0230106D01*
X0292706Y0232195D01*
X0289977Y0233325D01*
X0287023Y0233325D01*
X0284294Y0232195D01*
X0282205Y0230106D01*
X0281075Y0227377D01*
X0281075Y0224423D01*
X0282205Y0221694D01*
X0284294Y0219605D01*
X0287023Y0218475D01*
X0289977Y0218475D01*
X0290987Y0218894D01*
X0292105Y0216194D01*
X0292166Y0216134D02*
X0265267Y0216134D01*
X0266466Y0214935D02*
X0293364Y0214935D01*
X0295085Y0213737D02*
X0267664Y0213737D01*
X0268863Y0212538D02*
X0304937Y0212538D01*
X0304475Y0212076D02*
X0304475Y0205924D01*
X0308824Y0201575D01*
X0314976Y0201575D01*
X0319325Y0205924D01*
X0319325Y0212076D01*
X0314976Y0216425D01*
X0308824Y0216425D01*
X0304475Y0212076D01*
X0304475Y0211339D02*
X0269325Y0211339D01*
X0269325Y0210141D02*
X0304475Y0210141D01*
X0304475Y0208942D02*
X0269325Y0208942D01*
X0269325Y0207744D02*
X0304475Y0207744D01*
X0304475Y0206545D02*
X0269325Y0206545D01*
X0268747Y0205347D02*
X0305053Y0205347D01*
X0306251Y0204148D02*
X0267549Y0204148D01*
X0266350Y0202950D02*
X0307450Y0202950D01*
X0308648Y0201751D02*
X0276397Y0201751D01*
X0277372Y0201347D02*
X0275314Y0202200D01*
X0267886Y0202200D01*
X0265828Y0201347D01*
X0264253Y0199772D01*
X0263400Y0197714D01*
X0263400Y0195486D01*
X0264253Y0193428D01*
X0265828Y0191853D01*
X0267886Y0191000D01*
X0275314Y0191000D01*
X0277372Y0191853D01*
X0278947Y0193428D01*
X0279800Y0195486D01*
X0279800Y0197714D01*
X0278947Y0199772D01*
X0277372Y0201347D01*
X0278167Y0200553D02*
X0337533Y0200553D01*
X0336753Y0199772D02*
X0338328Y0201347D01*
X0340386Y0202200D01*
X0347814Y0202200D01*
X0349872Y0201347D01*
X0351447Y0199772D01*
X0352300Y0197714D01*
X0352300Y0195486D01*
X0351447Y0193428D01*
X0349872Y0191853D01*
X0347814Y0191000D01*
X0340386Y0191000D01*
X0338328Y0191853D01*
X0336753Y0193428D01*
X0335900Y0195486D01*
X0335900Y0197714D01*
X0336753Y0199772D01*
X0336580Y0199354D02*
X0279120Y0199354D01*
X0279617Y0198156D02*
X0336083Y0198156D01*
X0335900Y0196957D02*
X0279800Y0196957D01*
X0279800Y0195759D02*
X0335900Y0195759D01*
X0336283Y0194560D02*
X0286559Y0194560D01*
X0287758Y0193362D02*
X0336819Y0193362D01*
X0338017Y0192163D02*
X0288956Y0192163D01*
X0289700Y0190965D02*
X0376000Y0190965D01*
X0376000Y0189766D02*
X0289700Y0189766D01*
X0289700Y0188568D02*
X0376000Y0188568D01*
X0376000Y0187369D02*
X0289700Y0187369D01*
X0289090Y0186171D02*
X0376610Y0186171D01*
X0386044Y0182575D02*
X0397156Y0182575D01*
X0396000Y0181377D02*
X0387200Y0181377D01*
X0387200Y0180178D02*
X0396000Y0180178D01*
X0396000Y0178980D02*
X0387200Y0178980D01*
X0387200Y0177781D02*
X0396000Y0177781D01*
X0396198Y0176583D02*
X0387002Y0176583D01*
X0385804Y0175384D02*
X0397396Y0175384D01*
X0398595Y0174186D02*
X0384605Y0174186D01*
X0368017Y0192163D02*
X0350183Y0192163D01*
X0351381Y0193362D02*
X0366819Y0193362D01*
X0366283Y0194560D02*
X0351917Y0194560D01*
X0352300Y0195759D02*
X0365900Y0195759D01*
X0365900Y0196957D02*
X0352300Y0196957D01*
X0352117Y0198156D02*
X0366083Y0198156D01*
X0366580Y0199354D02*
X0351620Y0199354D01*
X0350667Y0200553D02*
X0367533Y0200553D01*
X0369303Y0201751D02*
X0348897Y0201751D01*
X0339303Y0201751D02*
X0315152Y0201751D01*
X0316350Y0202950D02*
X0433500Y0202950D01*
X0433500Y0201751D02*
X0378897Y0201751D01*
X0380667Y0200553D02*
X0433500Y0200553D01*
X0433500Y0199354D02*
X0381620Y0199354D01*
X0382117Y0198156D02*
X0434625Y0198156D01*
X0433729Y0204148D02*
X0317549Y0204148D01*
X0318747Y0205347D02*
X0434927Y0205347D01*
X0436126Y0206545D02*
X0411965Y0206545D01*
X0413164Y0207744D02*
X0435036Y0207744D01*
X0433838Y0208942D02*
X0414362Y0208942D01*
X0414700Y0210141D02*
X0433500Y0210141D01*
X0433500Y0211339D02*
X0414700Y0211339D01*
X0414700Y0212538D02*
X0433500Y0212538D01*
X0433500Y0213737D02*
X0414700Y0213737D01*
X0413685Y0214935D02*
X0434515Y0214935D01*
X0435714Y0216134D02*
X0412486Y0216134D01*
X0405714Y0216134D02*
X0404700Y0216134D01*
X0404513Y0214935D02*
X0404515Y0214935D01*
X0403500Y0212538D02*
X0403058Y0212538D01*
X0403500Y0211339D02*
X0401275Y0211339D01*
X0403500Y0210141D02*
X0319325Y0210141D01*
X0319325Y0211339D02*
X0396925Y0211339D01*
X0395142Y0212538D02*
X0382470Y0212538D01*
X0382352Y0212489D02*
X0385035Y0213600D01*
X0387089Y0215654D01*
X0388200Y0218337D01*
X0388200Y0221241D01*
X0387089Y0223924D01*
X0385035Y0225978D01*
X0382352Y0227089D01*
X0370848Y0227089D01*
X0368165Y0225978D01*
X0366111Y0223924D01*
X0365000Y0221241D01*
X0365000Y0218337D01*
X0366111Y0215654D01*
X0368165Y0213600D01*
X0370848Y0212489D01*
X0382352Y0212489D01*
X0385171Y0213737D02*
X0394183Y0213737D01*
X0393687Y0214935D02*
X0386370Y0214935D01*
X0387287Y0216134D02*
X0393500Y0216134D01*
X0393500Y0217332D02*
X0387784Y0217332D01*
X0388200Y0218531D02*
X0393500Y0218531D01*
X0393500Y0219729D02*
X0388200Y0219729D01*
X0388200Y0220928D02*
X0393500Y0220928D01*
X0393500Y0222126D02*
X0387833Y0222126D01*
X0387337Y0223325D02*
X0393712Y0223325D01*
X0394208Y0224523D02*
X0386490Y0224523D01*
X0385291Y0225722D02*
X0395202Y0225722D01*
X0397069Y0226920D02*
X0382760Y0226920D01*
X0370440Y0226920D02*
X0352061Y0226920D01*
X0353579Y0225722D02*
X0367909Y0225722D01*
X0366710Y0224523D02*
X0354729Y0224523D01*
X0355225Y0223325D02*
X0365863Y0223325D01*
X0365367Y0222126D02*
X0355722Y0222126D01*
X0355825Y0220928D02*
X0365000Y0220928D01*
X0365000Y0219729D02*
X0355825Y0219729D01*
X0355662Y0218531D02*
X0365000Y0218531D01*
X0365416Y0217332D02*
X0355166Y0217332D01*
X0354634Y0216134D02*
X0365913Y0216134D01*
X0366830Y0214935D02*
X0353436Y0214935D01*
X0351715Y0213737D02*
X0368029Y0213737D01*
X0370730Y0212538D02*
X0318863Y0212538D01*
X0317664Y0213737D02*
X0345085Y0213737D01*
X0343364Y0214935D02*
X0316466Y0214935D01*
X0315267Y0216134D02*
X0342166Y0216134D01*
X0341634Y0217332D02*
X0305166Y0217332D01*
X0305662Y0218531D02*
X0336889Y0218531D01*
X0334170Y0219729D02*
X0305825Y0219729D01*
X0305825Y0220928D02*
X0332972Y0220928D01*
X0332026Y0222126D02*
X0305722Y0222126D01*
X0305225Y0223325D02*
X0331530Y0223325D01*
X0331075Y0224523D02*
X0304729Y0224523D01*
X0303579Y0225722D02*
X0331075Y0225722D01*
X0331075Y0226920D02*
X0302061Y0226920D01*
X0295618Y0228119D02*
X0331382Y0228119D01*
X0331879Y0229317D02*
X0295121Y0229317D01*
X0294385Y0230516D02*
X0332615Y0230516D01*
X0340972Y0232913D02*
X0405873Y0232913D01*
X0405377Y0231714D02*
X0343186Y0231714D01*
X0344385Y0230516D02*
X0404880Y0230516D01*
X0404850Y0229317D02*
X0345121Y0229317D01*
X0345618Y0228119D02*
X0404850Y0228119D01*
X0405197Y0226920D02*
X0401131Y0226920D01*
X0402998Y0225722D02*
X0405693Y0225722D01*
X0406631Y0224523D02*
X0403992Y0224523D01*
X0401185Y0241302D02*
X0445765Y0241302D01*
X0445268Y0242501D02*
X0403020Y0242501D01*
X0404001Y0243699D02*
X0409081Y0243699D01*
X0407883Y0244898D02*
X0404498Y0244898D01*
X0404700Y0246096D02*
X0406684Y0246096D01*
X0406000Y0247295D02*
X0404700Y0247295D01*
X0404700Y0248493D02*
X0406000Y0248493D01*
X0406000Y0249692D02*
X0404700Y0249692D01*
X0404700Y0250890D02*
X0406000Y0250890D01*
X0406669Y0252089D02*
X0404700Y0252089D01*
X0404504Y0253287D02*
X0407868Y0253287D01*
X0409066Y0254486D02*
X0404007Y0254486D01*
X0417200Y0249692D02*
X0448921Y0249692D01*
X0447008Y0248493D02*
X0417200Y0248493D01*
X0417200Y0247295D02*
X0445929Y0247295D01*
X0445433Y0246096D02*
X0416516Y0246096D01*
X0415317Y0244898D02*
X0445100Y0244898D01*
X0445100Y0243699D02*
X0414119Y0243699D01*
X0397015Y0241302D02*
X0317225Y0241302D01*
X0317225Y0240104D02*
X0446611Y0240104D01*
X0447962Y0238905D02*
X0317225Y0238905D01*
X0316300Y0242501D02*
X0395180Y0242501D01*
X0394199Y0243699D02*
X0315101Y0243699D01*
X0313903Y0244898D02*
X0393702Y0244898D01*
X0403838Y0208942D02*
X0319325Y0208942D01*
X0319325Y0207744D02*
X0405036Y0207744D01*
X0406235Y0206545D02*
X0319325Y0206545D01*
X0306136Y0213737D02*
X0301715Y0213737D01*
X0303436Y0214935D02*
X0307334Y0214935D01*
X0308533Y0216134D02*
X0304634Y0216134D01*
X0291138Y0218531D02*
X0290111Y0218531D01*
X0286889Y0218531D02*
X0255662Y0218531D01*
X0255825Y0219729D02*
X0284170Y0219729D01*
X0282972Y0220928D02*
X0255825Y0220928D01*
X0255722Y0222126D02*
X0282026Y0222126D01*
X0281530Y0223325D02*
X0255225Y0223325D01*
X0254729Y0224523D02*
X0281075Y0224523D01*
X0281075Y0225722D02*
X0253579Y0225722D01*
X0252061Y0226920D02*
X0281075Y0226920D01*
X0281382Y0228119D02*
X0245618Y0228119D01*
X0245121Y0229317D02*
X0281879Y0229317D01*
X0282615Y0230516D02*
X0244385Y0230516D01*
X0243186Y0231714D02*
X0256085Y0231714D01*
X0256724Y0231075D02*
X0252375Y0235424D01*
X0252375Y0241576D01*
X0256724Y0245925D01*
X0262876Y0245925D01*
X0267225Y0241576D01*
X0267225Y0235424D01*
X0262876Y0231075D01*
X0256724Y0231075D01*
X0254887Y0232913D02*
X0240972Y0232913D01*
X0236028Y0232913D02*
X0214713Y0232913D01*
X0215912Y0234111D02*
X0253688Y0234111D01*
X0252490Y0235310D02*
X0217110Y0235310D01*
X0217225Y0236508D02*
X0252375Y0236508D01*
X0252375Y0237707D02*
X0217225Y0237707D01*
X0217225Y0238905D02*
X0252375Y0238905D01*
X0252375Y0240104D02*
X0217225Y0240104D01*
X0217225Y0241302D02*
X0252375Y0241302D01*
X0253300Y0242501D02*
X0216300Y0242501D01*
X0215101Y0243699D02*
X0254499Y0243699D01*
X0255697Y0244898D02*
X0213903Y0244898D01*
X0213515Y0231714D02*
X0233814Y0231714D01*
X0263515Y0231714D02*
X0283814Y0231714D01*
X0286028Y0232913D02*
X0264713Y0232913D01*
X0265912Y0234111D02*
X0303688Y0234111D01*
X0302490Y0235310D02*
X0267110Y0235310D01*
X0267225Y0236508D02*
X0302375Y0236508D01*
X0302375Y0237707D02*
X0267225Y0237707D01*
X0267225Y0238905D02*
X0302375Y0238905D01*
X0302375Y0240104D02*
X0267225Y0240104D01*
X0267225Y0241302D02*
X0302375Y0241302D01*
X0303300Y0242501D02*
X0266300Y0242501D01*
X0265101Y0243699D02*
X0304499Y0243699D01*
X0305697Y0244898D02*
X0263903Y0244898D01*
X0290972Y0232913D02*
X0304887Y0232913D01*
X0306085Y0231714D02*
X0293186Y0231714D01*
X0266803Y0201751D02*
X0265152Y0201751D01*
X0265033Y0200553D02*
X0248167Y0200553D01*
X0249120Y0199354D02*
X0264080Y0199354D01*
X0263583Y0198156D02*
X0249617Y0198156D01*
X0249800Y0196957D02*
X0263400Y0196957D01*
X0263400Y0195759D02*
X0249800Y0195759D01*
X0249417Y0194560D02*
X0263783Y0194560D01*
X0264319Y0193362D02*
X0248881Y0193362D01*
X0247683Y0192163D02*
X0265517Y0192163D01*
X0277683Y0192163D02*
X0279244Y0192163D01*
X0278881Y0193362D02*
X0280442Y0193362D01*
X0279417Y0194560D02*
X0281641Y0194560D01*
X0279110Y0186171D02*
X0069090Y0186171D01*
X0064110Y0186171D02*
X0062449Y0186171D01*
X0062789Y0187369D02*
X0062911Y0187369D01*
X0063647Y0184972D02*
X0280308Y0184972D01*
X0280854Y0183774D02*
X0064700Y0183774D01*
X0064700Y0182575D02*
X0279656Y0182575D01*
X0278500Y0181377D02*
X0174743Y0181377D01*
X0173920Y0182200D02*
X0169280Y0182200D01*
X0166000Y0178920D01*
X0166000Y0174280D01*
X0169280Y0171000D01*
X0173920Y0171000D01*
X0177200Y0174280D01*
X0177200Y0178920D01*
X0173920Y0182200D01*
X0175941Y0180178D02*
X0278500Y0180178D01*
X0278500Y0178980D02*
X0177140Y0178980D01*
X0177200Y0177781D02*
X0278500Y0177781D01*
X0278698Y0176583D02*
X0177200Y0176583D01*
X0177200Y0175384D02*
X0279896Y0175384D01*
X0276266Y0174186D02*
X0184197Y0174186D01*
X0185732Y0172987D02*
X0275068Y0172987D01*
X0273869Y0171789D02*
X0186589Y0171789D01*
X0187086Y0170590D02*
X0273500Y0170590D01*
X0273500Y0169392D02*
X0187200Y0169392D01*
X0187200Y0168193D02*
X0273500Y0168193D01*
X0273500Y0166995D02*
X0187200Y0166995D01*
X0187200Y0165796D02*
X0274484Y0165796D01*
X0275139Y0164598D02*
X0271522Y0164598D01*
X0272721Y0163399D02*
X0272879Y0163399D01*
X0266678Y0164598D02*
X0191381Y0164598D01*
X0192579Y0163399D02*
X0265479Y0163399D01*
X0264281Y0162201D02*
X0193778Y0162201D01*
X0194600Y0161002D02*
X0263500Y0161002D01*
X0263500Y0159803D02*
X0194600Y0159803D01*
X0194600Y0158605D02*
X0263500Y0158605D01*
X0283132Y0172987D02*
X0305068Y0172987D01*
X0311934Y0174186D02*
X0316266Y0174186D01*
X0315068Y0172987D02*
X0313132Y0172987D01*
X0369231Y0153811D02*
X0370791Y0153811D01*
X0418985Y0134635D02*
X0424215Y0134635D01*
X0423017Y0133436D02*
X0420183Y0133436D01*
X0421382Y0132238D02*
X0421818Y0132238D01*
X0422100Y0125047D02*
X0422734Y0125047D01*
X0422100Y0123848D02*
X0423932Y0123848D01*
X0423840Y0114260D02*
X0419360Y0114260D01*
X0420558Y0113062D02*
X0422642Y0113062D01*
X0429360Y0114260D02*
X0462800Y0114260D01*
X0462800Y0113062D02*
X0430558Y0113062D01*
X0431757Y0111863D02*
X0462800Y0111863D01*
X0462800Y0110665D02*
X0432200Y0110665D01*
X0432200Y0109466D02*
X0462800Y0109466D01*
X0462800Y0108268D02*
X0432200Y0108268D01*
X0432200Y0107069D02*
X0462800Y0107069D01*
X0462800Y0105870D02*
X0431290Y0105870D01*
X0430092Y0104672D02*
X0462800Y0104672D01*
X0470400Y0104672D02*
X0479796Y0104672D01*
X0479796Y0104938D02*
X0479796Y0103566D01*
X0479946Y0103205D01*
X0480154Y0102703D01*
X0479796Y0101840D01*
X0479796Y0098666D01*
X0480154Y0097803D01*
X0479796Y0096940D01*
X0479796Y0095568D01*
X0480258Y0094453D01*
X0480190Y0094287D01*
X0479998Y0094001D01*
X0479929Y0093660D01*
X0479796Y0093338D01*
X0479796Y0092993D01*
X0479729Y0092655D01*
X0479796Y0092314D01*
X0479796Y0091965D01*
X0479928Y0091647D01*
X0479995Y0091309D01*
X0480188Y0091019D01*
X0480321Y0090697D01*
X0480367Y0090652D01*
X0480321Y0090607D01*
X0479797Y0089340D01*
X0479796Y0089339D01*
X0479796Y0087966D01*
X0480321Y0086698D01*
X0480817Y0086203D01*
X0480321Y0085707D01*
X0479796Y0084439D01*
X0479796Y0080365D01*
X0479967Y0079952D01*
X0479796Y0079540D01*
X0479796Y0074565D01*
X0480321Y0073297D01*
X0481292Y0072326D01*
X0482560Y0071801D01*
X0483932Y0071801D01*
X0485200Y0072326D01*
X0486171Y0073297D01*
X0486297Y0073602D01*
X0489336Y0073602D01*
X0490604Y0074127D01*
X0491575Y0075098D01*
X0492100Y0076366D01*
X0492100Y0077738D01*
X0491575Y0079006D01*
X0491530Y0079052D01*
X0491575Y0079097D01*
X0492100Y0080365D01*
X0492100Y0081737D01*
X0491638Y0082852D01*
X0492100Y0083967D01*
X0492100Y0085340D01*
X0491929Y0085752D01*
X0492100Y0086165D01*
X0492100Y0087538D01*
X0491638Y0088653D01*
X0492100Y0089768D01*
X0492100Y0091140D01*
X0491929Y0091553D01*
X0492100Y0091965D01*
X0492100Y0093338D01*
X0491638Y0094453D01*
X0491707Y0094618D01*
X0491898Y0094905D01*
X0491967Y0095246D01*
X0492100Y0095568D01*
X0492100Y0095912D01*
X0492168Y0096250D01*
X0492100Y0096592D01*
X0492100Y0096940D01*
X0491968Y0097259D01*
X0491901Y0097597D01*
X0491751Y0097823D01*
X0492100Y0098666D01*
X0492100Y0101840D01*
X0491788Y0102593D01*
X0491743Y0102703D01*
X0492100Y0103566D01*
X0492100Y0104938D01*
X0491638Y0106053D01*
X0492100Y0107168D01*
X0492100Y0108541D01*
X0491929Y0108953D01*
X0492100Y0109366D01*
X0492100Y0112540D01*
X0491583Y0113787D01*
X0492100Y0115034D01*
X0492100Y0116407D01*
X0491575Y0117675D01*
X0490629Y0118620D01*
X0491575Y0119566D01*
X0492100Y0120834D01*
X0492100Y0122207D01*
X0491575Y0123475D01*
X0491530Y0123520D01*
X0491575Y0123565D01*
X0492100Y0124833D01*
X0492100Y0129808D01*
X0491929Y0130221D01*
X0492100Y0130633D01*
X0492100Y0132006D01*
X0491638Y0133121D01*
X0492100Y0134236D01*
X0492100Y0135609D01*
X0491575Y0136877D01*
X0490604Y0137847D01*
X0489336Y0138372D01*
X0487964Y0138372D01*
X0487299Y0138097D01*
X0486634Y0138372D01*
X0483461Y0138372D01*
X0482193Y0137847D01*
X0481222Y0136877D01*
X0480321Y0135976D01*
X0479796Y0134708D01*
X0479796Y0130633D01*
X0479967Y0130221D01*
X0479796Y0129808D01*
X0479796Y0124833D01*
X0479967Y0124421D01*
X0479796Y0124008D01*
X0479796Y0119033D01*
X0479967Y0118620D01*
X0479796Y0118208D01*
X0479796Y0113233D01*
X0479940Y0112886D01*
X0479796Y0112540D01*
X0479796Y0109366D01*
X0479967Y0108953D01*
X0479796Y0108541D01*
X0479796Y0107168D01*
X0480258Y0106053D01*
X0479796Y0104938D01*
X0480182Y0105870D02*
X0470400Y0105870D01*
X0470400Y0107069D02*
X0479837Y0107069D01*
X0479796Y0108268D02*
X0470400Y0108268D01*
X0470400Y0109466D02*
X0479796Y0109466D01*
X0479796Y0110665D02*
X0470400Y0110665D01*
X0470400Y0111863D02*
X0479796Y0111863D01*
X0479867Y0113062D02*
X0470400Y0113062D01*
X0470400Y0114260D02*
X0479796Y0114260D01*
X0479796Y0115459D02*
X0470400Y0115459D01*
X0470400Y0116657D02*
X0479796Y0116657D01*
X0479796Y0117856D02*
X0470400Y0117856D01*
X0470400Y0119054D02*
X0479796Y0119054D01*
X0479796Y0120253D02*
X0470400Y0120253D01*
X0470400Y0121451D02*
X0479796Y0121451D01*
X0479796Y0122650D02*
X0470400Y0122650D01*
X0470400Y0123848D02*
X0479796Y0123848D01*
X0479796Y0125047D02*
X0470400Y0125047D01*
X0470400Y0126245D02*
X0479796Y0126245D01*
X0479796Y0127444D02*
X0470400Y0127444D01*
X0470400Y0128642D02*
X0479796Y0128642D01*
X0479810Y0129841D02*
X0470400Y0129841D01*
X0470400Y0131039D02*
X0479796Y0131039D01*
X0479796Y0132238D02*
X0470400Y0132238D01*
X0470400Y0133436D02*
X0479796Y0133436D01*
X0479796Y0134635D02*
X0470400Y0134635D01*
X0470400Y0135833D02*
X0480262Y0135833D01*
X0481377Y0137032D02*
X0470400Y0137032D01*
X0470400Y0138230D02*
X0483118Y0138230D01*
X0486977Y0138230D02*
X0487621Y0138230D01*
X0489679Y0138230D02*
X0499421Y0138230D01*
X0499421Y0137032D02*
X0491419Y0137032D01*
X0492007Y0135833D02*
X0499421Y0135833D01*
X0499421Y0134635D02*
X0492100Y0134635D01*
X0491769Y0133436D02*
X0499421Y0133436D01*
X0499421Y0132238D02*
X0492004Y0132238D01*
X0492100Y0131039D02*
X0499421Y0131039D01*
X0499421Y0129841D02*
X0492087Y0129841D01*
X0492100Y0128642D02*
X0499421Y0128642D01*
X0499421Y0127444D02*
X0492100Y0127444D01*
X0492100Y0126245D02*
X0499421Y0126245D01*
X0499421Y0125047D02*
X0492100Y0125047D01*
X0491692Y0123848D02*
X0499421Y0123848D01*
X0499421Y0122650D02*
X0491917Y0122650D01*
X0492100Y0121451D02*
X0499421Y0121451D01*
X0499421Y0120253D02*
X0491859Y0120253D01*
X0491063Y0119054D02*
X0499421Y0119054D01*
X0499421Y0117856D02*
X0491394Y0117856D01*
X0491996Y0116657D02*
X0499421Y0116657D01*
X0499421Y0115459D02*
X0492100Y0115459D01*
X0491779Y0114260D02*
X0499421Y0114260D01*
X0499421Y0113062D02*
X0491884Y0113062D01*
X0492100Y0111863D02*
X0499421Y0111863D01*
X0499421Y0110665D02*
X0492100Y0110665D01*
X0492100Y0109466D02*
X0499421Y0109466D01*
X0499421Y0108268D02*
X0492100Y0108268D01*
X0492059Y0107069D02*
X0499421Y0107069D01*
X0499421Y0105870D02*
X0491714Y0105870D01*
X0492100Y0104672D02*
X0499421Y0104672D01*
X0499421Y0103473D02*
X0492062Y0103473D01*
X0491920Y0102275D02*
X0499421Y0102275D01*
X0499421Y0101076D02*
X0492100Y0101076D01*
X0492100Y0099878D02*
X0499421Y0099878D01*
X0499421Y0098679D02*
X0492100Y0098679D01*
X0491924Y0097481D02*
X0499421Y0097481D01*
X0499421Y0096282D02*
X0492161Y0096282D01*
X0491934Y0095084D02*
X0499421Y0095084D01*
X0499421Y0093885D02*
X0491873Y0093885D01*
X0492100Y0092687D02*
X0499421Y0092687D01*
X0499421Y0091488D02*
X0491956Y0091488D01*
X0492100Y0090290D02*
X0499421Y0090290D01*
X0499421Y0089091D02*
X0491820Y0089091D01*
X0491953Y0087893D02*
X0499421Y0087893D01*
X0499421Y0086694D02*
X0492100Y0086694D01*
X0492035Y0085496D02*
X0499421Y0085496D01*
X0499421Y0084297D02*
X0492100Y0084297D01*
X0491740Y0083099D02*
X0499421Y0083099D01*
X0499421Y0081900D02*
X0492033Y0081900D01*
X0492100Y0080702D02*
X0499421Y0080702D01*
X0499421Y0079503D02*
X0491743Y0079503D01*
X0491865Y0078305D02*
X0499421Y0078305D01*
X0499421Y0077106D02*
X0492100Y0077106D01*
X0491910Y0075908D02*
X0499421Y0075908D01*
X0499421Y0074709D02*
X0491186Y0074709D01*
X0490867Y0069915D02*
X0499421Y0069915D01*
X0499421Y0068717D02*
X0491778Y0068717D01*
X0492100Y0067518D02*
X0499421Y0067518D01*
X0499421Y0066320D02*
X0491998Y0066320D01*
X0491775Y0065121D02*
X0499421Y0065121D01*
X0499421Y0063923D02*
X0492100Y0063923D01*
X0492001Y0062724D02*
X0499421Y0062724D01*
X0499421Y0061526D02*
X0491981Y0061526D01*
X0492100Y0060327D02*
X0499421Y0060327D01*
X0499421Y0059129D02*
X0492100Y0059129D01*
X0492100Y0057930D02*
X0499421Y0057930D01*
X0499421Y0056732D02*
X0491921Y0056732D01*
X0492061Y0055533D02*
X0499421Y0055533D01*
X0499421Y0054334D02*
X0492100Y0054334D01*
X0492100Y0053136D02*
X0499421Y0053136D01*
X0499421Y0051937D02*
X0491965Y0051937D01*
X0491317Y0050739D02*
X0499421Y0050739D01*
X0499421Y0049540D02*
X0490119Y0049540D01*
X0479796Y0054334D02*
X0469613Y0054334D01*
X0470811Y0055533D02*
X0479835Y0055533D01*
X0479975Y0056732D02*
X0472010Y0056732D01*
X0472100Y0057930D02*
X0479796Y0057930D01*
X0479796Y0059129D02*
X0472100Y0059129D01*
X0472100Y0060327D02*
X0479796Y0060327D01*
X0479915Y0061526D02*
X0471953Y0061526D01*
X0470754Y0062724D02*
X0479896Y0062724D01*
X0479796Y0063923D02*
X0470400Y0063923D01*
X0470400Y0065121D02*
X0479796Y0065121D01*
X0479796Y0066320D02*
X0470400Y0066320D01*
X0470400Y0067518D02*
X0479995Y0067518D01*
X0480731Y0068717D02*
X0470400Y0068717D01*
X0470400Y0069915D02*
X0481930Y0069915D01*
X0481326Y0072312D02*
X0470400Y0072312D01*
X0470400Y0071114D02*
X0499421Y0071114D01*
X0499421Y0072312D02*
X0485167Y0072312D01*
X0486260Y0073511D02*
X0499421Y0073511D01*
X0480233Y0073511D02*
X0470400Y0073511D01*
X0470400Y0074709D02*
X0479796Y0074709D01*
X0479796Y0075908D02*
X0470400Y0075908D01*
X0470400Y0077106D02*
X0479796Y0077106D01*
X0479796Y0078305D02*
X0470400Y0078305D01*
X0470400Y0079503D02*
X0479796Y0079503D01*
X0479796Y0080702D02*
X0470400Y0080702D01*
X0470400Y0081900D02*
X0479796Y0081900D01*
X0479796Y0083099D02*
X0470400Y0083099D01*
X0470400Y0084297D02*
X0479796Y0084297D01*
X0480234Y0085496D02*
X0470400Y0085496D01*
X0470400Y0086694D02*
X0480325Y0086694D01*
X0479827Y0087893D02*
X0470400Y0087893D01*
X0470400Y0089091D02*
X0479796Y0089091D01*
X0480190Y0090290D02*
X0470400Y0090290D01*
X0470400Y0091488D02*
X0479959Y0091488D01*
X0479735Y0092687D02*
X0470400Y0092687D01*
X0470400Y0093885D02*
X0479975Y0093885D01*
X0479997Y0095084D02*
X0470400Y0095084D01*
X0470400Y0096282D02*
X0479796Y0096282D01*
X0480020Y0097481D02*
X0470400Y0097481D01*
X0470400Y0098679D02*
X0479796Y0098679D01*
X0479796Y0099878D02*
X0470400Y0099878D01*
X0470400Y0101076D02*
X0479796Y0101076D01*
X0479976Y0102275D02*
X0470400Y0102275D01*
X0470400Y0103473D02*
X0479834Y0103473D01*
X0423108Y0104672D02*
X0420092Y0104672D01*
X0421290Y0105870D02*
X0421910Y0105870D01*
X0413868Y0119054D02*
X0412065Y0119054D01*
X0412669Y0120253D02*
X0410867Y0120253D01*
X0381000Y0104672D02*
X0380092Y0104672D01*
X0316378Y0084297D02*
X0311822Y0084297D01*
X0313021Y0083099D02*
X0315179Y0083099D01*
X0286601Y0098679D02*
X0254700Y0098679D01*
X0254700Y0099878D02*
X0285402Y0099878D01*
X0284204Y0101076D02*
X0254700Y0101076D01*
X0253845Y0102275D02*
X0283500Y0102275D01*
X0273500Y0116657D02*
X0216900Y0116657D01*
X0218375Y0117856D02*
X0273500Y0117856D01*
X0273635Y0119054D02*
X0219207Y0119054D01*
X0219703Y0120253D02*
X0274833Y0120253D01*
X0219962Y0147818D02*
X0218338Y0147818D01*
X0218710Y0155009D02*
X0219590Y0155009D01*
X0220788Y0156208D02*
X0217512Y0156208D01*
X0189100Y0159100D02*
X0159100Y0159100D01*
X0155621Y0163399D02*
X0154700Y0163399D01*
X0154700Y0164598D02*
X0156819Y0164598D01*
X0154700Y0165796D02*
X0176000Y0165796D01*
X0176000Y0164598D02*
X0161381Y0164598D01*
X0162579Y0163399D02*
X0176000Y0163399D01*
X0176000Y0166995D02*
X0154700Y0166995D01*
X0154700Y0168193D02*
X0176000Y0168193D01*
X0176000Y0169392D02*
X0154700Y0169392D01*
X0154586Y0170590D02*
X0176114Y0170590D01*
X0176611Y0171789D02*
X0174708Y0171789D01*
X0175907Y0172987D02*
X0177468Y0172987D01*
X0177105Y0174186D02*
X0179003Y0174186D01*
X0168492Y0171789D02*
X0162208Y0171789D01*
X0161420Y0171000D02*
X0164700Y0174280D01*
X0164700Y0178920D01*
X0161420Y0182200D01*
X0156780Y0182200D01*
X0153500Y0178920D01*
X0153500Y0174280D01*
X0156780Y0171000D01*
X0161420Y0171000D01*
X0163407Y0172987D02*
X0167293Y0172987D01*
X0166095Y0174186D02*
X0164605Y0174186D01*
X0164700Y0175384D02*
X0166000Y0175384D01*
X0166000Y0176583D02*
X0164700Y0176583D01*
X0164700Y0177781D02*
X0166000Y0177781D01*
X0166060Y0178980D02*
X0164640Y0178980D01*
X0163441Y0180178D02*
X0167259Y0180178D01*
X0168457Y0181377D02*
X0162243Y0181377D01*
X0155957Y0181377D02*
X0064700Y0181377D01*
X0064700Y0180178D02*
X0154759Y0180178D01*
X0153560Y0178980D02*
X0064399Y0178980D01*
X0063201Y0177781D02*
X0153500Y0177781D01*
X0153500Y0176583D02*
X0095603Y0176583D01*
X0096801Y0175384D02*
X0153500Y0175384D01*
X0153595Y0174186D02*
X0151697Y0174186D01*
X0153232Y0172987D02*
X0154793Y0172987D01*
X0154089Y0171789D02*
X0155992Y0171789D01*
X0154422Y0162201D02*
X0154416Y0162201D01*
X0143614Y0170590D02*
X0143029Y0170590D01*
X0144111Y0171789D02*
X0141831Y0171789D01*
X0144968Y0172987D02*
X0098020Y0172987D01*
X0098100Y0171789D02*
X0104010Y0171789D01*
X0102812Y0170590D02*
X0098100Y0170590D01*
X0097680Y0169392D02*
X0101613Y0169392D01*
X0101100Y0168193D02*
X0097178Y0168193D01*
X0095980Y0166995D02*
X0101100Y0166995D01*
X0101100Y0165796D02*
X0096389Y0165796D01*
X0097353Y0164598D02*
X0101100Y0164598D01*
X0102023Y0163399D02*
X0097849Y0163399D01*
X0098100Y0162201D02*
X0103221Y0162201D01*
X0098100Y0161002D02*
X0117107Y0161002D01*
X0118305Y0159803D02*
X0097850Y0159803D01*
X0097354Y0158605D02*
X0119504Y0158605D01*
X0124100Y0159100D02*
X0139100Y0159100D01*
X0134381Y0163399D02*
X0124892Y0163399D01*
X0123694Y0164598D02*
X0133500Y0164598D01*
X0133500Y0165796D02*
X0122495Y0165796D01*
X0121297Y0166995D02*
X0133500Y0166995D01*
X0133500Y0168193D02*
X0120098Y0168193D01*
X0118900Y0169392D02*
X0133972Y0169392D01*
X0135171Y0170590D02*
X0110388Y0170590D01*
X0109190Y0171789D02*
X0136369Y0171789D01*
X0146503Y0174186D02*
X0097523Y0174186D01*
X0106600Y0166600D02*
X0116600Y0166600D01*
X0124100Y0159100D01*
X0115908Y0162201D02*
X0109979Y0162201D01*
X0091161Y0146620D02*
X0087039Y0146620D01*
X0088238Y0147818D02*
X0089962Y0147818D01*
X0081161Y0146620D02*
X0077039Y0146620D01*
X0078238Y0147818D02*
X0079962Y0147818D01*
X0071161Y0146620D02*
X0064310Y0146620D01*
X0065838Y0147818D02*
X0069962Y0147818D01*
X0068764Y0149017D02*
X0066691Y0149017D01*
X0067188Y0150215D02*
X0068500Y0150215D01*
X0068500Y0151414D02*
X0067300Y0151414D01*
X0067300Y0152612D02*
X0068500Y0152612D01*
X0068500Y0153811D02*
X0066846Y0153811D01*
X0066210Y0155009D02*
X0069590Y0155009D01*
X0070788Y0156208D02*
X0065012Y0156208D01*
X0065426Y0157406D02*
X0070374Y0157406D01*
X0069175Y0158605D02*
X0066521Y0158605D01*
X0067017Y0159803D02*
X0068500Y0159803D01*
X0068500Y0161002D02*
X0067300Y0161002D01*
X0067300Y0162201D02*
X0068500Y0162201D01*
X0068500Y0163399D02*
X0067016Y0163399D01*
X0066520Y0164598D02*
X0069178Y0164598D01*
X0070376Y0165796D02*
X0065424Y0165796D01*
X0063310Y0166995D02*
X0070786Y0166995D01*
X0069587Y0168193D02*
X0063613Y0168193D01*
X0064700Y0169392D02*
X0068500Y0169392D01*
X0068500Y0170590D02*
X0064700Y0170590D01*
X0064700Y0171789D02*
X0068500Y0171789D01*
X0068500Y0172987D02*
X0064700Y0172987D01*
X0064434Y0174186D02*
X0068766Y0174186D01*
X0069965Y0175384D02*
X0063235Y0175384D01*
X0062037Y0176583D02*
X0071163Y0176583D01*
X0077037Y0176583D02*
X0082597Y0176583D01*
X0081399Y0175384D02*
X0078235Y0175384D01*
X0079434Y0174186D02*
X0080677Y0174186D01*
X0080180Y0172987D02*
X0079700Y0172987D01*
X0079700Y0171789D02*
X0080100Y0171789D01*
X0080100Y0170590D02*
X0079700Y0170590D01*
X0079700Y0169392D02*
X0080520Y0169392D01*
X0081022Y0168193D02*
X0078613Y0168193D01*
X0077414Y0166995D02*
X0082220Y0166995D01*
X0081811Y0165796D02*
X0077824Y0165796D01*
X0079022Y0164598D02*
X0080847Y0164598D01*
X0080351Y0163399D02*
X0079700Y0163399D01*
X0079700Y0162201D02*
X0080100Y0162201D01*
X0080100Y0161002D02*
X0079700Y0161002D01*
X0079700Y0159803D02*
X0080350Y0159803D01*
X0080846Y0158605D02*
X0079025Y0158605D01*
X0077826Y0157406D02*
X0081808Y0157406D01*
X0080788Y0156208D02*
X0077412Y0156208D01*
X0078610Y0155009D02*
X0079590Y0155009D01*
X0053188Y0156208D02*
X0044912Y0156208D01*
X0046110Y0155009D02*
X0051990Y0155009D01*
X0051354Y0153811D02*
X0047200Y0153811D01*
X0047200Y0152612D02*
X0050900Y0152612D01*
X0050900Y0151414D02*
X0047200Y0151414D01*
X0047200Y0150215D02*
X0051012Y0150215D01*
X0051509Y0149017D02*
X0046936Y0149017D01*
X0045738Y0147818D02*
X0052362Y0147818D01*
X0043000Y0103473D02*
X0006200Y0103473D01*
X0006200Y0102275D02*
X0043000Y0102275D01*
X0043000Y0101076D02*
X0006200Y0101076D01*
X0006200Y0099878D02*
X0043000Y0099878D01*
X0043000Y0098679D02*
X0006200Y0098679D01*
X0006200Y0097481D02*
X0043000Y0097481D01*
X0043000Y0096282D02*
X0006200Y0096282D01*
X0006200Y0095084D02*
X0043000Y0095084D01*
X0043000Y0093885D02*
X0034734Y0093885D01*
X0035933Y0092687D02*
X0042409Y0092687D01*
X0041210Y0091488D02*
X0037131Y0091488D01*
X0037200Y0090290D02*
X0041100Y0090290D01*
X0041100Y0089091D02*
X0037200Y0089091D01*
X0037200Y0087893D02*
X0041100Y0087893D01*
X0039024Y0086694D02*
X0037114Y0086694D01*
X0037476Y0085496D02*
X0035915Y0085496D01*
X0036586Y0084297D02*
X0036614Y0084297D01*
X0027267Y0092687D02*
X0025933Y0092687D01*
X0024734Y0093885D02*
X0028466Y0093885D01*
X0018466Y0093885D02*
X0006200Y0093885D01*
X0006200Y0092687D02*
X0017267Y0092687D01*
X0016069Y0091488D02*
X0006200Y0091488D01*
X0006200Y0090290D02*
X0016000Y0090290D01*
X0016000Y0089091D02*
X0006200Y0089091D01*
X0006200Y0087893D02*
X0016000Y0087893D01*
X0016086Y0086694D02*
X0006200Y0086694D01*
X0006200Y0085496D02*
X0017285Y0085496D01*
X0016614Y0084297D02*
X0006200Y0084297D01*
X0006200Y0083099D02*
X0016118Y0083099D01*
X0016000Y0081900D02*
X0006200Y0081900D01*
X0006200Y0080702D02*
X0016000Y0080702D01*
X0016000Y0079503D02*
X0006200Y0079503D01*
X0006200Y0078305D02*
X0016000Y0078305D01*
X0016000Y0077106D02*
X0006200Y0077106D01*
X0006200Y0075908D02*
X0016000Y0075908D01*
X0016280Y0074709D02*
X0006200Y0074709D01*
X0006200Y0073511D02*
X0016777Y0073511D01*
X0017868Y0072312D02*
X0006200Y0072312D01*
X0006200Y0071114D02*
X0019970Y0071114D01*
X0023230Y0071114D02*
X0029970Y0071114D01*
X0027868Y0072312D02*
X0025332Y0072312D01*
X0026423Y0073511D02*
X0026777Y0073511D01*
X0031600Y0064100D02*
X0066600Y0064100D01*
X0139033Y0071114D02*
X0151667Y0071114D01*
X0151780Y0071000D02*
X0156420Y0071000D01*
X0159700Y0074280D01*
X0159700Y0078920D01*
X0156420Y0082200D01*
X0151780Y0082200D01*
X0148500Y0078920D01*
X0148500Y0074280D01*
X0151780Y0071000D01*
X0150468Y0072312D02*
X0140232Y0072312D01*
X0141430Y0073511D02*
X0149270Y0073511D01*
X0148500Y0074709D02*
X0142200Y0074709D01*
X0142200Y0075908D02*
X0148500Y0075908D01*
X0148500Y0077106D02*
X0142200Y0077106D01*
X0142200Y0078305D02*
X0148500Y0078305D01*
X0149084Y0079503D02*
X0141616Y0079503D01*
X0140418Y0080702D02*
X0150282Y0080702D01*
X0151481Y0081900D02*
X0139219Y0081900D01*
X0156719Y0081900D02*
X0168981Y0081900D01*
X0167782Y0080702D02*
X0157918Y0080702D01*
X0159116Y0079503D02*
X0166584Y0079503D01*
X0166000Y0078305D02*
X0159700Y0078305D01*
X0159700Y0077106D02*
X0166000Y0077106D01*
X0166000Y0075908D02*
X0159700Y0075908D01*
X0159700Y0074709D02*
X0166000Y0074709D01*
X0166770Y0073511D02*
X0158930Y0073511D01*
X0157732Y0072312D02*
X0167968Y0072312D01*
X0169167Y0071114D02*
X0156533Y0071114D01*
X0156420Y0052200D02*
X0151780Y0052200D01*
X0148500Y0048920D01*
X0148500Y0044280D01*
X0151780Y0041000D01*
X0156420Y0041000D01*
X0159700Y0044280D01*
X0159700Y0048920D01*
X0156420Y0052200D01*
X0156682Y0051937D02*
X0169018Y0051937D01*
X0169280Y0052200D02*
X0166000Y0048920D01*
X0166000Y0044280D01*
X0169280Y0041000D01*
X0173920Y0041000D01*
X0177200Y0044280D01*
X0177200Y0048920D01*
X0173920Y0052200D01*
X0169280Y0052200D01*
X0167819Y0050739D02*
X0157881Y0050739D01*
X0159079Y0049540D02*
X0166621Y0049540D01*
X0166000Y0048342D02*
X0159700Y0048342D01*
X0159700Y0047143D02*
X0166000Y0047143D01*
X0166000Y0045945D02*
X0159700Y0045945D01*
X0159700Y0044746D02*
X0166000Y0044746D01*
X0166733Y0043548D02*
X0158967Y0043548D01*
X0157769Y0042349D02*
X0167931Y0042349D01*
X0169130Y0041151D02*
X0156570Y0041151D01*
X0151630Y0041151D02*
X0139070Y0041151D01*
X0140269Y0042349D02*
X0150431Y0042349D01*
X0149233Y0043548D02*
X0141467Y0043548D01*
X0142200Y0044746D02*
X0148500Y0044746D01*
X0148500Y0045945D02*
X0142200Y0045945D01*
X0142200Y0047143D02*
X0148500Y0047143D01*
X0148500Y0048342D02*
X0142200Y0048342D01*
X0141579Y0049540D02*
X0149121Y0049540D01*
X0150319Y0050739D02*
X0140381Y0050739D01*
X0139182Y0051937D02*
X0151518Y0051937D01*
X0174182Y0051937D02*
X0186518Y0051937D01*
X0185319Y0050739D02*
X0175381Y0050739D01*
X0176579Y0049540D02*
X0184121Y0049540D01*
X0183500Y0048342D02*
X0177200Y0048342D01*
X0177200Y0047143D02*
X0183500Y0047143D01*
X0183500Y0045945D02*
X0177200Y0045945D01*
X0177200Y0044746D02*
X0183500Y0044746D01*
X0184233Y0043548D02*
X0176467Y0043548D01*
X0175269Y0042349D02*
X0185431Y0042349D01*
X0186630Y0041151D02*
X0174070Y0041151D01*
X0177204Y0096282D02*
X0149937Y0096282D01*
X0150500Y0097481D02*
X0175199Y0097481D01*
X0174148Y0098679D02*
X0151552Y0098679D01*
X0152048Y0099878D02*
X0173652Y0099878D01*
X0173400Y0101076D02*
X0152300Y0101076D01*
X0152300Y0102275D02*
X0173400Y0102275D01*
X0173715Y0103473D02*
X0151985Y0103473D01*
X0151489Y0104672D02*
X0174211Y0104672D01*
X0175351Y0105870D02*
X0150349Y0105870D01*
X0150089Y0107069D02*
X0175611Y0107069D01*
X0174413Y0108268D02*
X0151287Y0108268D01*
X0151877Y0109466D02*
X0173823Y0109466D01*
X0173400Y0110665D02*
X0152300Y0110665D01*
X0152300Y0111863D02*
X0173400Y0111863D01*
X0173544Y0113062D02*
X0152156Y0113062D01*
X0151660Y0114260D02*
X0174040Y0114260D01*
X0174939Y0115459D02*
X0150761Y0115459D01*
X0149400Y0116657D02*
X0176300Y0116657D01*
X0174825Y0117856D02*
X0150875Y0117856D01*
X0151707Y0119054D02*
X0173993Y0119054D01*
X0173497Y0120253D02*
X0152203Y0120253D01*
X0152300Y0121451D02*
X0173400Y0121451D01*
X0173400Y0122650D02*
X0152300Y0122650D01*
X0151830Y0123848D02*
X0173870Y0123848D01*
X0174527Y0125047D02*
X0151173Y0125047D01*
X0149974Y0126245D02*
X0175726Y0126245D01*
X0175237Y0127444D02*
X0150463Y0127444D01*
X0151536Y0128642D02*
X0174164Y0128642D01*
X0173667Y0129841D02*
X0152033Y0129841D01*
X0152300Y0131039D02*
X0173400Y0131039D01*
X0173400Y0132238D02*
X0152300Y0132238D01*
X0152001Y0133436D02*
X0173699Y0133436D01*
X0174196Y0134635D02*
X0151504Y0134635D01*
X0150386Y0135833D02*
X0175314Y0135833D01*
X0175649Y0137032D02*
X0150051Y0137032D01*
X0151250Y0138230D02*
X0174450Y0138230D01*
X0173838Y0139429D02*
X0151862Y0139429D01*
X0152300Y0140627D02*
X0173400Y0140627D01*
X0173400Y0141826D02*
X0152300Y0141826D01*
X0152171Y0143024D02*
X0173529Y0143024D01*
X0174025Y0144223D02*
X0151675Y0144223D01*
X0150798Y0145421D02*
X0174902Y0145421D01*
X0176390Y0146620D02*
X0159539Y0146620D01*
X0160738Y0147818D02*
X0174862Y0147818D01*
X0174009Y0149017D02*
X0161936Y0149017D01*
X0162200Y0150215D02*
X0173512Y0150215D01*
X0173400Y0151414D02*
X0162200Y0151414D01*
X0162200Y0152612D02*
X0173400Y0152612D01*
X0173854Y0153811D02*
X0162200Y0153811D01*
X0162788Y0155009D02*
X0174490Y0155009D01*
X0153661Y0146620D02*
X0149310Y0146620D01*
X0150838Y0147818D02*
X0152462Y0147818D01*
X0143799Y0192163D02*
X0142583Y0192163D01*
X0174368Y0201751D02*
X0176595Y0201751D01*
X0176099Y0200553D02*
X0175567Y0200553D01*
X0340111Y0218531D02*
X0341138Y0218531D01*
X0499421Y0259280D02*
X0006200Y0259280D01*
X0006200Y0260478D02*
X0499421Y0260478D01*
D24*
X0466600Y0169100D02*
X0466600Y0059100D01*
X0409100Y0091600D02*
X0361600Y0091600D01*
X0319100Y0124100D02*
X0416600Y0124100D01*
X0229100Y0019100D02*
X0081600Y0019100D01*
M02*
