G75*
%MOIN*%
%OFA0B0*%
%FSLAX25Y25*%
%IPPOS*%
%LPD*%
%AMOC8*
5,1,8,0,0,1.08239X$1,22.5*
%
%ADD10C,0.15000*%
%ADD11R,0.20000X0.17500*%
%ADD12R,0.07099X0.07887*%
%ADD13R,0.07887X0.07099*%
%ADD14R,0.11036X0.09461*%
%ADD15C,0.06400*%
%ADD16C,0.21800*%
%ADD17R,0.22060X0.25209*%
%ADD18R,0.04737X0.07099*%
%ADD19C,0.10700*%
%ADD20C,0.07200*%
%ADD21R,0.07099X0.08674*%
%ADD22R,0.08674X0.07099*%
%ADD23R,0.03950X0.06312*%
%ADD24C,0.06600*%
%ADD25R,0.03937X0.06299*%
%ADD26R,0.09800X0.20800*%
D10*
X0066500Y0068933D02*
X0054000Y0081433D01*
X0054000Y0168933D01*
X0074000Y0168933D02*
X0074000Y0088933D01*
X0086500Y0076433D01*
X0099000Y0076433D01*
X0109000Y0066433D01*
X0249000Y0066433D01*
X0259000Y0076433D01*
X0271500Y0076433D01*
X0284000Y0088933D01*
X0284000Y0168933D01*
X0304000Y0168933D02*
X0304000Y0081433D01*
X0291500Y0068933D01*
D11*
X0224000Y0225183D03*
D12*
X0202012Y0211433D03*
X0190988Y0211433D03*
X0162012Y0211433D03*
X0150988Y0211433D03*
G36*
X0117619Y0207239D02*
X0112600Y0212258D01*
X0118175Y0217833D01*
X0123194Y0212814D01*
X0117619Y0207239D01*
G37*
G36*
X0109825Y0215033D02*
X0104806Y0220052D01*
X0110381Y0225627D01*
X0115400Y0220608D01*
X0109825Y0215033D01*
G37*
X0220988Y0186433D03*
X0232012Y0186433D03*
X0233488Y0158933D03*
X0244512Y0158933D03*
X0174512Y0108933D03*
X0163488Y0108933D03*
X0163488Y0098933D03*
X0174512Y0098933D03*
D13*
X0204000Y0148421D03*
X0204000Y0159445D03*
X0184000Y0188421D03*
X0171500Y0188421D03*
X0171500Y0199445D03*
X0184000Y0199445D03*
X0144000Y0199445D03*
X0131500Y0199445D03*
X0131500Y0188421D03*
X0144000Y0188421D03*
X0246500Y0210921D03*
X0246500Y0221945D03*
D14*
X0243843Y0143933D03*
X0224157Y0143933D03*
D15*
X0161800Y0141433D02*
X0156200Y0141433D01*
X0131800Y0141433D02*
X0126200Y0141433D01*
X0014000Y0141733D02*
X0014000Y0136133D01*
X0014000Y0126733D02*
X0014000Y0121133D01*
X0014000Y0096733D02*
X0014000Y0091133D01*
X0014000Y0166133D02*
X0014000Y0171733D01*
X0014000Y0188633D02*
X0014000Y0194233D01*
X0014000Y0218633D02*
X0014000Y0224233D01*
X0344000Y0224233D02*
X0344000Y0218633D01*
X0344000Y0194233D02*
X0344000Y0188633D01*
X0344000Y0171733D02*
X0344000Y0166133D01*
X0344000Y0141733D02*
X0344000Y0136133D01*
X0344000Y0126733D02*
X0344000Y0121133D01*
X0344000Y0096733D02*
X0344000Y0091133D01*
D16*
X0336500Y0063933D03*
X0336500Y0246433D03*
X0021500Y0246433D03*
X0021500Y0063933D03*
D17*
X0199000Y0126276D03*
D18*
X0190024Y0097535D03*
X0207976Y0097535D03*
D19*
X0144300Y0111483D02*
X0144300Y0121383D01*
X0128700Y0121383D02*
X0128700Y0111483D01*
D20*
X0094000Y0120733D02*
X0094000Y0127133D01*
X0094000Y0135733D02*
X0094000Y0142133D01*
X0074000Y0142133D02*
X0074000Y0135733D01*
X0074000Y0127133D02*
X0074000Y0120733D01*
X0054000Y0120733D02*
X0054000Y0127133D01*
X0054000Y0135733D02*
X0054000Y0142133D01*
X0054000Y0165733D02*
X0054000Y0172133D01*
X0074000Y0172133D02*
X0074000Y0165733D01*
X0094000Y0165733D02*
X0094000Y0172133D01*
X0094000Y0188233D02*
X0094000Y0194633D01*
X0074000Y0194633D02*
X0074000Y0188233D01*
X0054000Y0188233D02*
X0054000Y0194633D01*
X0024000Y0194633D02*
X0024000Y0188233D01*
X0024000Y0172133D02*
X0024000Y0165733D01*
X0024000Y0142133D02*
X0024000Y0135733D01*
X0024000Y0127133D02*
X0024000Y0120733D01*
X0024000Y0097133D02*
X0024000Y0090733D01*
X0054000Y0090733D02*
X0054000Y0097133D01*
X0074000Y0097133D02*
X0074000Y0090733D01*
X0094000Y0090733D02*
X0094000Y0097133D01*
X0264000Y0097133D02*
X0264000Y0090733D01*
X0284000Y0090733D02*
X0284000Y0097133D01*
X0304000Y0097133D02*
X0304000Y0090733D01*
X0334000Y0090733D02*
X0334000Y0097133D01*
X0334000Y0120733D02*
X0334000Y0127133D01*
X0334000Y0135733D02*
X0334000Y0142133D01*
X0334000Y0165733D02*
X0334000Y0172133D01*
X0334000Y0188233D02*
X0334000Y0194633D01*
X0304000Y0194633D02*
X0304000Y0188233D01*
X0284000Y0188233D02*
X0284000Y0194633D01*
X0264000Y0194633D02*
X0264000Y0188233D01*
X0264000Y0172133D02*
X0264000Y0165733D01*
X0284000Y0165733D02*
X0284000Y0172133D01*
X0304000Y0172133D02*
X0304000Y0165733D01*
X0304000Y0142133D02*
X0304000Y0135733D01*
X0304000Y0127133D02*
X0304000Y0120733D01*
X0284000Y0120733D02*
X0284000Y0127133D01*
X0284000Y0135733D02*
X0284000Y0142133D01*
X0264000Y0142133D02*
X0264000Y0135733D01*
X0264000Y0127133D02*
X0264000Y0120733D01*
X0264000Y0218233D02*
X0264000Y0224633D01*
X0284000Y0224633D02*
X0284000Y0218233D01*
X0304000Y0218233D02*
X0304000Y0224633D01*
X0334000Y0224633D02*
X0334000Y0218233D01*
X0094000Y0218233D02*
X0094000Y0224633D01*
X0074000Y0224633D02*
X0074000Y0218233D01*
X0054000Y0218233D02*
X0054000Y0224633D01*
X0024000Y0224633D02*
X0024000Y0218233D01*
D21*
X0130988Y0211433D03*
X0142012Y0211433D03*
X0170988Y0211433D03*
X0182012Y0211433D03*
D22*
X0204000Y0199445D03*
X0204000Y0188421D03*
X0204000Y0179445D03*
X0204000Y0168421D03*
X0244000Y0168421D03*
X0244000Y0179445D03*
X0244000Y0188421D03*
X0244000Y0199445D03*
D23*
X0229902Y0211134D03*
X0218098Y0211134D03*
D24*
X0222900Y0218349D02*
X0225100Y0218349D01*
X0222900Y0218349D02*
X0222900Y0226919D01*
X0225100Y0226919D01*
X0225100Y0218349D01*
X0225100Y0224948D02*
X0222900Y0224948D01*
D25*
X0224000Y0211138D03*
D26*
X0049100Y0054033D03*
X0066500Y0054033D03*
X0083900Y0054033D03*
X0274100Y0054033D03*
X0291500Y0054033D03*
X0308900Y0054033D03*
M02*
