%
M48
M72
T01C0.01969
T02C0.03200
T03C0.04000
T04C0.06600
T05C0.11024
%
T01
X14100Y90183
X20350Y90183
X14100Y97683
X14100Y105183
X14100Y110183
X20350Y110183
X20350Y105183
X14100Y117683
X14100Y125183
X20350Y125183
X19100Y152683
X12850Y152683
X12850Y160183
X12850Y165183
X19100Y165183
X19100Y170183
X12850Y170183
X26600Y170183
X34100Y170183
X40350Y170183
X40350Y162683
X34100Y165183
X34100Y155183
X40350Y155183
X47850Y155183
X47850Y170183
X59100Y120183
X64100Y116433
X59100Y112683
X64100Y107683
X59100Y102683
X64100Y98933
X59100Y95183
X69100Y95183
X74100Y98933
X79100Y95183
X84100Y98933
X79100Y102683
X74100Y107683
X69100Y102683
X69100Y112683
X74100Y116433
X79100Y112683
X84100Y116433
X79100Y120183
X69100Y120183
X84100Y107683
X89100Y102683
X89100Y95183
X89100Y112683
X89100Y120183
X125350Y77683
X149100Y77683
X152850Y87683
X159100Y87683
X152850Y93933
X152850Y100183
X152850Y106433
X165350Y93933
X170350Y93933
X171600Y87683
X165350Y87683
X165350Y125183
X171600Y125183
X171600Y130183
X165350Y130183
X159100Y130183
X152850Y130183
X152850Y125183
X216600Y71433
X216600Y66433
X224100Y66433
X231600Y66433
X231600Y71433
X241600Y66433
X251600Y66433
X261600Y66433
X271600Y66433
X271600Y71433
X279100Y66433
X286600Y66433
X286600Y71433
X275350Y95183
X272850Y98933
X270350Y102683
X275350Y107683
X266600Y125183
X260350Y125183
X254100Y125183
X247850Y125183
X241600Y125183
X241600Y131433
X247850Y131433
X254100Y131433
X260350Y131433
X266600Y131433
X266600Y137683
X266600Y143933
X260350Y143933
X260350Y137683
X254100Y137683
X254100Y143933
X247850Y143933
X247850Y137683
X241600Y137683
X241600Y143933
X241600Y150183
X247850Y150183
X254100Y150183
X260350Y150183
X266600Y150183
X266600Y180183
X271600Y180183
X271600Y185183
X266600Y185183
X271600Y190183
X271600Y195183
X247850Y178933
X241600Y180183
X236600Y183933
X224100Y173933
X220350Y177683
X216600Y181433
X279100Y221433
X305350Y212683
X311600Y206433
X317850Y212683
X317850Y200183
X311600Y192683
X305350Y185183
X311600Y178933
X305350Y172683
X317850Y172683
X317850Y185183
X305350Y200183
X307850Y145183
X312850Y145183
X317850Y145183
X317850Y140183
X317850Y135183
X317850Y130183
X312850Y130183
X307850Y130183
X317850Y125183
X317850Y120183
X317850Y115183
X312850Y115183
X307850Y115183
X297850Y111433
X297850Y96433
X250350Y93933
X246600Y90183
X246600Y98933
X242850Y102683
X230350Y107683
X147850Y205183
X142850Y205183
X137850Y205183
X137850Y211433
X142850Y211433
X147850Y211433
X147850Y223933
X142850Y223933
X137850Y223933
X137850Y230183
X142850Y230183
X147850Y230183
X142850Y237683
X137850Y237683
X137850Y242683
X142850Y242683
T02
X114100Y227683
X156600Y195183
X166600Y195183
X166600Y177683
X156600Y177683
X156600Y160183
X166600Y160183
X166600Y142683
X156600Y142683
X156600Y117683
X166600Y117683
X242100Y77683
X261100Y77683
X114100Y187683
X94100Y290183
X94100Y330183
X70350Y62683
X60350Y62683
T03
X91600Y140183
X91600Y160183
X26600Y160183
X26600Y140183
X161600Y235183
X191600Y235183
X216600Y235183
X246600Y235183
X271600Y235183
X301600Y235183
X326600Y235183
X356600Y235183
X356600Y265183
X356600Y285183
X356600Y305183
X326600Y305183
X326600Y285183
X326600Y265183
X301600Y265183
X301600Y285183
X301600Y305183
X271600Y305183
X271600Y285183
X271600Y265183
X246600Y265183
X246600Y285183
X246600Y305183
X216600Y305183
X216600Y285183
X216600Y265183
X191600Y265183
X191600Y285183
X191600Y305183
X161600Y305183
X161600Y285183
X161600Y265183
X344100Y205183
X344100Y195183
X344100Y185183
X344100Y175183
X354100Y175183
X354100Y185183
X354100Y195183
X354100Y205183
X354100Y127683
X354100Y117683
X354100Y107683
X354100Y97683
X354100Y87683
X344100Y87683
X344100Y97683
X344100Y107683
X344100Y117683
X344100Y127683
T04
X319400Y330183
X303800Y330183
X274400Y330183
X258800Y330183
X229400Y330183
X213800Y330183
X184400Y330183
X168800Y330183
X129400Y330183
X113800Y330183
X74400Y330183
X58800Y330183
T05
X21600Y58933
X21600Y340183
X356600Y340183
X356600Y58933
M30
