G75*
%MOIN*%
%OFA0B0*%
%FSLAX25Y25*%
%IPPOS*%
%LPD*%
%AMOC8*
5,1,8,0,0,1.08239X$1,22.5*
%
%ADD10C,0.00000*%
%ADD11C,0.00512*%
%ADD12C,0.00600*%
D10*
X0001600Y0038933D02*
X0001600Y0358884D01*
X0376521Y0358884D01*
X0376521Y0038933D01*
X0001600Y0038933D01*
D11*
X0001600Y0018933D02*
X0001600Y0001256D01*
X0001856Y0008933D02*
X0011836Y0007909D01*
X0011836Y0007676D02*
X0001856Y0008933D01*
X0011836Y0009957D01*
X0011836Y0010190D02*
X0011836Y0007676D01*
X0011836Y0008421D02*
X0001856Y0008933D01*
X0011836Y0009445D01*
X0011836Y0010190D02*
X0001856Y0008933D01*
X0376344Y0008933D01*
X0366364Y0007909D01*
X0366364Y0007676D02*
X0376344Y0008933D01*
X0366364Y0009957D01*
X0366364Y0010190D02*
X0366364Y0007676D01*
X0366364Y0008421D02*
X0376344Y0008933D01*
X0366364Y0009445D01*
X0366364Y0010190D02*
X0376344Y0008933D01*
X0376600Y0001256D02*
X0376600Y0018933D01*
X0401600Y0038933D02*
X0419277Y0038933D01*
X0411600Y0039189D02*
X0412624Y0049169D01*
X0412857Y0049169D02*
X0411600Y0039189D01*
X0410576Y0049169D01*
X0410343Y0049169D02*
X0412857Y0049169D01*
X0412112Y0049169D02*
X0411600Y0039189D01*
X0411088Y0049169D01*
X0410343Y0049169D02*
X0411600Y0039189D01*
X0411600Y0359927D01*
X0412624Y0349947D01*
X0412857Y0349947D02*
X0411600Y0359927D01*
X0410576Y0349947D01*
X0410343Y0349947D02*
X0412857Y0349947D01*
X0412112Y0349947D02*
X0411600Y0359927D01*
X0411088Y0349947D01*
X0410343Y0349947D02*
X0411600Y0359927D01*
X0419277Y0360183D02*
X0401600Y0360183D01*
D12*
X0403700Y0214212D02*
X0407971Y0209942D01*
X0409038Y0211010D01*
X0409038Y0213145D01*
X0407971Y0214212D01*
X0403700Y0214212D01*
X0402633Y0213145D01*
X0402633Y0211010D01*
X0403700Y0209942D01*
X0407971Y0209942D01*
X0407971Y0207767D02*
X0406903Y0207767D01*
X0405835Y0206699D01*
X0405835Y0203497D01*
X0407971Y0203497D01*
X0409038Y0204564D01*
X0409038Y0206699D01*
X0407971Y0207767D01*
X0403700Y0205632D02*
X0405835Y0203497D01*
X0403700Y0205632D02*
X0402633Y0207767D01*
X0407971Y0201341D02*
X0409038Y0201341D01*
X0409038Y0200274D01*
X0407971Y0200274D01*
X0407971Y0201341D01*
X0409038Y0198099D02*
X0409038Y0193828D01*
X0409038Y0195964D02*
X0402633Y0195964D01*
X0404768Y0193828D01*
X0404768Y0191653D02*
X0405835Y0190586D01*
X0405835Y0188451D01*
X0404768Y0187383D01*
X0403700Y0187383D01*
X0402633Y0188451D01*
X0402633Y0190586D01*
X0403700Y0191653D01*
X0404768Y0191653D01*
X0405835Y0190586D02*
X0406903Y0191653D01*
X0407971Y0191653D01*
X0409038Y0190586D01*
X0409038Y0188451D01*
X0407971Y0187383D01*
X0406903Y0187383D01*
X0405835Y0188451D01*
X0203754Y0017900D02*
X0199484Y0017900D01*
X0199484Y0014698D01*
X0201619Y0015765D01*
X0202687Y0015765D01*
X0203754Y0014698D01*
X0203754Y0012562D01*
X0202687Y0011495D01*
X0200552Y0011495D01*
X0199484Y0012562D01*
X0197309Y0011495D02*
X0193039Y0011495D01*
X0197309Y0015765D01*
X0197309Y0016833D01*
X0196241Y0017900D01*
X0194106Y0017900D01*
X0193039Y0016833D01*
X0190883Y0012562D02*
X0190883Y0011495D01*
X0189816Y0011495D01*
X0189816Y0012562D01*
X0190883Y0012562D01*
X0187641Y0012562D02*
X0187641Y0014698D01*
X0186573Y0015765D01*
X0185506Y0015765D01*
X0183370Y0014698D01*
X0183370Y0017900D01*
X0187641Y0017900D01*
X0187641Y0012562D02*
X0186573Y0011495D01*
X0184438Y0011495D01*
X0183370Y0012562D01*
X0181195Y0012562D02*
X0181195Y0016833D01*
X0180128Y0017900D01*
X0177992Y0017900D01*
X0176925Y0016833D01*
X0176925Y0015765D01*
X0177992Y0014698D01*
X0181195Y0014698D01*
X0181195Y0012562D02*
X0180128Y0011495D01*
X0177992Y0011495D01*
X0176925Y0012562D01*
M02*
