G75*
%MOIN*%
%OFA0B0*%
%FSLAX25Y25*%
%IPPOS*%
%LPD*%
%AMOC8*
5,1,8,0,0,1.08239X$1,22.5*
%
%ADD10R,0.43750X0.37500*%
%ADD11C,0.04000*%
%ADD12C,0.10800*%
%ADD13OC8,0.10800*%
%ADD14C,0.06400*%
%ADD15R,0.23800X0.23800*%
%ADD16C,0.10700*%
%ADD17OC8,0.07200*%
%ADD18C,0.07200*%
%ADD19OC8,0.06400*%
%ADD20C,0.06400*%
D10*
X0074725Y0107683D03*
D11*
X0160350Y0265183D02*
X0201600Y0265183D01*
X0204100Y0267683D01*
X0204100Y0310183D01*
X0199100Y0315183D01*
X0189100Y0315183D01*
X0184100Y0320183D01*
X0184100Y0330183D01*
X0169100Y0330183D02*
X0169100Y0305183D01*
X0147850Y0305183D01*
X0169100Y0305183D02*
X0191600Y0305183D01*
X0214100Y0320183D02*
X0216600Y0317683D01*
X0216600Y0305183D01*
X0246600Y0305183D01*
X0250350Y0316433D02*
X0232850Y0316433D01*
X0229100Y0320183D01*
X0229100Y0330183D01*
X0214100Y0328933D02*
X0214100Y0320183D01*
X0250350Y0316433D02*
X0259100Y0307683D01*
X0259100Y0268933D01*
X0255350Y0265183D01*
X0216600Y0265183D01*
X0216600Y0285183D02*
X0246600Y0285183D01*
X0271600Y0265183D02*
X0311600Y0265183D01*
X0314100Y0267683D01*
X0314100Y0306433D01*
X0306600Y0313933D01*
X0280350Y0313933D01*
X0274100Y0320183D01*
X0274100Y0330183D01*
X0259100Y0330183D02*
X0259100Y0320183D01*
X0264100Y0315183D01*
X0267850Y0315183D01*
X0271600Y0311433D01*
X0271600Y0305183D01*
X0301600Y0305183D01*
X0305350Y0321433D02*
X0309100Y0321433D01*
X0325350Y0305183D01*
X0356600Y0305183D01*
X0369100Y0313933D02*
X0369100Y0268933D01*
X0365350Y0265183D01*
X0326600Y0265183D01*
X0369100Y0313933D02*
X0364100Y0318933D01*
X0325350Y0318933D01*
X0320350Y0323933D01*
X0320350Y0328933D01*
X0305350Y0321433D02*
X0302850Y0323933D01*
X0302850Y0330183D01*
X0191600Y0285183D02*
X0099100Y0285183D01*
X0094100Y0290183D01*
D12*
X0091600Y0140183D03*
X0026600Y0140183D03*
D13*
X0026600Y0160183D03*
X0091600Y0160183D03*
D14*
X0114100Y0184883D02*
X0114100Y0190483D01*
X0114100Y0224883D02*
X0114100Y0230483D01*
X0094100Y0287383D02*
X0094100Y0292983D01*
X0094100Y0327383D02*
X0094100Y0332983D01*
D15*
X0021600Y0058933D03*
X0021600Y0340183D03*
X0356600Y0340183D03*
X0356600Y0058933D03*
D16*
X0319400Y0325233D02*
X0319400Y0335133D01*
X0303800Y0335133D02*
X0303800Y0325233D01*
X0274400Y0325233D02*
X0274400Y0335133D01*
X0258800Y0335133D02*
X0258800Y0325233D01*
X0229400Y0325233D02*
X0229400Y0335133D01*
X0213800Y0335133D02*
X0213800Y0325233D01*
X0184400Y0325233D02*
X0184400Y0335133D01*
X0168800Y0335133D02*
X0168800Y0325233D01*
X0129400Y0325233D02*
X0129400Y0335133D01*
X0113800Y0335133D02*
X0113800Y0325233D01*
X0074400Y0325233D02*
X0074400Y0335133D01*
X0058800Y0335133D02*
X0058800Y0325233D01*
D17*
X0344100Y0205183D03*
X0344100Y0195183D03*
X0344100Y0185183D03*
X0344100Y0175183D03*
X0354100Y0175183D03*
X0354100Y0185183D03*
X0354100Y0195183D03*
X0354100Y0205183D03*
X0354100Y0127683D03*
X0354100Y0117683D03*
X0354100Y0107683D03*
X0354100Y0097683D03*
X0354100Y0087683D03*
X0344100Y0087683D03*
X0344100Y0097683D03*
X0344100Y0107683D03*
X0344100Y0117683D03*
X0344100Y0127683D03*
D18*
X0353400Y0235183D02*
X0359800Y0235183D01*
X0329800Y0235183D02*
X0323400Y0235183D01*
X0304800Y0235183D02*
X0298400Y0235183D01*
X0274800Y0235183D02*
X0268400Y0235183D01*
X0249800Y0235183D02*
X0243400Y0235183D01*
X0219800Y0235183D02*
X0213400Y0235183D01*
X0194800Y0235183D02*
X0188400Y0235183D01*
X0164800Y0235183D02*
X0158400Y0235183D01*
X0158400Y0265183D02*
X0164800Y0265183D01*
X0164800Y0285183D02*
X0158400Y0285183D01*
X0158400Y0305183D02*
X0164800Y0305183D01*
X0188400Y0305183D02*
X0194800Y0305183D01*
X0213400Y0305183D02*
X0219800Y0305183D01*
X0243400Y0305183D02*
X0249800Y0305183D01*
X0268400Y0305183D02*
X0274800Y0305183D01*
X0298400Y0305183D02*
X0304800Y0305183D01*
X0323400Y0305183D02*
X0329800Y0305183D01*
X0329800Y0285183D02*
X0323400Y0285183D01*
X0304800Y0285183D02*
X0298400Y0285183D01*
X0298400Y0265183D02*
X0304800Y0265183D01*
X0323400Y0265183D02*
X0329800Y0265183D01*
X0353400Y0265183D02*
X0359800Y0265183D01*
X0359800Y0285183D02*
X0353400Y0285183D01*
X0353400Y0305183D02*
X0359800Y0305183D01*
X0274800Y0285183D02*
X0268400Y0285183D01*
X0249800Y0285183D02*
X0243400Y0285183D01*
X0243400Y0265183D02*
X0249800Y0265183D01*
X0268400Y0265183D02*
X0274800Y0265183D01*
X0219800Y0265183D02*
X0213400Y0265183D01*
X0194800Y0265183D02*
X0188400Y0265183D01*
X0188400Y0285183D02*
X0194800Y0285183D01*
X0213400Y0285183D02*
X0219800Y0285183D01*
D19*
X0166600Y0195183D03*
X0156600Y0195183D03*
X0156600Y0177683D03*
X0166600Y0177683D03*
X0166600Y0160183D03*
X0156600Y0160183D03*
X0156600Y0142683D03*
X0166600Y0142683D03*
X0166600Y0117683D03*
X0156600Y0117683D03*
X0070350Y0062683D03*
X0060350Y0062683D03*
D20*
X0242100Y0077683D03*
X0261100Y0077683D03*
M02*
