G75*
%MOIN*%
%OFA0B0*%
%FSLAX25Y25*%
%IPPOS*%
%LPD*%
%AMOC8*
5,1,8,0,0,1.08239X$1,22.5*
%
%ADD10C,0.00900*%
%ADD11R,0.07087X0.06299*%
%ADD12C,0.10000*%
%ADD13OC8,0.10000*%
%ADD14R,0.06299X0.07087*%
%ADD15C,0.05600*%
%ADD16R,0.23000X0.23000*%
%ADD17R,0.01969X0.05906*%
%ADD18R,0.05906X0.01969*%
%ADD19R,0.02600X0.08000*%
%ADD20R,0.24409X0.21260*%
%ADD21R,0.06299X0.03937*%
%ADD22C,0.09900*%
%ADD23OC8,0.06400*%
%ADD24C,0.06400*%
%ADD25OC8,0.05600*%
%ADD26C,0.05600*%
%ADD27R,0.06299X0.07874*%
%ADD28R,0.07874X0.06299*%
%ADD29R,0.08000X0.02600*%
%ADD30C,0.04000*%
%ADD31C,0.01600*%
%ADD32C,0.01200*%
%ADD33OC8,0.03969*%
%ADD34C,0.02400*%
D10*
X0153300Y0046417D02*
X0154084Y0045633D01*
X0155652Y0045633D01*
X0156436Y0046417D01*
X0156436Y0047201D01*
X0155652Y0047985D01*
X0154084Y0047985D01*
X0153300Y0048769D01*
X0153300Y0049553D01*
X0154084Y0050337D01*
X0155652Y0050337D01*
X0156436Y0049553D01*
X0158456Y0050337D02*
X0160808Y0050337D01*
X0161592Y0049553D01*
X0161592Y0046417D01*
X0160808Y0045633D01*
X0158456Y0045633D01*
X0158456Y0050337D01*
X0163613Y0050337D02*
X0163613Y0045633D01*
X0166749Y0045633D01*
X0173926Y0045633D02*
X0177062Y0045633D01*
X0179082Y0045633D02*
X0179082Y0050337D01*
X0180650Y0048769D01*
X0182218Y0050337D01*
X0182218Y0045633D01*
X0184238Y0045633D02*
X0187374Y0045633D01*
X0185806Y0047985D02*
X0184238Y0047985D01*
X0184238Y0050337D02*
X0184238Y0045633D01*
X0184238Y0050337D02*
X0187374Y0050337D01*
X0194551Y0050337D02*
X0194551Y0045633D01*
X0194551Y0047201D02*
X0196903Y0047201D01*
X0197687Y0047985D01*
X0197687Y0049553D01*
X0196903Y0050337D01*
X0194551Y0050337D01*
X0196119Y0047201D02*
X0197687Y0045633D01*
X0199708Y0045633D02*
X0202844Y0045633D01*
X0204864Y0045633D02*
X0208000Y0045633D01*
X0210020Y0045633D02*
X0210020Y0048769D01*
X0211588Y0050337D01*
X0213156Y0048769D01*
X0213156Y0045633D01*
X0213156Y0047985D02*
X0210020Y0047985D01*
X0204864Y0050337D02*
X0204864Y0045633D01*
X0201276Y0047985D02*
X0199708Y0047985D01*
X0199708Y0050337D02*
X0199708Y0045633D01*
X0199708Y0050337D02*
X0202844Y0050337D01*
X0215177Y0050337D02*
X0215177Y0049553D01*
X0216745Y0047985D01*
X0216745Y0045633D01*
X0216745Y0047985D02*
X0218313Y0049553D01*
X0218313Y0050337D01*
X0225490Y0049553D02*
X0225490Y0048769D01*
X0226274Y0047985D01*
X0227842Y0047985D01*
X0228626Y0047201D01*
X0228626Y0046417D01*
X0227842Y0045633D01*
X0226274Y0045633D01*
X0225490Y0046417D01*
X0225490Y0049553D02*
X0226274Y0050337D01*
X0227842Y0050337D01*
X0228626Y0049553D01*
X0230646Y0050337D02*
X0230646Y0045633D01*
X0233782Y0045633D01*
X0235802Y0046417D02*
X0235802Y0049553D01*
X0236586Y0050337D01*
X0238154Y0050337D01*
X0238938Y0049553D01*
X0238938Y0046417D01*
X0238154Y0045633D01*
X0236586Y0045633D01*
X0235802Y0046417D01*
X0237370Y0047201D02*
X0238938Y0045633D01*
X0240959Y0046417D02*
X0240959Y0050337D01*
X0244095Y0050337D02*
X0244095Y0046417D01*
X0243311Y0045633D01*
X0241743Y0045633D01*
X0240959Y0046417D01*
X0246115Y0045633D02*
X0246115Y0050337D01*
X0249251Y0050337D01*
X0251272Y0050337D02*
X0254408Y0045633D01*
X0254408Y0050337D01*
X0256428Y0049553D02*
X0256428Y0046417D01*
X0257212Y0045633D01*
X0258780Y0045633D01*
X0259564Y0046417D01*
X0261584Y0045633D02*
X0261584Y0050337D01*
X0264720Y0050337D01*
X0266741Y0050337D02*
X0266741Y0045633D01*
X0266741Y0047201D02*
X0269093Y0047201D01*
X0269877Y0047985D01*
X0269877Y0049553D01*
X0269093Y0050337D01*
X0266741Y0050337D01*
X0268309Y0047201D02*
X0269877Y0045633D01*
X0277054Y0047985D02*
X0280190Y0047985D01*
X0287366Y0048769D02*
X0288934Y0045633D01*
X0290502Y0048769D01*
X0292523Y0048769D02*
X0294091Y0050337D01*
X0294091Y0045633D01*
X0292523Y0045633D02*
X0295659Y0045633D01*
X0264720Y0045633D02*
X0261584Y0045633D01*
X0261584Y0047985D02*
X0263152Y0047985D01*
X0259564Y0049553D02*
X0258780Y0050337D01*
X0257212Y0050337D01*
X0256428Y0049553D01*
X0251272Y0050337D02*
X0251272Y0045633D01*
X0249251Y0045633D02*
X0246115Y0045633D01*
X0246115Y0047985D02*
X0247683Y0047985D01*
X0233782Y0050337D02*
X0230646Y0050337D01*
X0230646Y0047985D02*
X0232214Y0047985D01*
X0177062Y0050337D02*
X0173926Y0050337D01*
X0173926Y0045633D01*
X0173926Y0047985D02*
X0175494Y0047985D01*
X0367050Y0176735D02*
X0370186Y0176735D01*
X0369402Y0174383D02*
X0369402Y0179087D01*
X0367050Y0176735D01*
X0367834Y0184383D02*
X0367050Y0185167D01*
X0367834Y0184383D02*
X0369402Y0184383D01*
X0370186Y0185167D01*
X0370186Y0185951D01*
X0369402Y0186735D01*
X0368618Y0186735D01*
X0369402Y0186735D02*
X0370186Y0187519D01*
X0370186Y0188303D01*
X0369402Y0189087D01*
X0367834Y0189087D01*
X0367050Y0188303D01*
X0367050Y0194383D02*
X0370186Y0197519D01*
X0370186Y0198303D01*
X0369402Y0199087D01*
X0367834Y0199087D01*
X0367050Y0198303D01*
X0367050Y0194383D02*
X0370186Y0194383D01*
X0370186Y0204383D02*
X0367050Y0204383D01*
X0368618Y0204383D02*
X0368618Y0209087D01*
X0367050Y0207519D01*
X0325499Y0343133D02*
X0325499Y0347837D01*
X0325499Y0345485D02*
X0322363Y0345485D01*
X0322363Y0343133D02*
X0322363Y0347837D01*
X0320343Y0347837D02*
X0320343Y0343133D01*
X0317207Y0347837D01*
X0317207Y0343133D01*
X0315337Y0343133D02*
X0313769Y0343133D01*
X0314553Y0343133D02*
X0314553Y0347837D01*
X0313769Y0347837D02*
X0315337Y0347837D01*
X0306592Y0347837D02*
X0303456Y0343133D01*
X0306592Y0343133D02*
X0303456Y0347837D01*
X0301436Y0347837D02*
X0298300Y0347837D01*
X0299868Y0347837D02*
X0299868Y0343133D01*
X0275655Y0343917D02*
X0274871Y0343133D01*
X0272519Y0343133D01*
X0272519Y0347837D01*
X0274871Y0347837D01*
X0275655Y0347053D01*
X0275655Y0343917D01*
X0270499Y0343133D02*
X0270499Y0347837D01*
X0267363Y0347837D02*
X0270499Y0343133D01*
X0267363Y0343133D02*
X0267363Y0347837D01*
X0265342Y0347837D02*
X0262206Y0347837D01*
X0262206Y0343133D01*
X0265342Y0343133D01*
X0263774Y0345485D02*
X0262206Y0345485D01*
X0260186Y0344701D02*
X0260186Y0343917D01*
X0259402Y0343133D01*
X0257834Y0343133D01*
X0257050Y0343917D01*
X0257834Y0345485D02*
X0259402Y0345485D01*
X0260186Y0344701D01*
X0260186Y0347053D02*
X0259402Y0347837D01*
X0257834Y0347837D01*
X0257050Y0347053D01*
X0257050Y0346269D01*
X0257834Y0345485D01*
X0244562Y0354553D02*
X0244562Y0355337D01*
X0244562Y0354553D02*
X0242994Y0352985D01*
X0242994Y0350633D01*
X0242994Y0352985D02*
X0241426Y0354553D01*
X0241426Y0355337D01*
X0239405Y0353769D02*
X0239405Y0350633D01*
X0239405Y0352985D02*
X0236269Y0352985D01*
X0236269Y0353769D02*
X0237837Y0355337D01*
X0239405Y0353769D01*
X0236269Y0353769D02*
X0236269Y0350633D01*
X0234249Y0350633D02*
X0231113Y0350633D01*
X0231113Y0355337D01*
X0229092Y0355337D02*
X0225956Y0355337D01*
X0225956Y0350633D01*
X0229092Y0350633D01*
X0227524Y0352985D02*
X0225956Y0352985D01*
X0223936Y0352985D02*
X0223152Y0352201D01*
X0220800Y0352201D01*
X0220800Y0350633D02*
X0220800Y0355337D01*
X0223152Y0355337D01*
X0223936Y0354553D01*
X0223936Y0352985D01*
X0222368Y0352201D02*
X0223936Y0350633D01*
X0226587Y0347837D02*
X0226587Y0343133D01*
X0225019Y0343133D02*
X0228155Y0343133D01*
X0230176Y0343133D02*
X0233312Y0346269D01*
X0233312Y0347053D01*
X0232528Y0347837D01*
X0230960Y0347837D01*
X0230176Y0347053D01*
X0226587Y0347837D02*
X0225019Y0346269D01*
X0222999Y0345485D02*
X0219863Y0345485D01*
X0221431Y0347053D02*
X0221431Y0343917D01*
X0216749Y0350633D02*
X0216749Y0353769D01*
X0215181Y0355337D01*
X0213613Y0353769D01*
X0213613Y0350633D01*
X0211592Y0350633D02*
X0211592Y0355337D01*
X0213613Y0352985D02*
X0216749Y0352985D01*
X0211592Y0350633D02*
X0208456Y0355337D01*
X0208456Y0350633D01*
X0206436Y0350633D02*
X0203300Y0350633D01*
X0203300Y0355337D01*
X0193468Y0347837D02*
X0193468Y0344701D01*
X0191900Y0343133D01*
X0190332Y0344701D01*
X0190332Y0347837D01*
X0188312Y0347053D02*
X0188312Y0346269D01*
X0185176Y0343133D01*
X0188312Y0343133D01*
X0183155Y0343133D02*
X0180019Y0343133D01*
X0181587Y0343133D02*
X0181587Y0347837D01*
X0180019Y0346269D01*
X0177999Y0345485D02*
X0174863Y0345485D01*
X0176431Y0347053D02*
X0176431Y0343917D01*
X0175956Y0350633D02*
X0175956Y0355337D01*
X0179092Y0350633D01*
X0179092Y0355337D01*
X0181113Y0353769D02*
X0182681Y0355337D01*
X0184249Y0353769D01*
X0184249Y0350633D01*
X0184249Y0352985D02*
X0181113Y0352985D01*
X0181113Y0353769D02*
X0181113Y0350633D01*
X0185176Y0347053D02*
X0185960Y0347837D01*
X0187528Y0347837D01*
X0188312Y0347053D01*
X0173936Y0350633D02*
X0170800Y0350633D01*
X0170800Y0355337D01*
X0167686Y0345485D02*
X0164550Y0345485D01*
X0139874Y0346417D02*
X0139874Y0349553D01*
X0139090Y0350337D01*
X0136738Y0350337D01*
X0136738Y0345633D01*
X0139090Y0345633D01*
X0139874Y0346417D01*
X0134718Y0345633D02*
X0134718Y0350337D01*
X0131582Y0350337D02*
X0131582Y0345633D01*
X0129562Y0346417D02*
X0129562Y0347985D01*
X0127994Y0347985D01*
X0129562Y0346417D02*
X0128778Y0345633D01*
X0127210Y0345633D01*
X0126426Y0346417D01*
X0126426Y0349553D01*
X0127210Y0350337D01*
X0128778Y0350337D01*
X0129562Y0349553D01*
X0131582Y0350337D02*
X0134718Y0345633D01*
X0119249Y0350337D02*
X0116113Y0350337D01*
X0117681Y0350337D02*
X0117681Y0345633D01*
X0112524Y0345633D02*
X0112524Y0350337D01*
X0110956Y0350337D02*
X0114092Y0350337D01*
X0108936Y0349553D02*
X0108936Y0347985D01*
X0108152Y0347201D01*
X0105800Y0347201D01*
X0105800Y0345633D02*
X0105800Y0350337D01*
X0108152Y0350337D01*
X0108936Y0349553D01*
X0091124Y0350337D02*
X0091124Y0347201D01*
X0089556Y0345633D01*
X0087988Y0347201D01*
X0087988Y0350337D01*
X0085968Y0349553D02*
X0085184Y0350337D01*
X0083616Y0350337D01*
X0082832Y0349553D01*
X0085968Y0349553D02*
X0085968Y0348769D01*
X0082832Y0345633D01*
X0085968Y0345633D01*
X0080812Y0345633D02*
X0077676Y0345633D01*
X0079244Y0345633D02*
X0079244Y0350337D01*
X0077676Y0348769D01*
X0075655Y0347985D02*
X0072519Y0347985D01*
X0074087Y0349553D02*
X0074087Y0346417D01*
X0060186Y0347985D02*
X0057050Y0347985D01*
X0209550Y0345485D02*
X0212686Y0345485D01*
X0230176Y0343133D02*
X0233312Y0343133D01*
X0235332Y0344701D02*
X0236900Y0343133D01*
X0238468Y0344701D01*
X0238468Y0347837D01*
X0235332Y0347837D02*
X0235332Y0344701D01*
D11*
X0259100Y0180695D03*
X0259100Y0169671D03*
X0279100Y0083195D03*
X0279100Y0072171D03*
X0224100Y0072171D03*
X0224100Y0083195D03*
D12*
X0091600Y0140183D03*
X0026600Y0140183D03*
D13*
X0026600Y0160183D03*
X0091600Y0160183D03*
D14*
X0059612Y0162683D03*
X0048588Y0162683D03*
X0032112Y0117683D03*
X0021088Y0117683D03*
X0021088Y0097683D03*
X0032112Y0097683D03*
X0178588Y0087683D03*
X0189612Y0087683D03*
X0189612Y0130183D03*
X0178588Y0130183D03*
X0298588Y0122683D03*
X0309612Y0122683D03*
X0309612Y0137683D03*
X0298588Y0137683D03*
X0319838Y0223933D03*
X0330862Y0223933D03*
X0124612Y0242683D03*
X0113588Y0242683D03*
X0044612Y0242683D03*
X0033588Y0242683D03*
D15*
X0094100Y0287383D02*
X0094100Y0292983D01*
X0094100Y0327383D02*
X0094100Y0332983D01*
X0114100Y0230483D02*
X0114100Y0224883D01*
X0114100Y0190483D02*
X0114100Y0184883D01*
D16*
X0021600Y0058933D03*
X0021600Y0340183D03*
X0356600Y0340183D03*
X0356600Y0058933D03*
D17*
X0269848Y0114848D03*
X0266698Y0114848D03*
X0263549Y0114848D03*
X0260399Y0114848D03*
X0257250Y0114848D03*
X0254100Y0114848D03*
X0250950Y0114848D03*
X0247801Y0114848D03*
X0244651Y0114848D03*
X0241502Y0114848D03*
X0238352Y0114848D03*
X0238352Y0160518D03*
X0241502Y0160518D03*
X0244651Y0160518D03*
X0247801Y0160518D03*
X0250950Y0160518D03*
X0254100Y0160518D03*
X0257250Y0160518D03*
X0260399Y0160518D03*
X0263549Y0160518D03*
X0266698Y0160518D03*
X0269848Y0160518D03*
D18*
X0276935Y0153431D03*
X0276935Y0150281D03*
X0276935Y0147132D03*
X0276935Y0143982D03*
X0276935Y0140833D03*
X0276935Y0137683D03*
X0276935Y0134533D03*
X0276935Y0131384D03*
X0276935Y0128234D03*
X0276935Y0125085D03*
X0276935Y0121935D03*
X0231265Y0121935D03*
X0231265Y0125085D03*
X0231265Y0128234D03*
X0231265Y0131384D03*
X0231265Y0134533D03*
X0231265Y0137683D03*
X0231265Y0140833D03*
X0231265Y0143982D03*
X0231265Y0147132D03*
X0231265Y0150281D03*
X0231265Y0153431D03*
D19*
X0231600Y0193083D03*
X0236600Y0193083D03*
X0241600Y0193083D03*
X0246600Y0193083D03*
X0251600Y0193083D03*
X0256600Y0193083D03*
X0261600Y0193083D03*
X0266600Y0193083D03*
X0266600Y0217283D03*
X0261600Y0217283D03*
X0256600Y0217283D03*
X0251600Y0217283D03*
X0246600Y0217283D03*
X0241600Y0217283D03*
X0236600Y0217283D03*
X0231600Y0217283D03*
D20*
X0073943Y0107683D03*
D21*
X0045202Y0098707D03*
X0045202Y0116659D03*
D22*
X0058800Y0325233D02*
X0058800Y0335133D01*
X0074400Y0335133D02*
X0074400Y0325233D01*
X0113800Y0325233D02*
X0113800Y0335133D01*
X0129400Y0335133D02*
X0129400Y0325233D01*
X0168800Y0325233D02*
X0168800Y0335133D01*
X0184400Y0335133D02*
X0184400Y0325233D01*
X0213800Y0325233D02*
X0213800Y0335133D01*
X0229400Y0335133D02*
X0229400Y0325233D01*
X0258800Y0325233D02*
X0258800Y0335133D01*
X0274400Y0335133D02*
X0274400Y0325233D01*
X0303800Y0325233D02*
X0303800Y0335133D01*
X0319400Y0335133D02*
X0319400Y0325233D01*
D23*
X0344100Y0205183D03*
X0344100Y0195183D03*
X0344100Y0185183D03*
X0344100Y0175183D03*
X0354100Y0175183D03*
X0354100Y0185183D03*
X0354100Y0195183D03*
X0354100Y0205183D03*
X0354100Y0127683D03*
X0354100Y0117683D03*
X0354100Y0107683D03*
X0354100Y0097683D03*
X0354100Y0087683D03*
X0344100Y0087683D03*
X0344100Y0097683D03*
X0344100Y0107683D03*
X0344100Y0117683D03*
X0344100Y0127683D03*
D24*
X0353400Y0235183D02*
X0359800Y0235183D01*
X0329800Y0235183D02*
X0323400Y0235183D01*
X0304800Y0235183D02*
X0298400Y0235183D01*
X0274800Y0235183D02*
X0268400Y0235183D01*
X0249800Y0235183D02*
X0243400Y0235183D01*
X0219800Y0235183D02*
X0213400Y0235183D01*
X0194800Y0235183D02*
X0188400Y0235183D01*
X0164800Y0235183D02*
X0158400Y0235183D01*
X0158400Y0265183D02*
X0164800Y0265183D01*
X0164800Y0285183D02*
X0158400Y0285183D01*
X0158400Y0305183D02*
X0164800Y0305183D01*
X0188400Y0305183D02*
X0194800Y0305183D01*
X0213400Y0305183D02*
X0219800Y0305183D01*
X0243400Y0305183D02*
X0249800Y0305183D01*
X0268400Y0305183D02*
X0274800Y0305183D01*
X0298400Y0305183D02*
X0304800Y0305183D01*
X0323400Y0305183D02*
X0329800Y0305183D01*
X0329800Y0285183D02*
X0323400Y0285183D01*
X0304800Y0285183D02*
X0298400Y0285183D01*
X0298400Y0265183D02*
X0304800Y0265183D01*
X0323400Y0265183D02*
X0329800Y0265183D01*
X0353400Y0265183D02*
X0359800Y0265183D01*
X0359800Y0285183D02*
X0353400Y0285183D01*
X0353400Y0305183D02*
X0359800Y0305183D01*
X0274800Y0285183D02*
X0268400Y0285183D01*
X0249800Y0285183D02*
X0243400Y0285183D01*
X0243400Y0265183D02*
X0249800Y0265183D01*
X0268400Y0265183D02*
X0274800Y0265183D01*
X0219800Y0265183D02*
X0213400Y0265183D01*
X0194800Y0265183D02*
X0188400Y0265183D01*
X0188400Y0285183D02*
X0194800Y0285183D01*
X0213400Y0285183D02*
X0219800Y0285183D01*
D25*
X0166600Y0195183D03*
X0156600Y0195183D03*
X0156600Y0177683D03*
X0166600Y0177683D03*
X0166600Y0160183D03*
X0156600Y0160183D03*
X0156600Y0142683D03*
X0166600Y0142683D03*
X0166600Y0117683D03*
X0156600Y0117683D03*
X0070350Y0062683D03*
X0060350Y0062683D03*
D26*
X0242100Y0077683D03*
X0261100Y0077683D03*
D27*
X0189612Y0100183D03*
X0178588Y0100183D03*
X0178588Y0117683D03*
X0189612Y0117683D03*
X0189612Y0142683D03*
X0178588Y0142683D03*
X0178588Y0160183D03*
X0189612Y0160183D03*
X0189612Y0177683D03*
X0178588Y0177683D03*
X0178588Y0195183D03*
X0189612Y0195183D03*
D28*
X0045350Y0085695D03*
X0045350Y0074671D03*
D29*
X0291800Y0170183D03*
X0291800Y0175183D03*
X0291800Y0180183D03*
X0291800Y0185183D03*
X0291800Y0190183D03*
X0291800Y0195183D03*
X0291800Y0200183D03*
X0291800Y0205183D03*
X0291800Y0210183D03*
X0291800Y0215183D03*
X0331400Y0215183D03*
X0331400Y0210183D03*
X0331400Y0205183D03*
X0331400Y0200183D03*
X0331400Y0195183D03*
X0331400Y0190183D03*
X0331400Y0185183D03*
X0331400Y0180183D03*
X0331400Y0175183D03*
X0331400Y0170183D03*
D30*
X0216600Y0285183D02*
X0191600Y0285183D01*
X0191600Y0305183D02*
X0216600Y0305183D01*
X0096600Y0307683D02*
X0096600Y0297683D01*
X0094100Y0295183D01*
X0094100Y0290183D01*
X0086600Y0285183D02*
X0086600Y0282683D01*
X0084100Y0280183D01*
X0056600Y0280183D01*
X0054100Y0277683D01*
X0054100Y0275183D01*
X0056600Y0272683D01*
X0084100Y0272683D01*
X0086600Y0270183D01*
X0086600Y0267683D01*
X0084100Y0265183D01*
X0056600Y0265183D01*
X0054100Y0262683D01*
X0054100Y0260183D01*
X0056600Y0257683D01*
X0084100Y0257683D01*
X0086600Y0255183D01*
X0086600Y0252683D01*
X0084100Y0250183D01*
X0046600Y0250183D01*
X0044100Y0247683D01*
X0044100Y0243195D01*
X0091088Y0243195D01*
X0094100Y0240183D01*
X0094100Y0237683D01*
X0091600Y0235183D01*
X0061600Y0235183D01*
X0059100Y0232683D01*
X0059100Y0230183D01*
X0061600Y0227683D01*
X0091600Y0227683D01*
X0094100Y0225183D01*
X0094100Y0222683D01*
X0091600Y0220183D01*
X0061600Y0220183D01*
X0059100Y0217683D01*
X0059100Y0215183D01*
X0061600Y0212683D01*
X0091600Y0212683D01*
X0094100Y0210183D01*
X0094100Y0207683D01*
X0091600Y0205183D01*
X0061600Y0205183D01*
X0059100Y0202683D01*
X0059100Y0200183D01*
X0061600Y0197683D01*
X0091600Y0197683D01*
X0094100Y0195183D01*
X0094100Y0192683D01*
X0091600Y0190183D01*
X0061600Y0190183D01*
X0059100Y0187683D01*
X0059100Y0185183D01*
X0061600Y0182683D01*
X0091600Y0182683D01*
X0094100Y0180183D01*
X0094100Y0177683D01*
X0091600Y0175183D01*
X0061600Y0175183D01*
X0059100Y0172683D01*
X0059100Y0163195D01*
X0059612Y0162683D01*
X0059612Y0140695D01*
X0059100Y0140183D01*
X0058588Y0139671D01*
X0059100Y0140183D02*
X0026600Y0140183D01*
X0026600Y0130183D01*
X0032112Y0124671D01*
X0032112Y0117683D01*
X0033135Y0116659D01*
X0045202Y0116659D01*
X0045202Y0098707D02*
X0033135Y0098707D01*
X0032112Y0097683D01*
X0045202Y0098707D02*
X0045350Y0098559D01*
X0045350Y0085695D01*
X0045350Y0074671D02*
X0045350Y0070183D01*
X0052850Y0062683D01*
X0060350Y0062683D01*
X0059100Y0140183D02*
X0091600Y0140183D01*
X0049100Y0163195D02*
X0048588Y0162683D01*
X0046088Y0160183D01*
X0026600Y0160183D01*
X0049100Y0163195D02*
X0049100Y0180183D01*
X0046600Y0182683D01*
X0014100Y0182683D01*
X0011600Y0185183D01*
X0011600Y0187683D01*
X0014100Y0190183D01*
X0049100Y0190183D01*
X0051600Y0192683D01*
X0051600Y0195183D01*
X0049100Y0197683D01*
X0014100Y0197683D01*
X0011600Y0200183D01*
X0011600Y0202683D01*
X0014100Y0205183D01*
X0049100Y0205183D01*
X0051600Y0207683D01*
X0051600Y0210183D01*
X0049100Y0212683D01*
X0014100Y0212683D01*
X0011600Y0215183D01*
X0011600Y0217683D01*
X0014100Y0220183D01*
X0049100Y0220183D01*
X0051600Y0222683D01*
X0051600Y0225183D01*
X0049100Y0227683D01*
X0014100Y0227683D01*
X0011600Y0230183D01*
X0011600Y0232683D01*
X0014100Y0235183D01*
X0031600Y0235183D01*
X0034100Y0237683D01*
X0034100Y0243195D01*
X0033588Y0242683D01*
X0034100Y0243195D02*
X0034100Y0252683D01*
X0031600Y0255183D01*
X0014100Y0255183D01*
X0011600Y0257683D01*
X0011600Y0260183D01*
X0014100Y0262683D01*
X0042850Y0262683D01*
X0045350Y0265183D01*
X0045350Y0267683D01*
X0042850Y0270183D01*
X0014100Y0270183D01*
X0011600Y0272683D01*
X0011600Y0275183D01*
X0014100Y0277683D01*
X0042850Y0277683D01*
X0045350Y0280183D01*
X0045350Y0282683D01*
X0042850Y0285183D01*
X0014100Y0285183D01*
X0011600Y0287683D01*
X0011600Y0290183D01*
X0014100Y0292683D01*
X0042850Y0292683D01*
X0045350Y0295183D01*
X0045350Y0297683D01*
X0042850Y0300183D01*
X0014100Y0300183D01*
X0011600Y0302683D01*
X0011600Y0307683D01*
X0014100Y0310183D01*
X0056600Y0310183D01*
X0058800Y0312383D01*
X0058800Y0330183D01*
X0069100Y0310183D02*
X0066600Y0307683D01*
X0066600Y0305183D01*
X0069100Y0302683D01*
X0084100Y0302683D01*
X0086600Y0300183D01*
X0086600Y0297683D01*
X0084100Y0295183D01*
X0056600Y0295183D01*
X0054100Y0292683D01*
X0054100Y0290183D01*
X0056600Y0287683D01*
X0084100Y0287683D01*
X0086600Y0285183D01*
X0096600Y0307683D02*
X0094100Y0310183D01*
X0069100Y0310183D01*
X0044100Y0243195D02*
X0044612Y0242683D01*
D31*
X0096600Y0252683D02*
X0099100Y0250183D01*
X0111600Y0250183D01*
X0114100Y0247683D01*
X0114100Y0243195D01*
X0113588Y0242683D01*
X0114100Y0242171D01*
X0114100Y0227683D01*
X0124612Y0242683D02*
X0124100Y0243195D01*
X0124100Y0252683D01*
X0126600Y0255183D01*
X0141600Y0255183D01*
X0144100Y0257683D01*
X0141600Y0260183D01*
X0126600Y0260183D01*
X0124100Y0262683D01*
X0126600Y0265183D01*
X0141600Y0265183D01*
X0144100Y0267683D01*
X0141600Y0270183D01*
X0126600Y0270183D01*
X0124100Y0272683D01*
X0126600Y0275183D01*
X0141600Y0275183D01*
X0144100Y0277683D01*
X0141600Y0280183D01*
X0126600Y0280183D01*
X0124100Y0282683D01*
X0126600Y0285183D01*
X0141600Y0285183D01*
X0144100Y0287683D01*
X0141600Y0290183D01*
X0126600Y0290183D01*
X0124100Y0292683D01*
X0126600Y0295183D01*
X0141600Y0295183D01*
X0144100Y0297683D01*
X0141600Y0300183D01*
X0126600Y0300183D01*
X0124100Y0302683D01*
X0126600Y0305183D01*
X0141600Y0305183D01*
X0144100Y0307683D01*
X0141600Y0310183D01*
X0126600Y0310183D01*
X0124100Y0312683D01*
X0126600Y0315183D01*
X0141600Y0315183D01*
X0144100Y0317683D01*
X0141600Y0320183D01*
X0131600Y0320183D01*
X0129100Y0322683D01*
X0129100Y0329883D01*
X0129400Y0330183D01*
X0113800Y0330183D02*
X0113800Y0317383D01*
X0111600Y0315183D01*
X0106600Y0315183D01*
X0104100Y0312683D01*
X0106600Y0310183D01*
X0119100Y0310183D01*
X0121600Y0307683D01*
X0119100Y0305183D01*
X0106600Y0305183D01*
X0104100Y0302683D01*
X0106600Y0300183D01*
X0119100Y0300183D01*
X0121600Y0297683D01*
X0119100Y0295183D01*
X0106600Y0295183D01*
X0104100Y0292683D01*
X0106600Y0290183D01*
X0119100Y0290183D01*
X0121600Y0287683D01*
X0119100Y0285183D01*
X0101600Y0285183D01*
X0099100Y0282683D01*
X0101600Y0280183D01*
X0119100Y0280183D01*
X0121600Y0277683D01*
X0119100Y0275183D01*
X0099100Y0275183D01*
X0096600Y0272683D01*
X0099100Y0270183D01*
X0119100Y0270183D01*
X0121600Y0267683D01*
X0119100Y0265183D01*
X0099100Y0265183D01*
X0096600Y0262683D01*
X0099100Y0260183D01*
X0119100Y0260183D01*
X0121600Y0257683D01*
X0119100Y0255183D01*
X0099100Y0255183D01*
X0096600Y0252683D01*
X0114100Y0187683D02*
X0135350Y0187683D01*
X0142850Y0180183D01*
X0142850Y0076433D01*
X0159100Y0060183D01*
X0292850Y0060183D01*
X0297850Y0065183D01*
X0297850Y0096433D01*
X0297850Y0111433D02*
X0297850Y0121945D01*
X0298588Y0122683D01*
X0297840Y0121935D01*
X0276935Y0121935D01*
D32*
X0269100Y0122683D02*
X0239100Y0122683D01*
X0239100Y0152683D01*
X0269100Y0152683D01*
X0269100Y0122683D01*
X0269100Y0122880D02*
X0239100Y0122880D01*
X0239100Y0124079D02*
X0269100Y0124079D01*
X0269100Y0125277D02*
X0239100Y0125277D01*
X0239100Y0126476D02*
X0269100Y0126476D01*
X0269100Y0127674D02*
X0239100Y0127674D01*
X0239100Y0128873D02*
X0269100Y0128873D01*
X0269100Y0130071D02*
X0239100Y0130071D01*
X0239100Y0131270D02*
X0269100Y0131270D01*
X0269100Y0132468D02*
X0239100Y0132468D01*
X0239100Y0133667D02*
X0269100Y0133667D01*
X0269100Y0134865D02*
X0239100Y0134865D01*
X0239100Y0136064D02*
X0269100Y0136064D01*
X0269100Y0137262D02*
X0239100Y0137262D01*
X0239100Y0138461D02*
X0269100Y0138461D01*
X0269100Y0139660D02*
X0239100Y0139660D01*
X0239100Y0140858D02*
X0269100Y0140858D01*
X0269100Y0142057D02*
X0239100Y0142057D01*
X0239100Y0143255D02*
X0269100Y0143255D01*
X0269100Y0144454D02*
X0239100Y0144454D01*
X0239100Y0145652D02*
X0269100Y0145652D01*
X0269100Y0146851D02*
X0239100Y0146851D01*
X0239100Y0148049D02*
X0269100Y0148049D01*
X0269100Y0149248D02*
X0239100Y0149248D01*
X0239100Y0150446D02*
X0269100Y0150446D01*
X0269100Y0151645D02*
X0239100Y0151645D01*
X0236600Y0153933D02*
X0237850Y0155183D01*
X0249100Y0155183D01*
X0250950Y0157033D01*
X0250950Y0160518D01*
X0250950Y0168283D01*
X0252850Y0170183D01*
X0258588Y0170183D01*
X0259100Y0169671D01*
X0259612Y0170183D01*
X0275350Y0170183D01*
X0284100Y0161433D01*
X0284100Y0137683D01*
X0276935Y0137683D01*
X0276935Y0140833D02*
X0254750Y0140833D01*
X0254100Y0140183D01*
X0254100Y0137683D01*
X0254100Y0114848D01*
X0250950Y0114848D02*
X0250950Y0119583D01*
X0250350Y0120183D01*
X0236600Y0120183D01*
X0234100Y0117683D01*
X0226600Y0117683D01*
X0225350Y0118933D01*
X0225350Y0130183D01*
X0189612Y0130183D01*
X0186600Y0130183D01*
X0184100Y0127683D01*
X0184100Y0100183D01*
X0178588Y0100183D01*
X0184100Y0100183D02*
X0184100Y0080183D01*
X0181600Y0077683D01*
X0149100Y0077683D01*
X0150350Y0083933D02*
X0173839Y0083933D01*
X0173839Y0087083D01*
X0174100Y0087083D01*
X0174100Y0088283D01*
X0173839Y0088283D01*
X0173839Y0091437D01*
X0173948Y0091844D01*
X0174100Y0092108D01*
X0174100Y0093553D01*
X0173739Y0093703D01*
X0172895Y0094547D01*
X0172439Y0095649D01*
X0172439Y0104717D01*
X0172895Y0105819D01*
X0173739Y0106663D01*
X0174100Y0106813D01*
X0174100Y0111053D01*
X0173739Y0111203D01*
X0172895Y0112047D01*
X0172439Y0113149D01*
X0172439Y0114083D01*
X0171202Y0114083D01*
X0169002Y0111883D01*
X0164198Y0111883D01*
X0160800Y0115281D01*
X0160800Y0115661D01*
X0158423Y0113283D01*
X0156800Y0113283D01*
X0156800Y0117483D01*
X0156400Y0117483D01*
X0156400Y0113283D01*
X0154777Y0113283D01*
X0152200Y0115861D01*
X0152200Y0117483D01*
X0156400Y0117483D01*
X0156400Y0117883D01*
X0152200Y0117883D01*
X0152200Y0119506D01*
X0154777Y0122083D01*
X0156400Y0122083D01*
X0156400Y0117883D01*
X0156800Y0117883D01*
X0156800Y0122083D01*
X0158423Y0122083D01*
X0160800Y0119706D01*
X0160800Y0120085D01*
X0164198Y0123483D01*
X0169002Y0123483D01*
X0171202Y0121283D01*
X0172439Y0121283D01*
X0172439Y0122217D01*
X0172895Y0123319D01*
X0173739Y0124163D01*
X0174100Y0124313D01*
X0174100Y0125758D01*
X0173948Y0126022D01*
X0173839Y0126429D01*
X0173839Y0129583D01*
X0174100Y0129583D01*
X0174100Y0130783D01*
X0173839Y0130783D01*
X0173839Y0132683D01*
X0150350Y0132683D01*
X0150350Y0083933D01*
X0150350Y0084528D02*
X0173839Y0084528D01*
X0173839Y0085727D02*
X0150350Y0085727D01*
X0150350Y0086925D02*
X0173839Y0086925D01*
X0174100Y0088124D02*
X0150350Y0088124D01*
X0150350Y0089322D02*
X0173839Y0089322D01*
X0173839Y0090521D02*
X0150350Y0090521D01*
X0150350Y0091719D02*
X0173914Y0091719D01*
X0174100Y0092918D02*
X0150350Y0092918D01*
X0150350Y0094116D02*
X0173326Y0094116D01*
X0172577Y0095315D02*
X0150350Y0095315D01*
X0150350Y0096513D02*
X0172439Y0096513D01*
X0172439Y0097712D02*
X0150350Y0097712D01*
X0150350Y0098910D02*
X0172439Y0098910D01*
X0172439Y0100109D02*
X0150350Y0100109D01*
X0150350Y0101307D02*
X0172439Y0101307D01*
X0172439Y0102506D02*
X0150350Y0102506D01*
X0150350Y0103704D02*
X0172439Y0103704D01*
X0172516Y0104903D02*
X0150350Y0104903D01*
X0150350Y0106101D02*
X0173177Y0106101D01*
X0174100Y0107300D02*
X0150350Y0107300D01*
X0150350Y0108498D02*
X0174100Y0108498D01*
X0174100Y0109697D02*
X0150350Y0109697D01*
X0150350Y0110895D02*
X0174100Y0110895D01*
X0172876Y0112094D02*
X0169213Y0112094D01*
X0170412Y0113292D02*
X0172439Y0113292D01*
X0166600Y0117683D02*
X0178588Y0117683D01*
X0172439Y0121682D02*
X0170804Y0121682D01*
X0169605Y0122880D02*
X0172713Y0122880D01*
X0173655Y0124079D02*
X0150350Y0124079D01*
X0150350Y0125277D02*
X0174100Y0125277D01*
X0173839Y0126476D02*
X0150350Y0126476D01*
X0150350Y0127674D02*
X0173839Y0127674D01*
X0173839Y0128873D02*
X0150350Y0128873D01*
X0150350Y0130071D02*
X0174100Y0130071D01*
X0173839Y0131270D02*
X0150350Y0131270D01*
X0150350Y0132468D02*
X0173839Y0132468D01*
X0178588Y0130183D02*
X0160350Y0130183D01*
X0156600Y0126433D01*
X0156600Y0117683D01*
X0156600Y0092683D01*
X0161600Y0087683D01*
X0178588Y0087683D01*
X0189612Y0087683D02*
X0189612Y0100183D01*
X0226600Y0100183D01*
X0236600Y0090183D01*
X0246600Y0090183D01*
X0252850Y0090183D01*
X0254100Y0091433D01*
X0254100Y0103933D01*
X0247801Y0110232D01*
X0247801Y0114848D01*
X0244651Y0114848D02*
X0244651Y0109632D01*
X0250350Y0103933D01*
X0250350Y0093933D01*
X0246600Y0098933D02*
X0246600Y0103933D01*
X0244100Y0106433D01*
X0242850Y0106433D01*
X0241502Y0107781D01*
X0241502Y0114848D01*
X0238352Y0114848D02*
X0238352Y0104681D01*
X0240350Y0102683D01*
X0242850Y0102683D01*
X0230350Y0107683D02*
X0219100Y0107683D01*
X0209100Y0117683D01*
X0189612Y0117683D01*
X0189612Y0142683D02*
X0192850Y0142683D01*
X0224100Y0173933D01*
X0220350Y0177683D02*
X0202850Y0160183D01*
X0189612Y0160183D01*
X0178588Y0160183D02*
X0166600Y0160183D01*
X0166600Y0142683D02*
X0178588Y0142683D01*
X0163595Y0122880D02*
X0150350Y0122880D01*
X0150350Y0121682D02*
X0154376Y0121682D01*
X0153178Y0120483D02*
X0150350Y0120483D01*
X0150350Y0119285D02*
X0152200Y0119285D01*
X0152200Y0118086D02*
X0150350Y0118086D01*
X0150350Y0116888D02*
X0152200Y0116888D01*
X0152371Y0115689D02*
X0150350Y0115689D01*
X0150350Y0114491D02*
X0153570Y0114491D01*
X0154768Y0113292D02*
X0150350Y0113292D01*
X0150350Y0112094D02*
X0163987Y0112094D01*
X0162788Y0113292D02*
X0158432Y0113292D01*
X0156800Y0113292D02*
X0156400Y0113292D01*
X0156400Y0114491D02*
X0156800Y0114491D01*
X0156800Y0115689D02*
X0156400Y0115689D01*
X0156400Y0116888D02*
X0156800Y0116888D01*
X0156800Y0118086D02*
X0156400Y0118086D01*
X0156400Y0119285D02*
X0156800Y0119285D01*
X0156800Y0120483D02*
X0156400Y0120483D01*
X0156400Y0121682D02*
X0156800Y0121682D01*
X0158824Y0121682D02*
X0162396Y0121682D01*
X0161198Y0120483D02*
X0160022Y0120483D01*
X0159630Y0114491D02*
X0161590Y0114491D01*
X0214100Y0073933D02*
X0218957Y0073933D01*
X0218957Y0072771D01*
X0223500Y0072771D01*
X0223500Y0071571D01*
X0224700Y0071571D01*
X0224700Y0067422D01*
X0227854Y0067422D01*
X0228261Y0067531D01*
X0228626Y0067741D01*
X0228924Y0068039D01*
X0229134Y0068404D01*
X0229243Y0068811D01*
X0229243Y0071571D01*
X0224700Y0071571D01*
X0224700Y0072771D01*
X0229243Y0072771D01*
X0229243Y0073933D01*
X0240178Y0073933D01*
X0241265Y0073483D01*
X0242935Y0073483D01*
X0244022Y0073933D01*
X0259178Y0073933D01*
X0260265Y0073483D01*
X0261935Y0073483D01*
X0263022Y0073933D01*
X0273957Y0073933D01*
X0273957Y0072771D01*
X0278500Y0072771D01*
X0278500Y0071571D01*
X0279700Y0071571D01*
X0279700Y0067422D01*
X0282854Y0067422D01*
X0283261Y0067531D01*
X0283626Y0067741D01*
X0283924Y0068039D01*
X0284134Y0068404D01*
X0284243Y0068811D01*
X0284243Y0071571D01*
X0279700Y0071571D01*
X0279700Y0072771D01*
X0284243Y0072771D01*
X0284243Y0073933D01*
X0289100Y0073933D01*
X0289100Y0063933D01*
X0214100Y0063933D01*
X0214100Y0073933D01*
X0214100Y0073741D02*
X0218957Y0073741D01*
X0218957Y0071571D02*
X0218957Y0068811D01*
X0219066Y0068404D01*
X0219276Y0068039D01*
X0219574Y0067741D01*
X0219939Y0067531D01*
X0220346Y0067422D01*
X0223500Y0067422D01*
X0223500Y0071571D01*
X0218957Y0071571D01*
X0218957Y0071344D02*
X0214100Y0071344D01*
X0214100Y0070146D02*
X0218957Y0070146D01*
X0218957Y0068947D02*
X0214100Y0068947D01*
X0214100Y0067749D02*
X0219567Y0067749D01*
X0223500Y0067749D02*
X0224700Y0067749D01*
X0224700Y0068947D02*
X0223500Y0068947D01*
X0223500Y0070146D02*
X0224700Y0070146D01*
X0224700Y0071344D02*
X0223500Y0071344D01*
X0223500Y0072543D02*
X0214100Y0072543D01*
X0214100Y0066550D02*
X0289100Y0066550D01*
X0289100Y0065352D02*
X0214100Y0065352D01*
X0214100Y0064153D02*
X0289100Y0064153D01*
X0289100Y0067749D02*
X0283633Y0067749D01*
X0284243Y0068947D02*
X0289100Y0068947D01*
X0289100Y0070146D02*
X0284243Y0070146D01*
X0284243Y0071344D02*
X0289100Y0071344D01*
X0289100Y0072543D02*
X0279700Y0072543D01*
X0279700Y0071344D02*
X0278500Y0071344D01*
X0278500Y0071571D02*
X0278500Y0067422D01*
X0275346Y0067422D01*
X0274939Y0067531D01*
X0274574Y0067741D01*
X0274276Y0068039D01*
X0274066Y0068404D01*
X0273957Y0068811D01*
X0273957Y0071571D01*
X0278500Y0071571D01*
X0278500Y0072543D02*
X0224700Y0072543D01*
X0229243Y0073741D02*
X0240641Y0073741D01*
X0243559Y0073741D02*
X0259641Y0073741D01*
X0262559Y0073741D02*
X0273957Y0073741D01*
X0273957Y0071344D02*
X0229243Y0071344D01*
X0229243Y0070146D02*
X0273957Y0070146D01*
X0273957Y0068947D02*
X0229243Y0068947D01*
X0228633Y0067749D02*
X0274567Y0067749D01*
X0278500Y0067749D02*
X0279700Y0067749D01*
X0279700Y0068947D02*
X0278500Y0068947D01*
X0278500Y0070146D02*
X0279700Y0070146D01*
X0284243Y0073741D02*
X0289100Y0073741D01*
X0279100Y0083195D02*
X0278588Y0082683D01*
X0261600Y0082683D01*
X0261100Y0083183D01*
X0260399Y0083884D01*
X0260399Y0114848D01*
X0257250Y0114848D02*
X0257250Y0088333D01*
X0251600Y0082683D01*
X0241600Y0082683D01*
X0242100Y0082183D01*
X0242100Y0077683D01*
X0241600Y0082683D02*
X0224612Y0082683D01*
X0224100Y0083195D01*
X0261100Y0083183D02*
X0261100Y0077683D01*
X0275350Y0095183D02*
X0280350Y0095183D01*
X0285350Y0100183D01*
X0341600Y0100183D01*
X0344100Y0097683D01*
X0346600Y0102683D02*
X0349100Y0100183D01*
X0349100Y0092683D01*
X0344100Y0087683D01*
X0346600Y0102683D02*
X0282850Y0102683D01*
X0279100Y0098933D01*
X0272850Y0098933D01*
X0270350Y0102683D02*
X0277850Y0102683D01*
X0280350Y0105183D01*
X0326600Y0105183D01*
X0330350Y0108933D01*
X0330350Y0123933D01*
X0334100Y0127683D01*
X0344100Y0127683D01*
X0354100Y0127683D02*
X0354100Y0141433D01*
X0341600Y0153933D01*
X0300350Y0153933D01*
X0298588Y0152171D01*
X0298588Y0137683D01*
X0284100Y0137683D01*
X0298588Y0122683D02*
X0299100Y0122171D01*
X0306600Y0117540D02*
X0309012Y0117540D01*
X0309012Y0122083D01*
X0310212Y0122083D01*
X0310212Y0123283D01*
X0314361Y0123283D01*
X0314361Y0126437D01*
X0314252Y0126844D01*
X0314042Y0127209D01*
X0313744Y0127507D01*
X0313379Y0127717D01*
X0312972Y0127826D01*
X0310212Y0127826D01*
X0310212Y0123283D01*
X0309012Y0123283D01*
X0309012Y0127826D01*
X0306600Y0127826D01*
X0306600Y0132540D01*
X0309012Y0132540D01*
X0309012Y0137083D01*
X0310212Y0137083D01*
X0310212Y0138283D01*
X0314361Y0138283D01*
X0314361Y0141437D01*
X0314252Y0141844D01*
X0314042Y0142209D01*
X0313744Y0142507D01*
X0313379Y0142717D01*
X0312972Y0142826D01*
X0310212Y0142826D01*
X0310212Y0138283D01*
X0309012Y0138283D01*
X0309012Y0142826D01*
X0306600Y0142826D01*
X0306600Y0147683D01*
X0319100Y0147683D01*
X0319100Y0112683D01*
X0306600Y0112683D01*
X0306600Y0117540D01*
X0306600Y0116888D02*
X0319100Y0116888D01*
X0319100Y0118086D02*
X0313971Y0118086D01*
X0314042Y0118157D02*
X0314252Y0118522D01*
X0314361Y0118929D01*
X0314361Y0122083D01*
X0310212Y0122083D01*
X0310212Y0117540D01*
X0312972Y0117540D01*
X0313379Y0117649D01*
X0313744Y0117859D01*
X0314042Y0118157D01*
X0314361Y0119285D02*
X0319100Y0119285D01*
X0319100Y0120483D02*
X0314361Y0120483D01*
X0314361Y0121682D02*
X0319100Y0121682D01*
X0319100Y0122880D02*
X0310212Y0122880D01*
X0310212Y0121682D02*
X0309012Y0121682D01*
X0309012Y0120483D02*
X0310212Y0120483D01*
X0310212Y0119285D02*
X0309012Y0119285D01*
X0309012Y0118086D02*
X0310212Y0118086D01*
X0306600Y0115689D02*
X0319100Y0115689D01*
X0319100Y0114491D02*
X0306600Y0114491D01*
X0306600Y0113292D02*
X0319100Y0113292D01*
X0319100Y0124079D02*
X0314361Y0124079D01*
X0314361Y0125277D02*
X0319100Y0125277D01*
X0319100Y0126476D02*
X0314351Y0126476D01*
X0313453Y0127674D02*
X0319100Y0127674D01*
X0319100Y0128873D02*
X0306600Y0128873D01*
X0306600Y0130071D02*
X0319100Y0130071D01*
X0319100Y0131270D02*
X0306600Y0131270D01*
X0306600Y0132468D02*
X0319100Y0132468D01*
X0319100Y0133667D02*
X0314291Y0133667D01*
X0314252Y0133522D02*
X0314361Y0133929D01*
X0314361Y0137083D01*
X0310212Y0137083D01*
X0310212Y0132540D01*
X0312972Y0132540D01*
X0313379Y0132649D01*
X0313744Y0132859D01*
X0314042Y0133157D01*
X0314252Y0133522D01*
X0314361Y0134865D02*
X0319100Y0134865D01*
X0319100Y0136064D02*
X0314361Y0136064D01*
X0314361Y0138461D02*
X0319100Y0138461D01*
X0319100Y0139660D02*
X0314361Y0139660D01*
X0314361Y0140858D02*
X0319100Y0140858D01*
X0319100Y0142057D02*
X0314130Y0142057D01*
X0310212Y0142057D02*
X0309012Y0142057D01*
X0309012Y0140858D02*
X0310212Y0140858D01*
X0310212Y0139660D02*
X0309012Y0139660D01*
X0309012Y0138461D02*
X0310212Y0138461D01*
X0310212Y0137262D02*
X0319100Y0137262D01*
X0319100Y0143255D02*
X0306600Y0143255D01*
X0306600Y0144454D02*
X0319100Y0144454D01*
X0319100Y0145652D02*
X0306600Y0145652D01*
X0306600Y0146851D02*
X0319100Y0146851D01*
X0310212Y0136064D02*
X0309012Y0136064D01*
X0309012Y0134865D02*
X0310212Y0134865D01*
X0310212Y0133667D02*
X0309012Y0133667D01*
X0309012Y0127674D02*
X0310212Y0127674D01*
X0310212Y0126476D02*
X0309012Y0126476D01*
X0309012Y0125277D02*
X0310212Y0125277D01*
X0310212Y0124079D02*
X0309012Y0124079D01*
X0275350Y0107683D02*
X0271600Y0107683D01*
X0269848Y0109435D01*
X0269848Y0114848D01*
X0254100Y0137683D02*
X0231265Y0137683D01*
X0231265Y0140833D02*
X0227250Y0140833D01*
X0225350Y0138933D01*
X0225350Y0130183D01*
X0231265Y0140833D02*
X0236000Y0140833D01*
X0236600Y0141433D01*
X0236600Y0153933D01*
X0238352Y0160518D02*
X0238352Y0173431D01*
X0231600Y0180183D01*
X0231600Y0193083D01*
X0211200Y0193083D01*
X0209100Y0195183D01*
X0189612Y0195183D01*
X0178588Y0195183D02*
X0166600Y0195183D01*
X0151600Y0202683D02*
X0135350Y0202683D01*
X0135350Y0232683D01*
X0121600Y0232683D01*
X0121600Y0237540D01*
X0124012Y0237540D01*
X0124012Y0242083D01*
X0125212Y0242083D01*
X0125212Y0243283D01*
X0129361Y0243283D01*
X0129361Y0246433D01*
X0145350Y0246433D01*
X0145350Y0232683D01*
X0151600Y0232683D01*
X0151600Y0202683D01*
X0151600Y0203181D02*
X0135350Y0203181D01*
X0135350Y0204379D02*
X0151600Y0204379D01*
X0151600Y0205578D02*
X0135350Y0205578D01*
X0135350Y0206776D02*
X0151600Y0206776D01*
X0151600Y0207975D02*
X0135350Y0207975D01*
X0135350Y0209173D02*
X0151600Y0209173D01*
X0151600Y0210372D02*
X0135350Y0210372D01*
X0135350Y0211570D02*
X0151600Y0211570D01*
X0151600Y0212769D02*
X0135350Y0212769D01*
X0135350Y0213967D02*
X0151600Y0213967D01*
X0151600Y0215166D02*
X0135350Y0215166D01*
X0135350Y0216364D02*
X0151600Y0216364D01*
X0151600Y0217563D02*
X0135350Y0217563D01*
X0135350Y0218761D02*
X0151600Y0218761D01*
X0151600Y0219960D02*
X0135350Y0219960D01*
X0135350Y0221158D02*
X0151600Y0221158D01*
X0151600Y0222357D02*
X0135350Y0222357D01*
X0135350Y0223555D02*
X0151600Y0223555D01*
X0151600Y0224754D02*
X0135350Y0224754D01*
X0135350Y0225952D02*
X0151600Y0225952D01*
X0151600Y0227151D02*
X0135350Y0227151D01*
X0135350Y0228349D02*
X0151600Y0228349D01*
X0151600Y0229548D02*
X0135350Y0229548D01*
X0135350Y0230746D02*
X0151600Y0230746D01*
X0151600Y0231945D02*
X0135350Y0231945D01*
X0129042Y0238157D02*
X0129252Y0238522D01*
X0129361Y0238929D01*
X0129361Y0242083D01*
X0125212Y0242083D01*
X0125212Y0237540D01*
X0127972Y0237540D01*
X0128379Y0237649D01*
X0128744Y0237859D01*
X0129042Y0238157D01*
X0128822Y0237937D02*
X0145350Y0237937D01*
X0145350Y0236739D02*
X0121600Y0236739D01*
X0121600Y0235540D02*
X0145350Y0235540D01*
X0145350Y0234342D02*
X0121600Y0234342D01*
X0121600Y0233143D02*
X0145350Y0233143D01*
X0145350Y0239136D02*
X0129361Y0239136D01*
X0129361Y0240334D02*
X0145350Y0240334D01*
X0145350Y0241533D02*
X0129361Y0241533D01*
X0129361Y0243930D02*
X0145350Y0243930D01*
X0145350Y0245129D02*
X0129361Y0245129D01*
X0129361Y0246327D02*
X0145350Y0246327D01*
X0145350Y0242731D02*
X0125212Y0242731D01*
X0124612Y0242683D02*
X0137850Y0242683D01*
X0125212Y0241533D02*
X0124012Y0241533D01*
X0124012Y0240334D02*
X0125212Y0240334D01*
X0125212Y0239136D02*
X0124012Y0239136D01*
X0124012Y0237937D02*
X0125212Y0237937D01*
X0166600Y0177683D02*
X0178588Y0177683D01*
X0189612Y0177683D02*
X0212850Y0177683D01*
X0216600Y0181433D01*
X0231600Y0193083D02*
X0231600Y0198933D01*
X0242850Y0210183D01*
X0291800Y0210183D01*
X0285350Y0203933D02*
X0281600Y0207683D01*
X0245350Y0207683D01*
X0236600Y0198933D01*
X0236600Y0193083D01*
X0236600Y0183933D01*
X0236600Y0180183D01*
X0241502Y0175281D01*
X0241502Y0160518D01*
X0244651Y0160518D02*
X0244651Y0177132D01*
X0241600Y0180183D01*
X0241600Y0193083D01*
X0241600Y0198933D01*
X0247850Y0205183D01*
X0279100Y0205183D01*
X0282850Y0201433D01*
X0282850Y0192683D01*
X0285350Y0190183D01*
X0291800Y0190183D01*
X0291800Y0180183D02*
X0282850Y0180183D01*
X0280350Y0182683D01*
X0280350Y0198933D01*
X0277850Y0201433D01*
X0249100Y0201433D01*
X0246600Y0198933D01*
X0246600Y0193083D01*
X0246600Y0180183D01*
X0247801Y0178982D01*
X0247801Y0176433D01*
X0247850Y0178933D01*
X0247801Y0176433D02*
X0247801Y0160518D01*
X0254100Y0160518D02*
X0254100Y0140183D01*
X0257250Y0160518D02*
X0257250Y0167821D01*
X0259100Y0169671D01*
X0264243Y0177683D02*
X0264243Y0180095D01*
X0259700Y0180095D01*
X0259700Y0181295D01*
X0258500Y0181295D01*
X0258500Y0185444D01*
X0255350Y0185444D01*
X0255350Y0186083D01*
X0258497Y0186083D01*
X0259100Y0186333D01*
X0259703Y0186083D01*
X0263497Y0186083D01*
X0264599Y0186540D01*
X0265443Y0187384D01*
X0265484Y0187483D01*
X0266550Y0187483D01*
X0266550Y0193033D01*
X0266650Y0193033D01*
X0266650Y0187483D01*
X0268111Y0187483D01*
X0268518Y0187592D01*
X0268882Y0187803D01*
X0269180Y0188101D01*
X0269391Y0188465D01*
X0269500Y0188872D01*
X0269500Y0193033D01*
X0266650Y0193033D01*
X0266650Y0193133D01*
X0269500Y0193133D01*
X0269500Y0197294D01*
X0269396Y0197683D01*
X0275350Y0197683D01*
X0275350Y0177683D01*
X0264243Y0177683D01*
X0264243Y0178012D02*
X0275350Y0178012D01*
X0275350Y0179210D02*
X0264243Y0179210D01*
X0264243Y0181295D02*
X0259700Y0181295D01*
X0259700Y0185444D01*
X0262854Y0185444D01*
X0263261Y0185335D01*
X0263626Y0185125D01*
X0263924Y0184827D01*
X0264134Y0184462D01*
X0264243Y0184055D01*
X0264243Y0181295D01*
X0264243Y0181607D02*
X0275350Y0181607D01*
X0275350Y0180409D02*
X0259700Y0180409D01*
X0259700Y0181607D02*
X0258500Y0181607D01*
X0258500Y0182806D02*
X0259700Y0182806D01*
X0259700Y0184004D02*
X0258500Y0184004D01*
X0258500Y0185203D02*
X0259700Y0185203D01*
X0263490Y0185203D02*
X0275350Y0185203D01*
X0275350Y0186401D02*
X0264265Y0186401D01*
X0264243Y0184004D02*
X0275350Y0184004D01*
X0275350Y0182806D02*
X0264243Y0182806D01*
X0266550Y0187600D02*
X0266650Y0187600D01*
X0266650Y0188798D02*
X0266550Y0188798D01*
X0266550Y0189997D02*
X0266650Y0189997D01*
X0266650Y0191195D02*
X0266550Y0191195D01*
X0266550Y0192394D02*
X0266650Y0192394D01*
X0269500Y0192394D02*
X0275350Y0192394D01*
X0275350Y0191195D02*
X0269500Y0191195D01*
X0269500Y0189997D02*
X0275350Y0189997D01*
X0275350Y0188798D02*
X0269480Y0188798D01*
X0268531Y0187600D02*
X0275350Y0187600D01*
X0275350Y0193593D02*
X0269500Y0193593D01*
X0269500Y0194791D02*
X0275350Y0194791D01*
X0275350Y0195990D02*
X0269500Y0195990D01*
X0269500Y0197188D02*
X0275350Y0197188D01*
X0285350Y0201433D02*
X0285350Y0203933D01*
X0285350Y0201433D02*
X0286600Y0200183D01*
X0291800Y0200183D01*
X0302850Y0199585D02*
X0320350Y0199585D01*
X0320350Y0198387D02*
X0302850Y0198387D01*
X0302850Y0197188D02*
X0320350Y0197188D01*
X0320350Y0195990D02*
X0302850Y0195990D01*
X0302850Y0194791D02*
X0320350Y0194791D01*
X0320350Y0193593D02*
X0302850Y0193593D01*
X0302850Y0192394D02*
X0320350Y0192394D01*
X0320350Y0191195D02*
X0302850Y0191195D01*
X0302850Y0189997D02*
X0320350Y0189997D01*
X0320350Y0188798D02*
X0302850Y0188798D01*
X0302850Y0187600D02*
X0320350Y0187600D01*
X0320350Y0186401D02*
X0302850Y0186401D01*
X0302850Y0185203D02*
X0320350Y0185203D01*
X0320350Y0184004D02*
X0302850Y0184004D01*
X0302850Y0182806D02*
X0320350Y0182806D01*
X0320350Y0181607D02*
X0302850Y0181607D01*
X0302850Y0180409D02*
X0320350Y0180409D01*
X0320350Y0179210D02*
X0302850Y0179210D01*
X0302850Y0178012D02*
X0320350Y0178012D01*
X0320350Y0176813D02*
X0302850Y0176813D01*
X0302850Y0175615D02*
X0320350Y0175615D01*
X0320350Y0174416D02*
X0302850Y0174416D01*
X0302850Y0173218D02*
X0320350Y0173218D01*
X0320350Y0172019D02*
X0302850Y0172019D01*
X0302850Y0170821D02*
X0320350Y0170821D01*
X0320350Y0170183D02*
X0302850Y0170183D01*
X0302850Y0215183D01*
X0320350Y0215183D01*
X0320350Y0170183D01*
X0320350Y0200784D02*
X0302850Y0200784D01*
X0302850Y0201982D02*
X0320350Y0201982D01*
X0320350Y0203181D02*
X0302850Y0203181D01*
X0302850Y0204379D02*
X0320350Y0204379D01*
X0320350Y0205578D02*
X0302850Y0205578D01*
X0302850Y0206776D02*
X0320350Y0206776D01*
X0320350Y0207975D02*
X0302850Y0207975D01*
X0302850Y0209173D02*
X0320350Y0209173D01*
X0320350Y0210372D02*
X0302850Y0210372D01*
X0302850Y0211570D02*
X0320350Y0211570D01*
X0320350Y0212769D02*
X0302850Y0212769D01*
X0302850Y0213967D02*
X0320350Y0213967D01*
X0320350Y0215166D02*
X0302850Y0215166D01*
X0095350Y0125183D02*
X0095350Y0090183D01*
X0054100Y0090183D01*
X0054100Y0125183D01*
X0095350Y0125183D01*
X0095350Y0124079D02*
X0054100Y0124079D01*
X0054100Y0122880D02*
X0095350Y0122880D01*
X0095350Y0121682D02*
X0054100Y0121682D01*
X0054100Y0120483D02*
X0095350Y0120483D01*
X0095350Y0119285D02*
X0054100Y0119285D01*
X0054100Y0118086D02*
X0095350Y0118086D01*
X0095350Y0116888D02*
X0054100Y0116888D01*
X0054100Y0115689D02*
X0095350Y0115689D01*
X0095350Y0114491D02*
X0054100Y0114491D01*
X0054100Y0113292D02*
X0095350Y0113292D01*
X0095350Y0112094D02*
X0054100Y0112094D01*
X0054100Y0110895D02*
X0095350Y0110895D01*
X0095350Y0109697D02*
X0054100Y0109697D01*
X0054100Y0108498D02*
X0095350Y0108498D01*
X0095350Y0107300D02*
X0054100Y0107300D01*
X0054100Y0106101D02*
X0095350Y0106101D01*
X0095350Y0104903D02*
X0054100Y0104903D01*
X0054100Y0103704D02*
X0095350Y0103704D01*
X0095350Y0102506D02*
X0054100Y0102506D01*
X0054100Y0101307D02*
X0095350Y0101307D01*
X0095350Y0100109D02*
X0054100Y0100109D01*
X0054100Y0098910D02*
X0095350Y0098910D01*
X0095350Y0097712D02*
X0054100Y0097712D01*
X0054100Y0096513D02*
X0095350Y0096513D01*
X0095350Y0095315D02*
X0054100Y0095315D01*
X0054100Y0094116D02*
X0095350Y0094116D01*
X0095350Y0092918D02*
X0054100Y0092918D01*
X0054100Y0091719D02*
X0095350Y0091719D01*
X0095350Y0090521D02*
X0054100Y0090521D01*
X0024100Y0090521D02*
X0011600Y0090521D01*
X0011600Y0091719D02*
X0024100Y0091719D01*
X0024100Y0092540D02*
X0024100Y0087683D01*
X0011600Y0087683D01*
X0011600Y0126433D01*
X0023279Y0126433D01*
X0023768Y0125944D01*
X0024100Y0125612D01*
X0024100Y0122826D01*
X0021688Y0122826D01*
X0021688Y0118283D01*
X0020488Y0118283D01*
X0020488Y0117083D01*
X0016339Y0117083D01*
X0016339Y0113929D01*
X0016448Y0113522D01*
X0016658Y0113157D01*
X0016956Y0112859D01*
X0017321Y0112649D01*
X0017728Y0112540D01*
X0020488Y0112540D01*
X0020488Y0117083D01*
X0021688Y0117083D01*
X0021688Y0112540D01*
X0024100Y0112540D01*
X0024100Y0102826D01*
X0021688Y0102826D01*
X0021688Y0098283D01*
X0020488Y0098283D01*
X0020488Y0097083D01*
X0016339Y0097083D01*
X0016339Y0093929D01*
X0016448Y0093522D01*
X0016658Y0093157D01*
X0016956Y0092859D01*
X0017321Y0092649D01*
X0017728Y0092540D01*
X0020488Y0092540D01*
X0020488Y0097083D01*
X0021688Y0097083D01*
X0021688Y0092540D01*
X0024100Y0092540D01*
X0021688Y0092918D02*
X0020488Y0092918D01*
X0020488Y0094116D02*
X0021688Y0094116D01*
X0021688Y0095315D02*
X0020488Y0095315D01*
X0020488Y0096513D02*
X0021688Y0096513D01*
X0020488Y0097712D02*
X0011600Y0097712D01*
X0011600Y0098910D02*
X0016339Y0098910D01*
X0016339Y0098283D02*
X0020488Y0098283D01*
X0020488Y0102826D01*
X0017728Y0102826D01*
X0017321Y0102717D01*
X0016956Y0102507D01*
X0016658Y0102209D01*
X0016448Y0101844D01*
X0016339Y0101437D01*
X0016339Y0098283D01*
X0016339Y0096513D02*
X0011600Y0096513D01*
X0011600Y0095315D02*
X0016339Y0095315D01*
X0016339Y0094116D02*
X0011600Y0094116D01*
X0011600Y0092918D02*
X0016898Y0092918D01*
X0011600Y0089322D02*
X0024100Y0089322D01*
X0024100Y0088124D02*
X0011600Y0088124D01*
X0011600Y0100109D02*
X0016339Y0100109D01*
X0016339Y0101307D02*
X0011600Y0101307D01*
X0011600Y0102506D02*
X0016955Y0102506D01*
X0020488Y0102506D02*
X0021688Y0102506D01*
X0021688Y0101307D02*
X0020488Y0101307D01*
X0020488Y0100109D02*
X0021688Y0100109D01*
X0021688Y0098910D02*
X0020488Y0098910D01*
X0024100Y0103704D02*
X0011600Y0103704D01*
X0011600Y0104903D02*
X0024100Y0104903D01*
X0024100Y0106101D02*
X0011600Y0106101D01*
X0011600Y0107300D02*
X0024100Y0107300D01*
X0024100Y0108498D02*
X0011600Y0108498D01*
X0011600Y0109697D02*
X0024100Y0109697D01*
X0024100Y0110895D02*
X0011600Y0110895D01*
X0011600Y0112094D02*
X0024100Y0112094D01*
X0021688Y0113292D02*
X0020488Y0113292D01*
X0020488Y0114491D02*
X0021688Y0114491D01*
X0021688Y0115689D02*
X0020488Y0115689D01*
X0020488Y0116888D02*
X0021688Y0116888D01*
X0020488Y0118086D02*
X0011600Y0118086D01*
X0011600Y0116888D02*
X0016339Y0116888D01*
X0016339Y0115689D02*
X0011600Y0115689D01*
X0011600Y0114491D02*
X0016339Y0114491D01*
X0016580Y0113292D02*
X0011600Y0113292D01*
X0016339Y0118283D02*
X0020488Y0118283D01*
X0020488Y0122826D01*
X0017728Y0122826D01*
X0017321Y0122717D01*
X0016956Y0122507D01*
X0016658Y0122209D01*
X0016448Y0121844D01*
X0016339Y0121437D01*
X0016339Y0118283D01*
X0016339Y0119285D02*
X0011600Y0119285D01*
X0011600Y0120483D02*
X0016339Y0120483D01*
X0016404Y0121682D02*
X0011600Y0121682D01*
X0011600Y0122880D02*
X0024100Y0122880D01*
X0024100Y0124079D02*
X0011600Y0124079D01*
X0011600Y0125277D02*
X0024100Y0125277D01*
X0021688Y0121682D02*
X0020488Y0121682D01*
X0020488Y0120483D02*
X0021688Y0120483D01*
X0021688Y0119285D02*
X0020488Y0119285D01*
X0009100Y0150183D02*
X0009100Y0172683D01*
X0050350Y0172683D01*
X0050350Y0167826D01*
X0049188Y0167826D01*
X0049188Y0163283D01*
X0047988Y0163283D01*
X0047988Y0162083D01*
X0043839Y0162083D01*
X0043839Y0158929D01*
X0043948Y0158522D01*
X0044158Y0158157D01*
X0044456Y0157859D01*
X0044821Y0157649D01*
X0045228Y0157540D01*
X0047988Y0157540D01*
X0047988Y0162083D01*
X0049188Y0162083D01*
X0049188Y0157540D01*
X0050350Y0157540D01*
X0050350Y0150183D01*
X0009100Y0150183D01*
X0009100Y0150446D02*
X0050350Y0150446D01*
X0050350Y0151645D02*
X0009100Y0151645D01*
X0009100Y0152843D02*
X0050350Y0152843D01*
X0050350Y0154042D02*
X0029792Y0154042D01*
X0029334Y0153583D02*
X0033200Y0157449D01*
X0033200Y0159783D01*
X0027000Y0159783D01*
X0027000Y0153583D01*
X0029334Y0153583D01*
X0030991Y0155240D02*
X0050350Y0155240D01*
X0050350Y0156439D02*
X0032189Y0156439D01*
X0033200Y0157637D02*
X0044864Y0157637D01*
X0043864Y0158836D02*
X0033200Y0158836D01*
X0033200Y0160583D02*
X0027000Y0160583D01*
X0027000Y0159783D01*
X0026200Y0159783D01*
X0026200Y0153583D01*
X0023866Y0153583D01*
X0020000Y0157449D01*
X0020000Y0159783D01*
X0026200Y0159783D01*
X0026200Y0160583D01*
X0020000Y0160583D01*
X0020000Y0162917D01*
X0023866Y0166783D01*
X0026200Y0166783D01*
X0026200Y0160583D01*
X0027000Y0160583D01*
X0027000Y0166783D01*
X0029334Y0166783D01*
X0033200Y0162917D01*
X0033200Y0160583D01*
X0033200Y0161233D02*
X0043839Y0161233D01*
X0043839Y0160034D02*
X0027000Y0160034D01*
X0026200Y0160034D02*
X0009100Y0160034D01*
X0009100Y0158836D02*
X0020000Y0158836D01*
X0020000Y0157637D02*
X0009100Y0157637D01*
X0009100Y0156439D02*
X0021011Y0156439D01*
X0022209Y0155240D02*
X0009100Y0155240D01*
X0009100Y0154042D02*
X0023408Y0154042D01*
X0026200Y0154042D02*
X0027000Y0154042D01*
X0027000Y0155240D02*
X0026200Y0155240D01*
X0026200Y0156439D02*
X0027000Y0156439D01*
X0027000Y0157637D02*
X0026200Y0157637D01*
X0026200Y0158836D02*
X0027000Y0158836D01*
X0027000Y0161233D02*
X0026200Y0161233D01*
X0026200Y0162431D02*
X0027000Y0162431D01*
X0027000Y0163630D02*
X0026200Y0163630D01*
X0026200Y0164828D02*
X0027000Y0164828D01*
X0027000Y0166027D02*
X0026200Y0166027D01*
X0023110Y0166027D02*
X0009100Y0166027D01*
X0009100Y0167225D02*
X0044175Y0167225D01*
X0044158Y0167209D02*
X0043948Y0166844D01*
X0043839Y0166437D01*
X0043839Y0163283D01*
X0047988Y0163283D01*
X0047988Y0167826D01*
X0045228Y0167826D01*
X0044821Y0167717D01*
X0044456Y0167507D01*
X0044158Y0167209D01*
X0043839Y0166027D02*
X0030090Y0166027D01*
X0031289Y0164828D02*
X0043839Y0164828D01*
X0043839Y0163630D02*
X0032487Y0163630D01*
X0033200Y0162431D02*
X0047988Y0162431D01*
X0047988Y0161233D02*
X0049188Y0161233D01*
X0049188Y0160034D02*
X0047988Y0160034D01*
X0047988Y0158836D02*
X0049188Y0158836D01*
X0049188Y0157637D02*
X0047988Y0157637D01*
X0047988Y0163630D02*
X0049188Y0163630D01*
X0049188Y0164828D02*
X0047988Y0164828D01*
X0047988Y0166027D02*
X0049188Y0166027D01*
X0049188Y0167225D02*
X0047988Y0167225D01*
X0050350Y0168424D02*
X0009100Y0168424D01*
X0009100Y0169622D02*
X0050350Y0169622D01*
X0050350Y0170821D02*
X0009100Y0170821D01*
X0009100Y0172019D02*
X0050350Y0172019D01*
X0021911Y0164828D02*
X0009100Y0164828D01*
X0009100Y0163630D02*
X0020713Y0163630D01*
X0020000Y0162431D02*
X0009100Y0162431D01*
X0009100Y0161233D02*
X0020000Y0161233D01*
D33*
X0019100Y0165183D03*
X0012850Y0165183D03*
X0012850Y0160183D03*
X0012850Y0152683D03*
X0019100Y0152683D03*
X0034100Y0155183D03*
X0040350Y0155183D03*
X0047850Y0155183D03*
X0040350Y0162683D03*
X0034100Y0165183D03*
X0034100Y0170183D03*
X0040350Y0170183D03*
X0047850Y0170183D03*
X0026600Y0170183D03*
X0019100Y0170183D03*
X0012850Y0170183D03*
X0014100Y0125183D03*
X0020350Y0125183D03*
X0014100Y0117683D03*
X0014100Y0110183D03*
X0014100Y0105183D03*
X0020350Y0105183D03*
X0020350Y0110183D03*
X0014100Y0097683D03*
X0014100Y0090183D03*
X0020350Y0090183D03*
X0059100Y0095183D03*
X0064100Y0098933D03*
X0069100Y0095183D03*
X0074100Y0098933D03*
X0079100Y0095183D03*
X0084100Y0098933D03*
X0079100Y0102683D03*
X0074100Y0107683D03*
X0069100Y0102683D03*
X0064100Y0107683D03*
X0059100Y0102683D03*
X0059100Y0112683D03*
X0064100Y0116433D03*
X0069100Y0112683D03*
X0074100Y0116433D03*
X0079100Y0112683D03*
X0084100Y0116433D03*
X0079100Y0120183D03*
X0069100Y0120183D03*
X0059100Y0120183D03*
X0084100Y0107683D03*
X0089100Y0102683D03*
X0089100Y0095183D03*
X0089100Y0112683D03*
X0089100Y0120183D03*
X0125350Y0077683D03*
X0149100Y0077683D03*
X0152850Y0087683D03*
X0159100Y0087683D03*
X0152850Y0093933D03*
X0152850Y0100183D03*
X0152850Y0106433D03*
X0165350Y0093933D03*
X0170350Y0093933D03*
X0171600Y0087683D03*
X0165350Y0087683D03*
X0165350Y0125183D03*
X0171600Y0125183D03*
X0171600Y0130183D03*
X0165350Y0130183D03*
X0159100Y0130183D03*
X0152850Y0130183D03*
X0152850Y0125183D03*
X0216600Y0071433D03*
X0216600Y0066433D03*
X0224100Y0066433D03*
X0231600Y0066433D03*
X0231600Y0071433D03*
X0241600Y0066433D03*
X0251600Y0066433D03*
X0261600Y0066433D03*
X0271600Y0066433D03*
X0271600Y0071433D03*
X0279100Y0066433D03*
X0286600Y0066433D03*
X0286600Y0071433D03*
X0275350Y0095183D03*
X0272850Y0098933D03*
X0270350Y0102683D03*
X0275350Y0107683D03*
X0266600Y0125183D03*
X0260350Y0125183D03*
X0254100Y0125183D03*
X0247850Y0125183D03*
X0241600Y0125183D03*
X0241600Y0131433D03*
X0247850Y0131433D03*
X0254100Y0131433D03*
X0260350Y0131433D03*
X0266600Y0131433D03*
X0266600Y0137683D03*
X0266600Y0143933D03*
X0260350Y0143933D03*
X0260350Y0137683D03*
X0254100Y0137683D03*
X0254100Y0143933D03*
X0247850Y0143933D03*
X0247850Y0137683D03*
X0241600Y0137683D03*
X0241600Y0143933D03*
X0241600Y0150183D03*
X0247850Y0150183D03*
X0254100Y0150183D03*
X0260350Y0150183D03*
X0266600Y0150183D03*
X0266600Y0180183D03*
X0271600Y0180183D03*
X0271600Y0185183D03*
X0266600Y0185183D03*
X0271600Y0190183D03*
X0271600Y0195183D03*
X0247850Y0178933D03*
X0241600Y0180183D03*
X0236600Y0183933D03*
X0224100Y0173933D03*
X0220350Y0177683D03*
X0216600Y0181433D03*
X0279100Y0221433D03*
X0305350Y0212683D03*
X0311600Y0206433D03*
X0317850Y0212683D03*
X0317850Y0200183D03*
X0311600Y0192683D03*
X0305350Y0185183D03*
X0311600Y0178933D03*
X0305350Y0172683D03*
X0317850Y0172683D03*
X0317850Y0185183D03*
X0305350Y0200183D03*
X0307850Y0145183D03*
X0312850Y0145183D03*
X0317850Y0145183D03*
X0317850Y0140183D03*
X0317850Y0135183D03*
X0317850Y0130183D03*
X0312850Y0130183D03*
X0307850Y0130183D03*
X0317850Y0125183D03*
X0317850Y0120183D03*
X0317850Y0115183D03*
X0312850Y0115183D03*
X0307850Y0115183D03*
X0297850Y0111433D03*
X0297850Y0096433D03*
X0250350Y0093933D03*
X0246600Y0090183D03*
X0246600Y0098933D03*
X0242850Y0102683D03*
X0230350Y0107683D03*
X0147850Y0205183D03*
X0142850Y0205183D03*
X0137850Y0205183D03*
X0137850Y0211433D03*
X0142850Y0211433D03*
X0147850Y0211433D03*
X0147850Y0223933D03*
X0142850Y0223933D03*
X0137850Y0223933D03*
X0137850Y0230183D03*
X0142850Y0230183D03*
X0147850Y0230183D03*
X0142850Y0237683D03*
X0137850Y0237683D03*
X0137850Y0242683D03*
X0142850Y0242683D03*
D34*
X0161600Y0235183D02*
X0174100Y0235183D01*
X0184100Y0225183D01*
X0229100Y0225183D01*
X0231600Y0222683D01*
X0231600Y0217283D01*
X0236600Y0217283D02*
X0236600Y0226433D01*
X0227850Y0235183D01*
X0216600Y0235183D01*
X0241600Y0226433D02*
X0241600Y0217283D01*
X0246600Y0217283D02*
X0246600Y0222683D01*
X0249100Y0225183D01*
X0271600Y0225183D01*
X0274100Y0227683D01*
X0309100Y0227683D01*
X0316600Y0235183D01*
X0326600Y0235183D01*
X0330862Y0223933D02*
X0331400Y0223395D01*
X0331400Y0215183D01*
X0357850Y0215183D01*
X0361600Y0211433D01*
X0361600Y0083933D01*
X0357850Y0080183D01*
X0329100Y0080183D01*
X0304100Y0055183D01*
X0147850Y0055183D01*
X0125350Y0077683D01*
X0121600Y0081433D01*
X0057850Y0081433D01*
X0054100Y0085183D01*
X0045862Y0085183D01*
X0045350Y0085695D01*
X0241600Y0226433D02*
X0244100Y0228933D01*
X0252850Y0228933D01*
X0259100Y0235183D01*
X0271600Y0235183D01*
X0275350Y0221433D02*
X0271600Y0217683D01*
X0267000Y0217683D01*
X0266600Y0217283D01*
X0275350Y0221433D02*
X0279100Y0221433D01*
X0291800Y0215183D02*
X0297850Y0215183D01*
X0300350Y0212683D01*
X0305350Y0212683D01*
X0317850Y0212683D02*
X0319838Y0214671D01*
X0319838Y0223933D01*
X0317850Y0212683D02*
X0320350Y0210183D01*
X0331400Y0210183D01*
X0331400Y0205183D02*
X0344100Y0205183D01*
X0344100Y0195183D02*
X0331400Y0195183D01*
X0331400Y0200183D02*
X0317850Y0200183D01*
X0317850Y0192683D02*
X0320350Y0190183D01*
X0331400Y0190183D01*
X0331400Y0185183D02*
X0344100Y0185183D01*
X0344100Y0175183D02*
X0331400Y0175183D01*
X0331400Y0170183D02*
X0325350Y0170183D01*
X0322850Y0172683D01*
X0311600Y0172683D01*
X0305350Y0172683D02*
X0301600Y0172683D01*
X0299100Y0170183D01*
X0291800Y0170183D01*
X0319100Y0180183D02*
X0331400Y0180183D01*
M02*
