G75*
%MOIN*%
%OFA0B0*%
%FSLAX25Y25*%
%IPPOS*%
%LPD*%
%AMOC8*
5,1,8,0,0,1.08239X$1,22.5*
%
%ADD10R,0.43750X0.37500*%
%ADD11R,0.07887X0.07099*%
%ADD12C,0.10800*%
%ADD13OC8,0.10800*%
%ADD14R,0.07099X0.07887*%
%ADD15C,0.06400*%
%ADD16R,0.23800X0.23800*%
%ADD17R,0.02769X0.06706*%
%ADD18R,0.06706X0.02769*%
%ADD19R,0.03400X0.08800*%
%ADD20R,0.25209X0.22060*%
%ADD21R,0.07099X0.04737*%
%ADD22C,0.10700*%
%ADD23OC8,0.07200*%
%ADD24C,0.07200*%
%ADD25OC8,0.06400*%
%ADD26C,0.06400*%
%ADD27R,0.07099X0.08674*%
%ADD28R,0.08674X0.07099*%
%ADD29R,0.08800X0.03400*%
D10*
X0074725Y0107683D03*
D11*
X0224100Y0083195D03*
X0224100Y0072171D03*
X0279100Y0072171D03*
X0279100Y0083195D03*
X0259100Y0169671D03*
X0259100Y0180695D03*
D12*
X0091600Y0140183D03*
X0026600Y0140183D03*
D13*
X0026600Y0160183D03*
X0091600Y0160183D03*
D14*
X0059612Y0162683D03*
X0048588Y0162683D03*
X0032112Y0117683D03*
X0021088Y0117683D03*
X0021088Y0097683D03*
X0032112Y0097683D03*
X0178588Y0087683D03*
X0189612Y0087683D03*
X0189612Y0130183D03*
X0178588Y0130183D03*
X0298588Y0122683D03*
X0309612Y0122683D03*
X0309612Y0137683D03*
X0298588Y0137683D03*
X0319838Y0223933D03*
X0330862Y0223933D03*
X0124612Y0242683D03*
X0113588Y0242683D03*
X0044612Y0242683D03*
X0033588Y0242683D03*
D15*
X0094100Y0287383D02*
X0094100Y0292983D01*
X0094100Y0327383D02*
X0094100Y0332983D01*
X0114100Y0230483D02*
X0114100Y0224883D01*
X0114100Y0190483D02*
X0114100Y0184883D01*
D16*
X0021600Y0058933D03*
X0021600Y0340183D03*
X0356600Y0340183D03*
X0356600Y0058933D03*
D17*
X0269848Y0114848D03*
X0266698Y0114848D03*
X0263549Y0114848D03*
X0260399Y0114848D03*
X0257250Y0114848D03*
X0254100Y0114848D03*
X0250950Y0114848D03*
X0247801Y0114848D03*
X0244651Y0114848D03*
X0241502Y0114848D03*
X0238352Y0114848D03*
X0238352Y0160518D03*
X0241502Y0160518D03*
X0244651Y0160518D03*
X0247801Y0160518D03*
X0250950Y0160518D03*
X0254100Y0160518D03*
X0257250Y0160518D03*
X0260399Y0160518D03*
X0263549Y0160518D03*
X0266698Y0160518D03*
X0269848Y0160518D03*
D18*
X0276935Y0153431D03*
X0276935Y0150281D03*
X0276935Y0147132D03*
X0276935Y0143982D03*
X0276935Y0140833D03*
X0276935Y0137683D03*
X0276935Y0134533D03*
X0276935Y0131384D03*
X0276935Y0128234D03*
X0276935Y0125085D03*
X0276935Y0121935D03*
X0231265Y0121935D03*
X0231265Y0125085D03*
X0231265Y0128234D03*
X0231265Y0131384D03*
X0231265Y0134533D03*
X0231265Y0137683D03*
X0231265Y0140833D03*
X0231265Y0143982D03*
X0231265Y0147132D03*
X0231265Y0150281D03*
X0231265Y0153431D03*
D19*
X0231600Y0193083D03*
X0236600Y0193083D03*
X0241600Y0193083D03*
X0246600Y0193083D03*
X0251600Y0193083D03*
X0256600Y0193083D03*
X0261600Y0193083D03*
X0266600Y0193083D03*
X0266600Y0217283D03*
X0261600Y0217283D03*
X0256600Y0217283D03*
X0251600Y0217283D03*
X0246600Y0217283D03*
X0241600Y0217283D03*
X0236600Y0217283D03*
X0231600Y0217283D03*
D20*
X0073943Y0107683D03*
D21*
X0045202Y0098707D03*
X0045202Y0116659D03*
D22*
X0058800Y0325233D02*
X0058800Y0335133D01*
X0074400Y0335133D02*
X0074400Y0325233D01*
X0113800Y0325233D02*
X0113800Y0335133D01*
X0129400Y0335133D02*
X0129400Y0325233D01*
X0168800Y0325233D02*
X0168800Y0335133D01*
X0184400Y0335133D02*
X0184400Y0325233D01*
X0213800Y0325233D02*
X0213800Y0335133D01*
X0229400Y0335133D02*
X0229400Y0325233D01*
X0258800Y0325233D02*
X0258800Y0335133D01*
X0274400Y0335133D02*
X0274400Y0325233D01*
X0303800Y0325233D02*
X0303800Y0335133D01*
X0319400Y0335133D02*
X0319400Y0325233D01*
D23*
X0344100Y0205183D03*
X0344100Y0195183D03*
X0344100Y0185183D03*
X0344100Y0175183D03*
X0354100Y0175183D03*
X0354100Y0185183D03*
X0354100Y0195183D03*
X0354100Y0205183D03*
X0354100Y0127683D03*
X0354100Y0117683D03*
X0354100Y0107683D03*
X0354100Y0097683D03*
X0354100Y0087683D03*
X0344100Y0087683D03*
X0344100Y0097683D03*
X0344100Y0107683D03*
X0344100Y0117683D03*
X0344100Y0127683D03*
D24*
X0353400Y0235183D02*
X0359800Y0235183D01*
X0329800Y0235183D02*
X0323400Y0235183D01*
X0304800Y0235183D02*
X0298400Y0235183D01*
X0274800Y0235183D02*
X0268400Y0235183D01*
X0249800Y0235183D02*
X0243400Y0235183D01*
X0219800Y0235183D02*
X0213400Y0235183D01*
X0194800Y0235183D02*
X0188400Y0235183D01*
X0164800Y0235183D02*
X0158400Y0235183D01*
X0158400Y0265183D02*
X0164800Y0265183D01*
X0164800Y0285183D02*
X0158400Y0285183D01*
X0158400Y0305183D02*
X0164800Y0305183D01*
X0188400Y0305183D02*
X0194800Y0305183D01*
X0213400Y0305183D02*
X0219800Y0305183D01*
X0243400Y0305183D02*
X0249800Y0305183D01*
X0268400Y0305183D02*
X0274800Y0305183D01*
X0298400Y0305183D02*
X0304800Y0305183D01*
X0323400Y0305183D02*
X0329800Y0305183D01*
X0329800Y0285183D02*
X0323400Y0285183D01*
X0304800Y0285183D02*
X0298400Y0285183D01*
X0298400Y0265183D02*
X0304800Y0265183D01*
X0323400Y0265183D02*
X0329800Y0265183D01*
X0353400Y0265183D02*
X0359800Y0265183D01*
X0359800Y0285183D02*
X0353400Y0285183D01*
X0353400Y0305183D02*
X0359800Y0305183D01*
X0274800Y0285183D02*
X0268400Y0285183D01*
X0249800Y0285183D02*
X0243400Y0285183D01*
X0243400Y0265183D02*
X0249800Y0265183D01*
X0268400Y0265183D02*
X0274800Y0265183D01*
X0219800Y0265183D02*
X0213400Y0265183D01*
X0194800Y0265183D02*
X0188400Y0265183D01*
X0188400Y0285183D02*
X0194800Y0285183D01*
X0213400Y0285183D02*
X0219800Y0285183D01*
D25*
X0166600Y0195183D03*
X0156600Y0195183D03*
X0156600Y0177683D03*
X0166600Y0177683D03*
X0166600Y0160183D03*
X0156600Y0160183D03*
X0156600Y0142683D03*
X0166600Y0142683D03*
X0166600Y0117683D03*
X0156600Y0117683D03*
X0070350Y0062683D03*
X0060350Y0062683D03*
D26*
X0242100Y0077683D03*
X0261100Y0077683D03*
D27*
X0189612Y0100183D03*
X0178588Y0100183D03*
X0178588Y0117683D03*
X0189612Y0117683D03*
X0189612Y0142683D03*
X0178588Y0142683D03*
X0178588Y0160183D03*
X0189612Y0160183D03*
X0189612Y0177683D03*
X0178588Y0177683D03*
X0178588Y0195183D03*
X0189612Y0195183D03*
D28*
X0045350Y0085695D03*
X0045350Y0074671D03*
D29*
X0291800Y0170183D03*
X0291800Y0175183D03*
X0291800Y0180183D03*
X0291800Y0185183D03*
X0291800Y0190183D03*
X0291800Y0195183D03*
X0291800Y0200183D03*
X0291800Y0205183D03*
X0291800Y0210183D03*
X0291800Y0215183D03*
X0331400Y0215183D03*
X0331400Y0210183D03*
X0331400Y0205183D03*
X0331400Y0200183D03*
X0331400Y0195183D03*
X0331400Y0190183D03*
X0331400Y0185183D03*
X0331400Y0180183D03*
X0331400Y0175183D03*
X0331400Y0170183D03*
M02*
