G75*
%MOIN*%
%OFA0B0*%
%FSLAX25Y25*%
%IPPOS*%
%LPD*%
%AMOC8*
5,1,8,0,0,1.08239X$1,22.5*
%
%ADD10C,0.00000*%
%ADD11C,0.00512*%
%ADD12C,0.00600*%
D10*
X0001500Y0043933D02*
X0001500Y0265134D01*
X0356421Y0265134D01*
X0356421Y0043933D01*
X0001500Y0043933D01*
X0044500Y0043933D02*
X0088500Y0043933D01*
X0269500Y0043933D02*
X0313500Y0043933D01*
D11*
X0001500Y0021433D02*
X0001500Y0001256D01*
X0001756Y0008933D02*
X0011736Y0007909D01*
X0011736Y0007676D02*
X0001756Y0008933D01*
X0011736Y0009957D01*
X0011736Y0010190D02*
X0011736Y0007676D01*
X0011736Y0008421D02*
X0001756Y0008933D01*
X0011736Y0009445D01*
X0011736Y0010190D02*
X0001756Y0008933D01*
X0356244Y0008933D01*
X0346264Y0007909D01*
X0346264Y0007676D02*
X0356244Y0008933D01*
X0346264Y0009957D01*
X0346264Y0010190D02*
X0346264Y0007676D01*
X0346264Y0008421D02*
X0356244Y0008933D01*
X0346264Y0009445D01*
X0346264Y0010190D02*
X0356244Y0008933D01*
X0356500Y0001256D02*
X0356500Y0021433D01*
X0381500Y0043933D02*
X0399177Y0043933D01*
X0391500Y0044189D02*
X0392524Y0054169D01*
X0392757Y0054169D02*
X0391500Y0044189D01*
X0390476Y0054169D01*
X0390243Y0054169D02*
X0392757Y0054169D01*
X0392012Y0054169D02*
X0391500Y0044189D01*
X0390988Y0054169D01*
X0390243Y0054169D02*
X0391500Y0044189D01*
X0391500Y0266177D01*
X0392524Y0256197D01*
X0392757Y0256197D02*
X0391500Y0266177D01*
X0390476Y0256197D01*
X0390243Y0256197D02*
X0392757Y0256197D01*
X0392012Y0256197D02*
X0391500Y0266177D01*
X0390988Y0256197D01*
X0390243Y0256197D02*
X0391500Y0266177D01*
X0399177Y0266433D02*
X0381500Y0266433D01*
D12*
X0383600Y0169837D02*
X0382533Y0168770D01*
X0382533Y0166635D01*
X0383600Y0165567D01*
X0382533Y0163392D02*
X0382533Y0159122D01*
X0385735Y0159122D01*
X0384668Y0161257D01*
X0384668Y0162324D01*
X0385735Y0163392D01*
X0387871Y0163392D01*
X0388938Y0162324D01*
X0388938Y0160189D01*
X0387871Y0159122D01*
X0387871Y0156966D02*
X0388938Y0156966D01*
X0388938Y0155899D01*
X0387871Y0155899D01*
X0387871Y0156966D01*
X0387871Y0153724D02*
X0386803Y0153724D01*
X0385735Y0152656D01*
X0385735Y0149453D01*
X0387871Y0149453D01*
X0388938Y0150521D01*
X0388938Y0152656D01*
X0387871Y0153724D01*
X0383600Y0151589D02*
X0385735Y0149453D01*
X0385735Y0147278D02*
X0387871Y0147278D01*
X0388938Y0146211D01*
X0388938Y0144076D01*
X0387871Y0143008D01*
X0385735Y0143008D02*
X0384668Y0145143D01*
X0384668Y0146211D01*
X0385735Y0147278D01*
X0382533Y0147278D02*
X0382533Y0143008D01*
X0385735Y0143008D01*
X0383600Y0151589D02*
X0382533Y0153724D01*
X0388938Y0165567D02*
X0384668Y0169837D01*
X0383600Y0169837D01*
X0388938Y0169837D02*
X0388938Y0165567D01*
X0193654Y0017900D02*
X0189384Y0017900D01*
X0193654Y0017900D02*
X0193654Y0016833D01*
X0189384Y0012562D01*
X0189384Y0011495D01*
X0187209Y0011495D02*
X0182939Y0011495D01*
X0185074Y0011495D02*
X0185074Y0017900D01*
X0182939Y0015765D01*
X0180783Y0012562D02*
X0179716Y0012562D01*
X0179716Y0011495D01*
X0180783Y0011495D01*
X0180783Y0012562D01*
X0177541Y0012562D02*
X0176473Y0011495D01*
X0174338Y0011495D01*
X0173270Y0012562D01*
X0177541Y0016833D01*
X0177541Y0012562D01*
X0173270Y0012562D02*
X0173270Y0016833D01*
X0174338Y0017900D01*
X0176473Y0017900D01*
X0177541Y0016833D01*
X0171095Y0016833D02*
X0171095Y0012562D01*
X0170028Y0011495D01*
X0167892Y0011495D01*
X0166825Y0012562D01*
X0167892Y0014698D02*
X0171095Y0014698D01*
X0171095Y0016833D02*
X0170028Y0017900D01*
X0167892Y0017900D01*
X0166825Y0016833D01*
X0166825Y0015765D01*
X0167892Y0014698D01*
M02*
